<svg width="28" height="28" viewBox="0 0 28 28" fill="none" xmlns="http://www.w3.org/2000/svg">
<path d="M26.5555 0L17.6836 3.32076L20.8676 5.32162C15.1797 12.4611 6.95185 16.8588 0 18.5327L1.96939 22.1084C9.78074 19.5706 18.0507 14.9929 23.3775 6.90551L25.8031 8.4294L26.5555 0ZM27.0189 7.0015L26.73 10.2893L23.6423 8.3454C23.534 8.50739 23.4196 8.66338 23.3052 8.82537V28H28V7.0015H27.0189ZM17.9544 14.681C17.19 15.3409 16.4015 15.9649 15.601 16.5528V28H20.2958V14.681H17.9544ZM10.509 19.7206C9.6423 20.1766 8.77558 20.5965 7.89682 20.9925V28H12.5916V19.7206H10.509ZM0.192605 22.3604V28H4.88736V22.3604H4.54549C3.65348 22.6904 2.76208 22.9964 1.8761 23.2783L1.45116 23.4103L0.873345 22.3604H0.192605Z" fill="white"/>
</svg>
