<svg width="11" height="14" viewBox="0 0 11 14" fill="none" xmlns="http://www.w3.org/2000/svg">
<path d="M7.58333 9.91667C7.73804 9.91667 7.88641 9.97813 7.99581 10.0875C8.1052 10.1969 8.16666 10.3453 8.16666 10.5C8.16666 10.6547 8.1052 10.8031 7.99581 10.9125C7.88641 11.0219 7.73804 11.0833 7.58333 11.0833H7C6.84529 11.0833 6.69691 11.0219 6.58752 10.9125C6.47812 10.8031 6.41666 10.6547 6.41666 10.5C6.41666 10.3453 6.47812 10.1969 6.58752 10.0875C6.69691 9.97813 6.84529 9.91667 7 9.91667H7.58333ZM6.41666 8.75C6.26195 8.75 6.11358 8.68854 6.00418 8.57915C5.89479 8.46975 5.83333 8.32138 5.83333 8.16667V7.58334H4.66666V8.16667C4.66666 8.32138 4.60521 8.46975 4.49581 8.57915C4.38641 8.68854 4.23804 8.75 4.08333 8.75C3.92862 8.75 3.78025 8.68854 3.67085 8.57915C3.56146 8.46975 3.5 8.32138 3.5 8.16667V5.83334C3.5 5.36921 3.68437 4.92409 4.01256 4.5959C4.34075 4.26771 4.78587 4.08334 5.25 4.08334C5.71413 4.08334 6.15924 4.26771 6.48743 4.5959C6.81562 4.92409 7 5.36921 7 5.83334V8.16667C7 8.32138 6.93854 8.46975 6.82914 8.57915C6.71975 8.68854 6.57137 8.75 6.41666 8.75ZM5.83333 6.41667V5.83334C5.83333 5.67863 5.77187 5.53026 5.66248 5.42086C5.55308 5.31146 5.40471 5.25001 5.25 5.25001C5.09529 5.25001 4.94691 5.31146 4.83752 5.42086C4.72812 5.53026 4.66666 5.67863 4.66666 5.83334V6.41667H5.83333ZM4.83525 9.50834L3.89491 10.4592C3.86858 10.4857 3.83308 10.501 3.79574 10.5021C3.75841 10.5032 3.72208 10.4899 3.69425 10.465L3.33491 10.0917C3.22662 9.98074 3.07869 9.91738 2.92368 9.91552C2.76866 9.91366 2.61926 9.97346 2.50833 10.0818C2.39741 10.1901 2.33404 10.338 2.33218 10.493C2.33032 10.648 2.39012 10.7974 2.49841 10.9083L2.86358 11.284C3.1102 11.5301 3.4444 11.6684 3.79283 11.6684C4.14126 11.6684 4.47546 11.5301 4.72208 11.284L5.66475 10.325C5.76126 10.2129 5.81155 10.0682 5.80544 9.92041C5.79934 9.77259 5.73729 9.63261 5.63186 9.52881C5.52643 9.42501 5.3855 9.36515 5.23759 9.36135C5.08969 9.35755 4.94587 9.41009 4.83525 9.50834ZM10.5 3.88326V11.0833C10.4991 11.8566 10.1915 12.5979 9.6447 13.1447C9.09792 13.6915 8.35659 13.9991 7.58333 14H2.91666C2.1434 13.9991 1.40207 13.6915 0.855294 13.1447C0.308514 12.5979 0.00092625 11.8566 0 11.0833V2.91667C0.00092625 2.14341 0.308514 1.40208 0.855294 0.855304C1.40207 0.308524 2.1434 0.000935841 2.91666 9.59185e-06H6.61675C6.99998 -0.000976281 7.37961 0.074045 7.73366 0.220733C8.08772 0.36742 8.40916 0.582862 8.67941 0.854592L9.64541 1.82059C9.91714 2.09084 10.1326 2.41229 10.2793 2.76634C10.426 3.12039 10.501 3.50002 10.5 3.88326ZM7.85458 1.67943C7.77167 1.59697 7.68081 1.52292 7.58333 1.45834V2.91667H9.04166C8.9769 2.81917 8.90265 2.72831 8.81999 2.64542L7.85458 1.67943ZM9.33333 4.08334H7.58333C7.27391 4.08334 6.97716 3.96042 6.75837 3.74163C6.53958 3.52284 6.41666 3.22609 6.41666 2.91667V1.16668H2.91666C2.45254 1.16668 2.00742 1.35105 1.67923 1.67924C1.35104 2.00743 1.16667 2.45255 1.16667 2.91667V11.0833C1.16667 11.5475 1.35104 11.9926 1.67923 12.3208C2.00742 12.649 2.45254 12.8333 2.91666 12.8333H7.58333C8.04746 12.8333 8.49258 12.649 8.82076 12.3208C9.14895 11.9926 9.33333 11.5475 9.33333 11.0833V4.08334Z" fill="#A3A3A3"/>
</svg>
