<svg width="106" height="139" viewBox="0 0 106 139" fill="none" xmlns="http://www.w3.org/2000/svg">
<path d="M38.4503 70.6992C35.8932 71.5181 33.6727 72.9326 31.6529 74.6352C26.0242 79.2586 21.6709 85.2442 19.0066 92.0235C17.9138 94.7128 17.3638 97.5916 17.3882 100.494C17.4212 102.004 17.6798 103.499 18.1553 104.932C18.7438 106.657 19.7129 108.228 20.9908 109.528C21.036 109.577 21.0699 109.635 21.09 109.698C21.1102 109.761 21.1161 109.828 21.1073 109.894C20.1068 112.033 19.3552 114.28 18.8674 116.591C18.0323 115.924 17.2199 115.351 16.5013 114.685C14.0963 112.448 12.7239 109.616 11.9309 106.476C10.7915 101.964 9.66508 97.4485 8.52895 92.9363C8.4031 92.4271 8.23862 91.9283 8.03696 91.4441C7.52554 90.2497 6.17254 89.9487 5.24033 90.8744C4.79195 91.3358 4.43209 91.8756 4.17863 92.467C3.43739 94.1437 3.11372 95.9369 2.86448 97.7398C2.36134 101.388 2.30917 105.084 2.70911 108.745C3.18169 113.144 4.17863 117.397 6.45737 121.252C9.17632 125.845 13.1965 128.59 18.4531 129.522C19.1264 129.642 19.8061 129.742 20.4826 129.862C20.5811 129.883 20.6678 129.941 20.7254 130.024C22.7808 133.766 26.1471 135.565 30.1575 136.426C33.9464 137.258 37.7932 137.799 41.6645 138.045C41.7356 138.062 41.8042 138.088 41.8684 138.123H46.4647C47.07 138.042 47.6882 138.006 48.2806 137.87C49.1879 137.688 50.0796 137.436 50.9477 137.116C51.6117 136.874 52.1562 136.384 52.4669 135.749C52.7777 135.114 52.8306 134.384 52.6147 133.711C52.6097 133.665 52.6097 133.618 52.6147 133.572C53.4077 133.442 54.204 133.322 54.997 133.186C56.9986 132.839 58.9664 132.319 60.8783 131.633C61.0882 131.561 61.3159 131.561 61.5257 131.633C63.6272 132.433 65.81 133 68.035 133.326C70.563 133.73 73.0909 134.125 75.6319 134.423C78.6162 134.772 81.62 134.993 84.6206 134.607C85.6082 134.492 86.5759 134.245 87.4981 133.873C89.4208 133.067 89.9387 131.176 88.7928 129.441C87.8639 128.033 86.4979 127.153 85.0025 126.457C83.4983 125.757 81.875 125.348 80.2185 125.253C80.157 125.253 80.0955 125.253 80.0016 125.227C82.659 121.249 84.7889 117.086 85.3942 112.299C85.4427 112.299 85.4718 112.28 85.4913 112.299C86.6403 112.911 87.4852 112.283 88.2652 111.568C89.3755 110.548 89.9128 109.214 90.1491 107.764C90.4728 105.822 90.4728 103.899 89.6927 102.042C89.6168 101.8 89.5078 101.57 89.369 101.359C88.9612 100.867 88.9256 100.313 88.9353 99.7045C89.0759 95.0422 88.1225 90.4118 86.1516 86.1843C83.6498 80.7738 79.5443 76.2638 74.3922 73.266C74.3695 73.266 74.3501 73.2337 74.3274 73.2175L73.7577 73.9263C73.9604 73.9924 74.1574 74.0746 74.3468 74.1724C75.8821 75.1184 77.3285 76.2018 78.668 77.4092C80.2614 78.8395 81.6941 80.4394 82.9406 82.1803C84.3681 84.1926 85.5168 86.3887 86.3555 88.709C87.143 90.8627 87.6605 93.1056 87.8962 95.3866C87.9804 96.1861 88.0743 96.9856 88.1196 97.7883C88.1552 98.4357 88.1196 99.0636 88.1196 99.711C88.0387 99.6948 88.0095 99.711 87.9901 99.6819C87.9124 99.6301 87.838 99.5718 87.7635 99.5168C86.8475 98.8694 85.8376 98.4519 84.7015 98.6655C83.4067 98.905 82.5975 99.7563 82.1444 100.951C81.9534 101.446 81.8207 101.97 81.6783 102.514L80.9824 102.009C79.8244 101.217 78.5309 100.643 77.1661 100.316C76.9913 100.274 76.8036 100.261 76.7906 99.9926C76.768 99.5395 76.7097 99.0831 76.6418 98.6331C76.3375 96.691 76.0915 94.7489 75.6998 92.8392C75.156 90.172 74.499 87.5275 73.884 84.8733C73.7545 84.3101 73.6121 83.7469 73.434 83.1999C73.3984 83.0834 73.146 82.9248 73.0586 82.9571C72.9712 82.9895 72.832 83.2031 72.7608 83.352C72.7284 83.42 72.7899 83.5333 72.8126 83.6239C74.0361 88.5472 75.2434 93.4736 75.8423 98.5134C76.0494 100.245 76.2533 101.977 76.085 103.731C75.962 104.987 75.9491 106.253 75.8261 107.509C75.6675 109.176 75.525 110.852 75.237 112.5C74.6382 115.902 73.557 119.148 71.6764 122.084C71.1521 122.906 70.5079 123.654 69.9188 124.437C69.8723 124.53 69.8159 124.618 69.7505 124.699C69.333 125.136 68.9122 125.567 68.4817 125.994C66.4427 127.943 64.0482 129.481 61.4286 130.526C58.7615 131.642 55.9616 132.251 53.1196 132.698C52.5014 132.795 51.9544 132.827 51.6566 132.138C51.6236 132.079 51.5834 132.025 51.5368 131.976C51.5124 131.965 51.4895 131.951 51.4689 131.934C49.6562 130.108 47.4099 129.16 44.9175 128.726C44.4126 128.639 43.9011 128.59 43.3573 128.519C43.4285 128.393 43.4739 128.296 43.5321 128.195C45.1633 125.837 46.4973 123.287 47.5037 120.602C48.058 119.159 48.4351 117.655 48.6269 116.122C48.7143 115.296 48.7564 114.465 48.8179 113.636C48.7855 113.361 48.7564 113.082 48.724 112.791C48.9053 112.739 49.0671 112.675 49.2387 112.642C50.9866 112.302 52.1842 111.237 52.9578 109.69C54.3108 106.981 54.4694 104.139 53.7152 101.239C53.6051 100.77 53.3944 100.33 53.0976 99.9508C52.8008 99.5714 52.4251 99.2609 51.9965 99.041C50.7503 98.3936 49.5494 98.604 48.3874 99.2935L46.6168 100.896C45.2088 100.313 43.749 99.7013 42.2859 99.0992C41.4314 98.7464 40.5737 98.4098 39.7159 98.0667L37.2721 97.2413C37.3005 97.1393 37.334 97.0389 37.3724 96.9403C38.1201 95.3607 38.8873 93.7876 39.6123 92.1951C40.3374 90.6025 40.9977 89.0456 41.6709 87.4628C42.1144 86.4141 42.5319 85.3524 42.9657 84.2972C43.1664 83.7113 43.3541 83.1254 43.5645 82.5461C43.5991 82.4895 43.6204 82.426 43.627 82.3601C43.6336 82.2941 43.6252 82.2276 43.6025 82.1654C43.5798 82.1031 43.5434 82.0468 43.4959 82.0007C43.4484 81.9545 43.391 81.9196 43.3282 81.8987C43.0401 81.7854 42.8945 81.9828 42.8006 82.2418C42.4284 83.2517 42.0756 84.2681 41.6677 85.2618C40.8067 87.3528 39.9392 89.4373 39.0265 91.5056C38.2723 93.2147 37.4436 94.8946 36.6603 96.5939C36.5373 96.8691 36.4046 96.937 36.1036 96.8367C35.3526 96.5842 34.5952 96.3512 33.8378 96.1537C32.8667 95.9012 31.8536 95.6811 30.8567 95.4675C30.601 95.4125 30.3258 95.4222 30.2773 95.7912C30.2287 96.1602 30.4488 96.2152 30.7337 96.2703C31.381 96.39 31.9896 96.5389 32.6207 96.6781C34.1065 97.1215 35.6181 97.5035 37.0779 98.0246C39.3922 98.85 41.6742 99.7563 43.9626 100.643C44.7459 100.967 45.5131 101.291 46.2478 101.614C45.9921 102.511 45.7494 103.356 45.5034 104.204C45.5034 104.366 45.5034 104.527 45.4872 104.689C45.4548 105.013 45.5616 105.285 45.908 105.304C46.2543 105.324 46.3158 105.006 46.3741 104.718C46.4813 103.951 46.6513 103.193 46.8823 102.453C47.439 100.98 48.4489 99.9214 50.0414 99.5395C50.6888 99.3873 51.7893 99.5783 52.113 100.151C51.5142 100.4 50.9057 100.65 50.3004 100.905C49.9993 101.032 49.8213 101.229 50.0026 101.553C50.1838 101.876 50.446 101.77 50.7017 101.66L51.9673 101.142C52.9384 100.912 52.8219 100.905 53.1035 101.789C53.165 101.977 53.1973 102.171 53.2524 102.391L52.1356 102.589L50.87 103.071C50.814 103.085 50.762 103.112 50.7181 103.15C50.6743 103.188 50.6397 103.235 50.6172 103.288C50.5946 103.341 50.5846 103.399 50.5881 103.457C50.5915 103.515 50.6083 103.571 50.637 103.621C50.7373 103.883 50.8927 104.013 51.1937 103.883C51.4948 103.754 51.8184 103.653 52.1324 103.54L53.3333 103.174C53.3689 103.637 53.3883 103.993 53.4271 104.349C53.438 104.395 53.439 104.442 53.4299 104.488C53.4209 104.534 53.402 104.577 53.3746 104.615C53.3473 104.653 53.3121 104.684 53.2714 104.707C53.2307 104.73 53.1856 104.744 53.1391 104.748C52.8154 104.825 52.4658 104.919 52.1324 105.006C51.6566 105.249 51.1775 105.482 50.7147 105.748C50.6634 105.775 50.619 105.813 50.5849 105.861C50.5509 105.908 50.5282 105.962 50.5185 106.019C50.5088 106.076 50.5124 106.135 50.529 106.191C50.5456 106.246 50.5748 106.297 50.6143 106.34C50.6419 106.39 50.6796 106.434 50.7252 106.469C50.7708 106.504 50.8231 106.529 50.8789 106.543C50.9347 106.556 50.9927 106.558 51.0492 106.547C51.1056 106.537 51.1593 106.515 51.2067 106.482L51.8896 106.143L53.2944 105.57L53.4239 105.699C53.207 106.537 53.0549 107.399 52.7765 108.211C52.2586 109.661 51.4397 110.901 49.9605 111.561C49.5494 111.678 49.1416 111.801 48.7305 111.911C46.3618 112.557 43.9446 113.011 41.5026 113.267C39.8065 113.438 38.1072 113.561 36.4078 113.652C35.6142 113.673 34.8201 113.651 34.0288 113.587C33.2778 113.545 32.5236 113.513 31.7824 113.406C29.726 113.157 27.7146 112.621 25.8072 111.814C23.903 111.006 22.2178 109.758 20.8904 108.172C19.039 105.906 18.2298 103.259 18.1715 100.368C18.1493 98.8625 18.3201 97.3602 18.6797 95.898C18.8642 95.1212 19.1296 94.3605 19.3594 93.5902C19.3941 93.4056 19.4384 93.223 19.4921 93.0431C20.353 90.6208 21.4707 88.2975 22.8261 86.1131C24.8727 82.7382 27.3612 79.6521 30.2255 76.9366C31.8566 75.375 33.6529 73.9955 35.5825 72.8226C35.9061 72.6316 36.2492 72.4989 36.5859 72.3241L39.0167 71.3531L38.4503 70.6992ZM85.8732 111.483C85.4682 111.282 85.0853 111.039 84.7306 110.758C83.6398 109.706 83.0831 108.363 82.7885 106.9C82.7173 106.528 82.6687 106.152 82.5878 105.647L84.012 106.233C84.1771 106.321 84.3357 106.418 84.5073 106.502C84.7792 106.638 85.1805 106.57 85.2647 106.359C85.3974 106.036 85.1902 105.855 84.941 105.712C84.5558 105.521 84.1642 105.343 83.7757 105.162C83.4521 105.058 83.109 104.964 82.782 104.838C82.6946 104.806 82.5781 104.696 82.5716 104.618C82.5522 104.194 82.5716 103.767 82.5716 103.236L83.7045 103.543C84.0171 103.687 84.3421 103.802 84.6756 103.887C84.779 103.891 84.8819 103.871 84.9767 103.83C85.0714 103.788 85.1555 103.726 85.2226 103.647C85.2841 103.566 85.1352 103.291 85.0349 103.136C84.9766 103.048 84.8277 103.016 84.7112 102.98C84.0638 102.78 83.4165 102.585 82.7367 102.385C82.7305 102.358 82.7305 102.33 82.7367 102.304C82.7853 102.08 82.8241 101.857 82.8921 101.64C83.0701 101.041 83.1284 100.993 83.7531 101.181C84.1998 101.316 84.6141 101.55 85.0478 101.702C85.323 101.799 85.6661 101.896 85.8344 101.553C86.0027 101.21 85.7146 101.045 85.4557 100.905C85.3972 100.872 85.3366 100.843 85.2744 100.818L83.656 100.2C84.1998 99.4715 85.323 99.2287 86.3167 99.6301C87.8639 100.248 88.7411 101.459 89.1975 102.996C89.6976 104.764 89.6909 106.637 89.178 108.402C88.8875 109.633 88.1461 110.711 87.1 111.422C86.6857 111.713 86.2778 111.807 85.8732 111.493V111.483ZM18.7121 123.223C18.7638 123.469 18.8351 123.709 18.8642 123.958C19.0359 125.423 19.3915 126.861 19.9226 128.237C20.0197 128.48 20.0909 128.733 20.1978 129.046C19.9955 129.068 19.7915 129.068 19.5892 129.046C18.1844 128.723 16.757 128.441 15.3813 127.988C13.382 127.296 11.5572 126.177 10.0341 124.709C8.75874 123.514 7.68241 122.123 6.84579 120.589C6.48327 119.941 6.22756 119.223 5.92654 118.536C5.56536 117.745 5.24662 116.934 4.97166 116.109C4.53447 114.604 4.17685 113.077 3.90027 111.535C3.58144 109.743 3.37495 107.932 3.28203 106.113C3.13618 103.738 3.20879 101.354 3.4989 98.9924C3.67693 97.7883 3.82259 96.5745 4.08477 95.3898C4.36314 94.1501 4.67387 92.8975 5.45071 91.8293C5.6131 91.6653 5.79845 91.5257 6.00098 91.415C6.51563 91.0913 6.97203 91.2014 7.20185 91.7193C7.40905 92.1708 7.57586 92.6398 7.70032 93.1208C8.25706 95.3866 8.77171 97.6524 9.31874 99.9182C9.84311 102.038 10.3675 104.162 10.9728 106.262C11.3809 107.691 11.8671 109.095 12.4293 110.47C13.1414 112.202 14.284 113.668 15.5529 115.034C15.9284 115.358 16.2877 115.707 16.6825 116.005C17.2619 116.439 17.8705 116.834 18.4531 117.261C18.5131 117.304 18.5635 117.359 18.6014 117.423C18.6392 117.486 18.6637 117.557 18.6732 117.63C18.6473 118.365 18.5405 119.1 18.547 119.834C18.5729 120.974 18.657 122.097 18.7121 123.223ZM88.4562 131.963C88.3103 132.277 88.0977 132.555 87.8333 132.779C87.5689 133.002 87.2591 133.166 86.9252 133.258C84.8957 133.957 82.7982 134.025 80.6846 133.905C78.7716 133.792 76.8554 133.672 74.9457 133.487C73.4826 133.345 72.0325 133.131 70.5694 132.882C68.8151 132.584 67.0639 132.235 65.3225 131.869C64.3709 131.665 63.4419 131.358 62.5032 131.099V130.992C62.6521 130.914 62.8075 130.84 62.9532 130.756C64.1735 130.053 65.4391 129.412 66.6076 128.632C68.7639 127.183 70.6094 125.317 72.0357 123.146C72.5925 122.307 73.0683 121.414 73.5797 120.556C73.9908 119.55 74.4504 118.559 74.8065 117.533C76.0721 113.892 76.5479 110.108 76.7486 106.279C76.7777 105.715 76.8683 105.159 76.8878 104.595C76.9169 103.699 76.9104 102.802 76.9169 101.906C76.9169 101.63 76.9169 101.359 76.9169 101.032C78.5466 101.39 80.0677 102.132 81.3546 103.194C81.4797 103.276 81.5774 103.393 81.6351 103.531C81.6928 103.669 81.7078 103.821 81.6783 103.967C81.4226 104.113 81.1571 104.175 81.0924 104.327C81.0277 104.479 81.141 104.722 81.2251 104.9C81.3837 105.223 81.6945 105.547 81.7333 105.871C81.8678 107.196 82.2441 108.485 82.8435 109.674C83.1672 110.292 83.0766 110.92 82.9827 111.558C82.9827 111.852 83.0539 112.128 83.4003 112.134C84.0897 112.134 83.724 111.519 83.902 111.202C84.1318 111.393 84.3487 111.551 84.5494 111.736C84.6287 111.825 84.6714 111.94 84.6691 112.06C84.6599 112.3 84.6328 112.539 84.5882 112.775C84.1221 115.759 83.0119 118.511 81.5876 121.149C81.1798 121.9 80.691 122.612 80.2411 123.34C79.8106 123.987 79.3769 124.635 78.9464 125.282C78.8655 125.405 78.7716 125.625 78.8266 125.706C78.9384 125.845 79.0973 125.939 79.2733 125.968C79.646 126.015 80.0209 126.042 80.3965 126.049C82.1473 126.159 83.8515 126.659 85.3845 127.512C86.4947 128.108 87.524 128.807 88.2264 129.898C88.4447 130.191 88.5811 130.536 88.6215 130.899C88.6619 131.262 88.6048 131.629 88.4562 131.963ZM37.0779 114.484C37.2786 114.458 37.476 114.426 37.6767 114.409C39.0135 114.299 40.3568 114.251 41.6839 114.086C43.448 113.85 45.1991 113.513 46.9535 113.218C47.2771 113.16 47.6203 113.092 47.9472 113.031C48.2255 114.16 48.0443 115.222 47.8922 116.267C47.4967 118.685 46.7211 121.025 45.594 123.201C45.524 123.307 45.4414 123.405 45.348 123.492C45.2987 123.716 45.2238 123.933 45.1247 124.139C44.2151 125.612 43.2861 127.075 42.3798 128.551C42.2698 128.729 42.1532 129.014 42.2244 129.16C42.2957 129.305 42.5934 129.37 42.8006 129.396C43.3735 129.461 43.9562 129.451 44.5226 129.532C45.6941 129.705 46.8344 130.046 47.9083 130.545C49.2683 131.108 50.4641 132.006 51.3847 133.154C52.291 134.361 51.9285 135.867 50.5949 136.452C50.4331 136.544 50.2667 136.627 50.0964 136.702C48.7758 137.162 47.3875 137.398 45.9889 137.401C44.5906 137.443 43.189 137.401 41.781 137.33C40.4442 137.265 39.1041 137.161 37.7738 137.006C36.2751 136.818 34.7765 136.575 33.294 136.287C31.0023 135.841 28.7042 135.43 26.5517 134.455C24.6481 133.641 23.022 132.292 21.8712 130.571C20.3305 128.211 19.7219 125.557 19.5083 122.803C19.463 122.23 19.4824 121.647 19.4112 121.074C19.283 119.83 19.3288 118.574 19.5471 117.342C19.8448 115.524 20.352 113.747 21.0588 112.047C21.2724 111.503 21.5184 110.972 21.7709 110.383L22.0945 110.658C22.7775 111.111 23.4346 111.606 24.1499 112.001C27.0243 113.594 30.164 114.222 33.4008 114.455C34.6341 114.484 35.8576 114.455 37.0779 114.484Z" fill="#772A19"/>
<path d="M61.3543 6.1396C61.3899 5.73176 61.4384 5.32715 61.4579 4.91931C61.5137 4.19509 61.3798 3.46883 61.0694 2.81213C60.8129 2.2333 60.351 1.77004 59.773 1.5118C59.1949 1.25356 58.5417 1.21865 57.9394 1.41381C56.6706 1.76339 55.7319 2.60497 54.845 3.51776C54.6864 3.6796 54.5375 3.84144 54.3271 4.08744C54.3271 3.76376 54.3433 3.53071 54.3271 3.28794C54.3114 2.80333 54.266 2.32013 54.1912 1.84108C54.1463 1.46004 53.9872 1.1015 53.7348 0.812622C53.4823 0.523746 53.1483 0.31807 52.7767 0.222656L52.2102 0.222656C51.3358 0.425525 50.5448 0.892191 49.9444 1.55947C49.4265 2.20684 48.9734 2.88334 48.5137 3.55336C48.4296 3.67636 48.3681 3.81555 48.2418 4.04536C48.1836 3.56631 48.1609 3.20702 48.0929 2.85421C47.8696 1.76015 47.6819 0.636972 46.3968 0.222656H45.9922C43.9045 0.970366 42.8816 2.67294 42.108 4.58268C41.4506 6.33961 41.0346 8.17765 40.8716 10.0465L40.4378 9.81665C38.0717 8.54781 35.5826 7.69652 32.8669 7.62854C29.63 7.54762 26.9143 8.76144 24.6 10.9754C22.8844 12.6165 21.6674 14.6136 20.5021 16.6528C19.489 18.4299 18.5115 20.2296 17.4045 21.9451C14.8441 25.9102 11.1833 28.3346 6.6517 29.6099C5.56921 29.9311 4.51827 30.3504 3.51196 30.8626C1.80938 31.7009 0.430496 32.8759 0 34.8568V35.9897C0.223244 36.9289 0.624275 37.8167 1.18144 38.6051C2.73361 40.6974 4.89381 42.2597 7.36703 43.0784C8.73946 43.538 10.1863 43.4798 11.6138 43.3341C14.7641 43.0543 17.7996 42.0147 20.4601 40.3044C23.9299 38.0386 26.0954 34.9151 26.869 30.8205C27.4932 27.2059 28.8123 23.7467 30.7532 20.6342C31.8764 18.8798 33.2132 17.3261 35.0355 16.2515C35.1618 16.1704 35.3066 16.1225 35.4563 16.1123C35.3884 16.2159 35.3236 16.3259 35.2524 16.436C31.8959 21.2456 29.5444 26.683 28.3385 32.4227C27.6845 35.2743 27.3587 38.1913 27.3675 41.1169C27.4225 46.011 28.0958 50.7983 29.9278 55.359C31.666 59.7028 34.3234 63.3345 38.1785 66.0405C38.2501 66.0991 38.3172 66.1629 38.3792 66.2315C39.4959 66.8789 40.6094 67.5262 41.739 68.1186C42.2925 68.4131 42.8816 68.6397 43.4546 68.8954L43.6196 68.9861C43.9757 69.1026 44.335 69.2094 44.691 69.3292C47.7683 70.3486 50.9719 70.9369 54.2106 71.0771C55.6477 71.1547 57.0881 71.1418 58.5253 71.0932C60.4868 71.0253 62.4483 70.9411 64.4001 70.7696C65.9733 70.6239 67.5366 70.3455 69.1 70.0866C70.0517 69.928 70.9903 69.6885 71.9355 69.4878L73.2788 69.0799C74.9425 68.4326 76.6386 67.8661 78.2668 67.1378C81.4009 65.7635 84.2515 63.8173 86.6728 61.3989C89.586 58.4858 91.7061 55.0644 92.6254 50.9925C93.2436 48.2509 93.1983 45.5416 92.0589 42.9198L91.376 43.4053C91.4081 43.4468 91.4363 43.4912 91.4601 43.538C92.2545 45.5207 92.4711 47.6877 92.0848 49.7884C91.5619 52.8457 90.3107 55.7323 88.4369 58.2042C87.2268 59.8741 85.7836 61.362 84.1513 62.6224C82.8954 63.5773 81.5295 64.393 80.2121 65.2702C79.8625 65.4676 79.5162 65.678 79.1569 65.8593C76.5355 67.1685 73.7741 68.1762 70.9256 68.8631C68.4249 69.48 65.881 69.9063 63.3158 70.1384C61.9143 70.2646 60.4998 70.2679 59.0917 70.3229C59.022 70.3589 58.9463 70.3819 58.8684 70.3908C57.25 70.3455 55.6121 70.3488 53.9905 70.2258C52.3688 70.1028 50.8151 69.9021 49.2453 69.6561C46.7623 69.2439 44.3505 68.481 42.0821 67.3903C39.1369 66.0083 36.5296 63.9987 34.4432 61.5025C32.9289 59.6768 31.6971 57.6343 30.7888 55.4431C29.7119 52.9147 28.996 50.2473 28.6622 47.5193C28.455 45.7779 28.2738 44.0268 28.1993 42.2757C28.1443 40.9518 28.2738 39.6182 28.3353 38.2879C28.4498 36.388 28.7161 34.5003 29.1315 32.6428C29.8694 29.1719 31.0236 25.8028 32.5691 22.6086C33.7804 20.071 35.2803 17.6816 37.0391 15.4876C37.803 14.5392 38.6802 13.6814 39.5056 12.7848C40.0785 12.2669 40.6579 11.7587 41.2211 11.2311C41.4029 11.0922 41.5383 10.9015 41.6096 10.6841C41.7746 9.73573 41.8944 8.78086 42.0303 7.82923C42.0562 7.67386 42.0724 7.50554 42.1113 7.35665C42.4965 5.73823 42.9626 4.13923 43.953 2.75386C44.4354 2.00368 45.1423 1.42486 45.9728 1.09984C46.1351 1.02711 46.3192 1.02021 46.4865 1.08059C46.6538 1.14097 46.791 1.26392 46.8694 1.42352C47.2041 1.96159 47.3802 2.5831 47.3776 3.21673C47.4091 3.32762 47.4286 3.44156 47.4359 3.5566C47.4359 4.38523 47.4359 5.21386 47.4359 6.04573C47.4359 6.29497 47.4359 6.56362 47.7596 6.6057C48.0832 6.64778 48.1706 6.45033 48.2645 6.19462C48.449 5.67673 48.6723 5.17502 48.8827 4.67007C49.0398 4.2871 49.2181 3.91321 49.4168 3.55013C50.0933 2.44636 50.8702 1.44618 52.1843 1.04481C52.7411 0.873261 53.1554 1.04481 53.3204 1.60155C53.4305 2.02785 53.5159 2.46015 53.5762 2.89629C53.5049 3.71844 53.4499 4.54384 53.3593 5.36276C53.3316 5.4733 53.3429 5.59 53.3912 5.69319C53.4396 5.79638 53.522 5.87974 53.6247 5.9292C53.8578 6.04249 54.0099 5.91302 54.1588 5.71881C54.5731 5.19768 55.0101 4.69597 55.4535 4.18455C55.9941 3.68931 56.5152 3.16818 57.0719 2.70855C57.3669 2.49776 57.6951 2.33801 58.043 2.23597C59.4251 1.76987 60.6098 2.67294 60.6325 4.17807C60.6627 4.53545 60.6702 4.89437 60.6551 5.2527C60.516 6.3537 60.1117 7.40448 59.4769 8.31475C59.2536 8.66757 59.3572 8.83265 59.6776 9.01067C60.4609 9.45412 61.2539 9.88462 62.0081 10.3734C64.6283 12.1066 67.0188 14.1643 69.1227 16.4975C70.774 18.3007 72.2887 20.2244 73.6543 22.2526C75.7291 25.3205 77.4758 28.598 78.8656 32.0311C79.2087 32.8759 79.4903 33.7434 79.7978 34.6205L80.6199 34.4684C79.4822 31.0717 77.9927 27.8031 76.1758 24.7158C73.9682 20.9097 71.2705 17.4099 68.1516 14.3061C67.8765 14.031 67.5884 13.7656 67.3036 13.5002C67.0138 13.2458 66.7493 12.9639 66.5138 12.6586C66.6465 12.6845 66.7792 12.6974 66.9087 12.733C69.1454 13.3416 71.013 14.591 72.735 16.0961C75.1982 18.3038 77.2766 20.9062 78.885 23.7966C81.1217 27.6808 84.4912 29.9465 88.8545 30.8011C92.2413 31.4791 95.7484 31.2297 99.0052 30.0793C101.572 29.1729 103.281 27.3053 104.628 25.0395C105.293 23.9512 105.733 22.7404 105.922 21.479C105.922 21.4369 105.974 21.3981 106 21.3592V20.0645C105.971 20.0256 105.926 19.99 105.919 19.948C105.625 18.2324 104.55 17.1902 103.006 16.5719C101.374 15.9665 99.6303 15.7224 97.895 15.8566C95.4859 16.0363 93.0639 15.7998 90.7351 15.1574C88.055 14.3612 85.7406 12.9111 83.614 11.1146C81.8985 9.65804 80.2348 8.13996 78.5128 6.6931C76.6742 5.14589 74.648 3.90618 72.2916 3.30413C69.0482 2.48844 66.038 3.13581 63.2155 4.85781C62.5681 5.24947 61.9725 5.70262 61.3543 6.12989L61.3154 6.18168V6.13312L61.3543 6.1396ZM1.87736 32.9147C2.05316 32.7143 2.24242 32.5262 2.44381 32.3515C3.5325 31.5571 4.74861 30.9539 6.03993 30.568C7.94967 29.9595 9.85941 29.3736 11.6202 28.3767C14.1074 27.0165 16.22 25.0629 17.7702 22.6896C19.1686 20.5079 20.4244 18.2357 21.7289 15.9925C22.8812 14.0181 24.1792 12.1666 25.9724 10.71C27.6332 9.34084 29.6857 8.53392 31.8343 8.40539C33.1416 8.32833 34.4529 8.46054 35.7185 8.79704C37.3975 9.2256 39.0064 9.8927 40.4961 10.778L39.3438 11.5516L38.2886 12.6003C38.2147 12.7229 38.1348 12.8418 38.049 12.9564C37.7577 13.2801 37.434 13.6037 37.1719 13.9566C36.7996 14.4647 36.4047 14.9114 35.7379 15.0344C35.4893 15.0966 35.2506 15.1936 35.0291 15.3225C33.435 16.1698 32.0565 17.3712 30.9992 18.8345C29.8602 20.3502 28.9122 22.0005 28.1767 23.748C27.2178 25.9618 26.512 28.2768 26.0727 30.6489C25.5832 33.4715 24.1838 36.0564 22.0882 38.0095C20.8507 39.1724 19.4287 40.1218 17.8803 40.8191C15.1031 42.0782 12.2191 42.7612 9.14083 42.5735C8.12711 42.5031 7.13718 42.2336 6.22767 41.7804C4.77326 41.0706 3.46547 40.0933 2.3726 38.8996C1.67866 38.1815 1.166 37.3082 0.877174 36.3523C0.660309 35.5786 0.598808 34.7953 1.05844 34.0638L1.79644 32.9957L1.87736 32.9147ZM105.21 21.097C105.159 21.5611 105.079 22.0217 104.971 22.4759C104.503 23.9801 103.732 25.3725 102.705 26.5673C102.013 27.4629 101.147 28.2103 100.161 28.7651C98.0665 29.8721 95.7878 30.2832 93.454 30.3835C92.59 30.4138 91.725 30.3867 90.8645 30.3026C89.9941 30.2359 89.129 30.1116 88.2751 29.9304C86.5425 29.5348 84.9027 28.8083 83.4457 27.7908C82.0591 26.8275 80.8775 25.5986 79.9693 24.1753C79.2249 23.0229 78.571 21.8124 77.7651 20.7086C76.8363 19.412 75.8254 18.1762 74.7386 17.0089C73.7655 16.0078 72.7134 15.0866 71.5924 14.2544C70.1344 13.1167 68.4363 12.3264 66.6271 11.9432C65.9797 11.8073 65.2191 11.8979 64.7076 11.2959C64.5842 11.1744 64.4486 11.066 64.303 10.9722L62.649 9.69041L61.2734 8.8812L60.4026 8.44099C60.4188 8.36978 60.4026 8.33741 60.4318 8.31799C60.4609 8.29857 60.5192 8.21765 60.5645 8.1691C61.9728 6.69726 63.6654 5.52669 65.5395 4.72834C67.1314 4.04838 68.8704 3.78547 70.5922 3.96444C72.5485 4.20681 74.422 4.89927 76.0657 5.98747C77.7036 7.02002 79.0954 8.33741 80.552 9.58683C81.9373 10.778 83.3033 11.9918 84.7599 13.1117C86.6151 14.575 88.7582 15.6306 91.049 16.2094C92.0834 16.466 93.1366 16.6403 94.1985 16.7305C95.324 16.8362 96.4559 16.8546 97.5842 16.7856C99.4163 16.6561 101.219 16.6949 102.925 17.4329C103.951 17.8667 104.809 18.5302 105.052 19.7246L105.21 21.097ZM66.3973 12.6489C66.3973 12.6489 66.3973 12.6262 66.4167 12.6262C66.4361 12.6262 66.4167 12.6262 66.4426 12.6456C66.4685 12.6651 66.4426 12.6651 66.4199 12.6651C66.3973 12.6651 66.4037 12.6554 66.3973 12.6489Z" fill="#772B19"/>
<path d="M46.3839 0.222656C47.6786 0.636972 47.8567 1.76015 48.08 2.85421C48.148 3.20702 48.1706 3.56631 48.2289 4.04536C48.3551 3.81555 48.4166 3.67636 48.5008 3.55336C48.9701 2.88334 49.4136 2.19065 49.9315 1.55947C50.5319 0.892191 51.3228 0.425525 52.1973 0.222656L46.3839 0.222656Z" fill="#FDFCFC"/>
<path d="M91.376 43.4186L92.059 42.9493C92.7355 41.6966 92.4506 40.4602 91.9489 39.2561C90.9164 36.7799 88.9678 35.3719 86.4463 34.7245C84.7286 34.3077 82.9486 34.2122 81.1961 34.4429C81.0084 34.4655 80.8207 34.4655 80.6329 34.4753L79.8108 34.6274C78.8883 34.7989 77.9366 34.8896 77.2213 35.5984L76.807 36.4141C76.6759 37.0771 76.7836 37.7651 77.1112 38.3562C77.7063 39.5709 78.5591 40.6412 79.6101 41.4927C80.9394 42.7031 82.542 43.5737 84.2808 44.0304C85.594 44.3847 86.9571 44.5171 88.3139 44.4221C89.3938 44.3066 90.4372 43.9647 91.376 43.4186ZM84.4945 43.2212C84.4168 43.2471 84.3909 43.2665 84.3682 43.26C84.3157 43.249 84.2638 43.235 84.2129 43.218C82.7227 42.7904 81.3469 42.035 80.1862 41.0072C79.1796 40.1332 78.2441 39.1751 77.7327 37.9031C77.2698 36.7378 77.4835 36.0581 78.6746 35.6632C78.943 35.5795 79.2165 35.5135 79.4936 35.4657C80.9529 35.1686 82.4443 35.0598 83.9313 35.142C83.8147 35.2003 83.6885 35.2294 83.572 35.2748C82.5621 35.634 81.5392 35.9577 80.5488 36.3688C79.9014 36.6375 79.5486 37.1974 79.6716 37.6247C79.7758 38.0398 79.9393 38.4377 80.1571 38.8061C81.0569 40.2174 82.2934 41.3179 83.5461 42.399L84.4945 43.2212Z" fill="#23223F"/>
<path d="M73.295 69.0829L71.9517 69.4907C72.1847 69.5231 72.4825 69.4746 72.6411 69.6008C73.2745 70.049 73.716 70.7193 73.8776 71.4782C74.0233 72.2874 73.6866 72.9315 72.9066 73.1743C70.7982 73.8708 68.63 74.3714 66.4296 74.6697C64.9795 74.8445 63.5165 75.0452 62.0793 75.1326C60.9774 75.1849 59.8732 75.1611 58.7745 75.0613C57.3212 74.9481 55.8614 74.8089 54.4274 74.5726C52.4393 74.234 50.5078 73.6207 48.6885 72.7502C47.24 72.0738 45.8907 71.2026 44.6781 70.1608C44.3057 69.8 43.9575 69.4151 43.6358 69.0085L43.4707 68.9178C42.8978 68.6621 42.3087 68.4355 41.7552 68.141C40.6256 67.5325 39.5121 66.8851 38.3954 66.2539C37.9875 67.7429 38.1203 69.2253 38.4504 70.7046L39.0169 71.3519C39.0567 71.3604 39.0957 71.3723 39.1334 71.3875C41.4607 72.7182 43.9171 73.8092 46.4648 74.6438C48.012 75.1617 49.6013 75.5663 51.1712 76.0227C51.2918 76.0285 51.4118 76.0426 51.5305 76.0648C53.4736 76.5217 55.4519 76.8129 57.4442 76.9355C58.6904 77.0132 59.943 76.9678 61.1924 76.9355C61.9434 76.9355 62.6943 76.8643 63.4582 76.8254V78.8776H64.2674V76.7283C65.2644 76.5276 66.2419 76.327 67.2227 76.1327C67.391 76.0971 67.5625 76.0874 67.7341 76.0648C67.7858 76.027 67.8411 75.9945 67.8992 75.9677C69.2554 75.5113 70.6149 75.0646 71.9679 74.5952C72.5602 74.3913 73.1396 74.1453 73.7255 73.922L74.3016 73.2099C74.4758 72.7613 74.6079 72.2975 74.6965 71.8245C74.7904 70.9311 74.3728 70.2061 73.7676 69.5781C73.6025 69.4195 73.4503 69.248 73.295 69.0829Z" fill="#C61310"/>
<path d="M51.1582 76.0235C49.5883 75.5672 47.999 75.1625 46.4518 74.6447C43.908 73.8051 41.456 72.7098 39.1333 71.3754C39.0956 71.3602 39.0566 71.3483 39.0168 71.3398L36.5859 72.3109C36.5632 72.5763 36.5503 72.845 36.5147 73.1104C35.5664 79.5354 32.1921 85.3527 27.0858 89.3658C25.2969 90.7665 23.3395 91.9377 21.2595 92.8519C20.638 93.1302 19.9874 93.3471 19.3497 93.5931C19.1199 94.3635 18.8545 95.1241 18.67 95.901C18.3104 97.3632 18.1396 98.8654 18.1618 100.371C18.2201 103.262 19.0293 105.909 20.8808 108.175C22.2082 109.761 23.8933 111.009 25.7975 111.817C27.7049 112.624 29.7163 113.16 31.7727 113.409C32.514 113.516 33.2681 113.548 34.0191 113.59C34.8104 113.654 35.6046 113.675 36.3982 113.655C38.0975 113.564 39.7968 113.441 41.493 113.27C43.9349 113.014 46.3521 112.56 48.7208 111.914C49.1319 111.804 49.5397 111.681 49.9508 111.564C49.9653 111.473 49.9903 111.384 50.0253 111.299C50.395 110.629 50.7258 109.938 51.0157 109.23C51.3685 108.224 51.6081 107.178 51.8929 106.146L51.2099 106.485C51.1625 106.518 51.1089 106.54 51.0524 106.55C50.996 106.561 50.938 106.559 50.8822 106.546C50.8264 106.532 50.774 106.507 50.7285 106.472C50.6829 106.437 50.6451 106.393 50.6176 106.343C50.5781 106.3 50.5489 106.249 50.5323 106.194C50.5157 106.138 50.5121 106.079 50.5218 106.022C50.5315 105.965 50.5542 105.911 50.5882 105.864C50.6222 105.816 50.6666 105.778 50.7179 105.751C51.1808 105.485 51.6599 105.252 52.1357 105.009V103.543C51.812 103.656 51.4883 103.754 51.197 103.886C50.9057 104.019 50.7406 103.886 50.6403 103.624C50.6115 103.574 50.5948 103.518 50.5914 103.46C50.5879 103.402 50.5979 103.344 50.6204 103.291C50.643 103.238 50.6775 103.191 50.7214 103.153C50.7653 103.115 50.8173 103.088 50.8733 103.074L52.1389 102.592C52.0839 102.106 52.0289 101.62 51.9706 101.138L50.7147 101.679C50.459 101.789 50.1936 101.905 50.0156 101.572C49.8375 101.239 50.0155 101.038 50.3133 100.925C50.9186 100.669 51.5272 100.42 52.126 100.17C51.8023 99.5974 50.705 99.4065 50.0544 99.5586C48.4619 99.9373 47.4649 100.996 46.8952 102.472C46.6643 103.212 46.4943 103.97 46.3871 104.738C46.3288 105.026 46.29 105.343 45.921 105.323C45.552 105.304 45.4678 105.035 45.5002 104.708C45.5163 104.547 45.5002 104.385 45.5163 104.223L42.2374 102.346C39.3415 100.682 36.4467 99.0159 33.553 97.3478C33.2359 97.1476 32.9291 96.9315 32.6337 96.7005C32.0025 96.5613 31.3778 96.4124 30.7466 96.2926C30.4618 96.2376 30.2449 96.1599 30.2903 95.8136C30.3356 95.4672 30.6139 95.4381 30.8696 95.4899C31.8666 95.7035 32.8635 95.9236 33.8508 96.1761C34.6179 96.3736 35.3753 96.6066 36.1166 96.8591C36.4176 96.9594 36.5503 96.8914 36.6733 96.6163C37.4566 94.917 38.2917 93.2371 39.0394 91.528C39.9522 89.4597 40.8197 87.3751 41.6807 85.2841C42.0885 84.2904 42.4413 83.2741 42.8136 82.2642C42.9075 82.0052 43.0531 81.8078 43.3412 81.9211C43.404 81.942 43.4613 81.9769 43.5088 82.0231C43.5563 82.0692 43.5928 82.1255 43.6155 82.1877C43.6382 82.25 43.6466 82.3165 43.64 82.3824C43.6334 82.4484 43.6121 82.5119 43.5775 82.5684C43.3671 83.1478 43.1793 83.7337 42.9787 84.3196C43.0207 84.441 43.0479 84.5671 43.0596 84.695C43.0434 85.1644 43.0272 85.6337 42.9787 86.0998C42.8557 87.2683 42.7683 88.4465 42.5676 89.6053C42.0471 92.5575 41.0927 95.4163 39.7354 98.0891C40.5931 98.4322 41.4509 98.7688 42.3054 99.1216C43.7684 99.7237 45.2186 100.335 46.6363 100.918L48.4068 99.2964C48.4068 98.9533 48.3777 98.6102 48.4068 98.2736C48.5428 96.4221 48.6496 94.5674 48.8438 92.7224C49.1189 90.1135 49.4232 87.5079 49.7857 84.9119C50.2033 81.9437 50.6985 78.9853 51.1582 76.0235Z" fill="#AC5A40"/>
<path d="M51.1582 76.0234C50.6986 78.9851 50.2034 81.9436 49.7858 84.9118C49.4233 87.5013 49.119 90.1134 48.8439 92.7223C48.6497 94.5673 48.5429 96.422 48.4069 98.2735C48.381 98.5972 48.4069 98.9532 48.4069 99.2963C49.5689 98.6069 50.7698 98.3997 52.016 99.0438C52.4446 99.2638 52.8203 99.5742 53.1171 99.9537C53.4139 100.333 53.6246 100.773 53.7348 101.242C54.4889 104.155 54.3303 106.984 52.9773 109.693C52.2037 111.24 51.0061 112.305 49.2582 112.645C49.0867 112.677 48.9345 112.742 48.7435 112.794C48.7759 113.085 48.805 113.364 48.8374 113.639C48.9345 114.06 49.0316 114.477 49.132 114.895C49.7146 117.283 50.6792 119.484 52.3688 121.323C53.8882 123.077 56.0372 124.162 58.3505 124.343C60.757 124.52 63.1463 123.82 65.0766 122.372C67.8118 120.43 69.4723 117.724 70.343 114.509C70.8666 112.401 71.0846 110.229 70.9903 108.058C70.9288 105.145 70.8026 102.232 70.6408 99.3384C70.5437 97.5775 70.3494 95.8232 70.1552 94.0688C69.8898 91.6951 69.6017 89.3161 69.291 86.9316C68.9673 84.5169 68.6177 82.1087 68.2746 79.6973C68.0998 78.4845 67.9229 77.2729 67.7438 76.0623C67.5722 76.0849 67.4007 76.0946 67.2324 76.1303C66.2613 76.3245 65.2903 76.5252 64.2771 76.7258V78.8783C64.7061 79.059 65.1124 79.2893 65.4877 79.5645C66.9799 80.9499 67.0835 83.6947 65.7499 85.3294C64.7788 86.5108 63.2187 86.6079 62.1894 85.4944C60.9917 84.1997 60.8331 82.6687 61.3349 81.047C61.4658 80.527 61.7341 80.0516 62.1116 79.6707C62.4891 79.2898 62.962 79.0172 63.4809 78.8816V76.8294C62.704 76.8683 61.9531 76.9298 61.2151 76.9395C59.9657 76.9589 58.713 77.0042 57.4668 76.9395C55.4706 76.8219 53.4879 76.535 51.5402 76.0817C51.4144 76.053 51.2868 76.0336 51.1582 76.0234Z" fill="#FEE2CB"/>
<path d="M67.7341 76.0627C67.9132 77.2732 68.0901 78.4849 68.2649 79.6976C68.608 82.1091 68.9641 84.5173 69.2813 86.932C69.5985 89.3466 69.8801 91.6869 70.1455 94.0692C70.3397 95.8236 70.5339 97.5779 70.631 99.3388C70.7929 102.252 70.9191 105.165 70.9806 108.059C71.0749 110.229 70.8569 112.402 70.3332 114.51C69.4625 117.724 67.802 120.417 65.0669 122.372C63.1366 123.82 60.7473 124.52 58.3408 124.343C56.0274 124.162 53.8785 123.077 52.3591 121.323C50.6792 119.485 49.7146 117.284 49.1222 114.895C49.0219 114.477 48.9248 114.06 48.8277 113.639C48.7662 114.468 48.7241 115.3 48.6367 116.125C48.4449 117.658 48.0678 119.162 47.5135 120.605C46.5101 123.289 45.1795 125.84 43.5516 128.198C43.4934 128.286 43.4481 128.383 43.3769 128.522C43.9206 128.593 44.4321 128.642 44.937 128.729C47.4294 129.163 49.6757 130.111 51.4884 131.937C51.509 131.954 51.5319 131.968 51.5563 131.979C51.6831 131.91 51.8179 131.857 51.9577 131.82C54.3485 131.457 56.672 130.74 58.8522 129.694C61.6912 128.396 64.3662 126.766 66.8213 124.839C67.1469 124.557 67.5695 124.413 67.9995 124.437C68.6469 124.479 69.2942 124.437 69.9416 124.437C70.5307 123.654 71.1748 122.906 71.6992 122.084C73.5668 119.148 74.648 115.902 75.2597 112.5C75.5478 110.852 75.6902 109.176 75.8488 107.509C75.9718 106.253 75.9848 104.987 76.1078 103.731C76.2761 101.977 76.0722 100.245 75.865 98.5134C75.2662 93.4639 74.0588 88.5374 72.8353 83.6239C72.8127 83.5333 72.7512 83.42 72.7835 83.352C72.8547 83.2031 72.9486 83.0122 73.0813 82.9571C73.214 82.9021 73.405 83.0834 73.4568 83.1999C73.6348 83.7469 73.7805 84.3101 73.9067 84.8733C74.5217 87.5275 75.1788 90.172 75.7226 92.8392C76.1142 94.7554 76.37 96.7007 76.6645 98.6331C76.7325 99.0831 76.7907 99.5395 76.8134 99.9926C76.8134 100.268 77.0141 100.281 77.1889 100.316C78.5537 100.643 79.8471 101.217 81.0051 102.009L81.6881 102.508C81.8467 101.964 81.9632 101.439 82.1542 100.944C82.6073 99.7498 83.423 98.8986 84.7113 98.659C85.8474 98.4454 86.8573 98.85 87.7733 99.5103C87.8478 99.5653 87.9222 99.6236 87.9999 99.6754C88.0193 99.6916 88.0485 99.6754 88.1294 99.7045C88.1294 99.0572 88.1585 98.4098 88.1294 97.7818C88.0841 96.9791 87.9902 96.1796 87.906 95.3801C87.6596 93.0943 87.1301 90.848 86.3297 88.6928C85.491 86.3725 84.3423 84.1764 82.9148 82.1641C81.6683 80.4232 80.2356 78.8233 78.6422 77.393C77.3027 76.1856 75.8563 75.1022 74.321 74.1562C74.1316 74.0584 73.9346 73.9762 73.7319 73.9102C73.1461 74.1335 72.5667 74.3795 71.9743 74.5834C70.6213 75.0528 69.2619 75.4994 67.9056 75.9558C67.8449 75.9854 67.7874 76.0212 67.7341 76.0627Z" fill="#AC5A40"/>
<path d="M50.595 136.419C51.9285 135.833 52.2911 134.328 51.3847 133.121C50.4641 131.972 49.2684 131.075 47.9084 130.512C46.8345 130.013 45.6941 129.672 44.5226 129.499C43.9562 129.418 43.3736 129.428 42.8006 129.363C42.5935 129.337 42.2925 129.269 42.2245 129.127C42.1565 128.984 42.2698 128.696 42.3799 128.518C43.2862 127.042 44.2151 125.579 45.1247 124.106C45.2238 123.9 45.2988 123.683 45.348 123.459C44.9078 123.3 44.4611 123.158 44.0306 122.977C42.0464 122.158 40.3326 120.797 39.0848 119.05C38.1212 117.675 37.4392 116.123 37.0779 114.483C35.8576 114.457 34.6341 114.483 33.4171 114.393C30.1802 114.159 27.0405 113.532 24.1662 111.939C23.4508 111.544 22.7937 111.049 22.1108 110.596C22.046 110.838 21.9716 111.075 21.9101 111.318C21.3062 113.895 20.9925 116.532 20.9746 119.18C21.1151 119.193 21.2453 119.259 21.3385 119.365C21.4318 119.471 21.4811 119.608 21.4763 119.749C21.5573 120.546 21.6835 121.339 21.8 122.132C21.8583 122.498 21.745 122.705 21.3663 122.744C21.69 123.766 22.0137 124.789 22.3373 125.812C22.5097 125.978 22.6629 126.162 22.7937 126.362C23.0397 126.841 23.2437 127.333 23.467 127.838C23.5607 127.903 23.6504 127.973 23.7357 128.049C24.383 128.712 25.011 129.434 25.7296 130.033C27.5131 131.493 29.4984 132.688 31.6238 133.58C34.5109 134.814 37.5469 135.665 40.6546 136.112C42.7707 136.457 44.9133 136.614 47.0571 136.581C47.9407 136.558 48.8212 136.477 49.7048 136.432C49.9994 136.403 50.2972 136.416 50.595 136.419ZM22.9232 122.313C23.0138 122.219 23.1174 122.035 23.2696 121.973C23.5026 121.886 23.6742 122.022 23.7421 122.271C23.9622 123.074 24.1791 123.889 24.4154 124.673C24.4963 124.941 24.383 125.149 24.1791 125.184C24.0807 125.187 23.9832 125.165 23.8955 125.121C23.8078 125.076 23.7328 125.01 23.6774 124.928C23.4055 124.1 23.1886 123.255 22.9232 122.313Z" fill="#AC5A40"/>
<path d="M82.9699 111.57C83.0637 110.923 83.1447 110.305 82.8307 109.686C82.2313 108.497 81.855 107.208 81.7204 105.883C81.6816 105.543 81.3709 105.236 81.2123 104.912C81.1281 104.734 81.0148 104.485 81.0796 104.339C81.1443 104.194 81.4032 104.126 81.6654 103.98C81.695 103.833 81.6799 103.681 81.6222 103.543C81.5645 103.406 81.4668 103.288 81.3417 103.206C80.0533 102.134 78.5274 101.385 76.8911 101.021C76.8911 101.345 76.8911 101.62 76.8911 101.895C76.8911 102.792 76.8911 103.689 76.862 104.585C76.8425 105.148 76.7519 105.705 76.7228 106.268C76.5253 110.098 76.0495 113.881 74.7807 117.523C74.4246 118.549 73.965 119.539 73.5539 120.546L74.8227 121.032L68.3038 130.344C68.3957 130.391 68.4909 130.431 68.5886 130.464C69.3622 130.694 70.1261 130.962 70.9094 131.131C72.926 131.568 74.9393 132.011 76.972 132.348C78.3476 132.559 79.7342 132.69 81.1249 132.743C82.0965 132.778 83.0695 132.753 84.038 132.668C84.8505 132.61 85.6564 132.49 86.4657 132.344C87.1389 132.234 87.8025 132.069 88.4693 131.93C88.6161 131.595 88.6709 131.228 88.6283 130.865C88.5856 130.502 88.4469 130.156 88.2265 129.865C87.5241 128.784 86.4948 128.075 85.3845 127.479C83.8516 126.626 82.1474 126.127 80.3966 126.016C80.021 126.009 79.6461 125.982 79.2734 125.935C79.0974 125.906 78.9385 125.812 78.8267 125.673C78.7717 125.592 78.8656 125.372 78.9465 125.249C79.364 124.602 79.7978 123.954 80.2412 123.307C80.259 123.175 80.285 123.044 80.3189 122.915C80.6134 122.009 80.9307 121.109 81.2155 120.2C82.0158 117.683 82.5581 115.091 82.8339 112.464C82.8339 112.176 82.9148 111.868 82.9699 111.57ZM80.3351 107.362C80.4257 107.265 80.5099 107.097 80.6588 107.039C80.7085 107.016 80.7625 107.005 80.8171 107.006C80.8716 107.006 80.9253 107.019 80.9744 107.043C81.0235 107.067 81.0668 107.101 81.1012 107.143C81.1356 107.186 81.1602 107.235 81.1734 107.288C81.4712 108.035 81.7766 108.78 82.0894 109.525C82.1212 109.577 82.1407 109.635 82.1465 109.696C82.1522 109.757 82.1439 109.818 82.1224 109.875C82.1009 109.932 82.0666 109.984 82.0222 110.026C81.9778 110.068 81.9244 110.099 81.8661 110.117C81.5651 110.253 81.4583 110.023 81.3612 109.813C81.2317 109.531 81.1152 109.246 80.9986 108.958C80.7753 108.469 80.5714 107.958 80.3351 107.362Z" fill="#AC5A40"/>
<path d="M6.00432 91.4141C5.8018 91.5248 5.61644 91.6643 5.45406 91.8284C4.67722 92.8836 4.36648 94.1362 4.08811 95.3889C3.81945 96.5736 3.68027 97.7874 3.50224 98.9915C3.21212 101.354 3.13953 103.737 3.28538 106.113C3.37831 107.931 3.58479 109.742 3.90362 111.534C4.17829 113.074 4.53374 114.599 4.96853 116.101C5.24349 116.927 5.56223 117.737 5.9234 118.529L6.08849 118.697C6.98833 119.63 7.81696 120.639 8.80743 121.478C10.2704 122.728 12.0742 123.512 13.9864 123.727C15.5796 123.913 17.1942 123.741 18.7122 123.222C18.6571 122.096 18.573 120.973 18.5568 119.846C18.5568 119.112 18.6571 118.377 18.683 117.642C18.6735 117.569 18.6491 117.498 18.6112 117.435C18.5733 117.371 18.5229 117.316 18.4629 117.273C17.8803 116.846 17.2718 116.451 16.6924 116.017C16.2975 115.719 15.9382 115.37 15.5627 115.046C15.4096 115.015 15.2636 114.956 15.1322 114.871C14.2145 114.067 13.3404 113.215 12.5136 112.318C11.3675 110.913 10.425 109.353 9.71374 107.686C8.86603 105.842 8.1983 103.922 7.71984 101.95C7.24079 99.9172 6.83943 97.8683 6.49309 95.8C6.25033 94.3499 6.15969 92.8771 6.00432 91.4141Z" fill="#8D3C29"/>
<path d="M19.3434 93.5967C19.9908 93.3507 20.6382 93.1338 21.2531 92.8554C23.3332 91.9412 25.2905 90.7701 27.0795 89.3694C32.1827 85.3536 35.5563 79.5376 36.5084 73.114C36.544 72.8485 36.5569 72.5799 36.5796 72.3145C36.2559 72.4795 35.8966 72.622 35.5762 72.8129C33.6483 73.9893 31.8543 75.372 30.2257 76.9367C27.3545 79.6561 24.8605 82.7478 22.8101 86.1293C21.4547 88.3137 20.337 90.637 19.4761 93.0594C19.4227 93.2361 19.3784 93.4154 19.3434 93.5967ZM32.171 76.681C32.2275 76.5539 32.3028 76.4361 32.3944 76.3314C33.2618 75.6387 34.1293 74.946 35.0227 74.2857C35.1119 74.246 35.2095 74.2285 35.307 74.2347C35.4045 74.2409 35.4991 74.2706 35.5826 74.3213C35.7833 74.4637 35.6959 74.6741 35.5114 74.8262C35.0227 75.2211 34.5404 75.6225 34.0484 76.0206C33.7036 76.3162 33.3438 76.5938 32.9705 76.8525C32.7867 76.9418 32.5814 76.9777 32.3782 76.9561C32.3134 76.9561 32.2487 76.791 32.171 76.681ZM29.0734 80.5652C28.9471 80.4778 28.8047 80.4292 28.7497 80.3321C28.7216 80.2775 28.7069 80.2171 28.7069 80.1557C28.7069 80.0943 28.7216 80.0338 28.7497 79.9793C29.4488 79.238 30.1577 78.5033 30.8795 77.7847C30.9173 77.7506 30.9626 77.726 31.0118 77.7127C31.0609 77.6994 31.1125 77.698 31.1623 77.7084C31.2121 77.7188 31.2588 77.7408 31.2985 77.7726C31.3383 77.8044 31.3699 77.8452 31.3909 77.8915C31.4174 77.9645 31.4262 78.0428 31.4167 78.1199C31.4071 78.1969 31.3794 78.2706 31.3359 78.335C30.7209 79.0082 30.0833 79.6621 29.4456 80.3159C29.3298 80.4079 29.2051 80.4881 29.0734 80.5554V80.5652ZM31.4557 80.1994C31.4868 80.0856 31.5337 79.9766 31.5949 79.8757C32.1484 79.2089 32.6986 78.5357 33.278 77.8883C33.3508 77.8379 33.4332 77.803 33.5201 77.7858C33.6069 77.7685 33.6964 77.7693 33.783 77.7879C33.8412 77.7879 33.9448 78.0534 33.9092 78.1505C33.8142 78.3783 33.683 78.5892 33.5208 78.7752C33.0773 79.3093 32.6274 79.8401 32.1484 80.345C31.999 80.442 31.8199 80.4822 31.6434 80.4583C31.5754 80.4616 31.5204 80.29 31.4557 80.1897V80.1994Z" fill="#A24C31"/>
<path d="M50.595 136.418C50.2972 136.418 49.9994 136.418 49.7048 136.418C48.8212 136.464 47.9408 136.544 47.0571 136.567C44.9079 136.601 42.7599 136.444 40.6385 136.098C37.5307 135.651 34.4947 134.8 31.6077 133.567C29.4947 132.671 27.5216 131.476 25.749 130.019C25.0304 129.42 24.4187 128.698 23.7551 128.035C23.6698 127.959 23.5801 127.889 23.4864 127.824C23.5884 128.111 23.6632 128.407 23.7098 128.708C23.7098 128.831 23.5415 129.032 23.4055 129.087C23.3324 129.089 23.2598 129.073 23.1946 129.04C23.1295 129.006 23.074 128.957 23.0333 128.896C22.6643 128.08 22.3179 127.251 21.9846 126.42C21.8454 126.07 21.9846 125.886 22.3568 125.798C22.0331 124.775 21.7094 123.752 21.3857 122.73C21.2789 122.581 21.1041 122.448 21.0621 122.286C20.9153 121.61 20.8072 120.926 20.7384 120.237C20.7092 119.881 20.4535 119.428 20.9617 119.166C20.9795 116.518 21.2933 113.881 21.8972 111.304C21.9587 111.061 22.0331 110.825 22.0978 110.582L21.7742 110.307C21.5217 110.896 21.2757 111.427 21.0621 111.97C20.3553 113.671 19.8481 115.448 19.5505 117.266C19.332 118.498 19.2863 119.754 19.4145 120.998C19.4857 121.571 19.4663 122.153 19.5116 122.726C19.7252 125.494 20.3338 128.148 21.8745 130.495C23.0253 132.216 24.6514 133.565 26.555 134.379C28.7075 135.35 31.0056 135.764 33.2973 136.211C34.7798 136.499 36.2784 136.742 37.7771 136.93C39.1074 137.098 40.4475 137.202 41.7843 137.253C43.1826 137.321 44.5842 137.367 45.9922 137.325C47.3908 137.322 48.7791 137.086 50.0997 136.625C50.2681 136.564 50.4334 136.495 50.595 136.418Z" fill="#A24F38"/>
<path d="M37.078 114.483C37.4377 116.127 38.1198 117.684 39.0849 119.063C40.3327 120.809 42.0466 122.17 44.0308 122.989C44.4613 123.17 44.908 123.313 45.3482 123.471C45.4416 123.384 45.5241 123.287 45.5942 123.18C46.7212 121.005 47.4969 118.664 47.8923 116.247C48.0444 115.208 48.216 114.146 47.9473 113.01C47.6237 113.071 47.3 113.139 46.9536 113.197C45.1993 113.492 43.4481 113.829 41.6841 114.065C40.357 114.243 39.0137 114.292 37.6769 114.389C37.4762 114.421 37.2787 114.453 37.078 114.483Z" fill="#A24C31"/>
<path d="M88.4563 131.963C87.7895 132.102 87.126 132.267 86.4527 132.378C85.6467 132.507 84.8343 132.627 84.0251 132.701C83.0565 132.786 82.0836 132.811 81.1119 132.776C79.7212 132.724 78.3346 132.592 76.959 132.381C74.9263 132.057 72.913 131.601 70.8965 131.164C70.1131 130.995 69.3492 130.727 68.5756 130.497C68.4779 130.464 68.3827 130.424 68.2908 130.377L74.8357 121.032L73.5668 120.547C73.0554 121.414 72.5958 122.308 72.0229 123.136C70.6034 125.303 68.767 127.166 66.6206 128.616C65.4521 129.396 64.1865 130.037 62.9662 130.74C62.8205 130.824 62.6652 130.898 62.5163 130.976V131.092C63.455 131.351 64.3839 131.659 65.3356 131.863C67.077 132.235 68.8281 132.578 70.5825 132.876C72.0358 133.125 73.4956 133.339 74.9587 133.481C76.8684 133.666 78.7846 133.786 80.6976 133.899C82.8113 134.022 84.9055 133.954 86.9382 133.251C87.2691 133.159 87.5761 132.996 87.8381 132.773C88.1001 132.551 88.311 132.275 88.4563 131.963Z" fill="#A24F38"/>
<path d="M83.7693 105.174C84.1578 105.355 84.5494 105.533 84.9346 105.724C85.1903 105.853 85.3975 106.028 85.2583 106.371C85.1741 106.582 84.7728 106.65 84.5009 106.514C84.3326 106.429 84.1772 106.332 84.0056 106.245C83.9957 106.353 83.9957 106.461 84.0056 106.569C84.3478 108.182 84.9293 109.736 85.7309 111.178C85.7791 111.283 85.8192 111.391 85.8506 111.502C86.2682 111.825 86.6631 111.722 87.0677 111.45C88.1138 110.739 88.8552 109.661 89.1457 108.43C89.6586 106.665 89.6653 104.792 89.1652 103.024C88.7088 101.487 87.8316 100.276 86.2844 99.658C85.2907 99.2599 84.1675 99.4994 83.6237 100.228L85.2421 100.846C85.3043 100.871 85.3649 100.9 85.4234 100.933C85.6823 101.073 85.9672 101.241 85.8021 101.581C85.637 101.921 85.2907 101.827 85.0155 101.73C84.5721 101.577 84.1578 101.344 83.7208 101.208C83.0961 101.021 83.0378 101.069 82.8598 101.668C82.7918 101.885 82.753 102.108 82.7044 102.332C82.6982 102.358 82.6982 102.386 82.7044 102.413C83.3744 102.613 84.0283 102.807 84.6789 103.008C84.7922 103.044 84.9411 103.076 85.0026 103.164C85.1029 103.319 85.2518 103.594 85.1903 103.675C85.1232 103.754 85.0391 103.816 84.9444 103.858C84.8496 103.899 84.7467 103.919 84.6433 103.914C84.3098 103.83 83.9848 103.715 83.6722 103.571C83.7176 104.099 83.7434 104.636 83.7693 105.174Z" fill="#AC593F"/>
<path d="M18.7121 123.223C17.1992 123.739 15.5904 123.911 14.0025 123.728C12.0903 123.512 10.2865 122.728 8.82355 121.478C7.83308 120.653 7.00445 119.63 6.10461 118.698L5.93953 118.529C6.24055 119.216 6.49627 119.928 6.8588 120.581C7.69541 122.116 8.77172 123.507 10.0471 124.702C11.5693 126.17 13.3929 127.289 15.3911 127.981C16.757 128.434 18.1845 128.703 19.599 129.039C19.8013 129.061 20.0053 129.061 20.2075 129.039C20.1007 128.716 20.0295 128.473 19.9324 128.23C19.4057 126.853 19.0544 125.416 18.8869 123.951C18.8351 123.708 18.7639 123.469 18.7121 123.223Z" fill="#7F2F21"/>
<path d="M6.00436 91.4139C6.1662 92.877 6.25683 94.3497 6.4996 95.7998C6.84594 97.8585 7.24731 99.9074 7.72636 101.95C8.20272 103.921 8.86828 105.842 9.71377 107.686C10.4242 109.357 11.3668 110.919 12.5136 112.327C13.3404 113.224 14.2145 114.077 15.1322 114.881C15.2636 114.966 15.4096 115.025 15.5627 115.056C14.2939 113.69 13.1513 112.224 12.4392 110.492C11.877 109.117 11.3907 107.712 10.9826 106.284C10.3773 104.183 9.85296 102.06 9.32859 99.9398C8.76862 97.674 8.25396 95.4082 7.71017 93.1424C7.58571 92.6614 7.41891 92.1924 7.2117 91.7408C6.97541 91.2003 6.51254 91.1032 6.00436 91.4139Z" fill="#9D4739"/>
<path d="M69.9417 124.44C69.2943 124.44 68.6469 124.469 67.9995 124.44C67.5707 124.416 67.1494 124.56 66.8246 124.841C64.3695 126.769 61.6945 128.399 58.8555 129.697C56.6753 130.743 54.3518 131.46 51.961 131.823C51.8212 131.859 51.6864 131.913 51.5596 131.982C51.6062 132.031 51.6464 132.085 51.6794 132.144C51.9772 132.833 52.5242 132.791 53.1425 132.704C55.9844 132.257 58.7843 131.648 61.4514 130.532C64.0711 129.487 66.4655 127.949 68.5045 126C68.935 125.576 69.3558 125.146 69.7733 124.705C69.8389 124.623 69.8953 124.534 69.9417 124.44Z" fill="#BB694B"/>
<path d="M39.7388 98.0683C41.0995 95.3961 42.0572 92.5372 42.5808 89.5846C42.7814 88.4258 42.8688 87.2476 42.9918 86.0791C43.0404 85.613 43.0566 85.1436 43.0728 84.6743C43.061 84.5463 43.0339 84.4203 42.9918 84.2988C42.5646 85.354 42.147 86.4157 41.6971 87.4645C41.0238 89.0473 40.3473 90.6301 39.6385 92.1967C38.9296 93.7633 38.1463 95.3623 37.3986 96.9419C37.3601 97.0405 37.3266 97.141 37.2982 97.2429L39.7388 98.0683Z" fill="#A24F38"/>
<path d="M32.6274 96.6797C32.9228 96.9107 33.2296 97.1268 33.5466 97.3271C36.4382 98.9994 39.333 100.665 42.2311 102.325L45.4938 104.209C45.7398 103.364 45.9826 102.519 46.2383 101.619C45.5035 101.295 44.7364 100.972 43.9531 100.648C41.6646 99.7612 39.3827 98.8548 37.0683 98.0295C35.6247 97.5116 34.1131 97.1296 32.6274 96.6797Z" fill="#A24F38"/>
<path d="M82.9698 111.57C82.9148 111.893 82.8339 112.188 82.8048 112.502C82.5289 115.129 81.9867 117.721 81.1863 120.238C80.9015 121.147 80.5843 122.047 80.2897 122.954C80.2558 123.082 80.2299 123.213 80.2121 123.345C80.662 122.617 81.1507 121.905 81.5586 121.154C82.9828 118.516 84.093 115.764 84.5591 112.78C84.6038 112.544 84.6308 112.305 84.64 112.065C84.6424 111.946 84.5996 111.83 84.5203 111.741C84.3325 111.557 84.1157 111.398 83.8729 111.207C83.7046 111.531 84.0607 112.152 83.3712 112.139C83.041 112.126 82.9666 111.851 82.9698 111.57Z" fill="#BB694B"/>
<path d="M51.8864 106.149C51.6016 107.182 51.362 108.227 51.0092 109.234C50.7192 109.942 50.3885 110.632 50.0187 111.302C49.9837 111.387 49.9588 111.476 49.9443 111.568C51.4235 110.92 52.2425 109.668 52.7603 108.217C53.0517 107.405 53.2038 106.544 53.4077 105.706L53.2782 105.576L51.8864 106.149Z" fill="#A24F38"/>
<path d="M85.8733 111.492C85.8418 111.381 85.8018 111.273 85.7535 111.168C84.9457 109.725 84.3587 108.169 84.0121 106.552C84.0022 106.445 84.0022 106.336 84.0121 106.229L82.5976 105.652C82.6785 106.157 82.7271 106.533 82.7983 106.905C83.0831 108.368 83.6399 109.711 84.7404 110.763C85.0919 111.045 85.4715 111.289 85.8733 111.492Z" fill="#A24F38"/>
<path d="M52.1292 103.545V105.012C52.4529 104.924 52.7992 104.83 53.1358 104.753C53.1824 104.749 53.2275 104.735 53.2682 104.712C53.3088 104.689 53.344 104.658 53.3714 104.62C53.3988 104.582 53.4176 104.539 53.4267 104.493C53.4358 104.447 53.4348 104.4 53.4239 104.355C53.3851 103.999 53.3657 103.643 53.3301 103.18L52.1292 103.545Z" fill="#A24F38"/>
<path d="M83.7695 105.174C83.7436 104.637 83.7177 104.099 83.6886 103.556L82.5557 103.248C82.5557 103.779 82.5557 104.219 82.5557 104.63C82.5557 104.708 82.6787 104.818 82.7661 104.85C83.1027 104.977 83.4394 105.07 83.7695 105.174Z" fill="#A24F38"/>
<path d="M51.9674 101.14C52.0257 101.623 52.0807 102.111 52.1357 102.594L53.2524 102.396C53.1974 102.176 53.165 101.982 53.1035 101.794C52.8187 100.904 52.9385 100.91 51.9674 101.14Z" fill="#A24F38"/>
<path d="M77.2148 35.5841C77.9301 34.8656 78.8818 34.7749 79.8043 34.6131C79.4968 33.7521 79.2152 32.8846 78.8721 32.0236C77.4798 28.5925 75.731 25.3172 73.6543 22.2516C72.2887 20.2234 70.774 18.2997 69.1227 16.4965C67.0165 14.1652 64.6238 12.1097 62.0017 10.3789C61.2475 9.8901 60.4545 9.4596 59.6711 9.01615C59.3475 8.83813 59.2471 8.67305 59.4704 8.32023C60.1036 7.41059 60.5068 6.36101 60.6454 5.26142C60.6605 4.90309 60.653 4.54416 60.6228 4.18679C60.2281 3.96994 59.8168 3.78485 59.3928 3.63329C58.6037 3.45597 57.7818 3.49059 57.0105 3.73363C56.4829 3.86958 55.9617 4.03142 55.4374 4.18355C55.0069 4.69497 54.5699 5.19668 54.1426 5.71781C53.9937 5.91202 53.8416 6.0415 53.6085 5.92821C53.5059 5.87874 53.4234 5.79539 53.3751 5.6922C53.3267 5.58901 53.3154 5.4723 53.3431 5.36176C53.4337 4.54284 53.4888 3.71745 53.56 2.89529C53.333 2.8257 53.1016 2.77163 52.8673 2.73345C51.8218 2.63958 50.9964 3.17366 50.1872 3.72716C49.7405 4.03142 49.3068 4.35511 48.8666 4.66908C48.6562 5.17403 48.4328 5.67574 48.2483 6.19363C48.1545 6.44934 48.0347 6.64679 47.7434 6.60471C47.4521 6.56263 47.4197 6.28102 47.4197 6.04474C47.4197 5.21287 47.4197 4.38424 47.4197 3.55561C47.4087 3.4379 47.3848 3.32176 47.3485 3.20926C46.2059 2.96326 45.3287 3.43908 44.526 4.18032C43.599 5.11775 42.848 6.21411 42.3087 7.41715C42.2153 7.55806 42.1068 7.68831 41.9851 7.80558C41.8491 8.75721 41.7293 9.71207 41.5643 10.6605C41.5089 10.8792 41.3894 11.0765 41.2212 11.2269C40.6579 11.7545 40.0786 12.2627 39.5056 12.7806C39.47 12.921 39.4234 13.0585 39.3664 13.1917C39.1755 13.5477 38.9489 13.8844 38.7773 14.2469C37.9163 16.0563 37.0294 17.8592 36.2202 19.6912C34.9033 22.6652 33.8673 25.7558 33.1258 28.9227C32.6015 31.1885 32.2001 33.4543 31.8311 35.7427C31.5883 37.2025 31.4588 38.6883 31.352 40.1675C31.2808 41.1936 31.352 42.2294 31.352 43.2587C31.3407 44.782 31.4686 46.3031 31.734 47.8032C32.1333 50.217 32.8721 52.5621 33.9286 54.7689C34.9385 56.8983 36.2463 58.8731 37.8128 60.634C38.949 61.9259 40.2051 63.1072 41.5643 64.1622C43.1055 65.3321 44.7641 66.3387 46.5134 67.166C48.2102 67.9837 49.9827 68.6341 51.8056 69.1081C53.8052 69.6451 55.8516 69.9898 57.9168 70.1374C58.3117 70.1633 58.7001 70.2442 59.0917 70.2992C60.4998 70.2442 61.9143 70.241 63.3158 70.1147C65.8799 69.8965 68.4238 69.4842 70.9256 68.8815C73.7739 68.1967 76.5353 67.1912 79.1569 65.8842C79.5162 65.7029 79.8625 65.4925 80.2121 65.2951C80.2578 65.1876 80.3153 65.0855 80.3837 64.9908C81.0666 64.2172 81.7755 63.4663 82.4423 62.6765C83.6243 61.2665 84.6489 59.7318 85.4979 58.0996C86.3563 56.4856 87.0326 54.7812 87.5144 53.0177C88.0536 51.15 88.3442 49.2193 88.3787 47.2756C88.3787 46.324 88.3301 45.3723 88.3042 44.4175C86.9474 44.5125 85.5843 44.3801 84.2711 44.0258C82.5322 43.5692 80.9297 42.6985 79.6004 41.4881C78.5494 40.6367 77.6966 39.5663 77.1015 38.3516C76.7739 37.7605 76.6661 37.0725 76.7973 36.4095C75.8715 36.4581 74.9458 36.5002 74.0233 36.5649C72.926 36.6361 71.8255 36.7041 70.7314 36.8174C69.1874 36.9824 67.6402 37.1605 66.1027 37.3741C64.2707 37.6266 62.4354 37.8661 60.6195 38.2092C56.7423 38.9587 52.9205 39.971 49.1805 41.2389C47.6884 41.7374 46.2091 42.2779 44.7299 42.8152C44.4515 42.9156 44.2411 42.8314 44.1732 42.6016C44.1716 42.5097 44.1902 42.4186 44.2277 42.3347C44.2651 42.2509 44.3206 42.1762 44.39 42.1161C44.5484 42.0136 44.7238 41.9402 44.9079 41.8992L46.7885 41.1936C46.5296 40.7793 46.2642 40.42 46.0667 40.0251C45.5292 38.9824 45.2174 37.8383 45.1516 36.6671C45.0858 35.4959 45.2675 34.324 45.6848 33.2277C46.3515 31.3601 47.4974 29.8808 49.4007 29.104C50.4031 28.6636 51.5247 28.5736 52.5845 28.8484C53.6444 29.1232 54.5809 29.7469 55.2431 30.6188C56.9036 32.7001 57.2824 35.0889 56.6868 37.6557C56.6447 37.8434 56.6156 38.0344 56.5767 38.2416L64.3451 36.73C64.3244 36.6432 64.2985 36.5579 64.2674 36.4743C63.4951 34.9801 63.1842 33.2902 63.3741 31.619C63.591 29.6186 64.2869 27.8546 65.9279 26.5954C67.2551 25.5791 68.7408 25.1486 70.398 25.6762C72.298 26.2847 73.5183 27.6183 74.3081 29.3921C74.9661 30.847 75.1908 32.4608 74.9555 34.0402C74.881 34.5645 74.771 35.0857 74.6836 35.5647L77.2148 35.5841ZM63.879 58.5171C63.3417 58.4783 62.8044 58.4653 62.2606 58.4038C61.3262 58.3277 60.3969 58.1991 59.4769 58.0187C56.3945 57.3234 53.5955 55.7094 51.4496 53.39C50.2163 52.0629 49.2226 50.5869 48.9928 48.7225C48.8213 47.3241 49.5495 45.7834 51.0676 45.5439C51.6595 45.4321 52.2689 45.4542 52.8511 45.6086C54.4695 46.1168 56.088 46.7286 57.6772 47.3112C59.6655 48.0603 61.7506 48.5213 63.8693 48.6804C66.1143 48.8107 68.3662 48.6045 70.5502 48.0686C72.3542 47.6298 74.1081 47.0061 75.7841 46.2074C76.0259 46.087 76.2901 46.0182 76.56 46.0056C76.8298 45.9931 77.0993 46.0369 77.3512 46.1344C77.6031 46.2319 77.8319 46.3808 78.023 46.5718C78.2141 46.7627 78.3633 46.9914 78.461 47.2432C78.7135 47.91 78.4804 48.4991 78.2247 49.1044C76.8445 52.4815 74.2725 55.2343 70.9968 56.8404C68.7814 57.9333 66.346 58.5067 63.8758 58.5171H63.879ZM58.4411 12.2886C59.9754 12.2886 62.0373 13.0169 63.1831 13.6837C63.8489 14.0428 64.4074 14.5723 64.8015 15.2179C65.3 16.0725 65.0993 16.9755 64.1995 17.3899C63.6648 17.6354 63.0924 17.7886 62.5066 17.843C61.1666 17.9725 59.8912 17.6229 58.6612 17.1212C57.6515 16.7745 56.7507 16.1683 56.0491 15.3636C55.1428 14.2307 55.473 13.0104 56.8648 12.5896C57.3845 12.4611 57.9107 12.3606 58.4411 12.2886ZM42.9367 20.9374C41.5287 21.041 40.9946 20.0602 41.1467 19.1831C41.2406 18.6955 41.4322 18.2319 41.7099 17.8204C42.6819 16.4446 44.0307 15.379 45.5941 14.7518C46.5166 14.344 47.4844 14.0365 48.5073 14.221C49.5301 14.4055 49.9768 15.2212 49.802 15.8653C49.6525 16.4636 49.3995 17.031 49.0543 17.542C48.3336 18.5392 47.3876 19.3521 46.2933 19.9146C45.2737 20.4907 44.199 20.9633 42.9367 20.9374Z" fill="#AC5A40"/>
<path d="M61.2734 8.87983L62.6491 9.68904C63.099 9.49159 63.5457 9.27149 64.0053 9.09346C65.8083 8.37356 67.7914 8.2366 69.6762 8.70181C71.7413 9.19704 73.4148 10.3591 74.907 11.8092C75.5011 12.407 76.0558 13.0427 76.5675 13.7124C77.9431 15.4344 79.2864 17.1435 80.6265 18.8655C82.2773 20.9791 83.7468 23.2482 85.841 24.9702C86.6183 25.6091 87.4576 26.1687 88.3463 26.6404C89.8741 27.4431 91.5832 27.7053 93.276 27.8056C94.6464 27.8862 96.0199 27.715 97.3286 27.3007C100.287 26.3685 102.533 24.4684 104.404 22.0667C104.663 21.743 104.938 21.4193 105.207 21.0957C105.158 20.6393 105.107 20.1796 105.058 19.7232C104.34 19.351 103.631 18.9432 102.773 19.0759C102.1 19.1859 101.43 19.3283 100.753 19.3996C99.4357 19.5485 98.1184 19.6909 96.7977 19.7815C96.1495 19.8053 95.5004 19.7815 94.8556 19.7103C93.7227 19.6164 92.5898 19.5679 91.4602 19.3866C89.3621 18.9881 87.3741 18.1436 85.6306 16.9104C83.9807 15.7229 82.4354 14.3964 81.0117 12.9453C79.2994 11.2751 77.6033 9.58546 75.7356 8.09004C74.4261 6.9768 72.8029 6.29812 71.0907 6.14794C69.3386 6.01723 67.5779 6.23731 65.9118 6.79531C64.2863 7.29806 62.7286 7.99812 61.2734 8.87983Z" fill="#8D3C29"/>
<path d="M1.79642 32.9956L1.07137 34.0475C1.11839 34.1259 1.15846 34.2082 1.19113 34.2935C1.6199 35.5971 2.48388 36.7137 3.63818 37.4559C5.46376 38.7086 7.56123 39.0193 9.70078 39.042C10.7404 39.0181 11.7769 38.9174 12.8017 38.7409C14.9926 38.4518 17.0275 37.4497 18.5924 35.8893C19.9251 34.5567 21.016 33.0026 21.8163 31.2962C22.7873 29.312 23.6321 27.2793 24.5255 25.2627C25.4966 23.0746 26.4385 20.8768 27.4095 18.6887C28.2155 16.8793 29.2448 15.2285 30.7855 13.9338C33.0351 12.0467 35.5502 11.668 38.2918 12.6229L39.3438 11.5515C37.0486 10.4691 34.4235 10.3171 32.0188 11.1275C29.8177 11.8493 28.0893 13.2703 26.5809 14.9728C25.0725 16.6754 23.9752 18.5334 22.8682 20.4755C21.6026 22.6733 20.3921 24.9035 18.7477 26.8585C17.699 28.1047 16.5273 29.2376 15.0383 29.9011C13.6071 30.5122 12.1403 31.0365 10.6459 31.471C8.98924 31.964 7.28033 32.2606 5.55438 32.3547C4.95557 32.3935 4.35675 32.4809 3.76441 32.5748C3.17207 32.6686 2.50205 32.7981 1.87086 32.8984L1.79642 32.9956Z" fill="#8D3C29"/>
<path d="M59.0886 70.3069C58.697 70.2519 58.3085 70.171 57.9136 70.1451C55.8435 69.9919 53.7927 69.6407 51.7896 69.0963C49.9666 68.6224 48.1941 67.9719 46.4973 67.1542C44.7481 66.327 43.0895 65.3203 41.5482 64.1504C40.1891 63.0955 38.933 61.9142 37.7967 60.6223C36.2303 58.8614 34.9224 56.8866 33.9125 54.7571C32.8628 52.5536 32.1294 50.2129 31.7341 47.8044C31.4601 46.2997 31.3247 44.7731 31.3295 43.2437C31.3295 42.2144 31.2745 41.1786 31.3295 40.1525C31.4363 38.6733 31.5658 37.1876 31.8085 35.7278C32.184 33.4426 32.5854 31.1606 33.1033 28.9077C33.8447 25.7409 34.8807 22.6502 36.1977 19.6763C37.0069 17.8442 37.8938 16.0413 38.7548 14.2319C38.9264 13.8694 39.1529 13.5328 39.3439 13.1767C39.4009 13.0435 39.4474 12.9061 39.4831 12.7656C38.6577 13.6622 37.7805 14.52 37.0166 15.4684C35.2578 17.6624 33.7579 20.0518 32.5465 22.5894C31.001 25.7836 29.8468 29.1527 29.109 32.6236C28.7012 34.4882 28.4436 36.3824 28.3387 38.2881C28.2772 39.6184 28.1477 40.952 28.2027 42.2759C28.2772 44.027 28.4584 45.7781 28.6656 47.5196C29.0005 50.2431 29.7164 52.906 30.7922 55.4304C31.7004 57.6216 32.9323 59.6641 34.4466 61.4898C36.533 63.986 39.1403 65.9956 42.0855 67.3776C44.3538 68.4683 46.7657 69.2312 49.2486 69.6434C50.8185 69.9023 52.4078 70.0933 53.9938 70.213C55.5799 70.3328 57.2307 70.3328 58.8718 70.3781C58.9477 70.3674 59.0211 70.3433 59.0886 70.3069Z" fill="#A24F38"/>
<path d="M38.2917 12.6072C35.5501 11.6685 33.0351 12.0311 30.7855 13.9181C29.2448 15.2129 28.2155 16.8637 27.4095 18.6731C26.4384 20.8612 25.4933 23.059 24.5255 25.2471C23.6321 27.2636 22.7743 29.2964 21.8162 31.2805C21.0202 32.9908 19.9326 34.5494 18.6021 35.8866C17.0351 37.4501 14.9964 38.4535 12.8016 38.7415C11.7726 38.9197 10.7318 39.0214 9.6878 39.0457C7.54825 39.0231 5.45078 38.722 3.6252 37.4597C2.47091 36.7175 1.60692 35.6009 1.17815 34.2973C1.14548 34.2119 1.10541 34.1296 1.05839 34.0513C0.598755 34.7828 0.660255 35.5661 0.877125 36.3397C1.16595 37.2957 1.6786 38.169 2.37254 38.8871C3.46542 40.0808 4.77321 41.0581 6.22762 41.7679C7.13713 42.2211 8.12705 42.4906 9.14078 42.5609C12.2158 42.7584 15.0998 42.0657 17.8802 40.8066C19.4287 40.1093 20.8506 39.1599 22.0881 37.997C24.1813 36.0473 25.5804 33.4673 26.0727 30.6494C26.5116 28.2852 27.2151 25.9779 28.1702 23.7711C28.9057 22.0236 29.8537 20.3733 30.9927 18.8576C32.0499 17.3943 33.4285 16.1929 35.0225 15.3456C35.2441 15.2167 35.4827 15.1197 35.7314 15.0575C36.3982 14.9345 36.7931 14.4878 37.1653 13.9796C37.4275 13.6236 37.7512 13.3129 38.0425 12.9795C38.132 12.8598 38.2152 12.7356 38.2917 12.6072Z" fill="#7F2F21"/>
<path d="M105.21 21.0962C104.942 21.4198 104.666 21.7435 104.407 22.0672C102.533 24.469 100.287 26.369 97.3285 27.3012C96.0198 27.7155 94.6463 27.8867 93.276 27.8061C91.5702 27.7058 89.8741 27.4436 88.3463 26.6409C87.4575 26.1692 86.6182 25.6097 85.841 24.9707C83.7467 23.2487 82.2804 20.9796 80.6264 18.866C79.2864 17.144 77.9431 15.4349 76.5674 13.7129C76.0526 13.0429 75.4947 12.4072 74.8972 11.8097C73.405 10.3596 71.7316 9.19754 69.6665 8.70231C67.7817 8.2371 65.7985 8.37406 63.9955 9.09397C63.5359 9.27199 63.0892 9.4921 62.6393 9.68954L64.2933 10.9584C64.4389 11.0522 64.5745 11.1606 64.6979 11.2821C65.2093 11.8874 65.9571 11.7967 66.6174 11.9294C68.4266 12.3126 70.1247 13.1029 71.5827 14.2405C72.7036 15.0728 73.7558 15.994 74.7289 16.9951C75.8194 18.1652 76.8335 19.4042 77.765 20.7045C78.571 21.8083 79.2249 23.0188 79.9693 24.1712C80.8787 25.6012 82.0637 26.8358 83.4554 27.8029C84.9124 28.8204 86.5522 29.5469 88.2848 29.9424C89.1388 30.1236 90.0038 30.248 90.8742 30.3147C91.7347 30.3988 92.5997 30.4259 93.4637 30.3956C95.7975 30.2823 98.0762 29.8712 100.17 28.7772C101.157 28.2224 102.022 27.475 102.715 26.5794C103.741 25.3846 104.512 23.9922 104.98 22.488C105.086 22.0293 105.163 21.5644 105.21 21.0962Z" fill="#7F2F21"/>
<path d="M1.87419 32.916C2.50537 32.7995 3.13332 32.6733 3.76774 32.5924C4.40216 32.5114 4.9589 32.4111 5.55772 32.3722C7.28366 32.2782 8.99257 31.9816 10.6493 31.4886C12.1436 31.054 13.6104 30.5298 15.0417 29.9187C16.5306 29.2714 17.7023 28.1223 18.7511 26.8761C20.3954 24.934 21.606 22.6909 22.8716 20.493C23.9786 18.5736 25.1082 16.6606 26.5842 14.9904C28.0602 13.3202 29.8211 11.8669 32.0221 11.1451C34.4238 10.3305 37.0475 10.4767 39.3438 11.5529L40.4929 10.7728C39.0033 9.88753 37.3944 9.22043 35.7153 8.79188C34.4497 8.45538 33.1385 8.32316 31.8311 8.40022C29.6825 8.52875 27.6301 9.33567 25.9692 10.7048C24.176 12.1614 22.878 14.0129 21.7257 15.9874C20.431 18.2305 19.1654 20.5189 17.7671 22.6844C16.2168 25.0578 14.1042 27.0113 11.6171 28.3715C9.85624 29.3685 7.94651 29.9543 6.03677 30.5629C4.74616 30.9511 3.53114 31.5564 2.44388 32.3528C2.24137 32.5274 2.05104 32.7155 1.87419 32.916Z" fill="#9D4739"/>
<path d="M61.2733 8.8802C62.7316 7.99079 64.2938 7.28417 65.9246 6.77626C67.5907 6.21827 69.3514 5.99818 71.1036 6.12889C72.8158 6.27907 74.4389 6.95775 75.7485 8.07099C77.6161 9.57613 79.309 11.2658 81.0245 12.9263C82.4433 14.3835 83.9843 15.7165 85.6305 16.9108C87.3829 18.1467 89.3812 18.9902 91.4892 19.3837C92.6059 19.578 93.755 19.6265 94.8846 19.7074C95.5294 19.7786 96.1785 19.8024 96.8267 19.7786C98.1474 19.688 99.4648 19.5456 100.782 19.3967C101.459 19.319 102.129 19.1766 102.802 19.073C103.66 18.9371 104.369 19.3449 105.087 19.7204C104.835 18.526 103.977 17.8624 102.951 17.419C101.245 16.6875 99.4421 16.6486 97.6101 16.7716C96.4735 16.8463 95.3328 16.8322 94.1984 16.7295C93.1311 16.6412 92.0726 16.468 91.0328 16.2116C88.7419 15.6328 86.5989 14.5773 84.7436 13.114C83.3032 11.994 81.9373 10.7802 80.5357 9.58907C79.0792 8.33965 77.6873 6.9996 76.0495 5.98971C74.4058 4.90151 72.5323 4.20905 70.576 3.96668C68.8542 3.78771 67.1152 4.05062 65.5233 4.73058C63.6491 5.52893 61.9566 6.6995 60.5483 8.17134C60.5029 8.21989 60.4576 8.26844 60.4155 8.32023C60.3735 8.37202 60.4155 8.37202 60.3864 8.44323L61.2733 8.8802Z" fill="#9D4739"/>
<path d="M43.6359 69C43.9575 69.4066 44.3057 69.7916 44.6781 70.1523C45.8907 71.1941 47.24 72.0654 48.6886 72.7418C50.5078 73.6122 52.4393 74.2256 54.4275 74.5641C55.8646 74.8004 57.3212 74.9396 58.7745 75.0529C59.8732 75.1526 60.9774 75.1764 62.0794 75.1241C63.5327 75.0367 64.9925 74.836 66.4297 74.6612C68.6356 74.3629 70.8092 73.8612 72.9228 73.1626C73.6867 72.9198 74.0233 72.2757 73.8938 71.4665C73.7322 70.7076 73.2907 70.0373 72.6573 69.5891C72.4987 69.4629 72.201 69.5114 71.9679 69.4791C71.0227 69.6797 70.0841 69.9193 69.1324 70.0779C67.569 70.3368 66.0056 70.6152 64.4325 70.7608C62.4904 70.9421 60.5192 71.0263 58.5577 71.0845C57.1205 71.1331 55.6801 71.146 54.243 71.0683C51.0043 70.9281 47.8007 70.3399 44.7234 69.3204C44.3512 69.2233 43.9919 69.1165 43.6359 69Z" fill="#E92A21"/>
<path d="M88.3042 44.4182C88.33 45.3892 88.3786 46.3246 88.3786 47.2763C88.3441 49.22 88.0535 51.1507 87.5144 53.0184C87.0325 54.7819 86.3562 56.4863 85.4978 58.1003C84.6498 59.7382 83.6252 61.2783 82.4422 62.6933C81.7754 63.4831 81.0666 64.2341 80.3836 65.0077C80.3152 65.1024 80.2577 65.2044 80.2121 65.3119C81.5294 64.4348 82.8954 63.6191 84.1513 62.6642C85.7836 61.4038 87.2268 59.9159 88.4369 58.2459C90.3106 55.7741 91.5619 52.8875 92.0848 49.8301C92.4757 47.7198 92.2579 45.5418 91.4568 43.5507C91.433 43.5039 91.4049 43.4595 91.3727 43.418C90.4317 43.9637 89.386 44.3046 88.3042 44.4182Z" fill="#BB694B"/>
<path d="M42.0174 7.82792C42.1391 7.71065 42.2477 7.5804 42.3411 7.4395C42.8803 6.23645 43.6313 5.14009 44.5583 4.20266C45.361 3.44524 46.2382 2.96942 47.3808 3.2316C47.3834 2.59798 47.2073 1.97646 46.8726 1.4384C46.7943 1.27879 46.657 1.15584 46.4897 1.09546C46.3225 1.03508 46.1383 1.04198 45.976 1.11471C45.1455 1.43973 44.4387 2.01855 43.9563 2.76874C42.9658 4.1541 42.4997 5.74663 42.1145 7.37152C42.0595 7.51071 42.0433 7.66607 42.0174 7.82792Z" fill="#A24F38"/>
<path d="M48.8859 4.66986C49.3261 4.34618 49.7599 4.0225 50.2066 3.72794C51.0158 3.17444 51.8412 2.64037 52.8867 2.73423C53.121 2.77241 53.3524 2.82648 53.5793 2.89608C53.5191 2.45994 53.4337 2.02764 53.3236 1.60134C53.1488 1.04137 52.7442 0.873052 52.1875 1.0446C50.8733 1.44597 50.0965 2.44616 49.42 3.54992C49.2213 3.913 49.043 4.2869 48.8859 4.66986Z" fill="#A24F38"/>
<path d="M55.4437 4.18345C55.9681 4.03132 56.4892 3.85977 57.0168 3.73353C57.7882 3.49049 58.6101 3.45587 59.3992 3.63319C59.8232 3.78475 60.2345 3.96984 60.6292 4.18669C60.6292 2.67185 59.4283 1.76877 58.0397 2.24458C57.6918 2.34662 57.3636 2.50637 57.0686 2.71716C56.4989 3.16708 55.9843 3.68821 55.4437 4.18345Z" fill="#A24F38"/>
<path d="M66.3969 12.6485C66.3969 12.6485 66.3969 12.6485 66.4197 12.6485C66.4425 12.6485 66.4197 12.6485 66.4425 12.6289C66.4654 12.6094 66.4425 12.6094 66.4164 12.6094C66.3903 12.6094 66.4034 12.642 66.3969 12.6485Z" fill="#FEFEFE"/>
<path d="M61.3542 6.13998H61.2988V6.18891L61.3379 6.13672L61.3542 6.13998Z" fill="#FEFEFE"/>
<path d="M77.2148 35.5856H74.6804C74.7678 35.1066 74.8778 34.5854 74.9523 34.0611C75.1876 32.4817 74.9629 30.8679 74.3049 29.413C73.5151 27.6392 72.2948 26.3056 70.3948 25.6971C68.7376 25.1695 67.2519 25.6 65.9248 26.6163C64.2837 27.8755 63.5878 29.6395 63.3709 31.6399C63.1859 33.305 63.4979 34.9876 64.2675 36.4758C64.3036 36.5558 64.335 36.638 64.3614 36.7218L56.5929 38.2334C56.6318 38.0262 56.6609 37.8352 56.703 37.6475C57.2986 35.0807 56.9199 32.6919 55.2594 30.6106C54.5971 29.7386 53.6606 29.115 52.6008 28.8402C51.5409 28.5654 50.4193 28.6554 49.4169 29.0958C47.5136 29.8726 46.3678 31.3615 45.701 33.2195C45.2837 34.3158 45.102 35.4877 45.1678 36.6589C45.2336 37.83 45.5454 38.9742 46.0829 40.0169C46.2804 40.4117 46.5458 40.771 46.8047 41.1854L44.9241 41.8813C44.74 41.9223 44.5646 41.9957 44.4062 42.0981C44.3368 42.1583 44.2813 42.2329 44.2439 42.3168C44.2064 42.4007 44.1878 42.4918 44.1894 42.5837C44.2574 42.8135 44.4677 42.9074 44.7461 42.7973C46.2253 42.26 47.7046 41.7194 49.1968 41.221C52.9367 39.953 56.7585 38.9408 60.6358 38.1913C62.4516 37.8482 64.2869 37.6086 66.119 37.3562C67.6565 37.1425 69.2037 36.9645 70.7476 36.7994C71.8417 36.6861 72.9422 36.6182 74.0395 36.547C74.962 36.4822 75.8877 36.4401 76.8135 36.3916C76.9332 36.1294 77.0724 35.8575 77.2148 35.5856ZM72.5279 35.8219L72.4567 35.8931C71.3367 36.0032 70.2136 36.11 69.0936 36.2168L65.9345 36.5405C65.7176 36.5955 65.5331 36.6797 65.3583 36.3948C64.6245 35.1227 64.28 33.6633 64.3675 32.1973C64.4549 30.7313 64.9705 29.3232 65.8503 28.1474C66.1755 27.7067 66.5874 27.337 67.0606 27.0612C67.5339 26.7854 68.0585 26.6092 68.6022 26.5435C69.146 26.4777 69.6975 26.5237 70.2228 26.6787C70.7481 26.8338 71.2363 27.0945 71.6572 27.445C73.9392 29.2285 74.6933 32.8375 73.5993 35.5727C73.5777 35.6244 73.5446 35.6705 73.5026 35.7075C73.4605 35.7445 73.4106 35.7715 73.3565 35.7863C73.0777 35.8095 72.7979 35.8182 72.5182 35.8122L72.5279 35.8219ZM48.9702 40.4441C47.7272 40.8973 47.9506 41.0656 47.2029 39.91C45.51 37.2882 45.9081 33.3975 48.0768 31.1447C48.8484 30.279 49.9299 29.7522 51.0871 29.6784C52.7767 29.6072 54.0002 30.452 54.8709 31.8179C55.8556 33.3755 56.1881 35.2578 55.7967 37.0584C55.6638 37.5805 55.4929 38.0922 55.2853 38.5894C55.1922 38.6402 55.0947 38.6824 54.9939 38.7156C53.8319 39.0393 52.6699 39.363 51.5079 39.6867C50.6728 39.9327 49.815 40.1916 48.9669 40.4441H48.9702Z" fill="#762A18"/>
<path d="M84.4944 43.2216L83.546 42.3929C82.2933 41.3118 81.0569 40.2113 80.157 38.8C79.9393 38.4316 79.7757 38.0337 79.6715 37.6186C79.5485 37.1913 79.9045 36.6475 80.5487 36.3627C81.5392 35.9516 82.562 35.6279 83.5719 35.2686C83.6884 35.2233 83.8146 35.1942 83.9312 35.1359C82.4442 35.0537 80.9528 35.1625 79.4935 35.4596C79.2165 35.5074 78.9429 35.5734 78.6746 35.6571C77.4834 36.052 77.2698 36.7317 77.7326 37.897C78.2343 39.169 79.1795 40.1271 80.1862 41.0011C81.3462 42.0313 82.722 42.7888 84.2128 43.2183C84.2637 43.2354 84.3156 43.2494 84.3681 43.2604C84.3908 43.2734 84.4167 43.2475 84.4944 43.2216Z" fill="#394567"/>
<path d="M63.4713 78.8789C62.9524 79.0146 62.4796 79.2871 62.102 79.668C61.7245 80.049 61.4563 80.5243 61.3253 81.0444C60.8236 82.6628 60.9822 84.2003 62.1798 85.4918C63.2091 86.6052 64.7693 86.5081 65.7403 85.3267C67.0739 83.6921 66.9703 80.9472 65.4781 79.5619C65.1027 79.2878 64.6964 79.0585 64.2676 78.8789H63.4713ZM65.2386 84.634C65.2233 84.7244 65.1938 84.8118 65.1512 84.8929C65.003 85.0975 64.8083 85.2641 64.5833 85.3789C64.3582 85.4937 64.1092 85.5536 63.8565 85.5536C63.6038 85.5536 63.3548 85.4937 63.1297 85.3789C62.9047 85.2641 62.71 85.0975 62.5618 84.8929C62.1495 84.3915 61.9049 83.7734 61.8626 83.1256C61.772 81.983 61.9241 80.9052 62.8822 80.1057C63.7108 79.3515 64.7855 79.7431 65.326 80.6365C65.6437 81.151 65.8347 81.7336 65.8831 82.3363C65.9315 82.939 65.8359 83.5446 65.6044 84.1032C65.504 84.294 65.3812 84.4722 65.2386 84.634Z" fill="#BB5E0B"/>
<path d="M20.9748 119.176C20.4666 119.438 20.7223 119.891 20.7514 120.247C20.8203 120.936 20.9283 121.62 21.0751 122.296C21.1075 122.458 21.2823 122.591 21.3988 122.74C21.7775 122.701 21.8908 122.494 21.8325 122.128C21.703 121.335 21.5768 120.542 21.5088 119.745C21.5132 119.599 21.4595 119.457 21.3594 119.35C21.2593 119.244 21.121 119.181 20.9748 119.176Z" fill="#8D3C29"/>
<path d="M22.3536 125.812C21.9684 125.9 21.8422 126.084 21.9814 126.434C22.3051 127.266 22.6611 128.094 23.0301 128.91C23.0708 128.971 23.1263 129.02 23.1915 129.054C23.2566 129.087 23.3292 129.104 23.4024 129.101C23.5383 129.04 23.726 128.845 23.7066 128.722C23.66 128.422 23.5853 128.126 23.4833 127.839C23.2599 127.347 23.056 126.842 22.81 126.363C22.6791 126.163 22.526 125.978 22.3536 125.812Z" fill="#8D3C29"/>
<path d="M22.9232 122.312C23.1886 123.254 23.4055 124.098 23.6774 124.927C23.7328 125.008 23.8078 125.074 23.8955 125.119C23.9832 125.164 24.0807 125.186 24.1791 125.183C24.383 125.147 24.5028 124.94 24.4154 124.671C24.1791 123.875 23.9622 123.072 23.7421 122.27C23.6742 122.02 23.5026 121.884 23.2696 121.972C23.1174 122.033 23.0138 122.218 22.9232 122.312Z" fill="#8D3C29"/>
<path d="M80.3351 107.363C80.5714 107.949 80.7753 108.461 80.9825 108.982C81.099 109.27 81.2155 109.555 81.345 109.836C81.4421 110.047 81.5489 110.277 81.85 110.141C81.9083 110.122 81.9616 110.091 82.006 110.049C82.0505 110.008 82.0847 109.956 82.1063 109.899C82.1278 109.842 82.136 109.781 82.1303 109.72C82.1246 109.659 82.1051 109.6 82.0733 109.548C81.7604 108.804 81.4551 108.058 81.1573 107.312C81.1441 107.259 81.1195 107.209 81.0851 107.167C81.0507 107.125 81.0074 107.09 80.9583 107.067C80.9092 107.043 80.8555 107.03 80.8009 107.029C80.7464 107.029 80.6923 107.04 80.6426 107.062C80.5099 107.108 80.4258 107.276 80.3351 107.363Z" fill="#762917"/>
<path d="M32.1709 76.6799C32.2486 76.79 32.3133 76.955 32.378 76.955C32.5813 76.9767 32.7865 76.9408 32.9704 76.8515C33.3437 76.5928 33.7034 76.3151 34.0482 76.0196C34.537 75.6215 35.0193 75.2201 35.5113 74.8252C35.6958 74.6731 35.7832 74.4627 35.5825 74.3202C35.499 74.2696 35.4044 74.2398 35.3069 74.2336C35.2094 74.2274 35.1118 74.2449 35.0225 74.2846C34.1292 74.932 33.2617 75.6376 32.3942 76.3303C32.3027 76.435 32.2274 76.5529 32.1709 76.6799Z" fill="#8D3C29"/>
<path d="M29.0732 80.555C29.2087 80.4852 29.3366 80.4017 29.4551 80.3058C30.1025 79.6584 30.7304 79.0111 31.3454 78.3248C31.3889 78.2605 31.4166 78.1868 31.4262 78.1097C31.4358 78.0327 31.4269 77.9544 31.4005 77.8814C31.3794 77.835 31.3478 77.7943 31.3081 77.7625C31.2683 77.7307 31.2217 77.7087 31.1718 77.6982C31.122 77.6878 31.0704 77.6893 31.0213 77.7026C30.9722 77.7159 30.9269 77.7405 30.889 77.7746C30.1672 78.4932 29.4583 79.2279 28.7592 79.9692C28.7311 80.0237 28.7164 80.0842 28.7164 80.1456C28.7164 80.2069 28.7311 80.2674 28.7592 80.322C28.8045 80.4191 28.9469 80.4676 29.0732 80.555Z" fill="#8D3C29"/>
<path d="M31.4557 80.1885C31.5204 80.2888 31.5787 80.4604 31.6434 80.4604C31.8199 80.4842 31.999 80.444 32.1484 80.3471C32.6274 79.8421 33.0774 79.3113 33.5208 78.7772C33.6831 78.5913 33.8142 78.3803 33.9092 78.1525C33.9448 78.0554 33.8413 77.7965 33.783 77.79C33.6964 77.7713 33.607 77.7705 33.5201 77.7878C33.4333 77.8051 33.3509 77.84 33.278 77.8903C32.6986 78.5377 32.1484 79.211 31.5949 79.8777C31.5348 79.9746 31.488 80.0791 31.4557 80.1885Z" fill="#8D3C29"/>
<path d="M63.8759 58.5186C66.3461 58.5081 68.7815 57.9347 70.9969 56.8419C74.2762 55.2355 76.8508 52.48 78.2312 49.0994C78.4869 48.4941 78.72 47.905 78.4675 47.2382C78.3698 46.9863 78.2207 46.7577 78.0296 46.5667C77.8385 46.3758 77.6097 46.2269 77.3577 46.1294C77.1058 46.0319 76.8363 45.988 76.5665 46.0006C76.2967 46.0132 76.0324 46.0819 75.7907 46.2024C74.1146 47.0011 72.3607 47.6248 70.5567 48.0636C68.3727 48.5995 66.1208 48.8057 63.8759 48.6753C61.7571 48.5163 59.672 48.0552 57.6838 47.3062C56.0815 46.7235 54.4858 46.1118 52.8577 45.6036C52.2754 45.4492 51.666 45.4271 51.0742 45.5388C49.5561 45.7784 48.8278 47.3191 48.9993 48.7174C49.2292 50.5818 50.2229 52.0578 51.4561 53.3849C53.602 55.7044 56.401 57.3183 59.4835 58.0136C60.4034 58.1941 61.3328 58.3226 62.2671 58.3988C62.8012 58.4668 63.3385 58.4862 63.8759 58.5186ZM50.0999 49.4004C49.9471 49.0552 49.8758 48.6794 49.8915 48.3022C49.9072 47.9251 50.0095 47.5565 50.1905 47.2252C50.6437 46.4452 51.5111 46.0923 52.5987 46.3998C53.9542 46.7862 55.2885 47.2432 56.5962 47.769C61.5874 49.7759 66.666 50.1643 71.8385 48.5977C73.3112 48.151 74.7322 47.5295 76.1694 46.9792C76.7099 46.7656 77.1404 46.7947 77.5094 47.1605C77.8784 47.5263 77.8525 47.9503 77.6615 48.3873C77.5968 48.5362 77.5224 48.6786 77.4512 48.821C77.3799 48.9634 77.3767 49.0799 77.3217 49.2029C76.0326 52.1564 73.7566 54.5697 70.8836 56.0294C67.7757 57.607 64.2383 58.1286 60.8073 57.5152C57.0902 56.9628 53.7323 54.9903 51.4399 52.0125C50.7896 51.2623 50.3299 50.3662 50.0999 49.4004Z" fill="#772A19"/>
<path d="M58.4411 12.2891C57.9128 12.3613 57.3888 12.4618 56.8712 12.5901C55.4794 13.0109 55.1493 14.2312 56.0556 15.3641C56.7571 16.1688 57.6579 16.7749 58.6677 17.1217C59.8977 17.6234 61.173 17.973 62.5131 17.8435C63.0985 17.7846 63.6698 17.627 64.2027 17.3774C65.1025 16.9631 65.3032 16.06 64.8047 15.2055C64.4106 14.5598 63.8521 14.0303 63.1863 13.6712C62.034 13.0174 59.9721 12.3052 58.4411 12.2891ZM58.3829 13.0627L58.4152 13.1662C59.9812 13.177 61.5154 13.6097 62.8562 14.4189C63.4485 14.7652 63.9988 15.1828 64.2253 15.8949C64.2798 16.0129 64.2905 16.1464 64.2555 16.2715C64.2205 16.3967 64.1421 16.5053 64.0344 16.5779C63.7591 16.7688 63.4453 16.897 63.1151 16.9533C62.4894 17.0025 61.861 17.0079 61.2345 16.9695C59.9707 16.8732 58.7491 16.4723 57.674 15.801C57.1038 15.515 56.6407 15.0531 56.3534 14.4836C56.1624 14.0758 56.2498 13.7003 56.677 13.5482C57.2176 13.341 57.7937 13.2213 58.3796 13.0627H58.3829Z" fill="#762917"/>
<path d="M42.9366 20.9386C44.2054 20.958 45.2736 20.4855 46.3029 19.9093C47.3929 19.3474 48.3355 18.5369 49.0542 17.5432C49.3987 17.0342 49.6517 16.469 49.8019 15.873C49.9637 15.2256 49.5106 14.4131 48.5072 14.2286C47.5037 14.0441 46.5068 14.3516 45.594 14.7595C44.0306 15.3866 42.6818 16.4522 41.7098 17.828C41.4321 18.2396 41.2405 18.7031 41.1466 19.1907C40.9912 20.0679 41.5285 21.0487 42.9366 20.9386ZM43.0337 20.1229C42.8589 20.1229 42.6808 20.1229 42.5093 20.1229C42.4077 20.1213 42.3076 20.0984 42.2153 20.0559C42.123 20.0134 42.0406 19.9521 41.9733 19.876C41.906 19.7999 41.8553 19.7106 41.8244 19.6137C41.7935 19.5169 41.7832 19.4148 41.794 19.3137C41.8665 18.9594 41.9989 18.6201 42.1856 18.3103C43.1796 16.8878 44.5998 15.8178 46.2414 15.2547C46.828 15.0148 47.4596 14.9044 48.0928 14.931C48.8211 14.9828 49.1319 15.4263 48.9085 16.1157C48.8664 16.2627 48.8067 16.404 48.7305 16.5365C48.1192 17.507 47.3 18.3295 46.332 18.9447C45.3682 19.6464 44.2237 20.0575 43.0337 20.1294V20.1229Z" fill="#762917"/>
<path d="M55.2851 38.5851C55.4928 38.0879 55.6637 37.5762 55.7966 37.0541C56.1908 35.2548 55.8618 33.3725 54.8805 31.8136C54.0034 30.4477 52.7863 29.6029 51.0967 29.6741C49.9378 29.748 48.8549 30.276 48.0832 31.1436C45.908 33.4094 45.5164 37.2936 47.2092 39.909C47.9569 41.0645 47.7336 40.88 48.9765 40.4431C48.3671 39.3309 48.1929 38.0318 48.4878 36.7984C48.7838 36.9131 49.0892 37.0019 49.4006 37.0638C49.5774 37.0825 49.7548 37.0345 49.8979 36.9291C50.0411 36.8237 50.1396 36.6685 50.1742 36.4941C50.2041 36.3318 50.1749 36.1642 50.0917 36.0216C50.0085 35.8791 49.877 35.7711 49.721 35.7173C49.4793 35.6483 49.2307 35.6059 48.9798 35.591L48.9377 35.6396V35.5554C49.53 34.3319 50.4493 33.5259 51.8509 33.4483C53.2524 33.3706 54.1879 34.0956 54.8158 35.2933C55.3298 36.3091 55.4948 37.4661 55.2851 38.5851Z" fill="#FDFCFC"/>
<path d="M72.5213 35.8271C72.801 35.8331 73.0809 35.8245 73.3597 35.8012C73.4137 35.7864 73.4636 35.7594 73.5057 35.7224C73.5478 35.6854 73.5808 35.6393 73.6024 35.5876C74.69 32.8525 73.9261 29.2434 71.6603 27.4599C71.2394 27.1094 70.7513 26.8487 70.2259 26.6937C69.7006 26.5387 69.1491 26.4926 68.6054 26.5584C68.0616 26.6242 67.537 26.8004 67.0638 27.0762C66.5906 27.352 66.1787 27.7216 65.8534 28.1623C64.9736 29.3382 64.4581 30.7463 64.3706 32.2122C64.2832 33.6782 64.6277 35.1376 65.3614 36.4098C65.5362 36.6946 65.7207 36.6104 65.9376 36.5554C65.6334 35.8024 65.5071 34.9894 65.5686 34.1796C65.9061 34.2397 66.2487 34.2658 66.5914 34.2573C66.7564 34.2524 66.9133 34.1847 67.0301 34.0679C67.1468 33.9512 67.2145 33.7943 67.2194 33.6293C67.2355 33.4586 67.1858 33.2882 67.0805 33.1529C66.9753 33.0175 66.8223 32.9275 66.6529 32.901C66.3711 32.8703 66.0867 32.8703 65.8049 32.901V32.9528H65.7693L65.8114 32.9107C65.9864 32.1174 66.4343 31.4106 67.077 30.9136C67.605 30.4639 68.2743 30.2143 68.9679 30.2083C69.6614 30.2024 70.3349 30.4406 70.8705 30.8812C71.3294 31.2369 71.7113 31.6818 71.9934 32.1892C72.2755 32.6965 72.4518 33.2558 72.5116 33.8332C72.557 34.497 72.5602 35.163 72.5213 35.8271Z" fill="#FDFCFC"/>
<path d="M48.9798 35.5912C49.2308 35.6061 49.4793 35.6484 49.721 35.7174C49.877 35.7712 50.0086 35.8792 50.0917 36.0218C50.1749 36.1643 50.2041 36.332 50.1742 36.4942C50.1396 36.6686 50.0411 36.8238 49.8979 36.9292C49.7548 37.0346 49.5774 37.0827 49.4006 37.0639C49.0892 37.0021 48.7838 36.9133 48.4878 36.7985C48.1899 38.0308 48.3607 39.3298 48.9669 40.4432C49.8149 40.1907 50.6597 39.9318 51.5078 39.689C52.6698 39.3653 53.8318 39.0416 54.9939 38.718C55.0946 38.6847 55.1921 38.6425 55.2852 38.5917C55.4968 37.4734 55.3341 36.3165 54.8223 35.2999C54.1944 34.1087 53.2524 33.3772 51.8574 33.4549C50.4623 33.5325 49.5398 34.3385 48.9442 35.562L48.9798 35.5912Z" fill="#232240"/>
<path d="M65.7984 32.9155C66.0803 32.8848 66.3646 32.8848 66.6465 32.9155C66.8159 32.9419 66.9688 33.032 67.0741 33.1674C67.1793 33.3027 67.229 33.4731 67.2129 33.6438C67.208 33.8088 67.1403 33.9657 67.0236 34.0824C66.9069 34.1991 66.75 34.2669 66.585 34.2717C66.2423 34.2802 65.8996 34.2542 65.5621 34.1941C65.5006 35.0038 65.6269 35.8169 65.9311 36.5699L69.0903 36.2462C70.2102 36.1329 71.3334 36.0261 72.4534 35.9225L72.5246 35.8513C72.5667 35.1874 72.5667 34.5214 72.5246 33.8574C72.4647 33.28 72.2884 32.7207 72.0064 32.2134C71.7243 31.706 71.3423 31.261 70.8835 30.9054C70.3479 30.4648 69.6744 30.2266 68.9808 30.2325C68.2873 30.2384 67.6179 30.4881 67.0899 30.9378C66.4473 31.4348 65.9994 32.1416 65.8243 32.9349L65.7984 32.9155Z" fill="#232240"/>
<path d="M72.5247 35.8281L72.4529 35.8999C72.4757 35.8705 72.4986 35.8444 72.5247 35.8281Z" fill="#FDFCFC"/>
<path d="M65.2386 84.6323C65.382 84.4664 65.5048 84.2838 65.6043 84.0885C65.8359 83.5299 65.9314 82.9243 65.883 82.3216C65.8346 81.7189 65.6437 81.1363 65.326 80.6218C64.7854 79.7285 63.7076 79.3271 62.8822 80.091C62.6631 81.0202 62.7194 81.9931 63.044 82.8908C63.4648 83.8813 64.1025 84.5708 65.2386 84.6323Z" fill="#F6921E"/>
<path d="M65.2385 84.6331C64.0927 84.5716 63.455 83.8821 63.0439 82.8917C62.7193 81.9939 62.6631 81.021 62.8821 80.0918C61.9111 80.8913 61.7719 81.9692 61.8625 83.1118C61.9048 83.7595 62.1494 84.3777 62.5617 84.8791C62.7099 85.0837 62.9046 85.2502 63.1296 85.365C63.3547 85.4799 63.6037 85.5398 63.8564 85.5398C64.1091 85.5398 64.3581 85.4799 64.5832 85.365C64.8082 85.2502 65.0029 85.0837 65.1511 84.8791C65.1925 84.8019 65.2219 84.719 65.2385 84.6331Z" fill="#DA7712"/>
<path d="M50.0999 49.3996C50.3333 50.3575 50.7928 51.2454 51.4399 51.9891C53.7283 54.9753 57.0868 56.9563 60.8073 57.5144C64.2394 58.1249 67.7768 57.5999 70.8836 56.019C73.7566 54.5593 76.0326 52.146 77.3217 49.1925C77.3767 49.0695 77.4091 48.9368 77.4512 48.8105C77.3573 48.8623 77.2602 48.9141 77.1696 48.9692C73.9156 51.0339 70.216 52.2922 66.3779 52.6397C62.8938 52.941 59.384 52.6054 56.0201 51.6493C53.9819 51.0823 52.0002 50.3292 50.0999 49.3996Z" fill="#E92A21"/>
<path d="M50.0998 49.4001C51.9981 50.3293 53.9776 51.0824 56.0136 51.6497C59.3774 52.6058 62.8873 52.9414 66.3714 52.6402C70.2117 52.2937 73.9137 51.0353 77.1695 48.9696C77.2602 48.9146 77.3573 48.8628 77.4511 48.811C77.5223 48.6686 77.5968 48.5261 77.6615 48.3773C77.8525 47.9403 77.8849 47.5195 77.5094 47.1505C77.1339 46.7815 76.7099 46.7556 76.1693 46.9692C74.7322 47.5292 73.3112 48.1507 71.8385 48.5876C66.6595 50.1543 61.5874 49.7659 56.5962 47.759C55.2885 47.2332 53.9542 46.7762 52.5987 46.3898C51.5111 46.0823 50.6566 46.4351 50.1905 47.2152C50.0079 47.5478 49.9048 47.918 49.889 48.297C49.8733 48.6761 49.9455 49.0536 50.0998 49.4001Z" fill="#FEFDFD"/>
<path d="M58.3796 13.0625C57.8067 13.2211 57.2176 13.3409 56.6608 13.548C56.2433 13.7002 56.1559 14.0756 56.3371 14.4835C56.6245 15.053 57.0876 15.5149 57.6578 15.8009C58.7329 16.4721 59.9545 16.873 61.2183 16.9694C61.8448 17.0077 62.4732 17.0023 63.0989 16.9532C63.4291 16.8968 63.7429 16.7686 64.0182 16.5777C64.1259 16.5051 64.2043 16.3965 64.2393 16.2714C64.2743 16.1462 64.2636 16.0127 64.2091 15.8947C63.9826 15.1826 63.4323 14.7651 62.8399 14.4187C61.5026 13.6129 59.9733 13.1814 58.412 13.1693L58.3796 13.0625Z" fill="#8D3C29"/>
<path d="M43.0338 20.1301C44.2204 20.0564 45.3613 19.6454 46.3224 18.9454C47.2939 18.3314 48.1166 17.5087 48.7306 16.5372C48.8087 16.4113 48.8718 16.2765 48.9184 16.1358C49.1417 15.4464 48.831 15.0029 48.1027 14.9512C47.4694 14.9245 46.8379 15.0349 46.2512 15.2748C44.6097 15.8379 43.1894 16.9079 42.1954 18.3304C42.0087 18.6402 41.8763 18.9795 41.8038 19.3338C41.793 19.4349 41.8033 19.5371 41.8342 19.6339C41.8651 19.7307 41.9158 19.82 41.9831 19.8961C42.0504 19.9723 42.1328 20.0335 42.2251 20.076C42.3174 20.1186 42.4175 20.1414 42.5191 20.143C42.681 20.143 42.859 20.1301 43.0338 20.1301Z" fill="#8D3C29"/>
<path d="M48.9471 35.5566V35.6414L48.9895 35.5925L48.9471 35.5566Z" fill="#232240"/>
<path d="M65.8049 32.9141L65.7625 32.9565H65.7984V32.9141H65.8049Z" fill="#232240"/>
</svg>
