<svg width="376" height="226" viewBox="0 0 376 226" fill="none" xmlns="http://www.w3.org/2000/svg">
<g clip-path="url(#clip0_1783_15246)">
<path d="M371.643 -3.63209C416.143 166.368 152.143 228.868 -3.20169 223.966C3.14278 130.868 -5.84446 128.966 0.500002 -0.0342788C104.5 -0.0344575 19.7981 -0.0342717 150.798 -0.0342715C366.798 -0.0342668 371.643 -3.63209 371.643 -3.63209Z" fill="#F5F7FF"/>
<path d="M94.3015 170.843C94.1984 170.663 94.0953 170.494 93.9774 170.314C94.4178 169.396 94.6318 168.436 94.6108 167.471C94.4453 165.119 93.1783 162.863 90.9936 161.032C88.8088 159.2 85.8198 157.888 82.4597 157.284C80.4849 156.917 78.4372 156.762 76.3915 156.825C75.3083 156.85 74.2297 156.934 73.166 157.075C73.6595 155.486 73.6595 153.845 73.166 152.256C72.6915 150.74 71.7179 149.317 70.3177 148.092C68.9176 146.867 67.1271 145.873 65.08 145.182C63.0946 144.507 60.9068 144.149 58.6851 144.137C56.4634 144.125 54.2673 144.458 52.2662 145.112C50.0114 145.904 48.0366 147.017 46.4778 148.375C46.0654 148.714 45.6825 149.063 45.3143 149.372C44.9841 148.462 44.5457 147.571 44.0034 146.709C43.0188 144.984 41.3819 143.465 39.2569 142.304C37.1319 141.142 34.5936 140.38 31.8966 140.094C26.2113 139.605 20.1137 141.091 15.268 143.087C10.4749 144.994 6.68792 147.873 4.44254 151.318C3.62857 152.646 3.0788 154.042 2.80768 155.468C1.87169 154.548 0.483008 153.883 -1.11012 153.593C-2.73099 153.32 -4.43559 153.386 -6 153.782V186.876C-4.41971 186.642 -2.90036 186.249 -1.49306 185.709C-1.92274 187.049 -1.81619 188.443 -1.18439 189.746C-0.552597 191.049 0.581506 192.215 2.10071 193.122C6.51927 195.646 13.8835 195.726 17.9634 192.752C18.6705 192.248 19.2258 191.655 19.5982 191.007C20.6502 191.887 22.0129 192.573 23.5602 193.002C25.046 193.387 26.6315 193.564 28.2211 193.523C29.8108 193.482 31.3717 193.223 32.8097 192.762C35.8794 191.811 38.4482 190.248 40.174 188.283C40.5347 188.785 41.0347 189.236 41.6469 189.61C44.2391 191.116 48.1422 191.007 51.191 190.248C54.6466 189.399 57.5128 187.71 59.2328 185.509C61.0595 186.425 63.1224 187.102 65.3157 187.505C70.2052 188.336 75.3662 188.019 79.9558 186.607C84.6442 185.274 88.715 183.11 91.7387 180.341C93.2704 179.017 94.3039 177.461 94.7504 175.806C95.1968 174.152 95.0428 172.448 94.3015 170.843Z" fill="white"/>
<path d="M263.471 78.2433C263.422 78.1265 263.364 78.0134 263.297 77.9048C263.503 77.3322 263.603 76.7304 263.593 76.1256C263.518 74.6503 262.949 73.2359 261.97 72.0869C260.991 70.9379 259.652 70.1139 258.146 69.7341C257.262 69.5059 256.347 69.4112 255.432 69.4536C254.942 69.4675 254.454 69.5192 253.973 69.6084C254.198 68.6107 254.198 67.5794 253.973 66.5818C253.762 65.6322 253.327 64.7403 252.699 63.9733C252.072 63.2062 251.27 62.5839 250.352 62.1531C249.465 61.7279 248.486 61.5023 247.492 61.4939C246.497 61.4855 245.514 61.6946 244.619 62.1048C243.609 62.6062 242.722 63.3049 242.018 64.1547C241.834 64.3675 241.661 64.5802 241.498 64.8123C241.358 64.2391 241.163 63.6791 240.916 63.1394C240.474 62.0582 239.74 61.1059 238.787 60.378C237.835 59.65 236.698 59.1718 235.489 58.9912C232.86 58.8234 230.244 59.4754 228.042 60.8478C225.892 62.0431 224.193 63.8496 223.187 66.0113C222.825 66.8442 222.582 67.7189 222.462 68.6124C222.038 68.0369 221.413 67.6224 220.698 67.4424C220.091 67.3202 219.465 67.3244 218.86 67.4546C218.256 67.5848 217.689 67.838 217.199 68.1966C215.556 69.2699 214.026 71.1748 214.22 73.1184C213.416 72.8606 212.556 72.8007 211.721 72.9443C211.057 73.0527 210.425 73.2953 209.869 73.6557C209.312 74.0161 208.845 74.4859 208.497 75.033C208.144 75.6272 207.919 76.2818 207.835 76.959C207.751 77.6362 207.81 78.3225 208.007 78.9781C208.394 80.3135 209.322 81.4499 210.588 82.1401C210.872 82.2986 211.169 82.4345 211.476 82.5462C211.36 83.8868 211.771 85.2207 212.629 86.2916C213.488 87.3625 214.734 88.0948 216.127 88.3479C217.645 88.5635 219.196 88.2839 220.524 87.555C220.334 88.3946 220.383 89.2672 220.666 90.0829C220.949 90.8987 221.457 91.6282 222.136 92.1964C223.143 93.005 224.432 93.4299 225.751 93.3888C227.071 93.3477 228.327 92.8435 229.277 91.974C229.594 91.6551 229.844 91.2808 230.011 90.8717C230.481 91.4242 231.092 91.8536 231.786 92.119C232.452 92.3603 233.162 92.4709 233.874 92.4444C234.586 92.4178 235.284 92.2544 235.928 91.9643C237.31 91.3733 238.467 90.3945 239.243 89.1602C239.412 89.4738 239.641 89.7556 239.916 89.9917C240.531 90.4038 241.248 90.6578 241.997 90.729C242.746 90.8001 243.502 90.6861 244.191 90.3979C245.743 89.8643 247.03 88.8028 247.802 87.4196C248.62 87.9944 249.544 88.4206 250.525 88.6767C252.716 89.1958 255.028 88.9982 257.085 88.1158C259.189 87.2813 261.018 85.9253 262.379 84.19C263.054 83.3561 263.506 82.3795 263.696 81.3438C263.886 80.3082 263.809 79.2443 263.471 78.2433Z" fill="white"/>
</g>
<defs>
<clipPath id="clip0_1783_15246">
<rect width="376" height="226" fill="white"/>
</clipPath>
</defs>
</svg>
