<svg width="58" height="94" viewBox="0 0 58 94" fill="none" xmlns="http://www.w3.org/2000/svg">
<g filter="url(#filter0_d_1839_24468)">
<path d="M20.6688 59.2063C22.0062 63.23 23.0376 67.349 23.7541 71.5282C23.877 72.2332 24.9442 71.9357 24.8213 71.2371C24.1048 67.0558 23.0735 62.9346 21.736 58.9087C21.5096 58.2619 20.4424 58.5271 20.6688 59.2063Z" fill="#3F2C32"/>
<path d="M24.8535 71.3986C25.3515 67.0194 25.3667 62.5989 24.8988 58.2164C24.8212 57.5179 23.7151 57.5114 23.7928 58.2164C24.2564 62.5948 24.2412 67.0106 23.7475 71.3856C23.6634 72.0971 24.7695 72.0907 24.8535 71.3856V71.3986Z" fill="#3F2C32"/>
<path d="M37.6736 58.3849C36.7984 62.5934 36.2384 66.8613 35.9983 71.1531C35.9595 71.8646 37.0656 71.8646 37.1044 71.1531C37.3389 66.9677 37.8859 62.8057 38.7408 58.7018C38.8896 58.0097 37.8223 57.7122 37.6736 58.4043V58.3849Z" fill="#3F2C32"/>
<path d="M37.1108 71.004C36.1288 66.7608 35.6148 62.4228 35.5779 58.0676C35.5631 57.9312 35.4985 57.8051 35.3964 57.7135C35.2943 57.6219 35.162 57.5712 35.0248 57.5712C34.8877 57.5712 34.7553 57.6219 34.6533 57.7135C34.5512 57.8051 34.4866 57.9312 34.4718 58.0676C34.509 62.5189 35.0361 66.9526 36.0436 71.2886C36.2053 71.9871 37.2725 71.6896 37.1108 70.9975V71.004Z" fill="#3F2C32"/>
<path d="M26.3672 58.3719C27.2555 62.6452 28.1438 66.9229 29.0321 71.2048C29.1809 71.8969 30.2481 71.6058 30.0994 70.9073C29.2154 66.6296 28.3271 62.3542 27.4345 58.0808C27.2857 57.3823 26.2184 57.6798 26.3672 58.3719Z" fill="#3F2C32"/>
<path d="M31.38 57.9903L29.1679 70.9267C29.0515 71.6188 30.1187 71.9227 30.2352 71.2177L32.4473 58.2813C32.5637 57.5828 31.4965 57.2853 31.38 57.9838V57.9903Z" fill="#3F2C32"/>
<path d="M53.6758 28.9026C51.2309 46.1273 36.5222 57.4984 36.5222 57.4984L22.6609 57.7507C19.1058 55.0179 15.9186 51.8372 13.1786 48.2877C9.49169 43.5789 5.84364 37.2918 4.50473 29.7758C1.69753 14.0646 10.7206 0.326163 28.5664 0.0221581C32.8907 -0.13491 37.1913 0.726961 41.1211 2.53825C50.694 7.11772 55.3123 17.3633 53.6758 28.9026Z" fill="#D33D7A"/>
<path d="M28.5662 0.00281487C15.8239 0.235669 9.45274 13.9288 11.5355 29.653C13.0143 40.1029 17.5796 49.8731 24.6465 57.7119L29.5947 57.6279L34.5234 57.5696C41.3044 49.4815 45.5181 39.5542 46.6254 29.0579C48.1648 13.2367 41.3085 -0.223571 28.5662 0.00281487Z" fill="white"/>
<path d="M28.5663 0.00272627C22.745 0.112685 19.9507 13.7411 21.0568 29.4782C22.2663 46.6448 27.3309 57.6666 27.3309 57.6666L29.5948 57.6278L31.8586 57.5825C31.8586 57.5825 36.5287 46.3925 37.1173 29.1936C37.6606 13.4242 34.3942 -0.100765 28.5663 0.00272627Z" fill="#D33D7A"/>
<g style="mix-blend-mode:multiply" opacity="0.24">
<path d="M53.6759 28.9026C51.2309 46.1274 36.5223 57.4985 36.5223 57.4985L22.6609 57.7507C19.1058 55.0179 15.9187 51.8373 13.1786 48.2878C18.9167 49.4413 24.8707 48.8025 30.2336 46.4581C35.5965 44.1137 40.1088 40.177 43.159 35.1817C46.2091 30.1864 47.6495 24.374 47.285 18.5325C46.9205 12.6909 44.7686 7.10276 41.1211 2.52539C50.694 7.1178 55.3123 17.3634 53.6759 28.9026Z" fill="#3F4068"/>
</g>
<path d="M37.5312 56.6512C32.2712 56.4355 27.003 56.537 21.7553 56.9552C19.97 57.091 19.9959 59.6071 21.8005 59.4648C27.0483 59.0467 32.3165 58.9452 37.5764 59.1609C39.3811 59.2385 39.3293 56.7223 37.5312 56.6512Z" fill="#EDC30D"/>
<g style="mix-blend-mode:soft-light" opacity="0.5">
<path d="M24.9311 19.9703C22.3956 26.7489 16.917 30.9662 12.6933 29.3815C8.46959 27.7968 7.1048 21.0246 9.64033 14.233C12.1759 7.44141 17.6609 3.23711 21.8781 4.82828C26.0954 6.41945 27.4731 13.1981 24.9311 19.9703Z" fill="white"/>
</g>
<path d="M39.2001 78.8695C39.2001 79.5616 39.2001 80.2279 39.2001 80.8553C39.2033 80.9048 39.2033 80.9545 39.2001 81.004C39.2001 81.0817 39.2001 81.1593 39.2001 81.2305C39.2001 81.3016 39.2001 81.3533 39.2001 81.4115C39.1649 81.9087 39.1001 82.4033 39.0061 82.8928C39.0061 82.9381 39.0061 82.9833 39.0061 83.0286C38.9308 83.439 38.7841 83.8331 38.5727 84.1929C38.4189 84.39 38.222 84.5494 37.997 84.6586L37.7577 84.7362C36.7123 85.1784 35.611 85.4744 34.4848 85.6159L34.2002 85.6547C33.5534 85.7517 32.9066 85.8229 32.1821 85.8746H31.8458H31.4189C30.9597 85.8746 30.4939 85.9134 30.0218 85.9134H29.7178C28.8537 85.9138 27.9902 85.8706 27.1305 85.784L26.8459 85.7517C26.142 85.6755 25.4441 85.5523 24.7567 85.383L24.3362 85.2666C24.0245 85.1704 23.7179 85.0581 23.4178 84.9302L23.2366 84.8397C22.8053 84.6678 22.4119 84.4129 22.0788 84.0894C21.9186 83.8902 21.7819 83.6731 21.6713 83.4426C21.6131 83.3336 21.5613 83.2212 21.5161 83.1062C21.3254 82.6087 21.1867 82.0928 21.1021 81.5668C21.1052 81.5237 21.1052 81.4805 21.1021 81.4374C21.031 80.9653 20.9857 80.4607 20.9598 79.9433C20.9598 79.8786 20.9598 79.8139 20.9598 79.7492C20.9598 79.6845 20.9598 79.6134 20.9598 79.5487C20.9598 79.484 20.9598 79.4582 20.9598 79.4129C20.9598 78.7661 20.9598 78.074 20.9598 77.4142C20.9566 77.369 20.9566 77.3236 20.9598 77.2784C20.9534 77.1707 20.9534 77.0627 20.9598 76.955C20.9598 76.8903 20.9598 76.8256 20.9598 76.7674C20.9987 76.2047 21.0504 75.6678 21.1021 75.1698V75.021C21.141 74.6674 21.1798 74.3375 21.2186 74.0314C21.2186 73.9667 21.2186 73.902 21.2186 73.8373C21.3673 72.7636 21.4967 72.065 21.4967 72.065L22.1435 71.9745H22.2858C22.9326 71.8969 23.5795 71.8322 24.3492 71.7869H24.4721H24.6338C25.4358 71.7287 26.2832 71.6899 27.1499 71.6511H27.5833C28.4694 71.6187 29.3685 71.5993 30.2417 71.5799H31.2443H33.7927H34.4395H37.0786H37.2532H38.1846C38.301 71.9874 38.411 72.479 38.5145 73.0352C38.5145 73.087 38.5145 73.1452 38.5145 73.2099C38.5662 73.501 38.618 73.8114 38.6633 74.1348C38.6633 74.1866 38.6633 74.2383 38.6633 74.2901C38.7279 74.7493 38.7862 75.228 38.8379 75.7195V75.8942L38.8961 76.541C38.8961 76.5928 38.8961 76.638 38.8961 76.6898C38.9479 77.2913 38.9867 77.8929 39.0125 78.4879C39.0092 78.5483 39.0092 78.6087 39.0125 78.669V78.779C39.0724 78.8143 39.1352 78.8446 39.2001 78.8695Z" fill="#EDC30D"/>
<g style="mix-blend-mode:multiply">
<path d="M38.9931 78.7851L39.1613 78.8562H39.2001C39.1969 78.8046 39.1969 78.7527 39.2001 78.701H39.116L39.2001 78.6169C39.1968 78.5566 39.1968 78.4962 39.2001 78.4358L38.9737 78.6428C38.3269 78.3841 37.6219 78.1059 36.9492 77.8084C37.4925 77.3556 38.01 76.8835 38.5145 76.3919L39.0837 76.6377C39.0837 76.5859 39.0837 76.5407 39.0837 76.4889L38.618 76.2949L39.0255 75.8744V75.6998C38.8573 75.8809 38.6827 76.0555 38.508 76.2366C37.8612 75.9585 37.2144 75.6545 36.6129 75.344C37.1174 74.8783 37.6025 74.3997 38.0617 73.8952L38.8508 74.2703C38.8508 74.2186 38.8508 74.1668 38.8508 74.1151L38.204 73.7917C38.3851 73.5976 38.5598 73.3907 38.7279 73.1902C38.7279 73.1255 38.7279 73.0672 38.7279 73.0155C38.5274 73.2548 38.3269 73.4941 38.0811 73.727C37.7965 73.5912 37.5119 73.4489 37.2338 73.3001C36.9557 73.1513 36.587 72.9638 36.3088 72.7891C36.7034 72.3946 37.0786 71.9741 37.4343 71.5472H37.2597C36.9169 71.9547 36.5611 72.3493 36.186 72.7309C35.6038 72.401 35.0281 72.0841 34.4654 71.6895L34.6207 71.5343H34.4331L34.349 71.6119L34.2261 71.5343H33.8768L34.142 71.7154C33.728 72.1035 33.2947 72.4851 32.8484 72.8473C32.7643 72.9185 32.6802 72.9767 32.6026 73.0478C32.1239 72.7309 31.6518 72.401 31.186 72.0647L30.9209 71.8641L31.2443 71.6184L31.3219 71.5537H31.1084L30.8174 71.7736C30.7203 71.7089 30.6298 71.6313 30.5328 71.5602H30.3193L30.5457 71.7412L30.7074 71.8577C30.1705 72.2781 29.6207 72.6792 29.058 73.0673C28.5276 72.6468 28.0102 72.2005 27.5121 71.7348C27.5642 71.7041 27.6139 71.6695 27.6609 71.6313H27.2275L27.3051 71.7024C26.7489 72.0711 26.1926 72.4334 25.6234 72.7632C25.3711 72.511 25.1318 72.2522 24.899 71.987L24.7114 71.7671H24.5626C24.8666 72.1358 25.2094 72.4851 25.5135 72.8279C24.9443 73.1643 24.3621 73.4747 23.7735 73.7787L23.7024 73.7011C23.2334 73.1524 22.8013 72.5733 22.4087 71.9677H22.2664C22.696 72.6216 23.1715 73.2441 23.6894 73.8305C23.1073 74.128 22.5252 74.4126 21.9301 74.6778C21.7166 74.4062 21.5096 74.1216 21.2833 73.8305C21.2833 73.8952 21.2833 73.9599 21.2833 74.0245C21.4514 74.2639 21.6261 74.5032 21.8072 74.736L21.1604 75.0141V75.1629L21.8977 74.8395C22.3158 75.3643 22.7606 75.8674 23.2302 76.3466C22.8292 76.5213 22.4281 76.7024 22.0206 76.8641L21.3738 77.1357L21.0633 76.78C21.0633 76.8382 21.0633 76.9029 21.0633 76.9676L21.2639 77.2069L21.0439 77.291C21.0407 77.3362 21.0407 77.3816 21.0439 77.4268L21.3609 77.3104C21.8137 77.8214 22.2988 78.3129 22.8033 78.7786C22.2082 79.005 21.6131 79.2249 21.0116 79.4255C21.0116 79.4707 21.0116 79.5096 21.0116 79.5613C21.6584 79.3478 22.3052 79.1215 22.9003 78.8757C23.4307 79.3608 23.9805 79.82 24.5432 80.2599C23.8382 80.5445 23.1267 80.8097 22.4152 81.0554C21.9301 80.6415 21.4579 80.2146 21.0181 79.7618C21.0181 79.8265 21.0181 79.8912 21.0181 79.9558C21.4126 80.3504 21.8266 80.7385 22.2535 81.1007C21.8913 81.2236 21.529 81.34 21.1604 81.45C21.1634 81.4931 21.1634 81.5363 21.1604 81.5794C21.5549 81.4565 21.9495 81.3336 22.3376 81.1978C22.6739 81.4824 22.9844 81.7605 23.3595 82.0257C23.5989 82.2133 23.8447 82.3879 24.0905 82.569C23.3337 82.8342 22.5704 83.08 21.8007 83.2999L21.5743 83.1188C21.6195 83.2338 21.6713 83.3462 21.7296 83.4552H21.7684L22.15 83.7591C22.6286 84.1214 23.1202 84.4771 23.6183 84.8199L23.2884 84.917L23.4695 85.0075L23.7606 84.917L24.4074 85.3439L24.8278 85.4603C24.5303 85.2727 24.2263 85.0722 23.9352 84.8717C24.7308 84.6259 25.5134 84.3542 26.2896 84.0567C26.9364 84.4836 27.6674 84.8911 28.3724 85.2727C27.8937 85.4668 27.4086 85.6543 26.917 85.829L27.2016 85.8613C27.6415 85.6996 28.0813 85.525 28.4953 85.3439C28.9092 85.5702 29.3297 85.7837 29.7889 85.9907H29.9959C29.5431 85.7772 29.0968 85.5508 28.657 85.3439L28.5858 85.305C29.3556 84.9881 30.1059 84.6582 30.8497 84.2766C31.5935 84.6323 32.3503 84.9752 33.1071 85.2921C32.6867 85.5185 32.2533 85.7384 31.8135 85.9389H32.1498C32.525 85.7578 32.8936 85.5638 33.2623 85.3632C33.5663 85.4861 33.8639 85.6091 34.1679 85.719L34.4525 85.6802L33.4176 85.2856L34.1937 84.8523C34.6401 84.5935 35.0734 84.3284 35.4874 84.0567C36.2183 84.3284 36.9557 84.5806 37.706 84.8005L37.8806 84.71C37.1303 84.4836 36.38 84.2313 35.6362 83.9597C36.283 83.5457 36.9298 83.1059 37.5766 82.666C38.0164 82.8213 38.4563 82.9635 38.8702 83.0994C38.8702 83.0541 38.8702 83.0088 38.8702 82.9636C38.4628 82.8407 38.0617 82.7113 37.6542 82.569C38.0358 82.2909 38.4175 81.9998 38.7926 81.7023L39.0643 81.4823C39.0643 81.4241 39.0643 81.3659 39.0643 81.3012C38.5533 81.7217 38.0294 82.1292 37.4925 82.5173C36.7487 82.2585 36.0113 81.9739 35.2869 81.6699C35.9337 81.2495 36.5094 80.8032 37.1044 80.3763L37.8547 80.6738C38.2558 80.8226 38.6697 80.9714 39.0772 81.1072C39.0805 81.0577 39.0805 81.0079 39.0772 80.9584C38.4304 80.7514 37.8289 80.5315 37.2144 80.3116L37.5055 80.0917C38.0811 79.5613 38.5404 79.1926 38.9931 78.7851ZM38.3463 76.3207C37.8483 76.8188 37.3244 77.2845 36.7875 77.7308C36.1407 77.4333 35.4939 77.1228 34.847 76.7865L35.067 76.6183C35.5456 76.2367 36.0113 75.8421 36.4641 75.4281C37.1109 75.7451 37.7577 76.0426 38.3657 76.3272L38.3463 76.3207ZM34.5818 76.8058C34.0191 77.2522 33.437 77.6726 32.8419 78.0995C32.2382 77.7373 31.6173 77.3621 30.9791 76.974C31.5741 76.5859 32.1627 76.1784 32.7384 75.758C33.3464 76.1267 33.9738 76.476 34.6012 76.8058H34.5818ZM32.8613 75.6804L33.7992 74.956C34.032 74.7684 34.2714 74.5743 34.5042 74.3738C35.1058 74.7296 35.7138 75.0595 36.3412 75.3764C36.0307 75.6545 35.6944 75.9262 35.4033 76.1849C35.1122 76.4437 34.9441 76.5471 34.7177 76.7282C34.0838 76.3854 33.4693 76.0297 32.8613 75.6804ZM28.9804 78.203L29.1162 78.1254C29.7048 77.789 30.274 77.4333 30.8368 77.0646C31.4836 77.4591 32.0787 77.8278 32.7125 78.1836C32.1045 78.5975 31.4901 78.9921 30.8562 79.3737C30.2417 78.9856 29.6143 78.5975 28.9998 78.19L28.9804 78.203ZM30.7268 79.4513C30.08 79.833 29.4332 80.1952 28.7346 80.5445C28.0878 80.1499 27.4927 79.7359 26.8847 79.309C27.5315 78.9792 28.1783 78.6622 28.8252 78.2741C29.4784 78.6687 30.1059 79.0632 30.7462 79.4384L30.7268 79.4513ZM30.8432 76.9158C30.2417 76.5277 29.6596 76.1267 29.0774 75.7127C29.6725 75.344 30.2546 74.943 30.8238 74.542C31.406 74.943 31.9946 75.3247 32.5961 75.6933C32.0463 76.1008 31.4642 76.5083 30.8626 76.9029L30.8432 76.9158ZM30.7268 76.9934C30.08 77.388 29.4914 77.7632 28.8575 78.1189C28.4112 77.8214 27.9778 77.5173 27.5639 77.2004L27.1111 76.8641C27.3634 76.7282 27.6156 76.5924 27.8614 76.4501C28.2322 76.2388 28.6009 76.0232 28.9675 75.8033C29.5496 76.1914 30.1447 76.5989 30.7462 76.974L30.7268 76.9934ZM26.9882 76.78C26.4384 76.3596 25.9015 75.9068 25.3841 75.4411C25.7851 75.2276 26.1861 75.0077 26.5807 74.7943L27.1822 74.432C27.4927 74.6908 27.8291 74.943 28.1201 75.1823C28.4112 75.4216 28.5988 75.5445 28.8381 75.7127C28.2495 76.0685 27.635 76.4307 27.0076 76.767L26.9882 76.78ZM26.8653 76.8511C26.2185 77.1939 25.5717 77.4979 24.9248 77.8149C24.3945 77.375 23.877 76.9029 23.3854 76.4113C24.0322 76.1267 24.6338 75.8291 25.2483 75.5057C25.7981 75.965 26.3349 76.4113 26.8847 76.8382L26.8653 76.8511ZM26.9688 76.9352C27.5445 77.3751 28.1331 77.789 28.7281 78.19C28.0813 78.5523 27.4345 78.8951 26.7877 79.2249C26.6454 79.1214 26.4966 79.0244 26.3608 78.921C25.9145 78.5975 25.4876 78.2741 25.0671 77.9119C25.714 77.6209 26.3608 77.2651 26.9882 76.9223L26.9688 76.9352ZM28.5988 80.6156C27.9131 80.9649 27.2146 81.2624 26.5031 81.5988C26.0374 81.2883 25.5781 80.9519 25.1318 80.635L24.6855 80.3052C25.3776 80.0141 26.0697 79.71 26.7489 79.3802C27.3698 79.8006 27.9908 80.2081 28.6182 80.6027L28.5988 80.6156ZM28.7281 80.6932C29.375 81.0943 30.0218 81.4824 30.7139 81.8446C30.0218 82.2197 29.3167 82.569 28.5988 82.9053C27.952 82.5172 27.3051 82.1097 26.6583 81.6893C27.3633 81.3659 28.0554 81.0296 28.7475 80.6803L28.7281 80.6932ZM28.8704 80.6221C29.3814 80.3569 29.8859 80.0852 30.3905 79.8006L30.8497 79.5225C31.4965 79.9041 32.1433 80.2663 32.8354 80.6027C32.1886 81.0102 31.5418 81.4047 30.895 81.7669C30.2029 81.3918 29.5431 81.0102 28.8898 80.6091L28.8704 80.6221ZM31.6582 81.4694C32.1045 81.2172 32.5379 80.9455 32.9519 80.6738C33.644 81.0166 34.349 81.3207 35.054 81.6376C34.4072 82.0774 33.7604 82.4849 33.1136 82.8795C32.4215 82.5625 31.7423 82.2327 31.0696 81.8834L30.9855 81.8381L31.6582 81.4694ZM32.305 80.1758C31.8652 79.9429 31.4318 79.6971 31.0114 79.4513C31.6582 79.0697 32.2662 78.6816 32.8742 78.2612C33.5211 78.6169 34.1679 78.9533 34.86 79.2702C34.252 79.7036 33.6375 80.124 33.0101 80.5251L32.305 80.1758ZM33.5146 78.4617L32.9907 78.1706C33.5857 77.7631 34.1614 77.3362 34.7306 76.877C35.3774 77.2069 36.0242 77.5238 36.6711 77.8343C36.1148 78.2935 35.5391 78.7334 34.957 79.1279C34.4783 78.9145 33.9932 78.6946 33.5146 78.4423V78.4617ZM36.1019 72.8991C36.6905 73.229 37.2791 73.5459 37.8806 73.8434C37.4214 74.3479 36.9363 74.8266 36.4317 75.2858L35.9208 75.0271C35.4745 74.7942 35.0346 74.542 34.5948 74.2897C35.1316 73.824 35.6297 73.3648 36.1148 72.8797L36.1019 72.8991ZM34.2649 71.7995C34.8341 72.1617 35.4098 72.511 35.9984 72.8408C35.5133 73.326 35.0087 73.7917 34.4913 74.2315C33.8897 73.8822 33.3076 73.52 32.7319 73.1384C33.23 72.6792 33.7733 72.2328 34.2649 71.7995ZM32.6155 73.229C33.1977 73.6106 33.7863 73.9793 34.3813 74.3221L34.1355 74.5355C33.6741 74.9107 33.2084 75.2729 32.7384 75.6222C32.1369 75.2599 31.5418 74.8783 30.9597 74.4773C31.49 74.0957 32.0204 73.7076 32.5314 73.3001L32.6155 73.229ZM30.8303 71.9353C31.3736 72.3428 31.9299 72.7438 32.4991 73.119C31.9622 73.5523 31.4124 73.9728 30.8497 74.3738L29.9959 73.7399C29.7178 73.5394 29.4526 73.3324 29.1809 73.0931C29.7372 72.7503 30.287 72.3428 30.8303 71.9289V71.9353ZM29.3491 73.4424C29.8019 73.7917 30.2676 74.128 30.7333 74.4514C30.1641 74.8589 29.5755 75.247 28.9804 75.6157L28.7799 75.4734C28.2797 75.1112 27.7946 74.7295 27.3245 74.3285C27.9131 73.9728 28.4953 73.6041 29.0645 73.216L29.3491 73.4424ZM27.4086 71.7995C27.9067 72.2652 28.4241 72.705 28.9545 73.1319C28.3853 73.52 27.8097 73.8952 27.2211 74.2445C26.7036 73.8046 26.1991 73.3454 25.7204 72.8603C26.2961 72.5175 26.8588 72.1682 27.4086 71.7995ZM25.3259 73.0931L25.604 72.9185C26.0827 73.41 26.5872 73.8758 27.1046 74.3156C26.5095 74.6649 25.908 75.0012 25.2935 75.3246C24.7955 74.8654 24.3168 74.3867 23.8641 73.8822C24.3621 73.6364 24.8214 73.3712 25.3259 73.0931ZM22.4928 75.4216C22.3182 75.2211 22.1435 75.0142 21.9754 74.7748C22.5769 74.5096 23.1655 74.225 23.7476 73.9275C24.1939 74.4255 24.6726 74.9107 25.1706 75.3699C24.5238 75.6869 23.9417 76.0167 23.3143 76.2819C23.0297 76.0167 22.758 75.7257 22.4928 75.4216ZM21.3932 77.2586C22.04 77.0128 22.6869 76.7412 23.2819 76.4566C23.7735 76.9546 24.2845 77.4203 24.8214 77.8666C24.2974 78.106 23.7735 78.3453 23.2431 78.5587L22.8356 78.7204C22.3307 78.2576 21.8493 77.7697 21.3932 77.2586ZM22.9391 78.8174C23.5859 78.5522 24.278 78.2612 24.9313 77.9572C25.19 78.1771 25.4552 78.3906 25.7204 78.604C25.9856 78.8175 26.3673 79.0633 26.6454 79.2896C25.9986 79.6131 25.2806 79.9365 24.5885 80.2146C24.0193 79.7618 23.4695 79.3026 22.9391 78.8174ZM23.9417 82.3426C23.4242 81.961 22.9197 81.5664 22.4281 81.1525C23.1461 80.9067 23.8576 80.635 24.5626 80.344C25.1512 80.8032 25.7592 81.2301 26.3802 81.6376C26.1797 81.7217 25.9856 81.8122 25.7851 81.8898C25.2547 82.1097 24.7243 82.3103 24.1875 82.5366L23.9417 82.3426ZM23.7218 84.7358C23.3919 84.503 23.0749 84.2701 22.7321 84.0308C22.3893 83.7915 22.15 83.5974 21.8654 83.384C22.6416 83.1641 23.4048 82.9183 24.1616 82.6466C24.7869 83.0994 25.4337 83.5306 26.1021 83.9403C25.3 84.2507 24.5174 84.5159 23.7218 84.7358ZM24.3168 82.5819C25.0542 82.3167 25.7851 82.0257 26.5096 81.7152C27.1564 82.1421 27.8032 82.5431 28.45 82.9312C27.9778 83.1447 27.5057 83.3517 27.027 83.5781L26.212 83.9079C25.5781 83.4875 24.9443 83.0541 24.3168 82.6078V82.5819ZM28.4629 85.1692C27.7579 84.7876 27.0593 84.3866 26.3802 83.9661C27.1305 83.6751 27.8743 83.3193 28.6117 83.0153C29.3038 83.4164 30.0088 83.7915 30.7203 84.1473C29.9959 84.5289 29.2262 84.8717 28.4629 85.1886V85.1692ZM29.8859 83.5716C29.5022 83.3689 29.127 83.1533 28.7605 82.9248C29.472 82.5884 30.177 82.2326 30.8691 81.8575C31.5677 82.2262 32.2727 82.5819 32.9907 82.9053C32.2986 83.3064 31.5935 83.688 30.882 84.0437C30.5457 83.9273 30.2158 83.7656 29.8859 83.591V83.5716ZM33.2882 85.1498C32.525 84.8393 31.7682 84.503 31.0179 84.1408C31.6647 83.8174 32.3115 83.4939 32.9583 83.1123L33.1394 82.9959C33.8833 83.3258 34.6336 83.6427 35.3904 83.9273C34.6983 84.3736 33.9997 84.7876 33.2882 85.1692V85.1498ZM36.7422 82.265L37.4537 82.5237C36.8069 82.983 36.1601 83.4163 35.5133 83.8174C34.7565 83.5328 34.0062 83.2223 33.2688 82.8924C33.9156 82.4979 34.5624 82.0903 35.2093 81.6505C35.7396 81.8963 36.2377 82.0968 36.7422 82.2844V82.265ZM35.2351 81.5212C34.5236 81.2172 33.8186 80.8744 33.1265 80.5509C33.7733 80.1499 34.3749 79.7295 34.9829 79.2961C35.662 79.6195 36.3606 79.9429 37.0592 80.2016C36.4641 80.6803 35.8561 81.1137 35.2351 81.5406V81.5212ZM37.1756 80.1046C36.477 79.8265 35.7914 79.529 35.1058 79.2056C35.5262 78.9016 35.9337 78.5587 36.3412 78.2677L36.8263 77.8731C37.4731 78.1706 38.1717 78.4552 38.8508 78.714C38.5533 78.9856 38.2493 79.2444 37.9453 79.4966C37.6413 79.7489 37.4343 79.9235 37.1756 80.124V80.1046Z" fill="#EAD6E6"/>
</g>
<g style="mix-blend-mode:multiply">
<path d="M38.5014 84.193C37.9128 85.0726 34.808 85.7647 31.3864 85.9394C32.5281 85.3828 33.4915 84.518 34.1677 83.4427C35.0059 81.9851 35.4245 80.324 35.3772 78.6433C35.3441 76.9525 35.1579 75.2682 34.821 73.611C30.9932 73.0422 27.1131 72.912 23.2559 73.223C23.5195 72.6553 23.9249 72.1652 24.4331 71.8C30.028 71.4119 38.275 71.5671 38.275 71.5671C39.1352 74.5619 39.7497 82.3237 38.5014 84.193Z" fill="#EAD6E6"/>
</g>
<path d="M21.5872 72.7636C21.186 73.0225 20.8658 73.3892 20.6633 73.8216C20.4609 74.254 20.3843 74.7347 20.4423 75.2086C20.5222 75.6955 20.7461 76.1472 21.085 76.5057C21.4239 76.8643 21.8624 77.1131 22.344 77.2202C22.8365 77.3081 23.3438 77.258 23.8096 77.0753C24.2754 76.8926 24.6815 76.5846 24.983 76.1853C25.6837 75.1782 26.0994 74.0005 26.1861 72.7766C26.2378 72.4144 25.7268 72.2462 25.6233 72.6214C25.3518 73.5813 25.4367 74.6071 25.8623 75.5094C26.2879 76.4117 27.0255 77.1296 27.9389 77.5307C28.8877 77.9151 29.9462 77.9289 30.9046 77.5695C31.863 77.2101 32.6514 76.5036 33.1135 75.5902C33.3588 75.0911 33.5029 74.5483 33.5373 73.9932C33.5717 73.4381 33.4958 72.8817 33.314 72.3561C33.2934 72.2815 33.244 72.2182 33.1767 72.1799C33.1094 72.1417 33.0296 72.1318 32.955 72.1524C32.8804 72.173 32.817 72.2224 32.7788 72.2897C32.7406 72.357 32.7307 72.4367 32.7513 72.5114C32.875 73.7046 33.3576 74.8322 34.1355 75.7455C34.4839 76.1408 34.9177 76.4516 35.4041 76.6545C35.8905 76.8573 36.4166 76.9468 36.9427 76.9162C37.4127 76.8744 37.8636 76.7103 38.2505 76.4402C38.6374 76.1702 38.947 75.8036 39.1483 75.3768C39.6399 74.2255 39.0448 73.003 38.5015 71.9939C38.3204 71.6576 37.8159 71.9551 37.997 72.285C38.4497 73.1323 39.0383 74.2254 38.5985 75.1827C38.4118 75.5478 38.1242 75.8516 37.7699 76.058C37.4156 76.2644 37.0095 76.3647 36.5998 76.347C34.543 76.2888 33.5727 74.1155 33.314 72.3691L32.7513 72.5243C32.9491 73.0399 33.0211 73.5952 32.9614 74.1441C32.9017 74.6931 32.712 75.2199 32.4079 75.6809C32.1039 76.1418 31.6944 76.5237 31.2133 76.7947C30.7322 77.0658 30.1934 77.2182 29.6416 77.2394C29.0898 77.2606 28.5409 77.1499 28.0404 76.9165C27.54 76.6831 27.1024 76.3338 26.7639 75.8975C26.4254 75.4612 26.1959 74.9505 26.0943 74.4077C25.9926 73.865 26.0219 73.3058 26.1796 72.7766L25.6169 72.6214C25.5303 73.5864 25.2602 74.526 24.8213 75.3897C24.6287 75.7546 24.3468 76.0647 24.0017 76.291C23.6567 76.5172 23.2599 76.6522 22.8485 76.6834C22.4437 76.6874 22.0488 76.5585 21.7243 76.3164C21.3998 76.0744 21.1636 75.7327 21.052 75.3435C20.9404 74.9544 20.9595 74.5394 21.1064 74.1622C21.2533 73.785 21.5199 73.4664 21.8653 73.2552C22.1823 73.0547 21.8653 72.5502 21.5743 72.7507L21.5872 72.7636Z" fill="white"/>
<path d="M38.3139 70.3316C32.6465 70.0521 26.9658 70.236 21.3284 70.8814C19.7437 71.0561 19.7696 73.5657 21.3737 73.3846C27.0113 72.7423 32.6918 72.5585 38.3591 72.8348C39.9697 72.9124 39.918 70.4092 38.3139 70.3316Z" fill="#CA7C0D"/>
<g style="mix-blend-mode:soft-light" opacity="0.5">
<path d="M22.3827 82.2456C22.7501 82.9972 23.3643 83.5999 24.1226 83.9532C24.648 84.2187 25.2491 84.2941 25.8238 84.1667C26.1778 84.0749 26.4882 83.8611 26.7 83.5629C26.9118 83.2647 27.0115 82.9012 26.9816 82.5367C26.9112 81.922 26.7096 81.3295 26.3904 80.7995C26.0713 80.2694 25.642 79.8141 25.1317 79.4643C24.3296 78.9016 22.8743 78.3388 22.1304 79.3026C21.9759 79.5199 21.8923 79.7797 21.8911 80.0464C21.8743 80.8085 22.043 81.5632 22.3827 82.2456Z" fill="white"/>
</g>
</g>
<defs>
<filter id="filter0_d_1839_24468" x="0" y="0" width="57.9999" height="93.9907" filterUnits="userSpaceOnUse" color-interpolation-filters="sRGB">
<feFlood flood-opacity="0" result="BackgroundImageFix"/>
<feColorMatrix in="SourceAlpha" type="matrix" values="0 0 0 0 0 0 0 0 0 0 0 0 0 0 0 0 0 0 127 0" result="hardAlpha"/>
<feOffset dy="4"/>
<feGaussianBlur stdDeviation="2"/>
<feComposite in2="hardAlpha" operator="out"/>
<feColorMatrix type="matrix" values="0 0 0 0 0 0 0 0 0 0 0 0 0 0 0 0 0 0 0.25 0"/>
<feBlend mode="normal" in2="BackgroundImageFix" result="effect1_dropShadow_1839_24468"/>
<feBlend mode="normal" in="SourceGraphic" in2="effect1_dropShadow_1839_24468" result="shape"/>
</filter>
</defs>
</svg>
