<svg width="117" height="108" viewBox="0 0 117 108" fill="none" xmlns="http://www.w3.org/2000/svg">
<g id="Group 33" filter="url(#filter0_d_387_16789)">
<g id="Group">
<g id="Group_2">
<path id="Vector" d="M85.3066 78.294C85.3066 84.3831 80.363 89.3267 74.2739 89.3267C68.1848 89.3267 63.2411 84.3831 63.2411 78.294C63.2411 72.2049 68.1848 67.2612 74.2739 67.2612C80.363 67.2612 85.3066 72.2049 85.3066 78.294Z" fill="#F2F8F9"/>
<path id="Vector_2" d="M74.2739 89.5478C68.0642 89.5478 63 84.4836 63 78.2739C63 72.0642 68.0642 67 74.2739 67C80.4835 67 85.5477 72.0642 85.5477 78.2739C85.5477 84.4836 80.4835 89.5478 74.2739 89.5478ZM74.2739 67.4823C68.3254 67.4823 63.4622 72.3255 63.4622 78.294C63.4622 84.2625 68.3054 89.1057 74.2739 89.1057C80.2424 89.1057 85.0855 84.2625 85.0855 78.294C85.0855 72.3255 80.2424 67.4823 74.2739 67.4823Z" fill="#BEC3FC"/>
</g>
<g id="Group_3" style="mix-blend-mode:multiply" opacity="0.4">
<path id="Vector_3" d="M74.2739 68.0046C74.2739 68.0046 74.1332 68.0046 74.0729 68.0046C79.4185 68.1252 83.719 72.3253 83.719 77.5101C83.719 82.6949 79.2979 87.0155 73.8519 87.0155C68.4059 87.0155 64.2058 82.9561 64.0048 77.8919C64.0048 78.0326 64.0048 78.1532 64.0048 78.2938C64.0048 83.981 68.6068 88.583 74.294 88.583C79.9812 88.583 84.5832 83.981 84.5832 78.2938C84.5832 72.6066 79.9812 68.0046 74.294 68.0046H74.2739Z" fill="#0D81EA"/>
</g>
<path id="Vector_4" d="M64.6077 78.6155C64.6077 73.0288 69.1494 68.4871 74.7361 68.4871C76.3638 68.4871 77.8911 68.8689 79.2376 69.5521C77.7103 68.6478 75.9418 68.1052 74.0327 68.1052C68.446 68.1052 63.9043 72.6469 63.9043 78.2336C63.9043 82.1926 66.1952 85.629 69.5111 87.297C66.557 85.5285 64.5876 82.3131 64.5876 78.6155H64.6077Z" fill="#EBF8B4"/>
<g id="Vector_5" style="mix-blend-mode:multiply" opacity="0.6">
<path d="M72.4653 81.268C73.1686 80.8661 73.7112 80.2431 74.4347 79.8613C77.0471 78.5148 82.0912 80.3838 81.8702 76.1033C81.7094 72.9281 78.3735 69.8132 73.3897 69.8132C69.9131 69.8132 66.6575 72.7874 65.9943 75.8421C65.3111 79.0373 68.5465 83.5388 72.4653 81.268Z" fill="#AAE2F9"/>
</g>
<path id="Vector_6" d="M67.1197 72.044C65.9139 72.7474 65.1704 74.3953 64.9493 75.7216C64.6278 77.5905 65.0096 79.3188 65.6527 81.0672C65.8134 81.5093 66.5168 81.3284 66.3761 80.8662C65.8737 79.3791 65.6527 77.7714 65.7934 76.2039C65.934 74.6163 66.5168 73.4909 67.2001 72.1043C67.2202 72.0641 67.18 72.0038 67.1398 72.044H67.1197Z" fill="#FAF8A0"/>
<path id="Vector_7" d="M67.0996 83.3179C67.1197 83.539 67.0795 83.7399 67.2 83.961C67.3005 84.1619 67.5015 84.383 67.6623 84.5237C67.9235 84.7648 68.4058 85.1466 68.7876 85.0663C68.868 85.0663 68.9283 84.9658 68.9283 84.8854C68.8881 84.5237 68.5063 84.1619 68.2852 83.9007C68.1647 83.7399 68.024 83.5792 67.8833 83.4385C67.7225 83.2777 67.5417 83.2777 67.3608 83.1772C67.2603 83.1169 67.0795 83.1772 67.0996 83.338V83.3179Z" fill="#FAF8A0"/>
<path id="Vector_8" d="M74.294 70.8783C73.1083 70.9989 72.1839 71.2601 71.1791 71.9434C70.2949 72.5262 69.4307 73.6717 69.7724 74.7971C69.8527 75.0181 70.0738 75.2392 70.3351 75.2191C71.2595 75.1387 72.0432 74.4755 72.6059 73.7923C73.2088 73.0688 73.9121 72.3252 74.6356 71.7224C74.937 71.4611 74.716 70.8381 74.294 70.8783Z" fill="white"/>
<path id="Vector_9" d="M68.8279 77.0278C67.9838 77.5101 67.9838 78.6555 68.2049 79.4192C68.3456 79.9618 69.1896 80.2833 69.5714 79.7809C69.7724 79.5197 69.9332 79.2785 70.0537 78.957C69.9733 79.0977 69.893 79.2584 69.7925 79.3991C70.0336 79.1177 70.1542 78.8364 70.1944 78.4546C70.2547 78.0929 70.2547 77.6708 70.0135 77.3493C69.7322 76.9675 69.2499 76.7665 68.8078 77.0278H68.8279Z" fill="white"/>
<path id="Vector_10" d="M71.0183 78.9369C69.9934 78.9771 69.7724 80.2632 69.9934 81.0671C70.0939 81.4087 70.3753 81.7905 70.737 81.8709C71.2193 81.9714 71.4805 81.6298 71.6413 81.2279L71.4403 81.5695C71.782 81.2078 71.8825 80.6451 71.9026 80.1628C71.9227 79.6202 71.6815 78.8967 71.0183 78.9369Z" fill="white"/>
<path id="Vector_11" d="M73.0681 86.7342C74.9772 89.3266 79.5189 86.5734 81.207 84.9858C83.7994 82.5743 85.2262 78.6154 83.1362 75.4603C82.9353 75.1589 82.3525 75.1388 82.2922 75.5809C81.9104 78.1532 81.3879 81.1073 79.5792 83.0968C77.9514 84.8854 75.5198 85.8701 73.2088 86.4529C73.0882 86.4729 73.0078 86.6337 73.0882 86.7342H73.0681Z" fill="white"/>
</g>
<g id="Group_4">
<g id="Group_5">
<path id="Vector_12" d="M101.485 57.8031C101.485 60.3955 99.3752 62.5055 96.7829 62.5055C94.1905 62.5055 92.0804 60.3955 92.0804 57.8031C92.0804 55.2107 94.1905 53.1006 96.7829 53.1006C99.3752 53.1006 101.485 55.2107 101.485 57.8031Z" fill="#F2F8F9"/>
<path id="Vector_13" d="M96.8029 62.6059C94.1503 62.6059 92 60.4556 92 57.803C92 55.1503 94.1503 53 96.8029 53C99.4556 53 101.606 55.1503 101.606 57.803C101.606 60.4556 99.4556 62.6059 96.8029 62.6059ZM96.8029 53.2211C94.2709 53.2211 92.201 55.291 92.201 57.8231C92.201 60.3552 94.2709 62.4251 96.8029 62.4251C99.335 62.4251 101.405 60.3552 101.405 57.8231C101.405 55.291 99.335 53.2211 96.8029 53.2211Z" fill="#BEC3FC"/>
</g>
<g id="Group_6" style="mix-blend-mode:multiply" opacity="0.4">
<path id="Vector_14" d="M96.8029 53.4422C96.8029 53.4422 96.7426 53.4422 96.7225 53.4422C98.9934 53.4824 100.822 55.271 100.822 57.4815C100.822 59.6921 98.9532 61.5208 96.6221 61.5208C94.2909 61.5208 92.5225 59.7926 92.4421 57.6423C92.4421 57.7026 92.4421 57.7629 92.4421 57.8031C92.4421 60.2146 94.3914 62.184 96.823 62.184C99.2546 62.184 101.204 60.2347 101.204 57.8031C101.204 55.3714 99.2546 53.4221 96.823 53.4221L96.8029 53.4422Z" fill="#0D81EA"/>
</g>
<path id="Vector_15" d="M92.6833 57.9437C92.6833 55.5724 94.6125 53.6432 96.9838 53.6432C97.6671 53.6432 98.3303 53.804 98.8929 54.1054C98.2499 53.7236 97.4862 53.4824 96.6824 53.4824C94.3111 53.4824 92.3818 55.4116 92.3818 57.783C92.3818 59.471 93.3464 60.9381 94.7733 61.6414C93.5273 60.8979 92.6833 59.5112 92.6833 57.9437Z" fill="#EBF8B4"/>
<g id="Vector_16" style="mix-blend-mode:multiply" opacity="0.6">
<path d="M96.0192 59.0891C96.3206 58.9082 96.5417 58.647 96.8632 58.4862C97.9685 57.9034 100.119 58.7073 100.018 56.8986C99.9379 55.5522 98.5312 54.2258 96.4211 54.2258C94.934 54.2258 93.5474 55.4919 93.266 56.7981C92.9646 58.1647 94.3512 60.0738 96.0192 59.1092V59.0891Z" fill="#AAE2F9"/>
</g>
<path id="Vector_17" d="M93.7483 55.1504C92.5024 56.0145 92.6832 57.7428 93.1253 58.9887C93.1856 59.1696 93.4871 59.1093 93.4268 58.9084C93.0048 57.6021 93.1053 56.3562 93.7684 55.1906C93.7684 55.1906 93.7684 55.1504 93.7483 55.1705V55.1504Z" fill="#FAF8A0"/>
<path id="Vector_18" d="M93.7484 59.9532C93.7484 59.9532 93.7484 60.1341 93.7886 60.2145C93.8287 60.2949 93.9091 60.3953 93.9895 60.4556C94.1101 60.5561 94.3111 60.7169 94.4718 60.6767C94.512 60.6767 94.5321 60.6365 94.5321 60.5963C94.5321 60.4355 94.3512 60.2949 94.2508 60.1743C94.1905 60.114 94.1302 60.0336 94.0699 59.9733C94.0096 59.913 93.9292 59.913 93.8488 59.8528C93.8087 59.8327 93.7283 59.8528 93.7283 59.913L93.7484 59.9532Z" fill="#FAF8A0"/>
<path id="Vector_19" d="M96.8029 54.6679C96.3005 54.7081 95.8986 54.8287 95.4766 55.11C95.0948 55.3512 94.7331 55.8335 94.8737 56.3158C94.8938 56.4163 94.9943 56.5168 95.1149 56.4967C95.4967 56.4565 95.8383 56.1751 96.0795 55.8938C96.3407 55.5923 96.6422 55.2708 96.9436 55.0096C97.0843 54.889 96.9637 54.6277 96.8029 54.6478V54.6679Z" fill="white"/>
<path id="Vector_20" d="M94.4718 57.2804C94.11 57.4814 94.11 57.9637 94.2105 58.3053C94.2708 58.5264 94.6325 58.667 94.7933 58.4661C94.8737 58.3455 94.9541 58.245 94.9943 58.1043C94.9541 58.1646 94.9139 58.2249 94.8938 58.2852C94.9943 58.1646 95.0546 58.044 95.0747 57.8833C95.0948 57.7225 95.0948 57.5416 94.9943 57.4211C94.8737 57.2603 94.6727 57.1799 94.4919 57.2804H94.4718Z" fill="white"/>
<path id="Vector_21" d="M95.4163 58.0842C94.9742 58.0842 94.8938 58.6469 94.9742 58.9885C95.0144 59.1292 95.135 59.29 95.2958 59.3302C95.4967 59.3704 95.6173 59.2297 95.6776 59.0488C95.6575 59.089 95.6173 59.1493 95.5972 59.1895C95.7379 59.0287 95.7781 58.7876 95.7982 58.5866C95.7982 58.3656 95.6977 58.044 95.4163 58.0641V58.0842Z" fill="white"/>
<path id="Vector_22" d="M96.3005 61.4203C97.3857 62.3045 98.9331 61.4605 99.7972 60.6165C100.923 59.5313 101.365 58.004 100.561 56.6174C100.46 56.4365 100.219 56.537 100.199 56.7178C100.058 57.7829 99.7771 59.049 99.0537 59.8729C98.4307 60.5763 97.2852 61.1591 96.3407 61.2997C96.2804 61.2997 96.2603 61.4002 96.3005 61.4404V61.4203Z" fill="white"/>
</g>
<g id="Group_7">
<g id="Group_8">
<path id="Vector_23" d="M36.186 88.1514C48.3169 88.1514 58.151 78.3174 58.151 66.1864C58.151 54.0555 48.3169 44.2214 36.186 44.2214C24.0551 44.2214 14.2211 54.0555 14.2211 66.1864C14.2211 78.3174 24.0551 88.1514 36.186 88.1514Z" fill="#EEFCFF"/>
<path id="Vector_24" d="M36.186 88.3924C23.9475 88.3924 14 78.4248 14 66.1863C14 53.9478 23.9475 44.0002 36.186 44.0002C48.4245 44.0002 58.372 53.9478 58.372 66.1863C58.372 78.4248 48.4245 88.3723 36.186 88.3723V88.3924ZM36.186 44.4625C24.2088 44.4625 14.4622 54.209 14.4622 66.1863C14.4622 78.1635 24.2088 87.9101 36.186 87.9101C48.1632 87.9101 57.9098 78.1635 57.9098 66.1863C57.9098 54.209 48.1833 44.4625 36.186 44.4625Z" fill="#BEC3FC"/>
</g>
<g id="Group_9" style="mix-blend-mode:multiply" opacity="0.4">
<path id="Vector_25" d="M36.186 44.2415C24.0681 44.2415 14.2411 54.0684 14.2411 66.1864C14.2411 78.3043 24.0681 88.1513 36.2061 88.1513C48.3441 88.1513 58.1711 78.3244 58.1711 66.1864C58.1711 54.0483 48.324 44.2415 36.186 44.2415ZM36.186 86.4231C25.0126 86.4231 15.9493 77.3799 15.9493 66.1864C15.9493 54.9928 25.0126 45.9496 36.186 45.9496C47.3594 45.9496 56.4227 55.0129 56.4227 66.1864C56.4227 77.3598 47.3594 86.4231 36.186 86.4231Z" fill="#0D81EA"/>
</g>
<path id="Vector_26" d="M36.186 45.0454C36.0252 45.0454 35.8645 45.0454 35.7037 45.0454C46.6158 45.3067 55.3777 54.2293 55.3777 65.2018C55.3777 76.1742 46.3546 85.3782 35.2013 85.3782C24.048 85.3782 15.3263 76.6163 15.0651 65.7042C15.0651 65.8649 15.0651 66.0257 15.0651 66.1865C15.0651 77.8623 24.5303 87.3275 36.2061 87.3275C47.8819 87.3275 57.3471 77.8623 57.3471 66.1865C57.3471 54.5107 47.8819 45.0454 36.186 45.0454Z" fill="#EBF8B4"/>
<path id="Vector_27" d="M16.2106 67.0104C16.2106 55.9978 25.3342 47.055 36.5879 47.055C47.8417 47.055 56.7242 55.7767 56.9452 66.5884C56.9452 66.4477 56.9452 66.307 56.9452 66.1865C56.9653 54.7317 47.6609 45.4272 36.186 45.4272C24.7112 45.4272 15.4268 54.7317 15.4268 66.1865C15.4268 77.6412 24.7313 86.9457 36.186 86.9457C36.2463 86.9457 36.3066 86.9457 36.3669 86.9457C25.1935 86.8452 16.1905 77.9628 16.1905 67.0104H16.2106Z" fill="#FAF8A0"/>
<g id="Vector_28" style="mix-blend-mode:multiply" opacity="0.6">
<path d="M27.605 68.0354C26.7409 68.8191 25.8165 69.5827 25.294 70.5876C24.9323 71.2909 24.8117 72.0747 24.7313 72.8383C24.5303 74.7474 24.6509 76.7369 25.3543 78.5456C26.0576 80.3542 27.4041 82.0021 29.273 82.8662C30.5993 83.4892 32.1266 83.7103 33.6138 83.7505C38.1153 83.9112 42.6972 82.6251 46.2943 80.1332C49.9116 77.6212 52.5241 73.9034 53.4284 69.8038C53.7902 68.1961 53.8906 66.5683 53.8505 64.9406C53.7701 61.9864 53.2074 58.972 51.7203 56.3595C50.2131 53.7471 47.7011 51.5365 44.6264 50.7326C42.9584 50.2905 39.8435 49.8082 38.3162 50.9336C36.8492 51.9987 36.6483 54.7318 36.0052 56.2591C34.1563 60.6802 31.2826 64.7396 27.6251 68.0554L27.605 68.0354Z" fill="#AAE2F9"/>
</g>
<g id="Group_10" style="mix-blend-mode:multiply" opacity="0.7">
<path id="Vector_29" d="M22.0183 54.8925C16.6728 60.9816 16.7732 71.4115 21.4958 77.7618C23.626 80.6155 26.7208 82.8662 30.1974 83.7504C31.8453 84.1725 33.7343 84.4538 35.4425 84.2729C36.3267 84.1725 37.1908 83.9514 38.075 83.7705C38.9995 83.5897 39.6224 83.2882 40.4665 82.9064C40.6272 82.826 40.5468 82.5447 40.366 82.5648C34.3573 83.3284 27.4643 80.9169 23.7466 75.9733C21.5762 73.0794 20.3704 69.5626 20.2298 65.9453C20.0891 62.107 21.2547 58.7108 22.4001 55.1337C22.4805 54.9126 22.159 54.7317 21.9982 54.8925H22.0183Z" fill="#AAE2F9"/>
</g>
<g id="Group_11" opacity="0.4">
<path id="Vector_30" d="M46.6963 50.2702C49.4896 52.3602 51.9815 55.5957 53.1672 58.9116C54.5739 62.8705 54.2926 66.6485 53.7098 70.7079C53.5691 71.6726 54.8151 72.396 55.3978 71.4113C57.729 67.4323 57.2869 62.0264 55.3175 57.9871C53.5088 54.2292 50.5949 51.6368 46.7566 50.0894C46.6561 50.0492 46.6159 50.1899 46.6963 50.2502V50.2702Z" fill="#E696F5"/>
</g>
<g id="Group_12" opacity="0.4">
<path id="Vector_31" d="M17.0948 72.2957C17.8584 75.4507 19.2852 77.9828 21.6566 80.2336C23.8068 82.2834 26.6002 84.2729 29.7352 83.6298C29.9964 83.5695 30.0969 83.2078 29.8959 83.027C27.8662 81.1781 25.2538 80.2738 23.1035 78.5857C20.9331 76.8977 18.8632 74.5062 17.5168 72.1148C17.3761 71.8736 17.0345 72.0344 17.0948 72.2957Z" fill="#E696F5"/>
</g>
<g id="Group_13" style="mix-blend-mode:multiply">
<path id="Vector_32" d="M46.0331 82.2431C48.4044 80.756 50.5145 78.8871 52.2628 76.6966C53.0868 75.6516 53.8303 74.5664 54.4935 73.421C54.8351 72.798 55.1968 72.175 55.4782 71.5319C55.7595 70.8688 55.7595 70.2458 55.9203 69.5625C55.9203 69.5223 55.8801 69.5022 55.86 69.5424C55.5586 70.1051 55.1165 70.5673 54.815 71.1501C54.5136 71.7329 54.2523 72.3157 53.9509 72.8784C53.3078 74.064 52.5844 75.2296 51.7604 76.3148C50.1126 78.5254 48.1632 80.4747 45.9929 82.1627C45.9527 82.2029 45.9929 82.2632 46.0532 82.2431H46.0331Z" fill="#C64C46"/>
</g>
<g id="Group_14" style="mix-blend-mode:multiply">
<path id="Vector_33" d="M24.6308 51.0339C22.2394 53.2445 20.3102 56.078 19.0843 59.0723C18.4211 60.6599 17.9388 62.3078 17.6374 64.016C17.3561 65.5433 17.1149 67.3519 17.9589 68.7385C18.0594 68.9194 18.3609 68.839 18.3408 68.6381C18.2604 66.9098 18.18 65.3624 18.4814 63.6341C18.7427 62.147 19.1647 60.6599 19.7073 59.2532C20.8729 56.2187 22.581 53.566 24.7112 51.1143C24.7514 51.0741 24.6911 50.9937 24.6308 51.0339Z" fill="#C64C46"/>
</g>
<path id="Vector_34" d="M29.1524 51.3757C30.0567 51.3154 30.9811 51.3958 31.9056 51.3154C32.7094 51.2351 33.4931 50.9336 34.0357 50.3106C34.6386 49.6475 34.7391 48.5422 34.0759 47.879C32.9706 46.7737 31.363 47.7785 30.318 48.4618C29.5141 49.0044 28.6098 49.768 28.6098 50.813C28.6098 51.0944 28.8711 51.3958 29.1725 51.3757H29.1524Z" fill="white"/>
<path id="Vector_35" d="M35.3018 54.3901C35.5831 54.3901 35.1812 54.3298 35.1611 54.3298C35.1209 54.3499 35.7238 54.4905 35.8042 54.4905C35.985 54.4905 36.1659 54.4905 36.3267 54.4704C36.9296 54.4102 37.6329 54.169 37.9946 53.6867C38.2961 53.3049 38.4769 52.9029 38.3363 52.4005C38.2157 51.9383 37.854 51.6369 37.4119 51.4761C36.7085 51.235 35.764 51.4962 35.2616 52.0388C35.0807 52.2398 34.8999 52.4608 34.7592 52.6819C34.6386 52.8628 34.5783 53.0838 34.5783 53.3049C34.5783 53.4054 34.5984 53.5058 34.6185 53.6063C34.6185 53.2647 34.6185 53.2044 34.5582 53.4053C34.4376 53.9078 34.7994 54.3298 35.2817 54.3499L35.3018 54.3901Z" fill="white"/>
<path id="Vector_36" d="M25.0327 57.5451C23.8671 58.57 22.7618 59.3337 22.0987 60.8208C21.4556 62.2275 21.1944 63.7347 21.0336 65.262C20.8929 66.6888 21.0135 68.1357 21.1743 69.5626C21.3752 71.1903 21.536 72.9186 22.8623 74.044C23.5456 74.6268 24.7313 74.667 25.1935 73.7425C25.8767 72.3961 25.716 71.0899 25.4748 69.6429C25.2739 68.3367 25.1935 67.0104 25.1533 65.684C25.1131 64.418 25.2337 63.2122 25.3944 61.9662C25.5954 60.5193 25.6356 59.2131 25.5351 57.7662C25.5351 57.5049 25.2136 57.3643 25.0126 57.5451H25.0327Z" fill="white"/>
<path id="Vector_37" d="M26.1782 77.621C26.1782 78.1837 26.3993 78.5856 26.7811 79.0076C27.1026 79.3493 27.5247 79.5301 27.9668 79.6306C29.052 79.8717 29.7151 78.666 29.0118 77.842C28.9314 77.7416 28.9314 77.7416 29.0118 77.842C28.9716 77.7818 28.9314 77.7416 28.9113 77.6813C28.7706 77.4803 28.65 77.3798 28.4893 77.2392C28.3285 77.0985 28.228 76.9377 28.0271 76.8372C27.8663 76.7368 27.6854 76.6966 27.5247 76.6162C26.8615 76.3348 26.1782 77.0181 26.1782 77.6411V77.621Z" fill="white"/>
<path id="Vector_38" d="M41.4511 83.5495C44.6263 83.3887 47.6206 80.4748 49.5297 78.1638C50.5948 76.8776 51.5193 75.491 52.2829 74.0039C52.9461 72.7177 53.9308 70.9091 53.8504 69.4421C53.8504 69.2411 53.6092 69.2009 53.5088 69.3416C52.6848 70.5272 52.3633 72.155 51.7001 73.4412C50.9566 74.8479 50.0723 76.1943 49.0675 77.4202C48.1029 78.5657 47.0177 79.6509 45.8723 80.6155C44.5861 81.6806 43.099 83.0069 41.431 83.3485C41.3105 83.3686 41.3507 83.5495 41.4511 83.5495Z" fill="white"/>
<path id="Vector_39" d="M54.2121 66.5281C54.5337 66.2668 54.5739 65.7243 54.5136 65.3424C54.4734 65.1013 54.2121 64.9204 53.9911 64.8802C53.7499 64.84 53.4686 64.9606 53.3681 65.1817C53.1872 65.5434 53.0867 66.0458 53.3279 66.4075C53.549 66.7291 53.9308 66.7692 54.2322 66.5281H54.2121Z" fill="white"/>
</g>
<g id="Group_15">
<g id="Group_16" opacity="0.6">
<path id="Vector_40" d="M101.329 18.8428C104.082 23.4046 102.615 29.3531 98.0537 32.1062C93.4919 34.8594 87.5435 33.3924 84.7903 28.8306C82.0371 24.2688 83.5042 18.3203 88.066 15.5672C92.6278 12.814 98.5762 14.281 101.329 18.8428Z" fill="#EEFCFF"/>
<path id="Vector_41" d="M93.0698 33.6131C92.2861 33.6131 91.5024 33.5126 90.7186 33.3318C88.1865 32.7088 86.0563 31.1413 84.7099 28.8906C83.3635 26.6398 82.9615 24.0273 83.5845 21.4952C84.2075 18.9631 85.775 16.8329 88.0257 15.4865C92.6277 12.6931 98.6565 14.1802 101.43 18.8023C102.776 21.033 103.178 23.6656 102.555 26.1977C101.932 28.7298 100.365 30.86 98.1139 32.2064C96.5666 33.1308 94.8383 33.6131 93.0899 33.6131H93.0698ZM93.0297 14.3008C91.3416 14.3008 89.6535 14.7429 88.1061 15.6673C85.9157 16.9937 84.3884 19.0837 83.7654 21.5555C83.1625 24.0273 83.5443 26.5996 84.8707 28.7901C87.6037 33.2916 93.4718 34.7586 97.9934 32.0255C100.184 30.6992 101.711 28.6092 102.334 26.1374C102.957 23.6656 102.555 21.0933 101.229 18.9028C99.4403 15.9286 96.2651 14.2807 93.0297 14.2807V14.3008Z" fill="#BEC3FC"/>
</g>
<path id="Vector_42" d="M93.0698 33.6131C92.2861 33.6131 91.5024 33.5126 90.7186 33.3318C88.1865 32.7088 86.0563 31.1413 84.7099 28.8906C83.3635 26.6398 82.9615 24.0273 83.5845 21.4952C84.2075 18.9631 85.775 16.8329 88.0257 15.4865C92.6277 12.6931 98.6565 14.1802 101.43 18.8023C102.776 21.033 103.178 23.6656 102.555 26.1977C101.932 28.7298 100.365 30.86 98.1139 32.2064C96.5666 33.1308 94.8383 33.6131 93.0899 33.6131H93.0698ZM93.0297 14.3008C91.3416 14.3008 89.6535 14.7429 88.1061 15.6673C85.9157 16.9937 84.3884 19.0837 83.7654 21.5555C83.1625 24.0273 83.5443 26.5996 84.8707 28.7901C87.6037 33.2916 93.4718 34.7586 97.9934 32.0255C100.184 30.6992 101.711 28.6092 102.334 26.1374C102.957 23.6656 102.555 21.0933 101.229 18.9028C99.4403 15.9286 96.2651 14.2807 93.0297 14.2807V14.3008Z" fill="#BEC3FC"/>
<g id="Group_17" style="mix-blend-mode:multiply" opacity="0.4">
<path id="Vector_43" d="M88.066 15.5672C83.5042 18.3203 82.0371 24.2688 84.7903 28.8306C87.5435 33.3924 93.4919 34.8594 98.0537 32.1062C102.615 29.3531 104.082 23.4046 101.329 18.8428C98.5762 14.281 92.6278 12.814 88.066 15.5672ZM97.692 31.5435C93.4517 34.1158 87.9253 32.7493 85.353 28.4889C82.7807 24.2487 84.1472 18.7222 88.4076 16.1499C92.6478 13.5776 98.1743 14.9442 100.747 19.2045C103.319 23.4649 101.952 28.9712 97.692 31.5435Z" fill="#0D81EA"/>
</g>
<path id="Vector_44" opacity="0.4" d="M87.8449 16.17C87.8449 16.17 87.7645 16.2102 87.7243 16.2504C91.9244 13.7986 97.2699 15.0848 99.7417 19.1643C102.234 23.284 100.827 28.6898 96.6268 31.2219C92.4469 33.7339 87.0812 32.5081 84.5692 28.4889C84.5893 28.5291 84.6094 28.5692 84.6295 28.6094C87.1817 32.8497 92.7885 34.1761 97.1292 31.5435C101.47 28.931 102.897 23.3644 100.345 19.1241C97.7924 14.8838 92.1856 13.5575 87.8449 16.1901V16.17Z" fill="#E696F5"/>
<path id="Vector_45" d="M85.4334 28.6899C82.8008 24.329 84.2075 18.662 88.5684 16.0294C92.9091 13.4169 98.5159 14.7834 101.189 19.0639C101.189 19.0438 101.148 19.0036 101.148 18.9835C98.4556 14.5222 92.6679 13.0953 88.2066 15.7882C83.7453 18.4811 82.3185 24.2688 85.0114 28.7301C87.7042 33.1914 93.4919 34.6182 97.9532 31.9254C97.9733 31.9254 98.0135 31.8852 98.0336 31.8651C93.6928 34.4374 88.066 33.0306 85.4535 28.6899H85.4334Z" fill="#EBF8B4"/>
<path id="Vector_46" d="M97.2498 31.1216C93.2708 33.513 88.2267 32.4479 85.9156 28.7502C85.9357 28.7904 85.9558 28.8306 85.996 28.8708C88.3674 32.8096 93.5521 34.0355 97.5713 31.6039C101.591 29.1723 102.917 24.0277 100.525 20.0888C100.505 20.0486 100.465 20.0085 100.445 19.9683C102.636 23.7463 101.229 28.71 97.2699 31.1216H97.2498Z" fill="#FAF8A0"/>
<g id="Group_18" opacity="0.7">
<path id="Vector_47" d="M100.365 26.1378C101.591 24.2487 101.148 21.7769 100.264 19.8477C100.224 19.7472 100.083 19.8276 100.103 19.9281C100.264 20.953 100.666 21.9176 100.767 22.9425C100.867 24.0478 100.586 25.0526 100.325 26.1177C100.325 26.1378 100.345 26.1579 100.365 26.1177V26.1378Z" fill="#C64C46"/>
</g>
<g id="Group_19" opacity="0.7">
<path id="Vector_48" d="M99.7216 19.0639C99.7216 19.0639 99.7216 18.9836 99.7216 18.9233C99.7216 18.863 99.6814 18.8228 99.6412 18.7826C99.5809 18.7022 99.5207 18.6218 99.4202 18.6218C99.38 18.6218 99.3398 18.662 99.3398 18.6821C99.2996 18.7625 99.3599 18.863 99.4001 18.9434C99.4001 18.9836 99.4403 19.0237 99.4805 19.0639C99.5207 19.1041 99.5608 19.1242 99.601 19.1443C99.6613 19.1845 99.7417 19.1443 99.7417 19.0639H99.7216Z" fill="#C64C46"/>
</g>
<path id="Vector_49" d="M97.4508 29.6545C99.581 28.4487 100.606 25.4142 100.666 23.0831C100.686 21.817 100.485 20.4304 99.9226 19.2849C99.5609 18.5414 98.757 17.2552 97.8125 17.3356C97.7522 17.3356 97.712 17.3959 97.7321 17.4562C97.8527 17.7777 98.0135 17.9184 98.2345 18.1797C98.6766 18.6821 98.9178 19.2849 99.1187 19.928C99.4403 20.9931 99.5609 22.1386 99.5609 23.264C99.5609 24.3492 99.4604 25.4544 99.1589 26.4994C98.8374 27.665 98.0537 28.6095 97.3704 29.5741C97.3302 29.6344 97.4106 29.6947 97.4508 29.6746V29.6545Z" fill="white"/>
<g id="Group_20" style="mix-blend-mode:multiply" opacity="0.4">
<path id="Vector_50" d="M92.8287 32.2469C96.1847 32.5282 99.2594 29.5741 100.505 26.6803C100.606 26.4391 100.304 26.2583 100.164 26.4793C99.2996 27.7856 98.5761 29.132 97.3503 30.177C96.024 31.3225 94.5368 31.9053 92.8287 32.1866C92.7885 32.1866 92.8086 32.2469 92.8287 32.2469Z" fill="#0D81EA"/>
</g>
<g id="Group_21" style="mix-blend-mode:multiply" opacity="0.4">
<path id="Vector_51" d="M100.927 25.0325C100.927 25.0325 101.048 24.8918 101.068 24.8114C101.088 24.7109 101.068 24.6306 101.048 24.5502C101.008 24.4698 100.867 24.4698 100.867 24.5703C100.867 24.6306 100.867 24.7109 100.827 24.7712C100.827 24.8315 100.767 24.8918 100.767 24.9521C100.767 25.0325 100.867 25.0727 100.927 25.0526V25.0325Z" fill="#0D81EA"/>
</g>
<g id="Vector_52" style="mix-blend-mode:multiply" opacity="0.6">
<path d="M94.2957 26.3588C95.3809 25.8162 96.1043 24.7712 96.6469 23.6659C96.868 23.2238 97.069 22.7616 97.4106 22.3999C97.7522 22.0381 98.3149 21.8372 98.757 22.0381C99.0384 22.1587 99.2192 22.42 99.38 22.6812C100.103 23.9473 99.9628 25.5951 99.2795 26.8813C98.5963 28.1674 97.4106 29.132 96.1445 29.8555C94.4766 30.8201 92.5072 31.4029 90.598 31.1215C89.332 30.9206 88.086 30.2775 87.242 29.2727C86.6391 28.5493 85.6544 26.7004 86.5989 25.8765C87.4028 25.1731 88.9301 26.1779 89.754 26.4191C91.1607 26.821 92.9292 27.042 94.2957 26.3588Z" fill="#AAE2F9"/>
</g>
<path id="Vector_53" opacity="0.4" d="M88.0057 18.662C87.7846 18.9634 87.5836 19.2849 87.5434 19.6467C87.5234 19.8677 87.5434 20.1089 87.7243 20.2495C87.8248 20.3299 87.9655 20.3701 88.1061 20.3902C89.131 20.5108 89.9952 19.707 90.9397 19.2849C91.8641 18.883 92.889 18.8227 93.8737 18.7021C94.3761 18.6419 94.9187 18.5615 95.3206 18.2399C95.7225 17.9385 95.9637 17.3356 95.7225 16.8935C95.3206 16.17 94.3962 16.2303 93.733 16.15C93.0297 16.0495 92.5876 16.0495 91.844 16.2102C90.3368 16.5519 88.9301 17.4361 88.0057 18.662Z" fill="#E696F5"/>
<path id="Vector_54" d="M86.6793 25.1127C86.197 25.374 86.0161 25.9768 85.996 26.4993C85.996 26.7807 86.0362 27.1022 86.1769 27.3635C86.398 27.7654 86.7396 27.9262 87.1817 27.9865C87.0209 27.9463 86.8602 27.9061 86.6994 27.8458C86.7597 27.886 86.8401 27.9262 86.9004 27.9664C87.3425 28.2075 87.8851 27.9865 88.0257 27.5041C88.0458 27.4238 88.086 27.3434 88.1061 27.263C88.0257 27.4037 87.9453 27.5443 87.865 27.685C88.3071 27.3434 88.287 26.6802 88.1061 26.1979C88.1061 26.1979 87.9654 25.8161 88.0257 25.9969C88.0056 25.9367 87.9855 25.8764 87.9654 25.796C87.8851 25.5749 87.7846 25.374 87.6037 25.1931C87.3425 24.972 87.0008 24.9118 86.6994 25.0725L86.6793 25.1127Z" fill="white"/>
<path id="Vector_55" d="M89.5932 26.2181C88.8698 27.3636 89.7741 28.8708 90.9598 29.2125C91.4421 29.3531 92.065 29.1321 92.3062 28.6699C92.5674 28.1675 92.467 27.6651 92.1253 27.2229C92.3263 27.4641 92.1052 27.1828 92.0248 27.0823C91.9043 26.9215 92.065 27.1225 92.065 27.1426C92.065 27.1024 91.9043 26.8411 91.8842 26.8009C91.844 26.7406 91.8641 26.7607 91.8842 26.8411C91.9445 26.9818 91.9244 26.9416 91.844 26.7607C91.844 26.8009 91.6832 26.3588 91.7636 26.6C91.844 26.8411 91.6832 26.4191 91.7033 26.4593C91.6631 26.3387 91.6229 26.2784 91.5626 26.198C91.0803 25.4545 90.0353 25.4545 89.5731 26.198L89.5932 26.2181Z" fill="white"/>
<path id="Vector_56" d="M87.664 21.6764C88.086 21.5559 88.4678 21.1338 88.7492 20.8324C89.1109 20.4305 89.553 20.0085 89.7138 19.486C89.9348 18.8429 89.2717 18.3204 88.6889 18.4611C88.0458 18.6017 87.5635 19.2247 87.2822 19.7874C87.041 20.2496 86.9003 21.0334 87.2018 21.4956C87.3023 21.6563 87.4831 21.7367 87.664 21.6764Z" fill="white"/>
</g>
<g id="Group_22">
<g id="Group_23" opacity="0.6">
<path id="Vector_57" d="M39.0311 25.7654C41.7843 30.3272 40.3173 36.2757 35.7555 39.0288C31.1937 41.782 25.2452 40.315 22.4921 35.7532C19.7389 31.1914 21.2059 25.2429 25.7677 22.4898C30.3295 19.7366 36.278 21.2036 39.0311 25.7654Z" fill="#EEFCFF"/>
<path id="Vector_58" d="M30.7716 40.5365C29.9879 40.5365 29.2041 40.436 28.4204 40.2551C25.8883 39.6321 23.7581 38.0646 22.4117 35.8139C21.0652 33.5631 20.6633 30.9506 21.2863 28.4185C21.9093 25.8864 23.4768 23.7563 25.7275 22.4098C30.3295 19.6165 36.3583 21.1036 39.1316 25.7257C40.478 27.9563 40.8799 30.5889 40.257 33.121C39.634 35.6531 38.0665 37.7833 35.8157 39.1297C34.2683 40.0542 32.5401 40.5365 30.7917 40.5365H30.7716ZM30.7314 21.2242C29.0434 21.2242 27.3553 21.6663 25.8079 22.5907C23.6174 23.917 22.0901 26.007 21.4672 28.4788C20.8643 30.9506 21.2461 33.5229 22.5724 35.7134C25.3055 40.2149 31.1735 41.6819 35.6952 38.9489C37.8856 37.6225 39.4129 35.5325 40.0359 33.0607C40.6589 30.5889 40.257 28.0166 38.9306 25.8262C37.1421 22.8519 33.9669 21.2041 30.7314 21.2041V21.2242Z" fill="#BEC3FC"/>
</g>
<path id="Vector_59" d="M30.7716 40.5365C29.9879 40.5365 29.2041 40.436 28.4204 40.2551C25.8883 39.6321 23.7581 38.0646 22.4117 35.8139C21.0652 33.5631 20.6633 30.9506 21.2863 28.4185C21.9093 25.8864 23.4768 23.7563 25.7275 22.4098C30.3295 19.6165 36.3583 21.1036 39.1316 25.7257C40.478 27.9563 40.8799 30.5889 40.257 33.121C39.634 35.6531 38.0665 37.7833 35.8157 39.1297C34.2683 40.0542 32.5401 40.5365 30.7917 40.5365H30.7716ZM30.7314 21.2242C29.0434 21.2242 27.3553 21.6663 25.8079 22.5907C23.6174 23.917 22.0901 26.007 21.4672 28.4788C20.8643 30.9506 21.2461 33.5229 22.5724 35.7134C25.3055 40.2149 31.1735 41.6819 35.6952 38.9489C37.8856 37.6225 39.4129 35.5325 40.0359 33.0607C40.6589 30.5889 40.257 28.0166 38.9306 25.8262C37.1421 22.8519 33.9669 21.2041 30.7314 21.2041V21.2242Z" fill="#BEC3FC"/>
<g id="Group_24" style="mix-blend-mode:multiply" opacity="0.4">
<path id="Vector_60" d="M25.7677 22.4898C21.2059 25.2429 19.7389 31.1914 22.4921 35.7532C25.2452 40.315 31.1937 41.782 35.7555 39.0288C40.3173 36.2757 41.7843 30.3272 39.0311 25.7654C36.278 21.2036 30.3295 19.7366 25.7677 22.4898ZM35.3937 38.4661C31.1535 41.0384 25.6271 39.6719 23.0548 35.4115C20.4825 31.1713 21.849 25.6448 26.1094 23.0726C30.3496 20.5003 35.876 21.8668 38.4483 26.1272C41.0206 30.3875 39.6541 35.8938 35.3937 38.4661Z" fill="#0D81EA"/>
</g>
<path id="Vector_61" opacity="0.4" d="M25.5466 23.0926C25.5466 23.0926 25.4663 23.1328 25.4261 23.173C29.6261 20.7213 34.9717 22.0074 37.4435 26.0869C39.9354 30.2066 38.5287 35.6124 34.3286 38.1445C30.1486 40.6565 24.783 39.4307 22.271 35.4115C22.2911 35.4517 22.3112 35.4919 22.3313 35.532C24.8835 39.7723 30.4903 41.0987 34.831 38.4661C39.1718 35.8536 40.5986 30.287 38.0464 26.0467C35.4942 21.8064 29.8874 20.4801 25.5466 23.1127V23.0926Z" fill="#E696F5"/>
<path id="Vector_62" d="M23.1352 35.6125C20.5026 31.2517 21.9093 25.5846 26.2701 22.952C30.6109 20.3395 36.2177 21.706 38.8904 25.9865C38.8904 25.9664 38.8503 25.9262 38.8503 25.9061C36.1574 21.4448 30.3697 20.018 25.9084 22.7108C21.4471 25.4037 20.0203 31.1914 22.7131 35.6527C25.406 40.114 31.1937 41.5408 35.655 38.848C35.6751 38.848 35.7153 38.8078 35.7354 38.7877C31.3946 41.36 25.7677 39.9532 23.1553 35.6125H23.1352Z" fill="#EBF8B4"/>
<path id="Vector_63" d="M34.9516 38.0439C30.9726 40.4354 25.9285 39.3703 23.6174 35.6726C23.6375 35.7128 23.6576 35.753 23.6978 35.7932C26.0691 39.732 31.2539 40.9579 35.2731 38.5262C39.2923 36.0946 40.6187 30.95 38.2272 27.0112C38.2071 26.971 38.167 26.9308 38.1469 26.8906C40.3373 30.6687 38.9306 35.6324 34.9717 38.0439H34.9516Z" fill="#FAF8A0"/>
<g id="Group_25" opacity="0.7">
<path id="Vector_64" d="M38.0665 33.0601C39.2923 31.1711 38.8502 28.6993 37.966 26.7701C37.9258 26.6696 37.7851 26.75 37.8052 26.8504C37.966 27.8753 38.3679 28.8399 38.4684 29.8648C38.5689 30.9701 38.2875 31.9749 38.0263 33.04C38.0263 33.0601 38.0464 33.0802 38.0665 33.04V33.0601Z" fill="#C64C46"/>
</g>
<g id="Group_26" opacity="0.7">
<path id="Vector_65" d="M37.4234 25.9863C37.4234 25.9863 37.4234 25.9059 37.4234 25.8456C37.4234 25.7853 37.3832 25.7451 37.343 25.705C37.2827 25.6246 37.2224 25.5442 37.122 25.5442C37.0818 25.5442 37.0416 25.5844 37.0416 25.6045C37.0014 25.6849 37.0617 25.7853 37.1019 25.8657C37.1019 25.9059 37.1421 25.9461 37.1822 25.9863C37.2224 26.0265 37.2626 26.0466 37.3028 26.0667C37.3631 26.1069 37.4435 26.0667 37.4435 25.9863H37.4234Z" fill="#C64C46"/>
</g>
<path id="Vector_66" d="M35.1526 36.5771C37.2827 35.3714 38.3076 32.3369 38.3679 30.0057C38.388 28.7397 38.1871 27.353 37.6244 26.2076C37.2626 25.464 36.4588 24.1779 35.5143 24.2582C35.454 24.2582 35.4138 24.3185 35.4339 24.3788C35.5545 24.7004 35.7152 24.841 35.9363 25.1023C36.3784 25.6047 36.6196 26.2076 36.8205 26.8506C37.1421 27.9157 37.2626 29.0612 37.2626 30.1866C37.2626 31.2718 37.1622 32.377 36.8607 33.422C36.5392 34.5876 35.7554 35.5321 35.0722 36.4967C35.032 36.557 35.1124 36.6173 35.1526 36.5972V36.5771Z" fill="white"/>
<g id="Group_27" style="mix-blend-mode:multiply" opacity="0.4">
<path id="Vector_67" d="M30.5305 39.1695C33.8865 39.4509 36.9612 36.4967 38.2072 33.6029C38.3076 33.3618 38.0062 33.1809 37.8655 33.4019C37.0014 34.7082 36.2779 36.0546 35.0521 37.0996C33.7257 38.2451 32.2386 38.8279 30.5305 39.1092C30.4903 39.1092 30.5104 39.1695 30.5305 39.1695Z" fill="#0D81EA"/>
</g>
<g id="Group_28" style="mix-blend-mode:multiply" opacity="0.4">
<path id="Vector_68" d="M38.6292 31.9548C38.6292 31.9548 38.7497 31.8142 38.7698 31.7338C38.7899 31.6333 38.7698 31.5529 38.7497 31.4725C38.7095 31.3922 38.5689 31.3922 38.5689 31.4926C38.5689 31.5529 38.5689 31.6333 38.5287 31.6936C38.5287 31.7539 38.4684 31.8142 38.4684 31.8745C38.4684 31.9548 38.5689 31.995 38.6292 31.9749V31.9548Z" fill="#0D81EA"/>
</g>
<g id="Vector_69" style="mix-blend-mode:multiply" opacity="0.6">
<path d="M31.9975 33.2814C33.0827 32.7388 33.8061 31.6938 34.3487 30.5885C34.5698 30.1464 34.7707 29.6842 35.1124 29.3225C35.454 28.9607 36.0167 28.7598 36.4588 28.9607C36.7401 29.0813 36.921 29.3426 37.0818 29.6038C37.8052 30.8699 37.6646 32.5177 36.9813 33.8039C36.298 35.09 35.1124 36.0546 33.8463 36.7781C32.1783 37.7427 30.2089 38.3255 28.2998 38.0442C27.0338 37.8432 25.7878 37.2001 24.9438 36.1953C24.3409 35.4719 23.3562 33.623 24.3007 32.7991C25.1045 32.0957 26.6318 33.1005 27.4558 33.3417C28.8625 33.7436 30.631 33.9647 31.9975 33.2814Z" fill="#AAE2F9"/>
</g>
<path id="Vector_70" opacity="0.4" d="M25.7074 25.5846C25.4864 25.886 25.2854 26.2075 25.2452 26.5693C25.2251 26.7903 25.2452 27.0315 25.4261 27.1722C25.5266 27.2525 25.6672 27.2927 25.8079 27.3128C26.8328 27.4334 27.6969 26.6296 28.6415 26.2075C29.5659 25.8056 30.5908 25.7453 31.5755 25.6248C32.0779 25.5645 32.6205 25.4841 33.0224 25.1625C33.4243 24.8611 33.6655 24.2582 33.4243 23.8161C33.0224 23.0927 32.098 23.1529 31.4348 23.0726C30.7314 22.9721 30.2893 22.9721 29.5458 23.1328C28.0386 23.4745 26.6319 24.3587 25.7074 25.5846Z" fill="#E696F5"/>
<path id="Vector_71" d="M24.3811 32.0353C23.8988 32.2966 23.7179 32.8995 23.6978 33.422C23.6978 33.7033 23.738 34.0248 23.8787 34.2861C24.0997 34.688 24.4414 34.8488 24.8835 34.9091C24.7227 34.8689 24.5619 34.8287 24.4012 34.7684C24.4615 34.8086 24.5418 34.8488 24.6021 34.889C25.0442 35.1301 25.5868 34.9091 25.7275 34.4268C25.7476 34.3464 25.7878 34.266 25.8079 34.1856C25.7275 34.3263 25.6471 34.4669 25.5667 34.6076C26.0089 34.266 25.9888 33.6028 25.8079 33.1205C25.8079 33.1205 25.6672 32.7387 25.7275 32.9195C25.7074 32.8593 25.6873 32.799 25.6672 32.7186C25.5868 32.4975 25.4864 32.2966 25.3055 32.1157C25.0442 31.8946 24.7026 31.8344 24.4012 31.9951L24.3811 32.0353Z" fill="white"/>
<path id="Vector_72" d="M27.295 33.1405C26.5715 34.286 27.4759 35.7932 28.6615 36.1348C29.1438 36.2755 29.7668 36.0544 30.008 35.5922C30.2692 35.0898 30.1687 34.5874 29.8271 34.1453C30.0281 34.3865 29.807 34.1051 29.7266 34.0046C29.606 33.8439 29.7668 34.0448 29.7668 34.0649C29.7668 34.0247 29.606 33.7635 29.586 33.7233C29.5458 33.663 29.5659 33.6831 29.586 33.7635C29.6462 33.9042 29.6261 33.864 29.5458 33.6831C29.5458 33.7233 29.385 33.2812 29.4654 33.5223C29.5458 33.7635 29.385 33.3415 29.4051 33.3817C29.3649 33.2611 29.3247 33.2008 29.2644 33.1204C28.7821 32.3769 27.7371 32.3769 27.2749 33.1204L27.295 33.1405Z" fill="white"/>
<path id="Vector_73" d="M25.3658 28.5988C25.7878 28.4782 26.1696 28.0562 26.451 27.7548C26.8127 27.3528 27.2548 26.9308 27.4156 26.4083C27.6366 25.7653 26.9735 25.2428 26.3907 25.3834C25.7476 25.5241 25.2653 26.1471 24.984 26.7098C24.7428 27.172 24.6021 27.9557 24.9036 28.4179C25.0041 28.5787 25.1849 28.6591 25.3658 28.5988Z" fill="white"/>
</g>
<g id="Group_29">
<g id="Group_30">
<path id="Vector_74" d="M58.4554 68.6348C74.5705 68.6348 87.6344 55.5709 87.6344 39.4557C87.6344 23.3405 74.5705 10.2766 58.4554 10.2766C42.3403 10.2766 29.2764 23.3405 29.2764 39.4557C29.2764 55.5709 42.3403 68.6348 58.4554 68.6348Z" fill="#EEFCFF"/>
<path id="Vector_75" d="M58.4554 10.5838C74.3964 10.5838 87.358 23.5455 87.358 39.4865C87.358 55.4275 74.3964 68.3892 58.4554 68.3892C42.5145 68.3892 29.5836 55.3968 29.5836 39.4558C29.5836 23.5148 42.5452 10.5838 58.4554 10.5838ZM58.4554 10.0002C42.2073 10.0002 29 23.2076 29 39.4558C29 55.7039 42.2073 68.9113 58.4554 68.9113C74.7035 68.9113 87.9109 55.7039 87.9109 39.4558C87.9109 23.2076 74.7342 10.0002 58.4554 10.0002Z" fill="#BEC3FC"/>
</g>
<g id="Group_31" style="mix-blend-mode:multiply">
<path id="Vector_76" d="M58.4555 12.4575C58.2097 12.4575 57.9947 12.4575 57.749 12.4575C71.5399 12.8261 82.6279 24.1292 82.6279 38.0123C82.6279 51.8954 71.1714 63.5978 57.0426 63.5978C42.9138 63.5978 31.8565 52.5711 31.4879 38.7494C31.4879 38.9952 31.4879 39.2102 31.4879 39.4559C31.4879 54.3526 43.5895 66.4542 58.4862 66.4542C73.3828 66.4542 85.4844 54.3526 85.4844 39.4559C85.4844 24.5592 73.3828 12.4575 58.4555 12.4575Z" fill="#DFD2E9"/>
</g>
<g id="Group_32" style="mix-blend-mode:multiply" opacity="0.4">
<path id="Vector_77" d="M58.4554 10.0002C42.2073 10.0002 29 23.2076 29 39.4558C29 55.7039 42.2073 68.9113 58.4554 68.9113C74.7035 68.9113 87.9109 55.7039 87.9109 39.4558C87.9109 23.2076 74.7342 10.0002 58.4554 10.0002ZM58.4554 67.2834C43.0981 67.2834 30.6279 54.8439 30.6279 39.4558C30.6279 24.0676 43.0981 11.6281 58.4554 11.6281C73.8128 11.6281 86.283 24.0984 86.283 39.4558C86.283 54.8132 73.8128 67.2834 58.4554 67.2834Z" fill="#0D81EA"/>
</g>
<g id="Vector_78" style="mix-blend-mode:multiply">
<path d="M40.6409 21.5491C39.3509 22.747 38.0916 24.2827 38.3066 25.9413C38.5523 27.9685 40.948 29.2892 43.1595 29.4121C45.371 29.535 47.5517 28.7978 49.7017 28.3064C54.8311 27.2006 61.0662 28.0606 63.8305 32.1764C64.8441 33.6815 65.5813 35.7086 67.4549 36.0465C68.2842 36.2001 69.1749 35.9236 69.912 35.5551C73.9664 33.5586 75.41 28.5828 74.2428 24.4977C72.4921 18.4469 65.7963 15.0375 59.5305 13.8397C52.9268 12.5803 45.0638 17.3719 40.6409 21.4877V21.5491Z" fill="#D2E2F9"/>
</g>
<g id="Group_33" style="mix-blend-mode:multiply">
<path id="Vector_79" d="M80.7543 28.8591C81.2765 32.5449 82.1979 35.9542 81.8908 39.7322C81.6143 43.5408 80.3857 47.2573 78.42 50.5131C76.3928 53.8917 73.3213 56.9325 70.0963 59.1439C66.0727 61.8776 61.4962 63.2904 56.889 64.7955C56.5511 64.8876 56.5818 65.4712 56.9811 65.4405C61.9569 64.8876 66.9327 62.9526 71.3249 60.5875C75.4099 58.4068 78.42 55.5503 80.6007 51.4652C82.505 47.8409 83.5493 43.7865 83.6722 39.7014C83.7644 36.0771 83.2115 31.6849 80.8772 28.7977C80.8464 28.7362 80.785 28.7977 80.785 28.8591H80.7543Z" fill="#D2DCF9"/>
</g>
<g id="Group_34" style="mix-blend-mode:multiply">
<path id="Vector_80" d="M56.9811 14.0547C55.384 13.9625 53.7561 14.6383 52.2204 15.0683C50.5925 15.5597 49.026 16.1433 47.4903 16.819C44.7874 17.9862 42.3609 19.6755 40.2723 21.7334C38.2451 23.7298 36.5558 26.1256 35.2658 28.6749C34.0679 31.04 32.5629 33.9579 33.3922 36.6301C33.5765 37.2137 34.4058 37.5515 34.8665 37.0294C36.4637 35.0636 36.8016 32.4836 37.938 30.2414C39.1359 27.8149 40.7023 25.6035 42.5759 23.6377C44.5417 21.5798 46.7531 19.7676 49.2103 18.324C50.5925 17.5254 52.0361 16.819 53.4797 16.174C54.7082 15.6211 56.0904 15.2218 57.1347 14.3311C57.2269 14.239 57.1347 14.1161 57.0426 14.1161L56.9811 14.0547Z" fill="#B4B4F9"/>
</g>
<g id="Group_35" style="mix-blend-mode:multiply">
<path id="Vector_81" d="M33.3307 41.9131C33.4843 42.4966 33.6379 43.0495 33.6072 43.6331C33.6072 44.0017 33.9143 44.3088 34.2522 44.3395C34.6208 44.3702 34.9279 44.1552 35.0508 43.8174C35.2043 43.4181 35.3272 42.9574 35.3579 42.5581C35.3579 42.0666 35.2043 41.6366 34.9893 41.2066C34.5286 40.2545 33.1157 40.9302 33.3615 41.9131H33.3307Z" fill="#D2DCF9"/>
</g>
<path id="Vector_82" opacity="0.6" d="M44.4802 58.1305C51.0532 63.4749 61.0355 62.9835 68.3148 58.6834C71.1099 57.0248 73.8128 54.4447 73.8435 51.2197C73.8435 50.3904 73.5978 49.4689 72.8913 49.0389C72.4306 48.7625 71.8778 48.7011 71.3556 48.7011C67.4855 48.5782 63.6462 49.4382 59.7761 49.2846C55.9061 49.1311 51.7289 47.6875 49.886 44.2781C48.9338 42.5581 48.7188 40.5616 48.2581 38.6573C46.3231 30.5793 39.3201 32.2993 38.2144 39.4866C37.1701 46.2132 39.0437 53.7076 44.4802 58.1305Z" fill="white"/>
<g id="Group_36" style="mix-blend-mode:multiply">
<path id="Vector_83" d="M80.5086 30.9479C80.2015 33.2515 80.7543 35.5858 80.7236 37.8894C80.7236 40.5002 80.2322 42.9267 79.0957 45.2917C78.2357 47.0732 77.2836 48.8239 76.27 50.5132C75.195 52.264 73.7821 53.769 72.7071 55.5198C72.4613 55.9191 72.8914 56.5948 73.3828 56.3798C75.2871 55.6119 76.4543 53.984 77.5293 52.2947C78.8193 50.2368 80.0786 48.0253 81 45.7524C82.8122 41.3602 82.8736 35.1865 80.6315 30.9172C80.6007 30.8557 80.5086 30.9172 80.5086 30.9479Z" fill="#AAE2F9"/>
</g>
<g id="Group_37" style="mix-blend-mode:multiply">
<path id="Vector_84" d="M83.7644 27.2927C85.3615 31.7463 86.3137 36.5379 85.7608 41.2679C85.208 45.998 83.7029 50.4824 81.6143 54.7518C81.3072 55.3661 82.1365 55.8268 82.5358 55.2739C88.1566 47.4109 88.3102 35.6778 83.8872 27.2313C83.8565 27.1698 83.7337 27.2313 83.7644 27.2927Z" fill="#C64C46"/>
</g>
<g id="Group_38" style="mix-blend-mode:multiply">
<path id="Vector_85" d="M32.3478 40.6537C31.8564 46.0902 34.1907 51.281 37.7536 55.3354C39.6272 57.4547 41.9001 59.2361 44.3573 60.5569C46.6609 61.7855 49.3331 63.1676 51.9746 63.3826C52.036 63.3826 52.036 63.3212 51.9746 63.2905C49.8552 62.0005 47.4902 61.294 45.3709 60.004C43.0366 58.5604 40.8558 56.9325 38.9208 54.9975C35.0815 51.1274 32.87 46.0595 32.3478 40.6537C32.3478 40.6229 32.2864 40.6229 32.2864 40.6537H32.3478Z" fill="#C64C46"/>
</g>
<path id="Vector_86" d="M55.1075 16.6655C52.8654 16.6655 50.2546 17.3719 48.4732 18.7234C47.6439 19.3377 47.1524 20.2284 47.4289 21.2727C47.5517 21.7027 47.7053 21.9484 48.0124 22.2556C48.5039 22.7777 49.4867 23.1156 50.2239 22.8392C52.5275 21.887 54.6161 20.1363 55.8754 17.9555C56.2133 17.3719 55.7833 16.6655 55.1383 16.6348L55.1075 16.6655Z" fill="white"/>
<path id="Vector_87" d="M43.8966 24.2213C43.5895 24.3441 43.2823 24.4363 42.9752 24.5898C42.5759 24.8049 42.2994 25.1427 42.023 25.542C41.6237 26.1256 41.1016 26.9856 41.4087 27.692C41.7466 28.4906 42.3301 28.8592 43.2209 28.7056C43.7123 28.6135 44.0195 28.2449 44.3266 27.8763C44.5723 27.5385 44.1116 28.0913 44.388 27.8149C44.4495 27.7535 44.5416 27.6613 44.603 27.5999C44.818 27.3849 45.033 27.1699 45.1866 26.8935C45.2788 26.7092 45.3709 26.4942 45.4938 26.3099C46.1081 25.2963 45.0638 23.822 43.8966 24.2213Z" fill="white"/>
<path id="Vector_88" d="M65.7655 64.7034C68.4377 64.4884 71.2327 62.4305 73.352 60.8948C75.8092 59.0826 78.0821 57.1169 79.925 54.6597C81.7986 52.1718 83.2729 49.2231 83.8872 46.1824C84.5015 43.1723 85.6994 39.8551 85.1772 36.7836C85.0851 36.1693 84.2251 36.3843 84.1636 36.9065C84.0408 38.3501 84.2865 39.7937 84.2558 41.2373C84.2251 42.8652 83.7336 45.0152 83.1193 46.4895C81.9829 49.1617 80.8464 51.7418 79.2186 54.1375C77.5293 56.6254 75.4099 58.9597 72.922 60.6491C70.6492 62.1848 67.977 62.8298 65.7041 64.2734C65.5505 64.3656 65.5812 64.6727 65.7962 64.642L65.7655 64.7034Z" fill="white"/>
<path id="Vector_89" d="M83.9487 32.4221C84.0101 32.1764 84.0101 31.8999 83.9487 31.6235C83.8872 31.3164 83.7337 31.1321 83.4879 30.9785C83.3344 30.8863 83.1194 30.9171 82.9658 31.0092C82.8122 31.1321 82.7815 31.3164 82.8122 31.5006C82.8122 31.4699 82.8122 31.5006 82.8122 31.5314C82.8122 31.5928 82.8122 31.6542 82.8122 31.7464C82.8122 31.8078 82.8429 31.8692 82.8736 31.9306C82.8736 32.0535 82.8736 31.9306 82.8736 32.0228C82.8736 32.1149 82.8736 32.1764 82.8736 32.2685C82.8429 32.9135 83.7644 33.0057 83.9487 32.4221Z" fill="white"/>
<path id="Vector_90" d="M31.365 39.3636C30.8429 49.1309 36.9551 60.3111 46.2002 64.0583C47.0603 64.3962 47.5824 63.0447 46.8145 62.584C42.6066 60.004 39.0437 57.1782 36.1872 53.0624C33.3615 49.008 32.1022 44.2472 31.7643 39.3636C31.7643 39.0871 31.3343 39.0871 31.3343 39.3636H31.365Z" fill="white"/>
<path id="Vector_91" opacity="0.4" d="M70.772 43.3874C68.6834 48.2096 65.2127 52.7247 60.2983 54.5983C58.3019 55.3662 55.6911 56.1955 55.5682 58.3455C55.5068 59.7277 56.7354 60.9256 58.0869 61.2327C59.4383 61.5399 60.8512 61.1713 62.1719 60.7106C69.9735 57.9462 76.3314 51.3733 78.7886 43.4488C79.4336 41.3909 80.8465 34.2344 77.0686 33.9886C73.7207 33.7429 71.6935 41.1452 70.7413 43.3874H70.772Z" fill="#E696F5"/>
</g>
</g>
<defs>
<filter id="filter0_d_387_16789" x="0" y="0.000244141" width="116.841" height="107.548" filterUnits="userSpaceOnUse" color-interpolation-filters="sRGB">
<feFlood flood-opacity="0" result="BackgroundImageFix"/>
<feColorMatrix in="SourceAlpha" type="matrix" values="0 0 0 0 0 0 0 0 0 0 0 0 0 0 0 0 0 0 127 0" result="hardAlpha"/>
<feOffset dy="4"/>
<feGaussianBlur stdDeviation="7"/>
<feComposite in2="hardAlpha" operator="out"/>
<feColorMatrix type="matrix" values="0 0 0 0 0.0666667 0 0 0 0 0.27451 0 0 0 0 0.466667 0 0 0 0.45 0"/>
<feBlend mode="normal" in2="BackgroundImageFix" result="effect1_dropShadow_387_16789"/>
<feBlend mode="normal" in="SourceGraphic" in2="effect1_dropShadow_387_16789" result="shape"/>
</filter>
</defs>
</svg>
