<svg width="59" height="59" viewBox="0 0 59 59" fill="none" xmlns="http://www.w3.org/2000/svg">
<g id="Group">
<g id="Group_2">
<path id="Vector" d="M29.4554 58.6346C45.5706 58.6346 58.6344 45.5707 58.6344 29.4555C58.6344 13.3403 45.5706 0.276367 29.4554 0.276367C13.3403 0.276367 0.276434 13.3403 0.276434 29.4555C0.276434 45.5707 13.3403 58.6346 29.4554 58.6346Z" fill="#EEFCFF"/>
<path id="Vector_2" d="M29.4554 0.583582C45.3964 0.583582 58.358 13.5453 58.358 29.4863C58.358 45.4273 45.3964 58.3889 29.4554 58.3889C13.5145 58.3889 0.583572 45.3966 0.583572 29.4555C0.583572 13.5145 13.5452 0.583582 29.4554 0.583582ZM29.4554 0C13.2073 0 -7.62939e-06 13.2074 -7.62939e-06 29.4555C-7.62939e-06 45.7037 13.2073 58.9111 29.4554 58.9111C45.7035 58.9111 58.9109 45.7037 58.9109 29.4555C58.9109 13.2074 45.7342 0 29.4554 0Z" fill="#BEC3FC"/>
</g>
<g id="Group_3" style="mix-blend-mode:multiply">
<path id="Vector_3" d="M29.4554 2.45703C29.2097 2.45703 28.9947 2.45703 28.749 2.45703C42.5399 2.82561 53.6279 14.1287 53.6279 28.0118C53.6279 41.8949 42.1713 53.5973 28.0426 53.5973C13.9138 53.5973 2.85647 42.5706 2.48789 28.749C2.48789 28.9947 2.48789 29.2097 2.48789 29.4554C2.48789 44.3521 14.5895 56.4538 29.4861 56.4538C44.3828 56.4538 56.4844 44.3521 56.4844 29.4554C56.4844 14.5587 44.3828 2.45703 29.4554 2.45703Z" fill="#DFD2E9"/>
</g>
<g id="Group_4" style="mix-blend-mode:multiply" opacity="0.4">
<path id="Vector_4" d="M29.4554 0C13.2073 0 -7.62939e-06 13.2074 -7.62939e-06 29.4555C-7.62939e-06 45.7037 13.2073 58.9111 29.4554 58.9111C45.7035 58.9111 58.9109 45.7037 58.9109 29.4555C58.9109 13.2074 45.7342 0 29.4554 0ZM29.4554 57.2832C14.0981 57.2832 1.62787 44.8437 1.62787 29.4555C1.62787 14.0674 14.0981 1.62789 29.4554 1.62789C44.8128 1.62789 57.283 14.0981 57.283 29.4555C57.283 44.813 44.8128 57.2832 29.4554 57.2832Z" fill="#0D81EA"/>
</g>
<g id="Vector_5" style="mix-blend-mode:multiply">
<path d="M11.6409 11.5488C10.3509 12.7467 9.09156 14.2825 9.30657 15.9411C9.55228 17.9683 11.948 19.289 14.1595 19.4118C16.371 19.5347 18.5517 18.7976 20.7017 18.3061C25.8311 17.2004 32.0662 18.0604 34.8305 22.1762C35.8441 23.6812 36.5812 25.7084 38.4548 26.0463C39.2841 26.1998 40.1749 25.9234 40.912 25.5548C44.9664 23.5584 46.41 18.5825 45.2428 14.4975C43.4921 8.44664 36.7963 5.03729 30.5304 3.83941C23.9268 2.58011 16.0638 7.37162 11.6409 11.4874V11.5488Z" fill="#D2E2F9"/>
</g>
<g id="Group_5" style="mix-blend-mode:multiply">
<path id="Vector_6" d="M51.7543 18.8588C52.2765 22.5446 53.1979 25.954 52.8908 29.7319C52.6143 33.5406 51.3858 37.257 49.42 40.5128C47.3928 43.8915 44.3214 46.9322 41.0963 49.1437C37.0727 51.8773 32.4962 53.2902 27.889 54.7952C27.5511 54.8874 27.5818 55.471 27.9811 55.4402C32.9569 54.8874 37.9327 52.9523 42.3249 50.5873C46.41 48.4065 49.42 45.5501 51.6008 41.465C53.5051 37.8406 54.5494 33.7863 54.6722 29.7012C54.7644 26.0768 54.2115 21.6846 51.8772 18.7974C51.8465 18.736 51.785 18.7974 51.785 18.8588H51.7543Z" fill="#D2DCF9"/>
</g>
<g id="Group_6" style="mix-blend-mode:multiply">
<path id="Vector_7" d="M27.9811 4.05442C26.384 3.96228 24.7561 4.63801 23.2203 5.06801C21.5925 5.55945 20.026 6.14303 18.4903 6.81876C15.7874 7.98593 13.3609 9.67524 11.2723 11.7331C9.24513 13.7296 7.55582 16.1254 6.2658 18.6747C5.06793 21.0397 3.56291 23.9577 4.3922 26.6298C4.57649 27.2134 5.40579 27.5513 5.86651 27.0291C7.46368 25.0634 7.80154 22.4833 8.93798 20.2412C10.1359 17.8147 11.7023 15.6032 13.5759 13.6375C15.5417 11.5796 17.7531 9.76739 20.2103 8.32379C21.5925 7.5252 23.036 6.81876 24.4796 6.17375C25.7082 5.62088 27.0904 5.22159 28.1347 4.33086C28.2268 4.23871 28.1347 4.11585 28.0426 4.11585L27.9811 4.05442Z" fill="#B4B4F9"/>
</g>
<g id="Group_7" style="mix-blend-mode:multiply">
<path id="Vector_8" d="M4.33077 31.9128C4.48435 32.4964 4.63792 33.0493 4.60721 33.6328C4.60721 34.0014 4.91435 34.3086 5.25222 34.3393C5.62079 34.37 5.92794 34.155 6.0508 33.8171C6.20437 33.4178 6.32723 32.9571 6.35795 32.5578C6.35795 32.0664 6.20437 31.6364 5.98937 31.2064C5.52865 30.2542 4.11577 30.9299 4.36149 31.9128H4.33077Z" fill="#D2DCF9"/>
</g>
<path id="Vector_9" opacity="0.6" d="M15.4802 48.1303C22.0532 53.4747 32.0355 52.9832 39.3149 48.6831C42.1099 47.0245 44.8128 44.4445 44.8435 41.2194C44.8435 40.3901 44.5978 39.4687 43.8914 39.0387C43.4306 38.7622 42.8778 38.7008 42.3556 38.7008C38.4856 38.578 34.6462 39.438 30.7762 39.2844C26.9061 39.1308 22.7289 37.6872 20.886 34.2779C19.9339 32.5578 19.7189 30.5614 19.2581 28.6571C17.3231 20.579 10.3202 22.2991 9.21442 29.4864C8.17012 36.2129 10.0437 43.7073 15.4802 48.1303Z" fill="white"/>
<g id="Group_8" style="mix-blend-mode:multiply">
<path id="Vector_10" d="M51.5086 20.9476C51.2015 23.2512 51.7544 25.5856 51.7236 27.8892C51.7236 30.4999 51.2322 32.9264 50.0958 35.2915C49.2357 37.0729 48.2836 38.8237 47.27 40.513C46.195 42.2637 44.7821 43.7688 43.7071 45.5195C43.4614 45.9188 43.8914 46.5945 44.3828 46.3795C46.2871 45.6117 47.4543 43.9838 48.5293 42.2945C49.8193 40.2366 51.0786 38.0251 52.0001 35.7522C53.8122 31.36 53.8737 25.1863 51.6315 20.9169C51.6008 20.8555 51.5086 20.9169 51.5086 20.9476Z" fill="#AAE2F9"/>
</g>
<g id="Group_9" style="mix-blend-mode:multiply">
<path id="Vector_11" d="M54.7644 17.2924C56.3615 21.7461 57.3137 26.5376 56.7608 31.2677C56.208 35.9978 54.7029 40.4822 52.6143 44.7515C52.3072 45.3658 53.1365 45.8265 53.5358 45.2737C59.1566 37.4107 59.3102 25.6776 54.8872 17.231C54.8565 17.1696 54.7337 17.231 54.7644 17.2924Z" fill="#C64C46"/>
</g>
<g id="Group_10" style="mix-blend-mode:multiply">
<path id="Vector_12" d="M3.34791 30.6534C2.85647 36.0899 5.19079 41.2808 8.7537 45.3351C10.6273 47.4544 12.9002 49.2359 15.3574 50.5566C17.661 51.7852 20.3332 53.1674 22.9746 53.3824C23.0361 53.3824 23.0361 53.321 22.9746 53.2903C20.8553 52.0002 18.4903 51.2938 16.371 50.0038C14.0366 48.5602 11.8559 46.9323 9.92086 44.9972C6.08152 41.1272 3.87006 36.0592 3.34791 30.6534C3.34791 30.6227 3.28648 30.6227 3.28648 30.6534H3.34791Z" fill="#C64C46"/>
</g>
<path id="Vector_13" d="M26.1075 6.66499C23.8654 6.66499 21.2546 7.37143 19.4731 8.72289C18.6438 9.33718 18.1524 10.2279 18.4288 11.2722C18.5517 11.7022 18.7053 11.9479 19.0124 12.2551C19.5039 12.7772 20.4867 13.1151 21.2239 12.8387C23.5275 11.8865 25.6161 10.1358 26.8754 7.95502C27.2133 7.37143 26.7833 6.66499 26.1382 6.63428L26.1075 6.66499Z" fill="white"/>
<path id="Vector_14" d="M14.8966 14.221C14.5895 14.3439 14.2824 14.436 13.9752 14.5896C13.5759 14.8046 13.2995 15.1425 13.023 15.5418C12.6238 16.1253 12.1016 16.9854 12.4088 17.6918C12.7466 18.4904 13.3302 18.859 14.2209 18.7054C14.7124 18.6132 15.0195 18.2447 15.3267 17.8761C15.5724 17.5382 15.1117 18.0911 15.3881 17.8147C15.4495 17.7532 15.5417 17.6611 15.6031 17.5997C15.8181 17.3847 16.0331 17.1697 16.1867 16.8932C16.2788 16.7089 16.371 16.4939 16.4938 16.3096C17.1081 15.296 16.0638 13.8217 14.8966 14.221Z" fill="white"/>
<path id="Vector_15" d="M36.7655 54.7032C39.4377 54.4882 42.2328 52.4303 44.3521 50.8945C46.8093 49.0824 49.0822 47.1166 50.925 44.6594C52.7986 42.1715 54.2729 39.2229 54.8872 36.1821C55.5015 33.1721 56.6994 29.8549 56.1773 26.7834C56.0851 26.1691 55.2251 26.3841 55.1637 26.9062C55.0408 28.3498 55.2865 29.7934 55.2558 31.237C55.2251 32.8649 54.7337 35.015 54.1194 36.4893C52.9829 39.1615 51.8465 41.7415 50.2186 44.1373C48.5293 46.6252 46.41 48.9595 43.9221 50.6488C41.6492 52.1846 38.977 52.8296 36.7041 54.2732C36.5505 54.3653 36.5813 54.6725 36.7963 54.6418L36.7655 54.7032Z" fill="white"/>
<path id="Vector_16" d="M54.9486 22.4218C55.0101 22.1761 55.0101 21.8997 54.9486 21.6233C54.8872 21.3161 54.7336 21.1318 54.4879 20.9782C54.3344 20.8861 54.1194 20.9168 53.9658 21.009C53.8122 21.1318 53.7815 21.3161 53.8122 21.5004C53.8122 21.4697 53.8122 21.5004 53.8122 21.5311C53.8122 21.5925 53.8122 21.654 53.8122 21.7461C53.8122 21.8075 53.8429 21.869 53.8736 21.9304C53.8736 22.0533 53.8736 21.9304 53.8736 22.0225C53.8736 22.1147 53.8736 22.1761 53.8736 22.2683C53.8429 22.9133 54.7644 23.0054 54.9486 22.4218Z" fill="white"/>
<path id="Vector_17" d="M2.36503 29.3633C1.84288 39.1307 7.95512 50.3109 17.2003 54.0581C18.0603 54.3959 18.5824 53.0445 17.8145 52.5838C13.6066 50.0037 10.0437 47.178 7.18725 43.0622C4.36149 39.0078 3.10219 34.247 2.76433 29.3633C2.76433 29.0869 2.33432 29.0869 2.33432 29.3633H2.36503Z" fill="white"/>
<path id="Vector_18" opacity="0.4" d="M41.7721 33.3871C39.6835 38.2094 36.2127 42.7245 31.2983 44.5981C29.3019 45.3659 26.6911 46.1952 26.5683 48.3453C26.5068 49.7275 27.7354 50.9253 29.0869 51.2325C30.4383 51.5396 31.8512 51.171 33.1719 50.7103C40.9735 47.946 47.3314 41.373 49.7886 33.4486C50.4336 31.3907 51.8465 24.2341 48.0686 23.9884C44.7207 23.7427 42.6935 31.145 41.7413 33.3871H41.7721Z" fill="#E696F5"/>
</g>
</svg>
