<svg width="59" height="59" viewBox="0 0 59 59" fill="none" xmlns="http://www.w3.org/2000/svg">
<g id="Group">
<g id="Group_2">
<path id="Vector" d="M29.4554 58.6346C45.5706 58.6346 58.6344 45.5707 58.6344 29.4555C58.6344 13.3403 45.5706 0.276367 29.4554 0.276367C13.3403 0.276367 0.276434 13.3403 0.276434 29.4555C0.276434 45.5707 13.3403 58.6346 29.4554 58.6346Z" fill="#D3D3D3"/>
<path id="Vector_2" d="M29.4554 0.583582C45.3964 0.583582 58.358 13.5453 58.358 29.4863C58.358 45.4273 45.3964 58.3889 29.4554 58.3889C13.5145 58.3889 0.583572 45.3966 0.583572 29.4555C0.583572 13.5145 13.5452 0.583582 29.4554 0.583582ZM29.4554 0C13.2073 0 -7.62939e-06 13.2074 -7.62939e-06 29.4555C-7.62939e-06 45.7037 13.2073 58.9111 29.4554 58.9111C45.7035 58.9111 58.9109 45.7037 58.9109 29.4555C58.9109 13.2074 45.7342 0 29.4554 0Z" fill="#A9A9A9"/>
</g>
<g id="Group_3" style="mix-blend-mode:multiply">
<path id="Vector_3" d="M29.4554 2.45703C29.2097 2.45703 28.9947 2.45703 28.749 2.45703C42.5399 2.82561 53.6279 14.1287 53.6279 28.0118C53.6279 41.8949 42.1713 53.5973 28.0426 53.5973C13.9138 53.5973 2.85647 42.5706 2.48789 28.749C2.48789 28.9947 2.48789 29.2097 2.48789 29.4554C2.48789 44.3521 14.5895 56.4538 29.4861 56.4538C44.3828 56.4538 56.4844 44.3521 56.4844 29.4554C56.4844 14.5587 44.3828 2.45703 29.4554 2.45703Z" fill="#C0C0C0"/>
</g>
<g id="Group_4" style="mix-blend-mode:multiply" opacity="0.4">
<path id="Vector_4" d="M29.4554 0C13.2073 0 -7.62939e-06 13.2074 -7.62939e-06 29.4555C-7.62939e-06 45.7037 13.2073 58.9111 29.4554 58.9111C45.7035 58.9111 58.9109 45.7037 58.9109 29.4555C58.9109 13.2074 45.7342 0 29.4554 0ZM29.4554 57.2832C14.0981 57.2832 1.62787 44.8437 1.62787 29.4555C1.62787 14.0674 14.0981 1.62789 29.4554 1.62789C44.8128 1.62789 57.283 14.0981 57.283 29.4555C57.283 44.813 44.8128 57.2832 29.4554 57.2832Z" fill="#A9A9A9"/>
</g>
<g id="Vector_5" style="mix-blend-mode:multiply">
<path d="M11.6409 11.5488C10.3509 12.7467 9.09156 14.2825 9.30657 15.9411C9.55228 17.9683 11.948 19.289 14.1595 19.4118C16.371 19.5347 18.5517 18.7976 20.7017 18.3061C25.8311 17.2004 32.0662 18.0604 34.8305 22.1762C35.8441 23.6812 36.5812 25.7084 38.4548 26.0463C39.2841 26.1998 40.1749 25.9234 40.912 25.5548C44.9664 23.5584 46.41 18.5825 45.2428 14.4975C43.4921 8.44664 36.7963 5.03729 30.5304 3.83941C23.9268 2.58011 16.0638 7.37162 11.6409 11.4874V11.5488Z" fill="#D3D3D3"/>
</g>
<g id="Group_5" style="mix-blend-mode:multiply">
<path id="Vector_6" d="M51.7543 18.8588C52.2765 22.5446 53.1979 25.954 52.8908 29.7319C52.6143 33.5406 51.3858 37.257 49.42 40.5128C47.3928 43.8915 44.3214 46.9322 41.0963 49.1437C37.0727 51.8773 32.4962 53.2902 27.889 54.7952C27.5511 54.8874 27.5818 55.471 27.9811 55.4402C32.9569 54.8874 37.9327 52.9523 42.3249 50.5873C46.41 48.4065 49.42 45.5501 51.6008 41.465C53.5051 37.8406 54.5494 33.7863 54.6722 29.7012C54.7644 26.0768 54.2115 21.6846 51.8772 18.7974C51.8465 18.736 51.785 18.7974 51.785 18.8588H51.7543Z" fill="#C0C0C0"/>
</g>
<g id="Group_6" style="mix-blend-mode:multiply">
<path id="Vector_7" d="M27.9811 4.05442C26.384 3.96228 24.7561 4.63801 23.2203 5.06801C21.5925 5.55945 20.026 6.14303 18.4903 6.81876C15.7874 7.98593 13.3609 9.67524 11.2723 11.7331C9.24513 13.7296 7.55582 16.1254 6.2658 18.6747C5.06793 21.0397 3.56291 23.9577 4.3922 26.6298C4.57649 27.2134 5.40579 27.5513 5.86651 27.0291C7.46368 25.0634 7.80154 22.4833 8.93798 20.2412C10.1359 17.8147 11.7023 15.6032 13.5759 13.6375C15.5417 11.5796 17.7531 9.76745 20.2746 8.47845C23.7385 6.57306 28.0427 6.02261 31.6586 7.61577C31.8729 7.7079 32.4962 7.83076 32.3131 7.15503C31.9824 5.95246 30.2552 4.23831 27.9811 4.05442V4.05442Z" fill="#A9A9A9"/>
</g>
</g>
</svg>
