<?xml version="1.0" encoding="UTF-8" standalone="no" ?>
<!DOCTYPE svg PUBLIC "-//W3C//DTD SVG 1.1//EN" "http://www.w3.org/Graphics/SVG/1.1/DTD/svg11.dtd">
<svg xmlns="http://www.w3.org/2000/svg" xmlns:xlink="http://www.w3.org/1999/xlink" version="1.1" width="1080" height="1080" viewBox="0 0 1080 1080" xml:space="preserve">
<desc>Created with Fabric.js 5.2.4</desc>
<defs>
</defs>
<g transform="matrix(1 0 0 1 540 540)" id="7788af41-2709-4c49-b9a4-0ce80381a665"  >
</g>
<g transform="matrix(1 0 0 1 540 540)" id="54a6c7de-1fcf-49ed-85b5-4e11d065f75c"  >
<rect style="stroke: none; stroke-width: 1; stroke-dasharray: none; stroke-linecap: butt; stroke-dashoffset: 0; stroke-linejoin: miter; stroke-miterlimit: 4; fill: rgb(255,255,255); fill-rule: nonzero; opacity: 1; visibility: hidden;" vector-effect="non-scaling-stroke"  x="-540" y="-540" rx="0" ry="0" width="1080" height="1080" />
</g>
<g transform="matrix(2.83 0 0 2.83 539.12 534.18)"  >
<rect style="stroke: none; stroke-width: 1; stroke-dasharray: none; stroke-linecap: butt; stroke-dashoffset: 0; stroke-linejoin: miter; stroke-miterlimit: 4; fill: rgb(15,68,117); fill-rule: nonzero; opacity: 1;" vector-effect="non-scaling-stroke"  x="-190.5" y="-33" rx="20" ry="20" width="381" height="66" />
</g>
<g transform="matrix(2.83 0 0 2.83 539.12 534.18)"  >
<rect style="stroke: none; stroke-width: 1; stroke-dasharray: none; stroke-linecap: butt; stroke-dashoffset: 0; stroke-linejoin: miter; stroke-miterlimit: 4; fill: rgb(17,70,119); fill-rule: nonzero; opacity: 1;" vector-effect="non-scaling-stroke"  x="-186.5" y="-29" rx="20" ry="20" width="373" height="58" />
</g>
<g transform="matrix(2.83 0 0 2.83 537.43 479.07)"  >
<path style="stroke: none; stroke-width: 1; stroke-dasharray: none; stroke-linecap: butt; stroke-dashoffset: 0; stroke-linejoin: miter; stroke-miterlimit: 4; fill: rgb(16,65,111); fill-rule: nonzero; opacity: 1;" vector-effect="non-scaling-stroke"  transform=" translate(-189.9, -13.52)" d="M 14.3774 13.5154 C 14.3774 8.71754 18.2668 4.82812 23.0646 4.82812 L 356.738 4.82813 C 361.535 4.82813 365.425 8.71744 365.425 13.5151 C 365.425 18.441 361.391 22.3854 356.468 22.2118 C 329.407 21.2572 246.886 18.519 190.438 18.5111 C 133.605 18.5031 50.5012 21.2554 23.3324 22.2123 C 18.4096 22.3857 14.3774 18.4412 14.3774 13.5154 Z" stroke-linecap="round" />
</g>
<g transform="matrix(2.83 0 0 2.83 69.52 471.21)"  >
<path style="stroke: none; stroke-width: 1; stroke-dasharray: none; stroke-linecap: butt; stroke-dashoffset: 0; stroke-linejoin: miter; stroke-miterlimit: 4; fill: rgb(18,80,136); fill-rule: nonzero; opacity: 1;" vector-effect="non-scaling-stroke"  transform=" translate(-24.57, -10.75)" d="M 31.9164 6.65084 C 34.2107 8.46892 32.2099 12.1415 28.7791 14.0953 C 25.3483 16.0492 19.6277 16.7741 17.3334 14.956 C 15.0392 13.1379 16.4438 9.80489 20.4707 7.51149 C 24.4977 5.21809 29.6221 4.83277 31.9164 6.65084 Z" stroke-linecap="round" />
</g>
</svg>