<svg width="48" height="32" viewBox="0 0 48 32" fill="none" xmlns="http://www.w3.org/2000/svg">
<path d="M9.26801 27.7558C10.7349 25.9333 14.1734 25.0873 15.8912 23.8143C19.3068 21.2784 13.8174 15.8979 13.8174 15.8979C10.0054 14.7145 5.09861 10.813 1.52562 9.08921C2.09032 11.7982 2.25478 14.3679 0.0272448 15.7918C0.791215 18.0805 2.79093 17.917 4.09405 19.7148C1.83862 22.3487 1.35407 31.2595 6.40876 28.1908C6.05155 29.3673 5.84203 30.5836 5.78503 31.8118C7.92461 31.5681 8.02068 29.298 9.26801 27.7558Z" fill="#40D60D"/>
<path d="M1.82876 10.9587C3.13514 11.9241 4.56188 12.715 6.07285 13.3113C7.22687 13.596 8.40044 13.7945 9.58388 13.9052C6.78106 12.2801 3.86747 10.2152 1.52551 9.08921C1.65831 9.70681 1.75952 10.3308 1.82876 10.9587Z" fill="#2FBC06"/>
<path d="M9.26791 27.7562C10.2059 26.5845 13.3534 25.1391 14.9421 24.4063C13.9386 22.4081 11.8456 20.6417 11.7219 18.5219C11.3106 18.5449 10.898 18.5222 10.4918 18.454L10.3518 18.4543C9.92537 18.5874 9.46864 18.5882 9.04178 18.4566C6.11045 17.6916 2.48061 17.7879 0.166992 15.7019L0.0371434 15.7922C0.650334 17.6311 2.04079 17.8887 3.28247 18.8565C4.5528 19.0443 5.82291 19.1121 7.07345 19.42C7.66216 19.5547 8.17336 19.9176 8.49484 20.4288C8.81633 20.9401 8.92182 21.558 8.78818 22.147C7.96219 24.4584 6.03435 25.7118 4.39737 27.4546L3.48912 28.4562C4.12006 28.9951 5.08012 29.0334 6.41869 28.2111C6.06148 29.3876 5.85196 30.604 5.79497 31.8322C7.92451 31.5685 8.02059 29.2983 9.26791 27.7562Z" fill="#2FBC06"/>
<path d="M6.9043 31.3901C7.53839 27.979 10.4245 25.7439 13.6617 24.1383C15.0605 23.4359 15.2197 22.9656 16.7195 22.843C17.7161 20.9113 15.8315 18.2246 14.6591 16.8466C13.4896 17.1686 10.5603 17.5537 10.2204 17.5943C6.89412 17.8029 3.58478 16.9773 0.746276 15.2307C0.530635 15.4524 0.289256 15.6476 0.0272816 15.812C0.329613 16.7084 0.959578 17.4574 1.79092 17.9089C4.29225 18.6746 6.96215 18.6099 9.44365 19.4756C9.87284 19.5859 10.2613 19.8172 10.5626 20.1421C10.8639 20.467 11.0655 20.8717 11.1432 21.3079C11.2209 21.7442 11.1715 22.1936 11.0008 22.6025C10.8302 23.0115 10.5456 23.3627 10.1808 23.6144C9.82132 23.895 5.41777 27.6226 3.94969 28.7352C4.37244 28.8409 4.81375 28.8486 5.23994 28.7578C5.66613 28.6669 6.06593 28.4799 6.4088 28.2109C6.05158 29.3874 5.84206 30.6038 5.78507 31.832C6.18857 31.778 6.57277 31.6263 6.9043 31.3901Z" fill="#198900"/>
<path d="M28.6202 11.7125C28.6202 11.7125 33.4911 18.014 37.5223 18.697C40.1431 19.1525 47.1862 20.9103 47.3497 17.16C47.4748 14.3598 43.495 14.4467 43.1128 13.2173C42.2782 10.5188 45.5373 10.0031 44.8831 7.60426C43.7055 3.22629 38.751 6.39488 39.8699 0.0129327C35.3451 3.01078 33.3256 9.05429 28.6202 11.7125Z" fill="#40D60D"/>
<path d="M40.3741 13.9619C40.4421 14.0604 40.5024 14.1639 40.5546 14.2716C40.8993 14.5208 41.2682 14.7346 41.6557 14.9097L43.5472 15.7564C44.7866 16.2714 46.0564 16.71 47.3495 17.0698C47.3448 14.3698 43.495 14.4465 43.1128 13.2271C43.0509 13.0083 43.0103 12.784 42.9917 12.5573C42.0933 12.9756 41.2194 13.4446 40.3741 13.9619Z" fill="#2FBC06"/>
<path d="M28.6202 11.7126C28.6202 11.7126 28.9609 12.152 29.5221 12.801C29.7167 12.7587 29.9136 12.7283 30.1119 12.71C32.6512 12.3056 41.4699 11.5603 43.6983 10.5965C44.3867 9.71526 45.2554 8.96375 44.8831 7.5944C44.3396 5.59534 42.9888 5.15769 41.798 4.66975C38.3813 7.36829 34.462 9.36027 30.2681 10.5298C29.7582 10.9762 29.2063 11.3723 28.6202 11.7126Z" fill="#2FBC06"/>
<path d="M42.5185 4.98846L42.2583 4.87891C41.702 5.53752 41.0873 6.14439 40.4215 6.6921C37.6182 9.63979 34.497 12.2679 31.1151 14.5283C32.8881 16.3052 35.3117 18.331 37.5023 18.7072C39.913 19.123 46.0557 20.6424 47.161 17.9704C45.4521 17.9369 43.7545 17.6844 42.1097 17.2192C36.9094 17.0182 34.8319 12.7218 35.3809 12.1308C35.4608 12.0407 41.5694 11.2401 41.6592 11.12C38.7772 10.005 40.6015 6.68179 42.5185 4.98846Z" fill="#198900"/>
<path d="M33.9994 17.0233C35.038 17.8329 36.24 18.4074 37.5223 18.7072C39.693 19.0834 44.9152 20.3543 46.7222 18.6312L46.3922 18.6318C43.3924 18.757 38.472 18.5455 35.6783 16.4104L33.9994 17.0233Z" fill="#2FBC06"/>
<path d="M12.1267 21.3012C13.635 26.0886 20.0589 28.3375 26.4754 26.2764C32.8918 24.2152 36.8723 18.7283 35.364 13.9409C33.8557 9.15355 27.4319 6.95469 21.0153 8.96582C14.5988 10.977 10.5885 16.5639 12.1267 21.3012Z" fill="#40D60D"/>
<path d="M34.1116 12.5231C33.9597 13.7545 33.5297 14.9352 32.8541 15.9759C32.1785 17.0165 31.275 17.8899 30.212 18.5298C29.3815 19.2606 28.4817 19.9085 27.5253 20.4645C23.2297 22.9819 15.8528 24.7547 12.1069 21.3912C13.6552 26.1385 20.049 28.3775 26.4456 26.3664C32.8421 24.3553 36.8425 18.8183 35.3342 14.031C35.0922 13.2661 34.7187 12.5494 34.2305 11.9129C34.2306 11.9729 34.2307 12.0228 34.2308 12.0728C34.2309 12.1228 34.1112 12.3231 34.1116 12.5231Z" fill="#33B204"/>
<path d="M13.3399 23.1088C21.7038 31.0944 35.93 23.1297 35.0253 14.6512C33.8916 18.2932 30.5165 21.1391 27.199 22.6048C23.1322 24.4319 17.4243 25.6618 13.3399 23.1088Z" fill="#198900"/>
</svg>
