<svg width="99" height="76" viewBox="0 0 99 76" fill="none" xmlns="http://www.w3.org/2000/svg">
<path d="M44.0697 8.34202C46.0643 5.05196 49.0919 2.52033 52.6767 1.14516C56.2615 -0.230017 60.2001 -0.370735 63.8733 0.745113C67.5464 1.86096 70.7459 4.17009 72.9686 7.30947C75.1913 10.4489 76.3112 14.2404 76.1522 18.0881C83.9323 15.716 92.2109 18.875 96.0937 25.4006C100.539 32.8623 98.3208 43.2022 90.5552 48.5432C94.2748 51.8953 95.2396 56.8034 93.5052 59.6816C91.3277 63.2882 84.3346 64.6337 79.1109 60.0268C78.8952 61.3343 77.4057 69.5623 70.6137 73.2536C63.0085 77.3837 51.5758 74.2979 44.9471 64.5518C41.1751 69.6851 34.9225 70.7469 31.4215 68.208C28.1538 65.8388 28.2792 61.0564 28.2996 60.5503C13.5234 63.8878 0.607077 53.2613 0.0240771 41.9298C-0.465643 32.3534 7.84794 22.11 20.1376 20.3521C19.0445 14.4319 21.7204 8.48535 26.7255 5.56328C32.2581 2.33115 39.5282 3.4368 44.0697 8.34202Z" fill="#F4F4F4"/>
<path d="M90.2092 55.9153C93.9152 58.3296 94.8852 61.8583 93.1542 63.9355C90.9847 66.5351 84.0056 67.5042 78.8126 64.182C78.5948 65.1215 77.1107 71.054 70.3494 73.7126C62.7691 76.6894 51.3754 74.4647 44.7768 67.4452C41.0157 71.1425 34.7859 71.903 31.2978 70.0744C28.0392 68.3743 28.1611 64.9235 28.1902 64.557C13.4681 66.9691 0.599069 59.3071 0.0182035 51.15C-0.0711014 49.7758 0.168668 48.4009 0.72686 47.0862C5.59161 52.0601 15.0655 55.3823 25.4659 53.6822C25.4398 54.0466 25.3149 57.4974 28.5736 59.1996C32.0588 61.0282 38.2914 60.2656 42.0555 56.5684C48.6512 63.5879 60.0478 65.8125 67.6135 62.8379C74.3748 60.1771 75.8618 54.2447 76.0797 53.3051C81.2726 56.6274 88.2517 55.6583 90.4183 53.0586C92.1609 50.9814 91.1822 47.4527 87.4734 45.0406C90.8809 43.3561 93.3805 40.8687 94.5483 38C94.9827 38.3953 95.3787 38.812 95.7333 39.2472C100.174 44.615 97.9638 52.0706 90.2092 55.9153Z" fill="#D1D1D1"/>
</svg>
