<svg width="29" height="30" viewBox="0 0 29 30" fill="none" xmlns="http://www.w3.org/2000/svg">
<path fill-rule="evenodd" clip-rule="evenodd" d="M24.012 3.94234C28.7748 7.56061 29.6954 15.2226 25.9435 21.7231C22.1897 28.2235 15.0943 31.2582 9.57846 28.9427C8.1496 28.3421 6.86004 27.6964 5.34082 26.8191L12.6979 14.078L20.0549 1.33691C21.5722 2.2123 22.777 3.00483 24.012 3.94234Z" fill="url(#paint0_linear_2174_1672)"/>
<path fill-rule="evenodd" clip-rule="evenodd" d="M23.8538 5.66643C27.1483 8.16646 28.2627 13.7256 26.3105 18.5732C24.3565 23.4208 20.0284 25.8361 16.3424 24.3056C15.3879 23.9084 14.5182 23.4754 13.4866 22.8786L17.3157 13.3793L21.1448 3.87988C22.1765 4.47665 23.001 5.01884 23.8538 5.66643Z" fill="url(#paint1_radial_2174_1672)"/>
<path fill-rule="evenodd" clip-rule="evenodd" d="M24.3322 5.39884C28.3929 8.48999 29.289 15.1561 26.2392 20.8678C23.4041 26.1785 18.0916 28.9157 13.6054 27.7071C10.7666 28.494 7.84102 28.2624 5.33911 26.8185C6.85833 27.6958 8.14789 28.3415 9.57675 28.9421C15.0907 31.2576 22.188 28.2248 25.9418 21.7225C29.6956 15.222 28.775 7.55812 24.0103 3.94174C22.781 3.00799 21.5818 2.21732 20.072 1.3457C21.5705 2.21544 22.7678 3.43534 23.6432 4.88867C23.8748 5.05434 24.1025 5.22376 24.3322 5.39884Z" fill="url(#paint2_radial_2174_1672)"/>
<path fill-rule="evenodd" clip-rule="evenodd" d="M20.8757 1.92502C26.2805 5.04629 27.4759 13.0961 23.5432 19.9072C19.6106 26.7182 12.0409 29.7096 6.63604 26.5884C1.23124 23.4671 0.0357744 15.4173 3.96843 8.60622C7.90108 1.79514 15.4709 -1.19625 20.8757 1.92502Z" fill="#FCCE3A"/>
<path fill-rule="evenodd" clip-rule="evenodd" d="M20.0531 1.33374C25.7666 4.63197 27.1051 13.0112 23.0426 20.0482C18.98 27.0852 11.0545 30.1161 5.33902 26.8179C-0.374524 23.5196 -1.71299 15.1404 2.34956 8.10342C6.41399 1.06455 14.3395 -1.96449 20.0531 1.33374Z" fill="url(#paint3_radial_2174_1672)"/>
<path fill-rule="evenodd" clip-rule="evenodd" d="M14.1589 24.3656C14.0836 24.6875 13.7898 24.9755 13.3888 25.0828C13.0425 25.1751 12.6999 25.1111 12.4664 24.9379C10.7589 25.3407 9.02512 25.224 7.45319 24.4898C2.91812 22.3738 1.44786 15.9317 4.16815 10.0996C5.65348 6.91618 8.08198 4.5724 10.7176 3.44475C10.7383 3.06824 11.0601 2.71057 11.5232 2.58632C11.9506 2.47148 12.3723 2.59008 12.5982 2.8574C13.2044 2.73692 13.8143 2.68234 14.4168 2.6974C14.5467 2.48279 14.8459 2.36982 15.1585 2.43571C15.4145 2.4903 15.614 2.65033 15.695 2.84235C16.2447 2.95342 16.7831 3.12851 17.3046 3.37136C21.8397 5.48735 23.3099 11.9294 20.5896 17.7616C19.1269 20.8998 16.7493 23.2191 14.1589 24.3656Z" fill="#FFFCE4"/>
<path fill-rule="evenodd" clip-rule="evenodd" d="M18.0991 3.92777C22.3725 6.3958 23.2648 12.8492 20.0927 18.3444C16.9206 23.8395 10.8852 26.2944 6.61178 23.8264C2.33839 21.3583 1.44602 14.9049 4.61812 9.40977C7.7921 3.9146 13.8276 1.45975 18.0991 3.92777Z" fill="url(#paint4_radial_2174_1672)"/>
<path opacity="0.5" fill-rule="evenodd" clip-rule="evenodd" d="M6.94869 11.5881C9.95136 6.38476 15.6668 4.06168 19.7124 6.39793C20.2922 6.73302 20.808 7.14529 21.2542 7.62158C20.6104 6.06094 19.5486 4.76575 18.1009 3.9299C13.8276 1.46375 7.79207 3.91672 4.61997 9.41189C1.44787 14.9071 2.34018 21.3605 6.61358 23.8285C6.92232 24.0073 7.24238 24.1598 7.56807 24.2878C4.64635 21.5054 4.29052 16.191 6.94869 11.5881Z" fill="url(#paint5_radial_2174_1672)"/>
<path fill-rule="evenodd" clip-rule="evenodd" d="M6.02815 10.2241C8.93105 5.19581 14.2341 2.71272 18.3871 4.21876C18.5188 4.26582 18.6506 4.31852 18.7805 4.375C18.6676 4.29216 18.5527 4.21123 18.436 4.13405C18.3268 4.06251 18.2139 3.99286 18.1009 3.92697C13.8276 1.46082 7.79207 3.91379 4.61997 9.40896C1.44787 14.9041 2.34018 21.3575 6.61358 23.8255C6.72841 23.8914 6.84329 23.9536 6.96001 24.0138C7.08614 24.0778 7.21226 24.1362 7.34027 24.1926C7.22732 24.1079 7.11626 24.0213 7.00895 23.9291C3.62413 21.0864 3.12337 15.2543 6.02815 10.2241Z" fill="url(#paint6_linear_2174_1672)"/>
<path fill-rule="evenodd" clip-rule="evenodd" d="M15.4013 3.79331C16.4292 3.73871 17.4382 3.87425 18.3871 4.21876C18.5188 4.26582 18.6506 4.31852 18.7805 4.375C18.6676 4.29216 18.5527 4.21123 18.436 4.13405C18.3268 4.06251 18.2139 3.99286 18.1009 3.92697C13.8276 1.46082 7.79207 3.91379 4.61997 9.40896C1.44787 14.9041 2.34018 21.3575 6.61358 23.8255C6.72841 23.8914 6.84329 23.9536 6.96001 24.0138C7.08614 24.0778 7.21226 24.1362 7.34027 24.1926C7.22732 24.1079 7.11626 24.0213 7.00895 23.9291C6.48749 23.4904 6.03567 22.9822 5.65351 22.4155C2.50212 19.7705 1.98062 14.3224 4.61055 9.61415C7.11246 5.12991 11.6494 2.79744 15.4013 3.79331Z" fill="url(#paint7_radial_2174_1672)"/>
<path fill-rule="evenodd" clip-rule="evenodd" d="M19.0479 6.31808C11.4763 2.8749 4.40352 12.7433 5.44457 19.1138C9.63325 17.5513 16.6006 14.1194 19.0479 6.31808Z" fill="url(#paint8_radial_2174_1672)"/>
<defs>
<linearGradient id="paint0_linear_2174_1672" x1="11.9627" y1="30.6426" x2="26.6758" y2="5.15868" gradientUnits="userSpaceOnUse">
<stop stop-color="#E86F0C"/>
<stop offset="0.6877" stop-color="#FC940D"/>
<stop offset="1" stop-color="#E86F0C"/>
</linearGradient>
<radialGradient id="paint1_radial_2174_1672" cx="0" cy="0" r="1" gradientUnits="userSpaceOnUse" gradientTransform="translate(17.3488 13.6268) scale(13.8166 13.8166)">
<stop stop-color="#FFF369"/>
<stop offset="0.0001" stop-color="#FFF369"/>
<stop offset="0.28551" stop-color="#FAEF67"/>
<stop offset="0.514181" stop-color="#EDE262"/>
<stop offset="0.8271" stop-color="#D6CC58"/>
</radialGradient>
<radialGradient id="paint2_radial_2174_1672" cx="0" cy="0" r="1" gradientUnits="userSpaceOnUse" gradientTransform="translate(10.1037 12.6871) scale(20.0518 20.0518)">
<stop offset="0.5149" stop-color="white"/>
<stop offset="0.679" stop-color="#E6DDC3"/>
<stop offset="1" stop-color="#B09444"/>
</radialGradient>
<radialGradient id="paint3_radial_2174_1672" cx="0" cy="0" r="1" gradientUnits="userSpaceOnUse" gradientTransform="translate(7.42322 0.811336) scale(25.7129 25.7128)">
<stop stop-color="#FCF80D"/>
<stop offset="1" stop-color="#FC9C0D"/>
</radialGradient>
<radialGradient id="paint4_radial_2174_1672" cx="0" cy="0" r="1" gradientUnits="userSpaceOnUse" gradientTransform="translate(0.0262129 -1.73965) scale(31.4187 31.4187)">
<stop offset="0.47" stop-color="#FCF80D"/>
<stop offset="1" stop-color="#F78A0C"/>
</radialGradient>
<radialGradient id="paint5_radial_2174_1672" cx="0" cy="0" r="1" gradientUnits="userSpaceOnUse" gradientTransform="translate(17.545 16.2727) scale(18.1516 18.1516)">
<stop offset="0.5149" stop-color="white"/>
<stop offset="0.6851" stop-color="#FFE2C3"/>
<stop offset="1" stop-color="#FFA84B"/>
</radialGradient>
<linearGradient id="paint6_linear_2174_1672" x1="3.09491" y1="21.7971" x2="14.4098" y2="2.19934" gradientUnits="userSpaceOnUse">
<stop stop-color="#FC940D"/>
<stop offset="1" stop-color="#E86F0C"/>
</linearGradient>
<radialGradient id="paint7_radial_2174_1672" cx="0" cy="0" r="1" gradientUnits="userSpaceOnUse" gradientTransform="translate(17.8677 17.0384) scale(17.5966 17.5966)">
<stop offset="0.5149" stop-color="white"/>
<stop offset="0.679" stop-color="#E6DDC3"/>
<stop offset="1" stop-color="#B09444"/>
</radialGradient>
<radialGradient id="paint8_radial_2174_1672" cx="0" cy="0" r="1" gradientUnits="userSpaceOnUse" gradientTransform="translate(-0.589958 -1.38251) scale(23.3987 23.3987)">
<stop stop-color="#FFF369"/>
<stop offset="0.245" stop-color="#FEF369"/>
<stop offset="0.53" stop-color="#FAEF67"/>
<stop offset="0.88" stop-color="#EDE262"/>
</radialGradient>
</defs>
</svg>
