<svg width="40" height="38" viewBox="0 0 40 38" fill="none" xmlns="http://www.w3.org/2000/svg">
<path d="M29.3544 37.8747C28.5732 37.8743 27.804 37.682 27.1145 37.3147L20.6345 33.9147C20.49 33.8367 20.3286 33.7955 20.1644 33.7947C19.9969 33.7939 19.8319 33.8351 19.6844 33.9147L13.2145 37.3147C12.4187 37.739 11.5196 37.9311 10.6199 37.869C9.72018 37.8068 8.85607 37.493 8.12617 36.9633C7.39626 36.4336 6.82998 35.7094 6.49195 34.8732C6.15392 34.0371 6.05777 33.1228 6.21445 32.2347L7.45445 25.0347C7.48461 24.87 7.47295 24.7004 7.42054 24.5414C7.36812 24.3824 7.27663 24.2391 7.15445 24.1247L1.91445 19.0147C1.27378 18.3866 0.821154 17.5921 0.607511 16.7207C0.393869 15.8493 0.427692 14.9355 0.705175 14.0823C0.982658 13.229 1.49278 12.4702 2.17814 11.8911C2.86349 11.3121 3.69686 10.9358 4.58445 10.8047L11.8244 9.8047C11.9892 9.78272 12.1459 9.72 12.2804 9.62222C12.4148 9.52445 12.5228 9.3947 12.5944 9.24471L15.8344 2.68471C16.2313 1.87897 16.8458 1.20044 17.6084 0.72596C18.3711 0.251479 19.2513 0 20.1495 0C21.0476 0 21.9278 0.251479 22.6905 0.72596C23.4531 1.20044 24.0676 1.87897 24.4645 2.68471L27.7045 9.24471C27.7761 9.3947 27.8841 9.52445 28.0185 9.62222C28.153 9.72 28.3097 9.78272 28.4745 9.8047L35.7144 10.8047C36.6041 10.9323 37.4403 11.3067 38.128 11.8853C38.8158 12.4639 39.3277 13.2237 39.6057 14.0784C39.8836 14.9331 39.9166 15.8486 39.7007 16.7211C39.4849 17.5936 39.0289 18.3882 38.3844 19.0147L33.1544 24.1347C33.034 24.2502 32.9444 24.3939 32.8938 24.5528C32.8431 24.7118 32.8331 24.8809 32.8645 25.0447L34.0944 32.2447C34.2138 32.936 34.1808 33.6451 33.9978 34.3223C33.8147 34.9996 33.486 35.6287 33.0346 36.1658C32.5833 36.7029 32.0201 37.135 31.3844 37.4319C30.7488 37.7287 30.056 37.8833 29.3544 37.8847V37.8747Z" fill="url(#paint0_radial_4001_4745)"/>
<path d="M22.7745 3.47496L25.9845 10.035C26.1943 10.4588 26.5044 10.8251 26.8877 11.1022C27.2711 11.3792 27.7161 11.5587 28.1845 11.625L35.4245 12.685C35.9678 12.7603 36.4789 12.9871 36.8993 13.3395C37.3197 13.6918 37.6323 14.1555 37.8013 14.6773C37.9704 15.1991 37.9891 15.758 37.8552 16.2899C37.7214 16.8219 37.4404 17.3053 37.0445 17.685L31.8045 22.785C31.4653 23.1165 31.2116 23.5253 31.0653 23.9765C30.919 24.4276 30.8844 24.9075 30.9645 25.375L32.1945 32.575C32.2829 33.1079 32.2213 33.655 32.0164 34.1548C31.8116 34.6547 31.4716 35.0878 31.0346 35.4054C30.5976 35.723 30.0809 35.9127 29.5422 35.9533C29.0034 35.9938 28.4641 35.8836 27.9845 35.635L21.5045 32.235C21.0872 32.0134 20.6219 31.8976 20.1495 31.8976C19.677 31.8976 19.2118 32.0134 18.7945 32.235L12.3145 35.635C11.8326 35.8909 11.2885 36.0062 10.7443 35.9678C10.2 35.9293 9.67757 35.7386 9.23651 35.4174C8.79544 35.0963 8.45355 34.6576 8.24985 34.1515C8.04614 33.6453 7.98883 33.0921 8.08446 32.555L9.31446 25.355C9.39714 24.8875 9.36378 24.4068 9.21732 23.9553C9.07086 23.5037 8.81577 23.0949 8.47445 22.765L3.24446 17.665C2.84874 17.286 2.56763 16.8033 2.43327 16.2721C2.29891 15.7409 2.31672 15.1826 2.48465 14.6611C2.65259 14.1395 2.96389 13.6758 3.38295 13.3228C3.80202 12.9698 4.31196 12.7418 4.85446 12.665L12.0945 11.605C12.5633 11.5403 13.0091 11.3616 13.3927 11.0843C13.7763 10.8071 14.086 10.4399 14.2945 10.015L17.5345 3.45496C17.7744 2.96333 18.1481 2.54929 18.6126 2.26034C19.0771 1.97138 19.6137 1.81922 20.1607 1.82131C20.7078 1.8234 21.2432 1.97965 21.7055 2.27214C22.1678 2.56463 22.5383 2.98151 22.7745 3.47496Z" fill="url(#paint1_radial_4001_4745)"/>
<path style="mix-blend-mode:multiply" d="M29.3544 34.465C29.1242 34.4608 28.8981 34.4026 28.6945 34.295L22.2244 30.895C21.5875 30.5604 20.8789 30.3856 20.1594 30.3856C19.44 30.3856 18.7313 30.5604 18.0944 30.895L11.6244 34.295C11.3396 34.4506 11.009 34.5008 10.6907 34.4368C10.3725 34.3728 10.087 34.1987 9.88445 33.945C9.75231 33.7916 9.65667 33.6102 9.60471 33.4144C9.55275 33.2187 9.54582 33.0138 9.58444 32.815L10.8244 25.605C10.9458 24.8968 10.8926 24.1696 10.6696 23.4866C10.4466 22.8035 10.0604 22.1851 9.54444 21.685L4.30444 16.575C4.1167 16.3925 3.98392 16.1609 3.92117 15.9067C3.85842 15.6525 3.86822 15.3858 3.94946 15.1369C4.0307 14.8879 4.18012 14.6668 4.38075 14.4985C4.58138 14.3303 4.82517 14.2217 5.08444 14.185L12.3244 13.185C13.0364 13.0809 13.7124 12.8053 14.2942 12.382C14.8761 11.9587 15.3463 11.4004 15.6644 10.755L18.9044 4.135C19.0201 3.90098 19.199 3.70396 19.4207 3.56622C19.6425 3.42847 19.8984 3.35547 20.1594 3.35547C20.4205 3.35547 20.6764 3.42847 20.8981 3.56622C21.1199 3.70396 21.2987 3.90098 21.4144 4.135L24.6544 10.695C24.9711 11.3405 25.4395 11.8996 26.0194 12.3245C26.5993 12.7495 27.2736 13.0275 27.9844 13.135L35.2245 14.135C35.4837 14.1716 35.7275 14.2803 35.9281 14.4485C36.1288 14.6168 36.2782 14.8379 36.3594 15.0869C36.4407 15.3358 36.4505 15.6025 36.3877 15.8567C36.325 16.1109 36.1922 16.3425 36.0044 16.525L30.7644 21.635C30.2485 22.1351 29.8623 22.7535 29.6393 23.4366C29.4163 24.1196 29.3631 24.8468 29.4844 25.555L30.7245 32.765C30.7631 32.9638 30.7561 33.1687 30.7042 33.3644C30.6522 33.5602 30.5566 33.7416 30.4244 33.895C30.2978 34.0616 30.1366 34.1988 29.9519 34.2972C29.7672 34.3956 29.5634 34.4528 29.3544 34.465Z" fill="url(#paint2_radial_4001_4745)"/>
<path opacity="0.2" d="M23.9844 27.535C22.8041 26.9174 21.4917 26.5947 20.1594 26.5947C18.8272 26.5947 17.5148 26.9174 16.3344 27.535L14.1444 28.685L14.5544 26.245C14.7818 24.9312 14.6858 23.5817 14.2746 22.3132C13.8634 21.0448 13.1494 19.8956 12.1944 18.965L10.4244 17.235L12.8744 16.885C14.1932 16.6915 15.4454 16.181 16.5235 15.3972C17.6017 14.6135 18.4736 13.5798 19.0644 12.385L20.1644 10.165L21.2544 12.385C21.8476 13.5801 22.7215 14.6136 23.8012 15.3973C24.8809 16.181 26.1344 16.6914 27.4544 16.885L29.9044 17.235L28.1244 18.965C27.1695 19.8956 26.4555 21.0448 26.0443 22.3132C25.6331 23.5817 25.5371 24.9312 25.7644 26.245L26.1844 28.685L23.9844 27.535Z" fill="white"/>
<path d="M17.6445 5.76549C16.7145 7.90549 16.5445 10.7655 14.5645 12.3155C12.3445 14.0455 17.7745 16.0555 18.4545 10.4555C18.6645 8.68549 18.4545 6.45549 19.7145 4.90549C21.9845 2.36549 19.1745 2.21549 17.6445 5.76549Z" fill="white"/>
<path opacity="0.5" d="M11.1544 33.3254C10.1544 32.1954 10.1544 30.4354 10.5044 28.9354C10.8544 27.4354 11.4145 25.9354 11.1745 24.4054C10.8445 22.4054 9.17445 20.9254 7.73445 19.5654C6.29445 18.2054 4.67445 16.5654 4.56445 14.5654C5.13445 16.3254 6.89445 17.2754 8.46445 18.2554C10.0345 19.2354 11.7045 20.3454 12.3045 22.0854C12.9045 23.8254 12.1745 25.8854 11.5245 27.6954C10.8745 29.5054 10.1944 31.6554 11.1544 33.3254Z" fill="white"/>
<path style="mix-blend-mode:multiply" d="M34.9845 15.1348C34.9845 16.8248 33.7945 18.2748 32.5445 19.4148C31.2945 20.5548 29.8745 21.6848 29.3745 23.3148C28.8045 25.1448 29.5545 27.0948 30.1445 28.9348C30.7345 30.7748 31.0845 32.9348 29.9045 34.4648C29.3234 34.4989 28.7415 34.4155 28.1934 34.2197C27.6453 34.0238 27.1423 33.7194 26.7145 33.3248C27.0019 33.3807 27.2977 33.3782 27.5842 33.3174C27.8706 33.2565 28.1419 33.1385 28.3817 32.9706C28.6216 32.8026 28.8252 32.5879 28.9803 32.3395C29.1354 32.0911 29.2388 31.814 29.2845 31.5248C29.4107 30.3419 29.1436 29.1505 28.5245 28.1348C27.911 27.1207 27.4906 26.0019 27.2845 24.8348C27.0945 22.6948 28.6345 20.8348 30.2845 19.4248C31.9345 18.0148 33.8545 16.9548 34.9845 15.1348Z" fill="url(#paint3_radial_4001_4745)"/>
<defs>
<radialGradient id="paint0_radial_4001_4745" cx="0" cy="0" r="1" gradientUnits="userSpaceOnUse" gradientTransform="translate(29.4745 31.1047) scale(28.25 28.25)">
<stop stop-color="#FF6A16"/>
<stop offset="0.99" stop-color="#FFA800"/>
</radialGradient>
<radialGradient id="paint1_radial_4001_4745" cx="0" cy="0" r="1" gradientUnits="userSpaceOnUse" gradientTransform="translate(28.5845 29.885) scale(25.5)">
<stop stop-color="#FF9416"/>
<stop offset="0.88" stop-color="#FFF303"/>
<stop offset="0.99" stop-color="#FFFF00"/>
</radialGradient>
<radialGradient id="paint2_radial_4001_4745" cx="0" cy="0" r="1" gradientUnits="userSpaceOnUse" gradientTransform="translate(40.0944 35.565) scale(24.03 24.03)">
<stop stop-color="#FF9416"/>
<stop offset="0.88" stop-color="#FFF303"/>
<stop offset="0.99" stop-color="#FFFF00"/>
</radialGradient>
<radialGradient id="paint3_radial_4001_4745" cx="0" cy="0" r="1" gradientUnits="userSpaceOnUse" gradientTransform="translate(30.8045 24.7748) scale(7.44 7.44)">
<stop stop-color="#FF9416"/>
<stop offset="0.88" stop-color="#FFF303"/>
<stop offset="0.99" stop-color="#FFFF00"/>
</radialGradient>
</defs>
</svg>
