<svg width="435" height="674" viewBox="0 0 435 674" fill="none" xmlns="http://www.w3.org/2000/svg">
<g style="mix-blend-mode:multiply">
<path d="M378.961 80.4104H330.222C309.108 32.6805 266.28 0 216.878 0C167.475 0 124.668 32.6584 103.555 80.3883H54.8365C40.2929 80.3883 26.3451 86.5353 16.0612 97.4769C5.77739 108.419 0 123.258 0 138.732V608.374C0 623.848 5.77739 638.688 16.0612 649.63C26.3451 660.571 40.2929 666.718 54.8365 666.718H378.961C393.504 666.718 407.452 660.571 417.736 649.63C428.02 638.688 433.797 623.848 433.797 608.374V138.754C433.797 123.281 428.02 108.441 417.736 97.499C407.452 86.5574 393.504 80.4104 378.961 80.4104Z" fill="#DBDBDB" fill-opacity="0.5"/>
</g>
<path d="M380.163 87.6926H331.425C310.311 39.9627 267.483 7.3042 218.101 7.3042C168.72 7.3042 125.892 39.9627 104.882 87.6926H56.0393C48.8364 87.6897 41.7034 89.1966 35.048 92.1274C28.3925 95.0582 22.3449 99.3553 17.2507 104.773C12.1565 110.191 8.11537 116.624 5.35829 123.704C2.6012 130.784 1.18213 138.373 1.18213 146.036V615.656C1.18213 631.13 6.95952 645.97 17.2434 656.912C27.5272 667.853 41.4751 674 56.0186 674H380.163C394.707 674 408.655 667.853 418.939 656.912C429.223 645.97 435 631.13 435 615.656V146.036C435 130.563 429.223 115.723 418.939 104.781C408.655 93.8395 394.707 87.6926 380.163 87.6926Z" fill="white"/>
</svg>
