<svg width="101" height="94" viewBox="0 0 101 94" fill="none" xmlns="http://www.w3.org/2000/svg">
<path opacity="0.43" d="M52.5003 93.3868C76.4163 93.3868 95.804 92.0191 95.804 90.3321C95.804 88.645 76.4163 87.2773 52.5003 87.2773C28.5843 87.2773 9.19653 88.645 9.19653 90.3321C9.19653 92.0191 28.5843 93.3868 52.5003 93.3868Z" fill="#1E374D"/>
<g opacity="0.5">
<path d="M83.1869 9.72229C83.0578 9.48766 82.3998 8.13416 83.1419 6.27461C83.3902 5.85481 83.5349 5.36927 83.5349 4.85145C83.5349 3.28323 82.2291 2 80.6328 2H19.0291C17.4328 2 16.127 3.28323 16.127 4.85145C16.127 5.30111 16.2358 5.72634 16.4264 6.10573L16.4195 6.10452C17.3589 8.24454 16.4195 9.7624 16.4195 9.7624L16.4379 9.75064C7.52648 18.5447 2 30.7603 2 44.2696C2 61.0442 10.5161 75.8298 23.4608 84.5389C26.9646 86.896 31.0969 88.1449 35.3199 88.1364L64.8284 88.0773C68.5732 88.0698 72.2482 87.0679 75.4833 85.1822C89.6923 76.8995 99 62.0512 99 44.2699C99.0003 31.0893 92.2223 18.6322 83.1869 9.72229Z" fill="url(#paint0_linear_1980_2218)"/>
<path d="M15.377 4.85145C15.377 4.95696 15.3817 5.06136 15.3909 5.16449L15.171 5.12626L15.7328 6.40599C16.1351 7.32245 16.1281 8.08296 16.0338 8.60203C15.9862 8.86472 15.9153 9.06926 15.8595 9.20277C15.8387 9.2527 15.8201 9.29233 15.8059 9.32094C6.81938 18.2422 1.25 30.6046 1.25 44.2696C1.25 61.3043 9.8991 76.3187 23.0422 85.1612C26.6708 87.6023 30.9496 88.8952 35.3214 88.8864L64.8299 88.8273C68.7075 88.8195 72.5123 87.7821 75.861 85.8301C90.2899 77.4193 99.75 62.33 99.75 44.2699C99.7503 30.8789 92.8934 18.278 83.801 9.27474C83.6588 8.96743 83.2942 7.96227 83.8194 6.60141C84.1125 6.08531 84.2849 5.48862 84.2849 4.85145C84.2849 2.85665 82.6308 1.25 80.6328 1.25H19.0291C17.0311 1.25 15.377 2.85665 15.377 4.85145ZM15.7777 9.37429L15.7786 9.37273C15.7776 9.37459 15.7773 9.37512 15.7777 9.37429Z" stroke="#1D71B8" stroke-opacity="0.6" stroke-width="1.5"/>
</g>
<path d="M18.9283 73.9997C18.1188 73.9997 17.3196 73.6312 16.7979 72.9333C12.8384 67.6351 10.0051 62.0155 8.37715 56.2311C7.97966 54.8188 8.80207 53.3516 10.2147 52.9539C11.6273 52.5582 13.0942 53.3794 13.492 54.7914C14.9429 59.9451 17.487 64.9788 21.0547 69.7525C21.9329 70.9278 21.6923 72.5925 20.517 73.471C20.0396 73.8278 19.4814 73.9997 18.9283 73.9997Z" fill="url(#paint1_linear_1980_2218)"/>
<path d="M9.30694 47.723C7.8877 47.723 6.71063 46.6014 6.65423 45.1707C6.47117 40.5233 6.92023 36.3609 7.43261 32.5546C7.62834 31.1007 8.96796 30.0796 10.4201 30.2762C11.8743 30.4719 12.8946 31.8094 12.6988 33.2637C12.2184 36.8323 11.7965 40.7197 11.9636 44.9617C12.0215 46.4277 10.8797 47.663 9.4134 47.7209C9.37811 47.7224 9.34222 47.723 9.30694 47.723Z" fill="url(#paint2_linear_1980_2218)"/>
<path d="M92.9504 47.4033C91.568 47.4033 90.4015 46.3336 90.3029 44.9333C90.1071 42.1552 89.7139 39.4476 89.1342 36.8854C88.8106 35.4544 89.7084 34.0318 91.1397 33.7079C92.5698 33.3834 93.9933 34.2818 94.3172 35.7131C94.9556 38.5374 95.3884 41.5137 95.6034 44.5597C95.7066 46.0233 94.6037 47.2935 93.1401 47.3967C93.0768 47.4012 93.0132 47.4033 92.9504 47.4033Z" fill="url(#paint3_linear_1980_2218)"/>
<path d="M89.6165 32.017C88.5525 32.017 87.5483 31.3734 87.1396 30.3218C86.2653 28.0735 85.2092 25.9142 84.0002 23.9035C83.2438 22.6465 83.65 21.0141 84.9076 20.2577C86.1637 19.501 87.7968 19.9073 88.5534 21.1649C89.9181 23.4337 91.1087 25.8671 92.0919 28.3968C92.6236 29.7642 91.9459 31.304 90.578 31.8354C90.2619 31.9588 89.9365 32.017 89.6165 32.017Z" fill="url(#paint4_linear_1980_2218)"/>
<g opacity="0.68">
<path d="M40.0703 5.6054H19.5489C18.7048 5.6054 18.0142 4.91478 18.0142 4.07066V3.53475C18.0142 2.69062 18.7048 2 19.5489 2H40.07C40.9141 2 41.6047 2.69062 41.6047 3.53475V4.07066C41.6047 4.91478 40.9144 5.6054 40.0703 5.6054Z" fill="url(#paint5_linear_1980_2218)"/>
</g>
<g opacity="0.68">
<path d="M51.2387 5.6054H46.9017C46.0576 5.6054 45.3669 4.91478 45.3669 4.07066V3.53475C45.3669 2.69062 46.0576 2 46.9017 2H51.2387C52.0829 2 52.7735 2.69062 52.7735 3.53475V4.07066C52.7735 4.91478 52.0829 5.6054 51.2387 5.6054Z" fill="url(#paint6_linear_1980_2218)"/>
</g>
<g opacity="0.68">
<path d="M77.8857 5.6054H73.5487C72.7045 5.6054 72.0139 4.91478 72.0139 4.07066V3.53475C72.0139 2.69062 72.7045 2 73.5487 2H77.8857C78.7298 2 79.4204 2.69062 79.4204 3.53475V4.07066C79.4204 4.91478 78.7298 5.6054 77.8857 5.6054Z" fill="url(#paint7_linear_1980_2218)"/>
</g>
<defs>
<linearGradient id="paint0_linear_1980_2218" x1="103.5" y1="43.9998" x2="-7.5" y2="45.9998" gradientUnits="userSpaceOnUse">
<stop stop-color="#CBCBCB"/>
<stop offset="0.476469" stop-color="white"/>
<stop offset="1" stop-color="#CBCBCB"/>
</linearGradient>
<linearGradient id="paint1_linear_1980_2218" x1="22.2007" y1="63.1648" x2="6.9705" y2="63.3182" gradientUnits="userSpaceOnUse">
<stop stop-color="#CBCBCB"/>
<stop offset="0.476469" stop-color="white"/>
<stop offset="1" stop-color="#CBCBCB"/>
</linearGradient>
<linearGradient id="paint2_linear_1980_2218" x1="13.0063" y1="38.7708" x2="6.01206" y2="38.8099" gradientUnits="userSpaceOnUse">
<stop stop-color="#CBCBCB"/>
<stop offset="0.476469" stop-color="white"/>
<stop offset="1" stop-color="#CBCBCB"/>
</linearGradient>
<linearGradient id="paint3_linear_1980_2218" x1="95.9136" y1="40.3517" x2="88.4255" y2="40.4087" gradientUnits="userSpaceOnUse">
<stop stop-color="#CBCBCB"/>
<stop offset="0.476469" stop-color="white"/>
<stop offset="1" stop-color="#CBCBCB"/>
</linearGradient>
<linearGradient id="paint4_linear_1980_2218" x1="92.6746" y1="25.7964" x2="82.7702" y2="25.9093" gradientUnits="userSpaceOnUse">
<stop stop-color="#CBCBCB"/>
<stop offset="0.476469" stop-color="white"/>
<stop offset="1" stop-color="#CBCBCB"/>
</linearGradient>
<linearGradient id="paint5_linear_1980_2218" x1="42.6992" y1="3.75798" x2="15.9877" y2="6.55442" gradientUnits="userSpaceOnUse">
<stop stop-color="#CBCBCB"/>
<stop offset="0.476469" stop-color="white"/>
<stop offset="1" stop-color="#CBCBCB"/>
</linearGradient>
<linearGradient id="paint6_linear_1980_2218" x1="53.1171" y1="3.75798" x2="44.648" y2="4.03635" gradientUnits="userSpaceOnUse">
<stop stop-color="#CBCBCB"/>
<stop offset="0.476469" stop-color="white"/>
<stop offset="1" stop-color="#CBCBCB"/>
</linearGradient>
<linearGradient id="paint7_linear_1980_2218" x1="79.7641" y1="3.75798" x2="71.2949" y2="4.03635" gradientUnits="userSpaceOnUse">
<stop stop-color="#CBCBCB"/>
<stop offset="0.476469" stop-color="white"/>
<stop offset="1" stop-color="#CBCBCB"/>
</linearGradient>
</defs>
</svg>
