<?xml version="1.0" encoding="utf-8"?>
<svg xmlns="http://www.w3.org/2000/svg" xmlns:xlink="http://www.w3.org/1999/xlink" width="500" height="500">
  <clipPath id="cl_4">
    <rect width="500" height="500"></rect>
  </clipPath>
  <g clip-path="url(#cl_4)">
    <path fill="#8E3C29" transform="matrix(1.1103 0 0 1.1103 107.101 413.527)" d="M60.75 23.45C46.75 41.45 5.35 60.65 -24.25 35.15C-29.0322 30.9586 -33.2357 26.1498 -36.75 20.85C-55.95 -7.95 -60.75 -52.05 -53.65 -56.75C-47.65 -60.65 -49.15 -56.95 -24.05 -13.65C-16.75 -1.25 -7.65 5.65 1.65 9.15C10.35 12.45 19.35 12.65 27.05 11.75C34.5628 10.8299 41.885 8.73779 48.75 5.54999C48.75 5.54999 60.75 23.45 60.75 23.45Z"></path>
    <path fill="#7F2F21" transform="matrix(1.1103 0 0 1.1103 120.425 450.278)" d="M48.75 -9.64999C34.75 8.35001 -6.65001 27.55 -36.25 2.05C-41.0322 -2.14141 -45.2357 -6.95023 -48.75 -12.25C-11.05 23.25 14.55 -20.75 14.85 -21.35C22.3628 -22.2701 29.685 -24.3622 36.55 -27.55C36.55 -27.55 48.75 -9.64999 48.75 -9.64999Z"></path>
    <path fill="#9E4739" transform="matrix(1.1103 0 0 1.1103 78.1224 385.103)" d="M27.65 34.75C-8.25001 31.15 -27.65 -31.15 -27.65 -31.15C-20.55 -34.75 -23.15 -31.35 1.94999 11.95C9.04999 24.45 18.15 31.24 27.65 34.75C27.65 34.75 27.65 34.75 27.65 34.75Z"></path>
    <path fill="#752816" transform="matrix(1.1103 0 0 1.1103 108.434 407.586)" d="M30.3498 49.9C25.0219 51.823 19.4822 53.0988 13.8498 53.6999C-1.15021 55.2 -15.1502 51 -26.0502 41.4C-51.3502 19.7 -61.0502 -26.5 -59.0502 -44.2C-58.5502 -48.6 -57.2502 -51.3 -55.3502 -52.4C-49.8502 -55.2 -48.9502 -53.6 -40.6502 -38.2C-36.9502 -31.3 -31.9502 -22.1 -24.1502 -8.80003C-0.150209 32.7 45.2498 11 47.1498 10.1C47.4328 9.95734 47.7667 9.95734 48.0498 10.1C48.2558 10.1749 48.4315 10.3154 48.5498 10.5C48.5498 10.5 60.7498 28.4 60.7498 28.4C61.0502 28.8183 61.0502 29.3817 60.7498 29.8C54.5498 36.9 43.6498 45.1 30.3498 49.9C30.3498 49.9 30.3498 49.9 30.3498 49.9ZM-53.0502 -50.9C-53.5219 -50.7463 -53.9622 -50.5092 -54.3502 -50.2C-54.9502 -50 -56.2502 -48.6 -56.7502 -43.7C-58.9502 -25.8 -48.2502 19.6 -24.6502 40C-14.1119 49.1333 -0.185199 53.3513 13.6498 51.5999C33.2498 49.7 50.2498 38.6 58.2498 29C58.2498 29 47.1498 12.7 47.1498 12.7C40.2498 15.9 -2.75021 33.2 -26.1502 -7.40003C-33.8502 -20.6 -38.7502 -30 -42.6502 -36.8C-49.7102 -50.01 -50.8502 -51.7 -53.0502 -50.9C-53.0502 -50.9 -53.0502 -50.9 -53.0502 -50.9Z"></path>
    <path fill="#8E3C29" transform="matrix(1.1103 0 0 1.1103 194.871 281.631)" d="M-1.4 4.94228C-1.4 4.94228 -1.7 4.94228 -1.7 4.94228C-2.4 4.74228 -2.5 4.14228 -2.4 3.44228C-2.4 3.44228 0.2 -4.15771 0.2 -4.15771C0.4 -4.85771 1 -4.95771 1.7 -4.85771C2.4 -4.75771 2.5 -4.05771 2.4 -3.35771C2.4 -3.35771 -0.2 4.24228 -0.2 4.24228C-0.433159 4.68595 -0.899033 4.95771 -1.40001 4.94227C-1.40001 4.94227 -1.4 4.94228 -1.4 4.94228Z"></path>
    <path fill="#AD5A40" transform="matrix(1.1103 0 0 1.1103 298.351 417.08)" d="M51.4 47.65C46.8 52.75 31.8 53.25 15.3 51.75C4.62159 50.7215 -5.99375 49.1191 -16.5 46.95C-48.8 40.35 -56 25.55 -48.9 -9.85C-45.3 -27.95 -25.2 -47.85 -25.2 -47.85C-25.2 -47.85 -10.5 -53.25 5.3 -52.75C13.2 -52.55 21.3 -50.95 27.9 -46.35C29.0047 -45.6093 30.0421 -44.7727 31 -43.85C31.773 -43.2271 32.4771 -42.523 33.1 -41.75C56 -17.05 23.5 25.15 23.1 25.65C37.1 25.15 52.4 34.05 53.2 42.25C53.4807 44.2328 52.8142 46.2322 51.4 47.65C51.4 47.65 51.4 47.65 51.4 47.65Z"></path>
    <path fill="#A34F38" transform="matrix(1.1103 0 0 1.1103 309.232 425.84)" d="M18.2 -54.45C18.2 -54.45 12.3 -8.15 -2.9 26.45C-18.2 60.85 -10.8 -54.45 -10.8 -54.45C-10.8 -54.45 -4.4 -60.85 -4.4 -60.85C3.5 -60.74 11.6 -59.04 18.2 -54.45Z"></path>
    <path fill="#BC6A4C" transform="matrix(1.1103 0 0 1.1103 342.341 407.809)" d="M-16.38 33.7C1.42003 -8.3 -6.37997 -33.7 -6.37997 -33.7C16.38 -9.1 -16.12 33.2 -16.38 33.7C-16.38 33.7 -16.38 33.7 -16.38 33.7Z"></path>
    <path fill="#A34F38" transform="matrix(1.1103 0 0 1.1103 336.534 470.096)" d="M17.0096 -0.1C12.4096 5 -2.59039 5.5 -19.0904 4C-19.0904 4 -12.7904 -5.2 -12.7904 -5.2C-12.7904 -5.2 7.60961 2 18.8096 -5.5C19.0903 -3.51724 18.4238 -1.51775 17.0096 -0.0999815C17.0096 -0.0999815 17.0096 -0.1 17.0096 -0.1Z"></path>
    <path fill="#752816" transform="matrix(1.1103 0 0 1.1103 298.018 412.083)" d="M30.8 58.05C12.8 58.05 -9.9 53.75 -16.1 52.45C-48.4 45.85 -56.8 31.25 -49.4 -5.65C-45.8 -23.95 -26.2 -43.55 -25.4 -44.35C-25.2 -44.55 -25.1 -44.55 -25.1 -44.65C-23.6 -45.15 12.6 -58.35 32.2 -40.55C56.6 -18.45 32 19.85 25.8 28.65C37.7 29.15 50.3 35.55 54 43.15C55.6728 46.2972 55.1496 50.1611 52.7 52.75C49 56.75 40.6 58.05 30.8 58.05C30.8 58.05 30.8 58.05 30.8 58.05ZM-24.1 -42.55C-26.1 -40.55 -44 -21.95 -47.3 -5.35C-54.4 30.35 -46.6 43.75 -15.7 49.95C12.8 55.75 44.4 58.35 51 51.15C52.7654 49.2159 53.1625 46.3965 52 44.05C48.9 37.45 36.2 30.35 23.7 30.85C23.2594 30.8311 22.8692 30.5598 22.6981 30.1534C22.527 29.747 22.6056 29.2783 22.9 28.95C23.2 28.45 56.8 -15.55 31 -39.05C12.8 -54.75 -21 -43.55 -24.1 -42.55Z"></path>
    <path fill="#AD5A40" transform="matrix(1.1103 0 0 1.1103 215.078 358.123)" d="M89.8 10.65C87.7 38.85 89.3 98.95 -1.52588e-05 103.25C-80.5 107.25 -91.9 62.25 -70.8 14.15C-68.4595 8.70662 -65.7534 3.42789 -62.7 -1.65C-49.4208 -24.9012 -38.3395 -49.3404 -29.6 -74.65C-22.7 -94.25 -19.6 -107.25 -19.6 -107.25C-19.6 -107.25 65.5 -100.65 65.5 -100.65C65.4 -100.75 91.9 -17.55 89.8 10.65Z"></path>
    <path fill="#FFE3CC" transform="matrix(1.1103 0 0 1.1103 253.483 352.016)" d="M-19.35 -87.45C-19.35 -87.45 -41.95 20.95 -26.55 58.35C-11.15 95.75 33.75 81.25 37.85 41.75C41.95 2.25 23.65 -95.75 23.65 -95.75C23.65 -95.75 -19.35 -87.45 -19.35 -87.45Z"></path>
    <path fill="#AD5A40" transform="matrix(1.1103 0 0 1.1103 174.541 423.075)" d="M49.75 52.25C42.15 60.65 6.15 57.15 -17.95 51.55C-64.05 42.85 -54.15 -20.25 -32.95 -47.45C26.05 -60.65 64.05 -28.15 21.55 30.15C38.91 29.55 58.01 43.04 49.75 52.25C49.75 52.25 49.75 52.25 49.75 52.25Z"></path>
    <path fill="#A34C31" transform="matrix(1.1103 0 0 1.1103 163.838 324.425)" d="M17.75 8.7C11.35 31.4 -19.85 42.8 -24.75 44.4C-22.4095 38.9567 -19.7033 33.6779 -16.65 28.6C-3.37078 5.34883 7.71056 -19.0904 16.45 -44.4C17.75 -43.2 24.75 -15.8 17.75 8.7Z"></path>
    <path fill="#A34C31" transform="matrix(1.1103 0 0 1.1103 194.538 403.645)" d="M13.4 31.35C-27.9 18.55 -11.5 -31.35 -11.5 -31.35C-2.9 -30.05 5.3 -27.25 11.2 -21.75C27.9 -6.85 21.2 15.95 13.4 31.35C13.4 31.35 13.4 31.35 13.4 31.35Z"></path>
    <path fill="#A34F38" transform="matrix(1.1103 0 0 1.1103 170.655 434.456)" d="M53.25 42C45.65 50.4 9.65 46.9 -14.45 41.3C-39.95 35.4 -47.75 17.1 -47.75 -9.4C-47.75 -23.6 -39.15 -40.9 -33.95 -50.4C-34.25 -49.4 -53.25 -1.3 -29.55 20.9C-5.59 43.2 37.11 46 53.25 42C53.25 42 53.25 42 53.25 42Z"></path>
    <path fill="#752816" transform="matrix(1.1103 0 0 1.1103 175.662 362.378)" d="M50.9 98.3174C47.3 90.7174 34.6 84.3174 22.7 83.8174C29 75.1174 53.5 36.7174 29.1 14.6175C21.7 7.81745 10.2 4.21745 -5.3 3.71745C-5.96284 3.71731 -6.50026 4.25461 -6.50026 4.91746C-6.50026 5.5803 -5.96284 6.1176 -5.3 6.11746C9.5 6.61745 20.6 10.1175 27.6 16.3174C53.5 39.9174 19.9 83.8174 19.5 84.3174C19.2354 84.6582 19.1602 85.1093 19.3 85.5174C19.4698 85.9246 19.8593 86.1973 20.3 86.2174C32.8 85.9174 45.5 92.8174 48.6 99.4174C49.7984 101.758 49.3983 104.599 47.6 106.517C41 113.917 7.9 111.617 -18.9 105.317C-41.6 100.017 -51.2 85.2174 -51.2 55.7174C-51.2 45.8174 -47.9 32.0174 -26.5 -5.08255C4.1 -58.2825 16.6 -111.983 16.8 -112.483C16.9047 -112.863 16.7934 -113.271 16.5096 -113.545C16.2259 -113.82 15.815 -113.917 15.4381 -113.8C15.0611 -113.683 14.7781 -113.37 14.7 -112.983C14.7 -112.483 2.2 -59.0825 -28.3 -6.28255C-42.9 19.9174 -53.5 37.9174 -53.5 55.5174C-53.5 85.8174 -43 101.817 -19.4 107.417C-5.9 110.517 11.9 113.217 26.2 113.217C37.1 113.217 46 111.717 49.4 107.917C51.9492 105.392 52.5572 101.5 50.9 98.3174C50.9 98.3174 50.9 98.3174 50.9 98.3174Z"></path>
    <path fill="#8E3C29" transform="matrix(1.1103 0 0 1.1103 125.366 429.158)" d="M0.599992 5.47125C0.0462079 5.38466 -0.414984 5.00034 -0.60001 4.47124C-0.60001 4.47124 -1.80001 -4.12875 -1.80001 -4.12875C-2.00001 -4.82875 -1.50001 -5.32875 -0.800008 -5.42875C-0.494563 -5.47125 -0.184847 -5.38928 0.0595904 -5.20125C0.304028 -5.01322 0.462703 -4.73489 0.499988 -4.42877C0.499988 -4.42877 1.69999 4.17125 1.69999 4.17125C1.99999 4.77125 1.49999 5.47125 0.599992 5.47125Z"></path>
    <path fill="#8E3C29" transform="matrix(1.1103 0 0 1.1103 130.925 451.376)" d="M1.59293 5.16042C1.14795 5.15312 0.752104 4.87602 0.59293 4.46042C0.59293 4.46042 -2.70707 -3.43958 -2.70707 -3.43958C-2.92798 -4.04709 -2.61458 -4.71866 -2.00707 -4.93958C-1.39956 -5.16049 -0.727984 -4.84709 -0.50707 -4.23958C-0.50707 -4.23958 2.79293 3.66042 2.79293 3.66042C2.92797 3.94989 2.92795 4.28429 2.79287 4.57373C2.6578 4.86318 2.40152 5.07799 2.09293 5.16043C2.09293 5.16043 1.59293 5.16042 1.59293 5.16042Z"></path>
    <path fill="#8E3C29" transform="matrix(1.1103 0 0 1.1103 133.804 438.08)" d="M1.1 5.03595C0.575185 5.03594 0.101847 4.72038 -0.100003 4.23594C-0.100003 4.23594 -2.2 -3.36405 -2.2 -3.36405C-2.2934 -3.66905 -2.26153 -3.99869 -2.11142 -4.28014C-1.96131 -4.56159 -1.70532 -4.7717 -1.4 -4.86405C-0.767116 -5.03601 -0.109767 -4.68543 0.0999999 -4.06405C0.0999999 -4.06405 2.2 3.53595 2.2 3.53595C2.2934 3.84095 2.26153 4.17059 2.11142 4.45204C1.96131 4.7335 1.70532 4.94361 1.4 5.03595C1.4 5.03595 1.1 5.03595 1.1 5.03595Z"></path>
    <path fill="#8E3C29" transform="matrix(1.1103 0 0 1.1103 334.019 376.41)" d="M2.4752 4.67949C2.09233 4.63938 1.73701 4.46172 1.4752 4.17949C1.4752 4.17949 -3.3248 -2.72051 -3.3248 -2.72051C-3.68378 -3.24518 -3.54947 -3.96152 -3.0248 -4.3205C-2.50013 -4.67949 -1.78378 -4.54518 -1.4248 -4.0205C-1.4248 -4.0205 3.3752 2.87949 3.3752 2.87949C3.68378 3.41378 3.55637 4.09329 3.0752 4.4795C2.9752 4.67949 2.7752 4.67949 2.4752 4.67949C2.4752 4.67949 2.4752 4.67949 2.4752 4.67949Z"></path>
    <path fill="#8E3C29" transform="matrix(1.1103 0 0 1.1103 338.582 392.992)" d="M0.00568184 5.54426C-0.31592 5.55554 -0.627751 5.43274 -0.855289 5.2052C-1.08283 4.97766 -1.20563 4.66583 -1.19433 4.34424C-1.19433 4.34424 -1.19432 -4.35574 -1.19432 -4.35574C-1.19417 -5.01838 -0.656953 -5.55547 0.00568633 -5.55547C0.668326 -5.55547 1.20554 -5.01838 1.20569 -4.35574C1.20569 -4.35574 1.20568 4.34426 1.20568 4.34426C1.12797 4.972 0.633428 5.46655 0.00568322 5.54426C0.00568322 5.54426 0.00568184 5.54426 0.00568184 5.54426Z"></path>
    <path fill="#8E3C29" transform="matrix(1.1103 0 0 1.1103 331.057 386.923)" d="M1.44293 4.81045C0.997958 4.80315 0.602111 4.52605 0.442937 4.11046C0.442937 4.11046 -2.55707 -3.08955 -2.55707 -3.08955C-2.77798 -3.69706 -2.46458 -4.36863 -1.85706 -4.58954C-1.24955 -4.81046 -0.577978 -4.49706 -0.357064 -3.88955C-0.357064 -3.88955 2.64293 3.31045 2.64293 3.31045C2.77798 3.59992 2.77796 3.93432 2.64288 4.22376C2.5078 4.51321 2.25153 4.72802 1.94294 4.81046C1.94294 4.81046 1.44293 4.81045 1.44293 4.81045Z"></path>
    <path fill="#752816" transform="matrix(1.1103 0 0 1.1103 291.365 360.347)" d="M-22.4683 92.4466C-22.9132 92.4393 -23.3091 92.1622 -23.4682 91.7466C-23.7317 91.1935 -23.5109 90.531 -22.9683 90.2466C15.7317 72.7466 18.2317 35.9466 19.5317 13.6466C19.7317 11.8466 19.7317 10.0466 19.8317 8.34664C21.4317 -13.2534 6.03174 -68.0534 -0.968254 -90.7533C-1.16154 -91.3885 -0.803371 -92.06 -0.168243 -92.2533C0.466884 -92.4466 1.13846 -92.0885 1.33176 -91.4533C8.13175 -68.7533 23.7317 -13.5534 22.1317 8.54664C21.9317 10.1466 21.9317 12.0466 21.8317 13.8466C20.3317 36.4466 17.8317 74.4466 -22.1683 92.4466C-22.1683 92.4466 -22.4683 92.4466 -22.4683 92.4466Z"></path>
    <path fill="#8E3C29" transform="matrix(1.1103 0 0 1.1103 190.529 272.685)" d="M-1.39 4.6C-1.39 4.6 -1.65 4.6 -1.65 4.6C-2.35 4.4 -2.45 3.8 -2.35 3.1C-2.35 3.1 0.15 -3.8 0.15 -3.8C0.35 -4.5 0.95 -4.6 1.65 -4.5C2.35 -4.4 2.45 -3.7 2.35 -3C2.35 -3 -0.15 3.9 -0.15 3.9C-0.435192 4.30996 -0.891644 4.56764 -1.39 4.6C-1.39 4.6 -1.39 4.6 -1.39 4.6Z"></path>
    <path fill="#AD5A40" transform="matrix(1.1103 0 0 1.1103 294.764 356.779)" d="M9.47 91.75C4.17 94.25 -6.53 98.95 -11.73 101.45C-11.73 101.45 -12.53 55.05 -11.73 11.85C-11.03 -25.55 -23.93 -93.75 -23.93 -93.75C-23.93 -93.75 7.37 -101.45 7.37 -101.45C10.67 -80.25 17.77 -32.95 19.87 -8.55C23.93 14.26 9.93 87.96 9.47 91.75C9.47 91.75 9.47 91.75 9.47 91.75Z"></path>
    <path fill="#A34C31" transform="matrix(1.1103 0 0 1.1103 304.568 306.16)" d="M10.7 31.95C1.59997 25.65 -6.60003 16.95 -7.70003 6.25C-10.7 -19.15 2.19997 -31.95 2.19997 -31.95C5.09997 -12.85 8.69997 13.45 10.7 31.95Z"></path>
    <path fill="#BC6A4C" transform="matrix(1.1103 0 0 1.1103 306.312 405.466)" d="M-0.929969 47.9C-0.929969 47.9 -10.93 52.5 -10.93 52.5C-10.7855 51.1526 -10.5516 49.8163 -10.23 48.5C-1.52997 16.1 9.17003 -49.5 9.67003 -52.5C10.17 -47.7 10.37 -43.8 10.47 -41C10.93 -19.49 -0.929969 47.9 -0.929969 47.9C-0.929969 47.9 -0.929969 47.9 -0.929969 47.9Z"></path>
    <path fill="#AD5A40" transform="matrix(1.1103 0 0 1.1103 303.625 470.929)" d="M11.35 8.65C-1.35003 13.05 -13.85 10.95 -18.15 3.85C-19.1263 2.32205 -19.6786 0.561844 -19.75 -1.24999C-19.75 -1.24999 -17.95 -9.85 -0.65003 -11.75C10.55 -13.05 18.25 -7.35 19.15 -1.25C19.75 2.55 17.49 6.35 11.35 8.65C11.35 8.65 11.35 8.65 11.35 8.65Z"></path>
    <path fill="#A34F38" transform="matrix(1.1103 0 0 1.1103 302.126 476.37)" d="M12.7 3.75003C-9.53674e-07 8.15003 -12.5 6.05003 -16.8 -1.04997C-21.1 -8.14997 10.2 5.55003 20.4 -6.14997C21.1 -2.34997 18.84 1.45003 12.7 3.75003C12.7 3.75003 12.7 3.75003 12.7 3.75003Z"></path>
    <path fill="#752816" transform="matrix(1.1103 0 0 1.1103 303.847 469.885)" d="M-1.84997 13.0901C-6.52571 13.2099 -11.1389 11.9959 -15.15 9.59007C-18.5831 7.43438 -20.7481 3.73887 -20.95 -0.309919C-20.9498 -0.972541 -20.4126 -1.50964 -19.75 -1.50964C-19.0873 -1.50964 -18.5501 -0.972541 -18.55 -0.309901C-18.3681 3.01171 -16.5762 6.03544 -13.75 7.79007C-7.94997 11.5901 1.55003 11.8901 10.95 8.59009C16.25 6.79009 18.85 3.29009 17.85 -0.609908C16.65 -5.90991 9.45003 -10.6099 -0.449966 -9.50991C-3.72033 -9.18302 -6.94181 -8.47832 -10.05 -7.40991C-10.6575 -7.18899 -11.329 -7.50239 -11.55 -8.1099C-11.7709 -8.71742 -11.4575 -9.38899 -10.85 -9.6099C-7.65864 -10.8987 -4.28366 -11.6749 -0.849961 -11.9099C10.65 -13.2099 18.55 -7.50991 19.95 -1.20991C20.95 2.79009 19.15 7.99009 11.55 10.7901C7.23402 12.2642 2.71056 13.0406 -1.84997 13.0901C-1.84997 13.0901 -1.84997 13.0901 -1.84997 13.0901Z"></path>
    <path fill="#752816" transform="matrix(1.1103 0 0 1.1103 311.508 356.31)" d="M-5.25 91.9823C-5.25 91.9823 -5.45 91.9823 -5.45 91.9823C-6.05598 91.8512 -6.47868 91.3016 -6.45001 90.6823C-6.25 89.9823 5.05 24.2823 4.55 3.38233C4.35 -8.11767 0.750001 -35.1177 -2.05 -55.7177C-3.55 -65.9177 -5.15 -77.1177 -6.85 -88.0177C-6.85 -88.0177 -7.35 -90.6177 -7.35 -90.6177C-7.55 -91.3177 -7.05 -91.8177 -6.35 -91.9177C-6.04138 -91.9823 -5.71992 -91.9089 -5.47 -91.7166C-5.22007 -91.5244 -5.06665 -91.2325 -5.04999 -90.9177C-5.04999 -90.9177 -4.55 -88.3177 -4.55 -88.3177C-2.95 -77.3177 -1.25 -66.1177 0.25 -55.9177C3.25 -35.3177 6.65 -8.11767 7.05 3.58233C7.55 24.7823 -3.45 88.5823 -3.95 91.1823C-4.21437 91.6573 -4.70689 91.9604 -5.25 91.9823C-5.25 91.9823 -5.25 91.9823 -5.25 91.9823Z"></path>
    <path fill="#752816" transform="matrix(1.1103 0 0 1.1103 280.437 397.673)" d="M1.13419 65.7288C0.812587 65.7401 0.500756 65.6173 0.273217 65.3897C0.0456792 65.1622 -0.0771183 64.8504 -0.0658239 64.5288C-0.0658135 64.0288 -0.865812 17.4288 -0.0658135 -25.0712C0.134186 -32.6712 -0.765813 -48.4712 -2.36581 -64.4712C-2.43422 -65.0986 -1.98849 -65.6655 -1.36269 -65.7472C-0.736886 -65.8288 -0.160647 -65.3951 -0.0658239 -64.7712C1.73419 -48.1712 2.43419 -32.4712 2.23419 -25.2712C1.43419 17.4288 2.43419 64.4288 2.43419 64.9288C2.43419 65.8288 1.83419 65.7288 1.13419 65.7288Z"></path>
    <path fill="#752816" transform="matrix(1.1103 0 0 1.1103 318.764 472.575)" d="M1.85422 4.36805C1.26816 4.36022 0.767615 3.94311 0.654225 3.36806C0.154221 0.368052 -2.64578 -2.43195 -2.64578 -2.43195C-2.89758 -2.6208 -3.04578 -2.91719 -3.04578 -3.23195C-3.04578 -3.54671 -2.89758 -3.84309 -2.64578 -4.03195C-2.43512 -4.24695 -2.14679 -4.36811 -1.84578 -4.36811C-1.54478 -4.36811 -1.25644 -4.24695 -1.04578 -4.03195C-0.845779 -3.83195 2.25422 -0.731948 2.95422 2.86805C3.04578 3.14749 3.0097 3.45307 2.85559 3.70351C2.70147 3.95395 2.44494 4.12386 2.15422 4.16805C2.09722 4.2836 1.98281 4.35987 1.85422 4.36805C1.85422 4.36805 1.85422 4.36805 1.85422 4.36805Z"></path>
    <path fill="#752816" transform="matrix(1.1103 0 0 1.1103 312.066 475.933)" d="M1.74752 4.64329C1.16145 4.63546 0.660909 4.21834 0.547519 3.6433C-0.130721 1.38645 -1.17824 -0.742386 -2.55249 -2.65672C-2.93907 -3.15375 -2.84953 -3.87009 -2.35247 -4.25669C-1.85542 -4.64329 -1.13907 -4.55375 -0.752474 -4.05669C-0.552485 -3.85671 2.24752 -0.256709 2.84752 3.04329C2.93907 3.32273 2.903 3.62831 2.74888 3.87875C2.59477 4.12918 2.33823 4.2991 2.04751 4.34329C1.94752 4.64329 1.94752 4.64329 1.74752 4.64329C1.74752 4.64329 1.74752 4.64329 1.74752 4.64329Z"></path>
    <path fill="#752816" transform="matrix(1.1103 0 0 1.1103 304.421 477.746)" d="M2.13248 4.5106C1.6875 4.50329 1.29166 4.2262 1.13248 3.8106C0.138289 1.46038 -1.24812 -0.703774 -2.96752 -2.5894C-3.21933 -2.77826 -3.36752 -3.07465 -3.36752 -3.3894C-3.36752 -3.70416 -3.21933 -4.00055 -2.96752 -4.1894C-2.75686 -4.40441 -2.46853 -4.52557 -2.16752 -4.52557C-1.86652 -4.52557 -1.57818 -4.40441 -1.36752 -4.1894C0.532986 -2.08192 2.08576 0.314756 3.23248 2.9106C3.36752 3.20007 3.3675 3.53447 3.23242 3.82391C3.09735 4.11336 2.84108 4.32817 2.53248 4.41061C2.41515 4.49014 2.27344 4.52557 2.13248 4.5106C2.13248 4.5106 2.13248 4.5106 2.13248 4.5106Z"></path>
    <path fill="#AD5A40" transform="matrix(1.1103 0 0 1.1103 220.685 357.778)" d="M32.85 96.85C32.85 96.85 12.05 103.65 12.05 103.65C12.05 103.65 -17.75 57.85 -24.15 23.95C-32.85 -22.65 -21.35 -103.65 -21.35 -103.65C-21.35 -103.65 23.25 -94.45 23.25 -94.45C23.25 -94.45 14.05 -48.15 15.05 -4.55003C15.25 -0.550031 15.35 3.54997 15.55 7.44997C18.15 45.95 28.25 81.85 31.65 93.25C32.1282 94.4225 32.529 95.625 32.85 96.85C32.85 96.85 32.85 96.85 32.85 96.85Z"></path>
    <path fill="#BC6A4C" transform="matrix(1.1103 0 0 1.1103 242.78 408.142)" d="M11.85 47.8C11.85 47.8 2.14998 50.3 2.14998 50.3C-11.85 12.9 -4.75001 -50.3 -4.75001 -50.3C-4.75001 -50.3 -4.75001 -50.1 -4.75001 -50.1C-4.55001 -46.1 -4.45001 -42 -4.25001 -38.1C-1.55002 0.299999 8.34998 36.4 11.85 47.8C11.85 47.8 11.85 47.8 11.85 47.8Z"></path>
    <path fill="#AD5A40" transform="matrix(1.1103 0 0 1.1103 256.537 474.149)" d="M18.9 0.95C18.4 4.05 15.9 7.05 11 8.65C-2.50002 13.45 -15.7 10.65 -19.1 2.55C-19.6124 1.34778 -19.8842 0.0567788 -19.9 -1.24999C-19.9 -1.24999 -17.6 -9.35 -0.300015 -11.75C11.76 -13.45 19.9 -5.75 18.9 0.95C18.9 0.95 18.9 0.95 18.9 0.95Z"></path>
    <path fill="#A34F38" transform="matrix(1.1103 0 0 1.1103 256.426 482.143)" d="M19 -6.25C18.5 -3.15 16 -0.15 11.1 1.45C-2.40001 6.25 -15.6 3.45 -19 -4.65C-19 -4.55 -0.640016 4.15 19 -6.25C19 -6.25 19 -6.25 19 -6.25Z"></path>
    <path fill="#752816" transform="matrix(1.1103 0 0 1.1103 256.326 473.161)" d="M-1.84993 13.2401C-6.52567 13.3599 -11.1389 12.1459 -15.1499 9.7401C-18.5831 7.58441 -20.7481 3.8889 -20.9499 -0.159889C-20.9501 -0.822715 -20.4128 -1.36013 -19.7499 -1.36013C-19.0871 -1.36013 -18.5498 -0.822715 -18.5499 -0.159871C-18.368 3.16174 -16.5762 6.18547 -13.7499 7.9401C-7.94993 11.7401 1.55007 12.0401 10.9501 8.74012C16.3501 6.74012 18.8501 3.14012 17.8501 -0.959877C16.5501 -6.25988 9.45007 -10.8599 -0.149929 -9.55988C-3.95226 -9.08877 -7.66113 -8.04354 -11.1499 -6.45985C-11.6949 -6.22664 -12.3273 -6.45845 -12.5924 -6.98866C-12.8575 -7.51888 -12.6635 -8.16384 -12.1499 -8.45988C-8.42183 -10.0971 -4.48408 -11.2078 -0.449917 -11.7599C10.7501 -13.3599 18.4501 -7.65988 19.9501 -1.55988C20.9501 2.54012 19.2501 8.14012 11.5501 10.8401C7.25142 12.3927 2.72038 13.2042 -1.84992 13.2401C-1.84992 13.2401 -1.84993 13.2401 -1.84993 13.2401Z"></path>
    <path fill="#752816" transform="matrix(1.1103 0 0 1.1103 212.273 398.192)" d="M19.8266 68.4512C19.4437 68.4111 19.0884 68.2335 18.8266 67.9512C18.5266 67.4512 -11.2734 21.6512 -17.5734 -12.2488C-20.1734 -26.2488 -21.1734 -44.6488 -20.6734 -67.2488C-20.6847 -67.5704 -20.5619 -67.8822 -20.3344 -68.1097C-20.1068 -68.3373 -19.795 -68.4601 -19.4734 -68.4488C-19.1518 -68.4601 -18.84 -68.3373 -18.6125 -68.1097C-18.3849 -67.8822 -18.2621 -67.5704 -18.2734 -67.2488C-18.7734 -45.0488 -17.7734 -26.5488 -15.1734 -12.7488C-8.87341 20.6512 20.5266 66.1512 20.9266 66.6512C21.1047 66.9014 21.1734 67.2132 21.1168 67.515C21.0602 67.8168 20.8832 68.0826 20.6266 68.2512C20.3836 68.3908 20.1066 68.4601 19.8266 68.4512C19.8266 68.4512 19.8266 68.4512 19.8266 68.4512Z"></path>
    <path fill="#752816" transform="matrix(1.1103 0 0 1.1103 246.718 392.758)" d="M8.3033 62.7556C7.77848 62.7556 7.30514 62.4401 7.10329 61.9556C4.0033 51.5556 -6.1967 14.8556 -8.9967 -24.1443C-9.4967 -30.2443 -9.4967 -46.2443 -8.9967 -61.5443C-9.00801 -61.8659 -8.88521 -62.1778 -8.65767 -62.4053C-8.43013 -62.6329 -8.1183 -62.7557 -7.79671 -62.7444C-7.47512 -62.7557 -7.16329 -62.6329 -6.93575 -62.4053C-6.70822 -62.1778 -6.58542 -61.8659 -6.59671 -61.5444C-7.0967 -46.3443 -6.8967 -30.4443 -6.5967 -24.3443C-3.99671 14.3557 6.4033 50.9556 9.40329 61.2556C9.4967 61.5607 9.46483 61.8903 9.31472 62.1717C9.16461 62.4532 8.90862 62.6633 8.6033 62.7557C8.6033 62.7557 8.3033 62.7556 8.3033 62.7556Z"></path>
    <path fill="#752816" transform="matrix(1.1103 0 0 1.1103 271.754 476.461)" d="M1.85421 4.36808C1.26814 4.36025 0.7676 3.94314 0.654209 3.36809C-0.00563449 1.21552 -1.13243 -0.764909 -2.64578 -2.43189C-2.8976 -2.62077 -3.04579 -2.91716 -3.04579 -3.23192C-3.04579 -3.54667 -2.8976 -3.84306 -2.64579 -4.03192C-2.43514 -4.24692 -2.1468 -4.36808 -1.8458 -4.36808C-1.54479 -4.36808 -1.25645 -4.24692 -1.0458 -4.03192C-0.845794 -3.83192 2.25421 -0.731918 2.95421 2.86808C3.04576 3.14752 3.00969 3.4531 2.85557 3.70354C2.70146 3.95398 2.44492 4.12389 2.15421 4.16808C2.0972 4.28363 1.98279 4.3599 1.85421 4.36808C1.85421 4.36808 1.85421 4.36808 1.85421 4.36808Z"></path>
    <path fill="#752816" transform="matrix(1.1103 0 0 1.1103 265.322 479.819)" d="M1.74752 4.64329C1.16145 4.63546 0.66091 4.21834 0.547519 3.6433C-0.130718 1.38645 -1.17824 -0.742386 -2.55249 -2.65672C-2.93907 -3.15375 -2.84953 -3.87009 -2.35247 -4.25669C-1.85542 -4.64329 -1.13907 -4.55375 -0.752474 -4.05669C-0.552484 -3.85671 2.24752 -0.256709 2.84752 3.04329C2.93907 3.32273 2.903 3.62831 2.74888 3.87875C2.59477 4.12918 2.33823 4.2991 2.04752 4.34329C2.04752 4.34329 1.74752 4.64329 1.74752 4.64329Z"></path>
    <path fill="#752816" transform="matrix(1.1103 0 0 1.1103 257.389 481.624)" d="M2.13248 4.51808C1.6875 4.51078 1.29166 4.23369 1.13248 3.81809C0.13829 1.46786 -1.24812 -0.696289 -2.96752 -2.58192C-3.21933 -2.77077 -3.36752 -3.06716 -3.36752 -3.38192C-3.36752 -3.69667 -3.21933 -3.99306 -2.96752 -4.18192C-2.75686 -4.39692 -2.46853 -4.51808 -2.16752 -4.51808C-1.86652 -4.51808 -1.57818 -4.39692 -1.36752 -4.18192C0.532986 -2.07443 2.08576 0.322242 3.23248 2.91809C3.36752 3.20756 3.3675 3.54195 3.23242 3.8314C3.09735 4.12085 2.84108 4.33565 2.53248 4.41809C2.49248 4.51808 2.29248 4.51808 2.13248 4.51808C2.13248 4.51808 2.13248 4.51808 2.13248 4.51808Z"></path>
    <path fill="#EA2A21" transform="matrix(1.1103 0 0 1.1103 246.5 264.469)" d="M55.6 1.52588e-05C55.1945 0.762945 54.6902 1.46904 54.1 2.10001C0.599998 28 -52.6 -6.09998 -52.6 -6.09998C-57.4 -23.1 -46.5 -28 -46.5 -28C-45.2 -27.2 -43.9 -26.4 -42.5 -25.5C-12.2 -8.99998 51.5 -11.2 51.5 -11.2C57.4 -6.49998 56.94 -2.39998 55.6 1.52588e-05C55.6 1.52588e-05 55.6 1.52588e-05 55.6 1.52588e-05Z"></path>
    <path fill="#D11313" transform="matrix(1.1103 0 0 1.1103 245.5 264.469)" d="M56.5 1.52588e-05C56.0945 0.762945 55.5902 1.46904 55 2.10001C1.5 28 -51.7 -6.09998 -51.7 -6.09998C-56.5 -23.1 -45.6 -28 -45.6 -28C-44.3 -27.2 -43 -26.4 -41.6 -25.5C-41.6 -25.5 -44.4 -21.7 -44.4 -21.7C-44.4 -21.7 -36.8 -0.499981 -3.4 5.60001C23.9 10.5 48.4 2.89002 56.5 1.52588e-05C56.5 1.52588e-05 56.5 1.52588e-05 56.5 1.52588e-05Z"></path>
    <path fill="#B7130B" transform="matrix(1.1103 0 0 1.1103 246.056 262.075)" d="M11.8 14.9561C-24.1 14.9561 -52.4 -2.84385 -52.8 -3.14385C-53.0132 -3.3402 -53.1834 -3.57853 -53.3 -3.84386C-58.2 -21.6439 -46.7 -27.0439 -46.5 -27.0439C-46.1008 -27.2561 -45.6088 -27.1741 -45.3 -26.8439C-17.6 -8.24385 51.4 -10.3439 52 -10.3439C52.3 -10.383 52.5998 -10.2706 52.8 -10.0438C56.3 -7.24385 58.1 -4.14385 58.2 -1.14385C58.1566 1.2483 57.1466 3.52097 55.4 5.15616C55.4 5.15616 55.2 5.35614 55.1 5.35614C41.5587 11.7321 26.7672 15.0115 11.8 14.9561C11.8 14.9561 11.8 14.9561 11.8 14.9561ZM-51.2 -4.84385C-46.4 -1.84386 3.8 27.2561 53.9 3.25615C55.0802 2.09988 55.7314 0.508095 55.7 -1.14385C55.7 -3.44385 54.2 -5.74385 51.6 -8.04385C45.2 -7.84385 -18.2 -6.54386 -46.1 -24.5439C-48.3 -23.4439 -54.9 -18.3439 -51.2 -4.84385C-51.2 -4.84385 -51.2 -4.84385 -51.2 -4.84385Z"></path>
    <path fill="#B7130B" transform="matrix(1.1103 0 0 1.1103 258.818 282.129)" d="M0.00565027 5.49421C-0.315949 5.50549 -0.62778 5.3827 -0.855318 5.15516C-1.08286 4.92762 -1.20565 4.61579 -1.19436 4.2942C-1.19436 4.2942 -1.19435 -4.30579 -1.19435 -4.30579C-1.1942 -4.96842 -0.656986 -5.50552 0.00565361 -5.50552C0.668293 -5.50552 1.20551 -4.96842 1.20565 -4.30579C1.20565 -4.30579 1.20565 4.29421 1.20565 4.29421C1.1621 4.93805 0.649488 5.45066 0.00564731 5.49421C0.00564731 5.49421 0.00565027 5.49421 0.00565027 5.49421Z"></path>
    <path fill="#DB7712" transform="matrix(1.1103 0 0 1.1103 258.713 298.055)" d="M7.39998 0.05C7.39568 2.0551 6.95193 4.03489 6.09998 5.85C4.79998 8.45 2.49998 10.25 -1.52588e-05 10.25C-4.10001 10.25 -7.40002 5.65 -7.40001 0.05C-7.40001 -4.55 -5.10001 -8.55 -2.10001 -9.65C-1.43048 -9.90277 -0.713546 -10.0052 -1.63425e-05 -9.95C4.09998 -10.25 7.39998 -5.55 7.39998 0.05Z"></path>
    <path fill="#F7931E" transform="matrix(1.1103 0 0 1.1103 260.934 295.81)" d="M5.4 2.07237C5.39569 4.07747 4.95195 6.05726 4.1 7.87237C3.43046 8.12514 2.71353 8.22756 2 8.17237C-2.1 8.17237 -5.4 3.57237 -5.4 -2.02763C-5.39569 -4.03273 -4.95195 -6.01252 -4.1 -7.82763C-3.43047 -8.0804 -2.71353 -8.18282 -2 -8.12763C2.1 -8.22763 5.4 -3.52763 5.4 2.07237Z"></path>
    <path fill="#BA5D08" transform="matrix(1.1103 0 0 1.1103 258.824 298)" d="M-1.52588e-05 11.4C-4.80001 11.4 -8.60001 6.29997 -8.60001 -3.05176e-05C-8.60001 -6.30003 -4.80001 -11.4 -1.52588e-05 -11.4C4.79998 -11.4 8.59998 -6.30003 8.59998 -3.05176e-05C8.59998 6.29997 4.59998 11.4 -1.52588e-05 11.4ZM-1.52588e-05 -9.00003C-3.50002 -9.00003 -6.30001 -4.90003 -6.30001 0.0999695C-6.30001 5.09997 -3.50002 9.19997 -1.52588e-05 9.19997C3.49998 9.19997 6.29998 5.09997 6.29998 0.0999695C6.09998 -4.90003 3.49998 -9.00003 -1.52588e-05 -9.00003Z"></path>
    <path fill="#8E3C29" transform="matrix(1.1103 0 0 1.1103 184.951 288.786)" d="M-1.46629 5.09792C-1.65642 5.123 -1.84588 5.04721 -1.96628 4.89793C-2.55148 4.65321 -2.85463 4.00362 -2.66629 3.39792C-2.66629 3.39792 0.433712 -4.20208 0.433712 -4.20208C0.654628 -4.80959 1.3262 -5.123 1.93371 -4.90208C2.54123 -4.68117 2.85463 -4.00959 2.63371 -3.40208C2.63371 -3.40208 -0.466287 4.19792 -0.466287 4.19792C-0.626288 4.89791 -0.966287 5.09792 -1.46629 5.09792Z"></path>
    <path fill="#8E3C29" transform="matrix(1.1103 0 0 1.1103 328.44 46.5719)" d="M68.3 3.05C60.6 15.65 27.6 35.45 1.4 16.65C-24.9 -2.34999 -50.4 -4.95 -60.4 7.15C-60.4825 7.38366 -60.6663 7.56745 -60.9 7.65C-70.5 18.75 -75.4 5.65 -75.4 5.65C-75.2876 4.83965 -75.1206 4.03782 -74.9 3.25C-73 -4.35 -65.6 -27.75 -42.6 -30.65C-15.1 -34.25 5.7 -8.34999 42.3 -27.15C58.4 -35.45 66.8 -33.15 70.6 -26.65C75.4 -18.65 72.5 -4.05 68.3 3.05C68.3 3.05 68.3 3.05 68.3 3.05Z"></path>
    <path fill="#7F2F21" transform="matrix(1.1103 0 0 1.1103 332.27 51.4017)" d="M64.85 -1.3C57.15 11.3 24.15 31.1 -2.05 12.3C-28.35 -6.7 -53.85 -9.3 -63.85 2.8C-63.9325 3.03366 -64.1163 3.21745 -64.35 3.3C-64.35 3.3 -71.95 1.6 -71.95 1.6C-71.95 1.6 -59.05 -29.3 -26.25 -14.1C6.45 0.9 17.75 15.2 41.75 6C65.75 -3.2 67.05 -31.1 67.05 -31.1C71.95 -23 69.05 -8.4 64.85 -1.3Z"></path>
    <path fill="#9E4739" transform="matrix(1.1103 0 0 1.1103 325.997 29.8563)" d="M72.8 -11.805C60.6 -14.705 66 -8.705 39.7 1.495C13.4 11.895 -3 -2.205 -28.2 -8.105C-53.3 -13.805 -71.4 20.495 -71.4 20.495C-71.8139 19.6332 -72.2815 18.7982 -72.8 17.995C-70.9 10.395 -63.5 -13.005 -40.5 -15.905C-13 -19.505 7.8 6.395 44.4 -12.405C60.5 -20.495 69 -17.995 72.8 -11.805C72.8 -11.805 72.8 -11.805 72.8 -11.805Z"></path>
    <path fill="#752816" transform="matrix(1.1103 0 0 1.1103 328.744 41.1315)" d="M40.0262 28.15C38.4262 28.65 36.8262 29.05 35.2262 29.45C22.4262 32.05 10.3262 29.65 0.526168 22.45C-23.9738 4.85 -49.7738 0.750001 -59.7738 12.85C-63.0738 16.95 -66.3738 18.75 -69.5738 18.15C-74.4738 17.35 -76.7738 11.25 -76.8738 10.85C-76.9262 10.6196 -76.9262 10.3804 -76.8738 10.15C-76.7738 9.75 -71.1738 -23.55 -42.9738 -27.15C-32.0738 -28.55 -22.3738 -25.55 -12.2738 -22.25C3.32617 -17.25 19.4262 -12.15 41.5262 -23.55C57.9262 -32.05 65.8662 -28.96 69.6262 -24.96C76.9262 -17.16 74.1262 -0.0600004 68.9262 8.44C64.8662 15.45 53.4262 24.15 40.0262 28.15C40.0262 28.15 40.0262 28.15 40.0262 28.15ZM-51.3738 4.85C-38.0738 0.85 -17.8738 6.55 1.82617 20.75C13.7262 29.45 26.3262 29.05 34.7262 27.45C49.1262 24.55 62.4262 15.05 66.9262 7.55C71.4262 0.0500007 74.3262 -16.15 67.9262 -23.05C63.3262 -28.05 54.6262 -27.35 42.5262 -21.15C19.6262 -9.35 3.02617 -14.65 -13.0738 -19.85C-22.9738 -23.05 -32.4738 -26.05 -42.8738 -24.65C-67.8738 -21.45 -73.9738 7.15 -74.6738 10.45C-74.1738 11.55 -72.3738 15.45 -69.2738 15.85C-67.0738 16.25 -64.4738 14.75 -61.6738 11.35C-59.0042 8.1601 -55.4021 5.88693 -51.3738 4.85C-51.3738 4.85 -51.3738 4.85 -51.3738 4.85Z"></path>
    <path fill="#8E3C29" transform="matrix(1.1103 0 0 1.1103 104.106 96.8686)" d="M75.2474 -15.25C74.0474 -12.85 71.7474 -11.15 67.2474 -12.35C66.1474 -12.65 64.9474 -13.15 63.3474 -13.75C49.2474 -20.55 27.1474 -7.25001 11.2474 20.95C-4.65258 49.15 -42.8526 45.05 -55.0526 36.75C-64.1526 30.65 -76.3526 11.65 -65.6526 2.94999C-61.8526 -0.150008 -55.0526 -1.95001 -44.3526 -1.55001C-3.15258 0.0499924 4.74742 -32.15 31.1474 -40.65C57.5474 -49.15 76.1474 -21.55 76.1474 -21.55C76.3526 -19.4083 76.044 -17.2486 75.2474 -15.25C75.2474 -15.25 75.2474 -15.25 75.2474 -15.25Z"></path>
    <path fill="#7F2F21" transform="matrix(1.1103 0 0 1.1103 99.3291 102.254)" d="M71.65 -17.3C70.55 -17.6 69.35 -18.1 67.75 -18.7C53.65 -25.5 31.55 -12.2 15.65 16C-0.25 44.2 -38.45 40.1 -50.65 31.8C-59.75 25.7 -71.95 6.7 -61.25 -2C-63.15 8.2 -55.85 22 -30.85 25.6C-5.85 29.2 7.15 5.4 30.85 -19.4C54.55 -44.2 71.95 -22.6 71.95 -22.6C71.95 -22.6 71.65 -17.3 71.65 -17.3Z"></path>
    <path fill="#9E4739" transform="matrix(1.1103 0 0 1.1103 110.205 73.8187)" d="M69.7542 5.51C69.7542 5.51 57.0542 -16.69 32.5542 -9.79C8.05416 -2.89 -5.04584 26.6 -29.8458 27.6C-54.6458 28.6 -58.6458 22.2 -70.9458 23.5C-67.1458 20.4 -60.3458 18.6 -49.6458 19C-8.44584 20.6 -0.545841 -11.6 25.8542 -20.1C52.2542 -28.6 70.8541 -1 70.8541 -1C70.9458 1.22299 70.5711 3.44055 69.7542 5.51C69.7542 5.51 69.7542 5.51 69.7542 5.51Z"></path>
    <path fill="#752816" transform="matrix(1.1103 0 0 1.1103 106.757 93.9263)" d="M-53.2 42.7C-54.8395 42.0115 -56.4127 41.1746 -57.9 40.2C-66.1 34.6 -75.8 20.3 -72.5 10.2C-70.9 5 -64.9 -1.1 -46.4 -0.3C-21.7 0.7 -9.19999 -10.9 2.90001 -21.9C10.7 -29.2 18.2 -36 28.7 -39.4C55.6 -48 74.9 -20 75.1 -19.7C75.229 -19.5282 75.2663 -19.3044 75.2 -19.1C75.2 -18.7 75.8 -12.3 71.6 -9.5C69.1 -7.7 65.3 -8 60.5 -10.2C46.5 -16.9 24.7 -2.2 9.90001 24C3.90001 34.7 -5.99999 42 -18.6 45C-31.2 48 -44.74 46.3 -53.2 42.7C-53.2 42.7 -53.2 42.7 -53.2 42.7ZM51.6 -35.9C44.5105 -38.9568 36.5549 -39.3475 29.2 -37C19.2 -33.9 11.9 -27.1 4.20001 -20.1C-8.19999 -8.7 -21 3.1 -46.7 2.1C-60.2 1.5 -68.5 4.7 -70.6 11.1C-73.6 20 -64.2 33.5 -56.8 38.4C-49.4 43.3 -33.5 46.3 -19.2 42.8C-10.9 40.7 0.700009 35.7 8.00001 22.9C23.6 -4.8 46.1 -19.8 61.5 -12.3C65.4 -10.5 68.4 -10.1 70.2 -11.4C72.7 -13.2 72.9 -17.4 72.9 -18.7C71.66 -20.4 63.56 -30.9 51.56 -35.9C51.56 -35.9 51.6 -35.9 51.6 -35.9Z"></path>
    <path fill="#AD5A40" transform="matrix(1.1103 0 0 1.1103 262.988 156.381)" d="M31.55 79.85C28.95 81.15 26.25 82.45 23.65 83.45C19.1094 85.3928 14.4696 87.0952 9.74997 88.55C-33.25 100.85 -63.65 80.25 -79.45 47.75C-86.85 32.45 -90.85 14.75 -91.45 -3.55001C-92.35 -28.25 -86.65 -53.65 -73.85 -74.25C-73.25 -75.25 -72.45 -76.15 -71.75 -77.15C-70.116 -79.1379 -68.345 -81.0091 -66.45 -82.75C-54.95 -93.25 -37.95 -100.85 -21.55 -99.55C-19.294 -99.3378 -17.0554 -98.9703 -14.85 -98.45C-14.15 -98.35 -13.65 -98.15 -13.05 -98.05C17.25 -89.35 48.45 -62.65 66.55 -32.15C91.95 10.05 92.35 59.85 31.55 79.85C31.55 79.85 31.55 79.85 31.55 79.85Z"></path>
    <path fill="#BC6A4C" transform="matrix(1.1103 0 0 1.1103 374.351 178.254)" d="M-16.15 40.05C10.75 1.15 -4.85 -33.15 -4.85 -33.15C-2.26316 -35.8194 0.66163 -38.139 3.84999 -40.05C5.00833 -38.5343 6.0449 -36.9293 6.95 -35.25C16.15 -20.05 14.85 13.65 -16.15 40.05Z"></path>
    <path fill="#A34F38" transform="matrix(1.1103 0 0 1.1103 241.337 172.314)" d="M72.75 64.1C60.5399 69.2821 47.8438 73.235 34.85 75.9C-41.95 91.8 -58.95 32.9 -58.95 32.9C-58.95 32.9 -60.05 33.2 -59.85 33.1C-67.25 17.8 -71.25 0.0999985 -71.85 -18.2C-72.75 -42.9 -67.05 -68.3 -54.25 -88.9C-53.65 -89.9 -52.85 -90.8 -52.15 -91.8C-52.15 -91.8 -69.15 -46.2 -57.65 7.1C-56.3778 13.415 -54.3639 19.5576 -51.65 25.4C-37.95 55.8 -8.15 75 29.15 73.9C42.95 73.7 57.45 70.4 72.75 64.1C72.75 64.1 72.75 64.1 72.75 64.1Z"></path>
    <path fill="#752816" transform="matrix(1.1103 0 0 1.1103 291.269 83.4741)" d="M41.4782 34.5138C41.042 34.5905 40.6158 34.3347 40.4782 33.9138C21.7782 2.6138 -9.12178 -23.0862 -38.5218 -31.4862C-39.0218 -31.5862 -39.7218 -31.7862 -40.2218 -31.8862C-40.2218 -31.8862 -40.3818 -31.8862 -40.3818 -31.8862C-40.8029 -32.0333 -41.2388 -32.1339 -41.6818 -32.1862C-41.9891 -32.2483 -42.2582 -32.4322 -42.4278 -32.6959C-42.5973 -32.9597 -42.6529 -33.2808 -42.5818 -33.5862C-42.4156 -34.2013 -41.8104 -34.5904 -41.1818 -34.4862C-40.6997 -34.322 -40.19 -34.254 -39.6818 -34.2862C-38.9818 -34.1862 -38.4818 -33.9862 -37.8818 -33.8862C-8.08178 -25.2862 23.5182 0.713808 42.4182 32.5138C42.5952 32.7575 42.6529 33.068 42.5753 33.359C42.4977 33.65 42.293 33.8906 42.0182 34.0138C41.7782 34.5138 41.6182 34.5138 41.4782 34.5138C41.4782 34.5138 41.4782 34.5138 41.4782 34.5138Z"></path>
    <path fill="#AD5A40" transform="matrix(1.1103 0 0 1.1103 215.522 50.1804)" d="M21.5 5.7C21.5 5.7 -25.9 23.5 -25.9 23.5C-25.9 23.5 -26.9 19.6 -27.7 14.2C-28.8 5.7 -29.2 -6.7 -23.6 -13.9C-18.4 -20.6 -15 -15.7 -12.8 -10C-11.7861 -7.21922 -11.0818 -4.33513 -10.7 -1.4C-10.7 -1.4 -10.7 -2.1 -10.6 -3.2C-10.2 -7.3 -8.6 -17.7 -2.2 -21.1C2.3 -23.5 4.3 -19.3 5.4 -15.1C5.96593 -12.7347 6.33386 -10.3264 6.5 -7.9C6.5 -7.9 6.8 -8.7 7.4 -10.1C9.1 -14.3 13.8 -23 19.9 -23.3C23.7 -23.5 26.8 -20.4 27.9 -15.3C29.2 -9.9 27.7 -2.11 21.5 5.7C21.5 5.7 21.5 5.7 21.5 5.7Z"></path>
    <path fill="#752816" transform="matrix(1.1103 0 0 1.1103 173.061 117.198)" d="M-9.3572 45.1399C-9.6673 45.1746 -9.97729 45.0736 -10.2073 44.8627C-10.4373 44.6519 -10.5649 44.3518 -10.5572 44.0399C-11.1572 39.9399 -11.3572 35.6399 -11.5572 31.5399C-12.3572 5.53986 -6.1572 -19.8601 6.3428 -39.8601C6.3428 -39.8601 6.5428 -40.0601 6.5428 -40.0601C7.1428 -40.9601 7.9428 -41.9601 8.6428 -42.9601C9.12507 -43.5728 9.66049 -44.1416 10.2428 -44.6601C10.657 -45.1298 11.3735 -45.1746 11.843 -44.7604C12.3125 -44.3461 12.3572 -43.6296 11.9428 -43.1601C11.4638 -42.5447 10.9281 -41.9756 10.3428 -41.4601C9.5428 -40.4601 8.8428 -39.5601 8.1428 -38.6601C-3.95721 -19.0601 -10.0572 5.73986 -9.2572 31.4399C-9.1572 35.5399 -8.7572 39.6399 -8.2572 43.7399C-8.23766 44.4109 -8.70055 45.0001 -9.3572 45.1399C-9.3572 45.1399 -9.3572 45.1399 -9.3572 45.1399Z"></path>
    <path fill="#A34F38" transform="matrix(1.1103 0 0 1.1103 192.15 46.4054)" d="M8.15001 -6.8C-4.64998 -9.1 -6.64998 17.4 -6.64998 17.4C-7.74998 8.89999 -8.14998 -3.5 -2.54998 -10.7C2.65001 -17.4 6.05001 -12.3 8.15001 -6.8C8.15001 -6.8 8.15001 -6.8 8.15001 -6.8Z"></path>
    <path fill="#A34F38" transform="matrix(1.1103 0 0 1.1103 212.746 35.1358)" d="M8 -1.65C0.799999 -6.35 -8 10.25 -8 10.25C-7.6 6.15 -6 -4.25 0.4 -7.65C4.7 -10.25 6.9 -6.05 8 -1.65C8 -1.65 8 -1.65 8 -1.65Z"></path>
    <path fill="#A34F38" transform="matrix(1.1103 0 0 1.1103 235.008 31.4163)" d="M10.35 1.4C3.14998 -6.1 -9.85001 6.3 -10.35 6.7C-8.65001 2.5 -3.95001 -6.2 2.14998 -6.5C6.14998 -6.7 9.44998 -3.6 10.35 1.4Z"></path>
    <path fill="#752816" transform="matrix(1.1103 0 0 1.1103 215.289 46.4462)" d="M-26.95 21.1632C-27.65 21.1632 -28.15 20.7632 -28.15 20.2632C-29.45 12.0632 -30.75 -2.63679 -24.25 -11.1368C-21.95 -14.0368 -19.65 -15.3368 -17.55 -14.6368C-14.25 -13.8368 -12.15 -8.83679 -10.85 -4.63679C-9.85 -9.63679 -7.55 -16.0368 -2.55 -18.7368C-0.962993 -19.774 1.05609 -19.8883 2.75 -19.0368C5.65 -17.3368 6.85 -12.6368 7.45 -9.03679C9.65 -13.7368 14.05 -20.7368 20.15 -21.1368C22.9339 -21.1632 25.5522 -19.8167 27.15 -17.5368C30.35 -13.2368 30.75 -6.23679 28.15 0.563211C27.9252 1.09826 27.3262 1.36984 26.7756 1.18631C26.2251 1.00279 25.9088 0.426124 26.05 -0.136788C28.75 -7.33679 27.45 -13.2368 25.35 -16.1368C24.2228 -17.8489 22.2996 -18.867 20.25 -18.8368C13.05 -18.4368 7.85 -4.33679 7.85 -4.13679C7.68157 -3.58674 7.10191 -3.27462 6.54999 -3.43679C6.02899 -3.60722 5.62043 -4.01578 5.45 -4.53679C5.35 -8.63679 4.15 -15.6368 1.45 -17.1368C0.468734 -17.583 -0.676521 -17.4685 -1.54999 -16.8368C-8.95 -12.8368 -9.45 1.76321 -9.45 1.86321C-9.45 2.56321 -9.85 2.86321 -10.55 2.96321C-11.25 2.96321 -11.75 2.56321 -11.75 2.06321C-12.55 -3.13679 -14.95 -11.7368 -18.15 -12.6368C-19.65 -13.0368 -21.35 -11.3368 -22.45 -9.93679C-28.45 -2.13679 -27.15 11.9632 -25.95 19.7632C-25.75 20.3632 -26.25 20.9632 -26.95 21.1632C-26.95 21.1632 -26.95 21.1632 -26.95 21.1632Z"></path>
    <path fill="white" transform="matrix(1.1103 0 0 1.1103 238.505 144.267)" d="M-16.4 2.15002C-15 13.45 -6.4 21.75 2.6 20.55C11.6 19.35 17.8 9.15001 16.4 -2.14998C15 -13.45 6.4 -21.75 -2.6 -20.55C-11.6 -19.35 -17.8 -9.13998 -16.4 2.15002C-16.4 2.15002 -16.4 2.15002 -16.4 2.15002Z"></path>
    <path fill="#22213F" transform="matrix(1.1103 0 0 1.1103 240.471 137.062)" d="M-10.57 1.35C-9.67 8.75 -4.07 14.15 1.83 13.35C7.73 12.55 11.63 6.05 10.73 -1.35C9.83 -8.75 4.23 -14.15 -1.67 -13.35C-7.57 -12.55 -11.63 -6.05 -10.57 1.35C-10.57 1.35 -10.57 1.35 -10.57 1.35Z"></path>
    <path fill="white" transform="matrix(1.1103 0 0 1.1103 230.742 134.452)" d="M-0.40763 -2.3C0.959889 -2.58988 2.32998 -1.81921 2.79237 -0.5C2.86763 0.178073 2.66585 0.85781 2.2328 1.385C1.79976 1.91219 1.17215 2.24213 0.492363 2.29999C-0.875139 2.58988 -2.24523 1.81921 -2.70762 0.5C-2.86763 -0.700003 -1.80763 -1.9 -0.40763 -2.3Z"></path>
    <path fill="#AD5A40" transform="matrix(0.824185 -0.566321 0.566321 0.824185 219.811 111.983)" d="M-22.5839 -15.1635L22.5839 -15.1635L22.5839 15.1635L-22.5839 15.1635L-22.5839 -15.1635Z"></path>
    <path fill="#AD5A40" transform="matrix(0.824185 -0.566321 0.566321 0.824185 262.941 174.751)" d="M-22.5839 -15.1635L22.5839 -15.1635L22.5839 15.1635L-22.5839 15.1635L-22.5839 -15.1635Z"></path>
    <path fill="#752816" transform="matrix(1.1103 0 0 1.1103 238.561 144.056)" d="M1.85 22.55C-7.55 23.05 -16.25 14.45 -17.85 2.65C-18.7862 -3.74023 -17.1696 -10.2422 -13.35 -15.45C-10.8301 -18.8836 -7.05662 -21.1837 -2.85 -21.85C6.95 -23.05 16.35 -14.15 17.85 -2.05C18.7862 4.34022 17.1696 10.8422 13.35 16.05C10.8301 19.4836 7.05663 21.7837 2.85 22.45C2.51357 22.4336 2.17656 22.4673 1.85002 22.55C1.85002 22.55 1.85 22.55 1.85 22.55ZM-1.55 -18.85C-1.55 -18.85 -2.35 -18.85 -2.35 -18.85C-5.8469 -18.4064 -8.98191 -16.4743 -10.95 -13.55C-14.15 -9.45 -15.55 -3.75 -14.65 2.35C-13.25 12.85 -5.45 20.65 2.75 19.55C6.2469 19.1064 9.38191 17.1743 11.35 14.25C14.55 10.15 15.95 4.45 15.05 -1.65C13.65 -11.75 6.35 -19.25 -1.55 -18.85C-1.55 -18.85 -1.55 -18.85 -1.55 -18.85Z"></path>
    <path fill="#8E3C29" transform="matrix(1.1103 0 0 1.1103 212.191 86.4873)" d="M4.6 4.4C-0.700001 10 -7.2 12.6 -9.6 10.1C-12.2 7.6 -9.9 1.2 -4.6 -4.4C0.7 -10 7.2 -12.6 9.6 -10.1C12.2 -7.5 9.9 -1.1 4.6 4.4Z"></path>
    <path fill="#752816" transform="matrix(1.1103 0 0 1.1103 212.191 86.4639)" d="M-6.5 12.321C-7.92757 12.479 -9.35271 12.0039 -10.4 11.021C-12 9.42103 -12.3 7.02103 -11.1 3.82103C-8.54187 -2.86342 -3.43436 -8.25868 3.1 -11.179C6.2 -12.479 8.8 -12.279 10.4 -10.779C12 -9.27897 12.3 -6.77897 11.1 -3.57897C8.54188 3.10549 3.43436 8.50075 -3.1 11.421C-4.17225 11.9168 -5.32289 12.2214 -6.5 12.321C-6.5 12.321 -6.5 12.321 -6.5 12.321ZM6.6 -9.87897C5.64429 -9.80332 4.70279 -9.60157 3.8 -9.27897C0.835086 -8.02725 -1.82529 -6.15134 -4 -3.77897C-6.25796 -1.49257 -8.02717 1.22929 -9.19999 4.22104C-9.9 6.42103 -10 8.22103 -9.1 9.12103C-8.2 10.021 -6.4 9.92103 -4.2 9.02103C-1.23508 7.76932 1.4253 5.89341 3.6 3.52103C5.85798 1.23464 7.62719 -1.48722 8.80001 -4.47896C9.5 -6.67897 9.6 -8.47897 8.7 -9.37897C8.0501 -9.71131 7.32993 -9.88278 6.6 -9.87897C6.6 -9.87897 6.6 -9.87897 6.6 -9.87897Z"></path>
    <path fill="white" transform="matrix(1.1103 0 0 1.1103 296.541 119.286)" d="M-15.97 4.64999C-12.77 15.65 -2.97 22.45 5.83 19.95C14.63 17.45 19.13 6.34999 15.83 -4.65001C12.53 -15.65 2.83 -22.45 -5.97 -19.95C-14.77 -17.45 -19.13 -6.35001 -15.97 4.64999C-15.97 4.64999 -15.97 4.64999 -15.97 4.64999Z"></path>
    <path fill="#22213F" transform="matrix(1.1103 0 0 1.1103 297.074 111.747)" d="M-10.35 3.04999C-8.35 10.15 -1.95 14.65 3.75 12.95C9.45 11.25 12.35 4.04999 10.25 -3.05001C8.15 -10.15 1.85 -14.65 -3.85 -12.95C-9.55 -11.25 -12.35 -4.15001 -10.35 3.04999Z"></path>
    <path fill="white" transform="matrix(1.1103 0 0 1.1103 287.09 110.803)" d="M-0.618118 -2.2C-0.000564873 -2.51892 0.723689 -2.55934 1.3729 -2.31112C2.0221 -2.06289 2.53464 -1.54958 2.78188 -0.9C3.05812 0.440821 2.2833 1.77523 0.981896 2.20001C0.364326 2.51892 -0.359928 2.55934 -1.00913 2.31112C-1.65834 2.06289 -2.17087 1.54958 -2.41812 0.9C-3.05812 -0.499999 -2.15812 -1.8 -0.618118 -2.2Z"></path>
    <path fill="#AD5A40" transform="matrix(0.824185 -0.566321 0.566321 0.824185 272.163 88.1922)" d="M-20.0405 -15.1635L20.5002 -15.1635L20.5002 15.1635L-20.0405 15.1635L-20.0405 -15.1635Z"></path>
    <path fill="#AD5A40" transform="matrix(0.824185 -0.566321 0.566321 0.824185 314.965 145.763)" d="M-22.5839 -15.1635L22.5839 -15.1635L22.5839 15.1635L-22.5839 15.1635L-22.5839 -15.1635Z"></path>
    <path fill="#752816" transform="matrix(1.1103 0 0 1.1103 296.508 118.408)" d="M2.9 22.75C-5.7 23.25 -14.3 16.25 -17.3 5.85C-19.1 -0.65 -18.7 -7.45 -15.8 -12.55C-13.7868 -16.3232 -10.377 -19.1587 -6.29999 -20.45C3.3 -23.25 13.7 -15.95 17.3 -4.25C19.1 2.25 18.7 9.05 15.8 14.15C13.7868 17.9232 10.377 20.7587 6.30001 22.05C5.20087 22.4263 4.0584 22.6616 2.9 22.75C2.9 22.75 2.9 22.75 2.9 22.75ZM-2.8 -18.15C-3.74136 -18.0319 -4.67596 -17.865 -5.60001 -17.65C-8.94344 -16.62 -11.7235 -14.2732 -13.3 -11.15C-15.9 -6.55 -16.2 -0.65 -14.6 5.05C-11.6 15.25 -2.6 21.55 5.3 19.25C8.64345 18.22 11.4235 15.8732 13 12.75C15.6 8.15 15.9 2.25 14.3 -3.45C11.66 -12.56 4.36 -18.56 -2.84 -18.15C-2.84 -18.15 -2.8 -18.15 -2.8 -18.15Z"></path>
    <path fill="#AD5A40" transform="matrix(1.1103 0 0 1.1103 289.879 194.631)" d="M59.93 25.3C-4.27 76.5 -90.57 60.5 -103.87 10.4C-79.57 -16.3 -6.07 -58.9 42.63 -66.8C95.23 -76.5 103.87 -11.7 59.93 25.3Z"></path>
    <path fill="#752816" transform="matrix(1.1103 0 0 1.1103 276.811 186.525)" d="M-15.2 66.8C-35.6 67.9 -52.9667 63.1333 -67.3 52.5C-99.5 28.4 -104.1 -19.2 -104.2 -19.7C-104.2 -20.4 -103.4 -19.6 -102.8 -19.6C-102.2 -19.6 -101.9 -20.1 -101.9 -19.4C-101.9 -18.9 -97.3 27.3 -65.8 50.8C-48.1 64 -24.9 67.9 2.8 62.2C64.6 49.6 86.2 19.4 93.6 2.6C102.1 -17 99 -33.7 94 -42C81 -63.2 68.4 -66.2 10.4 -44.2C-8.8 -36.9 -28.7 -26.2 -48.7 -12.6C-49.2428 -12.257 -49.9516 -12.3404 -50.4 -12.8C-50.7353 -13.3446 -50.6525 -14.0481 -50.2 -14.5C-31.6489 -27.4538 -11.6463 -38.1934 9.39999 -46.5C65.8 -67.9 81 -67.4 95.7 -43.5C101.1 -34.7 104.2 -17.1 95.5 3.2C88 20.4 66.1 51.3 3.2 64.2C-2.85408 65.5566 -9.00709 66.426 -15.2 66.8C-15.2 66.8 -15.2 66.8 -15.2 66.8Z"></path>
    <path fill="#8E3C29" transform="matrix(1.1103 0 0 1.1103 271.592 83.434)" d="M-0.3 6.35001C-8.1 5.95001 -14.2 2.85001 -13.9 -0.649992C-13.8 -4.14999 -7.3 -6.74999 0.3 -6.34999C8.1 -5.94999 14.2 -2.84999 13.9 0.650008C13.8 4.05001 7.34 6.75001 -0.3 6.35001Z"></path>
    <path fill="#752816" transform="matrix(1.1103 0 0 1.1103 271.648 83.1009)" d="M2.75 7.74999C1.71908 7.85001 0.680908 7.85001 -0.350004 7.74999C-8.95 7.34999 -15.25 3.74999 -15.15 -0.550012C-14.85 -4.85001 -8.25 -7.85001 0.35 -7.35001C8.95 -6.85001 15.25 -3.35001 15.15 0.949988C15.15 3.04999 13.25 5.04999 10.15 6.34999C7.77094 7.19791 5.27437 7.67023 2.74999 7.74998C2.74999 7.74998 2.75 7.74999 2.75 7.74999ZM-2.71 -5.15001C-8.61 -4.85001 -12.61 -2.65001 -12.81 -0.450012C-13.01 2.04999 -7.71 5.04999 -0.31 5.44999C2.90857 5.58052 6.12483 5.14039 9.19 4.14999C11.49 3.24999 12.69 1.94999 12.79 0.849988C12.99 -1.65001 7.69 -4.65001 0.29 -5.05001C-0.85 -5.05001 -1.85 -5.15001 -2.71 -5.15001C-2.71 -5.15001 -2.71 -5.15001 -2.71 -5.15001Z"></path>
    <path fill="#22213F" transform="matrix(1.1103 0 0 1.1103 349.536 127.502)" d="M26.5 6.36027C22.6 11.0603 16.7 13.8603 8.49997 14.1603C6.79739 14.2397 5.09112 14.1728 3.39998 13.9603C-11.4 12.6603 -29.3 -1.43973 -17.2 -7.13973C-9.60003 -10.6397 -3.30003 -12.3397 2.09997 -12.8397C22.8 -14.2397 29.3 2.86027 26.5 6.36027C26.5 6.36027 26.5 6.36027 26.5 6.36027Z"></path>
    <path fill="#3A4668" transform="matrix(1.1103 0 0 1.1103 337.988 128.168)" d="M18.9 13.4603C17.1974 13.5397 15.4912 13.4728 13.8 13.2603C-1 11.9603 -18.9 -2.13973 -6.8 -7.83973C0.8 -11.3397 7.1 -13.0397 12.5 -13.5397C12.5 -13.5397 -2 -7.43973 -2.7 -2.83973C-3.7 4.06027 18.9 13.4603 18.9 13.4603C18.9 13.4603 18.9 13.4603 18.9 13.4603Z"></path>
    <path fill="#22213F" transform="matrix(1.1103 0 0 1.1103 353.311 124.422)" d="M6 17.9341C3.96501 18.0658 1.92201 17.9989 -0.0999907 17.7341C-11.5 16.7341 -24.3 8.63415 -25.6 1.63415C-25.9 -0.165851 -25.7 -3.26585 -21 -5.56585C5.2 -18.0658 17.3 -7.66585 21.2 -2.46585C24.6 1.93415 25.9 7.33415 24 9.73415C20 14.9341 13.74 17.5341 6 17.9341C6 17.9341 6 17.9341 6 17.9341ZM-0.6 -8.86585C-5.9 -8.56585 -12.4 -6.86585 -20.3 -3.36585C-22.9 -2.26585 -23.9 -0.665851 -23.5 1.43415C-22.5 6.83415 -10.9 14.7341 -0.1 15.6341C9.8 16.5341 17.5 14.0341 22.1 8.33415C22.9 7.43415 22.5 3.33415 19.3 -0.865851C16.8 -4.06585 10.9 -9.46585 -0.6 -8.86585Z"></path>
    <path fill="#752816" transform="matrix(-1.11027 -0.00856095 0.00856095 -1.11027 291.353 184.538)" d="M9.00276 5.68988C8.62682 5.71009 8.26104 5.56378 8.00275 5.28987C1.90276 -2.91012 -8.19724 1.08988 -8.39724 1.18988C-8.97715 1.4384 -9.64872 1.16977 -9.89725 0.589874C-10.1458 0.00997502 -9.87715 -0.661598 -9.29725 -0.910126C-9.09724 -0.910122 2.80276 -5.71012 9.80276 3.98988C10.1458 4.5327 10.0624 5.24148 9.60276 5.68988C9.54276 5.48988 9.10276 5.68988 9.00276 5.68988Z"></path>
  </g>
</svg>