<svg width="40" height="38" viewBox="0 0 40 38" fill="none" xmlns="http://www.w3.org/2000/svg">
<path d="M29.3543 37.8747C28.5731 37.8743 27.8039 37.682 27.1143 37.3147L20.6343 33.9147C20.4899 33.8367 20.3285 33.7955 20.1643 33.7947C19.9968 33.7939 19.8317 33.8351 19.6843 33.9147L13.2143 37.3147C12.4185 37.739 11.5195 37.9311 10.6198 37.869C9.72006 37.8068 8.85595 37.493 8.12604 36.9633C7.39614 36.4336 6.82986 35.7094 6.49183 34.8732C6.1538 34.0371 6.05764 33.1228 6.21433 32.2347L7.45433 25.0347C7.48449 24.87 7.47283 24.7004 7.42042 24.5414C7.368 24.3824 7.27651 24.2391 7.15433 24.1247L1.91433 19.0147C1.27366 18.3866 0.821032 17.5921 0.607389 16.7207C0.393747 15.8493 0.42757 14.9355 0.705053 14.0823C0.982536 13.229 1.49266 12.4702 2.17801 11.8911C2.86337 11.3121 3.69674 10.9358 4.58433 10.8047L11.8243 9.8047C11.9891 9.78272 12.1458 9.72 12.2802 9.62222C12.4147 9.52445 12.5226 9.3947 12.5943 9.24471L15.8343 2.68471C16.2312 1.87897 16.8457 1.20044 17.6083 0.72596C18.3709 0.251479 19.2512 0 20.1493 0C21.0475 0 21.9277 0.251479 22.6903 0.72596C23.4529 1.20044 24.0675 1.87897 24.4643 2.68471L27.7043 9.24471C27.776 9.3947 27.884 9.52445 28.0184 9.62222C28.1528 9.72 28.3096 9.78272 28.4743 9.8047L35.7143 10.8047C36.604 10.9323 37.4402 11.3067 38.1279 11.8853C38.8157 12.4639 39.3276 13.2237 39.6056 14.0784C39.8835 14.9331 39.9165 15.8486 39.7006 16.7211C39.4848 17.5936 39.0287 18.3882 38.3843 19.0147L33.1543 24.1347C33.0339 24.2502 32.9443 24.3939 32.8937 24.5528C32.843 24.7118 32.8329 24.8809 32.8643 25.0447L34.0943 32.2447C34.2137 32.936 34.1807 33.6451 33.9976 34.3223C33.8146 34.9996 33.4859 35.6287 33.0345 36.1658C32.5831 36.7029 32.02 37.135 31.3843 37.4319C30.7487 37.7287 30.0559 37.8833 29.3543 37.8847V37.8747Z" fill="#AFA5A5"/>
<path d="M22.7746 3.47496L25.9846 10.035C26.1945 10.4588 26.5045 10.8251 26.8878 11.1022C27.2712 11.3792 27.7163 11.5587 28.1846 11.625L35.4246 12.685C35.9679 12.7603 36.479 12.9871 36.8994 13.3395C37.3198 13.6918 37.6324 14.1555 37.8015 14.6773C37.9705 15.1991 37.9892 15.758 37.8554 16.2899C37.7215 16.8219 37.4405 17.3053 37.0446 17.685L31.8046 22.785C31.4654 23.1165 31.2118 23.5253 31.0655 23.9765C30.9191 24.4276 30.8845 24.9075 30.9646 25.375L32.1946 32.575C32.283 33.1079 32.2214 33.655 32.0166 34.1548C31.8117 34.6547 31.4718 35.0878 31.0348 35.4054C30.5978 35.723 30.081 35.9127 29.5423 35.9533C29.0036 35.9938 28.4642 35.8836 27.9846 35.635L21.5046 32.235C21.0873 32.0134 20.622 31.8976 20.1496 31.8976C19.6771 31.8976 19.2119 32.0134 18.7946 32.235L12.3146 35.635C11.8327 35.8909 11.2886 36.0062 10.7444 35.9678C10.2002 35.9293 9.67769 35.7386 9.23663 35.4174C8.79557 35.0963 8.45367 34.6576 8.24997 34.1515C8.04626 33.6453 7.98895 33.0921 8.08458 32.555L9.31458 25.355C9.39726 24.8875 9.3639 24.4068 9.21744 23.9553C9.07098 23.5037 8.81589 23.0949 8.47458 22.765L3.24458 17.665C2.84886 17.286 2.56775 16.8033 2.43339 16.2721C2.29903 15.7409 2.31684 15.1826 2.48478 14.6611C2.65272 14.1395 2.96401 13.6758 3.38308 13.3228C3.80214 12.9698 4.31208 12.7418 4.85458 12.665L12.0946 11.605C12.5634 11.5403 13.0093 11.3616 13.3929 11.0843C13.7765 10.8071 14.0861 10.4399 14.2946 10.015L17.5346 3.45496C17.7745 2.96333 18.1482 2.54929 18.6127 2.26034C19.0772 1.97138 19.6138 1.81922 20.1609 1.82131C20.7079 1.8234 21.2433 1.97965 21.7056 2.27214C22.1679 2.56463 22.5384 2.98151 22.7746 3.47496Z" fill="#AFA5A5"/>
<g style="mix-blend-mode:multiply">
<path d="M29.3544 34.465C29.1242 34.4608 28.8981 34.4026 28.6945 34.295L22.2244 30.895C21.5875 30.5604 20.8789 30.3856 20.1594 30.3856C19.44 30.3856 18.7313 30.5604 18.0944 30.895L11.6244 34.295C11.3396 34.4506 11.009 34.5008 10.6907 34.4368C10.3725 34.3728 10.087 34.1987 9.88445 33.945C9.75231 33.7916 9.65667 33.6102 9.60471 33.4144C9.55275 33.2187 9.54582 33.0138 9.58444 32.815L10.8244 25.605C10.9458 24.8968 10.8926 24.1696 10.6696 23.4866C10.4466 22.8035 10.0604 22.1851 9.54444 21.685L4.30444 16.575C4.1167 16.3925 3.98392 16.1609 3.92117 15.9067C3.85842 15.6525 3.86822 15.3858 3.94946 15.1369C4.0307 14.8879 4.18012 14.6668 4.38075 14.4985C4.58138 14.3303 4.82517 14.2217 5.08444 14.185L12.3244 13.185C13.0364 13.0809 13.7124 12.8053 14.2942 12.382C14.8761 11.9587 15.3463 11.4004 15.6644 10.755L18.9044 4.135C19.0201 3.90098 19.199 3.70396 19.4207 3.56622C19.6425 3.42847 19.8984 3.35547 20.1594 3.35547C20.4205 3.35547 20.6764 3.42847 20.8981 3.56622C21.1199 3.70396 21.2987 3.90098 21.4144 4.135L24.6544 10.695C24.9711 11.3405 25.4395 11.8996 26.0194 12.3245C26.5993 12.7495 27.2736 13.0275 27.9844 13.135L35.2245 14.135C35.4837 14.1716 35.7275 14.2803 35.9281 14.4485C36.1288 14.6168 36.2782 14.8379 36.3594 15.0869C36.4407 15.3358 36.4505 15.6025 36.3877 15.8567C36.325 16.1109 36.1922 16.3425 36.0044 16.525L30.7644 21.635C30.2485 22.1351 29.8623 22.7535 29.6393 23.4366C29.4163 24.1196 29.3631 24.8468 29.4844 25.555L30.7245 32.765C30.7631 32.9638 30.7561 33.1687 30.7042 33.3644C30.6522 33.5602 30.5566 33.7416 30.4244 33.895C30.2978 34.0616 30.1366 34.1988 29.9519 34.2972C29.7672 34.3956 29.5634 34.4528 29.3544 34.465Z" fill="#AFA5A5"/>
</g>
<path opacity="0.2" d="M23.9843 27.535C22.8039 26.9174 21.4915 26.5947 20.1593 26.5947C18.8271 26.5947 17.5147 26.9174 16.3343 27.535L14.1443 28.685L14.5543 26.245C14.7817 24.9312 14.6856 23.5817 14.2744 22.3132C13.8633 21.0448 13.1493 19.8956 12.1943 18.965L10.4243 17.235L12.8743 16.885C14.1931 16.6915 15.4453 16.181 16.5234 15.3972C17.6015 14.6135 18.4734 13.5798 19.0643 12.385L20.1643 10.165L21.2543 12.385C21.8475 13.5801 22.7213 14.6136 23.8011 15.3973C24.8808 16.181 26.1343 16.6914 27.4543 16.885L29.9043 17.235L28.1243 18.965C27.1693 19.8956 26.4554 21.0448 26.0442 22.3132C25.633 23.5817 25.5369 24.9312 25.7643 26.245L26.1843 28.685L23.9843 27.535Z" fill="white"/>
<path d="M17.6445 5.76549C16.7145 7.90549 16.5445 10.7655 14.5645 12.3155C12.3445 14.0455 17.7745 16.0555 18.4545 10.4555C18.6645 8.68549 18.4545 6.45549 19.7145 4.90549C21.9845 2.36549 19.1745 2.21549 17.6445 5.76549Z" fill="white"/>
<path opacity="0.5" d="M11.1544 33.3254C10.1544 32.1954 10.1544 30.4354 10.5044 28.9354C10.8544 27.4354 11.4145 25.9354 11.1745 24.4054C10.8445 22.4054 9.17445 20.9254 7.73445 19.5654C6.29445 18.2054 4.67445 16.5654 4.56445 14.5654C5.13445 16.3254 6.89445 17.2754 8.46445 18.2554C10.0345 19.2354 11.7045 20.3454 12.3045 22.0854C12.9045 23.8254 12.1745 25.8854 11.5245 27.6954C10.8745 29.5054 10.1944 31.6554 11.1544 33.3254Z" fill="white"/>
<g style="mix-blend-mode:multiply">
<path d="M34.9845 15.1348C34.9845 16.8248 33.7945 18.2748 32.5445 19.4148C31.2945 20.5548 29.8745 21.6848 29.3745 23.3148C28.8045 25.1448 29.5545 27.0948 30.1445 28.9348C30.7345 30.7748 31.0845 32.9348 29.9045 34.4648C29.3234 34.4989 28.7415 34.4155 28.1934 34.2197C27.6453 34.0238 27.1423 33.7194 26.7145 33.3248C27.0019 33.3807 27.2977 33.3782 27.5842 33.3174C27.8706 33.2565 28.1419 33.1385 28.3817 32.9706C28.6216 32.8026 28.8252 32.5879 28.9803 32.3395C29.1354 32.0911 29.2388 31.814 29.2845 31.5248C29.4107 30.3419 29.1436 29.1505 28.5245 28.1348C27.911 27.1207 27.4906 26.0019 27.2845 24.8348C27.0945 22.6948 28.6345 20.8348 30.2845 19.4248C31.9345 18.0148 33.8545 16.9548 34.9845 15.1348Z" fill="#AFA5A5"/>
</g>
</svg>
