<svg width="171" height="139" viewBox="0 0 171 139" fill="none" xmlns="http://www.w3.org/2000/svg">
<g id="_&#195;&#131;&#194;&#171;&#195;&#131;&#194;&#174;&#195;&#131;&#194;&#169;_1" clip-path="url(#clip0_2138_2923)">
<path id="Vector" d="M166.515 39.7402C160.826 24.3559 145.398 13.3232 129.06 17.1206C113.683 20.6951 102.63 34.3125 87.9585 39.768C72.5764 45.4875 59.2375 41.4349 45.3773 34.6465C33.4303 28.7953 19.1493 24.1024 9.17267 36.9221C-1.64604 50.8229 -0.199209 72.1062 5.12788 87.57C10.3799 102.816 20.7212 115.397 34.0962 123.563C60.7538 139.838 98.3648 141.168 126.633 126.058C155.856 110.438 178.916 73.2774 166.515 39.7396V39.7402Z" stroke="#C8DEF4" stroke-width="1.11166" stroke-miterlimit="10"/>
<path id="Vector_2" d="M152.135 13.9641C141.714 1.29781 123.519 -4.06207 109.332 4.88626C95.9791 13.3077 90.0056 29.7981 77.9363 39.7653C65.2822 50.2149 51.3525 50.7629 36.0321 48.8981C22.8267 47.2907 7.79642 47.543 2.57827 62.9262C-3.08065 79.6073 5.26961 99.2381 15.3752 112.098C25.339 124.776 39.2354 133.268 54.5491 136.594C85.0709 143.222 121.037 132.138 142.782 108.589C165.262 84.2462 174.854 41.5767 152.136 13.9641H152.135Z" fill="#C8DEF4"/>
<g id="Group">
<path id="Vector_3" d="M85.1064 32.8124L38.311 73.0157L39.182 91.2064C39.182 93.3764 41.7994 124.139 44.2889 124.139L87.9834 94.8982L127.354 121.137C129.844 121.137 134.65 92.5487 134.65 90.3788L137.56 72.9729L90.7231 32.8124C89.0795 31.6713 86.7495 31.6713 85.1059 32.8124H85.1064Z" fill="#211F44"/>
<path id="Vector_4" d="M125.575 47.2104H50.0746C48.0627 47.2104 46.4317 48.8414 46.4317 50.8534V127.759C46.4317 129.771 48.0627 131.402 50.0746 131.402H125.575C127.587 131.402 129.218 129.771 129.218 127.759V50.8534C129.218 48.8414 127.587 47.2104 125.575 47.2104Z" fill="white"/>
<g id="Group_2">
<g id="Group_3">
<path id="Vector_5" d="M71.4413 96.2536H53.8937C53.2139 96.2536 52.6625 95.7022 52.6625 95.0224V77.4748C52.6625 76.795 53.2139 76.2437 53.8937 76.2437H71.4413C72.1211 76.2437 72.6725 76.795 72.6725 77.4748V95.0224C72.6725 95.7022 72.1211 96.2536 71.4413 96.2536ZM55.1243 93.7918H70.2101V78.706H55.1243V93.7918Z" fill="#C8DEF4"/>
<path id="Vector_6" d="M125.131 91.454H81.3346C80.6548 91.454 80.1034 90.9026 80.1034 90.2229C80.1034 89.5431 80.6548 88.9917 81.3346 88.9917H125.131C125.811 88.9917 126.362 89.5431 126.362 90.2229C126.362 90.9026 125.811 91.454 125.131 91.454Z" fill="#749DD3"/>
<path id="Vector_7" d="M61.4697 92.2771C61.4597 92.2771 61.4497 92.2771 61.4397 92.2771C60.9889 92.266 60.5804 92.0098 60.3747 91.6085L58.2281 87.4242C57.9179 86.8194 58.1564 86.0774 58.7617 85.7672C59.3664 85.4571 60.1085 85.6955 60.4186 86.3008L61.5325 88.4725L65.9303 80.8387C66.2699 80.2501 67.0219 80.0472 67.6111 80.3868C68.2003 80.7264 68.4026 81.479 68.063 82.0676L62.5358 91.6613C62.3157 92.0431 61.9088 92.2777 61.4692 92.2777L61.4697 92.2771Z" fill="#314982"/>
<path id="Vector_8" d="M103.349 81.0444H81.3245C80.6504 81.0444 80.1039 81.5908 80.1039 82.2648C80.1039 82.9387 80.6504 83.4851 81.3245 83.4851H103.349C104.023 83.4851 104.569 82.9387 104.569 82.2648C104.569 81.5908 104.023 81.0444 103.349 81.0444Z" fill="#C8DEF4"/>
</g>
<g id="Group_4">
<path id="Vector_9" d="M71.4413 73.444H53.8937C53.2139 73.444 52.6625 72.8926 52.6625 72.2129V54.6652C52.6625 53.9855 53.2139 53.4341 53.8937 53.4341H71.4413C72.1211 53.4341 72.6725 53.9855 72.6725 54.6652V72.2129C72.6725 72.8926 72.1211 73.444 71.4413 73.444ZM55.1243 70.9822H70.2101V55.8964H55.1243V70.9822Z" fill="#C8DEF4"/>
<path id="Vector_10" d="M114.665 60.6967H81.1823C80.5864 60.6967 80.1039 60.1453 80.1039 59.4655C80.1039 58.7858 80.587 58.2344 81.1823 58.2344H114.665C115.26 58.2344 115.743 58.7858 115.743 59.4655C115.743 60.1453 115.26 60.6967 114.665 60.6967Z" fill="#C8DEF4"/>
<path id="Vector_11" d="M122.499 68.6445H81.2629C80.6231 68.6445 80.1039 68.0931 80.1039 67.4133C80.1039 66.7335 80.6231 66.1821 81.2629 66.1821H122.499C123.139 66.1821 123.658 66.7335 123.658 67.4133C123.658 68.0931 123.139 68.6445 122.499 68.6445Z" fill="#749DD3"/>
<path id="Vector_12" d="M61.4697 69.4676C61.4597 69.4676 61.4497 69.4676 61.4397 69.4676C60.9889 69.4565 60.5804 69.2002 60.3747 68.7989L58.2281 64.6146C57.9179 64.0099 58.1564 63.2678 58.7617 62.9577C59.3664 62.6475 60.1085 62.886 60.4186 63.4913L61.5325 65.6629L65.9303 58.0291C66.2699 57.4405 67.0219 57.2376 67.6111 57.5772C68.2003 57.9168 68.4026 58.6694 68.063 59.2581L62.5358 68.8517C62.3157 69.2336 61.9088 69.4681 61.4692 69.4681L61.4697 69.4676Z" fill="#314982"/>
</g>
</g>
<path id="Vector_13" d="M88.9427 103.419L111.523 81.2026C117.453 75.3681 125.917 72.0342 134.801 72.0342C136.887 72.0342 138.578 73.3598 138.578 74.9951V134.376C138.578 136.012 135.758 138.494 133.671 138.494H120.841L88.9422 107.109C87.8756 106.059 87.8756 104.47 88.9422 103.42L88.9427 103.419Z" fill="#262F5F"/>
<path id="Vector_14" d="M87.0246 103.379L64.4445 81.1621C58.5143 75.3275 50.0501 71.9937 41.1668 71.9937C39.0808 71.9937 37.3894 73.3193 37.3894 74.9546V134.692C37.3894 136.327 39.8106 138.494 41.8972 138.494L55.1265 138.454L87.0252 107.069C88.0918 106.019 88.0918 104.429 87.0252 103.38L87.0246 103.379Z" fill="#262F5F"/>
<path id="Vector_15" d="M138.579 122.222V135.028C138.579 136.942 136.56 138.493 134.071 138.493H41.8966C39.4076 138.493 37.3894 136.942 37.3894 135.028V122.222L85.1754 92.9579C85.953 92.4821 86.8845 92.2303 87.825 92.2053C88.8705 92.1769 89.9266 92.4282 90.7932 92.9579L138.579 122.222H138.579Z" fill="#2C447D"/>
<path id="Vector_16" d="M96.9329 95.5171L138.579 116.774V122.222L96.1836 96.2541L96.9329 95.5171Z" fill="#211F44"/>
<path id="Vector_17" d="M79.0351 95.5171L37.3894 116.774V122.222L79.7838 96.2541L79.0351 95.5171Z" fill="#211F44"/>
</g>
<g id="Group_5">
<g id="Group_6">
<path id="Vector_18" d="M64.1888 24.6514L54.4223 56.371L52.8571 61.4541L48.3954 57.6889L36.7335 47.8501L64.1888 24.6514Z" fill="#2C447D"/>
<path id="Vector_19" d="M64.1888 24.6514L30.2559 44.2489L14.821 39.1336L64.1888 24.6514Z" fill="#262F5F"/>
<path id="Vector_20" d="M64.1888 24.6514L36.7341 47.8507L31.4576 58.4004L30.2559 44.2489L64.1888 24.6514Z" fill="#211F44"/>
</g>
<path id="Vector_21" d="M74.4417 132.001C74.3894 132.001 74.3361 131.994 74.2827 131.978C73.1494 131.641 72.0121 131.254 70.9027 130.829C70.6159 130.719 70.473 130.397 70.5826 130.11C70.6926 129.824 71.0139 129.68 71.3007 129.79C72.384 130.205 73.494 130.583 74.6001 130.912C74.8941 131 75.062 131.309 74.9742 131.604C74.9025 131.845 74.6813 132.001 74.4417 132.001ZM66.8007 128.963C66.7167 128.963 66.6311 128.944 66.5511 128.903C65.4939 128.37 64.4423 127.789 63.4268 127.178C63.1639 127.019 63.0788 126.678 63.2372 126.415C63.3956 126.152 63.7369 126.067 64.0004 126.225C64.9925 126.823 66.0192 127.39 67.0519 127.91C67.3259 128.049 67.436 128.383 67.2981 128.657C67.2003 128.851 67.0047 128.963 66.8012 128.963H66.8007ZM59.8105 124.632C59.6949 124.632 59.5782 124.596 59.4781 124.522C58.5277 123.811 57.5933 123.055 56.7023 122.277C56.6062 122.193 56.5456 122.083 56.5228 121.966C56.0053 122.149 55.4739 122.306 54.9326 122.437C54.6346 122.509 54.3339 122.326 54.2617 122.028C54.1894 121.729 54.3728 121.429 54.6713 121.357C55.793 121.085 56.8657 120.694 57.8596 120.193C58.1336 120.055 58.4676 120.165 58.606 120.439C58.7439 120.713 58.6338 121.048 58.3598 121.185C58.1008 121.316 57.8368 121.439 57.5683 121.556C58.3982 122.275 59.2641 122.972 60.1446 123.631C60.3903 123.815 60.4408 124.163 60.2569 124.409C60.1479 124.555 59.9806 124.632 59.8111 124.632H59.8105ZM50.1329 122.892C50.1241 122.892 50.1152 122.892 50.1063 122.891C48.9307 122.836 47.724 122.666 46.5184 122.388C46.2193 122.319 46.0326 122.021 46.1015 121.722C46.1704 121.423 46.4689 121.236 46.7679 121.305C47.9085 121.568 49.0496 121.728 50.1585 121.781C50.4653 121.795 50.7021 122.056 50.6871 122.362C50.6732 122.66 50.427 122.892 50.1324 122.892H50.1329ZM42.1962 120.889C42.1201 120.889 42.0434 120.874 41.9694 120.84C40.9139 120.368 39.8428 119.81 38.7851 119.181C38.5211 119.024 38.4344 118.683 38.5917 118.419C38.7484 118.154 39.0897 118.068 39.3537 118.225C40.3748 118.832 41.4075 119.371 42.4241 119.825C42.7043 119.951 42.8299 120.279 42.7043 120.56C42.612 120.766 42.4091 120.889 42.1968 120.889L42.1962 120.889ZM53.6886 119.143C53.5385 119.143 53.3885 119.083 53.279 118.963C52.4491 118.059 51.6982 117.103 51.0467 116.123C50.8766 115.867 50.9461 115.522 51.2018 115.353C51.4575 115.182 51.8027 115.252 51.9722 115.508C52.5919 116.44 53.3073 117.35 54.0977 118.212C54.305 118.438 54.29 118.79 54.0638 118.997C53.9571 119.095 53.8226 119.143 53.688 119.143H53.6886ZM61.861 118.451C61.7265 118.451 61.5909 118.402 61.4841 118.303C61.2585 118.095 61.2446 117.744 61.4525 117.518C61.7999 117.142 62.1217 116.741 62.409 116.327C62.7492 115.837 63.0488 115.305 63.2989 114.744C63.424 114.464 63.7525 114.338 64.0332 114.463C64.3133 114.588 64.4395 114.916 64.3144 115.197C64.036 115.821 63.7025 116.414 63.3223 116.961C63.0055 117.417 62.6514 117.858 62.2695 118.272C62.16 118.391 62.0105 118.451 61.861 118.451ZM35.1939 116.596C35.0738 116.596 34.9526 116.557 34.8509 116.478C33.9199 115.747 33.0078 114.961 32.1412 114.141C31.9183 113.93 31.9083 113.578 32.119 113.355C32.3297 113.131 32.6815 113.122 32.9049 113.333C33.747 114.129 34.633 114.893 35.5374 115.603C35.7786 115.792 35.8208 116.142 35.6313 116.383C35.5218 116.523 35.3584 116.596 35.1939 116.596ZM49.4482 112.159C49.2108 112.159 48.9907 112.006 48.9173 111.767C48.5827 110.681 48.4132 109.622 48.4132 108.621C48.4132 108.444 48.4188 108.265 48.4293 108.091C48.4482 107.785 48.7111 107.552 49.0179 107.57C49.3242 107.589 49.5577 107.852 49.5393 108.158C49.5299 108.31 49.5254 108.466 49.5254 108.621C49.5254 109.511 49.6783 110.46 49.9806 111.439C50.0713 111.733 49.9067 112.044 49.6132 112.134C49.5588 112.151 49.5037 112.159 49.4493 112.159H49.4482ZM64.7647 110.955C64.459 110.955 64.2099 110.708 64.2088 110.402C64.2044 109.253 64.0143 108.152 63.6441 107.128C63.5396 106.84 63.6891 106.521 63.9776 106.417C64.2661 106.313 64.5851 106.462 64.6896 106.751C65.1032 107.893 65.3155 109.121 65.3205 110.397C65.3216 110.704 65.0737 110.954 64.7669 110.955H64.7647ZM29.3076 110.863C29.1481 110.863 28.9897 110.794 28.8802 110.662C28.122 109.75 27.3944 108.792 26.718 107.813C26.5434 107.561 26.6063 107.215 26.8592 107.04C27.1115 106.866 27.4578 106.928 27.6323 107.181C28.2904 108.132 28.998 109.064 29.735 109.952C29.9312 110.188 29.899 110.538 29.6628 110.734C29.5588 110.82 29.4332 110.863 29.3076 110.863ZM50.7149 104.402C50.5821 104.402 50.4487 104.354 50.3425 104.258C50.1146 104.052 50.0974 103.701 50.303 103.473C51.1251 102.565 52.2201 101.859 53.4707 101.432C53.7614 101.333 54.0771 101.488 54.1761 101.778C54.275 102.068 54.1199 102.384 53.8298 102.483C52.7576 102.849 51.8232 103.449 51.1273 104.219C51.0178 104.34 50.8666 104.402 50.7149 104.402ZM24.732 104.035C24.533 104.035 24.3401 103.928 24.2406 103.74C23.6831 102.688 23.1673 101.6 22.7071 100.508C22.5882 100.225 22.721 99.8993 23.0039 99.7798C23.2868 99.6609 23.6125 99.7937 23.7321 100.077C24.1789 101.139 24.6809 102.196 25.2228 103.219C25.3668 103.49 25.2634 103.826 24.9921 103.97C24.9093 104.014 24.8198 104.035 24.732 104.035ZM61.4786 103.711C61.3607 103.711 61.2412 103.673 61.1406 103.596C60.3058 102.955 59.2797 102.49 58.1747 102.251C57.8746 102.186 57.6839 101.89 57.749 101.591C57.814 101.291 58.1091 101.099 58.4098 101.165C59.6749 101.438 60.8533 101.974 61.8176 102.714C62.0611 102.901 62.1072 103.25 61.9199 103.493C61.8104 103.636 61.6453 103.711 61.4786 103.711ZM21.6594 96.4131C21.417 96.4131 21.1947 96.2536 21.1252 96.0091C20.7984 94.8607 20.5227 93.6885 20.3065 92.5251C20.2503 92.2233 20.4493 91.9331 20.7511 91.877C21.0529 91.8209 21.3431 92.0198 21.3992 92.3217C21.6093 93.4511 21.8767 94.5895 22.1941 95.7045C22.278 95.9996 22.1068 96.307 21.8117 96.3915C21.7605 96.4059 21.7094 96.4126 21.6594 96.4126V96.4131ZM20.2859 88.3119C19.9935 88.3119 19.749 88.084 19.7317 87.7883C19.6878 87.0385 19.6656 86.2759 19.6656 85.5211C19.6656 85.0864 19.6728 84.6451 19.6873 84.2104C19.6973 83.9036 19.9557 83.6635 20.2614 83.6735C20.5683 83.6835 20.8089 83.9408 20.7984 84.2477C20.7845 84.6707 20.7773 85.0992 20.7773 85.5216C20.7773 86.2548 20.7989 86.9957 20.8412 87.7238C20.859 88.0301 20.625 88.293 20.3187 88.3113C20.3076 88.3119 20.2965 88.3125 20.2859 88.3125V88.3119ZM20.6811 80.1034C20.6527 80.1034 20.6244 80.1012 20.5961 80.0967C20.2926 80.05 20.0847 79.766 20.1314 79.4631C20.312 78.2903 20.5471 77.1102 20.8306 75.9558C20.904 75.6578 21.2047 75.4755 21.5032 75.5483C21.8011 75.6217 21.9834 75.9224 21.91 76.2209C21.6343 77.3437 21.4053 78.4915 21.2297 79.632C21.1875 79.9066 20.9507 80.1034 20.6811 80.1034ZM22.7582 72.1522C22.6932 72.1522 22.6276 72.1405 22.5631 72.1166C22.2758 72.0088 22.1301 71.6886 22.238 71.4013C22.656 70.2863 23.1284 69.1796 23.6415 68.1113C23.7743 67.8345 24.1061 67.7178 24.3829 67.8512C24.6597 67.984 24.7759 68.3164 24.6431 68.5927C24.1439 69.631 23.6848 70.7076 23.2785 71.7915C23.1946 72.0149 22.9828 72.1522 22.7577 72.1522H22.7582ZM26.4312 64.8008C26.3283 64.8008 26.225 64.7724 26.1321 64.713C25.8737 64.5473 25.7981 64.2038 25.9637 63.9454C26.6079 62.9399 27.3044 61.9571 28.0336 61.025C28.2226 60.7832 28.5722 60.7404 28.814 60.9294C29.0558 61.1184 29.0986 61.468 28.9096 61.7098C28.2021 62.6147 27.5262 63.5685 26.9003 64.5451C26.7941 64.7107 26.6146 64.8013 26.4317 64.8013L26.4312 64.8008Z" fill="#749DD3"/>
<path id="Vector_22" d="M103.299 131.423C103.267 131.423 103.234 131.42 103.202 131.414C102.899 131.361 102.697 131.073 102.751 130.771C102.956 129.605 103.315 128.43 103.818 127.28C103.941 126.998 104.269 126.869 104.55 126.993C104.831 127.116 104.96 127.443 104.837 127.725C104.369 128.795 104.036 129.885 103.846 130.964C103.798 131.234 103.563 131.424 103.299 131.424V131.423ZM127.847 126.973C127.831 126.973 127.814 126.972 127.798 126.971C126.557 126.862 125.302 126.377 124.264 125.605C124.018 125.422 123.967 125.074 124.15 124.828C124.333 124.582 124.681 124.53 124.927 124.713C125.802 125.364 126.855 125.772 127.895 125.863C128.201 125.889 128.427 126.159 128.4 126.465C128.375 126.754 128.132 126.972 127.847 126.972V126.973ZM131.99 125.228C131.874 125.228 131.757 125.192 131.657 125.117C131.411 124.932 131.362 124.584 131.546 124.339C132.118 123.578 132.419 122.603 132.419 121.52C132.419 121.469 132.419 121.418 132.417 121.367C132.409 121.06 132.651 120.805 132.958 120.797C133.263 120.788 133.52 121.031 133.528 121.338C133.53 121.398 133.53 121.459 133.53 121.52C133.53 122.846 133.151 124.052 132.435 125.006C132.326 125.152 132.159 125.229 131.99 125.229V125.228ZM106.751 124.04C106.631 124.04 106.51 124.001 106.409 123.922C106.167 123.733 106.124 123.384 106.313 123.141C107.035 122.217 107.855 121.321 108.75 120.479C108.974 120.269 109.326 120.279 109.536 120.503C109.746 120.726 109.736 121.078 109.512 121.289C108.658 122.092 107.877 122.946 107.189 123.826C107.08 123.966 106.916 124.04 106.751 124.04ZM122.308 121.765C122.028 121.765 121.787 121.555 121.756 121.27C121.728 121.019 121.714 120.763 121.714 120.507C121.714 119.521 121.916 118.525 122.314 117.547C122.431 117.263 122.755 117.126 123.039 117.242C123.323 117.357 123.459 117.682 123.344 117.966C123 118.81 122.825 119.665 122.825 120.507C122.825 120.722 122.837 120.938 122.86 121.149C122.894 121.454 122.673 121.729 122.368 121.762C122.348 121.764 122.327 121.765 122.307 121.765H122.308ZM112.838 118.549C112.655 118.549 112.477 118.459 112.371 118.295C112.204 118.037 112.278 117.693 112.536 117.526C113.551 116.872 114.611 116.285 115.687 115.782C115.965 115.652 116.296 115.772 116.426 116.05C116.556 116.328 116.436 116.659 116.159 116.789C115.127 117.272 114.111 117.834 113.139 118.461C113.045 118.521 112.941 118.55 112.838 118.55V118.549ZM131.317 117.598C131.16 117.598 131.005 117.533 130.895 117.405C130.702 117.18 130.493 116.972 130.274 116.787C129.68 116.285 128.995 115.871 128.236 115.558C127.952 115.44 127.817 115.115 127.934 114.832C128.052 114.548 128.377 114.413 128.66 114.531C129.526 114.888 130.31 115.362 130.992 115.938C131.256 116.161 131.507 116.411 131.739 116.68C131.939 116.913 131.912 117.264 131.68 117.464C131.575 117.554 131.446 117.598 131.318 117.598H131.317ZM120.352 115.276C120.1 115.276 119.873 115.105 119.811 114.85C119.74 114.551 119.925 114.251 120.223 114.18C120.433 114.13 120.645 114.083 120.851 114.04C121.855 113.834 122.857 113.719 123.832 113.7C124.14 113.696 124.393 113.937 124.399 114.244C124.405 114.551 124.161 114.805 123.854 114.811C122.947 114.83 122.013 114.936 121.075 115.129C120.879 115.169 120.68 115.214 120.481 115.261C120.437 115.271 120.394 115.276 120.351 115.276L120.352 115.276ZM125.668 114.628C125.501 114.628 125.335 114.552 125.226 114.409C125.04 114.165 125.086 113.816 125.33 113.63C125.8 113.271 126.3 112.961 126.815 112.708C127.385 112.428 128.006 112.188 128.66 111.995C128.955 111.908 129.264 112.077 129.351 112.371C129.437 112.665 129.269 112.974 128.975 113.061C128.381 113.236 127.819 113.453 127.305 113.705C126.854 113.926 126.417 114.198 126.005 114.513C125.904 114.589 125.786 114.627 125.668 114.627L125.668 114.628ZM133.46 112.392C133.168 112.392 132.922 112.163 132.906 111.867C132.889 111.561 133.124 111.298 133.43 111.282C134.082 111.246 134.739 111.223 135.375 111.202L135.652 111.192C136.176 111.174 136.578 111.157 136.957 111.137C137.263 111.12 137.525 111.356 137.541 111.662C137.557 111.968 137.322 112.23 137.016 112.247C136.63 112.267 136.221 112.284 135.69 112.303L135.413 112.312C134.783 112.334 134.131 112.356 133.491 112.391C133.48 112.391 133.47 112.392 133.46 112.392L133.46 112.392ZM141.633 111.574C141.391 111.574 141.169 111.415 141.099 111.171C141.014 110.876 141.185 110.568 141.481 110.484C142.389 110.224 143.18 109.888 143.898 109.456C144.067 109.355 144.25 109.224 144.444 109.068C144.682 108.874 145.032 108.911 145.225 109.15C145.419 109.389 145.381 109.739 145.143 109.932C144.909 110.121 144.683 110.281 144.47 110.41C143.667 110.892 142.789 111.266 141.786 111.553C141.735 111.567 141.683 111.575 141.633 111.575V111.574ZM147.736 106.414C147.644 106.414 147.55 106.39 147.463 106.341C147.196 106.19 147.102 105.851 147.253 105.584C147.816 104.592 148.266 103.541 148.592 102.46C148.681 102.166 148.991 102 149.285 102.089C149.579 102.178 149.745 102.488 149.656 102.781C149.307 103.941 148.823 105.068 148.22 106.132C148.118 106.313 147.929 106.414 147.736 106.414H147.736ZM149.767 98.5359C149.465 98.5359 149.218 98.2947 149.212 97.9917C149.188 96.8734 149.031 95.7428 148.744 94.6329C148.667 94.3355 148.845 94.0326 149.142 93.9553C149.439 93.8786 149.742 94.057 149.82 94.3538C150.129 95.5478 150.298 96.7639 150.323 97.9684C150.329 98.2752 150.086 98.5292 149.779 98.5359C149.775 98.5359 149.771 98.5359 149.767 98.5359H149.767Z" fill="#749DD3"/>
<g id="Group_7">
<path id="Vector_23" d="M142.057 91.5801C148.491 91.5801 153.707 86.3644 153.707 79.9304C153.707 73.4965 148.491 68.2808 142.057 68.2808C135.623 68.2808 130.407 73.4965 130.407 79.9304C130.407 86.3644 135.623 91.5801 142.057 91.5801Z" fill="#749DD3"/>
<g id="Group_8">
<path id="Vector_24" d="M146.538 81.4299V78.7975C146.538 76.3229 144.532 74.3169 142.058 74.3169C139.583 74.3169 137.577 76.3229 137.577 78.7975V81.4299C137.577 82.8617 137.185 83.4086 136.443 84.6331H147.673C146.931 83.4086 146.539 82.8617 146.539 81.4299H146.538Z" fill="white"/>
<path id="Vector_25" d="M142.057 86.9175C141.123 86.9175 140.366 86.1604 140.366 85.2261H143.748C143.748 86.1599 142.991 86.9175 142.056 86.9175H142.057Z" fill="white"/>
<path id="Vector_26" d="M142.057 72.9438C141.299 72.9438 140.685 73.558 140.685 74.3162C140.685 75.0743 141.299 75.6885 142.057 75.6885C142.815 75.6885 143.429 75.0738 143.429 74.3162C143.429 73.5586 142.815 72.9438 142.057 72.9438ZM142.057 75.141C141.602 75.141 141.233 74.772 141.233 74.3167C141.233 73.8615 141.602 73.4925 142.057 73.4925C142.512 73.4925 142.881 73.8615 142.881 74.3167C142.881 74.772 142.512 75.141 142.057 75.141Z" fill="white"/>
</g>
</g>
<path id="Vector_27" d="M142.057 94.1765C138.252 94.1765 134.674 92.6947 131.984 90.0039C129.293 87.3131 127.811 83.7358 127.811 79.9305C127.811 76.1253 129.293 72.548 131.984 69.8572C134.674 67.1664 138.252 65.6846 142.057 65.6846C145.862 65.6846 149.439 67.1664 152.13 69.8572C154.821 72.548 156.303 76.1253 156.303 79.9305C156.303 83.7358 154.821 87.3131 152.13 90.0039C149.439 92.6947 145.862 94.1765 142.057 94.1765ZM142.057 66.7962C138.549 66.7962 135.25 68.1625 132.77 70.6431C130.289 73.1238 128.923 76.4221 128.923 79.9305C128.923 83.4389 130.289 86.7372 132.77 89.2179C135.25 91.6986 138.549 93.0648 142.057 93.0648C145.565 93.0648 148.864 91.6986 151.344 89.2179C153.825 86.7372 155.191 83.4389 155.191 79.9305C155.191 76.4221 153.825 73.1238 151.344 70.6431C148.864 68.1625 145.565 66.7962 142.057 66.7962Z" fill="#749DD3"/>
</g>
<g id="Group_9">
<g id="Group_10">
<path id="Vector_28" d="M131.567 44.9906C131.425 44.9906 131.283 44.9361 131.174 44.8277C130.957 44.6109 130.957 44.2585 131.174 44.0418L134.817 40.3994C135.034 40.1826 135.386 40.1826 135.603 40.3994C135.82 40.6162 135.82 40.9686 135.603 41.1853L131.96 44.8277C131.852 44.9361 131.71 44.9906 131.567 44.9906Z" fill="#262F5F"/>
<path id="Vector_29" d="M131.567 45.1297C131.382 45.1297 131.207 45.0574 131.076 44.9262C130.945 44.7951 130.873 44.6205 130.873 44.4349C130.873 44.2492 130.945 44.0747 131.076 43.9435L134.718 40.3012C134.99 40.0305 135.43 40.0305 135.701 40.3012C135.832 40.4323 135.905 40.6069 135.905 40.7925C135.905 40.9782 135.832 41.1527 135.701 41.2839L132.059 44.9262C131.928 45.0574 131.753 45.1297 131.567 45.1297ZM135.21 40.3756C135.103 40.3756 134.996 40.4162 134.915 40.4974L131.272 44.1397C131.193 44.2187 131.15 44.3232 131.15 44.4343C131.15 44.5455 131.193 44.6505 131.272 44.7289C131.351 44.8078 131.456 44.8512 131.567 44.8512C131.678 44.8512 131.783 44.8078 131.861 44.7289L135.504 41.0866C135.583 41.0076 135.626 40.9031 135.626 40.792C135.626 40.6808 135.583 40.5757 135.504 40.4974C135.425 40.419 135.316 40.3756 135.209 40.3756H135.21Z" fill="#262F5F"/>
</g>
<g id="Group_11">
<path id="Vector_30" d="M139.356 50.2033C139.328 50.2033 139.301 50.2011 139.272 50.1972L133.21 49.2868C132.907 49.2412 132.698 48.9583 132.743 48.6548C132.789 48.3513 133.072 48.1423 133.375 48.1879L139.437 49.0983C139.741 49.1439 139.95 49.4268 139.904 49.7303C139.863 50.006 139.626 50.2039 139.355 50.2039L139.356 50.2033Z" fill="#262F5F"/>
<path id="Vector_31" d="M139.356 50.3421C139.321 50.3421 139.286 50.3393 139.252 50.3343L133.19 49.4239C132.811 49.3672 132.549 49.0125 132.606 48.6335C132.663 48.2549 133.017 47.9926 133.397 48.0498L139.458 48.9603C139.838 49.017 140.099 49.3716 140.042 49.7507C139.992 50.0881 139.696 50.3421 139.356 50.3421ZM133.293 48.3194C133.09 48.3194 132.912 48.4678 132.881 48.6746C132.847 48.9019 133.004 49.1148 133.231 49.1487L139.293 50.0592C139.314 50.0625 139.335 50.0636 139.356 50.0636C139.56 50.0636 139.738 49.9108 139.768 49.7084C139.801 49.4811 139.645 49.2682 139.417 49.2343L133.355 48.3239C133.334 48.3205 133.314 48.3194 133.293 48.3194Z" fill="#262F5F"/>
</g>
<g id="Group_12">
<path id="Vector_32" d="M127.265 43.265C126.994 43.265 126.757 43.0671 126.715 42.7914L125.805 36.7295C125.759 36.426 125.968 36.1431 126.272 36.0975C126.575 36.052 126.858 36.261 126.904 36.5644L127.814 42.6263C127.86 42.9298 127.651 43.2128 127.347 43.2583C127.32 43.2628 127.292 43.2644 127.264 43.2644L127.265 43.265Z" fill="#262F5F"/>
<path id="Vector_33" d="M127.265 43.4038C126.924 43.4038 126.629 43.1492 126.578 42.8118L125.668 36.7499C125.64 36.5665 125.686 36.3831 125.796 36.2341C125.906 36.0852 126.068 35.9873 126.252 35.9601C126.435 35.9323 126.618 35.9779 126.768 36.0885C126.917 36.1986 127.014 36.3609 127.042 36.5443L127.953 42.6062C127.981 42.7896 127.935 42.973 127.824 43.122C127.714 43.2715 127.553 43.3688 127.369 43.396C127.334 43.401 127.299 43.4038 127.265 43.4038ZM126.355 36.2302C126.335 36.2302 126.314 36.2319 126.292 36.2347C126.182 36.2514 126.085 36.3097 126.019 36.3992C125.953 36.4887 125.926 36.5988 125.942 36.7088L126.853 42.7707C126.883 42.973 127.06 43.1259 127.264 43.1259C127.285 43.1259 127.306 43.1242 127.327 43.1214C127.437 43.1048 127.534 43.0464 127.6 42.9569C127.666 42.8674 127.694 42.7574 127.677 42.6473L126.767 36.5854C126.75 36.4754 126.692 36.3781 126.602 36.3119C126.529 36.2586 126.444 36.2302 126.355 36.2302Z" fill="#262F5F"/>
</g>
</g>
</g>
<defs>
<clipPath id="clip0_2138_2923">
<rect width="170" height="138.047" fill="white" transform="translate(0.5 0.445801)"/>
</clipPath>
</defs>
</svg>
