<svg width="49" height="43" viewBox="0 0 49 43" fill="none" xmlns="http://www.w3.org/2000/svg">
<path d="M47.9898 18.3504C47.9324 10.9597 46.024 3.7474 45.0052 2.76594C43.9434 1.85883 34.1718 0.0594826 24.0128 0C13.8395 0.0594826 4.06789 1.85883 3.02043 2.76594C1.97296 3.7474 0.07891 10.9597 0.0215146 18.3504C-0.208067 25.7411 1.47075 33.4441 2.40343 35.4516C3.27871 37.1469 13.5094 39.4221 24.0128 39.5559C34.5162 39.4221 44.7326 37.1469 45.6222 35.4516C46.5549 33.4441 48.2337 25.7411 48.0041 18.3504H47.9898Z" fill="url(#paint0_radial_3441_4754)"/>
<g style="mix-blend-mode:multiply" opacity="0.67">
<path d="M46.6841 7.40576C45.1631 9.20511 43.5274 10.9004 41.7768 12.4915C34.5737 19.0495 25.5913 23.585 15.8054 25.7561C11.4864 26.7227 4.82848 27.6596 0.322937 25.7115C0.825147 30.2917 1.77217 34.1134 2.38917 35.4518C3.26445 37.147 13.4952 39.4222 23.9986 39.5561C34.5019 39.4222 44.7183 37.147 45.6079 35.4518C46.5406 33.4443 48.2194 25.7413 47.9899 18.3506C47.9612 14.3206 47.3729 10.3501 46.6841 7.40576Z" fill="url(#paint1_linear_3441_4754)"/>
</g>
<path d="M47.9898 21.25C47.7889 27.6295 46.4258 33.6372 45.6079 35.3771C44.7326 37.0724 34.5019 39.3476 23.9985 39.4814C13.4952 39.3476 3.27877 37.0724 2.38914 35.3771C1.5856 33.6372 0.22246 27.6295 0.0215756 21.25C0.0215756 21.3095 0.0215756 21.369 0.0215756 21.4284C-0.208006 28.8192 1.47081 36.5221 2.40349 38.5297C3.27877 40.2249 13.5095 42.5001 24.0129 42.634C34.5162 42.5001 44.7326 40.2249 45.6223 38.5297C46.5549 36.5221 48.2338 28.8192 48.0042 21.4284C48.0042 21.369 48.0042 21.3095 48.0042 21.25H47.9898Z" fill="#114677"/>
<g style="mix-blend-mode:screen" opacity="0.84">
<path d="M45.0052 2.76594C43.9434 1.85883 34.1719 0.0594826 24.0129 0C13.8395 0.0594826 4.06794 1.85883 3.02047 2.76594C1.97301 3.7474 0.078958 10.9597 0.0215625 18.3504C-0.150624 23.8822 0.739006 29.6074 1.59994 32.9682C-0.00713525 14.2015 3.33615 4.92218 4.36927 3.94072C5.43108 3.03361 14.6 1.60603 24.7447 0.892238C37.6012 -0.0148708 45.1487 2.89978 45.0052 2.75107V2.76594Z" fill="#144F86"/>
</g>
<path d="M45.2206 31.8974C45.1058 31.4959 44.8475 31.1836 44.3883 31.0944C44.0009 31.02 43.4557 31.139 43.2548 31.4959C42.9104 32.0758 42.4943 32.5963 41.949 33.0127C41.6477 33.2358 41.3894 33.4291 41.1311 33.6967C41.1168 33.7116 41.1024 33.7265 41.0881 33.7414C40.9303 33.8603 40.7724 33.9644 40.6002 34.0834C39.9832 34.5146 40.1985 35.511 40.9159 35.734C43.427 36.4776 45.938 34.3213 45.2349 31.9123L45.2206 31.8974Z" fill="#59D8FF"/>
<path d="M45.8949 27.9128C45.7658 27.7195 45.5218 27.5856 45.2779 27.7046C44.8331 27.9277 44.5461 28.3143 44.4744 28.7753C44.4026 29.2511 44.5892 29.9054 45.2205 29.8757C45.3784 29.8757 45.4932 29.7419 45.5505 29.6229C45.5649 29.5932 45.5792 29.5634 45.5792 29.5337C46.0815 29.1619 46.2536 28.4333 45.8949 27.9277V27.9128Z" fill="#59D8FF"/>
<path opacity="0.3" d="M4.81414 3.98476C4.685 3.77657 4.51281 3.64273 4.28323 3.64273C2.54702 3.59812 1.05473 13.1153 1.91567 14.186C2.7192 15.1972 3.47969 12.238 3.75232 11.5688C4.45541 9.82892 5.08676 8.04444 5.2159 6.17074C5.2446 5.66514 5.18721 4.54984 4.81414 3.98476Z" fill="white"/>
<g style="mix-blend-mode:screen" opacity="0.5">
<path d="M45.0483 6.24525C45.2779 5.38276 44.7039 4.14849 44.0582 3.52393C43.0395 2.64656 33.7271 0.936436 24.0129 0.876953C14.2987 0.936436 4.97195 2.64656 3.96753 3.52393C2.59004 4.71358 -0.0788513 17.3536 2.23132 19.3612C3.56576 20.5211 5.632 20.2088 7.21037 19.7627C13.5956 17.9038 18.1442 11.9407 23.7259 8.66917C29.5515 5.26379 38.864 1.84354 45.0483 6.26012V6.24525Z" fill="url(#paint2_linear_3441_4754)"/>
</g>
<path style="mix-blend-mode:screen" opacity="0.5" d="M46.8276 25.7859C47.3011 21.9195 47.0571 18.3208 44.8044 18.3208C42.8816 18.3208 40.2414 21.4585 38.9787 22.5589C30.7712 29.7266 21.8175 35.7641 9.97968 35.2436C7.19601 35.1246 4.41233 34.6339 2.76221 32.3141C2.76221 33.1171 3.00614 33.9945 3.39356 34.7231C4.24014 36.344 13.9974 38.5003 24.0272 38.6341C34.0571 38.5003 43.8143 36.3291 44.6609 34.7231C45.2492 33.5781 46.3971 29.5481 46.8563 25.7859H46.8276Z" fill="url(#paint3_radial_3441_4754)"/>
<path d="M35.316 26.7048C33.3583 24.6302 31.4006 22.5849 29.4137 20.5687C31.4006 18.5526 33.3583 16.4781 35.316 14.4327C36.7185 12.9133 36.8354 10.5173 35.4913 9.17326C34.1472 7.82917 31.7512 7.94605 30.2318 9.34857C28.1573 11.3063 26.1119 13.2639 24.0958 15.2509C22.0797 13.2639 20.0343 11.3063 17.9598 9.34857C16.4404 7.94605 14.0444 7.82917 12.7003 9.17326C11.3562 10.5173 11.4731 12.9133 12.8756 14.4327C14.8333 16.5073 16.791 18.5526 18.7779 20.5687C16.791 22.5849 14.8333 24.6302 12.8756 26.7048C11.4731 28.2242 11.3562 30.6202 12.7003 31.9642C14.0444 33.3083 16.4404 33.1915 17.9598 31.7889C20.0343 29.8312 22.0797 27.8736 24.0958 25.8866C26.1119 27.8736 28.1573 29.8312 30.2318 31.7889C31.7512 33.1915 34.1472 33.3083 35.4913 31.9642C36.8354 30.6202 36.7185 28.2242 35.316 26.7048Z" fill="#004279"/>
<path d="M32.5988 25.215C31.1086 23.6372 29.6184 22.0886 28.1282 20.54C29.6476 18.9913 31.1378 17.4427 32.5988 15.8649C33.6507 14.7253 33.7383 12.8845 32.7449 11.8619C31.7222 10.8392 29.9106 10.9268 28.7418 12.008C27.164 13.4981 25.6154 14.9883 24.0668 16.4785C22.5181 14.9591 20.9695 13.4689 19.3917 12.008C18.2521 10.9561 16.4113 10.8684 15.3887 11.8619C14.366 12.8845 14.4536 14.6961 15.5347 15.8649C17.0249 17.4427 18.5151 18.9913 20.0053 20.54C18.4859 22.0886 16.9957 23.6372 15.5347 25.215C14.4829 26.3546 14.3952 28.1954 15.3887 29.2181C16.4113 30.2407 18.2229 30.1531 19.3917 29.072C20.9695 27.5818 22.5181 26.0916 24.0668 24.6014C25.6154 26.1208 27.164 27.611 28.7418 29.072C29.8814 30.1239 31.7222 30.2115 32.7449 29.2181C33.7675 28.2246 33.6799 26.3838 32.5988 25.215Z" fill="white"/>
<g style="mix-blend-mode:screen" opacity="0.84">
<path d="M18.0768 21.2696C18.3106 21.0359 18.5443 20.8021 18.7781 20.5391C16.7912 18.523 14.8335 16.4484 12.8758 14.4031C12.3206 13.7895 11.97 13.059 11.8239 12.2993C11.5902 13.4973 11.9408 14.8706 12.8758 15.8641C14.5997 17.6757 16.3237 19.4872 18.0768 21.2988V21.2696Z" fill="white"/>
<path d="M29.4138 20.54C29.6476 20.7738 29.8813 21.0075 30.1151 21.2705C31.8682 19.4881 33.5922 17.6765 35.3161 15.8357C36.2219 14.8423 36.6017 13.469 36.368 12.271C36.2219 13.0307 35.8713 13.7904 35.3161 14.3748C33.3584 16.4493 31.4007 18.4947 29.4138 20.5108V20.54Z" fill="white"/>
<path d="M35.4915 31.9643C34.1475 33.3084 31.7515 33.1915 30.2321 31.789C28.1575 29.8313 26.1122 27.8736 24.096 25.8867C22.0799 27.8736 20.0346 29.8313 17.96 31.789C16.4406 33.1915 14.0446 33.3084 12.7005 31.9643C12.233 31.4968 11.9409 30.9124 11.824 30.2696C11.6194 31.4091 11.8824 32.6071 12.7005 33.4253C14.0446 34.7694 16.4406 34.6525 17.96 33.25C20.0346 31.3215 22.0799 29.3346 24.096 27.3477C26.1122 29.3346 28.1575 31.2923 30.2321 33.25C31.7515 34.6525 34.1475 34.7694 35.4915 33.4253C36.2805 32.6364 36.5726 31.4384 36.3681 30.2696C36.2512 30.9124 35.959 31.4968 35.4915 31.9643Z" fill="white"/>
</g>
<defs>
<radialGradient id="paint0_radial_3441_4754" cx="0" cy="0" r="1" gradientUnits="userSpaceOnUse" gradientTransform="translate(24.1843 47.0107) scale(45.6245 42.409)">
<stop stop-color="#0055F3"/>
<stop offset="0.13" stop-color="#0160F3"/>
<stop offset="0.37" stop-color="#057FF6"/>
<stop offset="0.69" stop-color="#0CB1FA"/>
<stop offset="1" stop-color="#114677"/>
</radialGradient>
<linearGradient id="paint1_linear_3441_4754" x1="24.1671" y1="37.0876" x2="24.1671" y2="7.73112" gradientUnits="userSpaceOnUse">
<stop stop-color="#7ED6DF"/>
<stop offset="0.27" stop-color="#78BDDF"/>
<stop offset="0.43" stop-color="#114677"/>
<stop offset="1" stop-color="#114677"/>
</linearGradient>
<linearGradient id="paint2_linear_3441_4754" x1="23.212" y1="18.6837" x2="23.212" y2="1.07214" gradientUnits="userSpaceOnUse">
<stop stop-color="#7ED6DF"/>
<stop offset="0.27" stop-color="#78BDDF"/>
<stop offset="0.43" stop-color="#114677"/>
<stop offset="1" stop-color="#114677"/>
</linearGradient>
<radialGradient id="paint3_radial_3441_4754" cx="0" cy="0" r="1" gradientUnits="userSpaceOnUse" gradientTransform="translate(9.08288 30.6838) scale(42.8687 39.8474)">
<stop stop-color="#004DCD"/>
<stop offset="0.2" stop-color="#0258D3"/>
<stop offset="0.56" stop-color="#0977E4"/>
<stop offset="1" stop-color="#14A6FF"/>
</radialGradient>
</defs>
</svg>
