<svg width="80" height="80" viewBox="0 0 80 80" fill="none" xmlns="http://www.w3.org/2000/svg">
<path d="M66.7284 37.9799C68.7946 49.367 58.4293 60.9104 43.5741 63.5968C28.7189 66.2833 14.9661 59.3962 12.8798 48.0342C10.7934 36.6723 21.1658 25.1097 36.0282 22.404C50.8905 19.6983 64.6492 26.5987 66.7284 37.9799Z" fill="#231F20"/>
<g style="mix-blend-mode:screen" opacity="0.3">
<path d="M34.4823 28.165C33.5884 28.8251 32.8188 29.6425 32.2099 30.5782C31.6726 31.3825 30.9209 32.7634 31.2727 33.7975C31.4972 34.3002 32.2741 33.4338 32.3953 33.2826C33.2517 31.6783 33.3993 29.8254 34.648 28.36C34.7586 28.1499 34.6781 28.0752 34.4823 28.165Z" fill="#FBCE3A"/>
</g>
<g style="mix-blend-mode:screen" opacity="0.3">
<path d="M27.8634 31.4083C27.8634 31.4083 27.7459 31.4622 27.7328 31.4681C27.4344 31.842 27.0945 32.1798 26.7197 32.4748C26.2427 33.0138 25.865 33.6352 25.6045 34.3094C25.634 34.3755 25.5258 34.5208 25.5992 34.6146C25.5992 34.6146 25.9526 34.596 26.0512 34.5348C26.3763 34.3507 26.618 34.0455 26.7249 33.6838C26.8418 33.2089 27.0322 32.7557 27.2891 32.3411C27.4566 32.1527 28.0064 31.6933 27.8634 31.4083Z" fill="#FBCE3A"/>
</g>
<g style="mix-blend-mode:screen" opacity="0.3">
<path d="M21.3548 34.2981C20.4908 34.8971 19.7089 35.6095 19.0295 36.4167C18.3693 37.1617 17.9567 38.0981 17.8501 39.0936C17.8576 39.5683 18.7359 39.0698 19.1968 38.5874C19.0874 38.7651 19.1266 38.7472 19.3143 38.5335C19.3509 38.4676 19.3835 38.3994 19.4119 38.3294C19.4483 38.2831 19.4724 38.2281 19.4821 38.1697L19.5169 37.9306C19.6019 37.4837 19.7614 37.0548 19.9885 36.6622C20.4215 35.8294 20.9506 35.0516 21.5646 34.3453C21.6668 34.1868 21.4343 34.2297 21.3548 34.2981Z" fill="#FBCE3A"/>
</g>
<g style="mix-blend-mode:screen" opacity="0.3">
<path d="M29.8906 22.9563C29.734 23.0281 29.5485 23.3523 29.7157 23.3394C32.3413 23.2667 34.213 24.4644 36.4074 25.6097C36.7154 25.7713 37.4386 25.1367 37.336 24.8012C36.5578 22.0021 31.959 22.0234 29.8906 22.9563Z" fill="#FBCE3A"/>
</g>
<g style="mix-blend-mode:screen" opacity="0.3">
<path d="M40.4669 22.0257C40.2854 21.8566 40.0869 21.7072 39.8747 21.5801C39.6768 21.4236 39.4419 21.3225 39.1933 21.2869C39.115 21.3228 38.7625 21.4845 38.9319 21.5821C39.3858 21.7884 39.4916 22.3775 39.9336 22.5572C40.1043 22.6224 40.609 22.1678 40.4669 22.0257Z" fill="#FBCE3A"/>
</g>
<g style="mix-blend-mode:screen" opacity="0.3">
<path d="M47.017 24.4712C46.3914 24.9017 45.6498 25.1781 45.0052 25.6013C44.2598 26.1149 43.5869 26.7292 43.0053 27.4272C42.3848 28.0744 41.9137 28.8532 41.626 29.7073C41.3384 30.5614 41.2414 31.4696 41.342 32.3663C41.4515 32.858 42.2592 32.0253 42.3471 31.9053C43.0929 30.5112 43.1346 28.914 44.0261 27.5646C45.0127 26.537 46.0538 25.5645 47.1448 24.6517C47.2411 24.48 47.1749 24.3669 47.017 24.4712Z" fill="#FBCE3A"/>
</g>
<g style="mix-blend-mode:screen" opacity="0.3">
<path d="M47.7653 26.5026C47.7045 26.7536 47.6175 27.0167 47.5305 27.2798C47.4159 27.4901 47.3645 27.7298 47.3823 27.9694C47.4237 28.062 47.534 28.0273 47.5993 27.9974C47.6659 27.9672 47.7255 27.923 47.774 27.8678C47.8226 27.8125 47.859 27.7475 47.8809 27.6769C48.0245 27.2347 48.1047 26.7738 48.119 26.3084C48.1336 26.0945 47.7762 26.386 47.7653 26.5026Z" fill="#FBCE3A"/>
</g>
<g style="mix-blend-mode:screen" opacity="0.3">
<path d="M52.8205 25.9208C52.7437 25.7488 52.3897 26.1184 52.3907 26.2614C52.4441 26.929 52.565 27.5892 52.7516 28.2318C52.8185 28.8027 53.0578 29.3387 53.4369 29.7664C53.7105 29.9916 54.2202 29.4072 54.2668 29.1945C54.4692 27.9221 53.3193 26.9672 52.8205 25.9208Z" fill="#FBCE3A"/>
</g>
<g style="mix-blend-mode:screen" opacity="0.3">
<path d="M53.8027 25.55C53.8027 25.55 53.367 25.8774 53.533 25.8969C54.5353 26.068 55.5066 26.3909 56.4142 26.8546C57.136 27.3776 57.8254 27.9451 58.4784 28.5538C58.7545 28.7141 59.353 28.1526 59.2883 27.8316C58.9647 25.5572 55.5178 25.3052 53.8027 25.55Z" fill="#FBCE3A"/>
</g>
<g style="mix-blend-mode:screen" opacity="0.3">
<path d="M52.4787 21.2809C51.8543 21.0908 51.1824 21.1433 50.5942 21.428C50.2462 21.5638 49.9062 21.7198 49.576 21.8951L49.1486 22.1708C48.9528 22.2606 49.1486 22.1708 49.1176 22.3126C49.0865 22.4543 48.987 22.3724 48.9609 22.3844C48.9336 22.4068 48.9113 22.4349 48.8957 22.4669C48.8801 22.4988 48.8715 22.5337 48.8705 22.5694C49.361 22.5109 49.848 22.4258 50.3295 22.3146C50.6041 22.2995 50.8795 22.3234 51.1476 22.3856C51.4727 22.438 51.8058 22.3753 52.0906 22.2081C52.2734 22.1242 52.5845 21.87 52.5932 21.6428L52.5934 21.4674C52.6136 21.4422 52.6114 21.3316 52.4787 21.2809Z" fill="#FBCE3A"/>
</g>
<path d="M69.7097 34.6203C69.556 33.3066 69.2968 32.0078 68.9346 30.7368C65.3541 18.0362 52.2266 9.38018 37.4364 10.6981C20.8829 12.1874 8.55711 25.7138 9.88118 40.7562C9.95797 40.9281 9.9232 41.1672 9.9537 41.3763C10.3454 46.5422 11.7301 51.5807 14.0299 56.208C18.6316 65.6672 26.9714 69.2363 41.9115 68.3596L43.1222 68.2186C43.5147 68.182 43.8954 68.1189 44.295 68.0631L44.8678 68.0076C58.586 66.0498 65.7064 61.0785 68.4951 51.3371C70.1082 45.9232 70.523 40.2153 69.7097 34.6203ZM42.6585 60.8774L40.9592 61.0512C18.3796 62.3564 12.3089 46.1925 17.7961 37.1416C23.2833 28.0906 38.1577 26.0807 38.1577 26.0807L39.4147 25.9025C39.4147 25.9025 54.5062 25.2592 61.3784 33.1828C68.2506 41.1065 65.1313 58.171 42.6585 60.8774Z" fill="white"/>
<path d="M54.6594 65.9545C51.5107 67.0476 48.2616 67.8172 44.961 68.2516L44.8566 68.2995L44.208 68.3261L43.0423 68.4624L42.964 68.4983L41.8565 68.6239C26.8014 69.4896 18.4013 65.8206 13.7819 56.3218C11.4771 51.666 10.081 46.6029 9.67023 41.4107L9.59344 41.2387L9.5455 40.8145C8.46122 28.5626 16.5099 16.9025 29.0325 12.3377C31.7158 11.3689 34.5101 10.7512 37.3478 10.4997C52.0668 9.19848 65.4187 17.6879 69.0899 30.6974C69.4552 31.9833 69.716 33.2975 69.8697 34.6266C70.6794 40.2655 70.2455 46.0161 68.5992 51.4646C66.6078 58.6252 62.1603 63.2788 54.6594 65.9545ZM44.74 67.8271C48.0469 67.3977 51.3026 66.6304 54.4573 65.5372C61.8099 62.8817 66.1755 58.3613 68.1703 51.2789C69.8001 45.8939 70.2315 40.2097 69.4334 34.6355C69.2694 33.3283 69.0123 32.0348 68.6642 30.7652C65.0992 17.9937 51.9535 9.64889 37.423 10.8795C34.6299 11.1304 31.8793 11.7388 29.2371 12.6901C16.8913 17.1578 9.00168 28.6813 10.0141 40.6314C10.0673 40.7505 10.0362 40.8922 10.0561 41.0424L10.1388 41.2276C10.5139 46.4122 11.8916 51.4714 14.1936 56.117C18.7244 65.4174 26.999 69.0165 41.8679 68.1565L43.0656 68.0214L43.1439 67.9855L44.2005 67.8515L44.6961 67.7994L44.74 67.8271ZM51.0387 59.1849C48.3318 60.1369 45.529 60.7811 42.6818 61.1057L41.0478 61.2497C30.3111 61.8557 21.8501 58.4378 17.9612 51.8071C16.5992 49.5949 15.8502 47.0519 15.7928 44.445C15.7354 41.8382 16.3718 39.2638 17.6351 36.9923C20.5238 32.1931 26.0935 29.3833 30.2669 27.8834C32.8328 26.9459 35.4828 26.2641 38.1793 25.8476L39.3698 25.7318C42.2055 25.6879 45.039 25.9142 47.8328 26.4078C52.0998 27.1597 57.9243 28.9344 61.5231 33.0845C63.0174 34.8534 64.0589 36.9679 64.5559 39.2414C65.0529 41.5148 64.99 43.8773 64.3727 46.1203C62.8292 51.9599 58.1054 56.6287 51.0387 59.1849ZM30.4108 28.3114C26.3478 29.7767 20.8374 32.5433 18.0059 37.1888C16.773 39.3828 16.1488 41.8739 16.1992 44.3982C16.2497 46.9226 16.973 49.386 18.2925 51.5277C22.1235 57.9936 30.3878 61.3584 40.9775 60.7401L42.6115 60.5961C45.4434 60.2868 48.2327 59.6594 50.9279 58.7257C57.8452 56.2221 62.468 51.6793 63.9379 45.9213C64.5125 43.7716 64.5643 41.5128 64.0889 39.3383C63.6135 37.1639 62.6251 35.1386 61.2084 33.4361C57.6888 29.393 51.9591 27.6546 47.7515 26.8594C44.9967 26.3637 42.2009 26.141 39.4035 26.1945L38.226 26.3043C35.5644 26.7226 32.9477 27.3946 30.4108 28.3114Z" fill="#A1A09E"/>
<g style="mix-blend-mode:multiply" opacity="0.5">
<path d="M69.7098 34.6203C69.5561 33.3066 69.2968 32.0078 68.9346 30.7368C68.6505 29.7321 68.3048 28.7463 67.8996 27.7852C66.9489 29.1775 66.0671 30.4425 64.2441 30.1632C63.0101 30.0203 61.832 29.5628 60.8198 28.8334C59.004 28.0315 57.2319 27.1313 55.5114 26.1368C53.6148 25.3907 51.6526 24.8286 49.6512 24.4582C42.6935 23.2603 35.547 23.9488 28.9366 26.4538C25.4371 27.6058 22.1995 29.4539 19.4134 31.8897C17.8294 33.4131 15.7238 36.3391 13.2608 35.19C12.5904 34.8798 12.0014 34.4141 11.5414 33.8305C11.0814 33.247 10.7633 32.562 10.6127 31.8309C9.83956 34.7369 9.59173 37.7607 9.88122 40.7562C9.95801 40.9281 9.92325 41.1672 9.95374 41.3763C10.3454 46.5423 11.7301 51.5807 14.0299 56.2081C14.7136 57.6601 15.5442 59.0362 16.5084 60.3143C16.591 59.9086 16.7582 59.5255 16.9989 59.1908C17.2396 58.856 17.5482 58.5773 17.9039 58.3734C18.2597 58.1694 18.6543 58.045 19.0615 58.0084C19.4686 57.9718 19.8787 58.0239 20.2643 58.1612C23.1152 59.2281 25.8111 60.8282 28.6812 61.7269C32.0911 62.7811 35.6523 63.2436 39.2144 63.0947C45.8303 62.9445 52.9613 61.7294 58.4842 57.7936C60.2967 56.5001 62.0077 54.1694 64.3083 53.8632C64.8403 53.8425 65.3676 53.9725 65.8308 54.2385C66.294 54.5046 66.675 54.8962 66.9308 55.3695C67.5567 54.0803 68.0672 52.7368 68.456 51.3551C70.0848 45.9385 70.513 40.2241 69.7098 34.6203ZM42.6585 60.8774L40.9593 61.0513C18.3796 62.3565 12.309 46.1925 17.7962 37.1416C23.2834 28.0907 38.1577 26.0807 38.1577 26.0807L39.4147 25.9026C39.4147 25.9026 54.5062 25.2592 61.3784 33.1828C68.2506 41.1065 65.1313 58.171 42.6585 60.8774Z" fill="#B9BABC"/>
</g>
<path d="M19.3994 19.8162C20.4613 21.5603 21.6499 24.8557 23.9102 25.2692C26.1705 25.6826 28.0719 24.4121 30.0756 23.6523C32.1737 22.8682 34.3729 22.3962 36.6046 22.2512C39.087 22.0918 41.5791 22.2156 44.0342 22.6202C46.3029 22.982 49.072 24.0067 51.362 23.6415C54.781 23.0932 55.3834 20.0758 56.3637 17.2357C56.5876 16.5752 56.8175 15.9279 57.0781 15.3143C51.1506 11.7042 44.2444 10.0966 37.3566 10.7237C30.4689 11.3509 23.956 14.1803 18.7584 18.8035C18.9962 19.1247 19.234 19.4459 19.3994 19.8162Z" fill="#DEDFE0"/>
<path d="M52.5134 23.5437C52.177 23.6572 51.8329 23.7458 51.4839 23.8087C49.6965 23.9373 47.9009 23.7349 46.1852 23.2113C45.4349 23.0454 44.7357 22.8881 44.0731 22.7777C41.6072 22.3735 39.1045 22.2493 36.6114 22.4074C34.3976 22.5428 32.2154 23.0068 30.1346 23.7846C29.7039 23.9822 29.2471 24.1917 28.8295 24.3833C28.4119 24.5748 27.7854 24.8622 27.2634 25.1016C26.2133 25.5522 25.058 25.6896 23.9335 25.4975C22.0241 25.1303 20.7993 22.951 19.99 21.1389C19.7774 20.6628 19.5825 20.2263 19.2819 19.8701C19.0822 19.5328 18.8634 19.2074 18.6266 18.8958C18.5909 18.8488 18.5743 18.7898 18.5801 18.7309C18.5859 18.6719 18.6138 18.6174 18.6579 18.5786C21.6989 15.7652 25.2597 13.5902 29.1347 12.1793C31.818 11.2277 34.6061 10.6124 37.4369 10.3473C44.3308 9.70515 51.2469 11.3125 57.1759 14.9348C57.2243 14.9564 57.263 14.9954 57.2848 15.0442C57.3066 15.093 57.3099 15.1482 57.2941 15.1993C57.0511 15.8526 56.8213 16.4999 56.5796 17.1207C56.4725 17.4089 56.3843 17.7043 56.296 17.9998C55.5571 20.3945 54.8148 22.7111 52.5134 23.5437ZM30.3844 23.2876C32.4087 22.5639 34.5228 22.1306 36.6655 22.0001C39.1512 21.8305 41.6478 21.9414 44.1094 22.3307C44.7909 22.4484 45.4902 22.6058 46.2463 22.7848C47.9086 23.291 49.6477 23.4868 51.3791 23.3628C51.7051 23.3226 52.0272 23.2548 52.3421 23.1601C54.494 22.3802 55.1578 20.2749 55.8833 18.0616L56.1669 17.1825C56.3635 16.5664 56.572 15.9768 56.7639 15.315C50.9429 11.7986 44.1707 10.2455 37.423 10.8796C34.631 11.1335 31.8823 11.7463 29.2429 12.7034C25.4824 14.0403 22.015 16.1071 19.0346 18.7883C19.2334 19.069 19.4214 19.3493 19.5988 19.6291C19.776 20.0259 20.0493 20.4265 20.2939 20.9039C21.1852 22.5828 22.2916 24.6729 23.9592 24.9917C25.0083 25.1541 26.0811 25.0255 27.0638 24.6195C27.5597 24.392 28.0818 24.1525 28.5908 23.9191L29.8959 23.3204L30.3844 23.2876Z" fill="#A1A09E"/>
<g style="mix-blend-mode:multiply" opacity="0.7">
<path opacity="0.5" d="M61.3509 33.2273C54.5023 25.3565 39.4145 25.9026 39.4145 25.9026L38.237 26.0124C38.237 26.0124 23.2832 28.0907 17.8755 37.0733C12.4679 46.0558 18.4316 62.3325 40.9591 61.0513L42.6061 60.9014C65.1311 58.171 68.2361 41.1449 61.3509 33.2273ZM41.8708 53.621L40.3707 53.7832C20.2418 55.0479 15.1562 43.484 20.1071 36.8943C25.0581 30.3045 38.4202 28.6057 38.4202 28.6057L39.4756 28.5041C39.4756 28.5041 52.8954 27.8147 58.9533 33.3868C65.0112 38.9588 61.9041 51.3324 41.8708 53.621Z" fill="#5D5F61"/>
</g>
<g style="mix-blend-mode:screen" opacity="0.5">
<path d="M19.2328 42.5066C19.2328 42.5066 18.6972 31.1664 44.7295 29.7756C44.7531 29.8285 22.5601 33.2671 19.2328 42.5066Z" fill="white"/>
</g>
<path d="M9.9634 35.2363C11.2331 36.4148 12.3557 37.7463 13.3064 39.201C14.2095 40.9063 16.7361 55.0146 16.7361 55.0146C16.7361 55.0146 17.1079 57.5373 15.3706 58.5414L11.781 55.9966L7.48058 43.5147L9.9634 35.2363Z" fill="white"/>
<path d="M15.4261 58.771C15.3564 58.7858 15.2837 58.7736 15.2222 58.737L11.6268 56.179C11.5937 56.1424 11.573 56.0961 11.5677 56.0467L7.27318 43.5781C7.24327 43.5395 7.223 43.4941 7.21411 43.4458L9.71589 35.1747C9.73733 35.1467 9.76517 35.1244 9.79701 35.1098C9.82885 35.0952 9.86372 35.0887 9.89861 35.0908C9.9341 35.0758 9.97333 35.0722 10.0109 35.0807C10.0485 35.0891 10.0825 35.1092 10.1084 35.1381C11.3999 36.3281 12.5336 37.683 13.4809 39.1689C14.403 40.8814 16.8474 54.4536 16.9768 55.0955C17.0182 55.1881 17.3484 57.7937 15.5125 58.8588L15.4261 58.771ZM11.9142 55.8718L15.3225 58.2926C16.7765 57.3229 16.4706 55.0887 16.4588 55.0622C16.447 55.0358 13.9309 40.9864 13.0515 39.334C12.1954 37.9976 11.1831 36.771 10.0364 35.681L7.67872 43.5355L11.9142 55.8718Z" fill="#A1A09E"/>
<g style="mix-blend-mode:multiply" opacity="0.5">
<path d="M7.46757 43.5207L11.768 56.0025L15.3576 58.5473C17.0949 57.5433 16.7231 55.0205 16.7231 55.0205C16.7231 55.0205 14.1965 40.9123 13.2934 39.2069C12.3427 37.7522 11.22 36.4208 9.95039 35.2423L7.46757 43.5207ZM10.4143 46.95C9.72378 45.8239 9.37043 44.519 9.39708 43.1934C9.51019 41.4044 10.6052 37.2368 10.8004 37.4978C11.5342 38.3247 12.1912 39.2183 12.7631 40.1673C13.3901 41.7039 13.8052 43.3207 13.9968 44.9721C14.2939 46.7641 14.5257 48.5861 14.8418 50.3854C15.2856 52.0895 15.5393 53.8388 15.5982 55.6003C13.7307 52.8166 12.0044 49.9383 10.4261 46.9765L10.4143 46.95Z" fill="#B9BABC"/>
</g>
<g style="mix-blend-mode:color-dodge">
<path d="M12.6117 31.0255C12.6117 31.0255 21.0504 6.78783 52.021 13.4268C52.021 13.4268 25.574 8.71295 12.6117 31.0255Z" fill="white"/>
</g>
<path d="M39.7324 49.4155C39.1965 49.4155 38.7446 49.2257 38.3766 48.8462C38.0078 48.4666 37.8457 48.0201 37.8903 47.5065C37.9573 46.5688 38.1806 45.7538 38.5602 45.0617C38.9397 44.3695 39.5426 43.655 40.3687 42.9182C41.2841 42.1144 41.9816 41.4164 42.4612 40.8243C42.9417 40.2331 43.182 39.5579 43.182 38.7988C43.182 37.8833 42.8752 37.1242 42.2616 36.5213C41.6472 35.9185 40.7929 35.6171 39.6989 35.6171C38.9844 35.6171 38.3762 35.7676 37.8743 36.0685C37.3714 36.3704 36.9637 36.7446 36.6512 37.1912C36.3386 37.6377 35.9536 37.9391 35.4964 38.0954C35.0382 38.2517 34.597 38.2406 34.1728 38.0619C33.6593 37.8387 33.3078 37.4703 33.1185 36.9567C32.9282 36.4432 32.9671 35.9632 33.235 35.5166C33.8825 34.5119 34.7533 33.6746 35.8474 33.0047C36.9414 32.3349 38.2252 32 39.6989 32C42.0433 32 43.8464 32.6533 45.1084 33.9599C46.3695 35.2656 47 36.8339 47 38.6648C47 39.7812 46.7602 40.7359 46.2806 41.529C45.8001 42.3212 45.0463 43.2196 44.0193 44.2244C43.2601 44.9389 42.7243 45.5194 42.4117 45.9659C42.0991 46.4125 41.887 46.926 41.7753 47.5065C41.686 48.0647 41.4516 48.5224 41.072 48.8797C40.6924 49.2369 40.2459 49.4155 39.7324 49.4155ZM39.6989 57.4535C38.9621 57.4535 38.3315 57.1913 37.8073 56.6671C37.2821 56.142 37.0196 55.511 37.0196 54.7742C37.0196 54.0374 37.2821 53.4064 37.8073 52.8812C38.3315 52.357 38.9621 52.0948 39.6989 52.0948C40.4357 52.0948 41.0667 52.357 41.5918 52.8812C42.1161 53.4064 42.3782 54.0374 42.3782 54.7742C42.3782 55.511 42.1161 56.142 41.5918 56.6671C41.0667 57.1913 40.4357 57.4535 39.6989 57.4535Z" fill="white"/>
</svg>
