<svg width="111" height="63" viewBox="0 0 111 63" fill="none" xmlns="http://www.w3.org/2000/svg">
<path d="M55.5 49C24.8483 49 0 52.1019 0 56C0 59.8981 24.8483 63 55.5 63C86.1517 63 111 59.8981 111 56C111 52.1019 86.1517 49 55.5 49Z" fill="#67843A"/>
<path d="M52.7535 0.417542L15.7161 7.35808V53.0553L52.7535 46.1147V0.417542Z" fill="#53AE93"/>
<path d="M89.689 7.35808L52.6516 0.417542V46.1147L89.689 53.0553V7.35808Z" fill="#61C1A1"/>
<path d="M52.7025 60L15.665 53.0637V7.36227L52.7025 14.3028V60Z" fill="#6BCAAC"/>
<path d="M89.638 53.0637L52.6006 60V14.3028L89.638 7.36227V53.0637Z" fill="#428E71"/>
<path d="M37.3569 57.1262L27.2623 55.2329V9.53575L37.3569 11.429V57.1262Z" fill="#DE4F68"/>
<path d="M77.3404 55.3643L67.2416 57.2661V11.5604L77.3404 9.66716V55.3643Z" fill="#9E2B46"/>
</svg>
