<svg width="126" height="63" viewBox="0 0 126 63" fill="none" xmlns="http://www.w3.org/2000/svg">
<path d="M63 48.5825C28.2062 48.5825 0 51.6844 0 55.5824C0 59.4805 28.2062 62.5825 63 62.5825C97.7939 62.5825 126 59.4805 126 55.5824C126 51.6844 97.7939 48.5825 63 48.5825Z" fill="#67843A"/>
<path d="M57.7535 0L20.7161 6.94054V52.6377L57.7535 45.6972V0Z" fill="#53AE93"/>
<path d="M94.689 6.94054L57.6516 0V45.6972L94.689 52.6377V6.94054Z" fill="#61C1A1"/>
<path d="M57.7025 59.5825L20.665 52.6462V6.94473L57.7025 13.8853V59.5825Z" fill="#6BCAAC"/>
<path d="M94.638 52.6462L57.6006 59.5825V13.8853L94.638 6.94473V52.6462Z" fill="#428E71"/>
<path d="M42.3569 56.7087L32.2623 54.8154V9.11823L42.3569 11.0115V56.7087Z" fill="#DE4F68"/>
<path d="M82.3404 54.9468L72.2416 56.8486V11.1429L82.3404 9.24963V54.9468Z" fill="#9E2B46"/>
</svg>
