<svg width="30" height="29" viewBox="0 0 30 29" fill="none" xmlns="http://www.w3.org/2000/svg">
<path d="M29.3791 14.2624L15.7485 0.317593C15.6504 0.216917 15.5338 0.137044 15.4055 0.0825477C15.2771 0.0280511 15.1396 0 15.0006 0C14.8617 0 14.7241 0.0280511 14.5958 0.0825477C14.4675 0.137044 14.3509 0.216917 14.2527 0.317593L0.62213 14.2624C0.225026 14.669 0 15.2212 0 15.7971C0 16.9931 0.949741 17.9654 2.11789 17.9654H3.55409V27.9159C3.55409 28.5155 4.0273 29 4.61303 29H12.8827V21.411H16.589V29H25.3882C25.9739 29 26.4472 28.5155 26.4472 27.9159V17.9654H27.8834C28.4459 17.9654 28.9853 17.7384 29.3824 17.3285C30.2064 16.4815 30.2064 15.1094 29.3791 14.2624Z" fill="white"/>
</svg>
