<svg width="81" height="50" viewBox="0 0 81 50" fill="none" xmlns="http://www.w3.org/2000/svg">
<path d="M47.5379 46.7675C45.4687 45.8855 43.0901 45.7711 40.9446 46.0536C38.786 46.3378 36.5009 47.0517 34.6206 48.5C34.6189 48.5012 34.6176 48.503 34.616 48.5043C34.4659 46.803 34.3287 45.1768 34.4654 43.4532C34.5853 41.9419 34.7798 40.1087 35.4551 38.8067C35.6418 38.9525 35.83 39.0952 36.0209 39.2314C37.0636 39.9748 38.2568 40.7375 39.4325 41.0366C39.5145 41.0575 39.5743 41.0113 39.6043 40.9432C39.7985 40.838 39.9818 40.7032 40.1571 40.5482C40.2 40.6443 40.2934 40.7062 40.3943 40.6425C42.1797 39.5146 43.9559 38.4849 45.8765 37.7952C46.0699 37.7257 46.2642 37.6592 46.4591 37.5947C46.9554 37.8166 47.4854 37.8392 47.983 38.1067C48.4453 38.3553 48.8569 38.7067 49.2725 39.0604C49.1044 39.6615 49.0413 40.3411 48.9218 40.9589C48.7903 41.6389 48.6486 42.3159 48.4958 42.9884C48.2068 44.261 47.836 45.5 47.5379 46.7675Z" fill="#F5F5F5"/>
<path d="M57.316 36.6182C58.3528 37.7779 59.7964 38.2368 61.1472 38.2447C61.8821 38.249 62.6219 38.105 63.3223 37.8162C63.8377 37.6038 64.4889 37.3044 64.9528 36.8421C64.9094 37.6846 64.9518 38.551 64.9584 39.3922C64.966 40.36 64.9801 41.3279 64.9977 42.2953C65.0147 43.2244 65.0354 44.1531 65.065 45.0816C65.0873 45.7804 65.0097 46.7004 65.1954 47.386C65.1653 47.3716 65.1313 47.3658 65.0933 47.3746C63.2833 47.7935 61.4397 47.5984 59.7046 46.8053C57.9562 46.0062 56.4949 44.6193 55.2109 42.9133C55.6302 42.1203 55.9982 41.289 56.3081 40.4437C56.7554 39.2244 57.0964 37.9385 57.316 36.6182Z" fill="#F5F5F5"/>
<path d="M36.4039 38.0508C37.4407 39.2105 38.8843 39.6694 40.2351 39.6773C40.97 39.6817 41.7098 39.5376 42.4102 39.2488C42.9255 39.0364 43.5768 38.7371 44.0407 38.2747C43.9973 39.1173 44.0397 39.9836 44.0463 40.8248C44.0539 41.7926 44.068 42.7605 44.0856 43.728C44.1026 44.657 44.1233 45.5858 44.1529 46.5142C44.1752 47.213 44.0976 48.133 44.2833 48.8186C44.2532 48.8042 44.2192 48.7984 44.1812 48.8072C42.3712 49.2261 40.5276 49.031 38.7925 48.2379C37.044 47.4388 35.5828 46.0519 34.2988 44.3459C34.7181 43.553 35.0861 42.7216 35.396 41.8763C35.8433 40.657 36.1843 39.3711 36.4039 38.0508Z" fill="#F5F5F5"/>
<path d="M54.0375 30.9941C54.5657 31.1215 55.0943 31.2458 55.6227 31.3714C56.1575 31.4987 56.7077 31.6948 57.2512 31.7237C57.2174 33.1432 57.2553 34.534 57.0544 35.9493C56.8419 37.4475 56.4745 38.9084 55.9651 40.2811C54.9178 43.1028 53.334 45.3159 51.372 47.1024C50.3821 46.3725 49.3754 45.7194 48.4126 44.9211C48.5719 44.3217 48.7157 43.7156 48.8545 43.1165C49.0101 42.4447 49.1529 41.7685 49.282 41.0874C49.4107 40.4086 49.6011 39.6726 49.6063 38.9706C49.6074 38.8208 49.5121 38.764 49.4271 38.7917C49.0544 38.2979 48.5885 37.941 48.0977 37.6771C47.865 37.5519 47.5998 37.419 47.3281 37.3264C47.7798 37.1979 48.2342 37.0853 48.6901 36.9936C49.8203 36.7663 50.8377 36.9695 51.9565 37.1761C52.0742 37.1979 52.1284 37.0188 52.0441 36.939C52.063 36.91 52.0743 36.8723 52.0726 36.8276C52.0411 35.9909 51.7561 35.118 51.5875 34.3103C51.4088 33.4537 51.2332 32.5962 51.0609 31.7375C50.9533 31.2012 50.8508 30.6619 50.7481 30.1221C51.8268 30.5007 52.9395 30.7293 54.0375 30.9941Z" fill="#F5F5F5"/>
<path d="M33.1249 32.4258C33.6531 32.5531 34.1817 32.6775 34.7101 32.8031C35.2449 32.9303 35.7951 33.1264 36.3386 33.1554C36.3048 34.5748 36.3427 35.9657 36.1418 37.381C35.9293 38.8792 35.5619 40.3401 35.0525 41.7128C34.0052 44.5345 32.4214 46.7476 30.4594 48.534C29.4695 47.8041 28.4628 47.1511 27.5 46.3527C27.6593 45.7533 27.8031 45.1472 27.9419 44.5481C28.0975 43.8764 28.2403 43.2002 28.3694 42.5191C28.4981 41.8403 28.6885 41.1042 28.6937 40.4022C28.6948 40.2524 28.5995 40.1956 28.5145 40.2234C28.1418 39.7295 27.6759 39.3726 27.1851 39.1087C26.9524 38.9835 26.6872 38.8507 26.4155 38.758C26.8672 38.6295 27.3216 38.517 27.7775 38.4253C28.9077 38.1979 29.9251 38.4011 31.0439 38.6078C31.1616 38.6295 31.2158 38.4505 31.1315 38.3706C31.1504 38.3417 31.1617 38.304 31.16 38.2592C31.1285 37.4226 30.8435 36.5496 30.6749 35.7419C30.4962 34.8854 30.3206 34.0279 30.1483 33.1692C30.0407 32.6328 29.9382 32.0935 29.8355 31.5537C30.9142 31.9323 32.0269 32.161 33.1249 32.4258Z" fill="#F5F5F5"/>
<path d="M43.1235 29.0143C43.7791 28.4697 44.4775 28.0089 45.2044 27.6471C46.6906 26.9073 48.1789 26.6901 49.7547 26.6357C49.9733 28.4 50.3546 30.1394 50.7032 31.8659C50.8764 32.7243 51.0529 33.5816 51.2326 34.4377C51.3934 35.2034 51.4969 36.0954 51.7724 36.8118C50.8577 36.4312 49.9556 36.3005 48.9859 36.4548C47.9562 36.6187 46.9339 36.9163 45.9336 37.2683C44.2014 37.8776 42.4404 38.689 40.8438 39.797C41.345 39.1482 41.7827 38.3818 42.2164 37.7401C43.0915 36.4453 43.9442 35.1182 44.6078 33.621C44.6909 33.4336 44.5436 33.2604 44.4184 33.2919C44.4026 33.2437 44.3731 33.2014 44.3278 33.1769C43.254 32.5983 42.2479 31.8916 41.3261 31.0273C41.7231 30.1503 42.4786 29.5501 43.1235 29.0143Z" fill="#F5F5F5"/>
<path d="M22.2109 30.446C22.8665 29.9013 23.5649 29.4405 24.2918 29.0787C25.778 28.3389 27.2663 28.1218 28.8421 28.0674C29.0607 29.8317 29.442 31.571 29.7906 33.2976C29.9638 34.156 30.1403 35.0132 30.32 35.8693C30.4808 36.635 30.5843 37.5271 30.8598 38.2434C29.9451 37.8628 29.043 37.7321 28.0733 37.8864C27.0436 38.0503 26.0213 38.3479 25.021 38.6999C23.2888 39.3092 21.5278 40.1207 19.9312 41.2286C20.4324 40.5799 20.8701 39.8134 21.3038 39.1718C22.1789 37.8769 23.0316 36.5498 23.6952 35.0527C23.7783 34.8653 23.631 34.692 23.5058 34.7235C23.49 34.6753 23.4605 34.633 23.4152 34.6086C22.3414 34.0299 21.3353 33.3232 20.4135 32.4589C20.8105 31.582 21.566 30.9817 22.2109 30.446Z" fill="#F5F5F5"/>
<path d="M68.438 31.8796C69.0935 31.3349 69.7919 30.8741 70.5189 30.5123C72.0051 29.7725 73.4934 29.5554 75.0692 29.501C75.2878 31.2652 75.6691 33.0046 76.0176 34.7312C76.1908 35.5896 76.3674 36.4468 76.547 37.3029C76.7078 38.0686 76.8113 38.9607 77.0869 39.677C76.1722 39.2964 75.27 39.1657 74.3004 39.32C73.2706 39.4839 72.2483 39.7815 71.248 40.1335C69.5159 40.7428 67.7549 41.5543 66.1582 42.6622C66.6594 42.0135 67.0971 41.247 67.5308 40.6054C68.406 39.3105 69.2586 37.9834 69.9223 36.4862C70.0053 36.2989 69.8581 36.1256 69.7329 36.1571C69.7171 36.1089 69.6875 36.0666 69.6422 36.0422C68.5684 35.4635 67.5623 34.7568 66.6405 33.8925C67.0376 33.0156 67.7931 32.4153 68.438 31.8796Z" fill="#F5F5F5"/>
<path d="M30.8161 32.724C30.1402 31.5427 29.63 30.2639 29.0679 28.9973C29.3861 28.7383 29.6455 28.3506 29.9248 28.0262C30.2025 27.7039 30.4849 27.3882 30.7718 27.0796C31.4362 26.3648 32.1247 25.6873 32.8339 25.0493C33.4879 24.461 34.1609 23.9123 34.847 23.3895C35.3846 22.9798 35.8922 22.5796 36.2322 21.9014C37.0668 27.1117 40.3321 31.8601 44.2333 33.5591C43.6057 34.923 42.8224 36.1367 42.0196 37.3328C41.2736 38.4443 40.5152 39.8724 39.5138 40.6395C38.3834 40.0722 37.2651 39.6051 36.196 38.8398C35.1439 38.0867 34.1547 37.185 33.2521 36.1564C32.3492 35.1276 31.5324 33.9758 30.8161 32.724Z" fill="#F5F5F5"/>
<path d="M9.90351 34.1595C9.22764 32.9782 8.71744 31.6995 8.15527 30.4328C8.4735 30.1738 8.73287 29.7861 9.01224 29.4618C9.28993 29.1394 9.57229 28.8237 9.85921 28.5152C10.5236 27.8004 11.2121 27.1229 11.9213 26.4848C12.5753 25.8965 13.2483 25.3478 13.9344 24.825C14.472 24.4153 14.9796 24.0151 15.3196 23.3369C16.1542 28.5473 19.4195 33.2957 23.3207 34.9946C22.6931 36.3585 21.9098 37.5722 21.107 38.7684C20.361 39.8799 19.6026 41.308 18.6012 42.075C17.4709 41.5077 16.3525 41.0406 15.2834 40.2753C14.2313 39.5223 13.2421 38.6206 12.3395 37.5919C11.4366 36.5632 10.6198 35.4114 9.90351 34.1595Z" fill="#F5F5F5"/>
<path d="M56.1311 35.5931C55.4552 34.4118 54.945 33.1331 54.3828 31.8664C54.701 31.6074 54.9604 31.2197 55.2398 30.8954C55.5175 30.573 55.7998 30.2573 56.0867 29.9488C56.7512 29.234 57.4396 28.5565 58.1489 27.9184C58.8029 27.3301 59.4759 26.7814 60.1619 26.2586C60.6996 25.8489 61.2071 25.4487 61.5471 24.7705C62.3817 29.9809 65.647 34.7293 69.5482 36.4282C68.9207 37.7921 68.1373 39.0058 67.3346 40.202C66.5885 41.3135 65.8301 42.7416 64.8287 43.5086C63.6984 42.9413 62.58 42.4742 61.5109 41.7089C60.4588 40.9559 59.4696 40.0542 58.567 39.0255C57.6641 37.9968 56.8473 36.845 56.1311 35.5931Z" fill="#F5F5F5"/>
<path d="M80.3622 27.8256C80.3076 27.0884 80.2519 26.3513 80.1954 25.6143C80.161 25.1646 80.2381 24.3149 79.9634 23.9745C79.936 23.9406 79.8959 23.9154 79.8553 23.9079C80.0337 23.7115 80.1985 23.4979 80.344 23.2611C80.3498 23.269 80.3552 23.2775 80.361 23.2854C80.4601 23.4151 80.6367 23.2834 80.5979 23.1067C80.4769 22.5567 80.1873 22.0763 79.9365 21.6122C79.6794 21.1365 79.4062 20.6743 79.1172 20.2302C78.4993 19.28 77.811 18.4065 77.0658 17.6249C76.364 16.8891 75.6124 16.2288 74.8147 15.6805C74.3511 15.3619 73.7867 14.9617 73.2693 15.0732C73.6187 14.6111 73.9822 14.1333 74.1431 13.5264C74.1551 13.4812 74.1451 13.4455 74.1257 13.4215C74.1378 13.399 74.1476 13.3741 74.1527 13.3455C74.1784 13.1997 74.1632 13.1175 74.0795 13.0112C74.0488 12.9722 73.9997 12.9471 73.9528 12.9486C73.8837 12.8113 73.8108 12.5567 73.7773 12.4789C73.7028 12.3055 73.6264 12.1332 73.5477 11.9628C73.3644 11.5655 73.1689 11.1774 72.9589 10.803C72.5616 10.094 72.1177 9.42465 71.6077 8.84744C70.7458 7.87206 69.7263 7.16807 68.6046 6.90127C69.2056 6.12793 69.8474 5.39589 70.394 4.56283C70.5396 4.72947 70.802 4.48713 70.6765 4.26495C69.5172 2.21301 67.34 0.657849 65.383 0.450195C61.0674 6.13322 23 3.50639 22.077 2.46183C21.154 1.41727 22.0656 2.47203 22.0601 2.47851C21.4062 3.27171 20.7869 4.10507 20.1105 4.86474C20.1063 3.65954 20.0493 2.44844 20.0299 1.24367C20.0252 0.955865 19.7427 0.940754 19.6666 1.17992C19.6548 1.21691 19.643 1.25389 19.6312 1.29087C19.4506 0.744465 18.9265 0.732805 18.5198 0.770796C17.8606 0.832243 17.206 0.99298 16.5704 1.22524C15.2716 1.69984 14.0418 2.48398 12.9474 3.50541C11.8719 4.50929 10.9266 5.73191 10.1551 7.12893C9.75538 7.85263 9.4054 8.62268 9.11482 9.42926C8.85867 10.1404 8.55743 10.949 8.5229 11.7415C8.52223 11.7561 8.52479 11.7689 8.52701 11.7818C8.49659 11.83 8.48748 11.9053 8.52623 11.9584C9.13714 12.7958 9.7948 13.5786 10.4355 14.3796C9.93704 14.818 9.58661 15.5494 9.32446 16.229C8.96981 17.1482 8.69589 18.1294 8.46893 19.1126C8.38455 19.478 8.30838 19.8462 8.23887 20.2166C6.65541 20.6874 5.16089 21.8226 3.89376 23.1055C2.53748 24.4788 1.33463 26.1843 0.489995 28.1355C0.478558 28.162 0.472229 28.1878 0.468342 28.2131C0.376739 28.1432 0.275808 28.3254 0.35442 28.4239C1.62232 30.0139 3.00482 31.4638 4.34956 32.9418C5.69919 34.4252 7.05391 35.9009 8.40665 37.3795C8.50169 37.4834 8.65148 37.4818 8.71854 37.3274C9.21609 36.1815 9.71364 35.0356 10.2112 33.8899C10.4448 33.3519 10.6725 32.8088 10.9127 32.2758C11.1367 31.7789 11.3909 31.2804 11.8382 31.1103C11.9103 31.0829 11.9519 31.0205 11.9696 30.9487C14.6694 31.3472 17.6916 30.9705 19.8117 28.6428C19.7787 30.2977 20.0124 32.0038 20.5536 33.5074C20.5461 33.5088 20.5382 33.5092 20.5306 33.5107C20.3666 33.5432 20.384 33.87 20.5306 33.9185C21.1288 34.1162 21.8166 34.0493 22.4321 34.0817C23.1105 34.1172 23.7892 34.1492 24.4678 34.1774C25.7518 34.2308 27.1182 34.4118 28.3941 34.185C28.4284 34.179 28.4505 34.1505 28.4633 34.1148C28.5407 34.2066 28.6733 34.1864 28.7239 34.0225C28.8965 33.4628 28.8901 32.7654 28.9691 32.1693C29.038 31.6501 29.1189 31.1328 29.2179 30.6213C30.6591 31.0441 32.0087 31.7735 33.2091 32.9143C33.8282 33.5026 34.3931 34.1895 34.8909 34.9466C35.1561 35.3496 35.4 35.7752 35.6214 36.2202C35.8198 36.6189 35.9603 37.105 36.2127 37.448C36.2883 37.5508 36.3854 37.5193 36.4404 37.4339C36.494 37.4472 36.5536 37.4259 36.594 37.3528C37.2699 36.1316 37.9594 34.9343 38.721 33.7995C38.7414 33.769 38.7628 33.7396 38.7834 33.7092C42.1952 37.19 47.1677 37.992 51.1738 35.8718C51.3737 35.7661 51.3272 35.3823 51.1541 35.3631C50.9566 34.4364 50.7265 33.5218 50.528 32.5946C52.1284 32.796 53.6575 33.266 55.0914 34.2509C56.559 35.259 57.7814 36.6717 58.7702 38.3942C58.8332 38.5041 58.932 38.5195 59.0104 38.4801C59.065 38.5446 59.1652 38.5554 59.2039 38.4528C59.7899 36.896 60.3248 35.304 60.8613 33.7175C61.0329 34.5279 61.2284 35.3319 61.4206 36.1332C61.5359 36.6144 61.6515 37.0956 61.7698 37.5757C61.881 38.0275 61.9563 38.5342 62.1598 38.9308C62.198 39.0052 62.2696 39.0267 62.328 39.0035C62.3138 39.148 62.4677 39.2474 62.538 39.1006C63.4665 37.1604 64.7867 35.6855 66.3668 34.6829C67.2502 34.1224 68.1912 33.7205 69.1469 33.4253C69.6045 33.284 70.0664 33.1672 70.5305 33.0686C71.0399 32.9604 71.5943 32.9579 72.0861 32.7593C72.1528 32.7323 72.1899 32.6729 72.2022 32.6064C72.2397 32.5921 72.2699 32.5536 72.2669 32.49C72.2413 31.9623 72.1824 31.4328 72.1055 30.9064C73.1602 32.0791 74.6262 32.7723 75.9626 33.0817C77.4618 33.4287 79.0322 33.3286 80.4854 32.7247C80.5284 32.7068 80.5593 32.6756 80.5801 32.6375C80.6329 32.6176 80.6772 32.5631 80.6736 32.4807C80.6053 30.926 80.4767 29.3757 80.3622 27.8256Z" fill="#3C3C3B"/>
<path d="M71.7185 9.67801C72.2067 10.3234 72.6297 11.0425 73.0027 11.8055C73.1803 12.169 73.3465 12.5413 73.5039 12.9202C73.6148 13.1873 73.6729 13.4531 73.914 13.5254C73.9199 13.5272 73.926 13.5275 73.9319 13.5286C73.5241 14.2431 72.9795 14.8068 72.5087 15.4507C72.001 16.1452 71.5282 16.8813 71.0743 17.6354C70.6594 18.3247 70.2589 19.0282 69.8668 19.7395C69.6595 20.1154 69.4551 20.4939 69.2523 20.8738C69.0659 21.2226 68.8192 21.5742 68.7337 21.9869C68.4579 20.3308 67.9355 18.7407 67.2411 17.3074C66.6701 16.129 65.8629 14.6726 64.8351 14.127C64.8301 14.1244 64.8252 14.1232 64.8203 14.1214C65.1833 12.916 65.6523 11.7613 66.2094 10.6712C66.8018 9.51181 67.4845 8.43626 68.2166 7.42102C68.2787 7.33496 68.3424 7.25063 68.4061 7.16602C69.6789 7.56262 70.802 8.46648 71.7185 9.67801Z" fill="#F5F5F5"/>
<path d="M69.424 29.2852C69.0461 29.2832 68.6557 29.3657 68.2829 29.3916C67.8178 29.4238 67.3521 29.4434 66.8863 29.4415C65.9071 29.4376 64.9255 29.3448 63.9635 29.1015C62.3388 28.6905 60.8634 27.8616 59.5226 26.6144C59.5271 26.2414 59.5281 25.858 59.4717 25.506C61.9803 24.0667 64.4283 22.3853 66.8706 20.769C67.0406 20.6564 66.9705 20.3833 66.8293 20.3157C66.7175 19.7129 66.6315 19.1118 66.6576 18.4879C66.6727 18.1276 66.7612 17.776 66.8267 17.4258C66.8766 17.5254 66.9258 17.6254 66.9737 17.7264C67.6449 19.14 68.1203 20.6711 68.4892 22.2564C68.541 22.4789 68.7864 22.3915 68.7619 22.1718C68.803 22.2339 68.8704 22.2646 68.9307 22.21C69.1831 21.9822 69.3251 21.6324 69.4994 21.3085C69.5738 21.1702 69.6492 21.0326 69.7238 20.8945C69.3972 23.6332 69.2484 26.5336 69.424 29.2852Z" fill="#F5F5F5"/>
<path d="M65.3259 6.07004C65.3597 6.06587 65.3936 6.03579 65.4063 5.99305C65.5178 5.61401 65.4728 5.20589 65.4664 4.80411C65.4588 4.33973 65.4482 3.87549 65.439 3.41126C65.4219 2.54208 65.4036 1.67289 65.3893 0.803711C66.3268 1.12778 67.2276 1.49532 68.0806 2.11843C68.9264 2.73635 69.5902 3.5448 70.2716 4.41255C69.375 5.12905 68.6087 6.16545 67.893 7.14918C67.1366 8.18904 66.441 9.31091 65.837 10.5072C64.6435 12.8713 63.8086 15.5899 63.6567 18.425C63.6402 18.7341 64.0047 18.7283 64.026 18.425C64.1199 17.0872 64.3521 15.7891 64.6982 14.5428C65.1038 15.0055 65.547 15.3797 65.9204 15.8992C66.145 16.2116 66.3512 16.5438 66.5439 16.8894C66.343 17.3494 66.3162 17.9905 66.3092 18.4891C66.3 19.1403 66.3864 19.7883 66.5899 20.3831C64.1601 21.9299 61.6889 23.4467 59.3288 25.1672C59.2855 25.1532 59.2393 25.1654 59.2072 25.206C59.0958 24.8868 58.9113 24.6082 58.7677 24.3117C58.6108 23.9879 58.4648 23.6555 58.3316 23.3143C58.0286 22.5377 57.7967 21.715 57.6304 20.8722C57.3141 19.2671 57.3024 17.668 57.4129 16.0347C57.9793 15.7095 58.5348 15.3437 59.0778 14.9547C59.0836 14.9905 59.0968 15.0249 59.12 15.0539C59.4179 15.4243 59.814 15.6665 60.1629 15.9497C60.553 16.2664 60.9399 16.5895 61.3237 16.9189C62.0824 17.57 62.8245 18.3228 63.636 18.8595C63.7285 18.9209 63.8247 18.7715 63.7488 18.67C63.1275 17.8396 62.3324 17.18 61.5949 16.5385C61.2126 16.206 60.8272 15.8797 60.4386 15.5598C60.096 15.2778 59.748 14.9356 59.3662 14.7453C59.6506 14.5365 59.9319 14.3234 60.2096 14.1087C60.8563 13.6086 61.4901 13.0799 62.1089 12.5234C62.6775 12.012 63.3432 11.4978 63.8166 10.8389C63.911 10.7075 63.8568 10.5213 63.755 10.4636C63.4918 8.99706 62.6983 7.41166 61.7059 6.40879C62.8793 6.61918 64.0695 6.58306 65.1928 6.28389C65.2896 6.25798 65.3287 6.16588 65.3259 6.07004Z" fill="#F5F5F5"/>
<path d="M48.4185 25.3224C48.3184 24.4456 48.2069 23.3733 47.9443 22.4167C48.1599 21.5419 48.6261 20.8728 49.2775 20.4768C49.2851 20.4722 49.2914 20.4665 49.2978 20.4609C50.0149 20.3486 50.7248 20.1732 51.4158 19.949C52.6389 19.5521 53.8281 18.9883 54.97 18.2971C55.5779 17.9291 56.1784 17.5291 56.7536 17.0811C56.8615 16.9971 56.9683 16.905 57.0576 16.8008C56.9025 18.1946 57.0013 19.6507 57.2555 21.0034C57.4108 21.8301 57.6373 22.6338 57.9221 23.4004C58.1811 24.0976 58.5247 25.0949 59.029 25.543C59.0618 25.5722 59.0994 25.5748 59.1345 25.5621C59.0893 26.0777 59.1576 26.6453 59.178 27.1498C59.1946 27.5589 59.2094 27.9688 59.2286 28.378C58.757 27.9073 57.8834 27.866 57.4045 27.7771C56.2813 27.5683 55.1447 27.4779 54.0103 27.5225C52.1798 27.5943 50.1056 27.8436 48.577 29.2798C48.5863 29.0033 48.5899 28.7333 48.5938 28.4819C48.6104 27.424 48.5378 26.368 48.4185 25.3224Z" fill="#F5F5F5"/>
<path d="M45.4012 20.4791C45.3676 20.3454 45.2178 20.3046 45.1612 20.4385C44.99 20.8432 45.006 21.3614 44.9308 21.8112C44.8402 22.3535 44.7159 22.8851 44.5631 23.4033C44.2674 24.4063 43.8526 25.3191 43.3689 26.1854C43.3489 26.1728 43.3272 26.1629 43.3023 26.1586C41.2224 25.7974 39.1222 25.3191 37.026 25.1395C37.2283 24.6205 37.3125 23.9617 37.3942 23.4194C37.4986 22.7263 37.5579 22.0206 37.5655 21.3145C37.5812 19.8656 37.3906 18.3866 36.9659 17.0435C36.9529 17.0025 36.9323 16.9732 36.9082 16.9537C37.2625 16.0752 37.5731 15.1672 37.838 14.2367C38.1623 13.0975 38.4222 11.9154 38.6098 10.7129C39.5755 12.3455 41.1052 13.2341 42.5606 13.9644C43.2298 14.3003 43.9425 14.6582 44.6755 14.9589C44.4157 15.8293 44.2235 16.7383 44.0084 17.6282C43.9015 18.0709 43.7988 18.5152 43.6953 18.9593C43.6242 19.2644 43.5518 19.4562 43.6644 19.7384C43.7009 19.8297 43.813 19.8993 43.8906 19.8577C43.8957 19.855 43.9007 19.8523 43.9058 19.8497C44.8306 20.2664 45.7954 20.4936 46.7714 20.5714C46.7682 20.5978 46.7713 20.6253 46.7841 20.6505C47.1466 21.3664 47.4477 22.0487 47.6345 22.8789C47.8237 23.7201 47.9388 24.5945 48.0361 25.4605C48.1485 26.4601 48.2097 27.4723 48.1922 28.4828C48.1845 28.923 48.1623 29.3632 48.1215 29.8004C48.0792 30.2527 47.9749 30.7076 47.9506 31.1621C46.5559 30.7696 45.0902 30.654 43.6762 30.4756C42.1778 30.2866 40.6752 30.1116 39.1713 30.0105C39.5001 28.7415 39.6622 27.4224 39.6696 26.0832C40.8814 26.2963 42.0988 26.4717 43.3023 26.6808C43.3712 26.6928 43.4207 26.6631 43.4524 26.6133C43.4818 26.6087 43.5104 26.5917 43.534 26.5569C44.1047 25.7178 44.5516 24.7521 44.88 23.7185C45.0525 23.1757 45.188 22.6131 45.2883 22.0406C45.3701 21.5729 45.5187 20.9462 45.4012 20.4791Z" fill="#F5F5F5"/>
<path d="M29.8913 9.41097C30.0364 7.31514 29.7606 4.90632 28.7097 3.22797C28.7412 3.20581 28.772 3.18249 28.8037 3.16091C29.564 2.64069 30.3878 2.28583 31.2394 2.12724C32.2028 1.94794 33.0959 2.12048 34.0357 2.38728C34.0427 2.38929 34.0491 2.38771 34.0557 2.388C33.9456 3.98894 33.9747 5.69262 34.2969 7.21326C34.3401 7.41689 34.5829 7.41458 34.6272 7.23901C34.6518 7.25657 34.6821 7.26061 34.7159 7.24247C35.9913 6.56152 37.2556 5.95294 38.5643 5.52396C38.5742 8.28635 38.2938 10.9964 37.5981 13.6179C37.2502 14.9288 36.8093 16.1981 36.2846 17.4063C35.8097 18.5001 35.2945 19.6459 34.4105 20.2326C34.3976 20.2039 34.3802 20.1782 34.3563 20.1582C33.3387 19.3067 32.1332 18.7035 31.026 18.0733C29.9836 17.48 28.9244 16.8947 27.8232 16.5091C27.8491 16.4922 27.8737 16.467 27.8942 16.4295C28.988 14.4363 29.723 11.8412 29.8913 9.41097Z" fill="#F5F5F5"/>
<path d="M29.3737 9.96298C29.2697 9.23771 29.1079 8.52884 28.8924 7.84616C28.5106 6.63707 27.9741 5.41014 27.2026 4.54139C27.6168 4.10895 28.0535 3.71307 28.5144 3.36914C29.2707 5.30264 29.6764 7.31457 29.5018 9.50681C29.4818 9.75749 29.4541 10.0069 29.4214 10.2551C29.403 10.1475 29.3859 10.048 29.3737 9.96298Z" fill="#F5F5F5"/>
<path d="M50.6384 5.54786C50.8481 5.65723 51.0595 5.75494 51.272 5.83711C51.3015 5.9482 51.3948 6.02793 51.4998 5.94979C51.5115 5.94116 51.5226 5.93137 51.5343 5.92274C51.5611 5.919 51.5828 5.89942 51.5975 5.87295C52.9674 4.82345 54.1473 3.30828 55.0841 1.59668C56.423 3.94635 58.5066 5.51073 60.7375 6.17701C61.3341 6.74759 61.9082 7.26536 62.3895 8.0223C62.8758 8.78672 63.2165 9.63892 63.5352 10.5311C62.9195 11.0014 62.3629 11.6655 61.7732 12.1914C61.197 12.7051 60.6082 13.1954 60.0079 13.6606C58.7861 14.6072 57.5039 15.3832 56.2476 16.2423C56.1571 15.4429 55.7245 14.5583 55.4119 13.9086C55.0069 13.0669 54.5185 12.2894 53.9655 11.6037C52.9074 10.2915 51.5629 9.23887 50.1152 8.85853C50.1681 8.54842 50.2206 8.2383 50.2733 7.92805C50.4029 7.16578 50.6045 6.37287 50.6394 5.59291C50.6402 5.57694 50.6398 5.56196 50.6384 5.54786Z" fill="#F5F5F5"/>
<path d="M44.0786 19.5967L44.0731 19.5323C44.0667 19.4569 44.0409 19.4045 44.001 19.3708C44.0124 19.1372 44.1723 18.7149 44.2111 18.5451C44.3041 18.1374 44.3943 17.7287 44.4841 17.3199C44.6479 16.575 44.83 15.8309 44.9565 15.0734C46.2484 15.5723 47.5942 15.8649 48.872 15.5231C48.9854 15.4927 49.0144 15.3682 48.989 15.2566C49.0032 15.2374 49.0146 15.214 49.0211 15.1851C49.3206 13.8394 49.5232 12.4499 49.7433 11.0747C50.4925 11.27 51.5645 11.1661 52.0805 10.3828C52.654 10.8269 53.1932 11.3458 53.6891 11.9623C54.2023 12.6005 54.6569 13.3147 55.037 14.0941C55.2253 14.4802 55.3951 14.8808 55.5467 15.2931C55.6952 15.6972 55.7811 16.1684 55.9741 16.5383C56.0188 16.6241 56.106 16.6487 56.173 16.617C56.1998 16.6353 56.2321 16.6408 56.2676 16.6251C56.4577 16.5408 56.6463 16.4487 56.8339 16.3528C56.6127 16.7525 55.6538 17.283 55.4666 17.4077C54.9518 17.7499 54.426 18.0656 53.8904 18.3495C52.8612 18.8951 51.7962 19.3302 50.7084 19.6305C48.5025 20.2394 46.2808 20.177 44.0786 19.5967Z" fill="#F5F5F5"/>
<path d="M48.5434 20.5586C48.1992 20.9208 47.9404 21.4017 47.7979 21.9486C47.6128 21.419 47.3693 20.9454 47.0371 20.5918C47.5382 20.6179 48.0416 20.6045 48.5434 20.5586Z" fill="#F5F5F5"/>
<path d="M49.8027 10.7015C49.8239 10.5719 49.8449 10.4421 49.8668 10.3128C49.9316 9.92846 49.9973 9.54438 50.0627 9.16016C50.6499 9.43703 51.2155 9.75836 51.7532 10.1403C51.4956 10.2914 51.2542 10.4841 50.9762 10.5868C50.5917 10.7287 50.1971 10.7572 49.8027 10.7015Z" fill="#F5F5F5"/>
<path d="M50.3226 5.53635C50.0817 6.30811 50.0005 7.20808 49.8613 8.02085C49.7253 8.8152 49.5926 9.61057 49.4603 10.4059C49.2067 11.9317 48.9123 13.4658 48.7476 15.0135C48.6978 14.987 48.6479 14.9605 48.5981 14.934C48.4978 14.8808 48.4367 14.984 48.4348 15.094C47.4994 15.1353 46.6044 15.0607 45.6757 14.769C44.6927 14.4603 43.7391 14.0112 42.7935 13.5505C41.2628 12.8047 39.7596 11.8886 38.6758 10.2695C38.9011 8.66411 38.9952 7.02734 38.9318 5.41086C39.6128 5.20695 40.3068 5.05297 41.0218 4.96533C42.084 4.8351 43.1539 4.82732 44.2173 4.93813C45.3547 5.05671 46.4342 5.38827 47.5437 5.70313C47.69 5.74472 47.7774 5.58398 47.7611 5.44036C47.9603 4.9177 48.1322 4.37374 48.2884 3.82129C48.9353 4.42195 49.656 4.99483 50.4065 5.42079C50.3704 5.44439 50.3393 5.48296 50.3226 5.53635Z" fill="#F5F5F5"/>
<path d="M29.8272 18.7799C30.0663 19.3165 30.2039 19.8939 30.2888 20.499C29.333 21.6591 28.3911 22.8396 27.4497 24.0193C26.6446 25.0284 25.8737 26.2501 24.85 26.8941C24.5993 26.0741 23.9807 25.2967 23.5023 24.6995C22.9316 23.9872 22.2896 23.3677 21.6013 22.8591C20.2724 21.8773 18.7136 21.2346 17.1743 21.334C17.1966 21.0775 17.2211 20.821 17.248 20.5649C17.4603 18.5486 17.8696 16.6523 18.4578 14.7726C18.8177 14.6527 19.1815 14.5524 19.5485 14.4767C20.3187 14.3177 21.0704 14.326 21.846 14.3263C22.2517 15.068 22.6292 15.8357 22.976 16.6259C23.2149 17.1703 23.4393 17.7255 23.6482 18.2902C23.8671 18.8819 24.0116 19.6429 24.3185 20.1588C24.37 20.2454 24.4757 20.2726 24.5462 20.228C24.5616 20.2277 24.5777 20.2254 24.5953 20.2182C25.3894 19.8911 26.1667 19.4908 26.9269 19.0497C27.6263 18.6439 28.5 18.2448 29.0928 17.5977C29.3441 17.9864 29.6254 18.3272 29.8272 18.7799Z" fill="#F5F5F5"/>
<path d="M30.5832 20.8102C30.6897 20.6769 30.6334 20.4994 30.5333 20.4281C30.485 19.6358 30.2604 18.682 29.8626 17.9671C30.2397 18.1723 30.6165 18.3783 30.9898 18.5933C32.0744 19.218 33.1198 20.0104 34.2195 20.5799C34.2443 20.5927 34.2674 20.5975 34.2888 20.5962C34.3161 20.6195 34.3497 20.6299 34.3866 20.6165C35.2885 20.2881 35.8634 19.2639 36.3309 18.2757C36.476 17.9689 36.6151 17.6574 36.7484 17.3418C37.036 18.6405 37.2022 19.955 37.1737 21.3137C37.1591 22.008 37.1007 22.7007 36.9924 23.381C36.8894 24.027 36.6546 24.6649 36.6016 25.3155C36.5862 25.5045 36.7488 25.5524 36.8492 25.476C37.5943 25.6772 38.3481 25.8392 39.1055 25.9815C39.0895 25.9958 39.0751 26.0139 39.0642 26.0377C38.842 26.5209 38.7639 27.1336 38.6432 27.6705C38.5161 28.2361 38.3853 28.8015 38.2706 29.3715C38.2393 29.3342 38.1978 29.3126 38.1465 29.3208C36.2558 29.6209 34.3528 29.1981 32.6415 28.113C30.9119 27.0163 29.6093 25.3721 28.5122 23.3583C29.2065 22.5142 29.8987 21.667 30.5832 20.8102Z" fill="#F5F5F5"/>
<path d="M22.2296 2.75684C22.38 3.04364 22.5316 3.32929 22.6856 3.61278C23.169 4.5024 23.6708 5.37705 24.2009 6.22105C24.2767 6.34164 24.5662 6.89309 24.8129 7.07196C24.8155 7.21658 24.9306 7.36134 25.0409 7.25471C25.3305 6.97439 25.5507 6.57866 25.7994 6.23919C26.0931 5.83827 26.3959 5.44871 26.7133 5.07946C26.818 4.95771 26.9248 4.83885 27.0328 4.72186C27.5473 5.67537 28.0678 6.6034 28.4315 7.67952C28.633 8.276 28.794 8.89666 28.913 9.52941C28.9715 9.84053 29.0198 10.1551 29.0568 10.4717C29.0765 10.6399 29.0918 10.8092 29.105 10.9784C29.1119 11.0742 29.1183 11.1699 29.1244 11.2658C29.1233 11.2784 29.1235 11.2899 29.1238 11.3015C29.0969 11.315 29.0731 11.3399 29.0577 11.3799C29.0511 11.397 29.0445 11.4141 29.0379 11.4313C29.0142 11.4927 29.0063 11.5713 29.0379 11.632C29.0748 11.7028 29.1035 11.7458 29.149 11.7735C29.0611 12.1596 28.962 12.5413 28.8518 12.9171C28.5127 14.0738 28.0307 15.1083 27.5945 16.2011C27.5512 16.3095 27.5737 16.4069 27.6236 16.4679C27.5637 16.5072 27.539 16.6295 27.6135 16.6772C27.972 16.907 28.3365 17.1209 28.7034 17.3286C28.4702 17.464 28.2489 17.642 28.0223 17.792C27.6454 18.0412 27.2645 18.2802 26.8813 18.5125C26.1248 18.9711 25.3557 19.3884 24.5855 19.8059C24.5007 19.31 24.28 18.8108 24.121 18.3656C23.8978 17.7403 23.6562 17.126 23.3969 16.5246C22.8781 15.3211 22.2879 14.1713 21.6371 13.0813C20.454 11.0994 19.0729 9.30967 17.4766 7.89322C19.2357 6.59865 21.0354 4.9013 22.2296 2.75684Z" fill="#F5F5F5"/>
<path d="M8.74268 11.8547C8.74823 11.8465 8.75433 11.8393 8.75866 11.829C9.03658 11.1499 9.17627 10.3715 9.42954 9.67241C9.68491 8.96757 9.98571 8.2905 10.3255 7.64825C11.0119 6.35095 11.867 5.19597 12.8301 4.23929C13.7714 3.3042 14.8246 2.55216 15.9399 2.02892C16.5052 1.76371 17.0867 1.56181 17.6773 1.4169C18.1202 1.30825 19.2176 0.899704 19.5461 1.44999C19.5668 1.48468 19.5996 1.48151 19.6243 1.4605C19.6327 1.48223 19.6435 1.50267 19.6576 1.5198C19.648 2.71665 19.6941 3.95681 19.8743 5.12747C19.8565 5.14661 19.839 5.16662 19.821 5.18562C19.0047 6.05178 18.1277 6.81692 17.2098 7.49039C17.1698 7.51989 17.1437 7.55846 17.1285 7.60091C17.012 7.54767 16.8863 7.77014 16.9955 7.88253C18.5777 9.51009 20.0592 11.3044 21.3014 13.3749C21.3836 13.5121 21.4647 13.6504 21.5449 13.7895C20.1229 13.6456 18.6092 14.1037 17.2852 14.6934C15.8472 15.3339 14.4214 16.2162 13.1482 17.3012C12.8729 16.803 12.5029 16.3703 12.1778 15.9323C11.8052 15.4303 11.4259 14.9372 11.04 14.4525C10.3135 13.5398 9.56267 12.6284 8.74268 11.8547Z" fill="#F5F5F5"/>
<path d="M8.28678 22.7247C8.39126 21.6593 8.55926 20.6037 8.7841 19.5703C8.99973 18.5793 9.25611 17.5876 9.59321 16.654C9.86969 15.8885 10.224 15.2641 10.6317 14.6299C10.6775 14.6879 10.7235 14.7456 10.7691 14.8037C11.1313 15.2671 11.489 15.7367 11.8422 16.2117C12.2082 16.7038 12.5496 17.2891 12.9626 17.7123C13.0522 17.8043 13.1842 17.7604 13.2353 17.6565C14.6058 16.7728 15.9341 15.8262 17.3908 15.1864C17.5952 15.0966 17.8013 15.0125 18.0085 14.9338C16.7654 18.4724 16.6427 22.6818 16.632 26.5098C15.9902 26.3401 15.2875 26.3565 14.6412 26.288C13.9017 26.2097 13.1623 26.1313 12.4228 26.053C10.9794 25.9 9.53203 25.7462 8.08447 25.6727C8.09102 25.6577 8.09746 25.6425 8.10057 25.6239C8.25713 24.6941 8.19362 23.6744 8.28678 22.7247Z" fill="#F5F5F5"/>
<path d="M10.1201 33.0395C9.57693 34.2939 9.03386 35.5484 8.49067 36.8028C7.17902 35.3722 5.86881 33.9395 4.55405 32.5137C3.29559 31.1489 2.04867 29.7422 0.73291 28.468C0.761113 28.4498 0.787428 28.4215 0.808525 28.3787C1.724 26.5211 2.81292 24.8573 4.15799 23.4969C5.38815 22.2527 6.75143 21.406 8.16812 20.6104C8.06386 21.2139 7.97847 21.8227 7.91296 22.4358C7.80637 23.4336 7.6356 24.6272 7.80237 25.622C7.80659 25.647 7.81447 25.6683 7.82469 25.6867C7.75163 25.7564 7.78094 25.9443 7.89686 25.964C9.02919 26.1564 10.1681 26.2975 11.3067 26.4262C11.1778 27.7317 11.112 29.0581 11.0951 30.3735C11.0943 30.4367 11.1123 30.4832 11.1397 30.5139C11.1086 30.6426 11.1428 30.8044 11.262 30.8283C11.2876 30.8335 11.3136 30.8379 11.3393 30.843C10.759 31.3295 10.4484 32.2813 10.1201 33.0395Z" fill="#F5F5F5"/>
<path d="M16.1279 30.31C14.5548 30.7154 12.9719 30.5869 11.3906 30.3638C11.4594 29.0602 11.5561 27.7656 11.6657 26.4673C11.8885 26.4921 12.1112 26.5167 12.334 26.5412C13.0438 26.6192 13.7537 26.697 14.4636 26.775C15.2114 26.8572 16.0235 27.0691 16.7707 26.9881C16.9239 26.9716 16.989 26.7193 16.8843 26.6055C16.963 24.9419 17.0172 23.2787 17.1517 21.6221C18.5164 21.8267 19.8294 22.2357 21.0474 23.0493C20.243 24.4475 19.9106 26.4824 19.828 28.192C18.7255 29.2545 17.4793 29.9618 16.1279 30.31Z" fill="#F5F5F5"/>
<path d="M28.9594 29.9269C28.8033 30.5884 28.6907 31.2643 28.5993 31.9454C28.5169 32.5586 28.359 33.2816 28.4021 33.9087C28.3992 33.9077 28.3972 33.9053 28.3941 33.9047C27.1215 33.6215 25.7565 33.7216 24.4678 33.667C23.8187 33.6393 23.1696 33.6084 22.5206 33.574C21.9717 33.5449 21.3803 33.434 20.8226 33.4787C20.356 31.8372 20.108 30.1556 20.1783 28.3916C20.215 27.4684 20.3375 26.5526 20.5401 25.6663C20.7358 24.8107 21.059 24.0577 21.3228 23.2451C21.3494 23.2644 21.3761 23.2827 21.4027 23.3024C22.0411 23.779 22.635 24.3507 23.1692 25.0085C23.4337 25.3342 23.6835 25.68 23.9157 26.0446C24.1449 26.4047 24.3245 26.838 24.5806 27.1645C24.583 27.1677 24.5858 27.1698 24.5884 27.1727C24.6025 27.2124 24.634 27.2408 24.6804 27.2277C24.6851 27.2264 24.6896 27.2244 24.6943 27.2229C24.7295 27.2234 24.7647 27.2111 24.7948 27.1885C25.8478 26.8204 26.6695 25.5925 27.4364 24.6652C27.7386 24.2998 28.0408 23.934 28.3425 23.5678C28.8082 24.7666 29.5017 25.8332 30.3075 26.7293C29.6433 27.6015 29.2327 28.7685 28.9594 29.9269Z" fill="#F5F5F5"/>
<path d="M38.3449 33.6114C37.6497 34.6775 36.9936 35.8042 36.4258 36.992C36.3178 36.6 36.1022 36.2224 35.9336 35.8899C35.7273 35.4832 35.5021 35.0923 35.2619 34.718C34.7343 33.8959 34.1251 33.1688 33.4591 32.5383C32.2388 31.3833 30.7878 30.5615 29.2837 30.3002C29.2878 30.2807 29.2914 30.261 29.2955 30.2416C29.5544 29.0342 29.9596 27.9642 30.5083 26.9472C31.1301 27.6021 31.8102 28.1587 32.5016 28.5962C34.2628 29.7104 36.2536 30.1649 38.1978 29.8213C38.2553 29.811 38.2934 29.7682 38.315 29.7117C38.3905 29.764 38.5008 29.7389 38.5386 29.6005C38.7012 29.0056 38.8439 28.4006 38.9908 27.7988C39.1154 27.2884 39.2962 26.7554 39.3333 26.2188C39.309 27.5044 39.1618 28.7627 38.9043 30.0056C38.7141 30.061 38.7356 30.4736 38.9595 30.496C39.4888 30.5491 40.0181 30.6001 40.5474 30.6514C40.1736 31.0141 39.8471 31.4986 39.5263 31.9241C39.117 32.4675 38.7231 33.0315 38.3449 33.6114Z" fill="#F5F5F5"/>
<path d="M50.8937 35.4689C46.8821 37.3733 42.4805 36.5672 38.9443 33.4823C39.2248 33.0751 39.5105 32.6739 39.8042 32.2823C40.1804 31.7809 40.6266 31.324 40.9532 30.7681C40.9677 30.7434 40.9755 30.7176 40.9787 30.6919C41.8487 30.7772 42.7184 30.8663 43.5874 30.9733C45.1172 31.1619 46.6629 31.5048 48.2 31.5464C48.3036 31.5491 48.3426 31.3882 48.2919 31.2993C48.4584 30.8127 48.5288 30.2289 48.5616 29.6512C48.8606 29.4 49.1747 29.1892 49.4992 29.0098C49.4996 29.0147 49.4994 29.0193 49.5001 29.0243C49.787 31.1832 50.2336 33.4417 50.8937 35.4689Z" fill="#F5F5F5"/>
<path d="M60.5105 33.5981C60.015 35.0852 59.5151 36.5742 59.0597 38.0833C57.1874 34.6296 53.7696 32.1568 50.4711 32.3326C50.464 32.2984 50.4561 32.2645 50.4491 32.2303C50.2257 31.1261 50.0493 30.0107 49.8608 28.8963C49.857 28.873 49.8507 28.853 49.8438 28.8346C51.082 28.2472 52.4516 28.0835 53.7537 28.0211C54.6987 27.9758 55.6464 28.015 56.587 28.1427C57.4584 28.261 58.5703 28.2922 59.2453 29.0848C59.2534 29.0943 59.262 29.1021 59.271 29.109C59.2732 29.1411 59.2748 29.1732 59.2771 29.2053C59.2925 29.4172 59.5328 29.4254 59.5366 29.2053C59.5484 28.5219 59.5313 27.8363 59.5213 27.1531C59.5206 27.108 59.5207 27.0617 59.5207 27.0156C60.2666 27.8553 61.1516 28.4819 62.0853 28.9324C61.7725 29.6174 61.5693 30.4367 61.3274 31.1592C61.0551 31.9721 60.7817 32.7845 60.5105 33.5981Z" fill="#F5F5F5"/>
<path d="M70.5069 32.5553C69.9883 32.6651 69.4723 32.7978 68.9621 32.9612C67.9797 33.2757 67.0151 33.7057 66.112 34.3012C64.6019 35.2967 63.2078 36.8048 62.4138 38.7743C62.3861 38.3216 62.2341 37.883 62.1246 37.4533C62.0026 36.9744 61.878 36.4965 61.7531 36.0187C61.5147 35.1063 61.2782 34.1882 61.0078 33.2903C61.2328 32.6244 61.4575 31.9586 61.6823 31.2927C61.9237 30.5778 62.2441 29.8373 62.4134 29.0811C62.8911 29.2886 63.3785 29.4521 63.8641 29.576C64.8016 29.8153 65.7586 29.9219 66.7134 29.938C67.2082 29.9464 67.7031 29.9315 68.1972 29.8981C68.693 29.8646 69.2422 29.883 69.7198 29.7009C69.8924 29.635 69.8522 29.3446 69.6955 29.304C69.7416 27.8403 69.7427 26.3749 69.8114 24.9122C69.8841 23.364 70.0296 21.8324 70.1647 20.2925C70.1699 20.2331 70.1555 20.1846 70.1306 20.1472C70.1416 20.1272 70.1524 20.1069 70.1633 20.0869C70.6131 19.2648 71.0727 18.451 71.5553 17.6607C71.9981 16.9355 72.4551 16.2242 72.9339 15.5384C73.6432 15.0309 74.6714 16.083 75.2553 16.5566C75.9728 17.1384 76.653 17.7989 77.2855 18.5278C77.8767 19.2092 78.4261 19.9506 78.9285 20.7428C79.1916 21.158 79.4416 21.5867 79.6769 22.0289C79.8618 22.3763 80.0185 22.7573 80.2237 23.0857C79.7381 23.6521 79.127 24.0099 78.5493 24.3911C77.9145 24.81 77.2925 25.2616 76.6817 25.7366C76.071 26.2115 75.473 26.7143 74.8868 27.2387C74.3646 27.7059 73.7864 28.1717 73.3111 28.7327C73.1067 27.7915 72.7013 26.932 72.1769 26.2309C71.6728 25.557 70.8017 24.6087 70.0395 24.5959C69.8896 24.5934 69.8572 24.8403 69.9675 24.9399C70.1393 25.0949 70.3398 25.1977 70.5392 25.3041C70.537 25.3243 70.5365 25.3453 70.5389 25.3675C70.6051 25.9654 70.8307 26.5626 70.9748 27.1376C71.1226 27.7276 71.26 28.322 71.3862 28.9203C71.6242 30.0482 71.7919 31.2029 72.0317 32.3291C71.539 32.2795 70.9936 32.4522 70.5069 32.5553Z" fill="#F5F5F5"/>
<path d="M80.3883 32.2735C78.9547 32.8245 77.4639 32.9638 75.988 32.6245C75.288 32.4635 74.6025 32.2031 73.9435 31.858C73.271 31.5058 72.6744 31.0201 72.0509 30.5531C71.9554 29.9621 71.8402 29.3761 71.7228 28.8022C71.6002 28.2027 71.4668 27.607 71.3224 27.0157C71.207 26.5428 71.1065 26.0116 70.9385 25.55C70.9424 25.5529 70.9466 25.5555 70.9505 25.5585C71.3096 25.8328 71.6373 26.1682 71.9289 26.554C72.4631 27.2612 72.8386 28.1006 73.1025 29.0187C73.0655 29.138 73.121 29.2751 73.207 29.3213C73.2548 29.3694 73.3243 29.3554 73.363 29.2994C74.011 28.7973 74.5968 28.1188 75.2222 27.5649C75.8555 27.0042 76.5036 26.4711 77.1632 25.9634C77.9342 25.3698 78.8579 24.8849 79.6057 24.1689C79.6055 24.1704 79.6051 24.1715 79.6048 24.173C79.5885 24.2664 79.6153 24.372 79.6826 24.4203C79.694 24.4286 79.7054 24.4368 79.7169 24.4451C79.7334 24.457 79.7503 24.4644 79.7672 24.4681C79.8235 24.7364 79.7983 25.1935 79.8134 25.3878C79.8406 25.7369 79.8677 26.0862 79.8949 26.4353C79.9494 27.1338 80.0063 27.832 80.0626 28.5303C80.1633 29.7789 80.2601 31.0287 80.3923 32.2726C80.391 32.2729 80.3897 32.2729 80.3883 32.2735Z" fill="#F5F5F5"/>
</svg>
