<svg width="81" height="35" viewBox="0 0 81 35" fill="none" xmlns="http://www.w3.org/2000/svg">
<path d="M80.0361 15.3731C79.9815 14.6359 79.9257 13.8987 79.8692 13.1618C79.8348 12.7121 79.9119 11.8623 79.6373 11.522C79.6098 11.488 79.5697 11.4628 79.5291 11.4553C79.7075 11.2589 79.8723 11.0454 80.0177 10.8085C80.0236 10.8164 80.029 10.8249 80.0348 10.8328C80.1339 10.9624 80.3106 10.8308 80.2718 10.6541C80.1507 10.1041 79.8611 9.62378 79.6103 9.15969C79.3532 8.68394 79.08 8.2217 78.7911 7.77761C78.1732 6.82741 77.4849 5.95393 76.7397 5.17238C76.0379 4.4366 75.2862 3.7762 74.4884 3.22792C74.0249 2.90932 72.9432 1.05382 72.9432 2.62062C57.8014 14.2891 50.2018 20.1424 8.14272 6.66005C8.05833 7.02543 7.98225 7.39365 7.91274 7.76406C6.32928 8.23477 4.83468 9.37007 3.56756 10.653C2.21127 12.0263 1.00851 13.7318 0.163873 15.683C0.152437 15.7095 0.146031 15.7352 0.142145 15.7605C0.0505413 15.6906 -0.0503592 15.8728 0.0282533 15.9713C1.29616 17.5613 2.67863 19.0113 4.02337 20.4893C5.37299 21.9727 6.72773 23.4484 8.08046 24.927C8.17551 25.0309 8.32529 25.0293 8.39235 24.8749C8.8899 23.729 9.38748 22.5831 9.88503 21.4373C10.1186 20.8994 10.3464 20.3563 10.5866 19.8233C10.8105 19.3264 11.0647 18.8278 11.512 18.6577C11.5842 18.6303 11.6257 18.5679 11.6435 18.4961C14.3433 18.8946 17.3654 18.5179 19.4855 16.1902C19.4525 17.8451 19.6863 19.5513 20.2274 21.0549C20.2199 21.0563 20.212 21.0567 20.2045 21.0582C20.0405 21.0907 20.0578 21.4175 20.2045 21.466C20.8026 21.6637 21.4904 21.5968 22.1059 21.6292C22.7843 21.6647 23.463 21.6966 24.1416 21.7248C25.4256 21.7782 26.792 21.9593 28.0679 21.7325C28.1022 21.7264 28.1243 21.698 28.1371 21.6623C28.2145 21.7541 28.3472 21.7339 28.3977 21.57C28.5704 21.0102 28.5639 20.3129 28.643 19.7168C28.7118 19.1976 28.7927 18.6802 28.8916 18.1687C30.3328 18.5915 31.6826 19.321 32.883 20.4618C33.5021 21.0501 34.0668 21.737 34.5647 22.4941C34.8299 22.8971 35.0739 23.3227 35.2953 23.7677C35.4936 24.1664 35.6341 24.6525 35.8865 24.9955C35.9621 25.0983 36.0592 25.0667 36.1143 24.9814C36.1678 24.9946 36.2274 24.9733 36.2679 24.9002C36.9437 23.679 37.6332 22.4818 38.3948 21.347C38.4152 21.3165 38.4366 21.2871 38.4572 21.2568C41.8691 24.7375 46.8416 25.5395 50.8477 23.4194C51.0476 23.3136 51.001 22.9297 50.8279 22.9106C50.6304 21.9838 50.4004 21.0692 50.2018 20.142C51.8023 20.3435 53.3313 20.8135 54.7652 21.7984C56.2329 22.8064 57.4553 24.2192 58.444 25.9417C58.5071 26.0516 58.6059 26.0671 58.6843 26.0276C58.7388 26.0921 58.8391 26.1029 58.8777 26.0003C59.4638 24.4435 59.9986 22.8515 60.5351 21.2649C60.7068 22.0754 60.9022 22.8793 61.0944 23.6806C61.2098 24.1618 61.3254 24.643 61.4436 25.1231C61.5549 25.575 61.6301 26.0817 61.8336 26.4783C61.8718 26.5527 61.9435 26.5741 62.0019 26.551C61.9876 26.6954 62.1415 26.7949 62.2118 26.6481C63.1403 24.7079 64.4605 23.233 66.0407 22.2304C66.924 21.6699 67.865 21.268 68.8207 20.9728C69.2783 20.8315 69.7403 20.7146 70.2044 20.616C70.7138 20.5078 71.2682 20.5054 71.7599 20.3068C71.8267 20.2798 71.8637 20.2203 71.876 20.1539C71.9134 20.1396 71.9437 20.101 71.9407 20.0374C71.9152 19.5097 71.8562 18.9803 71.7793 18.4539C72.8341 19.6266 74.3001 20.3198 75.6365 20.6292C77.1357 20.9762 78.706 20.8761 80.1592 20.2721C80.2022 20.2543 80.2332 20.223 80.254 20.1849C80.3067 20.165 80.351 20.1106 80.3475 20.0282C80.2792 18.4735 80.1506 16.9232 80.0361 15.3731Z" fill="#3C3C3B"/>
<path d="M47.5379 31.7675C45.4687 30.8855 43.0901 30.7711 40.9446 31.0536C38.786 31.3378 36.5009 32.0517 34.6206 33.5C34.6189 33.5012 34.6176 33.503 34.616 33.5043C34.4659 31.803 34.3287 30.1768 34.4654 28.4532C34.5853 26.9419 34.7798 25.1087 35.4551 23.8067C35.6418 23.9525 35.83 24.0952 36.0209 24.2314C37.0636 24.9748 38.2568 25.7375 39.4325 26.0366C39.5145 26.0575 39.5743 26.0113 39.6043 25.9432C39.7985 25.838 39.9818 25.7032 40.1571 25.5482C40.2 25.6443 40.2934 25.7062 40.3943 25.6425C42.1797 24.5146 43.9559 23.4849 45.8765 22.7952C46.0699 22.7257 46.2642 22.6592 46.4591 22.5947C46.9554 22.8166 47.4854 22.8392 47.983 23.1067C48.4453 23.3553 48.8569 23.7067 49.2725 24.0604C49.1044 24.6615 49.0413 25.3411 48.9218 25.9589C48.7903 26.6389 48.6486 27.3159 48.4958 27.9884C48.2068 29.261 47.836 30.5 47.5379 31.7675Z" fill="#F5F5F5"/>
<path d="M57.316 21.6182C58.3528 22.7779 59.7964 23.2368 61.1472 23.2447C61.8821 23.249 62.6219 23.105 63.3223 22.8162C63.8377 22.6038 64.4889 22.3044 64.9528 21.8421C64.9094 22.6846 64.9518 23.551 64.9584 24.3922C64.966 25.36 64.9801 26.3279 64.9977 27.2953C65.0147 28.2244 65.0354 29.1531 65.065 30.0816C65.0873 30.7804 65.0097 31.7004 65.1954 32.386C65.1653 32.3716 65.1313 32.3658 65.0933 32.3746C63.2833 32.7935 61.4397 32.5984 59.7046 31.8053C57.9562 31.0062 56.4949 29.6193 55.2109 27.9133C55.6302 27.1203 55.9982 26.289 56.3081 25.4437C56.7554 24.2244 57.0964 22.9385 57.316 21.6182Z" fill="#F5F5F5"/>
<path d="M36.4039 23.0508C37.4407 24.2105 38.8843 24.6694 40.2351 24.6773C40.97 24.6817 41.7098 24.5376 42.4102 24.2488C42.9255 24.0364 43.5768 23.7371 44.0407 23.2747C43.9973 24.1173 44.0397 24.9836 44.0463 25.8248C44.0539 26.7926 44.068 27.7605 44.0856 28.728C44.1026 29.657 44.1233 30.5858 44.1529 31.5142C44.1752 32.213 44.0976 33.133 44.2833 33.8186C44.2532 33.8042 44.2192 33.7984 44.1812 33.8072C42.3712 34.2261 40.5276 34.031 38.7925 33.2379C37.044 32.4388 35.5828 31.0519 34.2988 29.3459C34.7181 28.553 35.0861 27.7216 35.396 26.8763C35.8433 25.657 36.1843 24.3711 36.4039 23.0508Z" fill="#F5F5F5"/>
<path d="M54.0375 15.9941C54.5657 16.1215 55.0943 16.2458 55.6227 16.3714C56.1575 16.4987 56.7077 16.6948 57.2512 16.7237C57.2174 18.1432 57.2553 19.534 57.0544 20.9493C56.8419 22.4475 56.4745 23.9084 55.9651 25.2811C54.9178 28.1028 53.334 30.3159 51.372 32.1024C50.3821 31.3725 49.3754 30.7194 48.4126 29.9211C48.5719 29.3217 48.7157 28.7156 48.8545 28.1165C49.0101 27.4447 49.1529 26.7685 49.282 26.0874C49.4107 25.4086 49.6011 24.6726 49.6063 23.9706C49.6074 23.8208 49.5121 23.764 49.4271 23.7917C49.0544 23.2979 48.5885 22.941 48.0977 22.6771C47.865 22.5519 47.5998 22.419 47.3281 22.3264C47.7798 22.1979 48.2342 22.0853 48.6901 21.9936C49.8203 21.7663 50.8377 21.9695 51.9565 22.1761C52.0742 22.1979 52.1284 22.0188 52.0441 21.939C52.063 21.91 52.0743 21.8723 52.0726 21.8276C52.0411 20.9909 51.7561 20.118 51.5875 19.3103C51.4088 18.4537 51.2332 17.5962 51.0609 16.7375C50.9533 16.2012 50.8508 15.6619 50.7481 15.1221C51.8268 15.5007 52.9395 15.7293 54.0375 15.9941Z" fill="#F5F5F5"/>
<path d="M33.1254 17.4258C33.6536 17.5531 34.1822 17.6775 34.7106 17.8031C35.2454 17.9303 35.7956 18.1264 36.3391 18.1554C36.3053 19.5748 36.3432 20.9657 36.1423 22.381C35.9298 23.8792 35.5624 25.3401 35.053 26.7128C34.0057 29.5345 32.4219 31.7476 30.4599 33.534C29.47 32.8041 28.4633 32.1511 27.5005 31.3527C27.6598 30.7533 27.8036 30.1472 27.9424 29.5481C28.098 28.8764 28.2408 28.2002 28.3699 27.5191C28.4986 26.8403 28.689 26.1042 28.6942 25.4022C28.6953 25.2524 28.6 25.1956 28.515 25.2234C28.1423 24.7295 27.6764 24.3726 27.1856 24.1087C26.9529 23.9835 26.6877 23.8507 26.416 23.758C26.8677 23.6295 27.3221 23.517 27.778 23.4253C28.9082 23.1979 29.9256 23.4011 31.0444 23.6078C31.1621 23.6295 31.2163 23.4505 31.132 23.3706C31.1509 23.3417 31.1622 23.304 31.1605 23.2592C31.129 22.4226 30.844 21.5496 30.6754 20.7419C30.4966 19.8854 30.3211 19.0279 30.1488 18.1692C30.0412 17.6328 29.9387 17.0935 29.836 16.5537C30.9147 16.9323 32.0274 17.161 33.1254 17.4258Z" fill="#F5F5F5"/>
<path d="M43.1235 14.0143C43.7791 13.4697 44.4775 13.0089 45.2044 12.6471C46.6906 11.9073 48.1789 11.6901 49.7547 11.6357C49.9733 13.4 50.3546 15.1394 50.7032 16.8659C50.8764 17.7243 51.0529 18.5816 51.2326 19.4377C51.3934 20.2034 51.4969 21.0954 51.7724 21.8118C50.8577 21.4312 49.9556 21.3005 48.9859 21.4548C47.9562 21.6187 46.9339 21.9163 45.9336 22.2683C44.2014 22.8776 42.4404 23.689 40.8438 24.797C41.345 24.1482 41.7827 23.3818 42.2164 22.7401C43.0915 21.4453 43.9442 20.1182 44.6078 18.621C44.6909 18.4336 44.5436 18.2604 44.4184 18.2919C44.4026 18.2437 44.3731 18.2014 44.3278 18.1769C43.254 17.5983 42.2479 16.8916 41.3261 16.0273C41.7231 15.1503 42.4786 14.5501 43.1235 14.0143Z" fill="#F5F5F5"/>
<path d="M22.2114 15.446C22.8669 14.9013 23.5654 14.4405 24.2923 14.0787C25.7785 13.3389 27.2668 13.1218 28.8426 13.0674C29.0612 14.8317 29.4425 16.571 29.7911 18.2976C29.9643 19.156 30.1408 20.0132 30.3205 20.8693C30.4813 21.635 30.5847 22.5271 30.8603 23.2434C29.9456 22.8628 29.0435 22.7321 28.0738 22.8864C27.0441 23.0503 26.0218 23.3479 25.0215 23.6999C23.2893 24.3092 21.5283 25.1207 19.9316 26.2286C20.4329 25.5799 20.8705 24.8134 21.3043 24.1718C22.1794 22.8769 23.0321 21.5498 23.6957 20.0527C23.7788 19.8653 23.6315 19.692 23.5063 19.7235C23.4905 19.6753 23.461 19.633 23.4157 19.6086C22.3419 19.0299 21.3358 18.3232 20.414 17.4589C20.811 16.582 21.5665 15.9817 22.2114 15.446Z" fill="#F5F5F5"/>
<path d="M68.438 16.8796C69.0935 16.3349 69.7919 15.8741 70.5189 15.5123C72.0051 14.7725 73.4934 14.5554 75.0692 14.501C75.2878 16.2652 75.6691 18.0046 76.0176 19.7312C76.1908 20.5896 76.3674 21.4468 76.547 22.3029C76.7078 23.0686 76.8113 23.9607 77.0869 24.677C76.1722 24.2964 75.27 24.1657 74.3004 24.32C73.2706 24.4839 72.2483 24.7815 71.248 25.1335C69.5159 25.7428 67.7549 26.5543 66.1582 27.6622C66.6594 27.0135 67.0971 26.247 67.5308 25.6054C68.406 24.3105 69.2586 22.9834 69.9223 21.4862C70.0053 21.2989 69.8581 21.1256 69.7329 21.1571C69.7171 21.1089 69.6875 21.0666 69.6422 21.0422C68.5684 20.4635 67.5623 19.7568 66.6405 18.8925C67.0376 18.0156 67.7931 17.4153 68.438 16.8796Z" fill="#F5F5F5"/>
<path d="M30.8166 17.724C30.1407 16.5427 29.6305 15.2639 29.0684 13.9973C29.3866 13.7383 29.646 13.3506 29.9253 13.0262C30.203 12.7039 30.4854 12.3882 30.7723 12.0796C31.4367 11.3648 32.1251 10.6873 32.8344 10.0493C33.4884 9.461 34.1614 8.91229 34.8475 8.38948C35.3851 7.97979 35.8927 7.57959 36.2326 6.90137C37.0673 12.1117 40.3326 16.8601 44.2338 18.5591C43.6062 19.923 42.8229 21.1367 42.0201 22.3328C41.2741 23.4443 40.5157 24.8724 39.5143 25.6395C38.3839 25.0722 37.2656 24.6051 36.1964 23.8398C35.1444 23.0867 34.1552 22.185 33.2526 21.1564C32.3497 20.1276 31.5329 18.9758 30.8166 17.724Z" fill="#F5F5F5"/>
<path d="M9.90351 19.1595C9.22764 17.9782 8.71744 16.6995 8.15527 15.4328C8.4735 15.1738 8.73287 14.7861 9.01224 14.4618C9.28993 14.1394 9.57229 13.8237 9.85921 13.5152C10.5236 12.8004 11.2121 12.1229 11.9213 11.4848C12.5753 10.8965 13.2483 10.3478 13.9344 9.82503C14.472 9.41533 14.9796 9.01514 15.3196 8.33691C16.1542 13.5473 19.4195 18.2957 23.3207 19.9946C22.6931 21.3585 21.9098 22.5722 21.107 23.7684C20.361 24.8799 19.6026 26.308 18.6012 27.075C17.4709 26.5077 16.3525 26.0406 15.2834 25.2753C14.2313 24.5223 13.2421 23.6206 12.3395 22.5919C11.4366 21.5632 10.6198 20.4114 9.90351 19.1595Z" fill="#F5F5F5"/>
<path d="M56.1311 20.5931C55.4552 19.4118 54.945 18.1331 54.3828 16.8664C54.701 16.6074 54.9604 16.2197 55.2398 15.8954C55.5175 15.573 55.7998 15.2573 56.0867 14.9488C56.7512 14.234 57.4396 13.5565 58.1489 12.9184C58.8029 12.3301 59.4759 11.7814 60.1619 11.2586C60.6996 10.8489 61.2071 10.4487 61.5471 9.77051C62.3817 14.9809 65.647 19.7293 69.5482 21.4282C68.9207 22.7921 68.1373 24.0058 67.3346 25.202C66.5885 26.3135 65.8301 27.7416 64.8287 28.5086C63.6984 27.9413 62.58 27.4742 61.5109 26.7089C60.4588 25.9559 59.4696 25.0542 58.567 24.0255C57.6641 22.9968 56.8473 21.845 56.1311 20.5931Z" fill="#F5F5F5"/>
<path d="M69.425 14.2852C69.0471 14.2832 68.6567 14.3657 68.2839 14.3916C67.8188 14.4238 67.3531 14.4434 66.8873 14.4415C65.9081 14.4376 64.9264 14.3448 63.9644 14.1015C62.3398 13.6905 60.8644 12.8616 59.5236 11.6144C59.5281 11.2414 59.5291 10.858 59.4727 10.506C61.9813 9.06669 64.4292 7.38531 66.8716 5.76898C67.0415 5.65644 66.9715 5.38331 66.8303 5.31568C66.7184 4.71286 66.6325 4.11177 66.6586 3.48795C66.6737 3.12761 66.7622 2.77604 66.8277 2.42578C66.8776 2.52536 66.9267 2.62538 66.9747 2.7264C67.6459 4.13998 68.1212 5.67112 68.4902 7.25637C68.542 7.47885 68.7873 7.3915 68.7629 7.17176C68.804 7.23392 68.8714 7.26457 68.9317 7.21003C69.1841 6.98223 69.3261 6.6324 69.5004 6.30847C69.5748 6.17018 69.6502 6.0326 69.7248 5.89446C69.3981 8.63325 69.2494 11.5336 69.425 14.2852Z" fill="#F5F5F5"/>
<path d="M10.1206 18.0395C9.57741 19.2939 9.03434 20.5484 8.49116 21.8028C7.17951 20.3722 5.8693 18.9395 4.55454 17.5137C3.29608 16.1489 2.04916 14.7422 0.733398 13.468C0.761601 13.4498 0.787916 13.4215 0.809013 13.3787C1.72449 11.5211 2.81341 9.85725 4.15848 8.49693C5.38863 7.25273 6.75192 6.406 8.16861 5.61035C8.06435 6.21389 7.97896 6.82275 7.91345 7.43578C7.80686 8.43361 7.63609 9.62716 7.80286 10.622C7.80708 10.647 7.81496 10.6683 7.82518 10.6867C7.75212 10.7564 7.78143 10.9443 7.89735 10.964C9.02968 11.1564 10.1686 11.2975 11.3072 11.4262C11.1783 12.7317 11.1125 14.0581 11.0956 15.3735C11.0948 15.4367 11.1128 15.4832 11.1402 15.5139C11.1091 15.6426 11.1433 15.8044 11.2625 15.8283C11.2881 15.8335 11.3141 15.8379 11.3398 15.843C10.7595 16.3295 10.4489 17.2813 10.1206 18.0395Z" fill="#F5F5F5"/>
<path d="M16.1279 15.31C14.5548 15.7154 12.9719 15.5869 11.3906 15.3638C11.4594 14.0602 11.5561 12.7656 11.6657 11.4673C11.8885 11.4921 12.1112 11.5167 12.334 11.5412C13.0438 11.6192 13.7537 11.697 14.4636 11.775C15.2114 11.8572 16.0235 12.0691 16.7707 11.9881C16.9239 11.9716 16.989 11.7193 16.8843 11.6055C16.963 9.94195 17.0172 8.2787 17.1517 6.62207C18.5164 6.8267 19.8294 7.23568 21.0474 8.04932C20.243 9.44749 19.9106 11.4824 19.828 13.192C18.7255 14.2545 17.4793 14.9618 16.1279 15.31Z" fill="#F5F5F5"/>
<path d="M28.9599 14.9269C28.8038 15.5884 28.6912 16.2643 28.5997 16.9454C28.5174 17.5586 28.3595 18.2816 28.4025 18.9087C28.3997 18.9077 28.3977 18.9053 28.3945 18.9047C27.122 18.6215 25.757 18.7216 24.4683 18.667C23.8191 18.6393 23.17 18.6084 22.521 18.574C21.9722 18.5449 21.3808 18.434 20.8231 18.4787C20.3565 16.8372 20.1085 15.1556 20.1788 13.3916C20.2155 12.4684 20.338 11.5526 20.5406 10.6663C20.7363 9.81066 21.0595 9.05775 21.3233 8.24512C21.3499 8.2644 21.3766 8.28268 21.4031 8.30239C22.0416 8.779 22.6355 9.35074 23.1697 10.0085C23.4342 10.3342 23.684 10.68 23.9162 11.0446C24.1454 11.4047 24.325 11.838 24.5811 12.1645C24.5835 12.1677 24.5863 12.1698 24.5888 12.1727C24.6029 12.2124 24.6345 12.2408 24.6809 12.2277C24.6856 12.2264 24.6901 12.2244 24.6948 12.2229C24.73 12.2234 24.7652 12.2111 24.7953 12.1885C25.8483 11.8204 26.67 10.5925 27.4369 9.66517C27.7391 9.2998 28.0412 8.93399 28.343 8.56775C28.8087 9.76662 29.5022 10.8332 30.308 11.7293C29.6438 12.6015 29.2332 13.7685 28.9599 14.9269Z" fill="#F5F5F5"/>
<path d="M38.3454 18.6114C37.6502 19.6775 36.9941 20.8042 36.4263 21.992C36.3183 21.6 36.1027 21.2224 35.934 20.8899C35.7277 20.4832 35.5026 20.0923 35.2624 19.718C34.7348 18.8959 34.1256 18.1688 33.4596 17.5383C32.2393 16.3833 30.7883 15.5615 29.2842 15.3002C29.2883 15.2807 29.2918 15.261 29.296 15.2416C29.5549 14.0342 29.96 12.9642 30.5088 11.9472C31.1306 12.6021 31.8107 13.1587 32.5021 13.5962C34.2633 14.7104 36.254 15.1649 38.1983 14.8213C38.2558 14.811 38.2939 14.7682 38.3155 14.7117C38.391 14.764 38.5013 14.7389 38.5391 14.6005C38.7017 14.0056 38.8444 13.4006 38.9913 12.7988C39.1158 12.2884 39.2967 11.7554 39.3338 11.2188C39.3095 12.5044 39.1623 13.7627 38.9048 15.0056C38.7146 15.061 38.7361 15.4736 38.96 15.496C39.4893 15.5491 40.0186 15.6001 40.5479 15.6514C40.1741 16.0141 39.8476 16.4986 39.5268 16.9241C39.1175 17.4675 38.7236 18.0315 38.3454 18.6114Z" fill="#F5F5F5"/>
<path d="M50.8937 20.4689C46.8821 22.3733 42.4805 21.5672 38.9443 18.4823C39.2248 18.0751 39.5105 17.6739 39.8042 17.2823C40.1804 16.7809 40.6266 16.324 40.9532 15.7681C40.9677 15.7434 40.9755 15.7176 40.9787 15.6919C41.8487 15.7772 42.7184 15.8663 43.5874 15.9733C45.1172 16.1619 46.6629 16.5048 48.2 16.5464C48.3036 16.5491 48.3426 16.3882 48.2919 16.2993C48.4584 15.8127 48.5288 15.2289 48.5616 14.6512C48.8606 14.4 49.1747 14.1892 49.4992 14.0098C49.4996 14.0147 49.4994 14.0193 49.5001 14.0243C49.787 16.1832 50.2336 18.4417 50.8937 20.4689Z" fill="#F5F5F5"/>
<path d="M60.5105 18.5981C60.015 20.0852 59.5151 21.5742 59.0597 23.0833C57.1874 19.6296 53.7696 17.1568 50.4711 17.3326C50.464 17.2984 50.4561 17.2645 50.4491 17.2303C50.2257 16.1261 50.0493 15.0107 49.8608 13.8963C49.857 13.873 49.8507 13.853 49.8438 13.8346C51.082 13.2472 52.4516 13.0835 53.7537 13.0211C54.6987 12.9758 55.6464 13.015 56.587 13.1427C57.4584 13.261 58.5703 13.2922 59.2453 14.0848C59.2534 14.0943 59.262 14.1021 59.271 14.109C59.2732 14.1411 59.2748 14.1732 59.2771 14.2053C59.2925 14.4172 59.5328 14.4254 59.5366 14.2053C59.5484 13.5219 59.5313 12.8363 59.5213 12.1531C59.5206 12.108 59.5207 12.0617 59.5207 12.0156C60.2666 12.8553 61.1516 13.4819 62.0853 13.9324C61.7725 14.6174 61.5693 15.4367 61.3274 16.1592C61.0551 16.9721 60.7817 17.7845 60.5105 18.5981Z" fill="#F5F5F5"/>
<path d="M70.5079 17.5553C69.9893 17.6651 69.4733 17.7978 68.9631 17.9612C67.9807 18.2757 67.0161 18.7057 66.1129 19.3012C64.6029 20.2967 63.2088 21.8048 62.4148 23.7743C62.3871 23.3216 62.2351 22.883 62.1256 22.4533C62.0035 21.9744 61.879 21.4965 61.7541 21.0187C61.5157 20.1063 61.2792 19.1882 61.0088 18.2903C61.2337 17.6244 61.4585 16.9586 61.6833 16.2927C61.9247 15.5778 62.245 14.8373 62.4144 14.0811C62.892 14.2886 63.3795 14.4521 63.865 14.576C64.8026 14.8153 65.7596 14.9219 66.7144 14.938C67.2092 14.9464 67.7041 14.9315 68.1982 14.8981C68.6939 14.8646 69.2432 14.883 69.7208 14.7009C69.8933 14.635 69.8531 14.3446 69.6965 14.304C69.7425 12.8403 69.7437 11.3749 69.8124 9.91215C69.8851 8.36403 70.0306 6.83245 70.1657 5.29253C70.1709 5.23309 70.1565 5.1846 70.1316 5.14719C70.1426 5.12719 70.1534 5.1069 70.1643 5.08689C70.6141 4.26477 71.0736 3.45099 71.5563 2.66067C71.9991 1.93553 72.4561 1.2242 72.9349 0.538356C73.6442 0.0309485 74.6724 1.08303 75.2563 1.55662C75.9738 2.13843 76.654 2.79895 77.2865 3.52783C77.8777 4.20921 78.4271 4.95061 78.9294 5.74281C79.1926 6.15797 79.4425 6.58666 79.6779 7.02888C79.8628 7.37627 80.0195 7.75733 80.2247 8.08572C79.7391 8.65212 79.128 9.00987 78.5503 9.39107C77.9155 9.80998 77.2935 10.2616 76.6827 10.7366C76.072 11.2115 75.4739 11.7143 74.8878 12.2387C74.3656 12.7059 73.7874 13.1717 73.3121 13.7327C73.1077 12.7915 72.7023 11.932 72.1779 11.2309C71.6738 10.557 70.8027 9.60866 70.0405 9.59585C69.8906 9.59341 69.8581 9.84034 69.9685 9.93993C70.1403 10.0949 70.3408 10.1977 70.5402 10.3041C70.538 10.3243 70.5374 10.3453 70.5399 10.3675C70.6061 10.9654 70.8317 11.5626 70.9758 12.1376C71.1236 12.7276 71.2609 13.322 71.3872 13.9203C71.6251 15.0482 71.7929 16.2029 72.0326 17.3291C71.54 17.2795 70.9946 17.4522 70.5079 17.5553Z" fill="#F5F5F5"/>
<path d="M80.3883 17.2735C78.9547 17.8245 77.4639 17.9638 75.988 17.6245C75.288 17.4635 74.6025 17.2031 73.9435 16.858C73.271 16.5058 72.6744 16.0201 72.0509 15.5531C71.9554 14.9621 71.8402 14.3761 71.7228 13.8022C71.6002 13.2027 71.4668 12.607 71.3224 12.0157C71.207 11.5428 71.1065 11.0116 70.9385 10.55C70.9424 10.5529 70.9466 10.5555 70.9505 10.5585C71.3096 10.8328 71.6373 11.1682 71.9289 11.554C72.4631 12.2612 72.8386 13.1006 73.1025 14.0187C73.0655 14.138 73.121 14.2751 73.207 14.3213C73.2548 14.3694 73.3243 14.3554 73.363 14.2994C74.011 13.7973 74.5968 13.1188 75.2222 12.5649C75.8555 12.0042 76.5036 11.4711 77.1632 10.9634C77.9342 10.3698 78.8579 9.88487 79.6057 9.16895C79.6055 9.17038 79.6051 9.17154 79.6048 9.17298C79.5885 9.26637 79.6153 9.372 79.6826 9.42035C79.694 9.42855 79.7054 9.43675 79.7169 9.4451C79.7334 9.45704 79.7503 9.46438 79.7672 9.46812C79.8235 9.73636 79.7983 10.1935 79.8134 10.3878C79.8406 10.7369 79.8677 11.0862 79.8949 11.4353C79.9494 12.1338 80.0063 12.832 80.0626 13.5303C80.1633 14.7789 80.2601 16.0287 80.3923 17.2726C80.391 17.2729 80.3897 17.2729 80.3883 17.2735Z" fill="#F5F5F5"/>
</svg>
