<svg width="82" height="30" viewBox="0 0 82 30" fill="none" xmlns="http://www.w3.org/2000/svg">
<path d="M81.6899 16.3583C81.6356 15.7321 81.5801 15.1058 81.5238 14.4798C81.4895 14.0978 81.5664 13.376 81.2928 13.0868C81.2655 13.058 81.2256 13.0366 81.1852 13.0302C81.3628 12.8633 81.5269 12.6819 81.6717 12.4807C81.6776 12.4874 81.6829 12.4946 81.6887 12.5014C81.7873 12.6115 81.9633 12.4997 81.9246 12.3495C81.8041 11.8823 81.5157 11.4743 81.266 11.0801C81.01 10.6759 80.738 10.2832 80.4503 9.90597C79.8351 9.09878 79.1498 8.35675 78.4078 7.69283C77.7091 7.06778 76.9606 6.50677 76.1663 6.04101C75.7048 5.77036 74.6277 4.1941 74.6277 5.52511C59.5514 15.4375 64.0172 23.8019 22.1401 12.3486C27.1401 21.1993 20.6624 0.145651 18.0002 3.9991C16.4236 4.39897 12.5409 5.52609 10.3562 0.999023C9.00579 2.16563 0 12.3486 0 12.3486C0 12.3486 7.11762 3.00535 5.5 12C7.11762 3.00535 3.1134 5.25434 3 9.09069C2.8866 12.927 8.70675 15.1027 10.0457 16.3583C11.3895 17.6185 12.2464 17.4772 13.5932 18.7332C16.0885 12.9921 13.5265 19.1425 13.5932 19.0114C14.0886 18.0379 11.347 22.4832 11.8424 21.5099C12.075 21.0529 12.3018 20.5916 12.5409 20.1388C12.7639 19.7167 13.017 19.2932 13.4623 19.1487C13.5342 19.1253 13.5756 19.0724 13.5932 19.0114C16.2814 19.3499 19.2904 19.0298 21.4014 17.0525C21.3685 18.4583 21.6012 19.9078 22.1401 21.185C22.1326 21.1862 22.1247 21.1866 22.1172 21.1878C21.9539 21.2154 21.9712 21.4931 22.1172 21.5343C22.7128 21.7022 23.3976 21.6454 24.0104 21.6729C24.6859 21.7031 25.3616 21.7302 26.0373 21.7541C27.3158 21.7995 28.6762 21.9533 29.9466 21.7606C29.9808 21.7555 30.0028 21.7313 30.0155 21.701C30.0926 21.779 30.2247 21.7619 30.275 21.6226C30.4469 21.1471 30.4405 20.5547 30.5192 20.0484C30.5877 19.6073 30.6683 19.1677 30.7668 18.7332C32.2018 19.0924 33.5457 19.7121 34.7409 20.6812C35.3573 21.181 35.9196 21.7645 36.4153 22.4076C36.6793 22.75 36.9223 23.1115 37.1428 23.4896C37.3402 23.8282 37.4801 24.2412 37.7314 24.5326C37.8067 24.6199 37.9034 24.5931 37.9582 24.5206C38.0115 24.5318 38.0709 24.5137 38.1111 24.4516C38.784 23.4142 39.4706 22.3972 40.2288 21.4332C40.2492 21.4072 40.2705 21.3823 40.291 21.3565C43.6881 24.3134 48.6391 24.9947 52.6279 23.1937C52.8269 23.1038 52.7805 22.7777 52.6082 22.7614C52.4115 21.9742 52.1825 21.1972 51.9848 20.4096C53.5783 20.5807 55.1007 20.98 56.5284 21.8166C57.9897 22.673 59.2068 23.8731 60.1913 25.3364C60.2541 25.4298 60.3525 25.4429 60.4305 25.4094C60.4848 25.4642 60.5847 25.4733 60.6232 25.3862C61.2067 24.0637 61.7391 22.7113 62.2733 21.3635C62.4443 22.052 62.6388 22.7349 62.8302 23.4156C62.9451 23.8244 63.0602 24.2332 63.1779 24.641C63.2887 25.0248 63.3636 25.4553 63.5663 25.7923C63.6043 25.8555 63.6756 25.8736 63.7338 25.854C63.7196 25.9767 63.8728 26.0612 63.9428 25.9365C64.8672 24.2882 66.1818 23.0353 67.7551 22.1836C68.6347 21.7075 69.5716 21.3661 70.5231 21.1153C70.9787 20.9953 71.4387 20.896 71.9008 20.8122C72.408 20.7203 72.96 20.7183 73.4496 20.5495C73.5161 20.5266 73.5529 20.4761 73.5652 20.4196C73.6024 20.4075 73.6326 20.3747 73.6296 20.3207C73.6042 19.8724 73.5454 19.4227 73.4689 18.9755C74.5191 19.9717 75.9788 20.5606 77.3094 20.8234C78.8021 21.1182 80.3656 21.0332 81.8126 20.5201C81.8553 20.5049 81.8862 20.4783 81.9069 20.446C81.9594 20.4291 82.0035 20.3828 82 20.3129C81.932 18.9922 81.804 17.6752 81.6899 16.3583Z" fill="#3C3C3B"/>
<path d="M50.538 26.7675C48.4688 25.8855 46.0902 25.7711 43.9447 26.0536C41.7862 26.3378 39.5011 27.0517 37.6207 28.5C37.619 28.5012 37.6177 28.503 37.6161 28.5043C37.466 26.803 37.3288 25.1768 37.4655 23.4532C37.5854 21.9419 37.7799 20.1087 38.4552 18.8067C38.6419 18.9525 38.8301 19.0952 39.0211 19.2314C40.0637 19.9748 41.257 20.7375 42.4326 21.0366C42.5147 21.0575 42.5744 21.0113 42.6044 20.9432C42.7986 20.838 42.9819 20.7032 43.1572 20.5482C43.2001 20.6443 43.2936 20.7062 43.3944 20.6425C45.1798 19.5146 46.956 18.4849 48.8766 17.7952C49.07 17.7257 49.2643 17.6592 49.4592 17.5947C49.9555 17.8166 50.4855 17.8392 50.9832 18.1067C51.4454 18.3553 51.857 18.7067 52.2726 19.0604C52.1045 19.6615 52.0414 20.3411 51.922 20.9589C51.7904 21.6389 51.6487 22.3159 51.4959 22.9884C51.2069 24.261 50.8361 25.5 50.538 26.7675Z" fill="#F5F5F5"/>
<path d="M60.3162 16.6182C61.3529 17.7779 62.7966 18.2368 64.1473 18.2447C64.8822 18.249 65.6221 18.105 66.3225 17.8162C66.8378 17.6038 67.489 17.3044 67.9529 16.8421C67.9095 17.6846 67.9519 18.551 67.9586 19.3922C67.9661 20.36 67.9802 21.3279 67.9979 22.2953C68.0149 23.2244 68.0355 24.1531 68.0652 25.0816C68.0875 25.7804 68.0099 26.7004 68.1955 27.386C68.1654 27.3716 68.1314 27.3658 68.0935 27.3746C66.2834 27.7935 64.4399 27.5984 62.7047 26.8053C60.9563 26.0062 59.4951 24.6193 58.2111 22.9133C58.6303 22.1203 58.9983 21.289 59.3082 20.4437C59.7555 19.2244 60.0965 17.9385 60.3162 16.6182Z" fill="#F5F5F5"/>
<path d="M39.4041 18.0508C40.4408 19.2105 41.8845 19.6694 43.2352 19.6773C43.9701 19.6817 44.71 19.5376 45.4104 19.2488C45.9257 19.0364 46.5769 18.7371 47.0408 18.2747C46.9974 19.1173 47.0398 19.9836 47.0464 20.8248C47.054 21.7926 47.0681 22.7605 47.0858 23.728C47.1027 24.657 47.1234 25.5858 47.153 26.5142C47.1754 27.213 47.0978 28.133 47.2834 28.8186C47.2533 28.8042 47.2193 28.7984 47.1814 28.8072C45.3713 29.2261 43.5278 29.031 41.7926 28.2379C40.0442 27.4388 38.583 26.0519 37.299 24.3459C37.7182 23.553 38.0862 22.7216 38.3961 21.8763C38.8434 20.657 39.1844 19.3711 39.4041 18.0508Z" fill="#F5F5F5"/>
<path d="M57.0376 10.9941C57.5658 11.1215 58.0944 11.2458 58.6229 11.3714C59.1576 11.4987 59.7078 11.6948 60.2513 11.7237C60.2175 13.1432 60.2554 14.534 60.0545 15.9493C59.842 17.4475 59.4746 18.9084 58.9652 20.2811C57.9179 23.1028 56.3341 25.3159 54.3721 27.1024C53.3823 26.3725 52.3755 25.7194 51.4127 24.9211C51.5721 24.3217 51.7158 23.7156 51.8546 23.1165C52.0102 22.4447 52.153 21.7685 52.2821 21.0874C52.4108 20.4086 52.6012 19.6726 52.6065 18.9706C52.6076 18.8208 52.5122 18.764 52.4272 18.7917C52.0545 18.2979 51.5886 17.941 51.0978 17.6771C50.8651 17.5519 50.5999 17.419 50.3282 17.3264C50.7799 17.1979 51.2343 17.0853 51.6902 16.9936C52.8204 16.7663 53.8378 16.9695 54.9566 17.1761C55.0743 17.1979 55.1285 17.0188 55.0442 16.939C55.0631 16.91 55.0744 16.8723 55.0728 16.8276C55.0412 15.9909 54.7562 15.118 54.5876 14.3103C54.4089 13.4537 54.2333 12.5962 54.061 11.7375C53.9534 11.2012 53.8509 10.6619 53.7482 10.1221C54.8269 10.5007 55.9396 10.7293 57.0376 10.9941Z" fill="#F5F5F5"/>
<path d="M36.1255 12.4258C36.6537 12.5531 37.1823 12.6775 37.7108 12.8031C38.2455 12.9303 38.7957 13.1264 39.3392 13.1554C39.3054 14.5748 39.3433 15.9657 39.1424 17.381C38.9299 18.8792 38.5625 20.3401 38.0531 21.7128C37.0058 24.5345 35.422 26.7476 33.46 28.534C32.4701 27.8041 31.4634 27.1511 30.5006 26.3527C30.6599 25.7533 30.8037 25.1472 30.9425 24.5481C31.0981 23.8764 31.2409 23.2002 31.37 22.5191C31.4987 21.8403 31.6891 21.1042 31.6943 20.4022C31.6955 20.2524 31.6001 20.1956 31.5151 20.2234C31.1424 19.7295 30.6765 19.3726 30.1857 19.1087C29.953 18.9835 29.6878 18.8507 29.4161 18.758C29.8678 18.6295 30.3222 18.517 30.7781 18.4253C31.9083 18.1979 32.9257 18.4011 34.0445 18.6078C34.1622 18.6295 34.2164 18.4505 34.1321 18.3706C34.151 18.3417 34.1623 18.304 34.1606 18.2592C34.1291 17.4226 33.8441 16.5496 33.6755 15.7419C33.4968 14.8854 33.3212 14.0279 33.1489 13.1692C33.0413 12.6328 32.9388 12.0935 32.8361 11.5537C33.9148 11.9323 35.0275 12.161 36.1255 12.4258Z" fill="#F5F5F5"/>
<path d="M25.2115 10.446C25.8671 9.9013 26.5655 9.44052 27.2924 9.07874C28.7786 8.33893 30.2669 8.12178 31.8427 8.06738C32.0614 9.83165 32.4427 11.571 32.7912 13.2976C32.9644 14.156 33.1409 15.0132 33.3206 15.8693C33.4814 16.635 33.5849 17.5271 33.8605 18.2434C32.9457 17.8628 32.0436 17.7321 31.0739 17.8864C30.0442 18.0503 29.0219 18.3479 28.0216 18.6999C26.2894 19.3092 24.5284 20.1207 22.9318 21.2286C23.433 20.5799 23.8707 19.8134 24.3044 19.1718C25.1795 17.8769 26.0322 16.5498 26.6958 15.0527C26.7789 14.8653 26.6317 14.692 26.5064 14.7235C26.4906 14.6753 26.4611 14.633 26.4158 14.6086C25.342 14.0299 24.3359 13.3232 23.4141 12.4589C23.8112 11.582 24.5666 10.9817 25.2115 10.446Z" fill="#F5F5F5"/>
<path d="M67.2799 15.3786C67.9354 14.8339 68.6338 14.3731 69.3608 14.0114C70.847 13.2715 72.3353 13.0544 73.9111 13C74.1297 14.7643 74.511 16.5036 74.8595 18.2302C75.0328 19.0886 75.2093 19.9458 75.389 20.8019C75.5497 21.5676 75.6532 22.4597 75.9288 23.1761C75.0141 22.7954 74.112 22.6648 73.1423 22.819C72.1126 22.9829 71.0903 23.2805 70.0899 23.6325C68.3578 24.2418 66.5968 25.0533 65.0001 26.1612C65.5013 25.5125 65.939 24.7461 66.3727 24.1044C67.2479 22.8095 68.1005 21.4825 68.7642 19.9853C68.8472 19.7979 68.7 19.6246 68.5748 19.6562C68.559 19.6079 68.5295 19.5656 68.4842 19.5412C67.4103 18.9625 66.4043 18.2558 65.4825 17.3915C65.8795 16.5146 66.635 15.9144 67.2799 15.3786Z" fill="#F5F5F5"/>
<path d="M12.9036 14.1595C12.2278 12.9782 11.7176 11.6995 11.1554 10.4328C11.4736 10.1738 11.733 9.78613 12.0124 9.46177C12.2901 9.13943 12.5724 8.8237 12.8593 8.51517C13.5238 7.8004 14.2122 7.1229 14.9215 6.48482C15.5755 5.89654 16.2484 5.34784 16.9345 4.82503C17.4721 4.41533 17.9797 4.01514 18.3197 3.33691C19.1543 8.54726 22.4196 13.2957 26.3208 14.9946C25.6933 16.3585 24.9099 17.5722 24.1071 18.7684C23.3611 19.8799 22.6027 21.308 21.6013 22.075C20.471 21.5077 19.3526 21.0406 18.2835 20.2753C17.2314 19.5223 16.2422 18.6206 15.3396 17.5919C14.4367 16.5632 13.6199 15.4114 12.9036 14.1595Z" fill="#F5F5F5"/>
<path d="M13.1207 13.0395C12.5775 14.2939 12.0345 15.5484 11.4913 16.8028C10.1796 15.3722 8.86943 13.9395 7.55466 12.5137C6.2962 11.1489 5.04928 9.74224 3.73352 8.46796C3.76172 8.44983 3.78804 8.42148 3.80914 8.37874C4.72462 6.52108 5.81353 4.85725 7.1586 3.49693C8.38876 2.25273 9.75204 1.406 11.1687 0.610352C11.0645 1.21389 10.9791 1.82275 10.9136 2.43578C10.807 3.43361 10.6362 4.62716 10.803 5.62197C10.8072 5.64701 10.8151 5.6683 10.8253 5.68672C10.7522 5.75637 10.7816 5.94431 10.8975 5.96402C12.0298 6.15642 13.1687 6.29745 14.3073 6.42625C14.1784 7.73175 14.1126 9.05812 14.0957 10.3735C14.0949 10.4367 14.1129 10.4832 14.1403 10.5139C14.1093 10.6426 14.1435 10.8044 14.2626 10.8283C14.2882 10.8335 14.3142 10.8379 14.3399 10.843C13.7596 11.3295 13.449 12.2813 13.1207 13.0395Z" fill="#F5F5F5"/>
<path d="M80.4499 20.1046C79.0164 20.6556 77.5255 20.7949 76.0496 20.4555C75.3497 20.2945 74.6641 20.0342 74.0052 19.6891C73.3326 19.3368 72.736 18.8511 72.1126 18.3842C72.0171 17.7932 71.9018 17.2072 71.7845 16.6333C71.6619 16.0338 71.5284 15.438 71.3841 14.8467C71.2686 14.3738 71.1681 13.8427 71.0001 13.381C71.004 13.3839 71.0082 13.3865 71.0121 13.3895C71.3712 13.6638 71.699 13.9993 71.9905 14.3851C72.5247 15.0922 72.9003 15.9316 73.1642 16.8497C73.1271 16.969 73.1826 17.1062 73.2687 17.1524C73.3164 17.2004 73.3859 17.1865 73.4247 17.1305C74.0727 16.6284 74.6585 15.9499 75.2838 15.396C75.9172 14.8352 76.5653 14.3022 77.2248 13.7945C77.9959 13.2009 78.9196 12.7159 79.6674 12C79.6671 12.0014 79.6667 12.0026 79.6665 12.004C79.6502 12.0974 79.6769 12.2031 79.7442 12.2514C79.7556 12.2596 79.7671 12.2678 79.7785 12.2762C79.7951 12.2881 79.8119 12.2954 79.8288 12.2992C79.8851 12.5674 79.8599 13.0246 79.875 13.2189C79.9022 13.568 79.9293 13.9172 79.9565 14.2664C80.011 14.9649 80.068 15.6631 80.1243 16.3613C80.225 17.61 80.3217 18.8598 80.4539 20.1037C80.4526 20.104 80.4514 20.104 80.4499 20.1046Z" fill="#F5F5F5"/>
</svg>
