<svg width="81" height="70" viewBox="0 0 81 70" fill="none" xmlns="http://www.w3.org/2000/svg">
<path d="M47.5374 66.7665C45.4682 65.8845 43.0896 65.7701 40.9441 66.0526C38.7856 66.3368 36.5005 67.0507 34.6201 68.499C34.6184 68.5003 34.6171 68.502 34.6155 68.5033C34.4654 66.8021 34.3282 65.1758 34.4649 63.4522C34.5848 61.941 34.7793 60.1078 35.4546 58.8057C35.6413 58.9515 35.8295 59.0942 36.0205 59.2304C37.0631 59.9738 38.2564 60.7365 39.432 61.0357C39.5141 61.0565 39.5738 61.0103 39.6038 60.9423C39.798 60.8371 39.9813 60.7022 40.1566 60.5472C40.1995 60.6434 40.293 60.7053 40.3938 60.6415C42.1792 59.5136 43.9554 58.4839 45.876 57.7942C46.0694 57.7247 46.2637 57.6582 46.4586 57.5938C46.9549 57.8157 47.4849 57.8382 47.9825 58.1058C48.4448 58.3543 48.8564 58.7057 49.272 59.0594C49.1039 59.6605 49.0408 60.3402 48.9213 60.9579C48.7898 61.6379 48.6481 62.315 48.4953 62.9874C48.2063 64.26 47.8355 65.499 47.5374 66.7665Z" fill="#F5F5F5"/>
<path d="M57.316 56.6172C58.3528 57.7769 59.7964 58.2358 61.1472 58.2437C61.8821 58.2481 62.6219 58.104 63.3223 57.8152C63.8377 57.6028 64.4889 57.3035 64.9528 56.8411C64.9094 57.6837 64.9518 58.55 64.9584 59.3912C64.966 60.359 64.9801 61.3269 64.9977 62.2944C65.0147 63.2234 65.0354 64.1522 65.065 65.0806C65.0873 65.7794 65.0097 66.6994 65.1954 67.385C65.1653 67.3706 65.1313 67.3648 65.0933 67.3736C63.2833 67.7925 61.4397 67.5974 59.7046 66.8043C57.9562 66.0052 56.4949 64.6183 55.2109 62.9123C55.6302 62.1194 55.9982 61.288 56.3081 60.4427C56.7554 59.2234 57.0964 57.9375 57.316 56.6172Z" fill="#F5F5F5"/>
<path d="M36.4039 58.0498C37.4407 59.2095 38.8843 59.6684 40.2351 59.6764C40.97 59.6807 41.7098 59.5366 42.4102 59.2478C42.9255 59.0354 43.5768 58.7361 44.0407 58.2737C43.9973 59.1163 44.0397 59.9826 44.0463 60.8239C44.0539 61.7916 44.068 62.7595 44.0856 63.727C44.1026 64.656 44.1233 65.5848 44.1529 66.5133C44.1752 67.2121 44.0976 68.132 44.2833 68.8176C44.2532 68.8032 44.2192 68.7975 44.1812 68.8062C42.3712 69.2251 40.5276 69.03 38.7925 68.2369C37.044 67.4378 35.5828 66.0509 34.2988 64.3449C34.7181 63.552 35.0861 62.7207 35.396 61.8754C35.8433 60.6561 36.1843 59.3701 36.4039 58.0498Z" fill="#F5F5F5"/>
<path d="M54.0375 50.9932C54.5657 51.1205 55.0943 51.2448 55.6227 51.3705C56.1575 51.4977 56.7077 51.6938 57.2512 51.7228C57.2174 53.1422 57.2553 54.5331 57.0544 55.9484C56.8419 57.4465 56.4745 58.9075 55.9651 60.2802C54.9178 63.1018 53.334 65.315 51.372 67.1014C50.3821 66.3715 49.3754 65.7185 48.4126 64.9201C48.5719 64.3207 48.7157 63.7146 48.8545 63.1155C49.0101 62.4438 49.1529 61.7676 49.282 61.0865C49.4107 60.4077 49.6011 59.6716 49.6063 58.9696C49.6074 58.8198 49.5121 58.763 49.4271 58.7908C49.0544 58.2969 48.5885 57.94 48.0977 57.6761C47.865 57.5509 47.5998 57.4181 47.3281 57.3254C47.7798 57.1969 48.2342 57.0843 48.6901 56.9927C49.8203 56.7653 50.8377 56.9685 51.9565 57.1751C52.0742 57.1969 52.1284 57.0179 52.0441 56.938C52.063 56.9091 52.0743 56.8714 52.0726 56.8266C52.0411 55.9899 51.7561 55.117 51.5875 54.3093C51.4088 53.4528 51.2332 52.5952 51.0609 51.7366C50.9533 51.2002 50.8508 50.6609 50.7481 50.1211C51.8268 50.4997 52.9395 50.7284 54.0375 50.9932Z" fill="#F5F5F5"/>
<path d="M33.1249 52.4267C33.6531 52.5541 34.1817 52.6784 34.7101 52.8041C35.2449 52.9313 35.7951 53.1274 36.3386 53.1563C36.3048 54.5758 36.3427 55.9666 36.1418 57.3819C35.9293 58.8801 35.5619 60.3411 35.0525 61.7138C34.0052 64.5354 32.4214 66.7485 30.4594 68.535C29.4695 67.8051 28.4628 67.1521 27.5 66.3537C27.6593 65.7543 27.8031 65.1482 27.9419 64.5491C28.0975 63.8774 28.2403 63.2012 28.3694 62.5201C28.4981 61.8413 28.6885 61.1052 28.6937 60.4032C28.6948 60.2534 28.5995 60.1966 28.5145 60.2244C28.1418 59.7305 27.6759 59.3736 27.1851 59.1097C26.9524 58.9845 26.6872 58.8516 26.4155 58.759C26.8672 58.6305 27.3216 58.5179 27.7775 58.4263C28.9077 58.1989 29.9251 58.4021 31.0439 58.6087C31.1616 58.6305 31.2158 58.4514 31.1315 58.3716C31.1504 58.3427 31.1617 58.305 31.16 58.2602C31.1285 57.4235 30.8435 56.5506 30.6749 55.7429C30.4962 54.8864 30.3206 54.0288 30.1483 53.1702C30.0407 52.6338 29.9382 52.0945 29.8355 51.5547C30.9142 51.9333 32.0269 52.162 33.1249 52.4267Z" fill="#F5F5F5"/>
<path d="M43.123 49.0134C43.7786 48.4687 44.477 48.0079 45.2039 47.6461C46.6901 46.9063 48.1784 46.6892 49.7542 46.6348C49.9729 48.399 50.3541 50.1384 50.7027 51.865C50.8759 52.7234 51.0524 53.5806 51.2321 54.4367C51.3929 55.2024 51.4964 56.0945 51.772 56.8108C50.8572 56.4302 49.9551 56.2995 48.9854 56.4538C47.9557 56.6177 46.9334 56.9153 45.9331 57.2673C44.2009 57.8766 42.4399 58.6881 40.8433 59.796C41.3445 59.1473 41.7822 58.3808 42.2159 57.7392C43.091 56.4443 43.9437 55.1172 44.6073 53.62C44.6904 53.4327 44.5432 53.2594 44.4179 53.2909C44.4021 53.2427 44.3726 53.2004 44.3273 53.1759C43.2535 52.5973 42.2474 51.8906 41.3256 51.0263C41.7227 50.1493 42.4781 49.5491 43.123 49.0134Z" fill="#F5F5F5"/>
<path d="M22.2109 50.446C22.8665 49.9013 23.5649 49.4405 24.2918 49.0787C25.778 48.3389 27.2663 48.1218 28.8421 48.0674C29.0607 49.8317 29.442 51.571 29.7906 53.2976C29.9638 54.156 30.1403 55.0132 30.32 55.8693C30.4808 56.635 30.5843 57.5271 30.8598 58.2434C29.9451 57.8628 29.043 57.7321 28.0733 57.8864C27.0436 58.0503 26.0213 58.3479 25.021 58.6999C23.2888 59.3092 21.5278 60.1207 19.9312 61.2286C20.4324 60.5799 20.8701 59.8134 21.3038 59.1718C22.1789 57.8769 23.0316 56.5498 23.6952 55.0527C23.7783 54.8653 23.631 54.692 23.5058 54.7235C23.49 54.6753 23.4605 54.633 23.4152 54.6086C22.3414 54.0299 21.3353 53.3232 20.4135 52.4589C20.8105 51.582 21.566 50.9817 22.2109 50.446Z" fill="#F5F5F5"/>
<path d="M68.438 51.8786C69.0935 51.3339 69.7919 50.8731 70.5189 50.5114C72.0051 49.7715 73.4934 49.5544 75.0692 49.5C75.2878 51.2643 75.6691 53.0036 76.0176 54.7302C76.1908 55.5886 76.3674 56.4458 76.547 57.3019C76.7078 58.0676 76.8113 58.9597 77.0869 59.6761C76.1722 59.2954 75.27 59.1648 74.3004 59.319C73.2706 59.4829 72.2483 59.7805 71.248 60.1325C69.5159 60.7418 67.7549 61.5533 66.1582 62.6612C66.6594 62.0125 67.0971 61.2461 67.5308 60.6044C68.406 59.3095 69.2586 57.9825 69.9223 56.4853C70.0053 56.2979 69.8581 56.1246 69.7329 56.1562C69.7171 56.1079 69.6875 56.0656 69.6422 56.0412C68.5684 55.4625 67.5623 54.7558 66.6405 53.8915C67.0376 53.0146 67.7931 52.4144 68.438 51.8786Z" fill="#F5F5F5"/>
<path d="M30.8161 52.725C30.1402 51.5437 29.63 50.2649 29.0679 48.9983C29.3861 48.7392 29.6455 48.3516 29.9248 48.0272C30.2025 47.7049 30.4849 47.3891 30.7718 47.0806C31.4362 46.3658 32.1247 45.6883 32.8339 45.0503C33.4879 44.462 34.1609 43.9133 34.847 43.3905C35.3846 42.9808 35.8922 42.5806 36.2322 41.9023C37.0668 47.1127 40.3321 51.8611 44.2333 53.56C43.6057 54.924 42.8224 56.1377 42.0196 57.3338C41.2736 58.4453 40.5152 59.8734 39.5138 60.6404C38.3834 60.0732 37.2651 59.606 36.196 58.8408C35.1439 58.0877 34.1547 57.186 33.2521 56.1574C32.3492 55.1286 31.5324 53.9768 30.8161 52.725Z" fill="#F5F5F5"/>
<path d="M9.90351 54.1595C9.22764 52.9782 8.71744 51.6995 8.15527 50.4328C8.4735 50.1738 8.73287 49.7861 9.01224 49.4618C9.28993 49.1394 9.57229 48.8237 9.85921 48.5152C10.5236 47.8004 11.2121 47.1229 11.9213 46.4848C12.5753 45.8965 13.2483 45.3478 13.9344 44.825C14.472 44.4153 14.9796 44.0151 15.3196 43.3369C16.1542 48.5473 19.4195 53.2957 23.3207 54.9946C22.6931 56.3585 21.9098 57.5722 21.107 58.7684C20.361 59.8799 19.6026 61.308 18.6012 62.075C17.4709 61.5077 16.3525 61.0406 15.2834 60.2753C14.2313 59.5223 13.2421 58.6206 12.3395 57.5919C11.4366 56.5632 10.6198 55.4114 9.90351 54.1595Z" fill="#F5F5F5"/>
<path d="M56.1311 55.5921C55.4552 54.4108 54.945 53.1321 54.3828 51.8655C54.701 51.6064 54.9604 51.2188 55.2398 50.8944C55.5175 50.572 55.7998 50.2563 56.0867 49.9478C56.7512 49.233 57.4396 48.5555 58.1489 47.9174C58.8029 47.3292 59.4759 46.7805 60.1619 46.2576C60.6996 45.848 61.2071 45.4478 61.5471 44.7695C62.3817 49.9799 65.647 54.7283 69.5482 56.4272C68.9207 57.7912 68.1373 59.0048 67.3346 60.201C66.5885 61.3125 65.8301 62.7406 64.8287 63.5076C63.6984 62.9403 62.58 62.4732 61.5109 61.7079C60.4588 60.9549 59.4696 60.0532 58.567 59.0246C57.6641 57.9958 56.8473 56.844 56.1311 55.5921Z" fill="#F5F5F5"/>
<path d="M80.3622 47.8309C80.3076 47.0937 80.2519 46.3566 80.1954 45.6197C80.161 45.1699 80.2381 44.3202 79.9634 43.9799C79.936 43.9459 79.8959 43.9207 79.8553 43.9132C80.0337 43.7168 80.1985 43.5032 80.3439 43.2664C80.3498 43.2743 80.3552 43.2828 80.361 43.2907C80.4601 43.4204 80.6367 43.2887 80.5979 43.112C80.4769 42.562 80.1873 42.0816 79.9364 41.6175C79.6794 41.1418 79.4062 40.6796 79.1172 40.2355C78.4993 39.2853 77.811 38.4118 77.0658 37.6302C76.364 36.8944 75.6124 36.2341 74.8147 35.6858C74.3511 35.3672 73.7867 34.967 73.2693 35.0785C73.6187 34.6164 73.9822 34.1387 74.1431 33.5317C74.1551 33.4865 74.1451 33.4508 74.1257 33.4268C74.1378 33.4043 74.1476 33.3794 74.1527 33.3508C74.1784 33.205 74.1632 33.1228 74.0795 33.0165C74.0488 32.9775 73.9996 32.9525 73.9528 32.9539C73.8837 32.8166 73.8108 32.562 73.7773 32.4842C73.7027 32.3108 73.6264 32.1385 73.5477 31.9681C73.3644 31.5708 73.1689 31.1827 72.9589 30.8083C72.5616 30.0993 72.1177 29.43 71.6077 28.8528C70.7458 27.8774 69.7263 27.1734 68.6046 26.9066C69.2056 26.1333 69.8474 25.4012 70.394 24.5682C70.5396 24.7348 70.802 24.4925 70.6765 24.2703C69.5172 22.2183 67.34 20.6632 65.383 20.4555C65.3697 19.5832 65.3603 18.7108 65.3531 17.8383C65.3454 16.9165 65.3906 15.9683 65.3246 15.0509C65.3193 14.9759 65.2953 14.9199 65.2622 14.8827C65.2953 14.7428 65.2163 14.5502 65.0862 14.6212C64.4668 14.9592 63.9391 15.4891 63.2868 15.7665C62.6178 16.051 61.9184 16.1948 61.2148 16.205C59.8284 16.2251 58.5677 15.6441 57.3527 14.8379C57.3779 14.6757 57.4023 14.5134 57.4237 14.3504C57.6186 12.8676 57.7525 11.2063 57.4481 9.73448C57.4205 9.60165 57.2767 9.63001 57.264 9.75636C56.745 9.53661 56.1691 9.46422 55.6328 9.33471C55.0754 9.20016 54.5181 9.06417 53.9604 8.93236C52.8922 8.67995 51.8224 8.3894 50.7411 8.2501C50.7208 8.24751 50.7033 8.25197 50.6881 8.26061C50.4751 7.14506 50.2562 6.03038 49.9822 4.94131C50.0143 4.81683 49.9604 4.65206 49.8256 4.63566C48.1536 4.43261 46.3448 4.97038 44.8098 5.79984C44.025 6.22393 43.2666 6.74976 42.5732 7.38912C42.0378 7.88272 41.3778 8.46394 41.1401 9.29643C40.4914 8.66527 39.8854 7.95438 39.3298 7.1501C37.9617 5.17026 36.9834 2.78001 36.3841 0.243259C36.372 0.192029 36.3425 0.16886 36.312 0.166845C36.3336 0.0505704 36.2161 -0.0633999 36.1447 0.0412187C35.6471 0.769375 34.9684 1.2113 34.3332 1.70216C33.6472 2.23245 32.9778 2.79857 32.327 3.3988C31.7072 3.97039 31.1049 4.57349 30.5212 5.20581C29.9673 5.80574 29.2653 6.43432 28.8638 7.21471C28.8608 7.22061 28.8587 7.22666 28.8563 7.2327C28.8092 7.25832 28.7748 7.31976 28.7944 7.3979C29.1681 8.88961 29.8712 10.2986 30.5884 11.5487C30.9199 12.1265 31.2751 12.6813 31.6498 13.2134C29.6769 12.9264 27.6572 13.1475 25.74 13.8031C23.7059 14.4987 21.6142 15.6806 20.0317 17.5112C19.9938 17.5551 19.9893 17.614 20.0044 17.6649C19.9727 17.7056 19.9544 17.7654 19.9655 17.8326C20.0475 18.3276 20.3071 18.777 20.502 19.211C20.7232 19.7036 20.9493 20.1924 21.1817 20.6761C21.4719 21.2801 21.771 21.8766 22.077 22.4671C22.0712 22.4722 22.0656 22.4774 22.0601 22.4838C21.4062 23.277 20.7869 24.1104 20.1105 24.8701C20.1062 23.6649 20.0493 22.4538 20.0299 21.249C20.0252 20.9612 19.7427 20.9461 19.6666 21.1852C19.6548 21.2222 19.643 21.2592 19.6312 21.2962C19.4506 20.7498 18.9265 20.7381 18.5198 20.7761C17.8606 20.8376 17.206 20.9983 16.5704 21.2306C15.2716 21.7052 14.0418 22.4893 12.9474 23.5107C11.8719 24.5146 10.9266 25.7372 10.1551 27.1343C9.75538 27.8579 9.4054 28.628 9.11483 29.4346C8.85867 30.1457 8.55743 30.9543 8.5229 31.7468C8.52223 31.7614 8.52479 31.7742 8.52701 31.7871C8.49658 31.8353 8.48748 31.9106 8.52623 31.9637C9.13714 32.8011 9.7948 33.5839 10.4355 34.3849C9.93704 34.8234 9.58661 35.5547 9.32446 36.2343C8.96981 37.1535 8.69589 38.1347 8.46894 39.1179C8.38455 39.4833 8.30838 39.8515 8.23887 40.2219C6.65541 40.6926 5.16089 41.8279 3.89376 43.1108C2.53747 44.4841 1.33463 46.1897 0.489994 48.1409C0.478557 48.1673 0.472228 48.1931 0.468342 48.2184C0.376738 48.1485 0.275808 48.3307 0.35442 48.4292C1.62232 50.0192 3.00482 51.4691 4.34956 52.9471C5.69918 54.4305 7.05391 55.9062 8.40665 57.3848C8.50169 57.4887 8.65148 57.4872 8.71854 57.3327C9.21609 56.1868 9.71364 55.0409 10.2112 53.8952C10.4448 53.3572 10.6725 52.8141 10.9127 52.2811C11.1367 51.7842 11.3909 51.2857 11.8382 51.1156C11.9103 51.0882 11.9519 51.0258 11.9696 50.954C14.6694 51.3525 17.6916 50.9758 19.8117 48.6481C19.7787 50.303 20.0124 52.0092 20.5536 53.5127C20.5461 53.5141 20.5382 53.5145 20.5306 53.516C20.3666 53.5485 20.3839 53.8753 20.5306 53.9238C21.1288 54.1215 21.8166 54.0546 22.4321 54.087C23.1105 54.1225 23.7892 54.1545 24.4678 54.1827C25.7518 54.2361 27.1182 54.4171 28.3941 54.1903C28.4284 54.1843 28.4505 54.1558 28.4633 54.1201C28.5407 54.2119 28.6733 54.1917 28.7239 54.0278C28.8965 53.4681 28.8901 52.7707 28.9691 52.1746C29.038 51.6554 29.1189 51.1381 29.2179 50.6267C30.6591 51.0494 32.0087 51.7788 33.2091 52.9196C33.8282 53.5079 34.3931 54.1948 34.8909 54.9519C35.1561 55.3549 35.4 55.7805 35.6214 56.2256C35.8197 56.6242 35.9603 57.1103 36.2127 57.4533C36.2883 57.5561 36.3854 57.5246 36.4404 57.4392C36.4939 57.4525 36.5536 57.4312 36.594 57.3581C37.2699 56.1369 37.9594 54.9396 38.721 53.8048C38.7414 53.7743 38.7628 53.7449 38.7834 53.7146C42.1952 57.1953 47.1677 57.9973 51.1738 55.8772C51.3737 55.7714 51.3272 55.3876 51.1541 55.3685C50.9565 54.4417 50.7265 53.5271 50.5279 52.5999C52.1284 52.8013 53.6575 53.2713 55.0914 54.2562C56.559 55.2643 57.7814 56.677 58.7702 58.3995C58.8332 58.5095 58.932 58.5249 59.0104 58.4854C59.0649 58.5499 59.1652 58.5607 59.2038 58.4581C59.7899 56.9013 60.3247 55.3093 60.8613 53.7228C61.0329 54.5332 61.2283 55.3372 61.4205 56.1385C61.5359 56.6197 61.6515 57.1009 61.7697 57.581C61.881 58.0328 61.9563 58.5395 62.1598 58.9361C62.198 59.0105 62.2696 59.032 62.328 59.0088C62.3138 59.1533 62.4677 59.2527 62.538 59.1059C63.4665 57.1657 64.7867 55.6908 66.3668 54.6882C67.2502 54.1277 68.1912 53.7258 69.1469 53.4306C69.6045 53.2893 70.0664 53.1725 70.5305 53.0739C71.0399 52.9657 71.5943 52.9632 72.0861 52.7647C72.1528 52.7376 72.1899 52.6782 72.2022 52.6117C72.2396 52.5974 72.2698 52.5589 72.2668 52.4953C72.2413 51.9676 72.1824 51.4381 72.1055 50.9117C73.1602 52.0844 74.6262 52.7776 75.9626 53.087C77.4618 53.4339 79.0322 53.3339 80.4854 52.73C80.5284 52.7121 80.5594 52.6809 80.5801 52.6428C80.6329 52.6229 80.6772 52.5684 80.6736 52.486C80.6053 50.9313 80.4767 49.381 80.3622 47.8309Z" fill="#3C3C3B"/>
<path d="M71.718 29.678C72.2062 30.3234 72.6292 31.0425 73.0022 31.8055C73.1798 32.169 73.3461 32.5413 73.5034 32.9202C73.6143 33.1873 73.6724 33.4531 73.9136 33.5254C73.9194 33.5272 73.9256 33.5275 73.9314 33.5286C73.5236 34.2431 72.979 34.8068 72.5082 35.4507C72.0005 36.1452 71.5278 36.8813 71.0738 37.6354C70.6589 38.3247 70.2584 39.0282 69.8663 39.7395C69.659 40.1154 69.4546 40.4939 69.2518 40.8738C69.0655 41.2226 68.8187 41.5742 68.7332 41.9869C68.4574 40.3308 67.935 38.7407 67.2406 37.3074C66.6697 36.129 65.8624 34.6726 64.8346 34.127C64.8296 34.1244 64.8247 34.1232 64.8198 34.1214C65.1828 32.916 65.6518 31.7613 66.2089 30.6712C66.8013 29.5118 67.484 28.4363 68.2162 27.421C68.2782 27.335 68.342 27.2506 68.4056 27.166C69.6784 27.5626 70.8015 28.4665 71.718 29.678Z" fill="#F5F5F5"/>
<path d="M69.424 49.2852C69.0461 49.2832 68.6557 49.3657 68.2829 49.3916C67.8178 49.4238 67.3521 49.4434 66.8863 49.4415C65.9071 49.4376 64.9255 49.3448 63.9635 49.1015C62.3388 48.6905 60.8634 47.8616 59.5226 46.6144C59.5271 46.2414 59.5281 45.858 59.4717 45.506C61.9803 44.0667 64.4283 42.3853 66.8706 40.769C67.0406 40.6564 66.9705 40.3833 66.8293 40.3157C66.7175 39.7129 66.6315 39.1118 66.6576 38.4879C66.6727 38.1276 66.7612 37.776 66.8267 37.4258C66.8766 37.5254 66.9258 37.6254 66.9737 37.7264C67.6449 39.14 68.1203 40.6711 68.4892 42.2564C68.541 42.4789 68.7864 42.3915 68.7619 42.1718C68.803 42.2339 68.8704 42.2646 68.9307 42.21C69.1831 41.9822 69.3251 41.6324 69.4994 41.3085C69.5738 41.1702 69.6492 41.0326 69.7238 40.8945C69.3972 43.6332 69.2484 46.5336 69.424 49.2852Z" fill="#F5F5F5"/>
<path d="M65.3259 26.07C65.3597 26.0659 65.3936 26.0358 65.4063 25.9931C65.5178 25.614 65.4728 25.2059 65.4664 24.8041C65.4588 24.3397 65.4482 23.8755 65.439 23.4113C65.4219 22.5421 65.4036 21.6729 65.3893 20.8037C66.3268 21.1278 67.2276 21.4953 68.0806 22.1184C68.9264 22.7364 69.5902 23.5448 70.2716 24.4125C69.375 25.129 68.6087 26.1655 67.893 27.1492C67.1366 28.189 66.441 29.3109 65.837 30.5072C64.6435 32.8713 63.8086 35.5899 63.6567 38.425C63.6402 38.7341 64.0047 38.7283 64.026 38.425C64.1199 37.0872 64.3521 35.7891 64.6982 34.5428C65.1038 35.0055 65.547 35.3797 65.9204 35.8992C66.145 36.2116 66.3512 36.5438 66.5439 36.8894C66.343 37.3494 66.3162 37.9905 66.3092 38.4891C66.3 39.1403 66.3864 39.7883 66.5899 40.3831C64.1601 41.9299 61.6889 43.4467 59.3288 45.1672C59.2855 45.1532 59.2393 45.1654 59.2072 45.206C59.0958 44.8868 58.9113 44.6082 58.7677 44.3117C58.6108 43.9879 58.4648 43.6555 58.3316 43.3143C58.0286 42.5377 57.7967 41.715 57.6304 40.8722C57.3141 39.2671 57.3024 37.668 57.4129 36.0347C57.9793 35.7095 58.5348 35.3437 59.0778 34.9547C59.0836 34.9905 59.0968 35.0249 59.12 35.0539C59.4179 35.4243 59.814 35.6665 60.1629 35.9497C60.553 36.2664 60.9399 36.5895 61.3237 36.9189C62.0824 37.57 62.8245 38.3228 63.636 38.8595C63.7285 38.9209 63.8247 38.7715 63.7488 38.67C63.1275 37.8396 62.3324 37.18 61.5949 36.5385C61.2126 36.206 60.8272 35.8797 60.4386 35.5598C60.096 35.2778 59.748 34.9356 59.3662 34.7453C59.6506 34.5365 59.9319 34.3234 60.2096 34.1087C60.8563 33.6086 61.4901 33.0799 62.1089 32.5234C62.6775 32.012 63.3432 31.4978 63.8166 30.8389C63.911 30.7075 63.8568 30.5213 63.755 30.4636C63.4918 28.9971 62.6983 27.4117 61.7059 26.4088C62.8793 26.6192 64.0695 26.5831 65.1928 26.2839C65.2896 26.258 65.3287 26.1659 65.3259 26.07Z" fill="#F5F5F5"/>
<path d="M48.4185 45.3234C48.3184 44.4465 48.2069 43.3743 47.9443 42.4176C48.1599 41.5428 48.6261 40.8738 49.2775 40.4778C49.2851 40.4732 49.2914 40.4674 49.2978 40.4618C50.0149 40.3496 50.7248 40.1742 51.4158 39.95C52.6389 39.5531 53.8281 38.9893 54.97 38.2981C55.5779 37.9301 56.1784 37.5301 56.7536 37.0821C56.8615 36.998 56.9683 36.9059 57.0576 36.8018C56.9025 38.1956 57.0013 39.6516 57.2555 41.0043C57.4108 41.8311 57.6373 42.6348 57.9221 43.4014C58.1811 44.0986 58.5247 45.0958 59.029 45.544C59.0618 45.5732 59.0994 45.5758 59.1345 45.5631C59.0893 46.0787 59.1576 46.6463 59.178 47.1508C59.1946 47.5599 59.2094 47.9697 59.2286 48.379C58.757 47.9083 57.8834 47.867 57.4045 47.7781C56.2813 47.5693 55.1447 47.4789 54.0103 47.5235C52.1798 47.5953 50.1056 47.8446 48.577 49.2807C48.5863 49.0043 48.5899 48.7343 48.5938 48.4829C48.6104 47.4249 48.5378 46.369 48.4185 45.3234Z" fill="#F5F5F5"/>
<path d="M45.4007 40.4791C45.3671 40.3454 45.2173 40.3046 45.1607 40.4385C44.9895 40.8432 45.0055 41.3614 44.9303 41.8112C44.8397 42.3535 44.7154 42.8851 44.5627 43.4033C44.2669 44.4063 43.8521 45.3191 43.3684 46.1854C43.3484 46.1728 43.3267 46.1629 43.3019 46.1586C41.222 45.7974 39.1217 45.3191 37.0255 45.1395C37.2278 44.6205 37.312 43.9617 37.3937 43.4194C37.4981 42.7263 37.5574 42.0206 37.565 41.3145C37.5807 39.8656 37.3902 38.3866 36.9655 37.0435C36.9525 37.0025 36.9318 36.9732 36.9077 36.9537C37.262 36.0752 37.5726 35.1672 37.8375 34.2367C38.1618 33.0975 38.4217 31.9154 38.6093 30.7129C39.575 32.3455 41.1047 33.2341 42.5601 33.9644C43.2294 34.3003 43.942 34.6582 44.675 34.9589C44.4152 35.8293 44.223 36.7383 44.0079 37.6282C43.901 38.0709 43.7983 38.5152 43.6948 38.9593C43.6237 39.2644 43.5514 39.4562 43.6639 39.7384C43.7004 39.8297 43.8125 39.8993 43.8901 39.8577C43.8952 39.855 43.9002 39.8523 43.9053 39.8497C44.8301 40.2664 45.7949 40.4936 46.7709 40.5714C46.7677 40.5978 46.7708 40.6253 46.7836 40.6505C47.1461 41.3664 47.4472 42.0487 47.634 42.8789C47.8232 43.7201 47.9383 44.5945 48.0356 45.4605C48.148 46.4601 48.2093 47.4723 48.1917 48.4828C48.184 48.923 48.1618 49.3632 48.121 49.8004C48.0787 50.2527 47.9744 50.7076 47.9501 51.1621C46.5554 50.7696 45.0897 50.654 43.6757 50.4756C42.1773 50.2866 40.6747 50.1116 39.1708 50.0105C39.4996 48.7415 39.6617 47.4224 39.6691 46.0832C40.8809 46.2963 42.0984 46.4717 43.3019 46.6808C43.3707 46.6928 43.4202 46.6631 43.4519 46.6133C43.4813 46.6087 43.5099 46.5917 43.5335 46.5569C44.1042 45.7178 44.5511 44.7521 44.8796 43.7185C45.052 43.1757 45.1876 42.6131 45.2878 42.0406C45.3697 41.5729 45.5182 40.9462 45.4007 40.4791Z" fill="#F5F5F5"/>
<path d="M29.8913 29.4119C30.0364 27.3161 29.7606 24.9073 28.7097 23.2289C28.7412 23.2068 28.772 23.1835 28.8037 23.1619C29.564 22.6417 30.3878 22.2868 31.2394 22.1282C32.2028 21.9489 33.0959 22.1215 34.0357 22.3883C34.0427 22.3903 34.0491 22.3887 34.0557 22.389C33.9456 23.9899 33.9747 25.6936 34.2969 27.2142C34.3401 27.4179 34.5829 27.4156 34.6272 27.24C34.6518 27.2575 34.6821 27.2616 34.7159 27.2435C35.9913 26.5625 37.2556 25.9539 38.5643 25.5249C38.5742 28.2873 38.2938 30.9973 37.5981 33.6188C37.2502 34.9298 36.8093 36.1991 36.2846 37.4073C35.8097 38.5011 35.2945 39.6469 34.4105 40.2336C34.3976 40.2049 34.3802 40.1792 34.3563 40.1592C33.3387 39.3077 32.1332 38.7044 31.026 38.0743C29.9836 37.481 28.9244 36.8957 27.8232 36.51C27.8491 36.4932 27.8737 36.468 27.8942 36.4305C28.988 34.4372 29.723 31.8422 29.8913 29.4119Z" fill="#F5F5F5"/>
<path d="M29.3737 29.964C29.2697 29.2387 29.1079 28.5298 28.8924 27.8471C28.5106 26.638 27.9741 25.4111 27.2026 24.5424C27.6168 24.1099 28.0535 23.714 28.5144 23.3701C29.2707 25.3036 29.6764 27.3155 29.5018 29.5078C29.4818 29.7585 29.4541 30.0079 29.4214 30.2561C29.403 30.1485 29.3859 30.049 29.3737 29.964Z" fill="#F5F5F5"/>
<path d="M50.6379 25.5479C50.8476 25.6572 51.059 25.7549 51.2715 25.8371C51.301 25.9482 51.3943 26.0279 51.4993 25.9498C51.511 25.9412 51.5221 25.9314 51.5338 25.9227C51.5606 25.919 51.5823 25.8994 51.5971 25.8729C52.9669 24.8234 54.1469 23.3083 55.0837 21.5967C56.4225 23.9464 58.5061 25.5107 60.737 26.177C61.3336 26.7476 61.9077 27.2654 62.3891 28.0223C62.8753 28.7867 63.216 29.6389 63.5347 30.5311C62.919 31.0014 62.3624 31.6655 61.7727 32.1914C61.1966 32.7051 60.6077 33.1954 60.0074 33.6606C58.7857 34.6072 57.5034 35.3832 56.2471 36.2423C56.1566 35.4429 55.724 34.5583 55.4114 33.9086C55.0064 33.0669 54.518 32.2894 53.965 31.6037C52.9069 30.2915 51.5624 29.2389 50.1147 28.8585C50.1676 28.5484 50.2201 28.2383 50.2729 27.928C50.4024 27.1658 50.604 26.3729 50.6389 25.5929C50.6397 25.5769 50.6393 25.562 50.6379 25.5479Z" fill="#F5F5F5"/>
<path d="M44.0786 39.5967L44.0731 39.5323C44.0667 39.4569 44.0409 39.4045 44.001 39.3708C44.0124 39.1372 44.1723 38.7149 44.2111 38.5451C44.3041 38.1374 44.3943 37.7287 44.4841 37.3199C44.6479 36.575 44.83 35.8309 44.9565 35.0734C46.2484 35.5723 47.5942 35.8649 48.872 35.5231C48.9854 35.4927 49.0144 35.3682 48.989 35.2566C49.0032 35.2374 49.0146 35.214 49.0211 35.1851C49.3206 33.8394 49.5232 32.4499 49.7433 31.0747C50.4925 31.27 51.5645 31.1661 52.0805 30.3828C52.654 30.8269 53.1932 31.3458 53.6891 31.9623C54.2023 32.6005 54.6569 33.3147 55.037 34.0941C55.2253 34.4802 55.3951 34.8808 55.5467 35.2931C55.6952 35.6972 55.7811 36.1684 55.9741 36.5383C56.0188 36.6241 56.106 36.6487 56.173 36.617C56.1998 36.6353 56.2321 36.6408 56.2676 36.6251C56.4577 36.5408 56.6463 36.4487 56.8339 36.3528C56.6127 36.7525 55.6538 37.283 55.4666 37.4077C54.9518 37.7499 54.426 38.0656 53.8904 38.3495C52.8612 38.8951 51.7962 39.3302 50.7084 39.6305C48.5025 40.2394 46.2808 40.177 44.0786 39.5967Z" fill="#F5F5F5"/>
<path d="M48.5429 40.5586C48.1987 40.9208 47.9399 41.4017 47.7974 41.9486C47.6123 41.419 47.3688 40.9454 47.0366 40.5918C47.5377 40.6179 48.0411 40.6045 48.5429 40.5586Z" fill="#F5F5F5"/>
<path d="M49.8027 30.7015C49.8239 30.5719 49.8449 30.4421 49.8668 30.3128C49.9316 29.9285 49.9973 29.5444 50.0627 29.1602C50.6499 29.437 51.2155 29.7584 51.7532 30.1403C51.4956 30.2914 51.2542 30.4841 50.9762 30.5868C50.5917 30.7287 50.1971 30.7572 49.8027 30.7015Z" fill="#F5F5F5"/>
<path d="M50.3222 25.5363C50.0812 26.3081 50 27.2081 49.8608 28.0209C49.7248 28.8152 49.5921 29.6106 49.4599 30.4059C49.2063 31.9317 48.9118 33.4658 48.7471 35.0135C48.6973 34.987 48.6474 34.9605 48.5976 34.934C48.4973 34.8808 48.4362 34.984 48.4343 35.094C47.4989 35.1353 46.6039 35.0607 45.6752 34.769C44.6923 34.4603 43.7386 34.0112 42.793 33.5505C41.2623 32.8047 39.7591 31.8886 38.6753 30.2695C38.9006 28.6641 38.9947 27.0273 38.9313 25.4109C39.6123 25.2069 40.3063 25.053 41.0213 24.9653C42.0835 24.8351 43.1534 24.8273 44.2168 24.9381C45.3542 25.0567 46.4337 25.3883 47.5432 25.7031C47.6895 25.7447 47.7769 25.584 47.7606 25.4404C47.9598 24.9177 48.1317 24.3737 48.2879 23.8213C48.9348 24.4219 49.6555 24.9948 50.406 25.4208C50.3699 25.4444 50.3388 25.483 50.3222 25.5363Z" fill="#F5F5F5"/>
<path d="M47.5374 25.2148C45.4682 24.3328 43.0896 24.2184 40.9441 24.5008C38.7856 24.7851 36.5005 25.499 34.6201 26.9472C34.6184 26.9485 34.6171 26.9502 34.6155 26.9515C34.4654 25.2503 34.3282 23.624 34.4649 21.9005C34.5848 20.3892 34.7793 18.556 35.4546 17.254C35.6413 17.3997 35.8295 17.5425 36.0205 17.6786C37.0631 18.422 38.2564 19.1847 39.432 19.4839C39.5141 19.5048 39.5738 19.4586 39.6038 19.3905C39.798 19.2853 39.9813 19.1505 40.1566 18.9955C40.1995 19.0916 40.293 19.1535 40.3938 19.0897C42.1792 17.9618 43.9554 16.9322 45.876 16.2425C46.0694 16.1729 46.2637 16.1065 46.4586 16.042C46.9549 16.2639 47.4849 16.2865 47.9825 16.554C48.4448 16.8025 48.8564 17.1539 49.272 17.5077C49.1039 18.1087 49.0408 18.7884 48.9213 19.4062C48.7898 20.0861 48.6481 20.7632 48.4953 21.4357C48.2063 22.7082 47.8355 23.9472 47.5374 25.2148Z" fill="#F5F5F5"/>
<path d="M29.8272 38.7809C30.0663 39.3175 30.2039 39.8948 30.2888 40.4999C29.333 41.6601 28.3911 42.8405 27.4497 44.0203C26.6446 45.0293 25.8737 46.2511 24.85 46.8951C24.5993 46.0751 23.9807 45.2977 23.5023 44.7005C22.9316 43.9882 22.2896 43.3687 21.6013 42.8601C20.2724 41.8783 18.7136 41.2356 17.1743 41.335C17.1966 41.0784 17.2211 40.822 17.248 40.5658C17.4603 38.5496 17.8696 36.6532 18.4578 34.7736C18.8177 34.6537 19.1815 34.5534 19.5485 34.4777C20.3187 34.3187 21.0704 34.327 21.846 34.3273C22.2517 35.069 22.6292 35.8367 22.976 36.6269C23.2149 37.1713 23.4393 37.7265 23.6482 38.2912C23.8671 38.8829 24.0116 39.6439 24.3185 40.1598C24.37 40.2464 24.4757 40.2736 24.5462 40.229C24.5616 40.2287 24.5777 40.2264 24.5953 40.2192C25.3894 39.8921 26.1667 39.4917 26.9269 39.0507C27.6263 38.6449 28.5 38.2458 29.0928 37.5987C29.3441 37.9874 29.6254 38.3281 29.8272 38.7809Z" fill="#F5F5F5"/>
<path d="M30.5832 40.8112C30.6897 40.6779 30.6334 40.5003 30.5333 40.4291C30.485 39.6368 30.2604 38.683 29.8626 37.968C30.2397 38.1733 30.6165 38.3793 30.9898 38.5943C32.0744 39.219 33.1198 40.0113 34.2195 40.5809C34.2443 40.5937 34.2674 40.5985 34.2888 40.5972C34.3161 40.6205 34.3497 40.6308 34.3866 40.6175C35.2885 40.2891 35.8634 39.2649 36.3309 38.2767C36.476 37.9699 36.6151 37.6584 36.7484 37.3428C37.036 38.6415 37.2022 39.9559 37.1737 41.3147C37.1591 42.009 37.1007 42.7016 36.9924 43.382C36.8894 44.028 36.6546 44.6659 36.6016 45.3165C36.5862 45.5055 36.7488 45.5534 36.8492 45.477C37.5943 45.6782 38.3481 45.8402 39.1055 45.9825C39.0895 45.9968 39.0751 46.0149 39.0642 46.0386C38.842 46.5219 38.7639 47.1346 38.6432 47.6715C38.5161 48.2371 38.3853 48.8025 38.2706 49.3725C38.2393 49.3352 38.1978 49.3136 38.1465 49.3218C36.2558 49.6219 34.3528 49.1991 32.6415 48.114C30.9119 47.0173 29.6093 45.3731 28.5122 43.3593C29.2065 42.5151 29.8987 41.668 30.5832 40.8112Z" fill="#F5F5F5"/>
<path d="M57.316 15.0654C58.3528 16.2252 59.7964 16.6841 61.1472 16.692C61.8821 16.6963 62.6219 16.5523 63.3223 16.2634C63.8377 16.051 64.4889 15.7517 64.9528 15.2893C64.9094 16.1319 64.9518 16.9982 64.9584 17.8395C64.966 18.8072 64.9801 19.7751 64.9977 20.7426C65.0147 21.6716 65.0354 22.6004 65.065 23.5289C65.0873 24.2277 65.0097 25.1477 65.1954 25.8332C65.1653 25.8188 65.1313 25.8131 65.0933 25.8219C63.2833 26.2408 61.4397 26.0456 59.7046 25.2526C57.9562 24.4535 56.4949 23.0665 55.2109 21.3605C55.6302 20.5676 55.9982 19.7363 56.3081 18.891C56.7554 17.6717 57.0964 16.3858 57.316 15.0654Z" fill="#F5F5F5"/>
<path d="M54.0375 9.4414C54.5657 9.56875 55.0943 9.69308 55.6227 9.81871C56.1575 9.94592 56.7077 10.1421 57.2512 10.171C57.2174 11.5905 57.2553 12.9813 57.0544 14.3966C56.8419 15.8948 56.4745 17.3557 55.9651 18.7284C54.9178 21.5501 53.334 23.7632 51.372 25.5496C50.3821 24.8197 49.3754 24.1667 48.4126 23.3683C48.5719 22.769 48.7157 22.1628 48.8545 21.5638C49.0101 20.892 49.1529 20.2158 49.282 19.5347C49.4107 18.8559 49.6011 18.1198 49.6063 17.4179C49.6074 17.2681 49.5121 17.2112 49.4271 17.239C49.0544 16.7451 48.5885 16.3882 48.0977 16.1243C47.865 15.9991 47.5998 15.8663 47.3281 15.7736C47.7798 15.6451 48.2342 15.5326 48.6901 15.4409C49.8203 15.2135 50.8377 15.4167 51.9565 15.6234C52.0742 15.6451 52.1284 15.4661 52.0441 15.3862C52.063 15.3573 52.0743 15.3196 52.0726 15.2748C52.0411 14.4382 51.7561 13.5653 51.5875 12.7575C51.4088 11.901 51.2332 11.0435 51.0609 10.1848C50.9533 9.64847 50.8508 9.10912 50.7481 8.56934C51.8268 8.94795 52.9395 9.17661 54.0375 9.4414Z" fill="#F5F5F5"/>
<path d="M43.123 7.4616C43.7786 6.91693 44.477 6.45614 45.2039 6.09437C46.6901 5.35455 48.1784 5.1374 49.7542 5.08301C49.9729 6.84728 50.3541 8.58665 50.7027 10.3132C50.8759 11.1716 51.0524 12.0288 51.2321 12.8849C51.3929 13.6506 51.4964 14.5427 51.772 15.2591C50.8572 14.8784 49.9551 14.7478 48.9854 14.902C47.9557 15.0659 46.9334 15.3635 45.9331 15.7155C44.2009 16.3248 42.4399 17.1363 40.8433 18.2442C41.3445 17.5955 41.7822 16.8291 42.2159 16.1874C43.091 14.8925 43.9437 13.5655 44.6073 12.0683C44.6904 11.8809 44.5432 11.7076 44.4179 11.7392C44.4021 11.691 44.3726 11.6487 44.3273 11.6242C43.2535 11.0455 42.2474 10.3388 41.3256 9.47454C41.7227 8.59758 42.4781 7.99736 43.123 7.4616Z" fill="#F5F5F5"/>
<path d="M30.8161 11.1752C30.1402 9.99385 29.63 8.71511 29.0679 7.44847C29.3861 7.18944 29.6455 6.80176 29.9248 6.4774C30.2025 6.15505 30.4849 5.83933 30.7718 5.53079C31.4362 4.81602 32.1247 4.13852 32.8339 3.50045C33.4879 2.91217 34.1609 2.36346 34.847 1.84066C35.3846 1.43096 35.8922 1.03076 36.2322 0.352539C37.0668 5.56289 40.3321 10.3113 44.2333 12.0102C43.6057 13.3742 42.8224 14.5879 42.0196 15.784C41.2736 16.8955 40.5152 18.3236 39.5138 19.0906C38.3834 18.5234 37.2651 18.0562 36.196 17.291C35.1439 16.5379 34.1547 15.6362 33.2521 14.6076C32.3492 13.5788 31.5324 12.427 30.8161 11.1752Z" fill="#F5F5F5"/>
<path d="M21.297 19.9717C21.1107 19.5766 20.9273 19.1792 20.7476 18.7789C20.5859 18.4187 20.4491 18.0129 20.2261 17.7101C22.0015 16.2434 23.7873 14.9738 25.8398 14.2712C27.8729 13.5753 29.9588 13.4353 32.042 13.754C32.3659 14.1839 32.7031 14.5967 33.0528 14.9907C33.7496 15.7762 34.4953 16.4897 35.2807 17.1198C34.4895 18.2397 34.2823 20.0316 34.1352 21.466C34.1135 21.6776 34.0942 21.8924 34.077 22.1091C32.5029 21.0844 30.4646 21.5719 28.9403 22.4992C28.1328 22.9904 27.3926 23.6505 26.7143 24.3982C26.3707 24.777 26.0423 25.1793 25.7287 25.5997C25.4652 25.9528 25.1517 26.3274 24.9364 26.7482C24.7287 26.4939 24.3909 25.8151 24.323 25.6981C24.1251 25.3568 23.9271 25.0154 23.7327 24.6708C23.2948 23.8946 22.8658 23.11 22.4522 22.3116C22.0538 21.5427 21.6697 20.7619 21.297 19.9717Z" fill="#F5F5F5"/>
<path d="M22.2296 22.7578C22.38 23.0446 22.5316 23.3303 22.6856 23.6138C23.169 24.5034 23.6708 25.378 24.2009 26.222C24.2767 26.3426 24.5662 26.8941 24.8129 27.0729C24.8155 27.2176 24.9306 27.3623 25.0409 27.2557C25.3305 26.9754 25.5507 26.5796 25.7994 26.2402C26.0931 25.8392 26.3959 25.4497 26.7133 25.0804C26.818 24.9587 26.9248 24.8398 27.0328 24.7228C27.5473 25.6763 28.0678 26.6044 28.4315 27.6805C28.633 28.277 28.794 28.8976 28.913 29.5304C28.9715 29.8415 29.0198 30.1561 29.0568 30.4727C29.0765 30.6409 29.0918 30.8101 29.105 30.9794C29.1119 31.0752 29.1183 31.1709 29.1244 31.2667C29.1233 31.2794 29.1235 31.2909 29.1238 31.3024C29.0969 31.316 29.0731 31.3408 29.0577 31.3809C29.0511 31.398 29.0445 31.4151 29.0379 31.4322C29.0142 31.4937 29.0063 31.5723 29.0379 31.633C29.0748 31.7038 29.1035 31.7468 29.149 31.7744C29.0611 32.1605 28.962 32.5423 28.8518 32.918C28.5127 34.0747 28.0307 35.1093 27.5945 36.2021C27.5512 36.3104 27.5737 36.4079 27.6236 36.4689C27.5637 36.5082 27.539 36.6305 27.6135 36.6781C27.972 36.9079 28.3365 37.1219 28.7034 37.3296C28.4702 37.465 28.2489 37.643 28.0223 37.7929C27.6454 38.0422 27.2645 38.2812 26.8813 38.5135C26.1248 38.9721 25.3557 39.3894 24.5855 39.8069C24.5007 39.311 24.28 38.8118 24.121 38.3666C23.8978 37.7413 23.6562 37.127 23.3969 36.5256C22.8781 35.3221 22.2879 34.1723 21.6371 33.0822C20.454 31.1004 19.0729 29.3106 17.4766 27.8942C19.2357 26.5996 21.0354 24.9023 22.2296 22.7578Z" fill="#F5F5F5"/>
<path d="M8.74268 31.8557C8.74823 31.8475 8.75433 31.8403 8.75866 31.8299C9.03658 31.1509 9.17627 30.3725 9.42954 29.6734C9.68491 28.9685 9.98571 28.2915 10.3255 27.6492C11.0119 26.3519 11.867 25.1969 12.8301 24.2403C13.7714 23.3052 14.8246 22.5531 15.9399 22.0299C16.5052 21.7647 17.0867 21.5628 17.6773 21.4179C18.1202 21.3092 19.2176 20.9007 19.5461 21.451C19.5668 21.4857 19.5996 21.4825 19.6243 21.4615C19.6327 21.4832 19.6435 21.5036 19.6576 21.5208C19.648 22.7176 19.6941 23.9578 19.8743 25.1284C19.8565 25.1476 19.839 25.1676 19.821 25.1866C19.0047 26.0528 18.1277 26.8179 17.2098 27.4914C17.1698 27.5209 17.1437 27.5594 17.1285 27.6019C17.012 27.5486 16.8863 27.7711 16.9955 27.8835C18.5777 29.5111 20.0592 31.3054 21.3014 33.3759C21.3836 33.513 21.4647 33.6513 21.5449 33.7905C20.1229 33.6466 18.6092 34.1046 17.2852 34.6944C15.8472 35.3349 14.4214 36.2172 13.1482 37.3022C12.8729 36.804 12.5029 36.3713 12.1778 35.9332C11.8052 35.4313 11.4259 34.9381 11.04 34.4535C10.3135 33.5408 9.56267 32.6293 8.74268 31.8557Z" fill="#F5F5F5"/>
<path d="M8.28678 42.7256C8.39126 41.6603 8.55926 40.6046 8.7841 39.5713C8.99973 38.5803 9.25611 37.5885 9.59321 36.655C9.86969 35.8895 10.224 35.265 10.6317 34.6309C10.6775 34.6889 10.7235 34.7466 10.7691 34.8047C11.1313 35.2681 11.489 35.7376 11.8422 36.2127C12.2082 36.7048 12.5496 37.2901 12.9626 37.7133C13.0522 37.8053 13.1842 37.7614 13.2353 37.6575C14.6058 36.7737 15.9341 35.8271 17.3908 35.1873C17.5952 35.0975 17.8013 35.0135 18.0085 34.9348C16.7654 38.4734 16.6427 42.6827 16.632 46.5108C15.9902 46.3411 15.2875 46.3575 14.6412 46.289C13.9017 46.2107 13.1623 46.1323 12.4228 46.054C10.9794 45.901 9.53203 45.7472 8.08447 45.6737C8.09102 45.6587 8.09746 45.6434 8.10057 45.6249C8.25713 44.6951 8.19362 43.6754 8.28678 42.7256Z" fill="#F5F5F5"/>
<path d="M10.1201 53.0405C9.57693 54.2949 9.03386 55.5493 8.49067 56.8037C7.17902 55.3732 5.86881 53.9405 4.55405 52.5147C3.29559 51.1499 2.04867 49.7432 0.73291 48.4689C0.761113 48.4508 0.787428 48.4225 0.808525 48.3797C1.724 46.5221 2.81292 44.8582 4.15799 43.4979C5.38815 42.2537 6.75143 41.407 8.16812 40.6113C8.06386 41.2149 7.97847 41.8237 7.91296 42.4368C7.80637 43.4346 7.6356 44.6281 7.80237 45.6229C7.80659 45.648 7.81447 45.6693 7.82469 45.6877C7.75163 45.7573 7.78094 45.9453 7.89686 45.965C9.02919 46.1574 10.1681 46.2984 11.3067 46.4272C11.1778 47.7327 11.112 49.0591 11.0951 50.3745C11.0943 50.4377 11.1123 50.4842 11.1397 50.5148C11.1086 50.6436 11.1428 50.8054 11.262 50.8293C11.2876 50.8344 11.3136 50.8389 11.3393 50.8439C10.759 51.3305 10.4484 52.2823 10.1201 53.0405Z" fill="#F5F5F5"/>
<path d="M16.1279 50.311C14.5548 50.7164 12.9719 50.5879 11.3906 50.3648C11.4594 49.0612 11.5561 47.7666 11.6657 46.4683C11.8885 46.4931 12.1112 46.5177 12.334 46.5421C13.0438 46.6201 13.7537 46.698 14.4636 46.776C15.2114 46.8582 16.0235 47.0701 16.7707 46.9891C16.9239 46.9726 16.989 46.7203 16.8843 46.6065C16.963 44.9429 17.0172 43.2797 17.1517 41.623C18.5164 41.8277 19.8294 42.2367 21.0474 43.0503C20.243 44.4485 19.9106 46.4834 19.828 48.193C18.7255 49.2555 17.4793 49.9627 16.1279 50.311Z" fill="#F5F5F5"/>
<path d="M28.9594 49.9269C28.8033 50.5884 28.6907 51.2643 28.5993 51.9454C28.5169 52.5586 28.359 53.2816 28.4021 53.9087C28.3992 53.9077 28.3972 53.9053 28.3941 53.9047C27.1215 53.6215 25.7565 53.7216 24.4678 53.667C23.8187 53.6393 23.1696 53.6084 22.5206 53.574C21.9717 53.5449 21.3803 53.434 20.8226 53.4787C20.356 51.8372 20.108 50.1556 20.1783 48.3916C20.215 47.4684 20.3375 46.5526 20.5401 45.6663C20.7358 44.8107 21.059 44.0577 21.3228 43.2451C21.3494 43.2644 21.3761 43.2827 21.4027 43.3024C22.0411 43.779 22.635 44.3507 23.1692 45.0085C23.4337 45.3342 23.6835 45.68 23.9157 46.0446C24.1449 46.4047 24.3245 46.838 24.5806 47.1645C24.583 47.1677 24.5858 47.1698 24.5884 47.1727C24.6025 47.2124 24.634 47.2408 24.6804 47.2277C24.6851 47.2264 24.6896 47.2244 24.6943 47.2229C24.7295 47.2234 24.7647 47.2111 24.7948 47.1885C25.8478 46.8204 26.6695 45.5925 27.4364 44.6652C27.7386 44.2998 28.0408 43.934 28.3425 43.5678C28.8082 44.7666 29.5017 45.8332 30.3075 46.7293C29.6433 47.6015 29.2327 48.7685 28.9594 49.9269Z" fill="#F5F5F5"/>
<path d="M38.3449 53.6114C37.6497 54.6775 36.9936 55.8042 36.4258 56.992C36.3178 56.6 36.1022 56.2224 35.9336 55.8899C35.7273 55.4832 35.5021 55.0923 35.2619 54.718C34.7343 53.8959 34.1251 53.1688 33.4591 52.5383C32.2388 51.3833 30.7878 50.5615 29.2837 50.3002C29.2878 50.2807 29.2914 50.261 29.2955 50.2416C29.5544 49.0342 29.9596 47.9642 30.5083 46.9472C31.1301 47.6021 31.8102 48.1587 32.5016 48.5962C34.2628 49.7104 36.2536 50.1649 38.1978 49.8213C38.2553 49.811 38.2934 49.7682 38.315 49.7117C38.3905 49.764 38.5008 49.7389 38.5386 49.6005C38.7012 49.0056 38.8439 48.4006 38.9908 47.7988C39.1154 47.2884 39.2962 46.7554 39.3333 46.2188C39.309 47.5044 39.1618 48.7627 38.9043 50.0056C38.7141 50.061 38.7356 50.4736 38.9595 50.496C39.4888 50.5491 40.0181 50.6001 40.5474 50.6514C40.1736 51.0141 39.8471 51.4986 39.5263 51.9241C39.117 52.4675 38.7231 53.0315 38.3449 53.6114Z" fill="#F5F5F5"/>
<path d="M50.8937 55.4679C46.8821 57.3724 42.4805 56.5662 38.9443 53.4813C39.2248 53.0741 39.5105 52.6729 39.8042 52.2813C40.1804 51.78 40.6266 51.3231 40.9532 50.7672C40.9677 50.7424 40.9755 50.7167 40.9787 50.6909C41.8487 50.7762 42.7184 50.8653 43.5874 50.9724C45.1172 51.1609 46.6629 51.5038 48.2 51.5454C48.3036 51.5481 48.3426 51.3872 48.2919 51.2983C48.4584 50.8118 48.5288 50.228 48.5616 49.6502C48.8606 49.3991 49.1747 49.1882 49.4992 49.0088C49.4996 49.0137 49.4994 49.0183 49.5001 49.0233C49.787 51.1822 50.2336 53.4408 50.8937 55.4679Z" fill="#F5F5F5"/>
<path d="M60.5105 53.5971C60.015 55.0842 59.5151 56.5732 59.0597 58.0823C57.1874 54.6286 53.7696 52.1558 50.4711 52.3316C50.464 52.2974 50.4561 52.2636 50.4491 52.2293C50.2257 51.1251 50.0493 50.0097 49.8608 48.8953C49.857 48.872 49.8507 48.852 49.8438 48.8336C51.082 48.2462 52.4516 48.0826 53.7537 48.0201C54.6987 47.9748 55.6464 48.0141 56.587 48.1417C57.4584 48.26 58.5703 48.2912 59.2453 49.0839C59.2534 49.0934 59.262 49.1011 59.271 49.108C59.2732 49.1401 59.2748 49.1722 59.2771 49.2043C59.2925 49.4163 59.5328 49.4245 59.5366 49.2043C59.5484 48.5209 59.5313 47.8353 59.5213 47.1521C59.5206 47.107 59.5207 47.0607 59.5207 47.0146C60.2666 47.8543 61.1516 48.4809 62.0853 48.9315C61.7725 49.6164 61.5693 50.4357 61.3274 51.1582C61.0551 51.9712 60.7817 52.7835 60.5105 53.5971Z" fill="#F5F5F5"/>
<path d="M70.5064 52.5553C69.9878 52.6651 69.4718 52.7978 68.9616 52.9612C67.9792 53.2757 67.0146 53.7057 66.1115 54.3012C64.6014 55.2967 63.2074 56.8048 62.4134 58.7743C62.3856 58.3216 62.2336 57.883 62.1241 57.4533C62.0021 56.9744 61.8775 56.4965 61.7526 56.0187C61.5142 55.1063 61.2777 54.1882 61.0073 53.2903C61.2323 52.6244 61.457 51.9586 61.6819 51.2927C61.9232 50.5778 62.2436 49.8373 62.4129 49.0811C62.8906 49.2886 63.378 49.4521 63.8636 49.576C64.8012 49.8153 65.7582 49.9219 66.7129 49.938C67.2077 49.9464 67.7026 49.9315 68.1967 49.8981C68.6925 49.8646 69.2418 49.883 69.7193 49.7009C69.8919 49.635 69.8517 49.3446 69.695 49.304C69.7411 47.8403 69.7422 46.3749 69.8109 44.9122C69.8836 43.364 70.0291 41.8324 70.1642 40.2925C70.1695 40.2331 70.155 40.1846 70.1301 40.1472C70.1411 40.1272 70.1519 40.1069 70.1628 40.0869C70.6126 39.2648 71.0722 38.451 71.5548 37.6607C71.9976 36.9355 72.4547 36.2242 72.9334 35.5384C73.6427 35.0309 74.6709 36.083 75.2548 36.5566C75.9723 37.1384 76.6525 37.7989 77.285 38.5278C77.8762 39.2092 78.4256 39.9506 78.928 40.7428C79.1911 41.158 79.4411 41.5867 79.6765 42.0289C79.8613 42.3763 80.018 42.7573 80.2232 43.0857C79.7376 43.6521 79.1265 44.0099 78.5488 44.3911C77.914 44.81 77.292 45.2616 76.6812 45.7366C76.0705 46.2115 75.4725 46.7143 74.8863 47.2387C74.3641 47.7059 73.786 48.1717 73.3106 48.7327C73.1062 47.7915 72.7008 46.932 72.1764 46.2309C71.6723 45.557 70.8012 44.6087 70.039 44.5959C69.8891 44.5934 69.8567 44.8403 69.967 44.9399C70.1388 45.0949 70.3393 45.1977 70.5388 45.3041C70.5365 45.3243 70.536 45.3453 70.5384 45.3675C70.6046 45.9654 70.8302 46.5626 70.9743 47.1376C71.1221 47.7276 71.2595 48.322 71.3857 48.9203C71.6237 50.0482 71.7914 51.2029 72.0312 52.3291C71.5385 52.2795 70.9931 52.4522 70.5064 52.5553Z" fill="#F5F5F5"/>
<path d="M80.3883 52.2725C78.9547 52.8235 77.4639 52.9628 75.988 52.6235C75.288 52.4625 74.6025 52.2022 73.9435 51.8571C73.271 51.5048 72.6744 51.0191 72.0509 50.5521C71.9554 49.9611 71.8402 49.3752 71.7228 48.8013C71.6002 48.2018 71.4668 47.606 71.3224 47.0147C71.207 46.5418 71.1065 46.0107 70.9385 45.549C70.9424 45.5519 70.9466 45.5545 70.9505 45.5575C71.3096 45.8318 71.6373 46.1672 71.9289 46.553C72.4631 47.2602 72.8386 48.0996 73.1025 49.0177C73.0655 49.137 73.121 49.2741 73.207 49.3203C73.2548 49.3684 73.3243 49.3544 73.363 49.2985C74.011 48.7964 74.5968 48.1179 75.2222 47.564C75.8555 47.0032 76.5036 46.4702 77.1632 45.9625C77.9342 45.3689 78.8579 44.8839 79.6057 44.168C79.6055 44.1694 79.6051 44.1706 79.6048 44.172C79.5885 44.2654 79.6153 44.371 79.6826 44.4194C79.694 44.4276 79.7054 44.4358 79.7169 44.4441C79.7334 44.4561 79.7503 44.4634 79.7672 44.4671C79.8235 44.7354 79.7983 45.1926 79.8134 45.3868C79.8406 45.736 79.8677 46.0852 79.8949 46.4343C79.9494 47.1328 80.0063 47.8311 80.0626 48.5293C80.1633 49.7779 80.2601 51.0277 80.3923 52.2717C80.391 52.2719 80.3897 52.272 80.3883 52.2725Z" fill="#F5F5F5"/>
</svg>
