<svg width="54" height="54" viewBox="0 0 54 54" fill="none" xmlns="http://www.w3.org/2000/svg">
<g filter="url(#filter0_d_2332_14834)">
<circle cx="27" cy="23" r="23" fill="white"/>
<path d="M37.7841 16.0684H17.5059C17.3082 16.0684 17.1124 16.1073 16.9296 16.183C16.7469 16.2587 16.581 16.3696 16.4411 16.5094C16.3013 16.6493 16.1903 16.8153 16.1146 16.998C16.039 17.1807 16 17.3765 16 17.5743V33.1697C16 33.3675 16.039 33.5633 16.1146 33.746C16.1903 33.9287 16.3013 34.0947 16.4411 34.2345C16.581 34.3744 16.7469 34.4853 16.9296 34.5609C17.1124 34.6366 17.3082 34.6756 17.5059 34.6756H37.7841C38.1835 34.6756 38.5665 34.5169 38.849 34.2345C39.1314 33.9521 39.29 33.5691 39.29 33.1697V17.5743C39.29 17.1749 39.1314 16.7918 38.849 16.5094C38.5665 16.227 38.1835 16.0684 37.7841 16.0684ZM29.9658 29.8897H25.3243L26.1494 25.3513C25.7802 25.0992 25.4782 24.7607 25.2696 24.3652C25.0611 23.9697 24.9524 23.5293 24.9529 23.0822C24.9529 22.3654 25.2377 21.6781 25.7444 21.1713C26.2512 20.6645 26.9386 20.3798 27.6554 20.3798C28.3721 20.3798 29.0594 20.6645 29.5662 21.1713C30.073 21.6781 30.3577 22.3654 30.3577 23.0822C30.3556 23.5333 30.2413 23.9769 30.0253 24.373C29.8092 24.7691 29.4981 25.1053 29.12 25.3513L29.9658 29.8897Z" fill="#ED5E3D"/>
<path d="M36.6907 25.3716H34.2772V14.6239C34.2772 12.8622 33.5774 11.1727 32.3317 9.92696C31.0859 8.68125 29.3964 7.98142 27.6347 7.98142C25.873 7.98142 24.1834 8.68125 22.9377 9.92696C21.692 11.1727 20.9922 12.8622 20.9922 14.6239V25.3716H18.5992V14.6239C18.7103 12.2996 19.7118 10.1071 21.3961 8.50143C23.0803 6.89571 25.318 6 27.645 6C29.972 6 32.2097 6.89571 33.894 8.50143C35.5782 10.1071 36.5797 12.2996 36.6907 14.6239V25.3716Z" fill="#ED5E3D"/>
</g>
<defs>
<filter id="filter0_d_2332_14834" x="0" y="0" width="54" height="54" filterUnits="userSpaceOnUse" color-interpolation-filters="sRGB">
<feFlood flood-opacity="0" result="BackgroundImageFix"/>
<feColorMatrix in="SourceAlpha" type="matrix" values="0 0 0 0 0 0 0 0 0 0 0 0 0 0 0 0 0 0 127 0" result="hardAlpha"/>
<feOffset dy="4"/>
<feGaussianBlur stdDeviation="2"/>
<feComposite in2="hardAlpha" operator="out"/>
<feColorMatrix type="matrix" values="0 0 0 0 0 0 0 0 0 0 0 0 0 0 0 0 0 0 0.25 0"/>
<feBlend mode="normal" in2="BackgroundImageFix" result="effect1_dropShadow_2332_14834"/>
<feBlend mode="normal" in="SourceGraphic" in2="effect1_dropShadow_2332_14834" result="shape"/>
</filter>
</defs>
</svg>
