<svg width="22" height="22" viewBox="0 0 22 22" fill="none" xmlns="http://www.w3.org/2000/svg">
<g id="Capa_1" clip-path="url(#clip0_2769_8150)">
<g id="Group">
<path id="Vector" d="M7.33493 19.25H3.12653C2.91968 19.2495 2.7521 19.0819 2.75162 18.8751V3.1249C2.75214 2.91805 2.91968 2.75047 3.12653 2.75H7.33493C8.09432 2.75 8.70993 2.13439 8.70993 1.375C8.70993 0.615613 8.09432 0 7.33493 0H3.12653C1.4015 0.00201953 0.00364459 1.39992 0.00162506 3.1249V18.8751C0.00364459 20.6001 1.4015 21.998 3.12653 22H7.33493C8.09432 22 8.70993 21.3844 8.70993 20.625C8.70993 19.8656 8.09432 19.25 7.33493 19.25Z" fill="white"/>
<path id="Vector_2" d="M20.7932 8.08316L17.2347 4.52741C16.6975 3.99051 15.8268 3.99073 15.29 4.52788C14.7531 5.06503 14.7533 5.93571 15.2904 6.4726L18.4181 9.59935L5.95968 9.62501C5.20029 9.62501 4.58468 10.2406 4.58468 11C4.58468 11.7594 5.20029 12.375 5.95968 12.375L18.4685 12.3521L15.2904 15.5302C14.773 16.086 14.8042 16.9561 15.36 17.4735C15.8883 17.9653 16.7069 17.9649 17.2347 17.4726L20.7904 13.9169C22.4014 12.306 22.4014 9.69414 20.7905 8.08325L20.7904 8.0832L20.7932 8.08316Z" fill="white"/>
</g>
</g>
<defs>
<clipPath id="clip0_2769_8150">
<rect width="22" height="22" fill="white"/>
</clipPath>
</defs>
</svg>
