<svg width="110" height="43" viewBox="0 0 110 43" fill="none" xmlns="http://www.w3.org/2000/svg">
<path d="M22.0869 5.80779C50.8479 4.89789 79.6565 3.64898 108.354 5.76376C108.354 5.76376 109.126 7.67382 109.512 7.70244C109.174 11.4147 108.981 15.5768 108.643 19.2883C107.108 19.4526 105.94 19.6691 104.405 19.8335C105.686 20.0478 106.966 20.262 108.247 20.4763C108.327 21.7832 108.405 23.1231 108.019 24.3742C107.633 25.6253 106.678 26.7869 105.392 27.032C106.111 27.2448 106.831 27.4576 107.55 27.6704C107.571 30.6782 107.591 33.6853 107.611 36.6931C104.953 36.8545 102.295 37.0159 99.6377 37.1781C101.099 37.5494 102.573 36.2814 104.035 36.6535C104.035 36.6535 104.803 38.4909 105.192 38.5899C104.958 39.888 104.723 41.1854 104.488 42.4834C71.8593 42.1987 39.1769 42.6786 6.54743 42.3939C6.21649 41.9052 5.38438 40.456 5.38438 40.456C5.4262 37.5237 6.17246 34.954 5.14588 32.2162C7.18582 32.1458 9.22577 32.0753 11.265 32.0049C9.51048 31.5463 7.75598 31.0877 6.00149 30.629C5.3264 29.8329 4.83843 28.6911 4.83843 28.6911C4.83843 28.6911 10.2501 23.2684 13.1912 23.068C10.0997 22.6696 7.00826 22.2711 3.91679 21.8734C3.79572 21.4141 2.75813 19.9326 2.75813 19.9326C2.10799 17.4656 2.25329 15.5621 1.60315 13.0951C2.30098 12.9006 2.99882 12.7062 3.69665 12.5117C3.82213 11.2511 3.94834 9.99114 4.07382 8.73048C10.2766 7.77508 15.8145 6.00665 22.0869 5.80779Z" fill="#7A3817"/>
<path d="M107.486 17.3493C105.951 17.5144 104.782 17.7294 103.246 17.8945C104.523 18.1095 105.807 18.3253 107.084 18.5403C107.17 19.8457 107.242 21.1871 106.862 22.4352C106.474 23.6908 105.52 24.8531 104.229 25.0967C104.953 25.3051 105.671 25.5201 106.389 25.7351C106.396 26.9979 106.41 28.2674 106.417 29.5303V29.9537C106.424 30.843 106.432 31.7258 106.432 32.6151L106.453 34.7526C103.792 34.9178 101.138 35.0755 98.4761 35.2406C100.327 35.7139 102.177 36.1806 104.035 36.6539C103.798 37.9527 103.562 39.2508 103.325 40.5423C101.854 40.5276 100.384 40.521 98.9134 40.5137H98.8342C98.3821 40.5063 97.9162 40.5063 97.4642 40.5063H97.3783C96.18 40.4916 94.9751 40.485 93.7769 40.485H93.6763C93.217 40.4777 92.7584 40.4777 92.299 40.4777H92.1985C90.6773 40.4704 89.1422 40.463 87.6218 40.463H87.4354C86.9981 40.4557 86.56 40.4557 86.1227 40.463H85.9502C79.8099 40.4483 73.6622 40.4483 67.5211 40.463H66.0219C61.5098 40.4777 57.0044 40.4916 52.4923 40.5063H51.9757C51.3806 40.5063 50.7774 40.5137 50.1823 40.5137H49.6224C45.6409 40.5283 41.6667 40.5349 37.6858 40.5423H35.6415C25.5482 40.5636 15.4696 40.5423 5.38361 40.4564C5.44818 39.6243 5.46946 38.7775 5.44818 37.9314C5.45552 37.7883 5.44819 37.6519 5.44085 37.508C5.42617 37.1566 5.40489 36.8124 5.36893 36.4609C5.35426 36.3244 5.34032 36.1887 5.32564 36.0522C5.21117 34.9045 5.01012 33.7708 4.7232 32.6591C4.69459 32.5227 4.65862 32.3935 4.62267 32.2578C4.52948 31.9276 4.43629 31.5981 4.32108 31.2752C4.28513 31.1461 4.24184 31.0169 4.19194 30.8878V30.8804C4.12737 30.6794 4.05544 30.4791 3.98353 30.278C6.02054 30.2061 8.06562 30.1415 10.1026 30.0703C8.35253 29.611 6.59437 29.1524 4.83694 28.693C4.75769 28.3628 4.67183 28.026 4.58598 27.6958L4.2345 26.2972C4.20588 26.1607 4.16992 26.0249 4.13396 25.8885C3.81109 24.561 3.47428 23.2343 3.14408 21.9069C6.08511 21.7059 9.09073 21.3331 12.0325 21.132C8.9403 20.7299 5.84883 20.3358 2.75664 19.9337C2.09696 17.43 1.43655 14.9263 0.769535 12.4226C0.740917 12.2935 0.704955 12.1644 0.668999 12.0352C0.633043 11.8701 0.589753 11.7123 0.539856 11.5546C0.511238 11.4254 0.475287 11.2889 0.439331 11.1598C1.1423 10.9661 1.83793 10.765 2.5343 10.5713C2.55558 10.3343 2.58493 10.098 2.60621 9.85363C2.70674 8.83513 2.80727 7.81664 2.9144 6.7908C7.25477 6.12379 11.2716 5.05465 15.4468 4.40891C17.2329 4.13668 19.0409 3.92828 20.9275 3.87104C21.3582 3.85637 21.7883 3.84242 22.219 3.83508C26.4082 3.70593 30.5974 3.61276 34.794 3.55552C35.8558 3.53424 36.9242 3.51956 37.9933 3.51956C51.1208 3.36913 64.2557 3.54084 77.3766 4.02881C78.2806 4.06476 79.1913 4.10072 80.0953 4.13668C84.4423 4.30912 88.79 4.51677 93.137 4.76773C93.804 4.80368 94.471 4.83964 95.1388 4.8822C97.3196 5.01135 99.5004 5.14784 101.681 5.29093C102.255 5.32688 102.822 5.37018 103.389 5.40541C105.046 5.51988 106.696 5.64241 108.353 5.76422C108.017 9.48014 107.823 13.6408 107.486 17.3493Z" fill="#A8592C"/>
<path d="M95.1402 5.30372C92.3356 8.05837 89.1789 10.4615 85.7572 12.434C78.9924 16.3289 71.2523 18.4026 63.447 18.4885C59.4515 18.5318 55.4413 18.0651 51.575 17.0825C47.6507 16.0927 43.9135 14.5143 40.2482 12.8214C32.6799 9.32049 25.2913 5.55466 16.8263 4.90892C16.367 4.87297 15.9083 4.84435 15.449 4.82967C17.235 4.55743 19.0431 4.34906 20.9297 4.29182C21.3604 4.27715 21.7904 4.2632 22.2211 4.25586C24.4379 4.70787 26.6114 5.34628 28.7423 6.1351C32.5874 7.56233 36.26 9.37773 39.962 11.1139C43.6567 12.8354 47.3939 14.4783 51.3395 15.5401C55.3856 16.6305 59.5748 17.1251 63.764 17.0466C74.754 16.8455 85.2127 12.4912 93.1399 5.18851C93.8062 5.22519 94.4732 5.26116 95.1402 5.30372Z" fill="#F0CEBB"/>
<path d="M34.3802 19.5589C34.0074 22.0838 32.0416 23.999 29.8182 25.0535C24.4813 27.5931 18.1751 26.9907 12.4435 27.0193C9.79669 27.034 7.18512 27.2204 4.58823 27.6937L4.23675 26.2951C6.89087 25.8071 9.57361 25.606 12.2784 25.5848C17.6372 25.5488 23.3403 26.1013 28.4409 24.0996C30.6716 23.2241 32.9742 21.4095 33.0102 18.8053C33.0535 16.1438 30.7795 14.2 28.57 13.1595C26.26 12.0764 23.6558 11.4739 21.1595 10.986C18.6917 10.5053 16.1807 10.2331 13.663 10.1972C9.26542 10.1326 4.8612 10.8069 0.771782 12.4213C0.743164 12.2921 0.707214 12.163 0.671258 12.0338C0.635302 11.8687 0.592012 11.711 0.542114 11.5532C1.20913 11.3668 1.87614 11.1804 2.53655 10.9941C2.55783 10.757 2.58719 10.5208 2.60847 10.2764C6.91289 8.96365 11.4675 8.54026 15.9803 8.86313C18.7203 9.05685 21.4464 9.50151 24.1078 10.1832C26.6614 10.8363 29.3662 11.5965 31.4751 13.2461C33.3683 14.7312 34.7456 17.0911 34.3802 19.5589Z" fill="#F0CEBB"/>
<path d="M98.8349 40.5128C98.3829 40.5055 97.917 40.5054 97.465 40.5054H97.3791C96.4325 35.8429 93.8643 31.4952 90.2056 28.3318C84.3595 23.2819 76.425 21.352 68.8427 22.0909C64.6608 22.4923 60.5289 23.676 56.7051 25.3982C52.9745 27.0771 49.5168 29.2939 45.7364 30.8642C37.7879 34.164 29.2011 33.1022 20.8799 32.3061C15.5783 31.7968 9.95448 31.4666 4.72475 32.6576C4.69613 32.5211 4.66017 32.3919 4.62422 32.2562C4.53103 31.926 4.43784 31.5965 4.32263 31.2736C10.6428 29.8317 17.4575 30.5494 23.8708 31.1657C28.2824 31.5965 32.7446 31.9766 37.1708 31.5319C41.6689 31.0872 45.6931 29.4876 49.6673 27.3926C53.5123 25.3622 57.3002 23.3399 61.4894 22.0983C65.5854 20.8787 69.9038 20.2836 74.1796 20.5632C81.6114 21.0438 89.0286 24.2358 93.8709 30.0034C96.3885 33.009 98.1246 36.6677 98.8349 40.5128Z" fill="#F0CEBB"/>
<path d="M93.6771 40.4838C93.2178 40.4764 92.7592 40.4764 92.2998 40.4764H92.1993C90.6854 34.3001 86.3238 28.9126 80.0403 26.9255C76.5468 25.8212 72.7303 25.7558 69.2367 26.9255C65.4349 28.1884 62.4506 30.9716 59.6813 33.7615C57.3574 36.1074 55.0401 38.4247 52.4931 40.505H51.9765C51.3814 40.505 50.7782 40.5124 50.1831 40.5124C51.9405 39.1923 53.6194 37.7577 55.2118 36.23C58.0596 33.49 60.6492 30.4484 63.8779 28.1238C70.0402 23.6976 78.4546 23.5259 84.8679 27.5933C89.4373 30.491 92.5075 35.2687 93.6771 40.4838Z" fill="#F0CEBB"/>
<path d="M37.6866 40.9639H35.9505C34.9679 39.5146 33.504 38.389 31.8757 37.6354C29.2143 36.4158 26.18 36.1142 23.2962 35.9499C20.3479 35.7774 17.3782 35.8493 14.4438 36.1649C11.4022 36.4877 8.38192 37.0762 5.44089 37.9296C5.41961 37.4417 5.38365 36.961 5.32568 36.4731C5.81365 36.33 6.30162 36.2008 6.7962 36.0783C12.9945 34.5285 19.4937 34.0266 25.8491 34.7296C30.2981 35.211 35.5491 36.8612 37.6866 40.9639Z" fill="#F0CEBB"/>
<path d="M87.4362 40.4621C86.9989 40.4548 86.5608 40.4548 86.1234 40.4621H85.951C85.6355 39.6659 85.3126 38.8764 84.8679 38.1308C83.5192 35.8928 80.664 35.2903 78.2543 34.9748C75.5642 34.616 72.5652 34.817 70.2912 36.4453C68.9498 37.3993 67.8807 38.8558 67.5219 40.4628H66.0873C66.3889 38.7193 67.3355 37.1057 68.7054 35.8935C70.9508 33.8991 74.0064 33.2607 76.9408 33.4184C79.6955 33.5615 83.1032 34.1141 85.1402 36.1518C86.3238 37.334 86.7905 38.9556 87.4362 40.4621Z" fill="#F0CEBB"/>
<path d="M80.0976 4.55876C79.3088 5.04674 78.5053 5.48408 77.7304 5.87886C68.9352 10.355 58.7135 11.5966 49.1008 9.41574C44.0868 8.28204 39.3443 6.33088 34.797 3.97835C35.8588 3.95707 36.9272 3.94238 37.9963 3.94238C45.9448 7.68692 54.4956 9.81052 63.3408 8.77C67.982 8.2248 72.5513 6.86214 76.7266 4.78111C76.9416 4.67324 77.1566 4.5661 77.3796 4.4509C78.2822 4.48685 79.1936 4.52281 80.0976 4.55876Z" fill="#F0CEBB"/>
<path d="M106.432 32.6147C105.966 31.7679 105.427 30.9504 104.811 30.1902C102.774 27.6792 99.9834 26.4383 97.2573 24.846C94.7111 23.3608 92.1069 21.1947 91.8339 18.0386C91.547 14.7028 94.4953 12.8375 96.7195 10.9509C98.5635 9.37988 100.227 7.6298 101.684 5.71387C102.257 5.74982 102.824 5.79312 103.391 5.82834C101.698 8.16694 99.7251 10.3045 97.5017 12.1624C96.3541 13.1164 95.0552 13.9844 94.1373 15.1827C93.0329 16.6246 93.0395 18.3461 93.9003 19.9171C95.3495 22.5713 98.4197 23.8194 100.931 25.2327C103.112 26.4596 104.948 27.9947 106.419 29.9532C106.425 30.8426 106.432 31.7253 106.432 32.6147Z" fill="#F0CEBB"/>
<path d="M95.1402 4.88085C92.3356 7.6355 89.1789 10.0387 85.7572 12.0111C78.9924 15.9061 71.2523 17.9798 63.447 18.0656C59.4515 18.1089 55.4413 17.6422 51.575 16.6597C47.6507 15.6698 43.9135 14.0914 40.2482 12.3986C32.6799 8.89764 25.2913 5.13181 16.8263 4.48607C16.367 4.45011 15.9083 4.4215 15.449 4.40682C17.235 4.13458 19.0431 3.92619 20.9297 3.86895C21.3604 3.85427 21.7904 3.84035 22.2211 3.83301C24.4379 4.28502 26.6114 4.92343 28.7423 5.71225C32.5874 7.13948 36.26 8.95488 39.962 10.691C43.6567 12.4125 47.3939 14.0554 51.3395 15.1172C55.3856 16.2077 59.5748 16.7022 63.764 16.6237C74.754 16.4227 85.2127 12.0683 93.1399 4.76565C93.8062 4.80234 94.4732 4.83829 95.1402 4.88085Z" fill="#B8683B"/>
<path d="M34.3801 19.1358C34.0073 21.6607 32.0415 23.5759 29.8181 24.6304C24.4813 27.1701 18.1751 26.5676 12.4434 26.5962C9.76067 26.6109 7.1205 26.8046 4.48765 27.2852C4.37318 26.8193 4.25797 26.3526 4.13616 25.8866C6.82624 25.3921 9.5376 25.1837 12.2783 25.1624C17.6372 25.1264 23.3402 25.679 28.4408 23.6772C30.6715 22.8018 32.9742 20.9871 33.0101 18.3829C33.0534 15.7214 30.7794 13.7776 28.57 12.7371C26.26 11.654 23.6558 11.0516 21.1594 10.5636C18.6917 10.083 16.1806 9.81003 13.663 9.7748C9.22941 9.71023 4.78923 10.3992 0.671929 12.0341C0.600017 11.7399 0.52151 11.453 0.442261 11.1587C1.14523 10.965 1.84086 10.7639 2.53723 10.5702C2.55851 10.3332 2.58787 10.0969 2.60915 9.85258C6.91357 8.53982 11.4682 8.11643 15.981 8.4393C18.721 8.63302 21.447 9.07768 24.1085 9.75937C26.6621 10.4124 29.3668 11.1727 31.4758 12.8222C33.3682 14.3082 34.7455 16.668 34.3801 19.1358Z" fill="#B8683B"/>
<path d="M98.9135 40.5131C98.4328 40.5057 97.9449 40.5057 97.4642 40.5057C96.5888 35.6855 93.978 31.166 90.2048 27.9087C84.3587 22.8588 76.4242 20.9289 68.842 21.6678C64.6601 22.0692 60.5281 23.2528 56.7043 24.9751C52.9737 26.654 49.5161 28.8707 45.7356 30.441C37.7872 33.7409 29.2004 32.6791 20.8792 31.883C15.5423 31.3737 9.88184 31.0362 4.62349 32.2557C4.49434 31.7964 4.35785 31.3378 4.19275 30.8857V30.8784C10.5488 29.4005 17.4135 30.1182 23.8701 30.7419C28.2817 31.1726 32.7438 31.5528 37.1701 31.1081C41.6682 30.6634 45.6923 29.0637 49.6665 26.9687C53.5116 24.9383 57.2994 22.9153 61.4886 21.6744C65.5847 20.4549 69.903 19.8598 74.1788 20.1394C81.6107 20.62 89.0278 23.812 93.8701 29.5796C96.4817 32.6938 98.2538 36.5176 98.9135 40.5131Z" fill="#B8683B"/>
<path d="M93.7777 40.4847C93.2824 40.4774 92.7952 40.4774 92.2999 40.4774C90.8866 34.1213 86.4677 28.5335 80.0404 26.5031C76.5468 25.3987 72.7304 25.3341 69.2368 26.5031C65.435 27.7659 62.4507 30.5492 59.6814 33.3398C57.1989 35.8435 54.7319 38.3112 51.9773 40.506C51.1951 40.506 50.4062 40.5133 49.624 40.5133C51.5899 39.0714 53.4544 37.493 55.2126 35.8075C58.0604 33.0675 60.65 30.0252 63.8786 27.7013C70.041 23.2751 78.4554 23.1027 84.8687 27.1701C89.5591 30.1478 92.6726 35.1045 93.7777 40.4847Z" fill="#B8683B"/>
<path d="M37.6866 40.541H35.9505C34.9679 39.0918 33.504 37.9661 31.8757 37.2125C29.2143 35.993 26.18 35.6921 23.2962 35.527C20.3479 35.3546 17.3782 35.4265 14.4438 35.742C11.4022 36.0649 8.38192 36.6534 5.44089 37.5068C5.41961 37.0188 5.38365 36.5382 5.32568 36.0502C5.81365 35.9071 6.30162 35.7773 6.7962 35.6555C12.9945 34.1057 19.4937 33.6038 25.8491 34.3067C30.2981 34.7881 35.5491 36.4377 37.6866 40.541Z" fill="#B8683B"/>
<path d="M87.6227 40.4631C87.1208 40.4558 86.6255 40.4558 86.1236 40.4631C85.7435 39.5305 85.392 38.5839 84.868 37.7085C83.5193 35.4704 80.6641 34.868 78.2544 34.5517C75.5643 34.1929 72.5653 34.394 70.2913 36.0222C68.8354 37.0628 67.6944 38.691 67.4434 40.4624H66.0228C66.2378 38.5545 67.2277 36.7825 68.7056 35.4697C70.951 33.4753 74.0065 32.8368 76.9409 32.9946C79.6956 33.1377 83.1033 33.6902 85.1403 35.728C86.4391 37.0268 86.8691 38.8415 87.6227 40.4631Z" fill="#B8683B"/>
<path d="M80.0976 4.13591C79.3088 4.62388 78.5053 5.06123 77.7304 5.45601C68.9352 9.93214 58.7135 11.1737 49.1008 8.99289C44.0868 7.85918 39.3443 5.90803 34.797 3.5555C35.8588 3.53422 36.9272 3.51953 37.9963 3.51953C45.9448 7.26407 54.4956 9.38767 63.3408 8.34715C67.982 7.80194 72.5513 6.4393 76.7266 4.359C76.9416 4.25113 77.1566 4.14399 77.3796 4.02878C78.2822 4.064 79.1936 4.09996 80.0976 4.13591Z" fill="#B8683B"/>
<path d="M106.432 32.1918C105.966 31.345 105.427 30.5276 104.811 29.7674C102.774 27.2563 99.9834 26.0155 97.2573 24.4232C94.7111 22.938 92.1069 20.7718 91.8339 17.6158C91.547 14.28 94.4953 12.4147 96.7195 10.5281C98.5635 8.95703 100.227 7.20694 101.684 5.29102C102.257 5.32697 102.824 5.37027 103.391 5.40549C101.698 7.74408 99.7251 9.88161 97.5017 11.7396C96.3541 12.6935 95.0552 13.5616 94.1373 14.7599C93.0329 16.2018 93.0395 17.9232 93.9003 19.4943C95.3495 22.1484 98.4197 23.3966 100.931 24.8099C103.112 26.0368 104.948 27.5718 106.419 29.5303C106.425 30.4197 106.432 31.3025 106.432 32.1918Z" fill="#B8683B"/>
<path d="M37.8685 12.3428C39.5137 10.2153 42.1943 9.15158 45.9102 9.15158C49.6262 9.15158 52.2784 10.2011 53.8669 12.3002C55.4838 14.3993 56.2922 17.8174 56.2922 22.5545C56.2922 27.2633 55.4696 30.7523 53.8243 33.0216C52.1791 35.2909 49.5127 36.4255 45.8251 36.4255C42.1375 36.4255 39.4853 35.305 37.8685 33.0641C36.2516 30.8232 35.4432 27.3484 35.4432 22.6396C35.4432 17.9025 36.2516 14.4702 37.8685 12.3428ZM48.9738 22.5545C48.9738 19.9448 48.761 18.1862 48.3355 17.2784C47.9384 16.3424 47.1016 15.8743 45.8251 15.8743C44.577 15.8743 43.7686 16.3424 43.3998 17.2784C43.0311 18.1862 42.8467 19.9307 42.8467 22.512V23.5331C42.8467 26.2846 43.0453 28.1001 43.4424 28.9794C43.8679 29.8304 44.7047 30.2559 45.9528 30.2559C47.2292 30.2559 48.0519 29.8446 48.4206 29.022C48.7894 28.1993 48.9738 26.4974 48.9738 23.9161V22.5545ZM77.9107 36H69.869L66.6778 26.0435H66.2523V36H59.1892V9.57707H66.2523V20.6398H66.6778L70.5072 9.57707H78.3362L73.1878 23.2353L77.9107 36Z" fill="white"/>
</svg>
