<svg width="328" height="219" viewBox="0 0 328 219" fill="none" xmlns="http://www.w3.org/2000/svg">
<path d="M0.270779 64.3142C4.1707 104.947 11.7372 158.679 30.5368 202.211C31.7368 204.945 34.2701 206.911 37.2034 207.345C125.035 220.444 217.9 222.244 302.131 212.511C305.431 212.145 308.231 209.878 309.331 206.711C331.464 142.746 332.997 69.3475 313.498 6.28206C312.331 2.51546 308.765 0.0155087 304.831 0.182172C215.933 3.9821 113.368 30.1482 6.93731 54.9811C2.70406 55.9811 -0.162546 59.9476 0.270779 64.2809V64.3142Z" fill="#F7F7F7"/>
<g opacity="0.59">
<path d="M6.3366 57.8815C8.63655 58.9814 11.8365 58.8814 14.3031 58.6481C33.1027 56.8148 51.7357 52.2482 70.102 47.9483C90.1349 43.2484 110.201 38.6485 130.334 34.2819C168.8 25.8821 207.466 18.2823 246.532 13.2157C263.598 11.0157 281.931 11.3824 298.364 6.04917C302.431 4.74919 310.864 -0.117372 301.131 0.349285C282.998 1.24927 264.931 3.0159 246.932 5.34918C207.932 10.3824 169.3 17.9823 130.867 26.3488C89.6349 35.3152 48.6357 45.2484 7.5699 54.8482C7.36991 54.8815 7.16991 54.9482 7.00325 54.9815C4.4033 55.5815 4.36997 56.6148 6.16993 57.7148C6.2366 57.7815 6.3366 57.8148 6.43659 57.8481L6.3366 57.8815Z" fill="#E5DFDF" style="mix-blend-mode:screen"/>
</g>
<path style="mix-blend-mode:multiply" opacity="0.37" d="M301.998 19.8482C300.931 16.5816 297.631 14.415 293.998 14.5483C211.933 17.8482 117.235 40.5811 19.0035 62.1474C15.0702 63.014 12.437 66.4473 12.8369 70.2472C16.4369 105.546 23.4367 152.179 40.7697 190.011C41.8697 192.411 44.203 194.078 46.9363 194.478C128.035 205.878 213.733 207.411 291.498 198.978C294.565 198.645 297.131 196.678 298.131 193.945C318.564 138.412 319.997 74.6804 301.964 19.8815L301.998 19.8482ZM292.331 190.245C291.365 192.878 288.898 194.745 285.998 195.045C211.6 203.111 129.601 201.645 52.0028 190.745C49.4029 190.378 47.1696 188.778 46.1029 186.478C29.5033 150.312 22.8034 105.68 19.3701 71.9138C19.0035 68.3139 21.5034 65.014 25.27 64.1806C119.268 43.5477 209.866 21.8148 288.365 18.6482C291.831 18.5149 294.998 20.5815 295.998 23.7148C313.231 76.1137 311.864 137.079 292.331 190.211V190.245Z" fill="url(#paint0_radial_3441_4532)"/>
<path style="mix-blend-mode:multiply" opacity="0.37" d="M299.498 21.4817C298.431 18.2817 295.198 16.1485 291.631 16.2818C211.066 19.5484 118.068 41.8479 21.6034 63.0142C17.7701 63.8475 15.1702 67.2474 15.5368 70.9473C19.0701 105.613 25.9366 151.412 42.9696 188.545C44.0363 190.878 46.3362 192.545 49.0362 192.912C128.668 204.078 212.833 205.611 289.198 197.311C292.198 196.978 294.731 195.045 295.731 192.378C315.797 137.846 317.197 75.2473 299.498 21.4817ZM292.331 190.245C291.364 192.878 288.898 194.745 285.998 195.045C211.599 203.111 129.601 201.645 52.0028 190.745C49.4028 190.378 47.1695 188.778 46.1029 186.478C29.5032 150.312 22.8034 105.68 19.3701 71.914C19.0034 68.3141 21.5034 65.0141 25.27 64.1808C119.268 43.5479 209.866 21.815 288.365 18.6484C291.831 18.5151 294.998 20.5817 295.998 23.715C313.231 76.1139 311.864 137.079 292.331 190.212V190.245Z" fill="url(#paint1_radial_3441_4532)"/>
<defs>
<radialGradient id="paint0_radial_3441_4532" cx="0" cy="0" r="1" gradientUnits="userSpaceOnUse" gradientTransform="translate(164.742 194.236) scale(204.892 204.892)">
<stop stop-color="#004DCD"/>
<stop offset="0.31" stop-color="#0458CD"/>
<stop offset="0.85" stop-color="#1077D0"/>
<stop offset="1" stop-color="#1481D1"/>
</radialGradient>
<radialGradient id="paint1_radial_3441_4532" cx="0" cy="0" r="1" gradientUnits="userSpaceOnUse" gradientTransform="translate(164.742 192.716) scale(201.174 201.174)">
<stop stop-color="#004DCD"/>
<stop offset="0.31" stop-color="#0458CD"/>
<stop offset="0.85" stop-color="#1077D0"/>
<stop offset="1" stop-color="#1481D1"/>
</radialGradient>
</defs>
</svg>
