<svg width="22" height="24" viewBox="0 0 22 24" fill="none" xmlns="http://www.w3.org/2000/svg">
<path d="M21.3411 10.9516C20.9835 5.61468 16.6827 1.27672 11.349 0.870299C9.55567 0.733695 7.8493 1.03673 6.32076 1.67891C5.22602 0.541838 4.64909 -0.0316981 4.18233 0.00135138C2.6829 0.106432 1.41587 7.35512 2.48172 8.51524C3.52371 10.4353 10.3692 10.1067 11.1256 9.1103C11.7239 8.32169 10.4297 6.84361 9.96209 6.13364C10.3668 6.09381 10.7846 6.09635 11.2117 6.15008C13.7631 6.46956 15.8071 8.55252 16.0678 11.1114C16.4105 14.4638 13.7879 17.2932 10.505 17.2932C8.02963 17.2932 5.93514 15.6836 5.19941 13.4567C4.91806 12.601 4.08725 12.0473 3.18678 12.0473H2.15072C0.73315 12.0473 -0.313756 13.4062 0.0858886 14.7667C1.40922 19.2711 5.57109 22.5608 10.505 22.5608C16.7506 22.5608 21.7655 17.2883 21.3411 10.9516Z" fill="#004279"/>
<path d="M19.8012 10.9988C19.495 6.43302 15.8164 2.72232 11.2532 2.37471C9.71888 2.2581 8.25911 2.51623 6.95069 3.06654C6.01479 2.09421 5.52159 1.60336 5.12178 1.63152C3.83912 1.72168 2.75577 7.92194 3.66692 8.91492C3.85234 9.25595 4.25368 9.51238 4.77586 9.70034C7.18915 10.1663 10.6044 9.79711 11.1258 9.11019C11.7241 8.32158 10.4299 6.84351 9.96226 6.13354C10.367 6.09371 10.7848 6.09625 11.2119 6.14998C13.7633 6.46945 15.8073 8.55242 16.068 11.1113C16.4106 14.4637 13.788 17.2931 10.5051 17.2931C8.02979 17.2931 5.9353 15.6835 5.19957 13.4566C4.91823 12.6009 4.08741 12.0472 3.18694 12.0472H2.75425C1.88445 12.3641 1.33821 13.3126 1.61785 14.2627C2.74916 18.1158 6.31105 20.9302 10.5307 20.9302C15.8735 20.9302 20.1644 16.4201 19.8012 10.9988Z" fill="white"/>
<path d="M11.2399 9.63731C11.4535 9.3558 11.4245 8.98765 11.2804 8.59784C11.2847 8.78734 11.2391 8.96022 11.1257 9.11004C10.3693 10.1064 3.52379 10.435 2.4818 8.51498C2.38994 8.41583 2.31553 8.26686 2.25757 8.08398C2.3179 8.52092 2.42807 8.85938 2.59603 9.0431C3.6387 10.9613 10.4843 10.6335 11.2399 9.63731Z" fill="#59D8FF"/>
<path d="M11.2118 6.14987C10.7847 6.09614 10.3669 6.0936 9.96216 6.13343C10.0557 6.27579 10.1838 6.45036 10.3221 6.64324C10.6498 6.62493 10.985 6.63408 11.326 6.67713C13.5769 6.95848 15.4291 8.61282 16.0158 10.7536C15.6094 8.36113 13.6432 6.45443 11.2118 6.14987Z" fill="#59D8FF"/>
<path d="M21.4553 11.4794C21.4139 10.8545 21.3154 10.2439 21.1707 9.65137C21.2526 10.0766 21.3114 10.5103 21.3412 10.9513C21.7656 17.288 16.7507 22.5605 10.505 22.5605C5.62087 22.5605 1.49371 19.3354 0.128174 14.8996C0.140716 15.0296 0.161393 15.162 0.201053 15.2937C1.52443 19.7989 5.68697 23.0884 10.6193 23.0884C16.8648 23.0884 21.8798 17.8153 21.4553 11.4794Z" fill="#59D8FF"/>
</svg>
