<svg width="14" height="14" viewBox="0 0 14 14" fill="none" xmlns="http://www.w3.org/2000/svg">
<path d="M4.70834 9.33333H1.50001C1.3453 9.33333 1.19692 9.27187 1.08753 9.16248C0.97813 9.05308 0.916672 8.90471 0.916672 8.75C0.916672 8.59529 0.97813 8.44692 1.08753 8.33752C1.19692 8.22812 1.3453 8.16667 1.50001 8.16667H4.39626L5.38967 6.67625C5.4458 6.59073 5.52371 6.52171 5.61536 6.47629C5.70702 6.43087 5.80913 6.4107 5.91117 6.41783C6.11884 6.43067 6.30376 6.55317 6.39709 6.73925L7.69734 9.34033L8.30634 8.42683C8.41484 8.26467 8.59684 8.16725 8.79167 8.16725H11.4167C11.5714 8.16725 11.7198 8.22871 11.8292 8.3381C11.9385 8.4475 12 8.59587 12 8.75058C12 8.90529 11.9385 9.05367 11.8292 9.16306C11.7198 9.27246 11.5714 9.33392 11.4167 9.33392H9.10376L8.11034 10.8243C8.05705 10.9042 7.98488 10.9697 7.90021 11.015C7.81555 11.0602 7.72102 11.0839 7.62501 11.0839C7.61276 11.0839 7.60051 11.0839 7.58884 11.0828C7.48679 11.0764 7.38821 11.0434 7.30293 10.987C7.21766 10.9306 7.14869 10.8528 7.10292 10.7613L5.80267 8.16025L5.19367 9.07375C5.14035 9.15358 5.06816 9.21903 4.98351 9.26431C4.89885 9.30959 4.80434 9.3333 4.70834 9.33333ZM13.75 6.11625V11.0833C13.75 12.6916 12.4416 14 10.8333 14H5.00001C3.39176 14 2.08334 12.6916 2.08334 11.0833C2.08334 10.9286 2.1448 10.7802 2.25419 10.6709C2.36359 10.5615 2.51196 10.5 2.66667 10.5C2.82138 10.5 2.96975 10.5615 3.07915 10.6709C3.18855 10.7802 3.25001 10.9286 3.25001 11.0833C3.25001 12.0482 4.03517 12.8333 5.00001 12.8333H10.8333C11.7982 12.8333 12.5833 12.0482 12.5833 11.0833V6.11625C12.5833 6.02117 12.5787 5.92667 12.5699 5.83333H9.66667C8.70184 5.83333 7.91667 5.04817 7.91667 4.08333V1.18008C7.82263 1.17121 7.72822 1.16673 7.63376 1.16667H5.00001C4.03517 1.16667 3.25001 1.95183 3.25001 2.91667V6.41667C3.25001 6.57138 3.18855 6.71975 3.07915 6.82915C2.96975 6.93854 2.82138 7 2.66667 7C2.51196 7 2.36359 6.93854 2.25419 6.82915C2.1448 6.71975 2.08334 6.57138 2.08334 6.41667V2.91667C2.08334 1.30842 3.39176 0 5.00001 0H7.63376C8.72459 0 9.74951 0.424667 10.5213 1.19583L12.5542 3.22875C12.9345 3.60707 13.2361 4.05707 13.4413 4.55271C13.6466 5.04835 13.7515 5.57979 13.75 6.11625ZM12.1989 4.66667C12.0702 4.44262 11.9123 4.23665 11.7293 4.05417L9.69642 2.02125C9.51382 1.83844 9.30787 1.68055 9.08392 1.55167V4.08392C9.08392 4.40533 9.34584 4.66725 9.66726 4.66725H12.1995L12.1989 4.66667Z" fill="#A3A3A3"/>
</svg>
