<svg width="14" height="14" viewBox="0 0 14 14" fill="none" xmlns="http://www.w3.org/2000/svg">
<path d="M7 13.75C7.13261 13.75 7.25979 13.6973 7.35355 13.6036C7.44732 13.5098 7.5 13.3826 7.5 13.25C7.5 13.1174 7.44732 12.9902 7.35355 12.8964C7.25979 12.8027 7.13261 12.75 7 12.75C5.85362 12.7505 4.73327 12.4082 3.78295 11.767C2.83263 11.1259 2.09575 10.2152 1.66702 9.152C1.23828 8.08881 1.13728 6.92169 1.377 5.80066C1.61672 4.67962 2.1862 3.65588 3.01225 2.861V4.58925C3.01225 4.72186 3.06493 4.84904 3.1587 4.9428C3.25246 5.03657 3.37964 5.08925 3.51225 5.08925C3.64486 5.08925 3.77204 5.03657 3.8658 4.9428C3.95957 4.84904 4.01225 4.72186 4.01225 4.58925V1.8275C4.01225 1.69489 3.95957 1.56772 3.8658 1.47395C3.77204 1.38018 3.64486 1.3275 3.51225 1.3275H0.75C0.617392 1.3275 0.490215 1.38018 0.396447 1.47395C0.302678 1.56772 0.25 1.69489 0.25 1.8275C0.25 1.96011 0.302678 2.08729 0.396447 2.18105C0.490215 2.27482 0.617392 2.3275 0.75 2.3275H2.1325C1.21558 3.28161 0.599466 4.48429 0.360808 5.78587C0.122151 7.08745 0.271492 8.43047 0.790248 9.64783C1.309 10.8652 2.17427 11.9031 3.27839 12.6325C4.3825 13.3619 5.67672 13.7505 7 13.75ZM7 0.250001C6.86739 0.250001 6.74021 0.302679 6.64645 0.396447C6.55268 0.490215 6.5 0.617392 6.5 0.750001C6.5 0.882609 6.55268 1.00979 6.64645 1.10355C6.74021 1.19732 6.86739 1.25 7 1.25C8.14647 1.24975 9.26684 1.59229 10.2171 2.23363C11.1674 2.87497 11.9043 3.78581 12.333 4.84911C12.7617 5.91241 12.8627 7.07961 12.623 8.20075C12.3832 9.32188 11.8138 10.3457 10.9878 11.1408V9.4525C10.9878 9.31989 10.9351 9.19272 10.8413 9.09895C10.7475 9.00518 10.6204 8.9525 10.4878 8.9525C10.3551 8.9525 10.228 9.00518 10.1342 9.09895C10.0404 9.19272 9.98775 9.31989 9.98775 9.4525V12.2145C9.98775 12.3471 10.0404 12.4743 10.1342 12.5681C10.228 12.6618 10.3551 12.7145 10.4878 12.7145H13.25C13.3826 12.7145 13.5098 12.6618 13.6036 12.5681C13.6973 12.4743 13.75 12.3471 13.75 12.2145C13.75 12.0819 13.6973 11.9547 13.6036 11.8609C13.5098 11.7672 13.3826 11.7145 13.25 11.7145H11.8275C12.7561 10.7647 13.3836 9.56201 13.6316 8.25709C13.8795 6.95217 13.7368 5.60309 13.2214 4.37893C12.7059 3.15476 11.8406 2.10996 10.7339 1.37547C9.62715 0.640981 8.32827 0.249468 7 0.250001Z" fill="#707070"/>
</svg>
