<svg width="19" height="20" viewBox="0 0 19 20" fill="none" xmlns="http://www.w3.org/2000/svg">
<path d="M18.8012 9.95433C18.495 5.38858 14.8164 1.67789 10.2532 1.33027C8.71888 1.21367 7.25911 1.47179 5.95069 2.02211C5.01479 1.04978 4.52159 0.558924 4.12178 0.587084C2.83912 0.67725 1.75577 6.8775 2.66692 7.87049C2.85234 8.21152 3.25368 8.46795 3.77586 8.65591C6.18915 9.12182 9.60443 8.75268 10.1258 8.06576C10.7241 7.27715 9.42986 5.79907 8.96226 5.0891C9.36699 5.04927 9.78476 5.05182 10.2119 5.10554C12.7633 5.42502 14.8073 7.50799 15.068 10.0669C15.4106 13.4193 12.788 16.2486 9.50512 16.2486C7.02979 16.2486 4.9353 14.639 4.19957 12.4122C3.91823 11.5565 3.08741 11.0028 2.18694 11.0028H1.75425C0.884453 11.3197 0.338205 12.2681 0.617855 13.2183C1.74916 17.0713 5.31105 19.8858 9.53071 19.8858C14.8735 19.8858 19.1644 15.3756 18.8012 9.95433Z" fill="white"/>
</svg>
