<svg width="380" height="76" viewBox="0 0 380 76" fill="none" xmlns="http://www.w3.org/2000/svg">
<path d="M379.083 19.2779C379.034 19.1612 378.976 19.0481 378.91 18.9395C379.115 18.3669 379.215 17.7651 379.205 17.1603C379.13 15.6849 378.562 14.2705 377.582 13.1215C376.603 11.9726 375.264 11.1486 373.758 10.7687C372.875 10.5405 371.959 10.4459 371.044 10.4883C370.555 10.5021 370.067 10.5539 369.586 10.643C369.81 9.64536 369.81 8.61411 369.586 7.61645C369.374 6.66683 368.939 5.77498 368.312 5.00792C367.684 4.24086 366.882 3.61857 365.964 3.18782C365.077 2.76256 364.098 2.53696 363.104 2.52857C362.11 2.52018 361.127 2.72924 360.231 3.13947C359.221 3.64088 358.335 4.33954 357.63 5.1894C357.446 5.40213 357.273 5.61487 357.11 5.84694C356.97 5.27372 356.775 4.71378 356.528 4.1741C356.086 3.09284 355.352 2.1406 354.4 1.41263C353.447 0.684652 352.31 0.206465 351.101 0.0258755C348.472 -0.141954 345.857 0.510041 343.655 1.88242C341.504 3.0778 339.806 4.88431 338.799 7.04595C338.437 7.87892 338.194 8.75354 338.075 9.64706C337.651 9.07156 337.026 8.65703 336.31 8.47704C335.704 8.35485 335.077 8.35902 334.473 8.48926C333.869 8.61949 333.302 8.87268 332.811 9.23128C331.168 10.3046 329.638 12.2095 329.832 14.1531C329.028 13.8952 328.168 13.8353 327.333 13.979C326.669 14.0874 326.037 14.33 325.481 14.6904C324.925 15.0508 324.457 15.5205 324.109 16.0676C323.756 16.6618 323.531 17.3165 323.447 17.9937C323.363 18.6709 323.422 19.3572 323.62 20.0128C324.006 21.3481 324.934 22.4846 326.201 23.1747C326.484 23.3333 326.781 23.4691 327.088 23.5809C326.972 24.9214 327.383 26.2554 328.242 27.3263C329.1 28.3972 330.346 29.1295 331.74 29.3826C333.258 29.5981 334.808 29.3185 336.136 28.5897C335.946 29.4293 335.995 30.3018 336.278 31.1176C336.561 31.9333 337.069 32.6628 337.748 33.2311C338.756 34.0396 340.044 34.4646 341.364 34.4235C342.683 34.3824 343.94 33.8782 344.889 33.0087C345.207 32.6898 345.456 32.3154 345.623 31.9063C346.093 32.4589 346.704 32.8883 347.398 33.1537C348.064 33.3949 348.774 33.5056 349.486 33.479C350.198 33.4524 350.897 33.2891 351.54 32.999C352.922 32.4079 354.079 31.4292 354.855 30.1948C355.025 30.5085 355.253 30.7903 355.529 31.0264C356.143 31.4385 356.86 31.6924 357.609 31.7636C358.358 31.8348 359.114 31.7207 359.803 31.4325C361.355 30.899 362.642 29.8374 363.414 28.4543C364.232 29.029 365.156 29.4552 366.138 29.7113C368.328 30.2305 370.64 30.0329 372.697 29.1505C374.802 28.316 376.63 26.9599 377.991 25.2247C378.667 24.3907 379.118 23.4142 379.309 22.3785C379.499 21.3429 379.421 20.279 379.083 19.2779Z" fill="white"/>
<path d="M181.673 60.0825C181.624 59.9605 181.566 59.8422 181.499 59.7286C181.705 59.1299 181.805 58.5005 181.795 57.8681C181.72 56.3253 181.152 54.8462 180.172 53.6447C179.193 52.4432 177.854 51.5816 176.348 51.1844C175.465 50.9457 174.549 50.8468 173.634 50.8911C173.144 50.9056 172.657 50.9597 172.176 51.0529C172.4 50.0096 172.4 48.9312 172.176 47.888C171.964 46.8949 171.529 45.9623 170.901 45.1602C170.274 44.3581 169.472 43.7073 168.554 43.2569C167.667 42.8122 166.688 42.5763 165.694 42.5675C164.699 42.5587 163.716 42.7773 162.821 43.2063C161.811 43.7307 160.924 44.4613 160.22 45.35C160.036 45.5724 159.863 45.7949 159.7 46.0376C159.56 45.4381 159.365 44.8526 159.118 44.2883C158.676 43.1576 157.942 42.1618 156.989 41.4005C156.037 40.6393 154.9 40.1392 153.691 39.9504C151.062 39.7749 148.447 40.4567 146.244 41.8918C144.094 43.1418 142.395 45.0309 141.389 47.2914C141.027 48.1624 140.784 49.077 140.664 50.0114C140.241 49.4096 139.615 48.9761 138.9 48.7879C138.294 48.6601 137.667 48.6645 137.063 48.8007C136.458 48.9369 135.891 49.2016 135.401 49.5766C133.758 50.699 132.228 52.691 132.422 54.7234C131.618 54.4538 130.758 54.3912 129.923 54.5414C129.259 54.6547 128.627 54.9084 128.071 55.2853C127.515 55.6622 127.047 56.1534 126.699 56.7255C126.346 57.3469 126.121 58.0314 126.037 58.7396C125.953 59.4478 126.012 60.1654 126.21 60.851C126.596 62.2474 127.524 63.4358 128.79 64.1575C129.074 64.3233 129.371 64.4653 129.678 64.5822C129.562 65.9841 129.973 67.3789 130.831 68.4988C131.69 69.6187 132.936 70.3845 134.33 70.6491C135.848 70.8745 137.398 70.5822 138.726 69.82C138.536 70.698 138.585 71.6104 138.868 72.4634C139.151 73.3165 139.659 74.0793 140.338 74.6735C141.346 75.5191 142.634 75.9635 143.954 75.9205C145.273 75.8775 146.529 75.3502 147.479 74.441C147.797 74.1075 148.046 73.716 148.213 73.2882C148.683 73.8661 149.294 74.3151 149.988 74.5926C150.654 74.8449 151.364 74.9606 152.076 74.9328C152.788 74.905 153.487 74.7342 154.13 74.4308C155.512 73.8128 156.669 72.7893 157.445 71.4985C157.615 71.8265 157.843 72.1212 158.118 72.3681C158.733 72.799 159.45 73.0646 160.199 73.139C160.948 73.2135 161.704 73.0942 162.393 72.7928C163.945 72.2349 165.232 71.1248 166.004 69.6784C166.822 70.2794 167.746 70.7251 168.728 70.9929C170.918 71.5358 173.23 71.3291 175.287 70.4064C177.391 69.5337 179.22 68.1157 180.581 66.3012C181.256 65.4291 181.708 64.4079 181.898 63.3249C182.088 62.2419 182.011 61.1294 181.673 60.0825Z" fill="white"/>
<path d="M69.5159 49.7663C69.4444 49.5867 69.373 49.4171 69.2913 49.2375C69.5965 48.3197 69.7448 47.359 69.7302 46.394C69.6155 44.042 68.7374 41.7867 67.2233 39.9552C65.7091 38.1236 63.6375 36.811 61.3087 36.2075C59.94 35.8403 58.5209 35.6854 57.103 35.7486C56.3523 35.7736 55.6047 35.857 54.8675 35.998C55.2095 34.4091 55.2095 32.768 54.8675 31.1791C54.5387 29.6637 53.8639 28.2404 52.8935 27.0155C51.9231 25.7907 50.6822 24.7959 49.2634 24.1054C47.8874 23.4298 46.371 23.0723 44.8312 23.0601C43.2915 23.048 41.7694 23.3817 40.3825 24.0355C38.8198 24.8269 37.4511 25.9399 36.3708 27.298C36.085 27.6372 35.8196 27.9864 35.5644 28.2957C35.3355 27.3853 35.0317 26.4944 34.6559 25.6318C33.9734 23.907 32.8389 22.3879 31.3662 21.2268C29.8934 20.0658 28.1342 19.3038 26.2649 19.0171C22.3247 18.5282 18.0986 20.0148 14.7402 22.0102C11.4182 23.9172 8.79361 26.7966 7.23741 30.2412C6.67326 31.5695 6.29224 32.9652 6.10433 34.3917C5.45562 33.4713 4.49317 32.8065 3.38903 32.516C2.26565 32.2436 1.08424 32.3097 0 32.7056V65.7994C1.09525 65.5657 2.14826 65.1722 3.12362 64.6321C2.82582 65.9725 2.89967 67.3664 3.33755 68.6696C3.77543 69.9728 4.56144 71.1381 5.61435 72.045C8.67672 74.5692 13.7807 74.649 16.6083 71.6758C17.0984 71.1713 17.4832 70.5782 17.7413 69.9299C18.4704 70.8101 19.4149 71.4964 20.4873 71.9253C21.517 72.3104 22.6159 72.4877 23.7176 72.4466C24.8194 72.4054 25.9012 72.1466 26.8978 71.6858C29.0253 70.7341 30.8057 69.1715 32.0018 67.2061C32.2517 67.7084 32.5983 68.1589 33.0226 68.5331C34.8192 70.0396 37.5243 69.9299 39.6373 69.1716C42.0323 68.3224 44.0188 66.6333 45.2108 64.4325C46.4769 65.3482 47.9066 66.0249 49.4267 66.4279C52.8155 67.2589 56.3924 66.9424 59.5734 65.53C62.8227 64.1978 65.644 62.0331 67.7397 59.2644C68.8012 57.9405 69.5176 56.3842 69.827 54.7296C70.1364 53.0749 70.0296 51.3716 69.5159 49.7663Z" fill="white"/>
</svg>
