<svg width="22" height="22" viewBox="0 0 22 22" fill="none" xmlns="http://www.w3.org/2000/svg">
<path d="M1.27601 9.23313C1.18981 8.96877 1.19658 8.69499 1.28093 8.42767C1.2912 8.3934 1.30442 8.3682 1.31764 8.343C1.32079 8.32109 1.33697 8.30495 1.34409 8.2926C1.36123 8.24523 1.38375 8.21699 1.40332 8.1797C1.41654 8.15449 1.43272 8.13835 1.44619 8.11391L1.45254 8.10181C1.46576 8.07661 1.48194 8.06047 1.49836 8.04509L1.52166 8.0166C1.56748 7.95988 1.61651 7.91298 1.66529 7.86532C1.69101 7.8469 1.71726 7.82748 1.74275 7.80831C1.76925 7.78964 1.80403 7.76743 1.83053 7.74877C1.86608 7.72631 1.91119 7.70157 1.95682 7.67583C1.9762 7.66951 2.00193 7.6511 2.02131 7.64478C2.06007 7.63214 2.09587 7.61044 2.13463 7.5978C2.20207 7.57581 2.27324 7.56263 2.35396 7.54717L6.92871 6.8593L8.99844 2.79184C9.03811 2.71624 9.08708 2.6376 9.14002 2.56853C9.20837 2.48357 9.26427 2.42356 9.33267 2.37034C9.3584 2.35192 9.391 2.3204 9.43663 2.29466C9.54355 2.22804 9.65391 2.172 9.77949 2.13105C9.81825 2.11842 9.84693 2.10906 9.88569 2.09642C9.94383 2.07747 10.0049 2.06757 10.0692 2.0675C10.0785 2.06447 10.1008 2.06721 10.1109 2.06392C10.1436 2.06414 10.1723 2.05479 10.2039 2.0545C10.2132 2.05146 10.2363 2.05396 10.2682 2.05442C10.3006 2.05388 10.3325 2.05435 10.3673 2.06388C10.4346 2.07287 10.5021 2.08261 10.5848 2.10745C10.6297 2.11369 10.6675 2.13229 10.7063 2.15138C10.7063 2.15138 10.7156 2.14835 10.7186 2.15741L11.0198 2.22633L11.0629 2.3585C11.0791 2.3741 11.0913 2.38013 11.1076 2.39573C11.123 2.41158 11.1547 2.44302 11.1832 2.46465C11.2149 2.49609 11.2496 2.5366 11.2874 2.58693C11.3029 2.60278 11.3221 2.62744 11.3314 2.65614C11.353 2.69087 11.3754 2.72535 11.4008 2.7689L13.4146 6.80919L17.9452 7.39831C18.4486 7.46396 18.8583 7.79997 19.012 8.27128C19.1228 8.61116 19.0855 8.9885 18.9104 9.3063C18.8747 9.35973 18.8482 9.41014 18.8085 9.45401C18.7627 9.51073 18.7168 9.56745 18.6678 9.61435L15.3554 12.7927L16.1071 17.2336C16.1936 17.7277 15.9802 18.2251 15.5619 18.5178C15.5357 18.5372 15.52 18.5523 15.4906 18.5619C15.4813 18.565 15.4812 18.565 15.4741 18.5773C15.4476 18.596 15.4221 18.6151 15.3834 18.6278C15.3741 18.6308 15.3741 18.6308 15.364 18.6341C15.3282 18.6558 15.2995 18.6652 15.2608 18.6778C15.0803 18.7475 14.8771 18.782 14.6781 18.7633C14.5912 18.7599 14.5117 18.7449 14.428 18.7196L14.4154 18.7128C14.3327 18.6879 14.2461 18.6535 14.1694 18.6158L10.0999 16.5503L6.00904 18.6881C5.55927 18.9183 5.0265 18.894 4.60947 18.6013C4.51124 18.5289 4.40609 18.4378 4.33039 18.3371C4.32718 18.3273 4.31415 18.3216 4.30799 18.3027C4.22934 18.193 4.16981 18.0762 4.12991 17.9538C4.06539 17.7559 4.04867 17.5416 4.0872 17.331L4.89394 12.8724L1.614 9.74628C1.45312 9.61323 1.34054 9.43102 1.27601 9.23313Z" fill="#DF771E"/>
<path d="M18.3918 8.47198L10.3843 11.083L12.9528 7.36432L17.8482 8.02253C18.1209 8.06982 18.3211 8.25521 18.3918 8.47198Z" fill="#FFFAF6"/>
<path d="M15.1729 18.009L10.3896 11.0932L14.6563 12.5823L15.4617 17.3508C15.4969 17.6218 15.3715 17.8607 15.1729 18.009Z" fill="#FEE0AC"/>
<path d="M4.9857 18.0861L10.3839 11.0866L10.1002 15.8343L5.70447 18.1233C5.45139 18.2677 5.18267 18.23 4.9857 18.0861Z" fill="#ECB76B"/>
<path d="M10.3831 11.0844L5.5903 12.6472L2.0667 9.29725C1.86428 9.10254 1.823 8.84443 1.8963 8.61162L10.3831 11.0844Z" fill="#F1A341"/>
<path d="M14.6511 12.573L10.3842 11.0832L18.3917 8.47211C18.4471 8.64205 18.4351 8.83398 18.3393 9.00057C18.3261 9.02578 18.3036 9.05401 18.2803 9.0825C18.257 9.11098 18.2344 9.13922 18.2087 9.15764L14.6511 12.573Z" fill="#FFE9BA"/>
<path d="M14.7285 18.1325C14.6836 18.1262 14.6387 18.12 14.5938 18.1138C14.5457 18.0977 14.5079 18.0791 14.46 18.0638L10.0943 15.8449L10.378 11.0973L15.1613 18.0131C15.152 18.0161 15.1448 18.0285 15.1348 18.0318C15.1247 18.0351 15.1186 18.0479 15.0992 18.0542C15.0891 18.0575 15.0891 18.0575 15.0891 18.0575C15.0798 18.0606 15.0698 18.0638 15.0605 18.0669C15.0411 18.0732 15.031 18.0765 15.0124 18.0825C14.9285 18.1199 14.8284 18.1417 14.7285 18.1325Z" fill="#E49632"/>
<path d="M4.98524 18.0837C4.93121 18.0495 4.88406 18.0022 4.84301 17.9421C4.84005 17.933 4.84005 17.933 4.82755 17.9262C4.73023 17.7909 4.68412 17.6179 4.71873 17.4295L5.59032 12.6463L10.3832 11.0835L4.98524 18.0837Z" fill="#E29136"/>
<path d="M10.3831 11.0844L1.89648 8.61247C1.9036 8.60013 1.9097 8.58727 1.91682 8.57492C1.92317 8.56283 1.93004 8.54972 1.93692 8.53662C1.94327 8.52452 1.95014 8.51142 1.96336 8.48621C1.96946 8.47336 1.97659 8.46101 1.98346 8.44791C1.99034 8.4348 1.98981 8.43581 1.99989 8.43252C2.00623 8.42043 2.01311 8.40732 2.02318 8.40404C2.04571 8.3758 2.06901 8.34732 2.09473 8.3289C2.10108 8.3168 2.12123 8.31023 2.13664 8.29435C2.15306 8.27896 2.16314 8.27568 2.17854 8.25979C2.19496 8.24441 2.22364 8.23506 2.24302 8.22874C2.25232 8.22571 2.27248 8.21913 2.28178 8.2161C2.30116 8.20978 2.32054 8.20346 2.33992 8.19714C2.37868 8.1845 2.41743 8.17187 2.45915 8.16829L7.35924 7.42615L10.3831 11.0844Z" fill="#FED891"/>
<path d="M10.3838 11.0853L10.1709 2.67912C10.1802 2.67609 10.1932 2.68187 10.2033 2.67858C10.2256 2.68132 10.245 2.67501 10.2575 2.68179C10.3024 2.68804 10.3373 2.69757 10.3729 2.70684C10.3952 2.70959 10.4085 2.71612 10.4333 2.72894C10.4458 2.73572 10.4689 2.73821 10.4843 2.75406C10.4966 2.76009 10.5224 2.77341 10.5354 2.77919C10.5484 2.78497 10.5639 2.80082 10.5772 2.80735C10.5926 2.8232 10.6189 2.83551 10.6344 2.85136C10.6467 2.85739 10.6629 2.87299 10.669 2.89187C10.6877 2.91754 10.7037 2.93238 10.7231 2.95779C10.7261 2.96686 10.7386 2.97364 10.7448 2.99253C10.7602 3.00837 10.7693 3.03632 10.7888 3.06174L12.9491 7.38847L10.3838 11.0853Z" fill="#FFF3D9"/>
<path d="M10.3845 11.0845L7.35064 7.42949L9.5692 3.06365C9.58634 3.01628 9.61817 2.98501 9.64782 2.94443C9.68042 2.91291 9.71006 2.87232 9.74562 2.84987C9.76204 2.83448 9.77822 2.81834 9.7976 2.81203C9.84958 2.77419 9.91382 2.74238 9.97196 2.72342C9.99133 2.7171 10.0107 2.71078 10.0301 2.70446C10.0588 2.69511 10.0782 2.68879 10.1108 2.689C10.1201 2.68597 10.1331 2.69175 10.1525 2.68543C10.1618 2.6824 10.1749 2.68817 10.1842 2.68514L10.3845 11.0845Z" fill="#ECB76B"/>
</svg>
