<svg width="22" height="22" viewBox="0 0 22 22" fill="none" xmlns="http://www.w3.org/2000/svg">
<path d="M1.27581 9.23168C1.18963 8.96736 1.1964 8.69362 1.28074 8.42634C1.291 8.39208 1.30422 8.36689 1.31744 8.34169C1.32059 8.31978 1.33676 8.30364 1.34388 8.29129C1.36102 8.24393 1.38354 8.2157 1.40311 8.17841C1.41633 8.15321 1.4325 8.13707 1.44597 8.11263L1.45231 8.10054C1.46553 8.07534 1.48171 8.0592 1.49813 8.04382L1.52143 8.01534C1.56724 7.95863 1.61626 7.91173 1.66503 7.86408C1.69075 7.84567 1.717 7.82625 1.74248 7.80708C1.76897 7.78841 1.80375 7.76621 1.83025 7.74755C1.8658 7.72509 1.91089 7.70036 1.95652 7.67462C1.9759 7.6683 2.00162 7.64989 2.021 7.64357C2.05975 7.63094 2.09555 7.60924 2.1343 7.5966C2.20173 7.57462 2.27289 7.56144 2.35359 7.54598L6.92762 6.85822L8.99703 2.7914C9.03669 2.71581 9.08565 2.63718 9.13859 2.56812C9.20693 2.48318 9.26282 2.42318 9.33121 2.36997C9.35693 2.35155 9.38953 2.32004 9.43515 2.2943C9.54205 2.22769 9.6524 2.17166 9.77796 2.13072C9.81671 2.11808 9.84538 2.10873 9.88414 2.09609C9.94227 2.07714 10.0033 2.06725 10.0676 2.06717C10.0769 2.06414 10.0993 2.06689 10.1093 2.0636C10.142 2.06381 10.1707 2.05446 10.2023 2.05417C10.2116 2.05114 10.2347 2.05363 10.2666 2.0541C10.299 2.05356 10.3309 2.05402 10.3657 2.06355C10.4329 2.07254 10.5004 2.08228 10.5831 2.10712C10.628 2.11336 10.6658 2.13195 10.7046 2.15104C10.7046 2.15104 10.7139 2.14801 10.7169 2.15707L11.018 2.22598L11.0611 2.35813C11.0773 2.37373 11.0896 2.37976 11.1058 2.39535C11.1213 2.4112 11.153 2.44264 11.1815 2.46426C11.2132 2.4957 11.2478 2.5362 11.2856 2.58653C11.3011 2.60237 11.3203 2.62703 11.3296 2.65572C11.3513 2.69045 11.3736 2.72492 11.399 2.76846L13.4125 6.80812L17.9424 7.39714C18.4457 7.46279 18.8553 7.79875 19.009 8.26998C19.1198 8.60981 19.0825 8.98708 18.9074 9.30483C18.8717 9.35826 18.8452 9.40866 18.8055 9.45252C18.7597 9.50923 18.7139 9.56595 18.6649 9.61284L15.353 12.7907L16.1046 17.2309C16.1911 17.7249 15.9777 18.2222 15.5595 18.5148C15.5332 18.5343 15.5176 18.5494 15.4881 18.559C15.4788 18.562 15.4788 18.562 15.4717 18.5744C15.4452 18.593 15.4197 18.6122 15.381 18.6248C15.3717 18.6279 15.3717 18.6279 15.3616 18.6312C15.3258 18.6529 15.2971 18.6622 15.2584 18.6749C15.0779 18.7446 14.8748 18.779 14.6758 18.7604C14.5889 18.757 14.5094 18.742 14.4257 18.7166L14.4132 18.7098C14.3305 18.685 14.2438 18.6506 14.1672 18.6129L10.0983 16.5477L6.0081 18.6851C5.5584 18.9153 5.02571 18.891 4.60875 18.5984C4.51054 18.5259 4.4054 18.4349 4.32971 18.3343C4.32651 18.3244 4.31348 18.3187 4.30732 18.2998C4.22868 18.1901 4.16916 18.0733 4.12927 17.951C4.06475 17.7531 4.04804 17.5388 4.08656 17.3283L4.89317 12.8703L1.61375 9.74475C1.4529 9.61172 1.34033 9.42953 1.27581 9.23168Z" fill="#DF771E" fill-opacity="0.8"/>
<path d="M18.3889 8.47065L10.3827 11.0813L12.9508 7.36317L17.8454 8.02128C18.118 8.06856 18.3182 8.25392 18.3889 8.47065Z" fill="#FFFAF6"/>
<path d="M15.1705 18.0062L10.388 11.0915L14.654 12.5803L15.4592 17.3481C15.4944 17.6191 15.3691 17.8579 15.1705 18.0062Z" fill="#86BAC3"/>
<path d="M4.98491 18.0833L10.3822 11.0849L10.0986 15.8318L5.70358 18.1205C5.45053 18.2648 5.18186 18.2271 4.98491 18.0833Z" fill="#86BAC3"/>
<path d="M10.3815 11.0826L5.5894 12.6452L2.06636 9.29577C1.86397 9.1011 1.8227 8.84303 1.89599 8.61026L10.3815 11.0826Z" fill="#F1A341"/>
<path d="M14.6488 12.571L10.3826 11.0814L18.3888 8.47076C18.4442 8.64068 18.4322 8.83258 18.3364 8.99915C18.3232 9.02435 18.3007 9.05258 18.2774 9.08106C18.2541 9.10954 18.2316 9.13777 18.2059 9.15618L14.6488 12.571Z" fill="#FFE9BA"/>
<path d="M14.7262 18.1296C14.6813 18.1234 14.6364 18.1171 14.5915 18.1109C14.5434 18.0948 14.5056 18.0762 14.4577 18.0609L10.0927 15.8424L10.3764 11.0955L15.1589 18.0103C15.1496 18.0133 15.1425 18.0256 15.1324 18.0289C15.1223 18.0322 15.1162 18.0451 15.0968 18.0514C15.0868 18.0547 15.0868 18.0547 15.0868 18.0547C15.0775 18.0577 15.0674 18.061 15.0581 18.064C15.0387 18.0703 15.0286 18.0736 15.01 18.0797C14.9262 18.117 14.8261 18.1388 14.7262 18.1296Z" fill="#86BAC3"/>
<path d="M4.98446 18.0809C4.93044 18.0467 4.88329 17.9994 4.84225 17.9392C4.83929 17.9302 4.83929 17.9302 4.82679 17.9234C4.72949 17.788 4.68338 17.6151 4.71798 17.4267L5.58944 12.6443L10.3815 11.0817L4.98446 18.0809Z" fill="#86BAC3"/>
<path d="M10.3814 11.0827L1.89618 8.61107C1.9033 8.59873 1.9094 8.58588 1.91653 8.57353C1.92287 8.56143 1.92975 8.54833 1.93662 8.53523C1.94296 8.52313 1.94984 8.51003 1.96306 8.48483C1.96916 8.47198 1.97628 8.45964 1.98315 8.44653C1.99003 8.43343 1.9895 8.43444 1.99958 8.43115C2.00592 8.41906 2.01279 8.40595 2.02287 8.40267C2.04539 8.37444 2.06869 8.34596 2.09441 8.32754C2.10075 8.31545 2.1209 8.30888 2.1363 8.29299C2.15273 8.27761 2.1628 8.27433 2.1782 8.25845C2.19462 8.24307 2.2233 8.23372 2.24267 8.2274C2.25197 8.22436 2.27213 8.21779 2.28143 8.21476C2.3008 8.20844 2.32018 8.20212 2.33955 8.19581C2.37831 8.18317 2.41706 8.17053 2.45877 8.16696L7.35808 7.42493L10.3814 11.0827Z" fill="#FED891"/>
<path d="M10.3821 11.0835L10.1693 2.6787C10.1786 2.67566 10.1916 2.68144 10.2017 2.67816C10.224 2.6809 10.2434 2.67458 10.2559 2.68137C10.3008 2.68761 10.3356 2.69714 10.3712 2.70642C10.3936 2.70916 10.4068 2.71569 10.4316 2.72851C10.4441 2.73529 10.4672 2.73778 10.4827 2.75363C10.4949 2.75966 10.5207 2.77297 10.5337 2.77875C10.5468 2.78453 10.5622 2.80037 10.5755 2.80691C10.591 2.82275 10.6173 2.83506 10.6327 2.85091C10.645 2.85694 10.6612 2.87253 10.6674 2.89141C10.686 2.91708 10.702 2.93191 10.7214 2.95733C10.7244 2.96639 10.7369 2.97317 10.7431 2.99205C10.7585 3.0079 10.7676 3.03584 10.7871 3.06125L12.9471 7.38731L10.3821 11.0835Z" fill="#FFF3D9"/>
<path d="M10.3829 11.0827L7.34946 7.42831L9.56768 3.06316C9.58482 3.0158 9.61664 2.98453 9.64628 2.94395C9.67888 2.91244 9.70852 2.87186 9.74407 2.84941C9.76049 2.83403 9.77667 2.81789 9.79604 2.81157C9.84801 2.77374 9.91224 2.74194 9.97037 2.72298C9.98975 2.71666 10.0091 2.71035 10.0285 2.70403C10.0572 2.69468 10.0766 2.68836 10.1092 2.68857C10.1185 2.68554 10.1315 2.69132 10.1509 2.685C10.1602 2.68197 10.1732 2.68774 10.1825 2.68471L10.3829 11.0827Z" fill="#ECB76B"/>
</svg>
