<svg width="16" height="16" viewBox="0 0 16 16" fill="none" xmlns="http://www.w3.org/2000/svg">
<path d="M0.884673 8.26672L3.25801 10.0001L2.35667 12.7914C2.21101 13.2243 2.20917 13.6927 2.35141 14.1268C2.49366 14.5608 2.77237 14.9373 3.14601 15.2001C3.51324 15.4712 3.95827 15.6165 4.41478 15.6142C4.87128 15.6119 5.31484 15.4622 5.67934 15.1874L8.00001 13.4794L10.3213 15.1854C10.6879 15.455 11.1305 15.6015 11.5856 15.6037C12.0406 15.6059 12.4847 15.4638 12.8539 15.1977C13.223 14.9317 13.4983 14.5554 13.6402 14.123C13.7821 13.6907 13.7832 13.2244 13.6433 12.7914L12.742 10.0001L15.1153 8.26672C15.4814 7.99906 15.7536 7.62255 15.8929 7.19098C16.0322 6.7594 16.0316 6.29484 15.8911 5.86364C15.7506 5.43244 15.4775 5.05667 15.1107 4.78999C14.7439 4.52331 14.3022 4.37936 13.8487 4.37872H10.9333L10.0487 1.62138C9.90955 1.18736 9.63619 0.808727 9.26799 0.540094C8.89979 0.271462 8.45578 0.126709 8.00001 0.126709C7.54423 0.126709 7.10023 0.271462 6.73203 0.540094C6.36383 0.808727 6.09046 1.18736 5.95134 1.62138L5.06667 4.37872H2.15401C1.7005 4.37936 1.2588 4.52331 0.891993 4.78999C0.525185 5.05667 0.252034 5.43244 0.111554 5.86364C-0.0289254 6.29484 -0.0295472 6.7594 0.109778 7.19098C0.249102 7.62255 0.521247 7.99906 0.88734 8.26672H0.884673Z" fill="#CCCCCC"/>
</svg>
