<svg width="78" height="27" viewBox="0 0 78 27" fill="none" xmlns="http://www.w3.org/2000/svg">
<path d="M8.31298 10.7555C8.2352 10.6351 8.16482 10.4703 8.1 10.2629C8.03334 10.0555 8 9.83698 8 9.60734C8 9.18141 8.0963 8.87399 8.28704 8.6888C8.47964 8.50176 8.72779 8.40918 9.03335 8.40918H16.1872C16.265 8.52955 16.3353 8.69437 16.4001 8.90178C16.4668 9.10919 16.5002 9.32771 16.5002 9.55734C16.5002 9.98327 16.4039 10.2907 16.2131 10.4759C16.0205 10.6629 15.7724 10.7555 15.4668 10.7555H13.6464V18.3371C13.5242 18.3705 13.3371 18.4038 13.0797 18.4353C12.8223 18.4686 12.5686 18.4853 12.3168 18.4853C12.0649 18.4853 11.8427 18.4649 11.6519 18.4279C11.4612 18.389 11.3001 18.3205 11.1686 18.2223C11.0371 18.1242 10.9389 17.9871 10.8723 17.8131C10.8075 17.6371 10.7741 17.4075 10.7741 17.1223V10.7555H8.31298Z" fill="#7A3817"/>
<path d="M20.3076 8.67216C20.4946 8.5629 20.7761 8.45919 21.1539 8.36104C21.5298 8.26289 21.9113 8.21289 22.2928 8.21289C22.841 8.21289 23.3262 8.29252 23.7465 8.45178C24.1669 8.60919 24.4373 8.85919 24.5577 9.19809C24.754 9.76847 24.9688 10.4296 25.1984 11.1833C25.428 11.9389 25.6577 12.7185 25.8873 13.5223C26.117 14.3278 26.341 15.1204 26.5595 15.9019C26.7781 16.6834 26.9707 17.376 27.1337 17.9779C27.004 18.1297 26.8059 18.2538 26.5447 18.3464C26.2818 18.439 25.9688 18.4853 25.6077 18.4853C25.3447 18.4853 25.1243 18.4631 24.9447 18.4205C24.7632 18.376 24.6151 18.3112 24.5021 18.2242C24.3854 18.1371 24.2947 18.0223 24.2243 17.8797C24.1521 17.7371 24.091 17.5723 24.0336 17.3871L23.7391 16.2538H20.7687C20.6798 16.5816 20.5928 16.9205 20.5039 17.2705C20.4169 17.6205 20.328 17.9612 20.2409 18.289C20.0872 18.3427 19.9261 18.389 19.7557 18.4279C19.5872 18.4668 19.3816 18.4853 19.1409 18.4853C18.5835 18.4853 18.1687 18.389 17.902 18.1983C17.6335 18.0057 17.5001 17.7408 17.5001 17.4019C17.5001 17.2482 17.5224 17.0945 17.5649 16.9427C17.6075 16.789 17.6575 16.6093 17.7131 16.4001C17.789 16.1038 17.8964 15.739 18.0335 15.3001C18.1687 14.863 18.3187 14.3889 18.4835 13.8797C18.6483 13.3704 18.8242 12.8482 19.0094 12.313C19.1946 11.7759 19.3687 11.2703 19.5335 10.7944C19.6983 10.3185 19.8483 9.8944 19.9835 9.52218C20.1243 9.15365 20.2317 8.86846 20.3076 8.67216ZM22.2762 10.7889C22.1243 11.2481 21.9502 11.7593 21.7613 12.3241C21.5687 12.8871 21.3965 13.4593 21.2446 14.0389H23.2799C23.1262 13.4482 22.9706 12.8722 22.8114 12.3074C22.6539 11.7444 22.5076 11.2389 22.378 10.7907L22.2762 10.7889Z" fill="#7A3817"/>
<path d="M30.9893 15.1412V18.2913C30.8689 18.3246 30.68 18.3579 30.4226 18.3894C30.1652 18.4228 29.9115 18.4394 29.6596 18.4394C29.4078 18.4394 29.1855 18.4191 28.9948 18.382C28.8022 18.3431 28.6448 18.2746 28.5188 18.1765C28.3929 18.0783 28.2985 17.9413 28.2318 17.7672C28.167 17.5913 28.1337 17.3616 28.1337 17.0764V9.34667C28.1337 9.11704 28.1966 8.93925 28.3225 8.81332C28.4485 8.68925 28.6207 8.58739 28.8392 8.50961C29.2115 8.37813 29.6448 8.28183 30.1355 8.22257C30.6281 8.16331 31.1541 8.13184 31.7115 8.13184C33.2208 8.13184 34.3597 8.44851 35.1264 9.08371C35.8912 9.7189 36.2746 10.5763 36.2746 11.6597C36.2746 12.3393 36.0986 12.919 35.7486 13.3986C35.4005 13.8801 34.9838 14.2523 34.5023 14.5153C34.8949 15.0523 35.2838 15.556 35.6671 16.0246C36.0505 16.4949 36.3505 16.9209 36.569 17.3042C36.4597 17.6876 36.2597 17.9802 35.9708 18.182C35.6801 18.3839 35.356 18.4857 34.9949 18.4857C34.7541 18.4857 34.5468 18.4579 34.3708 18.4042C34.1949 18.3505 34.043 18.2728 33.9115 18.1746C33.7801 18.0765 33.6597 17.9561 33.5504 17.8135C33.4412 17.6709 33.3374 17.5172 33.2393 17.3542L31.8615 15.1394L30.9893 15.1412ZM32.0208 12.9578C32.4374 12.9578 32.7652 12.8504 33.0059 12.6375C33.2467 12.4245 33.3671 12.1097 33.3671 11.6949C33.3671 11.2782 33.2319 10.9634 32.9634 10.7504C32.6949 10.5374 32.2726 10.43 31.693 10.43C31.5282 10.43 31.3985 10.4356 31.2985 10.4467C31.2004 10.4578 31.0911 10.4745 30.9707 10.4967V12.9578H32.0208Z" fill="#7A3817"/>
<path d="M47.071 16.5983C47.071 16.9372 47.0099 17.1891 46.8895 17.3539C46.7673 17.5187 46.5765 17.6761 46.3135 17.8298C46.1598 17.9168 45.971 18.002 45.7395 18.0854C45.5098 18.1669 45.2561 18.2372 44.9839 18.2983C44.7117 18.3576 44.4228 18.4057 44.1228 18.4372C43.8209 18.4706 43.5246 18.4854 43.2283 18.4854C42.4413 18.4854 41.7024 18.378 41.0135 18.165C40.3245 17.952 39.7264 17.6298 39.2171 17.1983C38.7079 16.7668 38.306 16.2279 38.0116 15.5816C37.7153 14.9353 37.569 14.1871 37.569 13.3334C37.569 12.4371 37.7301 11.6538 38.0523 10.9852C38.3764 10.3186 38.8023 9.76299 39.332 9.32039C39.8616 8.87779 40.469 8.5463 41.1524 8.32777C41.8357 8.10925 42.5394 8 43.2617 8C44.3006 8 45.1246 8.16666 45.7321 8.50185C46.3395 8.83519 46.6432 9.27039 46.6432 9.80744C46.6432 10.0908 46.571 10.3389 46.4303 10.5445C46.2877 10.7519 46.1229 10.9167 45.9377 11.0371C45.6636 10.8723 45.3209 10.7112 44.9098 10.5519C44.5006 10.3945 44.0376 10.3149 43.5246 10.3149C42.6043 10.3149 41.8746 10.5778 41.332 11.1019C40.7913 11.6278 40.519 12.3556 40.519 13.2853C40.519 13.789 40.5931 14.2242 40.7394 14.5909C40.8876 14.9575 41.0876 15.2575 41.3394 15.4927C41.5913 15.7279 41.8802 15.9038 42.2098 16.0187C42.5376 16.1335 42.8876 16.1909 43.2579 16.1909C43.4987 16.1909 43.7117 16.1687 43.8987 16.1242C44.0858 16.0816 44.2284 16.0316 44.3247 15.9761V14.4335H42.5691C42.5043 14.3131 42.4413 14.1538 42.382 13.9575C42.3228 13.7612 42.2913 13.5538 42.2913 13.3353C42.2913 12.9408 42.382 12.6575 42.5616 12.4816C42.7431 12.3075 42.9746 12.2186 43.2579 12.2186H46.0321C46.3599 12.2186 46.6136 12.3075 46.7951 12.489C46.9765 12.6705 47.0673 12.9242 47.0673 13.2519V16.5983H47.071Z" fill="#7A3817"/>
<path d="M48.0747 10.0171C48.0747 9.54669 48.2099 9.17446 48.4859 8.90038C48.7581 8.6263 49.1322 8.48926 49.6025 8.48926H55.0174C55.0952 8.60963 55.1619 8.76705 55.223 8.9652C55.2823 9.1615 55.3137 9.37076 55.3137 9.58928C55.3137 10.006 55.223 10.3004 55.0415 10.4763C54.86 10.6523 54.623 10.7393 54.3267 10.7393H50.8637V12.2653H54.5563C54.6322 12.3856 54.7008 12.5412 54.7619 12.7319C54.8211 12.9245 54.8526 13.1282 54.8526 13.3486C54.8526 13.7653 54.7637 14.0597 54.5878 14.2338C54.4137 14.4097 54.1786 14.4968 53.8823 14.4968H50.8618V16.2209H55.0804C55.1564 16.3413 55.2249 16.4987 55.2841 16.6968C55.3434 16.8931 55.3749 17.1024 55.3749 17.3209C55.3749 17.7376 55.2841 18.0339 55.1045 18.2154C54.923 18.3969 54.686 18.4857 54.3897 18.4857H49.5988C49.1284 18.4857 48.7562 18.3487 48.4821 18.0765C48.2081 17.8024 48.071 17.4302 48.071 16.9598V10.0171H48.0747Z" fill="#7A3817"/>
<path d="M56.6879 10.7555C56.6101 10.6351 56.5397 10.4703 56.4749 10.2629C56.4082 10.0555 56.3749 9.83698 56.3749 9.60734C56.3749 9.18141 56.4712 8.87399 56.6619 8.6888C56.8527 8.50176 57.1027 8.40918 57.4083 8.40918H64.5621C64.6399 8.52955 64.7102 8.69437 64.7751 8.90178C64.8417 9.10919 64.875 9.32771 64.875 9.55734C64.875 9.98327 64.7787 10.2907 64.588 10.4759C64.3972 10.6629 64.1473 10.7555 63.8417 10.7555H62.0213V18.3371C61.9009 18.3705 61.712 18.4038 61.4546 18.4353C61.1972 18.4686 60.9435 18.4853 60.6917 18.4853C60.4398 18.4853 60.2176 18.4649 60.0268 18.4279C59.8361 18.389 59.6749 18.3205 59.5435 18.2223C59.412 18.1242 59.3138 17.9871 59.2471 17.8131C59.1823 17.6371 59.149 17.4075 59.149 17.1223V10.7555H56.6879Z" fill="#7A3817"/>
<path d="M65.875 11.7227C65.875 11.2634 66.0176 10.8801 66.301 10.5745C66.5861 10.2689 66.9732 10.1152 67.4677 10.1152C67.9603 10.1152 68.3473 10.2689 68.6325 10.5745C68.9158 10.8819 69.0584 11.2634 69.0584 11.7227C69.0584 12.1819 68.9158 12.5653 68.6325 12.8727C68.3473 13.1801 67.9603 13.332 67.4677 13.332C66.9732 13.332 66.5861 13.1783 66.301 12.8727C66.0176 12.5653 65.875 12.1819 65.875 11.7227ZM65.875 16.8765C65.875 16.4172 66.0176 16.0339 66.301 15.7283C66.5861 15.4227 66.9732 15.269 67.4677 15.269C67.9603 15.269 68.3473 15.4227 68.6325 15.7283C68.9158 16.0339 69.0584 16.4172 69.0584 16.8765C69.0584 17.3357 68.9158 17.7191 68.6325 18.0246C68.3473 18.332 67.9603 18.4858 67.4677 18.4858C66.9732 18.4858 66.5861 18.332 66.301 18.0246C66.0176 17.7191 65.875 17.3357 65.875 16.8765Z" fill="#7A3817"/>
</svg>
