<svg width="194" height="270" viewBox="0 0 194 270" fill="none" xmlns="http://www.w3.org/2000/svg">
<path d="M94.3983 138.463C94.3983 138.463 94.0383 250.163 96.5983 264.173C96.5983 264.173 90.8883 272.453 75.5383 267.433C75.5383 267.433 79.9383 159.343 77.4583 141.493C77.4583 141.493 82.8283 132.323 94.3983 138.463Z" fill="url(#paint0_linear_671_9632)"/>
<path d="M-9.8917 165.543C-10.1017 165.323 -10.0017 164.823 -9.63169 164.833C-8.03169 164.983 -6.43168 165.153 -4.84168 165.343C2.57256 164.742 9.69638 162.193 15.8083 157.953C17.3883 156.813 19.1383 155.533 20.9183 154.113C14.6589 155.868 8.13948 156.508 1.65832 156.003C1.20832 156.003 0.978313 155.283 1.49831 155.143C4.71831 154.333 7.88831 153.523 11.0583 152.603C5.81831 152.463 0.998318 150.943 -2.37168 146.943C-2.63168 146.643 -2.2217 146.263 -1.9217 146.303C1.92671 146.762 5.81465 146.786 9.66833 146.373C18.6683 142.993 28.6683 135.273 33.6683 129.743C34.5283 128.743 35.3283 127.743 36.0983 126.743C28.5383 126.473 19.6683 124.923 15.0983 119.563C14.2783 118.563 14.8783 116.753 16.3683 117.173C17.1883 117.413 18.0183 117.603 18.8483 117.783C19.6783 117.963 20.3483 117.843 21.0683 117.783C27.3148 117.016 33.3568 115.061 38.8683 112.023C36.3571 112.128 33.8555 111.653 31.5583 110.633C30.41 110.468 29.3094 110.062 28.3283 109.443C28.0783 109.283 28.0983 108.803 28.4583 108.803L28.2083 108.623C28.1553 108.574 28.118 108.51 28.101 108.439C28.0839 108.369 28.0879 108.295 28.1124 108.227C28.1369 108.159 28.1808 108.1 28.2387 108.056C28.2967 108.013 28.3661 107.987 28.4383 107.983C30.9992 108.07 33.5599 107.804 36.0483 107.193C38.6598 105.817 41.0692 104.087 43.2083 102.053C37.0083 103.223 30.6683 103.513 25.7883 101.703C25.5083 101.703 25.2083 101.833 24.9083 101.873C24.1583 101.993 23.7583 101.373 23.7483 100.743C23.3579 100.54 22.9805 100.313 22.6183 100.063C22.5226 100.012 22.446 99.9312 22.4002 99.8328C22.3544 99.7344 22.3419 99.6239 22.3644 99.5177C22.387 99.4116 22.4435 99.3157 22.5254 99.2445C22.6073 99.1733 22.7101 99.1307 22.8183 99.123C24.0883 98.963 25.5083 98.813 26.9983 98.643C34.4883 95.643 41.0683 90.823 47.4683 85.993C51.8049 82.719 55.4201 78.5864 58.0883 73.853C50.0283 75.853 41.1783 75.703 35.4283 74.213C35.3538 74.1981 35.2842 74.165 35.2256 74.1167C35.1671 74.0683 35.1214 74.0062 35.0927 73.9359C35.064 73.8656 35.0531 73.7892 35.0611 73.7137C35.069 73.6382 35.0956 73.5658 35.1383 73.503V73.453C35.1893 73.3806 35.2633 73.3277 35.3483 73.303C35.3983 73.303 35.4183 73.253 35.4683 73.243H35.6683C41.6683 71.943 47.0983 66.443 51.6683 62.663C53.0083 61.553 54.2383 60.373 55.4483 59.183C47.0883 64.793 36.9183 69.043 30.4483 64.583C30.3759 64.5432 30.3168 64.483 30.2784 64.4098C30.2401 64.3366 30.2242 64.2537 30.2327 64.1715C30.2413 64.0893 30.2739 64.0114 30.3264 63.9476C30.379 63.8839 30.4492 63.8371 30.5283 63.813C60.7683 56.463 74.7883 28.813 82.7383 1.07302C83.1083 -0.186982 85.1183 -0.476983 85.4783 0.963017C85.6283 1.57302 85.7083 2.19301 85.8183 2.80301C86.2884 2.61987 86.8103 2.62115 87.2795 2.8066C87.7487 2.99205 88.1305 3.34796 88.3483 3.80301C92.8983 16.693 98.1483 38.413 114.768 41.043C115.138 41.103 114.988 41.603 114.648 41.573C111.77 41.2357 108.988 40.3244 106.468 38.893C113.638 45.523 123.768 53.303 133.688 53.163C133.843 53.1825 133.985 53.2577 134.088 53.3746C134.192 53.4916 134.248 53.6421 134.248 53.798C134.248 53.9539 134.192 54.1045 134.088 54.2214C133.985 54.3383 133.843 54.4136 133.688 54.433C126.998 55.0207 120.261 54.1086 113.968 51.763C119.063 57.0756 125.301 61.1588 132.208 63.703C132.45 63.7587 132.659 63.908 132.79 64.118C132.922 64.3281 132.964 64.5817 132.908 64.823C132.853 65.0644 132.703 65.2737 132.493 65.405C132.283 65.5363 132.03 65.5787 131.788 65.523C124.479 64.1985 117.56 61.253 111.538 56.903C112.158 57.733 112.778 58.573 113.468 59.363C114.158 60.153 114.748 60.693 115.378 61.363C122.251 68.3301 131.537 72.3899 141.318 72.703C141.536 72.6951 141.748 72.7738 141.907 72.922C142.066 73.0701 142.16 73.2755 142.168 73.493C142.176 73.7105 142.098 73.9222 141.949 74.0816C141.801 74.241 141.596 74.3351 141.378 74.343C138.025 74.9413 134.604 75.0592 131.218 74.693C137.218 78.083 144.278 80.473 150.358 78.903C150.513 78.8553 150.681 78.8711 150.825 78.9471C150.968 79.023 151.076 79.1529 151.123 79.308C151.171 79.4632 151.155 79.6309 151.079 79.7744C151.003 79.9179 150.873 80.0253 150.718 80.073C141.658 83.513 133.528 81.863 125.058 78.073C135.698 87.813 148.448 94.463 164.298 93.073C165.289 93.8156 165.955 94.9116 166.158 96.133C157.428 101.473 147.578 103.133 137.668 102.423C138.668 103.103 139.668 103.753 140.668 104.363C150.108 110.033 160.368 113.853 171.398 114.493C171.627 114.503 171.846 114.585 172.026 114.727C172.205 114.868 172.336 115.063 172.398 115.283L175.558 115.153C175.879 115.153 176.189 115.266 176.434 115.472C176.679 115.678 176.844 115.964 176.899 116.28C176.954 116.595 176.895 116.92 176.734 117.197C176.573 117.474 176.32 117.685 176.018 117.793C164.807 121.364 152.927 122.322 141.288 120.593C142.208 121.663 143.138 122.713 144.068 123.763L144.658 124.143C151.348 128.303 159.248 128.993 166.208 132.443C166.341 132.513 166.444 132.629 166.497 132.769C166.55 132.91 166.549 133.065 166.494 133.205C166.44 133.345 166.336 133.46 166.202 133.528C166.068 133.596 165.913 133.612 165.768 133.573C160.288 132.063 154.768 131.193 149.378 129.343C151.808 131.733 154.318 134.033 157.028 136.283C164.928 142.903 176.648 152.283 187.128 152.873C187.444 152.877 187.748 152.995 187.985 153.204C188.221 153.413 188.375 153.7 188.418 154.013C189.854 153.474 191.229 152.784 192.518 151.953C192.682 151.845 192.876 151.795 193.072 151.811C193.267 151.826 193.451 151.906 193.596 152.038C193.74 152.17 193.837 152.346 193.87 152.539C193.903 152.732 193.871 152.93 193.778 153.103C189.138 160.883 174.888 161.193 166.878 161.103C161.894 161.018 156.935 160.388 152.088 159.223C156.088 161.763 160.808 163.393 165.168 164.983C165.968 165.273 165.738 166.543 164.868 166.303L159.498 164.853C167.335 169.264 176.095 171.778 185.078 172.193C185.189 172.206 185.297 172.237 185.398 172.283C186.128 172.033 186.888 171.823 187.598 171.553C188.308 171.283 188.818 172.363 188.188 172.803C171.578 184.803 147.078 182.993 128.868 172.593C131.418 174.983 134.138 177.103 137.598 177.913C137.692 177.942 137.779 177.99 137.853 178.054C137.928 178.117 137.989 178.195 138.033 178.283C138.077 178.371 138.103 178.467 138.109 178.564C138.115 178.662 138.101 178.761 138.068 178.853C141.138 179.523 144.248 180.223 147.368 181.133C148.698 181.513 148.658 183.773 147.138 183.683C135.918 182.983 124.428 182.753 114.068 178.013C110.049 176.14 106.252 173.822 102.748 171.103C105.11 174.363 107.725 177.433 110.568 180.283C110.593 180.305 110.614 180.332 110.628 180.363C110.643 180.393 110.651 180.425 110.653 180.459C110.655 180.492 110.65 180.526 110.639 180.557C110.628 180.589 110.611 180.618 110.588 180.643C110.566 180.668 110.539 180.688 110.509 180.703C110.479 180.717 110.446 180.726 110.412 180.728C110.379 180.729 110.346 180.725 110.314 180.714C110.282 180.703 110.253 180.685 110.228 180.663C104.658 175.663 98.2883 170.443 94.4483 163.843C94.7383 165.843 95.0283 167.843 95.4483 169.843C96.4483 175.223 96.9183 181.673 99.3283 186.913C100.455 188.725 101.697 190.462 103.048 192.113C103.208 192.313 103.048 192.703 102.788 192.613C99.1483 191.453 96.9883 189.543 94.3183 186.813C89.9083 182.283 84.5383 178.923 80.2683 174.203C79.4483 173.293 78.6083 172.293 77.7883 171.203C78.6457 173.896 79.8922 176.45 81.4883 178.783C81.7083 179.103 81.2283 179.393 80.9983 179.093C78.1358 175.465 75.9755 171.334 74.6283 166.913C69.3483 175.653 62.2183 182.043 54.8883 189.303C54.8353 189.36 54.7617 189.394 54.6839 189.396C54.6061 189.399 54.5303 189.371 54.4733 189.318C54.4163 189.265 54.3827 189.191 54.3799 189.114C54.3771 189.036 54.4053 188.96 54.4583 188.903C55.0383 188.173 55.5283 187.403 56.0883 186.673C54.9583 187.873 53.7983 189.063 52.6383 190.263C52.5773 190.324 52.497 190.361 52.4113 190.369C52.3257 190.377 52.24 190.354 52.169 190.306C52.0979 190.257 52.0461 190.186 52.0222 190.103C51.9984 190.02 52.0041 189.932 52.0383 189.853C54.3332 184.514 56.2415 179.016 57.7483 173.403C40.6483 180.623 17.8083 187.693 2.3583 177.623C1.6083 177.143 1.6883 175.623 2.7983 175.733C4.3283 175.833 5.9483 175.893 7.6083 175.943C11.8418 175.624 15.9939 174.61 19.8983 172.943C9.96831 174.183 0.148322 173.243 -7.46168 167.563C-8.24834 167.228 -9.01318 166.844 -9.75169 166.413C-9.8145 166.38 -9.86708 166.33 -9.90376 166.269C-9.94043 166.209 -9.95982 166.139 -9.95982 166.068C-9.95982 165.997 -9.94043 165.927 -9.90376 165.867C-9.86708 165.806 -9.8145 165.756 -9.75169 165.723L-9.8917 165.543Z" fill="url(#paint1_linear_671_9632)"/>
<path style="mix-blend-mode:screen" opacity="0.5" d="M150.748 80.0528C141.688 83.4928 133.558 81.8428 125.088 78.0528C129.1 81.797 133.569 85.0192 138.388 87.6428C140.744 88.8939 143.195 89.9572 145.718 90.8228C144.318 90.7328 142.928 90.6028 141.638 90.4628C137.507 90.0607 133.433 89.2056 129.488 87.9128C125.638 86.6128 117.488 82.0328 114.008 79.8128C116.748 86.3328 125.318 95.0328 124.558 94.6328C115.648 89.8628 112.638 86.6328 107.748 80.6328C108.108 89.5328 110.138 98.3828 109.688 107.353C109.688 108.233 110.448 110.083 109.738 109.493C106.648 106.933 93.6482 84.8728 91.7382 82.4028C89.8882 89.0028 83.4083 101.293 83.1883 100.753C81.0883 95.8128 81.7383 90.2128 81.8183 84.8728C77.1983 89.2028 64.0882 95.0828 65.0182 94.1128C73.3782 85.4728 81.2183 74.1128 81.7583 61.7028C81.8183 60.7028 85.5783 72.7028 86.7583 78.6128C90.7583 72.3628 91.1283 56.3628 91.6683 57.1428C96.6683 64.2828 99.6183 72.5228 104.068 79.9728C104.938 73.8828 101.168 59.7128 101.938 60.2828C104.474 62.269 106.882 64.4133 109.148 66.7028C111.213 68.5416 113.493 70.1232 115.938 71.4128C113.086 67.4737 110.551 63.3139 108.358 58.9728C112.308 63.6328 118.478 66.6128 124.958 68.3628C126.45 69.1355 127.994 69.8038 129.578 70.3628C133.341 71.7676 137.305 72.5577 141.318 72.7028C141.536 72.6948 141.747 72.7736 141.907 72.9217C142.066 73.0699 142.16 73.2753 142.168 73.4928C142.176 73.7102 142.097 73.922 141.949 74.0814C141.801 74.2408 141.596 74.3348 141.378 74.3428C138.025 74.9411 134.604 75.0589 131.218 74.6928C137.218 78.0828 144.278 80.4728 150.358 78.9028C150.506 78.8681 150.661 78.8897 150.794 78.9633C150.926 79.0368 151.027 79.1571 151.075 79.3007C151.124 79.4443 151.118 79.6009 151.057 79.7399C150.997 79.8789 150.886 79.9905 150.748 80.0528Z" fill="url(#paint2_linear_671_9632)"/>
<path style="mix-blend-mode:screen" opacity="0.6" d="M133.748 54.5026C133.528 54.5026 133.328 54.5026 133.098 54.5026C132.868 54.5026 132.418 54.3626 132.098 54.2626C131.935 54.3343 131.756 54.3652 131.578 54.3526C121.638 54.0126 112.298 48.6326 103.488 44.0926C105.295 45.9166 107.248 47.589 109.328 49.0926C109.498 49.2532 109.618 49.4601 109.672 49.6877C109.726 49.9153 109.712 50.1537 109.633 50.3737C109.553 50.5936 109.411 50.7855 109.223 50.9256C109.036 51.0658 108.812 51.1482 108.578 51.1626C102.248 50.6526 96.0884 46.9626 91.2284 42.6326C92.0076 44.9255 92.6487 47.263 93.1483 49.6326C93.1566 49.8608 93.0974 50.0864 92.978 50.2811C92.8586 50.4758 92.6845 50.6309 92.4773 50.727C92.2701 50.8231 92.0392 50.8559 91.8135 50.8213C91.5877 50.7867 91.3772 50.6863 91.2083 50.5326C88.2083 47.5326 86.5984 43.7426 84.4384 40.2126C82.7984 44.2726 81.7384 48.4126 79.1884 52.0726C79.0738 52.2334 78.9143 52.3567 78.7298 52.427C78.5453 52.4973 78.3442 52.5114 78.1517 52.4676C77.9592 52.4237 77.784 52.3239 77.6482 52.1806C77.5123 52.0374 77.4219 51.8571 77.3884 51.6626C77.1488 48.6689 77.082 45.6639 77.1884 42.6626C73.6208 44.6901 70.4687 47.3739 67.8983 50.5726C67.1583 51.4926 65.7983 50.2326 66.5483 49.3326C71.9383 42.8526 74.0084 34.6426 77.7784 27.2626C77.8616 27.112 77.9867 26.9889 78.1385 26.9079C78.2904 26.827 78.4624 26.7918 78.6338 26.8066C78.8052 26.8214 78.9686 26.8856 79.1043 26.9914C79.24 27.0972 79.3421 27.24 79.3983 27.4026C79.7816 29.3306 80.3234 31.2238 81.0183 33.0626C82.6583 29.9226 83.0184 26.7626 82.8484 23.0626C82.859 22.882 82.9184 22.7077 83.0203 22.5582C83.1221 22.4087 83.2627 22.2896 83.4268 22.2137C83.591 22.1377 83.7728 22.1078 83.9527 22.1269C84.1326 22.1461 84.3039 22.2137 84.4484 22.3226C86.8784 24.6026 88.7183 27.3226 90.9883 29.7726C89.7483 23.9426 87.6184 18.3526 86.5384 12.5026C85.7602 8.42571 85.2359 4.30445 84.9684 0.162598C85.1033 0.249384 85.2197 0.362161 85.3107 0.494354C85.4017 0.626548 85.4655 0.775522 85.4984 0.932602C85.6484 1.5426 85.7283 2.1626 85.8383 2.7726C86.2389 2.6227 86.6771 2.60517 87.0883 2.7226C87.3768 2.78403 87.6451 2.91696 87.8688 3.10916C88.0925 3.30137 88.2642 3.54669 88.3683 3.8226C92.9183 16.7126 98.1683 38.4326 114.788 41.0626C115.158 41.1226 115.008 41.6226 114.668 41.5926C111.79 41.2552 109.008 40.3439 106.488 38.9126C110.639 42.8704 115.236 46.3304 120.188 49.2226C124.498 51.6026 129.058 53.2226 133.568 53.2226H133.748C133.838 53.2183 133.927 53.235 134.008 53.2715C134.09 53.308 134.162 53.3632 134.218 53.4326C134.306 53.5225 134.365 53.6365 134.388 53.7601C134.41 53.8837 134.395 54.0112 134.345 54.1263C134.294 54.2413 134.21 54.3386 134.104 54.4056C133.998 54.4727 133.874 54.5065 133.748 54.5026Z" fill="url(#paint3_linear_671_9632)"/>
<path style="mix-blend-mode:screen" opacity="0.4" d="M36.4684 140.563C40.3884 139.323 44.1383 138.293 47.7483 137.073C51.3183 133.623 55.4583 130.933 59.0483 127.503C62.7883 123.923 64.8284 118.913 68.6284 115.583C68.7775 115.43 68.9673 115.324 69.1752 115.277C69.3831 115.229 69.6002 115.243 69.8006 115.316C70.001 115.388 70.1762 115.517 70.3053 115.687C70.4343 115.857 70.5118 116.06 70.5283 116.273C70.632 117.645 70.5749 119.024 70.3583 120.383C70.1283 122.273 69.1584 128.113 72.2884 123.383C73.7184 121.213 74.4684 118.773 76.2884 116.893C76.3846 116.798 76.5006 116.725 76.6281 116.68C76.7557 116.634 76.8916 116.618 77.0263 116.631C77.1609 116.645 77.291 116.688 77.4071 116.757C77.5233 116.826 77.6228 116.92 77.6984 117.033C79.9384 119.863 78.9783 123.223 78.7783 126.553C80.8783 122.773 81.5684 118.413 83.8884 114.693C83.9629 114.559 84.0706 114.446 84.201 114.365C84.3315 114.284 84.4805 114.238 84.6338 114.231C84.7871 114.224 84.9397 114.256 85.077 114.325C85.2143 114.393 85.3318 114.496 85.4184 114.623C88.1384 118.623 88.1483 123.553 88.2483 128.333C89.5183 123.903 90.1783 119.333 91.3283 114.883C91.3693 114.724 91.4553 114.58 91.5761 114.469C91.6969 114.358 91.8473 114.284 92.0091 114.257C92.1708 114.229 92.3371 114.249 92.4878 114.314C92.6385 114.379 92.7672 114.486 92.8583 114.623C96.3383 120.023 97.7983 126.293 100.428 132.083C100.428 125.583 99.3683 119.213 98.6083 112.733C98.6037 112.559 98.6498 112.388 98.7411 112.241C98.8323 112.093 98.9647 111.975 99.1219 111.902C99.2792 111.829 99.4545 111.803 99.6262 111.828C99.7979 111.853 99.9585 111.928 100.088 112.043C107.349 120.445 113.617 129.655 118.768 139.493C117.56 131.138 115.605 122.909 112.928 114.903C112.879 114.722 112.888 114.531 112.955 114.356C113.022 114.181 113.143 114.033 113.3 113.931C113.457 113.83 113.643 113.781 113.829 113.792C114.016 113.803 114.194 113.873 114.338 113.993C119.438 118.793 124.178 123.723 130.048 127.593C134.618 130.593 139.328 133.413 143.998 136.253C141.258 133.403 138.338 130.783 135.998 127.473C132.248 122.163 127.498 117.313 124.458 111.583C124.198 111.093 124.688 110.333 125.248 110.713C130.488 114.303 135.358 118.333 140.988 121.343C141.548 121.643 142.158 121.913 142.758 122.193C143.178 122.693 143.628 123.193 144.068 123.703L144.658 124.083C144.938 124.253 145.238 124.393 145.518 124.553C152.018 128.263 159.518 129.083 166.208 132.383C166.342 132.452 166.444 132.568 166.497 132.709C166.55 132.85 166.549 133.005 166.494 133.145C166.44 133.285 166.336 133.4 166.202 133.468C166.068 133.535 165.913 133.551 165.768 133.513C160.288 132.003 154.768 131.133 149.378 129.283C151.808 131.673 154.318 133.973 157.028 136.223C163.568 141.723 172.768 149.093 181.698 151.793C183.463 152.338 185.285 152.673 187.128 152.793C187.233 152.805 187.337 152.825 187.438 152.853C176.158 156.613 162.308 153.983 151.918 149.853C147.088 147.917 142.492 145.441 138.218 142.473C136.598 141.353 135.048 140.143 133.518 138.913C132.576 138.166 131.687 137.354 130.858 136.483L130.398 138.633C130.909 139.985 131.531 141.293 132.258 142.543C134.512 146.845 137.228 150.889 140.358 154.603C144.108 158.943 148.818 162.323 152.718 166.523C152.888 166.68 152.988 166.899 152.997 167.131C153.005 167.362 152.921 167.588 152.763 167.758C152.606 167.927 152.387 168.028 152.155 168.036C151.924 168.044 151.698 167.96 151.528 167.803C143.338 161.723 132.968 159.893 123.738 155.913C116.516 152.826 110.301 147.779 105.798 141.343C107.438 147.243 110.898 152.603 112.448 158.543C112.487 158.74 112.465 158.944 112.386 159.129C112.307 159.313 112.174 159.47 112.004 159.578C111.835 159.686 111.637 159.74 111.436 159.734C111.235 159.727 111.041 159.661 110.878 159.543C107.088 155.853 104.608 151.313 101.878 146.853C99.2484 142.603 96.8784 137.213 93.1984 133.663C91.2884 140.123 91.2783 147.663 86.3383 152.663C86.2193 152.785 86.0712 152.874 85.9079 152.923C85.7446 152.971 85.5716 152.977 85.4053 152.94C85.239 152.903 85.0849 152.824 84.9577 152.711C84.8305 152.598 84.7343 152.454 84.6783 152.293C83.5283 148.203 85.3183 140.873 82.6783 137.173C81.0383 141.633 78.8283 146.393 74.2083 148.103C74.0823 148.145 73.9492 148.161 73.8168 148.151C73.6844 148.141 73.5553 148.105 73.437 148.044C73.3188 147.983 73.2138 147.9 73.1282 147.799C73.0426 147.697 72.978 147.579 72.9384 147.453C72.1784 143.513 73.8783 140.073 74.8083 136.383C73.1707 138.393 71.2973 140.199 69.2284 141.763C68.6384 142.183 68.0683 141.553 68.1183 140.983C68.3744 138.875 68.909 136.81 69.7083 134.843C71.1783 130.843 70.5284 131.843 67.9683 134.263C64.6684 137.333 61.6383 139.823 57.1083 140.633C56.7983 140.683 56.4083 140.383 56.6183 140.053C58.4459 137.537 60.0392 134.859 61.3784 132.053C54.2984 137.753 45.8484 141.683 36.5984 141.443C36.4974 141.431 36.4031 141.387 36.33 141.316C36.2569 141.246 36.2092 141.153 36.1944 141.053C36.1796 140.952 36.1984 140.85 36.2479 140.761C36.2975 140.672 36.375 140.603 36.4684 140.563Z" fill="url(#paint4_linear_671_9632)"/>
<path style="mix-blend-mode:screen" opacity="0.4" d="M116.438 94.7828C117.328 95.3828 118.218 95.9528 119.118 96.5528C121.479 97.8665 123.905 99.0581 126.388 100.123C123.434 98.6943 120.604 97.0218 117.928 95.1228C117.917 95.1155 117.908 95.1062 117.9 95.0952C117.892 95.0843 117.887 95.072 117.884 95.059C117.882 95.046 117.881 95.0325 117.884 95.0195C117.886 95.0064 117.891 94.9939 117.898 94.9828C117.906 94.9716 117.915 94.962 117.926 94.9544C117.937 94.9469 117.949 94.9416 117.962 94.9388C117.975 94.936 117.989 94.9358 118.002 94.9382C118.015 94.9406 118.027 94.9455 118.038 94.9528C122.038 97.4728 126.458 99.0328 130.858 100.823C135.458 102.703 139.338 105.703 143.708 108.083C148.407 110.537 153.441 112.289 158.648 113.283C161.048 113.793 163.648 113.933 166.148 114.283C168.578 114.473 171.068 114.543 173.578 114.493C173.629 114.491 173.678 114.508 173.718 114.54C173.757 114.572 173.783 114.617 173.792 114.667C173.8 114.717 173.79 114.769 173.764 114.812C173.738 114.855 173.697 114.887 173.648 114.903C172.788 115.163 171.918 115.353 171.058 115.553C171.107 115.622 171.138 115.703 171.146 115.787C171.155 115.872 171.141 115.957 171.107 116.034C171.073 116.112 171.019 116.179 170.951 116.23C170.883 116.28 170.803 116.312 170.718 116.323C168.277 116.582 165.82 116.656 163.368 116.543C145.938 117.213 127.248 107.773 115.918 95.4628C115.598 95.1628 115.988 94.4828 116.438 94.7828Z" fill="url(#paint5_linear_671_9632)"/>
<path opacity="0.4" d="M-9.8917 165.543C-10.1017 165.323 -10.0017 164.823 -9.63169 164.833C-8.03169 164.983 -6.43168 165.153 -4.84168 165.343C0.438084 164.845 5.5913 163.434 10.3883 161.173C12.2857 160.26 14.0993 159.183 15.8083 157.953C17.3883 156.813 19.1383 155.533 20.9183 154.113C14.6589 155.868 8.13948 156.508 1.65832 156.003C1.20832 156.003 0.978313 155.283 1.49831 155.143C4.71831 154.333 7.88831 153.523 11.0583 152.603C7.23226 152.647 3.48194 151.535 0.298301 149.413C-0.697002 148.711 -1.59482 147.881 -2.37168 146.943C-2.63168 146.643 -2.2217 146.263 -1.9217 146.303C1.92671 146.762 5.81465 146.785 9.66833 146.373C11.4864 145.676 13.2569 144.861 14.9683 143.933C21.9201 140.212 28.2357 135.408 33.6783 129.703C34.5383 128.703 35.3383 127.703 36.1083 126.703C28.9183 126.453 20.5683 124.983 15.8483 120.233C15.6183 119.993 15.3383 119.783 15.1183 119.523C14.2983 118.523 14.8983 116.713 16.3883 117.133C17.2083 117.373 18.0383 117.563 18.8683 117.743C19.6983 117.923 20.3683 117.803 21.0883 117.743C27.3348 116.976 33.3768 115.021 38.8883 111.983C38.3287 112.013 37.7679 112.013 37.2083 111.983C35.6725 111.883 34.158 111.57 32.7083 111.053C32.3383 110.913 31.9583 110.793 31.5783 110.623C30.43 110.457 29.3295 110.052 28.3483 109.433C28.0983 109.273 28.1183 108.793 28.4783 108.793L28.2283 108.613C28.1754 108.563 28.138 108.5 28.121 108.429C28.1039 108.359 28.1079 108.285 28.1324 108.217C28.1569 108.149 28.2008 108.089 28.2587 108.046C28.3167 108.003 28.386 107.977 28.4583 107.973C31.0192 108.06 33.5799 107.794 36.0683 107.183C38.6798 105.807 41.0892 104.077 43.2283 102.043C42.9479 102.106 42.6641 102.152 42.3783 102.183C36.4583 103.183 30.4683 103.423 25.8083 101.693C25.5283 101.693 25.2283 101.823 24.9283 101.863C24.7585 101.886 24.5856 101.865 24.4263 101.802C24.2669 101.739 24.1264 101.636 24.0183 101.503C23.8645 101.275 23.7779 101.008 23.7683 100.733C23.3778 100.53 23.0005 100.303 22.6383 100.053C22.5426 100.002 22.466 99.9209 22.4202 99.8225C22.3744 99.7242 22.3619 99.6136 22.3845 99.5074C22.407 99.4013 22.4635 99.3054 22.5454 99.2342C22.6272 99.163 22.7301 99.1204 22.8383 99.1127C24.1083 98.9527 25.5283 98.8027 27.0183 98.6327C31.1378 96.965 35.0697 94.8667 38.7483 92.3727C41.7483 90.3727 44.6483 88.2127 47.5083 86.0527C51.8449 82.7788 55.4601 78.6461 58.1283 73.9127C51.5241 75.5005 44.6757 75.7993 37.9583 74.7927C37.1198 74.6631 36.2886 74.4895 35.4683 74.2727C35.3938 74.2579 35.3242 74.2247 35.2656 74.1764C35.2071 74.128 35.1614 74.0659 35.1327 73.9956C35.104 73.9253 35.0931 73.849 35.1011 73.7734C35.109 73.6979 35.1356 73.6255 35.1783 73.5627V73.5127C35.2293 73.4404 35.3033 73.3875 35.3883 73.3627C35.4383 73.3627 35.4583 73.3127 35.5083 73.3027H35.7083C41.7083 72.0027 47.1383 66.5027 51.7083 62.7227C53.0483 61.6127 54.2783 60.4327 55.4883 59.2427C47.1283 64.8527 36.9583 69.1027 30.4883 64.6427C30.4159 64.603 30.3568 64.5427 30.3184 64.4695C30.2801 64.3963 30.2642 64.3134 30.2727 64.2312C30.2812 64.149 30.3139 64.0711 30.3664 64.0074C30.419 63.9436 30.4892 63.8968 30.5683 63.8727C31.2983 63.7027 31.9883 63.4627 32.6983 63.2427C32.777 63.2788 32.8537 63.3188 32.9283 63.3627C33.7443 63.2876 34.5555 63.1674 35.3583 63.0027C40.5461 61.7088 45.5253 59.6889 50.1483 57.0027C59.7383 51.6927 65.0483 43.4227 71.4883 35.0027C71.5819 34.9233 71.6974 34.874 71.8195 34.8612C71.9416 34.8484 72.0647 34.8728 72.1728 34.9312C72.2808 34.9895 72.3687 35.0791 72.425 35.1882C72.4813 35.2973 72.5034 35.4209 72.4883 35.5427C70.7039 40.4399 68.1001 44.9981 64.7883 49.0227C63.4189 52.2982 61.5906 55.3622 59.3583 58.1227C59.9083 57.7527 60.4583 57.3727 60.9883 56.9727C64.0983 54.6227 66.9883 51.5327 70.4283 49.6827C70.5609 49.5753 70.7308 49.525 70.9005 49.5428C71.0702 49.5606 71.2259 49.6451 71.3333 49.7777C71.4407 49.9103 71.4911 50.0802 71.4733 50.2499C71.4554 50.4196 71.3709 50.5753 71.2383 50.6827C70.0683 52.1827 68.8183 53.6227 67.5283 55.0027C62.4483 60.8427 57.0783 65.9327 50.6383 69.7227C52.305 69.5046 53.9577 69.1908 55.5883 68.7827C64.8583 66.4727 72.5883 62.4727 78.5883 54.9427C78.6761 54.8576 78.791 54.8062 78.9129 54.7974C79.0348 54.7886 79.1559 54.823 79.255 54.8946C79.3541 54.9662 79.4247 55.0704 79.4546 55.1889C79.4845 55.3075 79.4716 55.4327 79.4183 55.5427C77.9448 57.9041 76.3354 60.1779 74.5983 62.3527C68.0183 73.9027 59.3183 84.2027 48.7883 91.1827C57.1445 86.6361 64.8029 80.9108 71.5283 74.1827C71.6465 74.0763 71.8001 74.0176 71.9592 74.0182C72.1182 74.0188 72.2714 74.0787 72.3887 74.186C72.5061 74.2934 72.5792 74.4406 72.594 74.599C72.6087 74.7574 72.5639 74.9156 72.4683 75.0427C70.3183 77.9727 68.3783 80.7027 66.1883 83.2027C59.8883 92.1427 52.0483 101.203 42.5983 106.483C49.4983 104.753 58.0283 99.3127 62.9083 94.2327C63.2983 93.8527 64.0583 94.3327 63.7183 94.8127C62.4053 96.7066 60.9189 98.4743 59.2783 100.093C57.6928 102.475 55.826 104.657 53.7183 106.593C50.5683 109.223 47.1256 111.481 43.4583 113.323C56.1083 109.813 68.7483 100.703 76.9983 90.7027C77.6883 89.8727 78.7683 90.8527 78.4283 91.7027C77.4737 94.0266 76.12 96.1655 74.4283 98.0227C72.9283 100.773 71.5783 103.533 70.1283 106.243C70.2683 106.303 70.3783 106.433 70.2983 106.593C69.2983 108.283 68.3883 109.963 67.2983 111.593C70.2483 108.593 73.0583 105.493 75.8083 102.373C76.4636 101.118 77.0284 99.818 77.4983 98.4827C77.6183 98.1527 78.2183 98.1327 78.1683 98.5527C77.707 104.336 75.6008 109.867 72.0983 114.493C71.5283 115.223 70.3283 114.493 70.5283 113.673C71.0705 111.701 71.8319 109.795 72.7983 107.993C70.1428 111.909 67.079 115.533 63.6583 118.803C61.9674 120.335 60.1621 121.735 58.2583 122.993C55.7283 125.753 53.1383 128.443 50.4083 131.133C45.5983 135.863 39.4083 138.933 33.4083 141.803C27.4625 144.662 21.1989 146.807 14.7483 148.193C25.5483 148.483 37.3383 147.943 46.2183 141.883C46.6983 141.563 47.4483 142.173 47.0883 142.683C45.9493 144.328 44.5027 145.737 42.8283 146.833C36.0052 153.477 27.9052 158.668 19.0183 162.093C16.5083 163.093 13.8983 164.033 11.2083 164.923C26.2083 162.323 42.5083 161.323 52.9083 149.173C53.2383 148.763 53.9083 149.253 53.6583 149.723C52.7483 151.113 51.8183 152.893 50.7383 154.543C50.7639 154.607 50.7639 154.679 50.7383 154.743C45.7383 163.673 39.5583 169.823 31.4283 173.633C33.3283 173.473 35.2283 173.293 37.1183 173.043C42.8014 172.396 48.3076 170.665 53.3383 167.943C57.4783 165.593 59.7883 161.123 62.3383 157.293C62.3692 157.239 62.4163 157.197 62.4727 157.172C62.5292 157.148 62.5921 157.141 62.6523 157.155C62.7125 157.168 62.7669 157.2 62.8075 157.247C62.8482 157.293 62.873 157.351 62.8783 157.413C62.8925 158.234 62.8289 159.054 62.6883 159.863C62.7115 159.884 62.7284 159.911 62.7372 159.941C62.746 159.971 62.7464 160.003 62.7383 160.033C61.5383 164.783 61.0083 170.923 59.4983 176.533C60.4983 175.323 61.4983 174.093 62.4983 172.843C67.7783 165.993 69.9983 157.843 72.8483 149.913C72.8483 149.773 73.0983 149.693 73.1783 149.863C73.2583 150.033 73.2783 150.123 73.3383 150.263C73.4183 150.153 73.5983 150.163 73.5883 150.313C73.5783 150.463 73.5883 150.763 73.5883 150.993C73.8428 151.877 73.9741 152.792 73.9783 153.713C74.8983 157.253 77.2183 160.613 78.9783 163.603C81.1283 167.253 83.3583 170.863 85.8483 174.273C88.6894 178.074 91.9612 181.534 95.5983 184.583C93.9658 180.963 92.8935 177.115 92.4183 173.173C91.4183 164.713 90.0583 153.893 93.9583 146.043C94.1283 145.713 94.5683 145.933 94.5283 146.263C94.4883 146.593 94.4583 147.143 94.4083 147.583C94.6583 147.503 94.9583 147.583 94.9583 147.933C94.8483 153.203 99.6183 158.673 102.548 162.843C106.056 167.566 110.639 171.385 115.918 173.983C121.471 176.801 127.382 178.85 133.488 180.073C124.778 174.77 118.211 166.571 114.938 156.913C114.897 156.827 114.892 156.728 114.924 156.638C114.956 156.548 115.022 156.474 115.108 156.433C115.194 156.392 115.293 156.386 115.384 156.418C115.474 156.45 115.547 156.517 115.588 156.603C116.588 158.003 117.588 159.423 118.668 160.803C118.726 160.659 118.813 160.529 118.924 160.422C119.036 160.315 119.169 160.232 119.314 160.18C119.46 160.128 119.615 160.108 119.769 160.12C119.923 160.133 120.073 160.178 120.208 160.253C131.848 166.483 143.208 171.823 156.378 174.253C163.588 175.593 170.948 174.833 178.038 173.203C179.478 172.873 180.978 172.373 182.498 171.883C183.398 171.963 184.298 172.043 185.208 172.093C185.319 172.106 185.427 172.136 185.528 172.183C186.258 171.933 187.018 171.723 187.728 171.453C188.438 171.183 188.948 172.263 188.318 172.703C187.688 173.143 186.768 173.703 185.978 174.223C169.978 184.143 147.818 182.513 130.638 173.363C130.809 173.527 130.989 173.68 131.178 173.823C132.997 175.295 134.972 176.563 137.068 177.603C137.288 177.663 137.488 177.763 137.728 177.813C137.968 177.863 137.898 177.943 137.968 178.023C139.138 178.563 140.338 179.023 141.548 179.513C143.548 179.963 145.548 180.453 147.498 181.033C147.805 181.122 148.069 181.321 148.238 181.593C148.708 182.393 148.418 183.653 147.238 183.593C137.708 182.993 127.988 182.703 118.918 179.743C117.302 179.225 115.716 178.617 114.168 177.923C110.118 176.084 106.288 173.797 102.748 171.103C105.11 174.363 107.725 177.432 110.568 180.283C110.593 180.305 110.614 180.332 110.628 180.362C110.643 180.392 110.651 180.425 110.653 180.459C110.655 180.492 110.65 180.525 110.639 180.557C110.628 180.589 110.611 180.618 110.588 180.643C110.566 180.668 110.539 180.688 110.509 180.703C110.479 180.717 110.446 180.725 110.412 180.727C110.379 180.729 110.346 180.724 110.314 180.713C110.282 180.702 110.253 180.685 110.228 180.663C104.908 175.893 98.8683 170.883 94.9883 164.663C95.2483 167.043 95.4983 169.376 95.7383 171.663C96.0883 173.793 96.3883 176.043 96.8083 178.283C97.2739 181.251 98.107 184.15 99.2883 186.913C100.415 188.725 101.657 190.462 103.008 192.113C103.168 192.313 103.008 192.703 102.748 192.613C99.1083 191.453 96.9483 189.543 94.2783 186.813C91.0583 183.523 87.3583 180.813 83.9283 177.813C82.6245 176.687 81.389 175.485 80.2283 174.213C79.4083 173.303 78.5683 172.303 77.7483 171.213C78.6056 173.906 79.8522 176.46 81.4483 178.793C81.6683 179.113 81.1883 179.403 80.9583 179.103C78.0958 175.474 75.9355 171.344 74.5883 166.923C69.3083 175.663 62.1783 182.053 54.8483 189.313C54.7953 189.37 54.7217 189.403 54.6439 189.406C54.5661 189.409 54.4903 189.381 54.4333 189.328C54.3763 189.275 54.3427 189.201 54.3399 189.123C54.3371 189.046 54.3653 188.97 54.4183 188.913C54.9283 188.273 55.4183 187.573 55.8683 186.913C55.3783 187.403 54.8683 187.913 54.4183 188.383C53.9683 188.853 53.2083 189.653 52.5983 190.273C52.5564 190.328 52.4953 190.366 52.4268 190.379C52.3584 190.392 52.2877 190.379 52.2283 190.343C52.1803 190.328 52.1359 190.304 52.0978 190.271C52.0598 190.239 52.0289 190.199 52.0073 190.154C51.9856 190.108 51.9737 190.059 51.9721 190.009C51.9706 189.959 51.9795 189.909 51.9983 189.863C54.0921 184.986 55.8594 179.974 57.2883 174.863C57.4283 174.383 57.5783 173.863 57.7083 173.403C40.6083 180.623 17.7683 187.693 2.31832 177.623C1.56832 177.143 1.64832 175.623 2.75832 175.733C4.19832 175.833 5.75832 175.883 7.28832 175.923C7.4845 175.696 7.75297 175.544 8.0483 175.493C10.1783 175.173 12.3483 174.933 14.4983 174.743C16.3238 174.253 18.1145 173.642 19.8583 172.913C10.5883 174.073 1.4283 173.263 -5.9517 168.543C-6.4717 168.213 -6.95169 167.913 -7.50169 167.543C-8.28834 167.208 -9.05319 166.824 -9.7917 166.393C-9.85451 166.36 -9.90709 166.31 -9.94376 166.249C-9.98044 166.188 -9.99983 166.119 -9.99983 166.048C-9.99983 165.977 -9.98044 165.907 -9.94376 165.846C-9.90709 165.785 -9.85451 165.736 -9.7917 165.703L-9.8917 165.543Z" fill="url(#paint6_linear_671_9632)"/>
<defs>
<linearGradient id="paint0_linear_671_9632" x1="95.5513" y1="200.957" x2="69.4413" y2="202.524" gradientUnits="userSpaceOnUse">
<stop stop-color="#6D6E00"/>
<stop offset="0.3" stop-color="#4B3F00"/>
<stop offset="0.7" stop-color="#2E2E11"/>
<stop offset="1" stop-color="#002838"/>
</linearGradient>
<linearGradient id="paint1_linear_671_9632" x1="97.0753" y1="191.733" x2="85.4743" y2="-1.61659" gradientUnits="userSpaceOnUse">
<stop offset="0.01" stop-color="#175A4D"/>
<stop offset="1" stop-color="#17781C"/>
</linearGradient>
<linearGradient id="paint2_linear_671_9632" x1="137.455" y1="93.296" x2="91.1759" y2="75.6796" gradientUnits="userSpaceOnUse">
<stop stop-color="#EDF740"/>
<stop offset="0.99" stop-color="#003E31"/>
</linearGradient>
<linearGradient id="paint3_linear_671_9632" x1="127.308" y1="53.9814" x2="84.9435" y2="27.8404" gradientUnits="userSpaceOnUse">
<stop stop-color="#EDF740"/>
<stop offset="0.99" stop-color="#003E31"/>
</linearGradient>
<linearGradient id="paint4_linear_671_9632" x1="161.416" y1="171.986" x2="88.5585" y2="125.224" gradientUnits="userSpaceOnUse">
<stop stop-color="#EDF740"/>
<stop offset="0.99" stop-color="#003E31"/>
</linearGradient>
<linearGradient id="paint5_linear_671_9632" x1="176.188" y1="102.062" x2="119.388" y2="105.47" gradientUnits="userSpaceOnUse">
<stop stop-color="#EDF740"/>
<stop offset="0.99" stop-color="#003E31"/>
</linearGradient>
<linearGradient id="paint6_linear_671_9632" x1="144.024" y1="96.0531" x2="-21.5251" y2="187.97" gradientUnits="userSpaceOnUse">
<stop stop-color="#014621"/>
<stop offset="0.71" stop-color="#223873"/>
<stop offset="1" stop-color="#003F63"/>
</linearGradient>
</defs>
</svg>
