<svg width="181" height="85" viewBox="0 0 181 85" fill="none" xmlns="http://www.w3.org/2000/svg">
<path d="M179.14 83.876C124.327 81.8977 69.4029 83.3054 11.775 84.6574C7.75684 81.9367 4.6081 78.1154 2.70595 73.6512C0.803801 69.1869 0.228875 64.269 1.05003 59.4864C2.8279 49.9385 10.7128 41.9184 20.0472 40.1616C17.7013 27.4257 23.4853 13.6855 33.6897 6.18478C35.3329 4.97895 37.0936 3.94193 38.9449 3.08949C52.3177 -3.08098 69.5718 1.31955 78.6013 13.1816C82.1296 9.96087 86.4995 7.80758 91.2032 6.97201C95.9068 6.13645 100.751 6.65292 105.173 8.46143C109.581 10.4502 113.358 13.612 116.091 17.6017C118.825 21.5913 120.409 26.2553 120.672 31.0843C124.562 27.6535 129.445 25.5521 134.611 25.0856C139.777 24.6191 144.957 25.8117 149.399 28.4902C158.187 34.0168 162.778 45.7137 160.173 55.9209C165.015 55.9716 169.643 57.923 173.06 61.3544C179.03 66.9895 182.119 76.0772 179.14 83.876Z" fill="#447263"/>
</svg>
