<svg width="14" height="16" viewBox="0 0 14 16" fill="none" xmlns="http://www.w3.org/2000/svg">
<path d="M13.3034 3.0259C13.3041 2.45044 12.9541 1.95482 12.4119 1.76322L8.11098 0.245737C7.18758 -0.0809104 6.17105 -0.0815756 5.24832 0.241746L0.895454 1.76521C0.351263 1.95548 0 2.45044 0 3.02657C0 3.60336 0.351928 4.09832 0.896119 4.28792L5.22503 5.79808C5.6834 5.95775 6.16572 6.03825 6.64738 6.03825C7.12904 6.03825 7.61069 5.95775 8.06906 5.79808L11.9702 4.4376V7.35082C11.9702 7.71805 12.2682 8.01609 12.6355 8.01609C13.0027 8.01609 13.3007 7.71805 13.3007 7.35082C13.3007 7.35082 13.3034 3.03189 13.3034 3.0259ZM8.50748 7.05478L10.6397 6.31101V6.68622C10.6397 8.8876 8.84942 10.6778 6.64805 10.6778C4.44667 10.6778 2.65642 8.8876 2.65642 6.68622V6.31167L4.78728 7.05544C5.98411 7.47257 7.31132 7.47257 8.50748 7.05544V7.05478ZM11.3049 16H1.99115C1.7796 16 1.58068 15.8995 1.45561 15.7292C1.33054 15.5589 1.29329 15.3394 1.35582 15.1371C2.05036 12.9032 4.22646 11.3431 6.64805 11.3431C9.06963 11.3431 11.2457 12.9032 11.9403 15.1371C12.0028 15.3387 11.9662 15.5589 11.8405 15.7292C11.7147 15.8995 11.5165 16 11.3049 16Z" fill="#707070"/>
</svg>
