<svg width="16" height="16" viewBox="0 0 16 16" fill="none" xmlns="http://www.w3.org/2000/svg">
<path d="M8.00006 3.33334C8.44208 3.33334 8.86601 3.50893 9.17857 3.82149C9.49113 4.13405 9.66672 4.55798 9.66672 5C9.66672 5.44203 9.49113 5.86596 9.17857 6.17852C8.86601 6.49108 8.44208 6.66667 8.00006 6.66667C7.55803 6.66667 7.1341 6.49108 6.82154 6.17852C6.50898 5.86596 6.33339 5.44203 6.33339 5C6.33339 4.55798 6.50898 4.13405 6.82154 3.82149C7.1341 3.50893 7.55803 3.33334 8.00006 3.33334ZM10.6667 9.33334V11.3333C10.6667 11.922 10.4061 12.4467 10.0001 12.8133V15.3333C10.0001 15.5102 9.92982 15.6797 9.8048 15.8048C9.67977 15.9298 9.5102 16 9.33339 16C9.15658 16 8.98701 15.9298 8.86199 15.8048C8.73696 15.6797 8.66672 15.5102 8.66672 15.3333V13.3333H7.33339V15.3333C7.33339 15.5102 7.26315 15.6797 7.13813 15.8048C7.0131 15.9298 6.84353 16 6.66672 16C6.48991 16 6.32034 15.9298 6.19532 15.8048C6.07029 15.6797 6.00005 15.5102 6.00005 15.3333V12.8133C5.7911 12.6274 5.62372 12.3995 5.50884 12.1445C5.39397 11.8894 5.33418 11.613 5.33339 11.3333V9.33334C5.33339 8.23067 6.23072 7.33334 7.33339 7.33334H8.66672C9.76939 7.33334 10.6667 8.23067 10.6667 9.33334ZM12.6667 3.33334C13.1088 3.33334 13.5327 3.15774 13.8452 2.84518C14.1578 2.53262 14.3334 2.1087 14.3334 1.66667C14.3334 1.22464 14.1578 0.800717 13.8452 0.488156C13.5327 0.175595 13.1088 0 12.6667 0C12.2247 0 11.8008 0.175595 11.4882 0.488156C11.1757 0.800717 11.0001 1.22464 11.0001 1.66667C11.0001 2.1087 11.1757 2.53262 11.4882 2.84518C11.8008 3.15774 12.2247 3.33334 12.6667 3.33334ZM15.9847 11.0853L15.4007 6.41401C15.3168 5.74784 14.9929 5.13514 14.4896 4.69073C13.9863 4.24633 13.3382 4.00075 12.6667 4C12.0241 4 11.4327 4.22934 10.9601 4.60534C10.9774 4.736 11.0001 4.86467 11.0001 5C11.0001 5.58067 10.8267 6.11934 10.5401 6.57867C10.9896 6.88397 11.3576 7.29458 11.6121 7.77471C11.8666 8.25485 11.9998 8.78994 12.0001 9.33334V11.3333C11.9983 12.0504 11.7644 12.7476 11.3334 13.3207V13.3333H13.3334V15.3333C13.3334 15.5102 13.4036 15.6797 13.5287 15.8048C13.6537 15.9298 13.8232 16 14.0001 16C14.1769 16 14.3464 15.9298 14.4715 15.8048C14.5965 15.6797 14.6667 15.5102 14.6667 15.3333V13.208C14.9865 13.0981 15.273 12.9086 15.4994 12.6573C15.6869 12.4447 15.8271 12.1947 15.9108 11.9238C15.9945 11.6529 16.0197 11.3667 15.9847 11.0853ZM5.00005 1.66667C5.00005 1.22464 4.82446 0.800717 4.5119 0.488156C4.19934 0.175595 3.77541 0 3.33339 0C2.89136 0 2.46743 0.175595 2.15487 0.488156C1.84231 0.800717 1.66672 1.22464 1.66672 1.66667C1.66672 2.1087 1.84231 2.53262 2.15487 2.84518C2.46743 3.15774 2.89136 3.33334 3.33339 3.33334C3.77541 3.33334 4.19934 3.15774 4.5119 2.84518C4.82446 2.53262 5.00005 2.1087 5.00005 1.66667ZM0.500717 12.6567C0.727383 12.9133 1.01738 13.0953 1.33338 13.2073V15.3327C1.33338 15.5095 1.40362 15.6791 1.52865 15.8041C1.65367 15.9291 1.82324 15.9993 2.00005 15.9993C2.17686 15.9993 2.34643 15.9291 2.47146 15.8041C2.59648 15.6791 2.66672 15.5095 2.66672 15.3327V13.3327H4.66672V13.32C4.23567 12.747 4.00178 12.0497 4.00005 11.3327V9.33267C4.00005 8.18867 4.58005 7.17867 5.46005 6.57801C5.1614 6.10547 5.00198 5.55833 5.00005 4.99934C5.00005 4.864 5.02272 4.73534 5.04005 4.60467C4.55626 4.21521 3.95446 4.00176 3.33339 3.99934C2.66196 4.00008 2.01385 4.24567 1.51054 4.69007C1.00723 5.13447 0.683271 5.74717 0.599383 6.41334L0.0153829 11.0853C-0.019724 11.3667 0.00539262 11.6523 0.0890668 11.9232C0.172741 12.1941 0.31306 12.4441 0.500717 12.6567Z" fill="#707070"/>
</svg>
