<svg width="844" height="390" viewBox="0 0 844 390" fill="none" xmlns="http://www.w3.org/2000/svg">
<path d="M844 -193H0V651H844V-193Z" fill="#C8EFF6"/>
<path d="M572.333 -193L422 229L499.395 -193H572.333Z" fill="#DBCF96" fill-opacity="0.57"/>
<path d="M713.18 -193L422 229L622.315 -193H713.18Z" fill="#DBCF96" fill-opacity="0.57"/>
<path d="M844 -193V-130.054L422 229L781.054 -193H844Z" fill="#DBCF96" fill-opacity="0.57"/>
<path d="M844 -62.1797V28.6854L422 229L844 -62.1797Z" fill="#DBCF96" fill-opacity="0.57"/>
<path d="M844 78.667V151.605L422 229L844 78.667Z" fill="#DBCF96" fill-opacity="0.57"/>
<path d="M844 195.004V262.997L422 229L844 195.004Z" fill="#DBCF96" fill-opacity="0.57"/>
<path d="M844 306.395V379.333L422 229L844 306.395Z" fill="#DBCF96" fill-opacity="0.57"/>
<path d="M844 429.315V520.18L422 229L844 429.315Z" fill="#DBCF96" fill-opacity="0.57"/>
<path d="M844 588.054V651H781.054L422 229L844 588.054Z" fill="#DBCF96" fill-opacity="0.57"/>
<path d="M713.18 651H622.315L422 229L713.18 651Z" fill="#DBCF96" fill-opacity="0.57"/>
<path d="M572.333 651H499.395L422 229L572.333 651Z" fill="#DBCF96" fill-opacity="0.57"/>
<path d="M455.996 651H388.004L422 229L455.996 651Z" fill="#DBCF96" fill-opacity="0.57"/>
<path d="M422 229L344.605 651H271.667L422 229Z" fill="#DBCF96" fill-opacity="0.57"/>
<path d="M422 229L221.685 651H130.82L422 229Z" fill="#DBCF96" fill-opacity="0.57"/>
<path d="M422 229L62.9455 651H0V588.054L422 229Z" fill="#DBCF96" fill-opacity="0.57"/>
<path d="M422 229L0 520.18V429.315L422 229Z" fill="#DBCF96" fill-opacity="0.57"/>
<path d="M422 229L0 379.333V306.395L422 229Z" fill="#DBCF96" fill-opacity="0.57"/>
<path d="M422 229L0 262.997V195.004L422 229Z" fill="#DBCF96" fill-opacity="0.57"/>
<path d="M422 229L0 151.605V78.667L422 229Z" fill="#DBCF96" fill-opacity="0.57"/>
<path d="M422 229L0 28.6854V-62.1797L422 229Z" fill="#DBCF96" fill-opacity="0.57"/>
<path d="M422 229L0 -130.054V-193H62.9455L422 229Z" fill="#DBCF96" fill-opacity="0.57"/>
<path d="M422 229L130.82 -193H221.685L422 229Z" fill="#DBCF96" fill-opacity="0.57"/>
<path d="M422 229L271.667 -193H344.605L422 229Z" fill="#DBCF96" fill-opacity="0.57"/>
<path d="M455.996 -193L422 229L388.004 -193H455.996Z" fill="#DBCF96" fill-opacity="0.57"/>
</svg>
