<svg width="318" height="307" viewBox="0 0 318 307" fill="none" xmlns="http://www.w3.org/2000/svg">
<path d="M247.847 283.21C214.352 314.583 109.088 314.583 75.5923 283.21C36.3021 246.408 39.8735 90.3985 75.5923 48.9951C106.043 13.6983 217.396 13.6983 247.847 48.9951C283.566 90.3985 287.137 246.408 247.847 283.21Z" fill="#C7703C"/>
<path d="M244.725 280.087C211.23 311.46 105.965 311.46 72.4699 280.087C33.1798 243.285 36.7512 87.2755 72.4699 45.872C102.921 10.5752 214.274 10.5752 244.725 45.872C280.443 87.2762 284.015 243.285 244.725 280.087Z" fill="#FFA36C"/>
<path d="M266.934 172.112C266.89 175.964 266.787 179.809 266.611 183.654C266.56 184.828 266.509 186.002 266.443 187.176C266.384 188.336 266.421 189.877 266.391 191.513C266.369 192.504 266.318 193.531 266.208 194.522C266.032 196.085 265.694 197.574 265.041 198.748C264.909 198.983 264.77 199.203 264.608 199.409C264.226 199.896 263.662 200.198 263.29 200.658C262.898 201.143 262.611 201.919 262.608 202.541C262.605 203.217 262.996 203.933 263.646 204.12C264.073 204.244 264.571 204.14 264.94 204.388C265.225 204.579 265.355 204.942 265.354 205.285C265.352 205.628 265.239 205.959 265.127 206.284C264.851 207.083 264.436 207.932 264.312 208.77C264.233 209.299 264.415 209.823 264.39 210.357C264.312 212.026 263.864 213.677 263.617 215.325C262.964 219.64 262.201 223.933 261.299 228.196C260.367 232.628 259.288 237.046 258.004 241.397C257.05 244.64 255.986 247.84 254.79 250.995C254.137 252.705 253.447 254.422 252.699 256.124C252.222 257.218 251.723 258.304 251.202 259.375C248.435 265.04 244.994 270.404 240.452 274.711C238.243 276.81 235.799 278.666 233.239 280.325C232.395 280.875 231.632 281.858 230.538 281.844C229.21 281.829 228.513 280.339 227.06 280.684C225.702 281 225.189 282.695 224.338 283.612C223.34 284.691 221.96 285.469 220.727 286.261C218.335 287.809 215.701 288.888 212.979 289.725C212.061 290.011 211.122 290.766 210.205 290.921C208.943 291.133 207.556 289.996 206.793 289.13C205.765 287.956 205.024 286.54 203.872 285.491C202.727 284.441 200.922 283.839 199.616 284.683C198.075 285.674 198.105 287.956 197.019 289.438C196.079 290.708 194.428 291.221 192.858 291.412C191.288 291.603 189.673 291.544 188.169 292.021C187.134 292.344 186.195 292.902 185.227 293.393C182.255 294.92 179.026 295.844 175.768 296.527C174.19 296.857 172.503 297.305 170.881 297.378C169.78 297.422 168.738 297.026 167.63 297.011C163.434 296.96 159.239 297.037 155.043 297.02C152.918 297.011 150.793 296.979 148.67 296.893C146.768 296.817 145.424 296.688 143.976 298.103C143.228 298.835 142.383 299.662 141.337 299.628C140.676 299.606 140.075 299.226 139.596 298.769C139.118 298.312 138.729 297.769 138.259 297.304C137.515 296.57 136.568 296.049 135.556 295.797C134.575 295.553 133.587 295.704 132.645 295.274C132.117 295.033 131.976 294.873 131.447 295.189C130.244 295.909 129.362 296.704 127.829 296.165C126.526 295.707 125.652 294.507 124.54 293.689C122.764 292.385 120.279 292.12 118.268 293.018C117.685 293.279 117.142 293.628 116.541 293.842C115.941 294.056 115.243 294.12 114.685 293.812C113.655 293.244 113.484 291.678 112.421 291.177C111.475 290.732 110.39 291.375 109.586 292.043C108.782 292.712 107.866 293.487 106.833 293.32C105.662 293.13 105.06 291.866 104.408 290.875C103.503 289.501 102.156 288.432 100.629 287.825C99.9439 287.553 99.2174 287.452 98.5585 287.125C97.8188 286.758 97.0821 286.409 96.3189 286.08C92.7336 284.531 89.2444 282.748 85.9446 280.655C84.0661 279.466 82.2536 278.175 80.5365 276.758C79.6487 276.032 78.3865 275.562 77.6014 274.755C77.572 274.74 77.55 274.711 77.528 274.689C76.8749 273.985 76.5741 272.957 76.4346 271.901C76.3026 270.954 76.3026 269.986 76.2879 269.193C76.2512 266.977 76.1191 264.511 74.5341 262.97C73.7196 262.185 72.663 261.774 71.5696 261.393C70.4836 261.004 69.3829 260.644 68.4877 259.94C66.6385 258.509 66.0809 256.007 65.6479 253.71C65.4278 252.565 65.215 251.362 65.6259 250.276C65.9928 249.285 66.866 248.405 66.7266 247.363C66.5945 246.401 65.6553 245.77 64.7307 245.492C63.8061 245.213 62.8081 245.147 61.9569 244.692C60.4086 243.877 60.7095 241.602 60.2839 240.106C59.873 238.675 59.4914 237.236 59.1172 235.784C58.9777 235.211 58.831 234.631 58.6916 234.052C57.6789 229.906 56.8204 225.723 56.0719 221.526C55.6977 219.427 55.3528 217.321 55.0373 215.215C54.9933 214.944 54.9492 214.68 54.9125 214.415C54.076 208.787 53.4376 203.137 52.9533 197.472C52.8579 196.46 52.7772 195.447 52.7038 194.427C52.6378 193.598 52.5718 192.761 52.5204 191.925C52.491 191.507 52.4617 191.096 52.4323 190.677C52.2753 188.434 52.1608 186.187 52.0596 183.941C51.8842 180.067 51.7763 176.191 51.7308 172.313C51.7081 170.376 51.7022 168.437 51.7103 166.499C51.7125 165.899 51.766 165.344 51.4542 164.814C51.0088 164.058 50.5722 163.755 51.35 163.02C51.8636 162.534 51.7521 161.85 51.7653 161.202C51.7873 160.094 51.8093 158.993 51.8387 157.885C51.846 157.569 51.8534 157.261 51.868 156.946C51.8974 155.962 51.9267 154.979 51.9634 154.003C51.9774 153.641 52.0405 153.3 51.893 152.985C51.7484 152.675 51.3639 152.362 51.1416 152.1C51.0066 151.941 50.862 151.747 50.9104 151.543C50.9669 151.306 51.2406 151.209 51.4468 151.079C51.9495 150.763 52.1439 149.907 51.9172 149.365C51.6692 148.773 50.8561 148.612 50.4694 148.133C49.8751 147.397 50.6118 146.966 51.1724 146.577C51.1966 146.56 51.2201 146.542 51.2443 146.525C52.3135 145.717 52.4815 143.971 52.5718 142.72C52.7119 140.786 52.8491 138.853 53.0128 136.921C53.34 133.059 53.7333 129.204 54.1934 125.356C54.6557 121.482 55.184 117.614 55.7931 113.769C55.9986 112.471 56.2187 111.172 56.4388 109.88C56.5195 109.418 56.6003 108.956 56.6883 108.493C56.725 108.229 56.7764 107.972 56.8277 107.716C57.1359 105.962 57.4735 104.208 57.8257 102.462C58.0752 101.236 58.266 100.414 59.2713 99.5999C60.0417 98.9762 61.1351 98.4919 61.3772 97.4279C61.5167 96.7895 61.2672 96.1291 60.9516 95.5567C60.6288 94.9917 60.2325 94.456 60.0124 93.8396C59.5795 92.5995 60.1518 91.8144 60.5627 90.7137C60.8856 89.8405 61.025 88.8425 61.2598 87.9326C61.2819 87.8446 61.3039 87.7565 61.3259 87.6685C61.5974 86.6705 61.8836 85.6799 62.1771 84.6893C62.5586 83.3611 62.9696 82.0403 63.3878 80.7195C63.4686 80.4553 63.5566 80.1985 63.6447 79.9343C66.9467 69.7639 71.2174 59.3294 78.2104 51.1183C79.9128 49.1151 81.8867 47.2366 84.0954 45.4755C90.078 40.6992 97.0696 37.2687 104.219 34.6183C106.738 33.6842 109.292 32.8462 111.871 32.0926C112.919 31.7858 114.169 31.6369 115.16 31.1849C115.969 30.8158 116.434 30.0475 117.374 29.9051C118.679 29.7077 119.869 30.0424 121.2 29.7364C122.36 29.4693 123.53 29.244 124.698 29.0187C127.595 28.4603 130.508 27.9848 133.43 27.582C135.046 27.3596 136.813 26.9369 138.44 26.9472C139.814 26.9553 140.988 27.1101 141.939 25.8377C142.312 25.3388 142.574 24.6952 143.144 24.4435C143.63 24.23 144.208 24.3775 144.66 24.6556C145.112 24.9337 145.479 25.3285 145.892 25.6616C147.326 26.8188 149.116 27.1292 150.8 26.4681C153.773 25.3013 157.687 25.8275 160.854 25.8517C164.636 25.8803 168.416 26.0168 172.189 26.2648C179.546 26.7469 186.883 27.6451 194.122 29.0466C214.074 32.9063 231.215 40.2663 240.454 51.119C241.841 52.7407 243.536 54.6559 244.835 56.6959C245.356 57.4957 245.811 58.3175 246.155 59.1541C246.368 59.653 246.537 60.1594 246.662 60.6657C246.787 61.172 246.889 61.737 246.955 62.324C246.992 62.5735 247.014 62.823 247.029 63.0725C247.043 63.3293 247.058 63.5862 247.058 63.843C247.065 64.4887 247.014 65.1124 246.911 65.6701C246.566 67.4459 244.703 69.2363 245.319 71.1222C245.745 72.4137 247.205 73.0007 248.489 73.441C249.773 73.8886 251.226 74.549 251.549 75.8698C251.754 76.6917 251.439 77.5796 251.622 78.4087C251.798 79.2379 252.444 79.8983 253.185 80.2946C254.447 80.9697 255.254 80.6248 255.709 82.085C257.25 87.0455 258.571 92.0646 259.716 97.1204C261.705 105.86 263.157 114.724 264.265 123.625C264.515 125.65 264.757 127.683 264.97 129.715C265.234 132.196 265.476 134.676 265.682 137.163C265.77 138.154 265.85 139.137 265.924 140.128C265.938 140.297 265.946 140.473 265.96 140.649C265.982 140.898 265.997 141.148 266.019 141.397C266.085 142.381 266.159 143.357 266.217 144.34C266.239 144.692 266.261 145.044 266.283 145.397C266.481 148.537 266.636 151.685 266.738 154.84C266.804 156.587 266.848 158.341 266.885 160.094C266.914 161.357 267.01 163.052 265.968 163.969C264.596 165.18 265.799 166.295 266.474 167.616C267.191 169.008 266.934 170.585 266.934 172.112Z" fill="#FFE9DB"/>
<path d="M264.403 210.26C264.241 212.102 263.823 213.951 263.617 215.323C262.964 219.638 262.201 223.93 261.299 228.194C260.367 232.626 259.288 237.043 258.004 241.395C226.752 252.152 199.653 278.378 166.324 280.227C145.8 281.364 126.142 272.977 106.469 267.004C95.2783 263.606 83.1928 261.06 71.5768 261.39H71.5695C70.4835 261.001 69.3828 260.642 68.4876 259.937C66.6384 258.507 66.0807 256.004 65.6478 253.708C65.4277 252.563 65.2149 251.359 65.6258 250.273C65.9927 249.283 66.8659 248.402 66.7265 247.36C66.5944 246.399 65.6551 245.768 64.7306 245.489C63.806 245.21 62.808 245.144 61.9568 244.689C60.4085 243.875 60.7094 241.6 60.2838 240.103C59.8729 238.672 59.4913 237.234 59.1171 235.781C85.8051 232.699 113.807 239.986 134.903 256.723C142.446 262.704 149.704 270.042 159.184 271.729C168.18 273.322 177.368 269.33 184.507 263.636C191.654 257.934 197.275 250.604 203.623 244.029C219.957 227.108 241.435 215.257 264.403 210.26Z" fill="#FFEFE6"/>
<path d="M266.934 172.111C266.89 175.963 266.787 179.808 266.611 183.653C237.421 175.875 204.899 180.366 179.385 196.678C170.947 202.071 163.286 208.609 154.781 213.9C146.277 219.183 136.591 223.249 126.582 222.882C114.335 222.441 103.365 215.536 93.2971 208.551C83.2295 201.565 72.883 194.051 60.7828 192.099C58.0898 191.666 55.2867 191.615 52.5203 191.923C52.4909 191.505 52.4616 191.094 52.4322 190.675C51.8892 182.406 51.6618 174.114 51.7131 165.829C69.7571 162.887 89.3786 170.1 100.708 184.556C108.641 194.682 113.491 208.433 125.268 213.599C136.393 218.472 149.645 213.394 158.737 205.344C167.836 197.302 174.146 186.64 182.167 177.526C196.101 161.713 215.422 150.728 236.137 146.839C236.174 146.831 236.203 146.824 236.24 146.817C236.254 146.817 236.269 146.817 236.284 146.809C239.967 146.127 243.717 145.621 247.503 145.305C247.503 145.305 247.511 145.305 247.518 145.305C253.741 144.792 260.044 144.806 266.281 145.393C266.479 148.534 266.633 151.682 266.736 154.837C266.802 156.584 266.846 158.337 266.883 160.091C266.912 161.353 267.008 163.048 265.966 163.965C264.593 165.176 265.797 166.292 266.472 167.612C267.191 169.007 266.934 170.584 266.934 172.111Z" fill="#FFEFE6"/>
<path d="M264.968 129.711C236.951 141.334 204.239 141.635 176.216 129.887C167.748 126.336 158.964 121.647 149.916 123.217C131.102 126.497 124.828 153.567 106.388 158.52C99.6004 160.34 92.3285 158.703 85.8271 156.04C79.3257 153.376 73.2646 149.7 66.6972 147.205C62.133 145.466 57.3487 144.343 52.4983 143.822C52.8945 137.651 53.4596 131.487 54.1933 125.353C54.6556 121.478 55.184 117.611 55.793 113.766C58.5301 114.925 61.1203 116.562 63.4024 118.433C69.0379 123.048 73.4113 129.014 78.6873 134.033C83.9706 139.052 90.7068 143.257 97.986 142.978C108.648 142.575 116.419 133.109 122.575 124.399C128.739 115.696 136.151 106.076 146.768 105.107C153.761 104.469 160.395 107.83 166.999 110.222C184.962 116.723 204.936 116.217 223.442 111.455C236.049 108.211 248.12 103.141 259.714 97.1162C261.702 105.856 263.155 114.72 264.263 123.621C264.513 125.646 264.755 127.679 264.968 129.711Z" fill="#FFEFE6"/>
<path d="M244.832 56.6922C232.527 53.9552 220.089 51.9446 207.519 52.2821C197.341 52.5536 186.767 54.5716 178.732 60.8235C172.04 66.0407 167.579 73.8336 160.454 78.4418C153.211 83.1381 144.061 83.9379 135.483 82.9766C126.905 82.0227 118.598 79.4618 110.101 77.9355C94.7206 75.1691 78.7386 75.8955 63.6445 79.9314C66.9466 69.7611 71.2173 59.3265 78.2103 51.1154C79.9127 49.1122 81.8866 47.2337 84.0953 45.4726C94.4051 46.8301 104.348 51.02 112.376 57.6462C116.727 61.2344 120.513 65.4684 124.887 69.0273C129.26 72.5861 134.441 75.5213 140.069 75.8222C149.19 76.3065 157.291 69.8491 162.772 62.5332C168.246 55.2246 172.121 46.7127 178.343 40.0205C182.761 35.2729 188.184 31.6553 194.12 29.043C214.072 32.9027 231.213 40.2626 240.452 51.1154C241.838 52.7371 243.533 54.6523 244.832 56.6922Z" fill="#FFEFE6"/>
<path d="M246.953 62.3199C231.206 58.9665 214.703 56.2735 198.802 60.2286C191.933 61.9383 185.248 64.8368 179.694 69.2836C174.264 73.6276 170.257 79.3365 165.906 84.6932C161.525 90.0866 156.594 94.9883 150.085 97.696C143.312 100.514 135.762 100.851 128.563 99.9267C112.809 97.8941 98.7638 89.6463 83.1634 86.9973C75.8842 85.7645 68.3849 86.1168 61.2598 87.9292C61.2818 87.8412 61.3038 87.7531 61.3258 87.6651C61.5973 86.6671 61.8835 85.6765 62.177 84.6859C62.9915 84.5024 63.8207 84.341 64.6425 84.1942C72.2813 82.8514 79.9788 83.1743 87.5368 84.8767C102.932 88.3475 117.138 96.6393 133.142 97.4025C140.348 97.74 147.671 96.4852 153.762 92.4347C159.544 88.597 163.682 82.8 167.938 77.436C172.407 71.8152 177.272 66.7667 183.539 63.1417C189.798 59.5315 196.828 57.3081 203.945 56.2148C218.086 54.0427 232.262 56.2588 246.153 59.1499C246.366 59.6489 246.535 60.1552 246.659 60.6615C246.784 61.1679 246.887 61.7329 246.953 62.3199Z" fill="#FFEFE6"/>
<path d="M265.921 140.125C261.122 141.512 256.287 142.781 251.414 143.867C241.317 146.105 231.074 147.521 220.72 147.36C220.647 147.36 220.566 147.36 220.492 147.353H220.47C215.686 147.272 210.916 146.817 206.206 145.988C201.451 145.144 196.82 143.794 192.153 142.598C183.451 140.374 173.992 138.73 165.876 143.662C159.192 147.727 154.869 154.69 150.988 161.258C146.974 168.045 143.048 175.031 137.068 180.322C134.265 182.802 131.065 184.857 127.477 186.009C123.441 187.307 119.119 187.241 115.032 186.185C114.21 185.972 113.403 185.722 112.603 185.444C111.921 185.209 111.238 184.952 110.57 184.666C107.738 183.499 105.023 182.009 102.396 180.469C98.2208 178.025 94.1262 175.457 90.0023 172.94C85.9591 170.474 81.7472 167.994 77.3958 165.734C76.2511 165.132 75.0917 164.553 73.925 163.995C66.8585 160.597 59.4693 157.926 51.8672 156.943C51.8965 155.96 51.9259 154.977 51.9626 154.001C66.998 155.835 80.8006 163.863 93.6199 171.714C94.1556 172.037 94.6913 172.367 95.2196 172.69C97.3256 173.989 99.4242 175.303 101.552 176.579C103.526 177.768 105.529 178.92 107.569 179.999C111.649 182.156 116.111 183.991 120.792 184.064C128.783 184.189 135.189 178.906 139.944 172.984C149.417 161.184 154.312 143.097 170.477 138.466C179.62 135.847 189.16 138.774 198.031 141.108C207.563 143.618 217.132 144.77 226.994 144.329C240.158 143.735 253.036 140.836 265.679 137.16C265.767 138.151 265.848 139.134 265.921 140.125Z" fill="#FFEFE6"/>
<path d="M266.391 191.512C266.369 192.503 266.318 193.53 266.208 194.521C252.64 189.898 238.008 188.643 223.817 190.551C208.847 192.561 194.318 198.101 181.998 206.856C178.82 209.108 175.827 211.596 172.987 214.26C169.839 217.202 166.83 220.299 163.536 223.087C160.248 225.883 156.697 228.297 152.705 229.977C148.882 231.584 144.831 232.494 140.715 232.861C122.818 234.461 106.513 225.677 91.7928 216.6C79.6339 209.101 67.0053 200.706 52.9532 197.47C52.8578 196.458 52.7771 195.445 52.7037 194.425C69.3241 197.947 83.5376 208.323 97.92 216.886C112.544 225.604 129.913 233.441 147.26 228.759C151.391 227.637 155.2 225.751 158.663 223.234C162.2 220.658 165.311 217.547 168.459 214.516C174.154 209.028 180.237 204.097 187.068 200.083C200.247 192.349 215.29 187.916 230.523 186.955C242.646 186.192 254.878 187.696 266.391 191.512Z" fill="#FFEFE6"/>
<path d="M252.699 256.122C252.222 257.215 251.723 258.301 251.202 259.373C243.739 260.943 236.423 263.445 229.401 266.263C215.261 271.935 201.818 279.222 187.45 284.344C180.42 286.846 173.2 288.79 165.788 289.752C158.296 290.72 150.775 290.427 143.342 289.099C128.446 286.428 114.555 280.066 99.8278 276.734C92.6367 275.105 85.0126 274.151 77.6013 274.753C77.5719 274.738 77.5499 274.709 77.5279 274.687C76.8748 273.983 76.574 272.955 76.4346 271.899C85.6437 270.989 95.1609 272.442 104.032 274.731C118.84 278.561 133.032 285.048 148.317 286.905C163.55 288.761 178.41 284.909 192.476 279.317C206.881 273.586 220.551 266.146 235.176 260.943C240.87 258.918 246.74 257.223 252.699 256.122Z" fill="#FFEFE6"/>
<path d="M265.041 198.747C264.909 198.982 264.769 199.202 264.608 199.407C264.204 199.334 263.801 199.261 263.397 199.195C248.391 196.634 232.769 198.006 218.35 202.856C211.173 205.27 204.283 208.565 197.914 212.674C191.456 216.835 185.821 221.972 180.134 227.086C174.711 231.966 169.12 236.831 162.589 240.184C155.449 243.853 147.502 245.181 139.526 244.638C122.355 243.464 107.276 234.637 92.1084 227.365C80.265 221.693 67.8712 217.532 55.0372 215.213C54.9932 214.942 54.9492 214.678 54.9125 214.413C61.0983 215.492 67.2108 216.996 73.1839 218.919C81.3583 221.546 89.1512 225.061 96.834 228.854C112.207 236.449 128.314 245.005 146.013 243.949C154.187 243.457 161.65 240.5 168.327 235.84C174.587 231.474 180.024 226.081 185.747 221.069C197.063 211.163 210.212 203.928 224.815 200.178C237.935 196.81 251.737 196.267 265.041 198.747Z" fill="#FFEFE6"/>
<path d="M266.017 141.394C260.411 142.84 254.738 144.058 249.03 145.048C248.523 145.136 248.024 145.224 247.518 145.305C247.511 145.305 247.503 145.305 247.503 145.305C243.776 145.921 240.033 146.413 236.284 146.809C236.269 146.817 236.254 146.817 236.24 146.817C230.743 147.411 225.233 147.815 219.693 148.13C210.616 148.644 201.047 149.341 192.953 153.912C185.094 158.352 180.244 166.115 175.306 173.38C170.382 180.63 164.798 187.527 157.394 192.385C150.026 197.213 140.839 199.789 132.085 197.874C123.698 196.032 117.035 190.22 110.695 184.776C110.651 184.739 110.614 184.702 110.57 184.666C103.768 178.832 96.6284 173.717 88.4613 169.946C84.8731 168.287 81.1748 166.886 77.3957 165.734C69.1039 163.202 60.4305 161.918 51.7571 161.947C51.7571 161.698 51.7571 161.448 51.7644 161.199C59.2271 161.177 66.6971 162.131 73.9249 163.995C80.3529 165.653 86.5902 168.038 92.4678 171.098C92.8567 171.296 93.2383 171.501 93.6199 171.714C96.3496 173.182 98.9986 174.811 101.552 176.579C102.315 177.1 103.064 177.643 103.805 178.194C106.857 180.468 109.712 182.978 112.603 185.443C112.955 185.752 113.315 186.06 113.674 186.361C120.601 192.238 128.196 197.632 137.64 197.771C147.267 197.911 156.22 193.332 163.169 186.926C169.853 180.755 174.388 173.02 179.672 165.726C182.13 162.344 184.808 159.078 188.037 156.415C191.273 153.744 194.993 151.799 198.97 150.486C205.89 148.204 213.213 147.741 220.47 147.352H220.492C222.173 147.257 223.846 147.176 225.512 147.074C234.2 146.531 242.858 145.459 251.414 143.867C256.294 142.964 261.144 141.886 265.958 140.646C265.98 140.895 265.995 141.144 266.017 141.394Z" fill="#FFEFE6"/>
<path d="M247.056 63.8391C234.339 60.6911 220.991 60.3462 208.811 65.9231C201.583 69.2325 196.013 74.6625 190.84 80.5695C186.107 85.9702 181.616 91.7232 175.878 96.1259C173.104 98.2539 170.044 100.008 166.72 101.138C162.985 102.407 159.015 102.825 155.082 102.855C146.952 102.913 138.873 101.292 130.742 101.798C126.773 102.048 122.803 102.877 119.273 104.785C115.714 106.707 112.933 109.635 110.204 112.563C107.613 115.329 104.994 118.169 101.706 120.121C98.2722 122.153 94.2877 122.946 90.3326 122.711C81.5197 122.183 73.7562 117.501 66.2715 113.282C63.2336 111.572 60.0196 109.848 56.6882 108.49C56.7249 108.226 56.7763 107.969 56.8276 107.712C61.612 109.65 66.1468 112.387 70.5275 114.874C78.1003 119.174 87.3901 123.621 96.3203 121.508C104.708 119.519 108.949 111.704 115.245 106.612C121.379 101.651 129.099 100.727 136.745 101.035C145.037 101.373 153.446 102.965 161.73 101.615C169.355 100.367 175.548 96.0819 180.868 90.6738C186.07 85.3832 190.488 79.3735 195.8 74.1782C201.656 68.462 208.649 64.4335 216.603 62.4376C226.788 59.884 237.061 60.5957 247.026 63.0686C247.041 63.3254 247.056 63.5823 247.056 63.8391Z" fill="#FFEFE6"/>
<path d="M81.9072 266.159C81.7208 267.371 82.1406 268.606 82.768 269.658C83.3337 270.608 84.1042 271.477 85.1146 271.923C86.1258 272.369 87.4041 272.313 88.2362 271.586C89.0874 270.841 89.298 269.617 89.4124 268.491C89.5218 267.42 89.5717 266.258 88.9883 265.354C88.526 264.636 87.7218 264.194 86.8926 263.992C86.0568 263.788 84.6362 263.527 83.7901 263.729C82.7672 263.975 82.0555 265.2 81.9072 266.159Z" fill="#FFA36C"/>
<path d="M69.0682 254.602C69.204 255.422 69.7022 256.176 70.4037 256.623C71.1338 257.088 72.1509 257.188 72.8421 256.668C73.3631 256.276 73.6118 255.614 73.6992 254.967C73.7674 254.46 73.7469 253.923 73.515 253.466C73.1965 252.841 72.5207 252.46 71.8324 252.325C71.2586 252.212 70.0089 252.068 69.5393 252.459C69.0315 252.881 68.9713 254.017 69.0682 254.602Z" fill="#FFA36C"/>
<path d="M233.651 272.038C233.661 272.99 234.352 273.896 235.268 274.156C236.184 274.416 237.249 274.009 237.758 273.204C238.39 272.206 238.148 270.403 236.955 269.951C235.457 269.385 233.633 270.333 233.651 272.038Z" fill="#FFA36C"/>
<path d="M221.769 272.795C221.369 273.324 221.044 273.989 221.207 274.631C221.317 275.064 221.631 275.413 221.946 275.729C222.543 276.328 223.185 276.882 223.864 277.387C224.471 277.837 225.189 278.266 225.934 278.144C226.891 277.988 227.47 277.006 227.781 276.087C228.181 274.906 228.357 273.583 227.886 272.429C227.417 271.279 226.251 270.5 225.002 270.638C223.744 270.778 222.51 271.816 221.769 272.795Z" fill="#FFA36C"/>
<path d="M229.338 275.479C229.229 275.666 229.242 275.905 229.321 276.107C229.399 276.309 229.535 276.483 229.669 276.653C229.928 276.98 230.19 277.312 230.526 277.558C230.862 277.805 231.288 277.96 231.698 277.885C232.094 277.813 232.432 277.534 232.635 277.187C232.918 276.702 232.951 276.079 232.72 275.567C232.48 275.034 231.877 274.502 231.265 274.538C230.767 274.568 229.591 275.043 229.338 275.479Z" fill="#FFA36C"/>
<path d="M259.428 156.979C259.736 157.32 260.096 157.639 260.538 157.768C261.128 157.939 261.773 157.74 262.281 157.395C264.546 155.853 263.88 151.8 261.087 151.266C257.666 150.614 257.89 155.274 259.428 156.979Z" fill="#FFA36C"/>
<path d="M259.695 167.784C259.852 168.208 260.153 168.569 260.5 168.86C260.719 169.043 260.973 169.209 261.258 169.229C261.622 169.255 261.963 169.039 262.214 168.775C262.678 168.288 262.931 167.567 262.742 166.921C262.151 164.898 258.909 165.655 259.695 167.784Z" fill="#FFA36C"/>
<path d="M256.231 160.069C255.985 160.086 255.706 160.12 255.561 160.32C255.456 160.467 255.455 160.671 255.523 160.839C255.591 161.006 255.717 161.143 255.853 161.263C256.283 161.641 256.828 161.886 257.396 161.956C257.607 161.982 257.826 161.983 258.025 161.905C258.223 161.828 258.395 161.66 258.43 161.451C258.513 160.946 257.845 160.533 257.498 160.287C257.054 159.971 256.79 160.038 256.231 160.069Z" fill="#FFA36C"/>
<path d="M58.7077 105.97C58.572 106.542 58.5118 107.173 58.7848 107.693C59.1267 108.344 59.9368 108.653 60.6662 108.563C61.3956 108.473 62.0472 108.051 62.5814 107.547C63.244 106.921 63.7789 106.128 63.958 105.235C64.137 104.341 63.9191 103.344 63.2712 102.703C62.519 101.959 61.2297 101.843 60.4916 102.642C59.6264 103.578 59.0027 104.73 58.7077 105.97Z" fill="#FFA36C"/>
<path d="M59.1935 111.696C59.5795 111.827 60.0454 111.72 60.3096 111.409C60.5738 111.098 60.5958 110.596 60.3338 110.283C59.9875 109.871 59.09 109.853 58.7026 110.243C58.23 110.718 58.6505 111.512 59.1935 111.696Z" fill="#FFA36C"/>
<path d="M243.669 64.0838C243.504 65.0179 243.121 65.9285 242.476 66.6241C241.825 67.3271 240.906 67.7901 239.949 67.8356C238.992 67.8819 238.011 67.4937 237.386 66.768C236.924 66.2316 236.666 65.5396 236.569 64.8374C236.472 64.1351 236.527 63.4212 236.631 62.7204C236.766 61.8105 236.988 60.9006 237.439 60.0993C237.89 59.298 238.592 58.6097 239.463 58.3184C240.34 58.0248 241.614 58.2266 242.315 58.8716C243.125 59.6172 243.55 61.004 243.7 62.0563C243.796 62.7285 243.788 63.4153 243.669 64.0838Z" fill="#FFA36C"/>
<path d="M241.369 71.3483C241.696 71.6052 242.128 71.713 242.543 71.68C242.806 71.6587 243.071 71.5802 243.278 71.4173C244.414 70.5236 243.093 69.2181 242.061 69.1631C240.834 69.0985 240.455 70.6307 241.369 71.3483Z" fill="#FFA36C"/>
<path d="M237.74 68.981C237.552 69.0492 237.35 69.1725 237.323 69.3706C237.293 69.5922 237.497 69.775 237.698 69.8711C238.034 70.0325 238.423 70.0795 238.789 70.0039C239.035 69.9525 239.296 69.8204 239.371 69.5798C239.448 69.3339 239.294 69.0624 239.078 68.9215C238.568 68.5884 238.236 68.7997 237.74 68.981Z" fill="#FFA36C"/>
<path d="M246.982 52.4448C181.379 51.0154 115.728 51.6699 50.1657 54.4055L48.169 50.9831C47.717 48.0076 48.7832 45.3344 48.3407 42.3654C52.4529 41.821 56.6861 40.9441 60.7983 40.3996C56.8945 39.9043 52.9908 39.409 49.087 38.9144C48.9953 38.0772 47.0903 35.492 47.0903 35.492C46.755 32.4336 48.1404 30.2865 47.805 27.2281C49.3952 26.6476 50.931 26.1244 52.6143 25.9447C51.2054 25.9116 49.7966 25.8793 48.3877 25.8463C48.5645 24.7787 46.391 22.4239 46.391 22.4239C46.5627 20.0927 48.9109 17.9243 48.7839 15.6041C52.2166 14.8593 55.7219 14.8233 59.2346 14.8747C54.8905 14.4095 50.5458 13.945 46.2017 13.4797C46.0872 12.9411 44.2051 10.0573 44.2051 10.0573C43.8499 8.38503 44.8552 7.14052 44.729 6.54688C118.95 4.61848 195.115 -0.263433 269.292 2.5191L271.408 5.41538C272.173 8.51785 272.058 11.4317 272.823 14.5342C270.841 14.736 269.395 15.0559 267.413 15.257C269.407 15.4925 271.401 15.7281 273.395 15.9629C273.75 18.3198 274.106 20.676 274.461 23.033C269.393 23.5686 264.739 24.5585 259.643 24.5211C264.097 25.7891 268.551 27.0578 273.005 28.3258C273.002 32.1584 272.999 35.9917 272.996 39.8243C272.995 40.3321 272.992 40.8568 272.783 41.3198C272.473 42.0095 271.749 42.4403 271.008 42.5936C270.268 42.7463 269.501 42.6634 268.75 42.5797C270.273 43.0251 271.797 43.4705 273.32 43.9159C273.512 46.5627 273.692 48.9652 273.884 51.6119C264.893 52.1594 255.974 51.8937 246.982 52.4448Z" fill="#7A3817"/>
<path d="M271.324 40.4866C271.518 43.1341 271.699 45.5402 271.887 48.1878C266.423 48.5231 260.981 48.5561 255.538 48.6567C255.364 48.6567 255.196 48.6633 255.023 48.6699C254.533 48.6699 254.044 48.6831 253.555 48.6963C253.548 48.6963 253.548 48.6963 253.548 48.6963C253.401 48.6963 253.26 48.7029 253.112 48.7029C250.411 48.7565 247.704 48.8504 244.989 49.0177C241.631 48.9436 238.272 48.8768 234.914 48.8166C234.814 48.8166 234.713 48.81 234.613 48.81C234.177 48.8034 233.735 48.7968 233.299 48.7902C233.212 48.7836 233.132 48.7836 233.045 48.7836C231.215 48.7499 229.371 48.7168 227.535 48.6897C227.362 48.6897 227.193 48.6831 227.02 48.6831C226.49 48.6765 225.961 48.6633 225.424 48.6567C225.424 48.6567 225.424 48.6567 225.418 48.6567C225.217 48.6567 225.016 48.6501 224.815 48.6501C218.031 48.5429 211.261 48.4622 204.478 48.402H204.472C204.197 48.402 203.915 48.3954 203.64 48.3954C202.943 48.3888 202.246 48.3888 201.549 48.3822C201.247 48.3822 200.939 48.3756 200.638 48.3756C189.438 48.2883 178.244 48.2619 167.037 48.3088C167.037 48.3088 167.037 48.3088 167.03 48.3088C166.507 48.3088 165.984 48.3154 165.462 48.3154C164.235 48.322 163.009 48.322 161.782 48.3287H161.775C161.138 48.3287 160.501 48.3353 159.872 48.3353C159.865 48.3419 159.865 48.3419 159.859 48.3353C140.012 48.449 120.171 48.7579 100.339 49.2466C100.03 49.2532 99.7288 49.2598 99.4206 49.2738C98.7235 49.287 98.0198 49.3075 97.3227 49.3273C97.0343 49.3339 96.7533 49.3406 96.4649 49.3545C96.4583 49.3611 96.4583 49.3611 96.4583 49.3545C80.3582 49.7698 64.2654 50.3128 48.1719 50.9835C47.9708 49.6231 47.7632 48.2619 47.5482 46.8948C47.5284 46.7605 47.5078 46.6197 47.488 46.4861C47.441 46.1442 47.3875 45.8088 47.3339 45.4676C47.3141 45.3333 47.2935 45.1924 47.2737 45.0589C47.0793 43.799 46.8848 42.5383 46.697 41.285V41.2784C46.6772 41.1375 46.6566 41.0032 46.6368 40.8631C46.5898 40.5417 46.5429 40.2261 46.4893 39.9047V39.8974C46.4695 39.7565 46.4489 39.6156 46.4291 39.4821C46.402 39.3008 46.3756 39.1203 46.3484 38.9391C47.2737 38.8187 48.1983 38.6778 49.1368 38.5237C50.4973 38.3095 51.8651 38.0747 53.2321 37.8464C53.2593 37.8398 53.2857 37.8332 53.3128 37.8332C55.1561 37.525 56.9928 37.2169 58.8023 36.9754C58.6548 36.9556 58.5007 36.9351 58.3532 36.9219H58.3334C57.8036 36.8478 57.2812 36.781 56.7514 36.7142C53.5337 36.3055 50.3102 35.8968 47.0925 35.4873C46.9318 34.0527 46.7777 32.6116 46.617 31.1777C46.6038 31.0303 46.5832 30.8894 46.57 30.7419C46.5363 30.4469 46.5099 30.1453 46.4761 29.8503C46.4629 29.7028 46.4423 29.5619 46.4291 29.4144C46.2215 27.544 46.0204 25.6743 45.8128 23.8039C46.6573 23.4957 47.4887 23.2007 48.326 22.9725C48.3326 22.9725 48.3392 22.9725 48.3392 22.9725C48.7479 22.8521 49.15 22.7582 49.5661 22.6775C49.9146 22.6107 50.2632 22.5572 50.6183 22.5168C49.6864 22.497 48.7479 22.4765 47.8167 22.4566C47.361 22.4434 46.9186 22.4368 46.4629 22.4229H46.3932C46.4064 22.3561 46.413 22.2952 46.4269 22.2284C46.4937 21.7926 46.5546 21.3567 46.6016 20.9215C46.6889 20.2582 46.7491 19.5941 46.796 18.9242C46.8232 18.4817 46.8496 18.0392 46.8628 17.5975C46.9296 15.7879 46.89 13.9711 46.7894 12.1814C50.2214 11.4373 53.7267 11.3969 57.2393 11.4505C52.896 10.9816 48.5527 10.5186 44.2094 10.0563C43.9144 8.6687 43.6128 7.27449 43.3245 5.8869C43.2841 5.71299 43.2437 5.53834 43.2107 5.36443C43.0904 4.79428 42.9693 4.23146 42.849 3.66864V3.66204C42.8152 3.48079 42.7756 3.30028 42.7352 3.11903H42.755C57.2063 2.74333 71.6503 2.38157 86.0884 2.05357C87.5163 2.02715 88.9435 1.9934 90.3715 1.96625C94.2056 1.87893 98.0396 1.79894 101.866 1.71823C102.745 1.70502 103.616 1.68447 104.487 1.67126C111.887 1.52377 119.281 1.39682 126.674 1.28896C127.149 1.27575 127.625 1.26914 128.102 1.26254C132.867 1.19577 137.639 1.13486 142.405 1.0813C143.203 1.06809 144.007 1.06148 144.805 1.05414C146.943 1.02699 149.081 1.00718 151.226 0.993972H151.233C152.165 0.980764 153.096 0.974161 154.035 0.966823C160.469 0.913256 166.91 0.879501 173.345 0.866293H175.563C203.675 0.825934 231.786 1.1877 259.937 2.16657C260.93 2.20033 261.915 2.23335 262.9 2.27371C264.461 2.32727 266.024 2.38744 267.585 2.44761C268.154 2.46743 268.725 2.49458 269.294 2.51439C269.307 2.57456 269.32 2.63473 269.334 2.69563C269.81 4.6666 269.978 6.34845 270.252 8.13156C270.326 8.6276 270.406 9.13025 270.507 9.64611V9.65271C270.601 10.1216 270.701 10.6044 270.828 11.1071C270.078 11.1805 269.4 11.2744 268.75 11.3749C268.475 11.4153 268.207 11.4556 267.939 11.4953C267.216 11.6024 266.485 11.7169 265.667 11.8035C265.586 11.8101 265.5 11.824 265.419 11.8299C265.472 11.8365 265.533 11.8431 265.586 11.8504C266.102 11.9106 266.612 11.9708 267.128 12.0317C267.316 12.0515 267.51 12.0786 267.697 12.0984C268.931 12.2459 270.164 12.3868 271.397 12.5343C271.752 14.8934 272.107 17.246 272.463 19.6059C267.395 20.1423 262.743 21.1343 257.65 21.094C262.1 22.3605 266.558 23.6278 271.008 24.9009V29.821C271.008 30.5716 271.002 31.3157 271.002 32.073V36.3965C271.002 36.9057 270.995 37.4289 270.787 37.8912C270.479 38.5817 269.755 39.0102 269.011 39.1651C268.273 39.3192 267.503 39.2392 266.752 39.1519C268.281 39.6024 269.803 40.0449 271.324 40.4866Z" fill="#A8592C"/>
<path d="M271.009 28.469V29.8228C258.95 27.3962 246.564 26.6521 234.271 27.2421C217.159 28.0669 200.422 31.5524 184.047 36.4453C167.632 41.3448 151.083 47.1359 133.763 47.3707C116.115 47.6055 99.3112 41.5261 82.0385 38.872C70.3888 37.0822 57.7412 36.9347 46.6947 41.2781C46.6749 41.1372 46.6544 41.0029 46.6345 40.8627C46.5876 40.5413 46.5406 40.2258 46.4871 39.9044V39.8971C47.3588 39.5617 48.243 39.2469 49.1346 38.9651C50.4818 38.5293 51.8489 38.1609 53.2299 37.8454C53.257 37.8388 53.2834 37.8322 53.3106 37.8322C54.4502 37.5643 55.5963 37.3427 56.7491 37.1549C57.2716 37.0676 57.8014 36.9942 58.3312 36.9201H58.351C67.6004 35.68 77.2461 36.5847 86.3011 38.2402C104.01 41.4843 121.336 47.2489 139.574 45.7402C157.169 44.2925 173.798 37.8043 190.676 33.1256C207.085 28.5813 224.056 25.8332 241.101 25.7121C251.135 25.6402 261.183 26.5046 271.009 28.469Z" fill="#F0CEBB"/>
<path d="M262.898 2.71663C260.432 4.0037 257.751 4.92167 255.197 5.75306C248.769 7.83116 242.087 9.12483 235.35 9.63408C228.554 10.1573 221.724 9.83514 214.988 8.74913C208.204 7.65651 201.327 5.90716 194.403 6.64462C188.103 7.32191 182.955 10.6599 178.149 14.5608C173.39 18.4212 168.826 22.4167 163.208 25.0033C157.739 27.5239 151.237 29.3533 145.171 28.5828C142.457 28.2342 139.809 27.2554 137.772 25.3724C135.875 23.6099 134.682 21.1495 134.239 18.6157C133.26 12.9589 135.815 7.58314 139.836 3.69551C140.647 2.91109 141.505 2.18757 142.403 1.52349C143.201 1.51028 144.005 1.50367 144.803 1.49707C142.115 3.22662 139.715 5.33773 137.926 8.03882C135.023 12.4423 134.246 18.4484 137.423 22.9458C140.862 27.8123 147.557 27.8725 152.846 26.9002C158.952 25.7812 164.703 23.2606 169.716 19.6144C174.274 16.3035 178.302 12.2816 183.095 9.29214C185.481 7.80401 188.055 6.61086 190.783 5.93431C193.853 5.17043 197.043 5.02294 200.194 5.21079C206.735 5.6063 213.11 7.32851 219.611 8.03955C226.113 8.75647 232.701 8.71024 239.197 7.91921C245.665 7.12818 252.06 5.57989 258.165 3.30807C258.749 3.0938 259.339 2.85899 259.935 2.61097C260.928 2.64252 261.913 2.67627 262.898 2.71663Z" fill="#F0CEBB"/>
<path d="M269.333 3.13913C268.918 3.52804 268.495 3.90961 268.059 4.27871C262 9.47982 254.593 13.0791 246.778 14.7015C242.87 15.5123 238.861 15.8477 234.873 15.64C230.53 15.4118 226.314 14.427 222.131 13.2809C217.439 11.9938 212.72 10.5196 207.84 10.218C203.202 9.93624 198.805 10.9753 194.817 13.3616C191.144 15.5534 188.007 18.5091 184.897 21.4047C181.76 24.3274 178.57 27.1554 175.03 29.5886C160.975 39.2673 142.167 42.8871 126.644 34.3942C119.251 30.3591 114.572 23.4417 108.345 18.0263C104.994 15.1109 101.173 13.0262 96.7958 12.175C92.2515 11.2901 87.506 11.6526 82.9881 12.5368C73.5302 14.3801 64.636 18.6427 54.9771 19.5614C52.2892 19.816 49.5074 19.7756 46.7931 19.3669C46.8202 18.9244 46.8467 18.482 46.8599 18.0395C52.571 18.8907 58.5895 17.9192 64.1128 16.4376C73.0408 14.0381 81.7678 10.3582 91.1581 10.3318C95.4207 10.3252 99.7038 11.1096 103.518 13.0666C106.976 14.8365 109.899 17.4701 112.594 20.2255C115.429 23.1276 118.07 26.2176 121.12 28.8989C124.37 31.7541 128.138 33.9664 132.192 35.4472C149.144 41.6544 167.436 35.1456 180.452 23.6574C186.431 18.3822 192.062 11.847 200.018 9.62878C209.072 7.10161 218.182 11.103 226.909 13.1275C241.239 16.4457 256.622 12.5515 267.581 2.89258C268.15 2.91239 268.72 2.93954 269.29 2.95935C269.307 3.01879 269.32 3.07896 269.333 3.13913Z" fill="#F0CEBB"/>
<path d="M90.3701 2.40918C88.5466 2.97934 86.7642 3.68304 85.0009 4.33979C76.971 7.32925 68.4921 8.95166 59.9192 9.02504C55.8437 9.0588 51.4806 8.97808 47.5328 7.89207C46.0381 7.48335 44.5631 6.81927 43.3238 5.88809C43.2834 5.71418 43.243 5.53953 43.21 5.36562C43.0897 4.79547 42.9686 4.23265 42.8483 3.66983C44.7789 5.88148 48.0765 6.82 50.9655 7.1957C55.3623 7.75852 59.8465 7.82603 64.2706 7.5171C68.2925 7.24193 72.2938 6.61894 76.2145 5.66061C79.5929 4.83583 82.837 3.67644 86.0877 2.49723C87.5149 2.46935 88.9428 2.43633 90.3701 2.40918Z" fill="#F0CEBB"/>
<path d="M128.697 6.09559C128.355 9.78876 125.949 13.2002 122.55 14.7088C119.467 16.0759 115.761 15.8015 112.872 14.0587C109.816 12.2154 108.401 8.89721 106.45 6.06918C105.418 4.56784 104.165 3.28738 102.522 2.46333C102.308 2.35619 102.086 2.25566 101.866 2.16174C102.744 2.14853 103.615 2.12798 104.487 2.11478C105.291 2.67099 106.028 3.34828 106.672 4.14591C108.743 6.6863 109.923 9.98396 112.47 12.1354C115.003 14.2737 118.784 14.8571 121.84 13.5634C124.823 12.3035 127.041 9.32061 127.357 6.09633C127.504 4.6016 127.25 3.10026 126.673 1.7332C127.148 1.72 127.625 1.71339 128.101 1.70605C128.616 3.09219 128.837 4.59426 128.697 6.09559Z" fill="#F0CEBB"/>
<path d="M105.123 30.4931C102.2 34.0791 96.9117 34.22 92.7225 33.5559C89.9473 33.1069 87.2528 32.2689 84.5451 31.5314C81.844 30.7873 79.1158 30.204 76.348 29.8158C70.6442 29.0116 64.8326 28.9844 59.0951 29.4474C54.8992 29.7828 50.7438 30.386 46.6147 31.177C46.6015 31.177 46.581 31.1836 46.5678 31.1836C46.5208 30.7411 46.4738 30.2986 46.4269 29.8562C46.4401 29.8562 46.4606 29.8496 46.4738 29.8496C51.4335 28.911 56.4277 28.2279 61.4747 27.9461C66.9305 27.6445 72.4068 27.8324 77.8023 28.6836C80.51 29.1128 83.1641 29.749 85.8051 30.4865C88.446 31.224 91.0935 32.0216 93.8217 32.3701C97.8297 32.8728 103.715 32.3503 105.123 27.7252C105.78 25.5936 105.223 23.1941 103.936 21.4044C102.555 19.4877 100.35 18.274 98.1115 17.6642C92.8428 16.2164 87.0518 17.7846 81.8705 18.9175C76.3942 20.1173 70.9583 21.5049 65.4218 22.4163C60.2339 23.2675 54.8251 23.6762 49.5631 23.12C49.1544 23.0796 48.7457 23.026 48.3362 22.9725C48.7449 22.8521 49.147 22.7582 49.5631 22.6775C49.9117 22.6107 50.2602 22.5571 50.6154 22.5168C49.6834 22.497 48.7449 22.4764 47.8137 22.4566C47.3581 22.4434 46.9156 22.4368 46.4599 22.4229C46.5135 22.0677 46.5604 21.7191 46.6008 21.364C55.0797 22.9593 63.9946 21.5313 72.3598 19.6946C77.9762 18.4611 83.5604 16.9598 89.2575 16.1489C94.1505 15.4452 99.5666 15.5861 103.501 18.9843C106.745 21.7801 107.985 26.9812 105.123 30.4931Z" fill="#F0CEBB"/>
<path d="M99.4191 49.275C98.722 49.2882 98.0183 49.3088 97.3212 49.3286C97.0328 49.3352 96.7518 49.3418 96.4634 49.3557C96.4568 49.3623 96.4568 49.3623 96.4568 49.3557C96.2154 49.242 95.974 49.1275 95.7399 49.0072C90.2636 46.3061 84.915 43.2359 79.0703 41.4066C72.9909 39.5031 66.7375 39.4496 60.5979 41.1314C55.986 42.3913 51.6427 44.4489 47.5474 46.8961C47.5276 46.7618 47.507 46.6209 47.4872 46.4874C47.4403 46.1454 47.3867 45.8101 47.3331 45.4689C52.0184 42.7142 57.0316 40.4688 62.3472 39.3226C68.4399 38.0091 74.5729 38.4443 80.4645 40.4556C86.249 42.4266 91.5712 45.4894 97.0475 48.1567C97.8304 48.5376 98.6215 48.9133 99.4191 49.275Z" fill="#F0CEBB"/>
<path d="M239.835 42.6991C238.44 44.9247 236.409 46.7005 234.914 48.819C234.814 48.819 234.713 48.8124 234.613 48.8124C234.177 48.8058 233.735 48.7992 233.299 48.7925C233.581 48.3303 233.889 47.8878 234.217 47.4585C235.565 45.7092 237.227 44.1946 238.46 42.3579C239.512 40.803 240.35 38.8387 240.036 36.9286C239.7 34.8777 237.985 33.5502 236.235 32.6653C232.482 30.775 228.092 30.7149 223.989 31.07C215.859 31.7803 207.909 33.9523 200.194 36.5595C189.108 40.2996 178.277 45.0451 167.036 48.3097C167.036 48.3097 167.036 48.3097 167.029 48.3097C166.507 48.3097 165.984 48.3163 165.461 48.3163C164.234 48.3229 163.008 48.3229 161.781 48.3295C167.988 46.8076 174.067 44.7369 180.059 42.5318C187.868 39.6561 195.603 36.5397 203.552 34.0529C207.493 32.826 211.482 31.7539 215.536 30.9563C219.544 30.1653 223.68 29.5349 227.775 29.5687C231.643 29.5951 235.893 30.326 238.975 32.826C242.16 35.4199 241.858 39.4683 239.835 42.6991Z" fill="#F0CEBB"/>
<path d="M271.002 32.5177V33.9185C267.256 32.7723 263.368 31.4655 259.447 31.5058C256.115 31.5396 252.396 32.9132 250.854 36.0839C249.024 39.8373 250.82 44.1336 253.388 47.0431C253.903 47.6265 254.446 48.1621 255.023 48.6721C254.534 48.6721 254.044 48.6853 253.556 48.6985C253.549 48.6985 253.549 48.6985 253.549 48.6985C253.402 48.6985 253.261 48.7052 253.113 48.7052C252.517 48.102 251.967 47.4584 251.458 46.7745C249.011 43.4967 247.758 38.9457 249.829 35.152C251.552 31.9953 255.211 30.4132 258.669 30.1923C262.838 29.9238 267.014 31.2908 271.002 32.5177Z" fill="#F0CEBB"/>
<path d="M231.677 42.2032C231.087 44.8573 229.512 46.9692 227.535 48.6914C227.361 48.6914 227.193 48.6848 227.019 48.6848C226.489 48.6782 225.96 48.665 225.424 48.6584C228.393 46.4666 230.887 43.524 230.531 39.7105C230.336 37.5657 228.996 35.7224 226.75 35.4949C224.344 35.2535 222.186 36.6543 220.269 37.9216C216.106 40.6828 212.165 43.7728 207.922 46.4203C206.796 47.124 205.643 47.7874 204.477 48.4045H204.47C204.196 48.552 203.914 48.6995 203.639 48.8404C202.64 48.8338 201.635 48.8272 200.636 48.8206C200.944 48.6797 201.246 48.5322 201.547 48.3847C205.18 46.6221 208.592 44.4706 211.917 42.1379C214.175 40.5559 216.401 38.921 218.687 37.3727C220.71 35.999 222.849 34.4969 225.342 34.1954C227.447 33.9341 229.525 34.6378 230.765 36.4136C231.925 38.0742 232.113 40.2726 231.677 42.2032Z" fill="#F0CEBB"/>
<path d="M175.562 1.30957C175.414 1.4167 175.273 1.51723 175.126 1.62437C170.628 4.87506 166.553 8.67537 161.955 11.7925C159.723 13.3071 157.357 14.7079 154.783 15.5796C152.504 16.3501 149.715 16.8065 147.51 15.5598C145.607 14.4804 144.695 12.2284 144.809 10.1041C144.937 7.71777 146.297 5.62647 147.966 4.00479C148.965 3.03985 150.057 2.18132 151.223 1.43799H151.23C152.162 1.42478 153.093 1.41817 154.032 1.41083C153.897 1.471 153.757 1.53852 153.623 1.61189C151.297 2.83146 148.944 4.46708 147.443 6.65891C146.196 8.47504 145.619 10.8745 146.733 12.9057C147.979 15.1848 150.781 15.2252 153.026 14.6888C157.987 13.5162 162.35 10.0373 166.257 6.92014C168.556 5.08346 170.902 3.13304 173.342 1.30957H175.562Z" fill="#F0CEBB"/>
<path d="M267.939 11.4979C267.215 11.605 266.484 11.7195 265.666 11.8061C267.255 10.814 268.783 9.74192 270.251 8.5752C270.324 9.07124 270.405 9.57388 270.505 10.0897V10.0963C269.929 10.5388 269.346 10.9674 268.75 11.3768C268.475 11.4179 268.207 11.4583 267.939 11.4979Z" fill="#F0CEBB"/>
<path d="M271.009 25.5803V26.9474C260.345 24.7621 249.493 23.5022 238.608 23.1808C232.447 22.993 226.295 23.1338 220.142 23.5022C216.992 23.6967 213.834 23.9175 210.671 24.0584C207.895 24.1722 204.927 24.4605 202.165 23.9843C200.282 23.6629 198.298 22.5498 198.231 20.4115C198.15 18.0722 200.423 16.3764 202.353 15.5655C207.608 13.3473 213.527 13.9637 218.935 15.2507C224.459 16.5642 229.814 18.475 235.498 18.9975C240.431 19.4531 245.425 19.1178 250.257 18.0523C255.68 16.8526 260.881 14.7547 265.586 11.8525C266.102 11.9127 266.612 11.9729 267.128 12.0338C267.316 12.0536 267.51 12.0807 267.697 12.1006C267.509 12.2282 267.315 12.3552 267.128 12.4763C261.585 16.0425 255.324 18.5088 248.85 19.7019C244.198 20.5531 239.432 20.774 234.734 20.2647C229.251 19.6682 224.063 17.8652 218.728 16.5782C213.486 15.3182 207.078 14.4465 202.112 17.1542C201.086 17.7104 199.933 18.602 199.638 19.8017C199.363 20.8745 200.007 21.7793 200.945 22.235C201.877 22.684 202.963 22.7912 203.975 22.8249C205.489 22.8653 207.005 22.8315 208.513 22.7912C214.686 22.6239 220.845 22.0273 227.019 21.8394C232.971 21.6582 238.936 21.7521 244.882 22.1278C253.655 22.6848 262.389 23.8376 271.009 25.5803Z" fill="#F0CEBB"/>
<path d="M271.009 28.0263V29.3801C258.95 26.9535 246.564 26.2094 234.271 26.7994C217.159 27.6242 200.422 31.1089 184.047 36.0019C167.632 40.9014 151.083 46.6925 133.763 46.9273C116.115 47.1621 99.3112 41.0826 82.0385 38.4285C70.369 36.6388 57.6942 36.4913 46.6345 40.8618C46.5678 40.3995 46.4937 39.9365 46.4269 39.4808C47.3184 39.1322 48.2232 38.8108 49.1346 38.5224C51.6214 37.7248 54.1684 37.1348 56.7491 36.7129C66.4814 35.1375 76.7229 36.0496 86.3018 37.7989C104.01 41.043 121.337 46.8077 139.575 45.299C157.17 43.8512 173.799 37.363 190.677 32.6844C207.085 28.14 224.056 25.392 241.102 25.2709C251.135 25.1975 261.183 26.0619 271.009 28.0263Z" fill="#B8683B"/>
<path d="M262.898 2.27449C260.432 3.56156 257.751 4.47953 255.197 5.31092C248.769 7.38902 242.087 8.68269 235.35 9.19194C228.554 9.71513 221.724 9.393 214.988 8.30699C208.204 7.21438 201.327 5.46502 194.403 6.20248C188.103 6.87977 182.955 10.2178 178.149 14.1186C173.39 17.9791 168.826 21.9746 163.208 24.5612C157.739 27.0818 151.237 28.9111 145.171 28.1406C142.457 27.7921 139.809 26.8132 137.772 24.9303C135.875 23.1677 134.682 20.7073 134.239 18.1743C133.26 12.5175 135.815 7.14173 139.836 3.2541C140.647 2.46968 141.505 1.74616 142.403 1.08281C143.201 1.06961 144.005 1.063 144.803 1.05566C142.115 2.78521 139.715 4.89633 137.926 7.59741C135.023 12.0009 134.246 18.007 137.423 22.5044C140.862 27.3709 147.557 27.4311 152.846 26.4588C158.952 25.3398 164.703 22.8192 169.716 19.173C174.274 15.8621 178.302 11.8402 183.095 8.85073C185.481 7.3626 188.055 6.16945 190.783 5.4929C193.853 4.72902 197.043 4.58153 200.194 4.76865C206.735 5.16416 213.11 6.88637 219.611 7.59741C226.113 8.31433 232.701 8.26737 239.197 7.47634C245.665 6.68531 252.06 5.13701 258.165 2.86519C258.749 2.65093 259.339 2.41611 259.935 2.16809C260.928 2.20038 261.913 2.23413 262.898 2.27449Z" fill="#B8683B"/>
<path d="M269.333 2.69602C268.918 3.08493 268.495 3.4665 268.059 3.83559C262 9.03671 254.593 12.636 246.778 14.2584C242.87 15.0692 238.861 15.4045 234.873 15.1969C230.53 14.9687 226.314 13.9839 222.131 12.8377C217.439 11.5507 212.72 10.0765 207.84 9.7749C203.202 9.49313 198.805 10.5322 194.817 12.9185C191.144 15.1103 188.007 18.066 184.897 20.9615C181.76 23.8842 178.57 26.7123 175.03 29.1455C160.975 38.8242 142.167 42.444 126.644 33.9511C119.251 29.916 114.572 22.9993 108.345 17.5832C104.994 14.6671 101.173 12.5831 96.7958 11.7319C92.2515 10.847 87.506 11.2087 82.9881 12.0937C73.5302 13.937 64.636 18.1996 54.9771 19.1183C52.2892 19.3729 49.5074 19.3325 46.7931 18.9238C46.8202 18.4813 46.8467 18.0389 46.8599 17.5971C52.571 18.4483 58.5895 17.476 64.1128 15.9953C73.0408 13.5958 81.7678 9.91579 91.1581 9.88937C95.4207 9.88277 99.7038 10.6672 103.518 12.6242C106.976 14.3934 109.899 17.0277 112.594 19.7831C115.429 22.6852 118.07 25.7752 121.12 28.4565C124.37 31.3117 128.138 33.5241 132.192 35.0048C149.144 41.212 167.436 34.7033 180.452 23.215C186.431 17.9398 192.062 11.4047 200.018 9.1864C209.072 6.65922 218.182 10.6606 226.909 12.6851C241.239 16.0033 256.622 12.1091 267.581 2.4502C268.15 2.47001 268.72 2.49716 269.29 2.51697C269.307 2.57567 269.32 2.63585 269.333 2.69602Z" fill="#B8683B"/>
<path d="M86.0869 2.05314C87.5149 2.02672 88.9421 1.99297 90.37 1.96582C88.5466 2.53524 86.7642 3.23968 85.0009 3.89643C76.971 6.88589 68.492 8.50757 59.9192 8.58168C55.8437 8.61544 51.4806 8.53472 47.5328 7.44871C45.9911 7.02605 44.4765 6.33628 43.2093 5.36401C43.0486 4.61334 42.8945 3.86927 42.7338 3.11861H42.7536C44.671 5.40437 48.0288 6.3693 50.9647 6.75161C55.3616 7.31442 59.8458 7.38193 64.2698 7.07301C68.2917 6.79784 72.2931 6.17485 76.2137 5.21652C79.5921 4.39247 82.8362 3.23308 86.0869 2.05314Z" fill="#B8683B"/>
<path d="M128.697 5.65248C128.355 9.34565 125.949 12.757 122.55 14.2657C119.467 15.6328 115.761 15.3583 112.872 13.6156C109.816 11.7723 108.401 8.45409 106.45 5.62606C105.418 4.12472 104.165 2.84426 102.522 2.02021C102.308 1.91308 102.086 1.81255 101.866 1.71862C102.744 1.70542 103.615 1.68487 104.487 1.67166C105.291 2.22787 106.028 2.90516 106.672 3.7028C108.743 6.24318 109.923 9.54084 112.47 11.6923C115.003 13.8306 118.784 14.4132 121.84 13.1203C124.823 11.8604 127.041 8.87749 127.357 5.65321C127.504 4.15848 127.25 2.65714 126.673 1.29009C127.148 1.27688 127.625 1.27028 128.101 1.26367C128.616 2.6498 128.837 4.15114 128.697 5.65248Z" fill="#B8683B"/>
<path d="M105.123 30.0492C102.2 33.6353 96.9117 33.7762 92.7225 33.1121C89.9473 32.663 87.2528 31.825 84.5451 31.0883C81.844 30.3442 79.1158 29.7609 76.348 29.3727C70.6442 28.5685 64.8326 28.5413 59.0951 29.0043C54.886 29.3397 50.71 29.9495 46.5678 30.7405C46.5208 30.298 46.4738 29.8555 46.4269 29.413C51.4005 28.4745 56.4138 27.784 61.4747 27.503C66.9305 27.2014 72.4068 27.3893 77.8023 28.2404C80.51 28.6697 83.1641 29.3059 85.8051 30.0434C88.446 30.7808 91.0935 31.5785 93.8217 31.927C97.8297 32.4297 103.715 31.9065 105.123 27.2821C105.78 25.1505 105.223 22.751 103.936 20.9612C102.555 19.0446 100.35 17.8309 98.1115 17.2211C92.8428 15.7733 87.0518 17.3414 81.8705 18.4744C76.3942 19.6742 70.9583 21.0618 65.4218 21.9731C60.2339 22.8243 54.8251 23.2331 49.5631 22.6768C48.9797 22.6167 48.3971 22.5426 47.8137 22.456C47.3515 22.3892 46.8892 22.3151 46.4261 22.2278C46.4929 21.7919 46.5538 21.356 46.6008 20.9209C55.0797 22.5161 63.9946 21.0882 72.3598 19.2522C77.9762 18.0187 83.5604 16.5174 89.2575 15.7066C94.1505 15.0029 99.5666 15.1437 103.501 18.5419C106.745 21.3362 107.985 26.5373 105.123 30.0492Z" fill="#B8683B"/>
<path d="M100.337 49.2465C99.3318 49.2737 98.3265 49.3001 97.3205 49.3272C96.7907 49.0792 96.2616 48.8246 95.7384 48.5633C90.2621 45.8623 84.9135 42.7921 79.0689 40.9627C72.9894 39.0593 66.736 39.0057 60.5964 40.6876C55.9647 41.9541 51.6016 44.0256 47.4858 46.4852C47.419 46.0098 47.3449 45.5335 47.2715 45.0573C51.9766 42.2887 57.0104 40.0301 62.3458 38.8773C68.4384 37.5638 74.5715 37.999 80.4631 40.0103C86.2475 41.9812 91.5697 45.0441 97.046 47.7114C98.132 48.2412 99.2246 48.7571 100.337 49.2465Z" fill="#B8683B"/>
<path d="M239.835 42.255C238.346 44.6347 236.135 46.4978 234.613 48.8107C234.09 48.8041 233.567 48.7909 233.045 48.7836C233.387 48.1672 233.782 47.5772 234.218 47.0144C235.565 45.2651 237.227 43.7498 238.461 41.9138C239.513 40.3589 240.351 38.3946 240.036 36.4845C239.701 34.4336 237.985 33.1061 236.236 32.2219C232.483 30.3317 228.092 30.2715 223.99 30.6267C215.859 31.337 207.91 33.509 200.195 36.1161C188.592 40.0302 177.265 45.0442 165.462 48.3154C163.599 48.322 161.728 48.3286 159.872 48.3352C166.742 46.7869 173.451 44.5217 180.061 42.0885C187.87 39.2127 195.605 36.0963 203.554 33.6095C207.495 32.3826 211.483 31.3105 215.538 30.5129C219.546 29.7219 223.682 29.0916 227.777 29.1253C231.645 29.1517 235.894 29.8826 238.977 32.3826C242.16 34.9758 241.858 39.0242 239.835 42.255Z" fill="#B8683B"/>
<path d="M271.002 32.0748V33.4756C267.256 32.3294 263.368 31.0225 259.447 31.0629C256.115 31.0966 252.396 32.4703 250.854 35.641C249.024 39.3943 250.82 43.6907 253.388 46.6002C254.051 47.3508 254.769 48.0347 255.539 48.6577C254.876 48.6643 254.219 48.6775 253.555 48.6981C253.548 48.6981 253.548 48.6981 253.548 48.6981C252.784 47.9672 252.087 47.1835 251.457 46.3323C249.011 43.0545 247.757 38.5035 249.828 34.7098C251.551 31.5531 255.21 29.971 258.669 29.7501C262.838 29.4808 267.014 30.8479 271.002 32.0748Z" fill="#B8683B"/>
<path d="M231.677 41.7594C231.033 44.6417 229.237 46.8805 227.019 48.6834C226.288 48.6702 225.551 48.657 224.814 48.6497C228.045 46.4175 230.913 43.3414 230.532 39.2659C230.337 37.1211 228.996 35.2778 226.751 35.0503C224.345 34.8089 222.187 36.2097 220.269 37.477C216.107 40.2382 212.166 43.3282 207.923 45.9757C206.528 46.8475 205.101 47.6517 203.64 48.3958C202.641 48.3892 201.636 48.3826 200.637 48.376C204.612 46.5327 208.318 44.2205 211.917 41.6933C214.176 40.1113 216.402 38.4757 218.687 36.9274C220.711 35.553 222.849 34.0516 225.343 33.75C227.447 33.4888 229.525 34.1925 230.766 35.969C231.925 37.6303 232.113 39.8288 231.677 41.7594Z" fill="#B8683B"/>
<path d="M175.562 0.866211C175.414 0.973344 175.273 1.07387 175.126 1.18101C170.628 4.4317 166.553 8.23201 161.955 11.3492C159.723 12.8637 157.357 14.2645 154.783 15.1363C152.504 15.9067 149.715 16.3631 147.51 15.1164C145.607 14.037 144.695 11.785 144.809 9.6607C144.937 7.27441 146.297 5.18311 147.966 3.56143C148.965 2.59649 150.057 1.73796 151.223 0.994627H151.23C152.162 0.981418 153.093 0.974812 154.032 0.967475C153.897 1.02765 153.757 1.09516 153.623 1.16853C151.297 2.3881 148.944 4.02372 147.443 6.21555C146.196 8.03168 145.619 10.4319 146.733 12.4623C147.979 14.7415 150.781 14.7818 153.026 14.2454C157.987 13.0721 162.35 9.59393 166.257 6.47678C168.556 4.6401 170.902 2.68968 173.342 0.866211H175.562Z" fill="#B8683B"/>
<path d="M271.009 25.1375V26.5045C260.345 24.3193 249.493 23.0594 238.608 22.738C232.447 22.5501 226.295 22.691 220.142 23.0594C216.992 23.2538 213.834 23.4747 210.671 23.6156C207.895 23.7293 204.927 24.0177 202.165 23.5415C200.282 23.2201 198.298 22.1069 198.231 19.9686C198.15 17.6293 200.423 15.9335 202.353 15.1227C207.608 12.9044 213.527 13.5208 218.935 14.8079C224.459 16.1214 229.814 18.0322 235.498 18.5546C240.431 19.0103 245.425 18.675 250.257 17.6095C257.543 16.001 264.433 12.7635 270.252 8.13184C270.325 8.62788 270.406 9.13053 270.506 9.64638V9.65299C269.675 10.2899 268.817 10.9063 267.939 11.4963C267.671 11.6775 267.396 11.858 267.128 12.0327C261.585 15.5982 255.324 18.0652 248.85 19.2583C244.198 20.1095 239.432 20.3311 234.734 19.8211C229.251 19.2246 224.063 17.4216 218.728 16.1346C213.486 14.8746 207.078 14.0029 202.112 16.7106C201.086 17.2668 199.933 18.1584 199.638 19.3581C199.363 20.4309 200.007 21.3357 200.945 21.7914C201.877 22.2404 202.963 22.3476 203.975 22.3813C205.489 22.4217 207.005 22.3879 208.513 22.3476C214.686 22.1803 220.845 21.5837 227.019 21.3959C232.971 21.2146 238.936 21.3085 244.882 21.6842C253.655 22.2419 262.389 23.3947 271.009 25.1375Z" fill="#B8683B"/>
<path d="M261.545 10.1372C261.545 11.9328 260.269 13.3886 258.693 13.3886C257.118 13.3886 255.841 11.9328 255.841 10.1372C255.841 8.34158 257.118 6.88574 258.693 6.88574C260.269 6.88574 261.545 8.34085 261.545 10.1372Z" fill="#FFA36C"/>
<path d="M261.178 9.76217C261.178 11.5578 259.901 13.0136 258.325 13.0136C256.75 13.0136 255.473 11.5578 255.473 9.76217C255.473 7.96658 256.75 6.51074 258.325 6.51074C259.901 6.51074 261.178 7.96658 261.178 9.76217Z" fill="#FFDDC9"/>
<path d="M63.9923 9.94967C63.9923 11.7453 62.7155 13.2011 61.1401 13.2011C59.5646 13.2011 58.2878 11.7453 58.2878 9.94967C58.2878 8.15408 59.5646 6.69824 61.1401 6.69824C62.7155 6.69824 63.9923 8.15408 63.9923 9.94967Z" fill="#FFA36C"/>
<path d="M63.6248 9.57565C63.6248 11.3712 62.348 12.8271 60.7725 12.8271C59.1971 12.8271 57.9203 11.3712 57.9203 9.57565C57.9203 7.78006 59.1971 6.32422 60.7725 6.32422C62.348 6.32422 63.6248 7.78006 63.6248 9.57565Z" fill="#FFDDC9"/>
<path d="M264.213 41.9672C264.213 43.7628 262.936 45.2187 261.361 45.2187C259.785 45.2187 258.509 43.7628 258.509 41.9672C258.509 40.1717 259.785 38.7158 261.361 38.7158C262.936 38.7158 264.213 40.1717 264.213 41.9672Z" fill="#FFA36C"/>
<path d="M263.846 41.5932C263.846 43.3888 262.57 44.8447 260.994 44.8447C259.419 44.8447 258.142 43.3888 258.142 41.5932C258.142 39.7976 259.419 38.3418 260.994 38.3418C262.57 38.3418 263.846 39.7976 263.846 41.5932Z" fill="#FFDDC9"/>
<path d="M61.3236 45.0307C61.3236 46.8263 60.0468 48.2822 58.4714 48.2822C56.8959 48.2822 55.6191 46.8263 55.6191 45.0307C55.6191 43.2351 56.8959 41.7793 58.4714 41.7793C60.0468 41.7793 61.3236 43.2351 61.3236 45.0307Z" fill="#FFA36C"/>
<path d="M60.9567 44.6567C60.9567 46.4523 59.6799 47.9081 58.1044 47.9081C56.529 47.9081 55.2522 46.4523 55.2522 44.6567C55.2522 42.8611 56.529 41.4053 58.1044 41.4053C59.6792 41.4053 60.9567 42.8611 60.9567 44.6567Z" fill="#FFDDC9"/>
<path d="M107.28 11.0849L100.627 30.3692V39H92.985V30.3692L86.422 11.0849H94.873L96.8958 20.1652H97.2554L99.1883 11.0849H107.28ZM108.263 28.1666C108.263 24.2108 109.012 21.3489 110.51 19.5808C112.039 17.8127 114.406 16.9286 117.613 16.9286C120.849 16.9286 123.202 17.7977 124.67 19.5358C126.139 21.274 126.873 24.1359 126.873 28.1216C126.873 32.0774 126.154 34.9543 124.715 36.7524C123.277 38.5505 120.924 39.4495 117.658 39.4495C114.391 39.4495 112.009 38.5505 110.51 36.7524C109.012 34.9543 108.263 32.0924 108.263 28.1666ZM119.051 23.8962C118.871 23.2968 118.392 22.9971 117.613 22.9971C116.833 22.9971 116.339 23.2968 116.129 23.8962C115.919 24.4955 115.815 25.7542 115.815 27.6721V28.751C115.815 30.8787 115.919 32.2572 116.129 32.8865C116.339 33.5159 116.818 33.8305 117.568 33.8305C118.347 33.8305 118.841 33.5159 119.051 32.8865C119.261 32.2572 119.366 30.9686 119.366 29.0207V27.7171C119.366 25.7692 119.261 24.4955 119.051 23.8962ZM134.56 39.4495C130.994 39.4495 129.211 37.4716 129.211 33.5159V17.468H136.852V31.6728C136.852 32.422 137.182 32.7966 137.841 32.7966C138.68 32.7966 139.385 32.5869 139.954 32.1673V17.468H147.506V38.9101H140.359V37.3368H140.179C138.531 38.7453 136.658 39.4495 134.56 39.4495ZM184.041 17.468L181.299 39H173.073L171.32 29.9197H171.005L169.297 39H161.25L158.508 17.468H165.431L166.375 28.3464H166.735L168.263 17.468H174.511L175.995 28.3464H176.399L177.388 17.468H184.041ZM193.217 39H185.8V17.6928H193.217V39ZM186.384 15.9846C185.755 15.4452 185.44 14.5761 185.44 13.3774C185.44 12.1787 185.755 11.2946 186.384 10.7253C187.013 10.1559 188.047 9.87117 189.486 9.87117C190.924 9.87117 191.958 10.1559 192.587 10.7253C193.217 11.2946 193.531 12.1787 193.531 13.3774C193.531 14.5462 193.217 15.4152 192.587 15.9846C191.958 16.524 190.924 16.7938 189.486 16.7938C188.047 16.7938 187.013 16.524 186.384 15.9846ZM203.575 19.0414C205.223 17.6329 207.036 16.9286 209.014 16.9286C210.992 16.9286 212.37 17.3931 213.149 18.3221C213.959 19.2212 214.363 20.5847 214.363 22.4127V39H206.721V24.975C206.721 24.2258 206.392 23.8512 205.732 23.8512C204.893 23.8512 204.189 24.061 203.62 24.4805V39H196.068V17.468H202.945L203.395 19.0414H203.575ZM219.793 30.4591L219.299 11.0849H226.941L226.311 30.4591H219.793ZM219.209 35.9433C219.209 34.7446 219.524 33.8605 220.153 33.2911C220.782 32.6917 221.786 32.3921 223.165 32.3921C224.543 32.3921 225.547 32.6917 226.176 33.2911C226.806 33.8605 227.12 34.7745 227.12 36.0332C227.12 38.3407 225.802 39.4945 223.165 39.4945C220.527 39.4945 219.209 38.3107 219.209 35.9433Z" fill="white"/>
<path d="M295.503 238.798C295.335 238.613 295.172 238.422 295.02 238.222C294.606 237.733 294.216 237.228 293.837 236.713C293.085 235.678 292.42 234.584 291.838 233.449C291.716 233.216 291.599 232.979 291.488 232.736C289.278 228.093 288.42 222.794 288.481 217.605C288.478 217.334 288.481 217.07 288.489 216.811C288.572 216.83 288.645 216.851 288.728 216.871C292.707 217.842 296.517 219.48 299.974 221.677C300.214 221.82 300.449 221.968 300.674 222.127C300.972 222.316 301.259 222.515 301.547 222.715C301.761 222.863 301.97 223.016 302.174 223.175C304.301 224.726 306.265 226.497 308.018 228.462C308.506 229.012 308.989 229.578 309.436 230.16C309.599 230.35 309.746 230.546 309.899 230.736C310.109 231.025 310.319 231.303 310.519 231.591C310.667 231.787 310.808 231.988 310.946 232.194L310.951 232.2C314.116 236.791 316.265 242.083 317.187 247.589C317.28 248.113 317.353 248.646 317.421 249.175C317.41 249.175 317.4 249.175 317.395 249.18C315.114 249.463 312.897 249.221 310.695 248.573C309.394 248.191 308.112 247.727 306.866 247.174C306.643 247.078 306.423 246.976 306.199 246.87C305.402 246.499 304.625 246.097 303.862 245.658C303.648 245.541 303.435 245.414 303.231 245.285C300.335 243.544 297.714 241.354 295.503 238.798Z" fill="#A2CC58"/>
<path d="M301.219 229.255C299.19 232.269 297.128 235.263 295.02 238.221C295.173 238.422 295.336 238.612 295.503 238.797C297.627 235.823 299.703 232.824 301.733 229.789C303.977 232.112 306.139 234.518 308.214 236.993C308.173 237.025 308.132 237.067 308.106 237.124C306.687 239.966 305.059 242.697 303.232 245.283C303.436 245.411 303.65 245.538 303.864 245.656C305.67 243.09 307.283 240.386 308.697 237.569C308.938 237.858 309.174 238.14 309.411 238.434C309.386 238.471 309.365 238.512 309.355 238.554C308.507 241.401 307.451 244.177 306.201 246.867C306.425 246.974 306.644 247.075 306.868 247.171C308.077 244.554 309.113 241.861 309.952 239.097C310.919 240.291 311.865 241.506 312.796 242.738C314.389 244.844 315.927 246.987 317.396 249.177C317.402 249.172 317.412 249.172 317.422 249.172C317.355 248.644 317.282 248.11 317.188 247.586C314.492 243.649 311.594 239.854 308.512 236.206C307.955 235.547 307.388 234.889 306.816 234.246C308.231 233.64 309.61 232.947 310.946 232.192C310.809 231.985 310.668 231.784 310.52 231.588C309.158 232.36 307.749 233.054 306.312 233.67C306.17 233.501 306.023 233.336 305.871 233.176C307.291 232.492 308.642 231.67 309.899 230.734C309.746 230.543 309.599 230.348 309.436 230.157C308.169 231.103 306.808 231.927 305.367 232.611C303.137 230.137 300.824 227.737 298.424 225.426C299.709 224.733 300.962 223.979 302.174 223.173C301.97 223.014 301.761 222.86 301.546 222.712C300.35 223.492 299.118 224.226 297.864 224.897C297.539 224.578 297.203 224.26 296.863 223.947C298.186 223.446 299.462 222.837 300.674 222.124C300.449 221.965 300.215 221.817 299.974 221.674C298.803 222.345 297.563 222.918 296.286 223.382C296.276 223.382 296.271 223.388 296.265 223.393C296.166 223.295 296.072 223.203 295.967 223.11C293.626 220.949 291.207 218.867 288.728 216.868C288.645 216.848 288.572 216.827 288.489 216.808C288.481 217.067 288.478 217.332 288.481 217.602C291.49 220.036 294.39 222.591 297.193 225.266C297.167 225.292 297.142 225.318 297.121 225.35C295.372 227.91 293.492 230.372 291.488 232.733C291.599 232.976 291.716 233.214 291.838 233.446C293.93 230.996 295.897 228.434 297.718 225.769C298.839 226.848 299.95 227.947 301.035 229.062C301.098 229.126 301.156 229.193 301.219 229.255Z" fill="#678041"/>
<path d="M274.02 125.348C273.904 125.238 273.792 125.123 273.685 125.002C273.398 124.709 273.127 124.406 272.861 124.095C272.334 123.469 271.859 122.802 271.435 122.104C271.347 121.962 271.261 121.816 271.179 121.666C269.555 118.807 268.764 115.467 268.564 112.154C268.55 111.982 268.539 111.812 268.532 111.646C268.587 111.655 268.634 111.665 268.688 111.674C271.271 112.109 273.776 112.979 276.083 114.221C276.243 114.301 276.399 114.384 276.551 114.475C276.749 114.582 276.942 114.696 277.134 114.81C277.278 114.894 277.418 114.983 277.555 115.075C278.984 115.966 280.318 117.005 281.526 118.176C281.863 118.505 282.197 118.844 282.51 119.194C282.622 119.308 282.725 119.426 282.831 119.541C282.979 119.715 283.125 119.883 283.266 120.057C283.369 120.175 283.469 120.297 283.566 120.422L283.569 120.425C285.8 123.207 287.415 126.484 288.257 129.954C288.34 130.283 288.412 130.62 288.479 130.954C288.473 130.955 288.466 130.955 288.463 130.958C287.022 131.244 285.595 131.192 284.162 130.88C283.314 130.696 282.475 130.459 281.656 130.164C281.508 130.113 281.364 130.059 281.216 130.001C280.69 129.801 280.176 129.58 279.67 129.336C279.528 129.271 279.386 129.2 279.25 129.128C277.321 128.152 275.548 126.876 274.02 125.348Z" fill="#A2CC58"/>
<path d="M277.226 118.997C276.07 121.013 274.894 123.018 273.685 125.002C273.792 125.123 273.905 125.237 274.02 125.348C275.237 123.352 276.423 121.344 277.578 119.314C279.117 120.692 280.606 122.128 282.044 123.611C282.019 123.633 281.995 123.661 281.981 123.699C281.207 125.577 280.295 127.393 279.25 129.128C279.385 129.2 279.528 129.272 279.669 129.336C280.702 127.616 281.606 125.817 282.378 123.956C282.546 124.128 282.709 124.298 282.874 124.474C282.859 124.499 282.848 124.526 282.844 124.554C282.433 126.409 281.888 128.228 281.215 130.001C281.364 130.059 281.507 130.114 281.655 130.165C282.305 128.44 282.842 126.674 283.249 124.873C283.921 125.59 284.581 126.321 285.231 127.063C286.345 128.333 287.424 129.629 288.462 130.959C288.465 130.955 288.472 130.954 288.478 130.954C288.411 130.621 288.34 130.283 288.256 129.954C286.355 127.567 284.332 125.28 282.197 123.096C281.812 122.702 281.419 122.307 281.025 121.924C281.901 121.472 282.747 120.966 283.565 120.422C283.468 120.297 283.368 120.176 283.266 120.058C282.433 120.612 281.565 121.12 280.677 121.58C280.579 121.478 280.478 121.379 280.374 121.285C281.248 120.783 282.072 120.196 282.83 119.54C282.724 119.426 282.621 119.308 282.509 119.194C281.744 119.856 280.914 120.444 280.027 120.947C278.49 119.472 276.904 118.048 275.267 116.684C276.055 116.183 276.82 115.644 277.555 115.075C277.418 114.983 277.277 114.894 277.134 114.81C276.407 115.362 275.655 115.887 274.886 116.373C274.664 116.185 274.435 115.998 274.203 115.813C275.024 115.433 275.809 114.985 276.55 114.475C276.399 114.384 276.242 114.3 276.082 114.22C275.366 114.702 274.602 115.124 273.809 115.48C273.803 115.48 273.8 115.484 273.797 115.487C273.728 115.429 273.665 115.375 273.593 115.32C272 114.05 270.362 112.834 268.688 111.673C268.634 111.664 268.587 111.654 268.532 111.646C268.539 111.811 268.55 111.98 268.564 112.153C270.595 113.567 272.563 115.063 274.474 116.64C274.459 116.657 274.444 116.676 274.432 116.696C273.435 118.41 272.35 120.067 271.179 121.665C271.261 121.815 271.347 121.961 271.435 122.104C272.657 120.444 273.793 118.719 274.831 116.936C275.597 117.572 276.355 118.222 277.099 118.884C277.143 118.92 277.182 118.961 277.226 118.997Z" fill="#678041"/>
<path d="M268.461 31.3074C268.7 31.2355 268.943 31.1702 269.189 31.1181C269.808 30.953 270.431 30.8187 271.059 30.6976C272.317 30.4628 273.59 30.3314 274.866 30.2933C275.128 30.283 275.393 30.2801 275.66 30.2837C280.801 30.2801 285.956 31.7807 290.617 34.065C290.862 34.1787 291.099 34.2946 291.331 34.4128C291.277 34.4796 291.228 34.5368 291.174 34.6036C288.588 37.7802 285.473 40.5179 282.005 42.6973C281.773 42.8529 281.538 43.0018 281.298 43.1361C280.999 43.3239 280.696 43.4979 280.393 43.6718C280.167 43.8016 279.938 43.9242 279.707 44.0409C277.393 45.2964 274.952 46.3097 272.424 47.0494C271.718 47.2541 270.999 47.4471 270.282 47.6012C270.04 47.6665 269.8 47.7157 269.563 47.7715C269.212 47.8375 268.871 47.9087 268.524 47.9652C268.284 48.0143 268.041 48.0562 267.796 48.0914L267.79 48.0936C262.284 48.9807 256.582 48.6505 251.213 47.1191C250.7 46.979 250.187 46.8153 249.681 46.6495C249.685 46.6399 249.689 46.6304 249.686 46.6238C250.411 44.443 251.581 42.5439 253.111 40.8335C254.014 39.8223 254.984 38.8647 256.018 37.9768C256.201 37.8154 256.387 37.6613 256.579 37.505C257.256 36.9436 257.953 36.4146 258.676 35.9149C258.873 35.7718 259.081 35.6331 259.284 35.5039C262.101 33.6342 265.204 32.2063 268.461 31.3074Z" fill="#A2CC58"/>
<path d="M274.626 40.5667C272.775 37.4393 270.956 34.2928 269.189 31.1192C268.942 31.1705 268.7 31.2358 268.461 31.3085C270.236 34.5027 272.053 37.6661 273.923 40.8023C270.861 41.8318 267.76 42.7512 264.634 43.5628C264.623 43.5122 264.603 43.4571 264.562 43.4094C262.604 40.9072 260.837 38.2656 259.284 35.505C259.082 35.6342 258.874 35.7729 258.677 35.916C260.219 38.6486 261.969 41.266 263.906 43.7521C263.542 43.8468 263.184 43.9385 262.818 44.0266C262.796 43.9877 262.767 43.9517 262.734 43.9246C260.527 41.936 258.473 39.7904 256.58 37.5068C256.387 37.6638 256.201 37.8179 256.018 37.9786C257.863 40.194 259.85 42.286 261.986 44.2298C260.493 44.5901 258.989 44.9232 257.478 45.2358C254.891 45.7708 252.296 46.2389 249.686 46.6256C249.689 46.6322 249.685 46.6418 249.681 46.6513C250.187 46.8172 250.7 46.9808 251.213 47.121C255.927 46.3762 260.598 45.3885 265.216 44.1704C266.049 43.9502 266.888 43.7213 267.713 43.4806C267.653 45.0194 267.688 46.5618 267.796 48.0932C268.041 48.058 268.284 48.0162 268.524 47.967C268.412 46.4055 268.39 44.8345 268.45 43.273C268.664 43.2179 268.877 43.1555 269.086 43.0866C269.094 44.6628 269.257 46.2367 269.563 47.7733C269.8 47.7175 270.04 47.6684 270.282 47.6031C269.971 46.0526 269.811 44.469 269.813 42.8745C273.004 41.922 276.165 40.8639 279.282 39.6884C279.356 41.1464 279.499 42.6023 279.707 44.0427C279.938 43.9268 280.167 43.8035 280.393 43.6736C280.202 42.2588 280.068 40.8302 280 39.4088C280.427 39.2518 280.859 39.0859 281.287 38.9128C281.171 40.3231 281.174 41.7364 281.298 43.1379C281.538 43.0029 281.772 42.8547 282.005 42.6991C281.902 41.3534 281.917 39.9878 282.045 38.6354C282.05 38.6258 282.047 38.6192 282.044 38.6119C282.175 38.5642 282.299 38.5187 282.427 38.4637C285.384 37.2771 288.303 35.9871 291.173 34.6054C291.226 34.5386 291.275 34.4814 291.33 34.4146C291.099 34.2965 290.861 34.1805 290.616 34.0668C287.126 35.7384 283.573 37.261 279.954 38.6442C279.941 38.6097 279.928 38.5752 279.909 38.5437C278.348 35.8653 276.93 33.1099 275.659 30.2856C275.392 30.2819 275.127 30.2856 274.865 30.2951C276.179 33.2362 277.649 36.1126 279.274 38.901C277.819 39.4506 276.349 39.9826 274.876 40.4838C274.795 40.5132 274.709 40.5366 274.626 40.5667Z" fill="#678041"/>
<path d="M11.0245 251.674C11.114 251.754 11.2021 251.837 11.285 251.926C11.5088 252.139 11.7201 252.361 11.9278 252.589C12.3409 253.047 12.7144 253.537 13.0512 254.051C13.1209 254.155 13.1892 254.263 13.2552 254.374C14.5496 256.486 15.2291 258.98 15.4632 261.469C15.4779 261.598 15.4903 261.725 15.4999 261.85C15.4588 261.845 15.4228 261.839 15.3825 261.834C13.4269 261.57 11.5198 260.979 9.75208 260.103C9.62954 260.046 9.50993 259.988 9.39399 259.923C9.2421 259.847 9.09387 259.767 8.94638 259.686C8.83631 259.626 8.72845 259.563 8.62278 259.497C7.52503 258.863 6.49479 258.114 5.55553 257.262C5.29357 257.024 5.03381 256.777 4.79019 256.521C4.70287 256.438 4.62215 256.352 4.53923 256.269C4.42403 256.141 4.30882 256.019 4.19875 255.891C4.11804 255.804 4.04025 255.715 3.96394 255.624L3.961 255.622C2.21238 253.583 0.914303 251.157 0.192987 248.567C0.121809 248.321 0.0594357 248.069 0.000732422 247.819C0.00586896 247.818 0.0110042 247.818 0.0132056 247.815C1.09115 247.565 2.16542 247.568 3.2529 247.766C3.8957 247.883 4.53263 248.041 5.15708 248.242C5.26935 248.276 5.37942 248.314 5.49243 248.354C5.89308 248.491 6.28565 248.645 6.6731 248.816C6.7817 248.861 6.8903 248.911 6.9945 248.962C8.46942 249.646 9.83647 250.562 11.0245 251.674Z" fill="#A2CC58"/>
<path d="M8.77174 256.535C9.59065 254.989 10.4264 253.45 11.2857 251.926C11.2021 251.838 11.1147 251.755 11.0252 251.675C10.1593 253.207 9.31695 254.749 8.49877 256.306C7.30636 255.307 6.14844 254.264 5.02941 253.184C5.04775 253.167 5.06536 253.144 5.07416 253.116C5.60983 251.683 6.25043 250.292 6.9945 248.96C6.8903 248.91 6.7817 248.859 6.6731 248.814C5.93857 250.135 5.30311 251.512 4.76891 252.932C4.6383 252.807 4.51135 252.683 4.38294 252.555C4.39321 252.535 4.40128 252.515 4.40348 252.494C4.66544 251.088 5.03014 249.704 5.49243 248.352C5.37943 248.312 5.26936 248.275 5.15709 248.24C4.71094 249.555 4.35138 250.897 4.08942 252.263C3.56549 251.74 3.0511 251.207 2.54259 250.664C1.67231 249.736 0.827715 248.788 0.0124732 247.813C0.0102718 247.816 0.00513654 247.816 0 247.817C0.0594371 248.067 0.121074 248.319 0.192251 248.565C1.68332 250.314 3.2639 251.984 4.92521 253.575C5.22533 253.862 5.53058 254.149 5.83658 254.428C5.18937 254.79 4.56418 255.192 3.96247 255.622C4.03879 255.713 4.11657 255.802 4.19728 255.889C4.81073 255.45 5.4506 255.046 6.10734 254.678C6.18366 254.752 6.26291 254.823 6.34363 254.892C5.69789 255.292 5.09251 255.755 4.5385 256.267C4.62142 256.35 4.7014 256.436 4.78946 256.519C5.34787 256.001 5.95839 255.538 6.61366 255.137C7.80754 256.209 9.03664 257.241 10.3032 258.226C9.72274 258.623 9.16065 259.048 8.62132 259.495C8.72698 259.561 8.83485 259.624 8.94492 259.684C9.47838 259.25 10.0317 258.836 10.5981 258.451C10.7699 258.586 10.9467 258.722 11.1257 258.855C10.5174 259.162 9.937 259.519 9.39326 259.922C9.5092 259.986 9.62881 260.045 9.75135 260.102C10.2782 259.721 10.8432 259.384 11.431 259.096C11.4361 259.096 11.4383 259.093 11.4405 259.09C11.4934 259.132 11.5433 259.172 11.5976 259.211C12.8289 260.127 14.0925 261.002 15.3817 261.833C15.4228 261.838 15.4588 261.844 15.4991 261.849C15.4896 261.725 15.4771 261.598 15.4625 261.469C13.898 260.455 12.3791 259.379 10.9012 258.24C10.9122 258.226 10.9232 258.212 10.9313 258.196C11.6387 256.881 12.4143 255.606 13.2552 254.374C13.1892 254.263 13.1217 254.155 13.0512 254.05C12.1736 255.33 11.3613 256.656 10.6246 258.025C10.0324 257.566 9.44463 257.095 8.8686 256.616C8.83558 256.591 8.80476 256.562 8.77174 256.535Z" fill="#678041"/>
<path d="M264.454 281.098C264.374 281.271 264.306 281.45 264.238 281.629C263.591 283.319 263.356 285.125 262.832 286.864C262.807 286.963 262.777 287.055 262.746 287.154C262.709 287.265 262.672 287.37 262.628 287.475C262.443 288.03 262.209 288.56 261.938 289.078C261.845 289.263 261.741 289.448 261.636 289.633C260.291 291.946 258.25 293.87 255.9 295.177C255.259 295.534 254.593 295.849 253.909 296.12C253.717 296.2 253.526 296.275 253.329 296.343C251.541 296.99 249.648 297.361 247.736 297.496C247.533 297.508 247.323 297.521 247.12 297.526C246.583 297.551 246.04 297.557 245.504 297.545C244.998 297.532 244.499 297.507 243.993 297.471C243.752 297.452 243.512 297.434 243.272 297.409C240.54 297.144 237.839 296.527 235.248 295.633C235.138 295.596 235.02 295.559 234.909 295.516C235.082 295.121 235.261 294.733 235.458 294.344C237.555 290.095 240.885 286.456 244.924 283.984C245.122 283.86 245.319 283.743 245.516 283.632C245.819 283.453 246.127 283.281 246.435 283.132C246.627 283.022 246.817 282.922 247.009 282.83C247.027 282.824 247.04 282.812 247.058 282.806C248.661 282.029 250.345 281.431 252.071 281.011C252.281 280.962 252.497 280.913 252.707 280.869C256.468 280.056 260.415 280.092 264.152 281.023C264.251 281.049 264.356 281.073 264.454 281.098Z" fill="#A2CC58"/>
<path d="M264.238 281.629C264.306 281.45 264.374 281.272 264.454 281.098C264.356 281.073 264.251 281.049 264.152 281.024C260.1 281.715 256.067 282.51 252.151 283.756C252.466 282.825 252.657 281.85 252.706 280.87C252.496 280.913 252.28 280.963 252.071 281.012C252.003 282.03 251.781 283.035 251.404 283.997C251.355 284.015 251.306 284.028 251.256 284.046C249.745 284.552 248.259 285.131 246.816 285.798C246.97 284.805 247.057 283.805 247.057 282.807C247.038 282.812 247.026 282.825 247.007 282.831C246.817 282.923 246.625 283.022 246.434 283.133C246.415 284.133 246.316 285.131 246.138 286.118C245.922 286.217 245.712 286.321 245.502 286.433C245.601 285.502 245.601 284.565 245.515 283.634C245.318 283.744 245.12 283.862 244.923 283.985C244.997 284.891 244.966 285.811 244.855 286.723V286.766C242.895 287.808 241.031 289.017 239.324 290.429C237.905 291.601 236.598 292.908 235.458 294.345C235.26 294.734 235.081 295.122 234.909 295.517C235.019 295.56 235.137 295.597 235.248 295.634C236.228 294.271 237.357 293.025 238.584 291.891C240.533 293.365 242.13 295.264 243.271 297.411C243.512 297.435 243.752 297.454 243.992 297.472C242.82 295.141 241.125 293.081 239.041 291.478C240.588 290.121 242.297 288.925 244.085 287.895C245.658 290.898 246.688 294.166 247.12 297.527C247.323 297.521 247.533 297.509 247.736 297.496C247.292 294.043 246.238 290.688 244.622 287.592C245.152 287.297 245.695 287.019 246.238 286.748C249.309 289.362 251.547 292.748 253.33 296.344C253.527 296.276 253.718 296.202 253.909 296.121C252.127 292.514 249.888 289.11 246.848 286.464C248.895 285.502 251.023 284.725 253.2 284.078H253.206C256.338 285.391 259.194 287.29 261.636 289.634C261.741 289.449 261.845 289.264 261.938 289.079C259.65 286.902 256.998 285.12 254.112 283.813C254.414 283.726 254.723 283.64 255.031 283.559C255.043 283.572 255.056 283.578 255.067 283.584C257.732 284.577 260.266 285.885 262.628 287.476C262.671 287.371 262.708 287.266 262.745 287.155C262.776 287.057 262.807 286.964 262.832 286.865C260.692 285.441 258.404 284.244 256.018 283.3C256.708 283.128 257.399 282.967 258.09 282.813C260.131 282.363 262.179 281.986 264.238 281.629Z" fill="#678041"/>
<path d="M43.6459 102.818C43.6004 102.916 43.5615 103.018 43.5233 103.119C43.155 104.081 43.0214 105.109 42.7228 106.099C42.7088 106.156 42.6912 106.208 42.6736 106.264C42.6523 106.327 42.6318 106.387 42.6068 106.447C42.5012 106.762 42.3684 107.065 42.2135 107.36C42.1607 107.465 42.1013 107.57 42.0418 107.676C41.2765 108.992 40.1149 110.087 38.7772 110.831C38.4118 111.034 38.0331 111.214 37.6435 111.368C37.5349 111.414 37.4255 111.456 37.3133 111.495C36.2955 111.863 35.2176 112.074 34.1293 112.151C34.0134 112.158 33.8945 112.165 33.7786 112.169C33.4733 112.183 33.1644 112.187 32.8592 112.179C32.5715 112.173 32.2868 112.158 31.9991 112.137C31.8619 112.127 31.7254 112.116 31.5882 112.102C30.0333 111.951 28.496 111.6 27.0218 111.091C26.9587 111.07 26.892 111.049 26.8289 111.024C26.9272 110.8 27.0292 110.578 27.1414 110.357C28.3346 107.939 30.2307 105.868 32.5297 104.46C32.642 104.39 32.7542 104.323 32.8665 104.26C33.0382 104.158 33.2143 104.06 33.3897 103.976C33.4983 103.913 33.6076 103.857 33.7162 103.804C33.7265 103.801 33.7338 103.794 33.7441 103.791C34.6569 103.348 35.6153 103.008 36.5978 102.769C36.7174 102.741 36.84 102.713 36.9596 102.688C39.1008 102.225 41.3469 102.246 43.4742 102.776C43.5299 102.79 43.5894 102.804 43.6459 102.818Z" fill="#A2CC58"/>
<path d="M43.5226 103.12C43.5615 103.018 43.5997 102.917 43.6452 102.818C43.5894 102.804 43.5292 102.79 43.4734 102.777C41.1671 103.17 38.8718 103.623 36.6426 104.331C36.8216 103.802 36.9302 103.247 36.9588 102.688C36.8392 102.713 36.7167 102.741 36.5971 102.769C36.5582 103.348 36.432 103.921 36.2177 104.468C36.1898 104.478 36.1612 104.486 36.1333 104.496C35.2733 104.783 34.4273 105.114 33.6062 105.493C33.6942 104.928 33.7434 104.359 33.7434 103.791C33.7331 103.794 33.7258 103.801 33.7155 103.805C33.6069 103.857 33.4976 103.913 33.389 103.976C33.3787 104.545 33.3222 105.114 33.2202 105.675C33.0976 105.732 32.978 105.791 32.8584 105.854C32.9142 105.324 32.9142 104.791 32.865 104.26C32.7528 104.323 32.6405 104.39 32.5282 104.461C32.57 104.976 32.5532 105.5 32.4893 106.019V106.043C31.3732 106.636 30.3129 107.325 29.3406 108.129C28.5335 108.796 27.7894 109.54 27.14 110.357C27.0277 110.578 26.9257 110.8 26.8274 111.024C26.8905 111.049 26.9573 111.07 27.0204 111.091C27.5788 110.316 28.2209 109.607 28.9194 108.96C30.0289 109.799 30.9381 110.881 31.5875 112.102C31.7247 112.115 31.8612 112.126 31.9984 112.137C31.3314 110.81 30.3665 109.637 29.1799 108.725C30.0612 107.953 31.0335 107.272 32.0512 106.686C32.9465 108.396 33.5328 110.256 33.7786 112.169C33.8945 112.165 34.0141 112.159 34.1293 112.151C33.8769 110.186 33.2767 108.276 32.3565 106.514C32.6581 106.346 32.967 106.188 33.2759 106.034C35.0238 107.522 36.2984 109.449 37.3125 111.495C37.4248 111.457 37.5334 111.415 37.6427 111.369C36.6286 109.316 35.354 107.378 33.6238 105.872C34.789 105.325 35.9998 104.883 37.2392 104.514H37.2428C39.0259 105.262 40.6513 106.343 42.0411 107.677C42.1005 107.571 42.1607 107.466 42.2128 107.361C40.9103 106.121 39.4009 105.107 37.7587 104.363C37.9304 104.314 38.1058 104.265 38.2819 104.219C38.2892 104.227 38.2958 104.229 38.3032 104.233C39.8199 104.798 41.2625 105.542 42.6068 106.448C42.6318 106.388 42.6523 106.328 42.6736 106.265C42.6912 106.208 42.7088 106.156 42.7228 106.1C41.5047 105.289 40.2022 104.608 38.844 104.071C39.2373 103.973 39.6306 103.882 40.0232 103.794C41.1847 103.537 42.35 103.323 43.5226 103.12Z" fill="#678041"/>
<path d="M8.76068 138.874C8.77315 139.142 8.76655 139.412 8.75995 139.682C8.70565 142.233 8.05037 144.718 7.80895 147.269C7.78841 147.411 7.7796 147.548 7.76713 147.693C7.75612 147.858 7.74878 148.015 7.74951 148.175C7.69595 148.998 7.71943 149.816 7.79794 150.637C7.81996 150.927 7.85885 151.225 7.89701 151.522C8.42167 155.258 10.0632 158.858 12.4355 161.817C13.0827 162.625 13.7849 163.391 14.5349 164.11C14.7418 164.316 14.9524 164.515 15.174 164.709C17.1648 166.506 19.4403 167.997 21.8655 169.193C22.1245 169.318 22.3923 169.445 22.6543 169.561C23.3418 169.879 24.047 170.176 24.7544 170.445C25.4214 170.699 26.087 170.932 26.7672 171.154C27.0908 171.258 27.4151 171.361 27.7424 171.457C31.4517 172.565 35.3078 173.198 39.1668 173.409C39.3312 173.42 39.5043 173.434 39.6724 173.437C39.657 172.829 39.6305 172.227 39.5792 171.614C39.103 164.949 36.691 158.424 32.7322 153.044C32.5399 152.777 32.3447 152.52 32.1459 152.269C31.8465 151.875 31.5354 151.485 31.2118 151.128C31.021 150.881 30.8243 150.65 30.6233 150.428C30.6027 150.41 30.5932 150.387 30.5719 150.369C28.8915 148.501 27.0115 146.822 24.9797 145.356C24.7324 145.179 24.4763 145 24.2253 144.832C19.7455 141.767 14.5708 139.713 9.19435 138.94C9.05273 138.918 8.90303 138.894 8.76068 138.874Z" fill="#A2CC58"/>
<path d="M8.76072 139.681C8.76733 139.411 8.77393 139.142 8.76146 138.873C8.90381 138.894 9.05351 138.917 9.19586 138.938C14.1196 141.997 18.9634 145.183 23.4153 148.895C23.5004 147.511 23.7697 146.137 24.2268 144.83C24.4778 144.998 24.7332 145.177 24.9812 145.353C24.5277 146.718 24.2826 148.15 24.2621 149.606C24.3164 149.657 24.3743 149.699 24.4294 149.749C26.1332 151.214 27.7659 152.762 29.2959 154.401C29.6231 153.022 30.0421 151.671 30.5741 150.366C30.5954 150.384 30.605 150.407 30.6255 150.425C30.8258 150.647 31.0232 150.879 31.214 151.125C30.7062 152.44 30.3034 153.797 30.0113 155.181C30.241 155.424 30.4589 155.673 30.6732 155.93C31.0401 154.661 31.5391 153.437 32.1474 152.267C32.3462 152.517 32.5414 152.775 32.7337 153.041C32.1547 154.186 31.7056 155.402 31.3644 156.654L31.3417 156.71C33.3479 159.115 35.1369 161.686 36.6162 164.44C37.8445 166.726 38.8564 169.129 39.5814 171.613C39.6321 172.225 39.6592 172.828 39.6746 173.435C39.5066 173.432 39.3341 173.418 39.169 173.407C38.6143 171.106 37.8035 168.878 36.8048 166.742C33.4748 167.63 30.3775 169.26 27.7446 171.456C27.4174 171.359 27.0938 171.256 26.7694 171.152C29.541 168.731 32.8526 166.944 36.4283 165.959C35.1288 163.363 33.535 160.891 31.7475 158.594C28.0947 161.679 25.0091 165.4 22.6558 169.559C22.3931 169.443 22.126 169.315 21.867 169.191C24.2855 164.917 27.4489 161.097 31.2074 157.914C30.6725 157.245 30.1111 156.594 29.5468 155.951C24.1439 157.731 19.4176 160.96 15.1755 164.707C14.9539 164.513 14.7433 164.315 14.5364 164.108C18.785 160.345 23.5209 157.091 28.9004 155.255C26.7386 152.908 24.3736 150.76 21.875 148.756L21.867 148.752C17.076 148.8 12.3358 149.76 7.89852 151.521C7.86036 151.223 7.82147 150.926 7.79946 150.635C11.9468 149.01 16.3591 148.094 20.8243 147.923C20.4757 147.649 20.1191 147.373 19.7588 147.103C19.736 147.113 19.717 147.114 19.6971 147.116C15.6892 146.994 11.6827 147.352 7.75103 148.172C7.75029 148.012 7.75763 147.856 7.76864 147.691C7.78111 147.546 7.78992 147.408 7.81046 147.266C11.3635 146.545 14.9891 146.201 18.6082 146.239C17.7981 145.646 16.9814 145.068 16.1617 144.499C13.7336 142.827 11.26 141.245 8.76072 139.681Z" fill="#678041"/>
<path d="M72.944 276.55C73.5626 276.768 74.1826 276.978 74.8012 277.196C74.7278 277.276 74.6567 277.349 74.5848 277.421C73.2808 278.802 72.3826 279.626 71.0413 281.065C69.7513 282.449 68.4436 283.843 66.9995 285.059C66.7464 285.282 66.4786 285.502 66.2056 285.712C65.9216 285.936 65.6259 286.148 65.3316 286.354C64.104 287.193 62.7795 287.879 61.3934 288.39C61.1241 288.496 60.8518 288.586 60.5811 288.668C58.1845 289.431 55.639 289.708 53.1412 289.438C52.8176 289.401 52.4881 289.356 52.1682 289.304C51.9209 289.264 51.6824 289.219 51.4461 289.166C48.0171 288.448 44.8486 286.705 42.3654 284.198C42.2378 284.075 42.1189 283.946 41.9934 283.816C42.022 283.702 42.0565 283.597 42.0998 283.487C43.2775 279.592 46.529 276.503 50.297 274.93C50.7351 274.754 51.1724 274.585 51.623 274.449C51.8724 274.361 52.1183 274.287 52.3692 274.222C52.5739 274.16 52.786 274.101 53.0017 274.057C53.2527 273.992 53.5022 273.934 53.7568 273.885C55.2721 273.581 56.8285 273.446 58.3929 273.457C58.6952 273.457 58.9983 273.459 59.3043 273.476C60.438 273.513 61.5746 273.628 62.69 273.797C66.1924 274.338 69.5862 275.403 72.944 276.55Z" fill="#A2CC58"/>
<path d="M72.944 276.55C73.5626 276.768 74.1826 276.978 74.8012 277.196C74.7278 277.276 74.6567 277.349 74.5848 277.421C72.4142 277.234 70.226 277.058 68.0386 276.964C67.6218 279.652 67.2777 282.35 66.9995 285.059C66.7464 285.282 66.4786 285.502 66.2056 285.713C66.4903 282.772 66.8616 279.845 67.3063 276.93C67.1779 276.928 67.0516 276.918 66.9166 276.914C66.1821 276.887 65.4483 276.883 64.7064 276.884C63.3871 280.652 62.2754 284.496 61.3934 288.39C61.1241 288.496 60.8518 288.586 60.5811 288.668C61.4653 284.676 62.5895 280.752 63.9323 276.891C63.1721 276.903 62.4178 276.923 61.6627 276.974C61.6304 276.981 61.593 276.979 61.5555 276.977C59.0636 277.132 56.5775 277.501 54.1692 278.161C54.167 278.199 54.1743 278.231 54.1655 278.266C53.2307 281.89 52.5593 285.58 52.1674 289.304C51.9201 289.263 51.6817 289.219 51.4454 289.166C51.8372 285.533 52.4852 281.935 53.384 278.393C53.2292 278.437 53.0759 278.474 52.9284 278.519C49.0833 279.77 45.6499 281.903 42.3654 284.197C42.2378 284.073 42.1189 283.945 41.9934 283.814C42.022 283.701 42.0565 283.596 42.0998 283.486C43.7266 282.354 45.3894 281.261 47.1336 280.296C49.1537 279.166 51.2766 278.229 53.5 277.581C53.7546 277.502 54.0114 277.446 54.2624 277.381C53.2828 276.497 52.3964 275.515 51.623 274.448C51.8724 274.36 52.1183 274.286 52.3692 274.221C53.1624 275.301 54.0863 276.285 55.107 277.157C54.3453 276.161 53.646 275.128 53.0017 274.056C53.2527 273.991 53.5022 273.934 53.7568 273.885C54.4062 274.965 55.1217 275.995 55.8907 276.992C57.3458 276.688 58.8163 276.47 60.289 276.337C60.4512 276.325 60.6038 276.319 60.766 276.307C59.8987 275.428 59.0959 274.475 58.3929 273.456C58.6952 273.457 58.9983 273.458 59.3043 273.475C60.0219 274.467 60.8335 275.384 61.7309 276.233C65.4711 276.017 69.2127 276.247 72.944 276.55Z" fill="#678041"/>
<path d="M268.313 192.141C268.616 192.248 268.921 192.35 269.224 192.458C269.188 192.496 269.153 192.532 269.118 192.568C268.478 193.245 268.038 193.65 267.38 194.355C266.747 195.034 266.106 195.718 265.397 196.314C265.273 196.423 265.142 196.531 265.007 196.634C264.868 196.744 264.723 196.848 264.579 196.949C263.977 197.361 263.327 197.698 262.647 197.948C262.515 198 262.381 198.044 262.248 198.084C261.073 198.459 259.824 198.594 258.599 198.461C258.441 198.443 258.279 198.421 258.122 198.396C258.001 198.376 257.884 198.354 257.768 198.329C256.086 197.976 254.532 197.122 253.314 195.892C253.251 195.832 253.192 195.768 253.131 195.705C253.145 195.649 253.162 195.597 253.183 195.543C253.76 193.632 255.356 192.118 257.203 191.346C257.418 191.259 257.633 191.176 257.854 191.11C257.976 191.066 258.096 191.03 258.22 190.998C258.32 190.968 258.424 190.939 258.53 190.917C258.653 190.886 258.776 190.857 258.901 190.833C259.644 190.684 260.407 190.617 261.175 190.622C261.323 190.623 261.472 190.623 261.622 190.632C262.178 190.65 262.735 190.707 263.282 190.79C265.001 191.055 266.666 191.578 268.313 192.141Z" fill="#A2CC58"/>
<path d="M268.313 192.14C268.616 192.247 268.921 192.35 269.224 192.457C269.188 192.496 269.153 192.532 269.118 192.568C268.053 192.476 266.98 192.39 265.908 192.343C265.703 193.662 265.534 194.985 265.398 196.313C265.274 196.422 265.142 196.53 265.008 196.634C265.147 195.191 265.329 193.756 265.547 192.326C265.484 192.325 265.423 192.32 265.357 192.318C264.996 192.305 264.637 192.303 264.272 192.303C263.625 194.151 263.08 196.036 262.647 197.947C262.515 197.999 262.381 198.043 262.248 198.083C262.682 196.125 263.234 194.2 263.892 192.307C263.519 192.312 263.149 192.322 262.779 192.347C262.763 192.351 262.745 192.349 262.727 192.348C261.504 192.425 260.285 192.605 259.104 192.93C259.103 192.948 259.107 192.963 259.102 192.981C258.643 194.758 258.314 196.568 258.121 198.395C258 198.375 257.883 198.353 257.767 198.327C257.959 196.546 258.277 194.781 258.718 193.043C258.642 193.065 258.567 193.083 258.494 193.106C256.608 193.719 254.924 194.766 253.313 195.89C253.25 195.83 253.192 195.767 253.13 195.703C253.144 195.648 253.161 195.596 253.182 195.542C253.981 194.987 254.796 194.451 255.651 193.977C256.642 193.423 257.684 192.963 258.774 192.646C258.899 192.607 259.025 192.58 259.149 192.547C258.668 192.114 258.234 191.632 257.854 191.108C257.977 191.065 258.097 191.029 258.22 190.997C258.609 191.527 259.063 192.009 259.563 192.436C259.19 191.948 258.846 191.441 258.531 190.915C258.654 190.884 258.777 190.855 258.901 190.831C259.22 191.361 259.571 191.866 259.948 192.355C260.662 192.205 261.383 192.099 262.105 192.034C262.184 192.028 262.26 192.025 262.339 192.019C261.914 191.588 261.52 191.121 261.175 190.621C261.324 190.622 261.473 190.622 261.622 190.631C261.974 191.117 262.372 191.567 262.813 191.984C264.648 191.879 266.483 191.992 268.313 192.14Z" fill="#678041"/>
<path d="M42.1578 35.6474C42.7221 35.3142 43.2827 34.9745 43.847 34.6406C43.861 34.7478 43.8705 34.8498 43.8808 34.951C44.098 36.8376 44.1515 38.055 44.3893 40.0076C44.6182 41.8853 44.8442 43.7837 44.8457 45.671C44.8538 46.0085 44.8494 46.3549 44.8354 46.6998C44.8237 47.0608 44.7958 47.424 44.7635 47.7814C44.616 49.2607 44.2887 50.7165 43.7883 52.1063C43.6958 52.38 43.5894 52.6471 43.4786 52.9076C42.5203 55.2323 41.0946 57.3603 39.2806 59.0979C39.0443 59.3217 38.7978 59.5448 38.5527 59.7568C38.3626 59.9205 38.1748 60.0738 37.9825 60.2206C35.2264 62.3831 31.8532 63.687 28.3361 63.9747C28.1593 63.993 27.9846 64.0011 27.8041 64.0136C27.7359 63.9182 27.6772 63.825 27.6207 63.7208C25.3966 60.3131 25.1243 55.8362 26.3453 51.9405C26.4921 51.4914 26.644 51.0482 26.8304 50.616C26.9236 50.3687 27.0248 50.1324 27.1371 49.8983C27.2215 49.7017 27.3125 49.5014 27.4174 49.3084C27.5297 49.0743 27.6456 48.8461 27.7718 48.6201C28.5144 47.264 29.4119 45.9858 30.4267 44.7956C30.6219 44.5644 30.8178 44.334 31.0277 44.1102C31.7857 43.2671 32.6046 42.4702 33.4521 41.7254C36.1202 39.3919 39.1192 37.4797 42.1578 35.6474Z" fill="#A2CC58"/>
<path d="M42.1578 35.6474C42.722 35.3142 43.2827 34.9745 43.8469 34.6406C43.8609 34.7478 43.8704 34.8498 43.8807 34.951C42.3405 36.492 40.7973 38.0535 39.3187 39.6678C41.1077 41.7166 42.9525 43.7162 44.8456 45.6717C44.8537 46.0093 44.8493 46.3556 44.8354 46.7005C42.7668 44.5908 40.7665 42.4232 38.8205 40.2072C38.7361 40.304 38.648 40.3943 38.5578 40.4955C38.0639 41.0408 37.5884 41.5992 37.1122 42.1679C39.1477 45.6027 41.3748 48.9268 43.7882 52.1085C43.6958 52.3822 43.5894 52.6493 43.4786 52.9098C40.9918 49.6643 38.7111 46.2786 36.6198 42.7659C36.1399 43.3551 35.6696 43.9458 35.2227 44.5563C35.2073 44.5857 35.1816 44.6128 35.1567 44.64C33.6715 46.6477 32.3543 48.7874 31.3101 51.0563C31.3373 51.082 31.3666 51.0974 31.3879 51.1267C33.5607 54.1742 35.9536 57.0624 38.5519 59.7583C38.3619 59.9219 38.174 60.0753 37.9817 60.2221C35.4531 57.5848 33.116 54.7737 30.9828 51.8062C30.9168 51.953 30.8464 52.0939 30.7862 52.2369C29.2687 55.9844 28.6934 59.9865 28.3353 63.9761C28.1585 63.9945 27.9838 64.0026 27.8033 64.015C27.7351 63.9196 27.6764 63.8264 27.6199 63.7222C27.8004 61.7483 28.0345 59.773 28.4175 57.8167C28.8527 55.5427 29.5006 53.3149 30.4362 51.1964C30.5396 50.9506 30.6614 50.718 30.7737 50.4839C29.4668 50.6644 28.1445 50.7114 26.8296 50.6167C26.9228 50.3694 27.024 50.1332 27.1363 49.8991C28.4733 49.9864 29.8205 49.9123 31.145 49.6922C29.8924 49.6349 28.6523 49.505 27.4166 49.3084C27.5289 49.0743 27.6448 48.8461 27.771 48.6201C29.0163 48.8182 30.2645 48.9334 31.5229 48.9862C32.2259 47.6764 33.0059 46.4106 33.8512 45.1977C33.9466 45.0663 34.0398 44.9445 34.1352 44.8132C32.9046 44.9115 31.6587 44.913 30.4259 44.7956C30.6211 44.5644 30.817 44.334 31.0269 44.1102C32.2479 44.1997 33.4726 44.1682 34.6995 44.0273C36.9412 41.0246 39.5249 38.3088 42.1578 35.6474Z" fill="#678041"/>
<path d="M253.132 56.7617C252.708 61.3853 249.211 65.4814 245.29 67.0722C249.43 68.7445 252.803 73.104 253.132 77.1076C253.461 73.1047 256.833 68.7453 260.973 67.0722C257.052 65.4814 253.555 61.3846 253.132 56.7617Z" fill="white"/>
<path d="M22.2236 4.30957C21.7995 8.93319 18.303 13.0299 14.3816 14.6201C18.5216 16.2924 21.8941 20.6518 22.2236 24.6554C22.5524 20.6526 25.9249 16.2931 30.0649 14.6201C26.1443 13.0292 22.6478 8.93246 22.2236 4.30957Z" fill="white"/>
<path d="M50.5751 84.1484C50.1509 88.7721 46.6544 92.8681 42.7338 94.4589C46.8738 96.1312 50.2463 100.491 50.5751 104.494C50.9045 100.491 54.2763 96.132 58.4171 94.4589C54.4964 92.8681 50.9992 88.7713 50.5751 84.1484Z" fill="white"/>
<path d="M272.463 78.418C272.259 80.6531 270.568 82.6336 268.673 83.4026C270.674 84.2113 272.304 86.3187 272.463 88.2537C272.623 86.3187 274.253 84.2113 276.254 83.4026C274.359 82.6336 272.668 80.6531 272.463 78.418Z" fill="white"/>
<path d="M60.7727 14.4814C60.568 16.7166 58.8773 18.6971 56.9819 19.4661C58.9837 20.2747 60.6135 22.3822 60.7727 24.3172C60.9319 22.3822 62.5624 20.2747 64.5635 19.4661C62.6681 18.6971 60.9782 16.7166 60.7727 14.4814Z" fill="white"/>
<path d="M282.297 14.4814C282.092 16.7166 280.401 18.6971 278.506 19.4661C280.508 20.2747 282.138 22.3822 282.297 24.3172C282.456 22.3822 284.087 20.2747 286.088 19.4661C284.192 18.6971 282.502 16.7166 282.297 14.4814Z" fill="white"/>
<path d="M22.2236 66.3926C22.0189 68.6277 20.3282 70.6082 18.4329 71.3772C20.4346 72.1859 22.0651 74.2933 22.2236 76.2283C22.3829 74.2933 24.0133 72.1859 26.0144 71.3772C24.119 70.6082 22.4284 68.6277 22.2236 66.3926Z" fill="white"/>
</svg>
