<svg width="105" height="27" viewBox="0 0 105 27" fill="none" xmlns="http://www.w3.org/2000/svg">
<path d="M14.1205 18.1935C14.002 18.2268 13.8149 18.2583 13.5631 18.2917C13.3112 18.325 13.0668 18.3398 12.826 18.3398C12.3205 18.3398 11.9445 18.2565 11.6927 18.0861C11.4408 17.9157 11.3167 17.5583 11.3167 17.0101V14.7953C11.0427 14.3916 10.7463 13.9416 10.4297 13.449C10.1111 12.9564 9.80005 12.4545 9.49449 11.9397C9.18707 11.4267 8.90374 10.9193 8.64077 10.423C8.37595 9.92667 8.16297 9.46742 8 9.05259C8.14074 8.85444 8.33703 8.67665 8.58148 8.51183C8.82593 8.34701 9.1315 8.26554 9.49262 8.26554C9.9167 8.26554 10.2649 8.35257 10.5352 8.5285C10.8038 8.70443 11.0575 9.03037 11.2982 9.51186L12.6594 12.2526H12.7575C12.9112 11.9119 13.0445 11.6026 13.1612 11.3248C13.276 11.0471 13.3871 10.7674 13.4982 10.4878C13.6075 10.21 13.7223 9.91926 13.8427 9.61741C13.9631 9.3174 14.1001 8.96927 14.2538 8.57482C14.4501 8.47667 14.6705 8.39887 14.9094 8.34517C15.1501 8.29146 15.3798 8.26367 15.5983 8.26367C15.9816 8.26367 16.3076 8.36553 16.5742 8.56738C16.8428 8.76924 16.9761 9.07112 16.9761 9.47668C16.9761 9.60817 16.9483 9.76741 16.8946 9.9526C16.8409 10.1396 16.7131 10.4211 16.5168 10.7989C16.3205 11.1748 16.0335 11.6878 15.6557 12.3323C15.2779 12.9786 14.7668 13.8212 14.1205 14.8601V18.1935Z" fill="#7A3817"/>
<path d="M17.5854 13.2686C17.5854 12.4168 17.7188 11.6612 17.9873 11.0038C18.2559 10.3464 18.6225 9.79819 19.0873 9.35373C19.5522 8.91113 20.0985 8.57409 20.7281 8.34446C21.3578 8.11483 22.0393 8 22.7726 8C23.5041 8 24.1874 8.11483 24.8171 8.34446C25.4467 8.57409 25.9967 8.91113 26.4671 9.35373C26.9375 9.79633 27.306 10.3464 27.5745 11.0038C27.8431 11.6593 27.9782 12.4168 27.9782 13.2686C27.9782 14.1223 27.8468 14.8798 27.5838 15.5428C27.3208 16.2039 26.9579 16.7576 26.4912 17.2002C26.0264 17.6428 25.4763 17.9798 24.8411 18.2095C24.2078 18.4391 23.517 18.5539 22.7744 18.5539C22.0318 18.5539 21.3429 18.4372 20.7077 18.202C20.0725 17.9669 19.5244 17.6243 19.0651 17.1761C18.6059 16.7279 18.2466 16.1761 17.9818 15.5205C17.7169 14.8612 17.5854 14.1112 17.5854 13.2686ZM20.5392 13.2686C20.5392 14.2649 20.7411 15.0076 21.1466 15.502C21.5503 15.9946 22.0929 16.2391 22.7707 16.2391C23.4596 16.2391 24.0078 15.9928 24.4134 15.502C24.8171 15.0076 25.0189 14.2649 25.0189 13.2686C25.0189 12.2853 24.8208 11.5464 24.4208 11.0538C24.0208 10.5612 23.4763 10.3167 22.7874 10.3167C22.1096 10.3167 21.5652 10.5612 21.154 11.0482C20.7429 11.5334 20.5392 12.2742 20.5392 13.2686Z" fill="#7A3817"/>
<path d="M38.4264 14.5808C38.4264 15.1716 38.3246 15.7105 38.1227 16.1975C37.9209 16.6846 37.6265 17.0994 37.2431 17.4457C36.8616 17.7883 36.3968 18.055 35.8486 18.242C35.3023 18.4291 34.6838 18.5198 33.9949 18.5198C33.306 18.5198 32.6875 18.4272 32.1393 18.242C31.593 18.055 31.1282 17.7902 30.7449 17.4457C30.3615 17.0994 30.0689 16.6846 29.8652 16.1975C29.6633 15.7105 29.5634 15.1716 29.5634 14.5808V8.31222C29.6837 8.28999 29.8745 8.26037 30.1374 8.22148C30.4004 8.18444 30.6504 8.16406 30.893 8.16406C31.1448 8.16406 31.3652 8.18444 31.556 8.22148C31.7486 8.26037 31.9078 8.32889 32.0411 8.42519C32.1708 8.52519 32.2708 8.66223 32.3356 8.83631C32.4004 9.01224 32.4356 9.24186 32.4356 9.5252V14.5309C32.4356 15.0549 32.5801 15.466 32.869 15.7623C33.1579 16.0568 33.5338 16.2049 33.9931 16.2049C34.4634 16.2049 34.8394 16.0568 35.1246 15.7623C35.4079 15.466 35.5505 15.0549 35.5505 14.5309V8.31222C35.6709 8.28999 35.8616 8.26037 36.1246 8.22148C36.3894 8.18444 36.6394 8.16406 36.8801 8.16406C37.132 8.16406 37.3524 8.18444 37.5431 8.22148C37.7357 8.26037 37.895 8.32889 38.0283 8.42519C38.1598 8.52519 38.2579 8.66223 38.3227 8.83631C38.3894 9.01224 38.4228 9.24186 38.4228 9.5252V14.5808H38.4264Z" fill="#7A3817"/>
<path d="M43.3657 15.0418V18.1937C43.2453 18.2271 43.0564 18.2585 42.799 18.2919C42.5416 18.3252 42.2878 18.34 42.036 18.34C41.7841 18.34 41.5619 18.3215 41.3711 18.2845C41.1804 18.2456 41.023 18.177 40.8952 18.0789C40.7693 17.9807 40.6748 17.8437 40.6082 17.6678C40.5434 17.4937 40.51 17.2641 40.51 16.9789V9.24912C40.51 9.01948 40.573 8.84168 40.6989 8.71576C40.8249 8.59168 40.9971 8.48982 41.2156 8.41204C41.5878 8.28241 42.0211 8.18613 42.5119 8.12687C43.0045 8.06576 43.5304 8.03613 44.0879 8.03613C45.5972 8.03613 46.7361 8.35279 47.5027 8.98799C48.2676 9.62319 48.6509 10.4825 48.6509 11.5658C48.6509 12.2436 48.475 12.8232 48.125 13.3047C47.775 13.7862 47.3601 14.1566 46.8786 14.4196C47.2712 14.9548 47.6601 15.4585 48.0435 15.927C48.4268 16.3992 48.7269 16.8252 48.9454 17.2067C48.8361 17.59 48.6361 17.8826 48.3472 18.0863C48.0564 18.2882 47.7324 18.39 47.3713 18.39C47.1305 18.39 46.9231 18.3604 46.7472 18.3067C46.5713 18.253 46.4194 18.1771 46.2879 18.0771C46.1564 17.9789 46.0361 17.8585 45.9268 17.7178C45.8176 17.5752 45.7138 17.4215 45.6157 17.2567L44.2379 15.0418H43.3657ZM44.399 12.8603C44.8157 12.8603 45.1435 12.7529 45.3842 12.5399C45.625 12.3269 45.7453 12.0121 45.7453 11.5955C45.7453 11.1788 45.6101 10.8639 45.3416 10.651C45.0731 10.438 44.6508 10.3306 44.0693 10.3306C43.9045 10.3306 43.7749 10.3361 43.6749 10.3473C43.5768 10.3584 43.4675 10.375 43.3471 10.3954V12.8584H44.399V12.8603Z" fill="#7A3817"/>
<path d="M56.1788 14.3068C55.6955 14.142 55.2585 13.9753 54.8659 13.8068C54.4714 13.6383 54.1306 13.4327 53.8473 13.192C53.564 12.9512 53.3417 12.6642 53.1843 12.3309C53.0251 11.9957 52.9454 11.5901 52.9454 11.1086C52.9454 10.1771 53.3029 9.43452 54.0196 8.87525C54.7381 8.31783 55.7418 8.04004 57.0307 8.04004C57.503 8.04004 57.94 8.07154 58.3437 8.13821C58.7493 8.20302 59.0955 8.30485 59.3863 8.44189C59.6752 8.57893 59.903 8.75302 60.0659 8.96598C60.2308 9.17895 60.3122 9.42895 60.3122 9.71229C60.3122 9.99748 60.2474 10.2401 60.116 10.4438C59.9863 10.6457 59.8271 10.8179 59.64 10.9605C59.3993 10.8067 59.0771 10.6734 58.6734 10.5586C58.2678 10.4419 57.8252 10.3845 57.3437 10.3845C56.8511 10.3845 56.49 10.453 56.2603 10.5901C56.0307 10.7253 55.914 10.8994 55.914 11.1068C55.914 11.2697 55.9863 11.4031 56.127 11.5086C56.2696 11.6123 56.4825 11.7068 56.7677 11.7957L57.6381 12.0735C58.6678 12.4012 59.4585 12.8198 60.0104 13.329C60.5622 13.8364 60.8382 14.5291 60.8382 15.405C60.8382 16.3346 60.4715 17.0865 59.7382 17.6624C59.003 18.2365 57.9252 18.5236 56.5048 18.5236C56.0029 18.5236 55.5344 18.4847 55.101 18.4013C54.6695 18.3199 54.2899 18.1995 53.9695 18.0402C53.6473 17.8828 53.3954 17.6865 53.2158 17.4513C53.0343 17.2161 52.9454 16.9458 52.9454 16.6384C52.9454 16.3198 53.0381 16.0513 53.2233 15.8254C53.4085 15.6031 53.6121 15.4291 53.8306 15.3105C54.1362 15.5513 54.5122 15.7587 54.9548 15.9328C55.3974 16.1087 55.8807 16.1976 56.4066 16.1976C56.9418 16.1976 57.3196 16.1143 57.5381 15.9513C57.7567 15.7865 57.8659 15.5957 57.8659 15.3754C57.8659 15.155 57.7789 14.9902 57.603 14.8753C57.427 14.7605 57.1807 14.6494 56.8659 14.5383L56.1788 14.3068Z" fill="#7A3817"/>
<path d="M67.5327 10.3167C66.6901 10.3167 66.0438 10.5741 65.5956 11.0871C65.1475 11.6019 64.9234 12.3297 64.9234 13.2705C64.9234 14.2242 65.1734 14.9557 65.6697 15.4705C66.1678 15.9853 66.8383 16.2428 67.679 16.2428C68.1272 16.2428 68.5087 16.1835 68.8198 16.0613C69.1327 15.9427 69.429 15.8038 69.7142 15.6501C69.9013 15.8038 70.0457 15.9872 70.1475 16.2001C70.2531 16.4131 70.3031 16.6631 70.3031 16.9465C70.3031 17.3946 70.055 17.7742 69.5587 18.0872C69.0586 18.3983 68.3012 18.5539 67.2845 18.5539C66.5512 18.5539 65.8604 18.4502 65.216 18.2428C64.5697 18.0354 64.0086 17.715 63.5271 17.2816C63.0437 16.8502 62.6641 16.3038 62.3863 15.6409C62.1085 14.9797 61.9678 14.189 61.9678 13.2686C61.9678 12.4168 62.1011 11.6649 62.3697 11.013C62.6382 10.3612 63.0048 9.81298 63.4697 9.36297C63.9345 8.91482 64.4789 8.57409 65.103 8.34446C65.7271 8.11483 66.3938 8 67.1049 8C68.1105 8 68.8901 8.16295 69.4438 8.49259C69.9957 8.82037 70.2716 9.24076 70.2716 9.75558C70.2716 10.0408 70.2012 10.2871 70.0586 10.4945C69.9179 10.7019 69.7531 10.8667 69.5661 10.9871C69.2827 10.8 68.979 10.6408 68.6549 10.5112C68.3345 10.3834 67.9605 10.3167 67.5327 10.3167Z" fill="#7A3817"/>
<path d="M71.1754 13.2715C71.1754 12.4197 71.3087 11.6641 71.5772 11.0067C71.8458 10.3493 72.2124 9.80112 72.6772 9.35666C73.1421 8.91406 73.6884 8.57702 74.318 8.34739C74.9477 8.11776 75.6292 8.00293 76.3625 8.00293C77.0959 8.00293 77.7774 8.11776 78.4052 8.34739C79.0348 8.57702 79.5848 8.91406 80.0552 9.35666C80.5256 9.79926 80.8941 10.3493 81.1626 11.0067C81.433 11.6623 81.5663 12.4197 81.5663 13.2715C81.5663 14.1253 81.4348 14.8827 81.1719 15.5457C80.9089 16.2068 80.5459 16.7605 80.0793 17.2031C79.6144 17.6457 79.0644 17.9827 78.4292 18.2124C77.7959 18.442 77.1051 18.5568 76.3625 18.5568C75.6199 18.5568 74.931 18.4402 74.2958 18.205C73.6606 17.9698 73.1124 17.6272 72.6532 17.179C72.1939 16.7309 71.8347 16.179 71.5698 15.5234C71.3069 14.8642 71.1754 14.1142 71.1754 13.2715ZM74.1291 13.2715C74.1291 14.2679 74.331 15.0105 74.7365 15.5049C75.1403 15.9975 75.6829 16.242 76.3607 16.242C77.0496 16.242 77.5977 15.9957 78.0033 15.5049C78.407 15.0105 78.6088 14.2679 78.6088 13.2715C78.6088 12.2882 78.4088 11.5493 78.0107 11.0567C77.6107 10.5641 77.0662 10.3197 76.3773 10.3197C75.6996 10.3197 75.1551 10.5641 74.7439 11.0512C74.3328 11.5364 74.1291 12.2771 74.1291 13.2715Z" fill="#7A3817"/>
<path d="M86.059 15.0438V18.1957C85.9386 18.229 85.7497 18.2605 85.4923 18.2938C85.2349 18.3272 84.9812 18.342 84.7293 18.342C84.4775 18.342 84.2552 18.3235 84.0645 18.2864C83.8719 18.2475 83.7163 18.179 83.5885 18.0808C83.4626 17.9827 83.3681 17.8457 83.3015 17.6697C83.2367 17.4957 83.2034 17.266 83.2034 16.9808V9.25107C83.2034 9.02144 83.2663 8.84364 83.3922 8.71771C83.5182 8.59363 83.6904 8.49178 83.9089 8.414C84.2811 8.28436 84.7145 8.18808 85.2052 8.12882C85.6978 8.06771 86.2238 8.03809 86.7794 8.03809C88.2905 8.03809 89.4275 8.35474 90.1942 8.98994C90.9591 9.62514 91.3424 10.4844 91.3424 11.5678C91.3424 12.2456 91.1665 12.8252 90.8165 13.3067C90.4683 13.7882 90.0516 14.1586 89.5701 14.4215C89.9627 14.9567 90.3516 15.4604 90.735 15.9289C91.1183 16.4012 91.4183 16.8271 91.6368 17.2086C91.5276 17.592 91.3276 17.8845 91.0387 18.0883C90.7479 18.2901 90.4238 18.392 90.0627 18.392C89.822 18.392 89.6146 18.3623 89.4387 18.3086C89.2627 18.2549 89.1109 18.179 88.9794 18.079C88.8479 17.9809 88.7275 17.8605 88.6182 17.7197C88.509 17.5771 88.4053 17.4234 88.3071 17.2586L86.9294 15.0438H86.059ZM87.0923 12.8622C87.509 12.8622 87.8368 12.7548 88.0775 12.5419C88.3183 12.3289 88.4386 12.0141 88.4386 11.5974C88.4386 11.1807 88.3034 10.8659 88.0349 10.6529C87.7664 10.44 87.3442 10.3326 86.7646 10.3326C86.5997 10.3326 86.4701 10.3381 86.3701 10.3492C86.2719 10.3603 86.1627 10.377 86.0423 10.3974V12.8604H87.0923V12.8622Z" fill="#7A3817"/>
<path d="M93.1982 9.84323C93.1982 9.37285 93.3333 9.00063 93.6092 8.72655C93.8815 8.45432 94.2555 8.31543 94.7241 8.31543H100.139C100.217 8.4358 100.283 8.59322 100.345 8.79137C100.404 8.98767 100.435 9.19692 100.435 9.41544C100.435 9.83211 100.345 10.1266 100.163 10.3025C99.9816 10.4784 99.7446 10.5655 99.4483 10.5655H95.9852V12.0914H99.6779C99.7538 12.2118 99.8223 12.3673 99.8834 12.5599C99.9427 12.7525 99.9742 12.9562 99.9742 13.1748C99.9742 13.5914 99.8853 13.8859 99.7112 14.0618C99.5372 14.2378 99.3019 14.3248 99.0056 14.3248H95.9852V16.0489H100.204C100.28 16.1693 100.348 16.3267 100.408 16.5248C100.467 16.723 100.498 16.9304 100.498 17.1489C100.498 17.5656 100.408 17.8638 100.228 18.0415C100.046 18.223 99.8093 18.3119 99.513 18.3119H94.7223C94.2519 18.3119 93.8796 18.1767 93.6074 17.9008C93.3333 17.6267 93.1963 17.2545 93.1963 16.7841V9.84323H93.1982Z" fill="#7A3817"/>
<path d="M101.648 11.7792C101.648 11.3199 101.791 10.9366 102.074 10.6292C102.359 10.3236 102.746 10.1699 103.241 10.1699C103.733 10.1699 104.12 10.3236 104.406 10.6292C104.689 10.9366 104.832 11.3199 104.832 11.7792C104.832 12.2385 104.689 12.6218 104.406 12.9274C104.12 13.233 103.733 13.3867 103.241 13.3867C102.746 13.3867 102.359 13.233 102.074 12.9274C101.791 12.6237 101.648 12.2403 101.648 11.7792ZM101.648 16.933C101.648 16.4738 101.791 16.0904 102.074 15.7849C102.359 15.4775 102.746 15.3256 103.241 15.3256C103.733 15.3256 104.12 15.4775 104.406 15.7849C104.689 16.0904 104.832 16.4738 104.832 16.933C104.832 17.3923 104.689 17.7756 104.406 18.0812C104.12 18.3867 103.733 18.5405 103.241 18.5405C102.746 18.5405 102.359 18.3867 102.074 18.0812C101.791 17.7756 101.648 17.3923 101.648 16.933Z" fill="#7A3817"/>
</svg>
