<svg width="28" height="27" viewBox="0 0 28 27" fill="none" xmlns="http://www.w3.org/2000/svg">
<path d="M27.1699 13.5042C27.1687 16.1687 26.371 18.773 24.8777 20.9879C23.3844 23.2027 21.2625 24.9286 18.7803 25.9474C16.2981 26.9662 13.5671 27.232 10.9326 26.7113C8.29808 26.1906 5.87839 24.9068 3.97945 23.0222C2.08051 21.1375 0.787623 18.7367 0.26423 16.1233C-0.259164 13.5098 0.010444 10.8011 1.03899 8.33966C2.06754 5.8782 3.80883 3.77452 6.04267 2.2946C8.27652 0.81469 10.9026 0.0250001 13.5889 0.0253908C15.3731 0.0251305 17.1399 0.373654 18.7883 1.05103C20.4366 1.72841 21.9343 2.72136 23.1955 3.97313C24.4568 5.22491 25.457 6.71096 26.1389 8.34635C26.8209 9.98174 27.1712 11.7344 27.1699 13.5042Z" fill="url(#paint0_radial_1121_195262)"/>
<g style="mix-blend-mode:multiply" opacity="0.05">
<path d="M13.589 0.0253912C10.9021 0.0246093 8.27537 0.814129 6.04089 2.29411C3.80641 3.77409 2.06457 5.87807 1.03563 8.33997C0.00668511 10.8019 -0.263146 13.5111 0.26026 16.1251C0.783667 18.7391 2.0768 21.1405 3.97614 23.0255C5.87547 24.9106 8.29573 26.1946 10.9308 26.7153C13.5659 27.236 16.2974 26.97 18.7801 25.9508C21.2627 24.9317 23.3849 23.2052 24.8783 20.9897C26.3717 18.7742 27.1692 16.1692 27.17 13.5042C27.1705 11.7346 26.8196 9.9823 26.1374 8.34727C25.4552 6.71223 24.455 5.22649 23.1939 3.97487C21.9328 2.72325 20.4354 1.73027 18.7874 1.05262C17.1394 0.374965 15.373 0.0259104 13.589 0.0253912ZM9.35365 21.7302C9.21014 21.663 9.07461 21.5938 8.92912 21.5127C3.40623 18.7786 1.89945 11.1734 4.87316 6.15193C8.13786 0.598708 14.8387 -0.621066 20.3655 2.11502C20.511 2.18223 20.6486 2.2534 20.7901 2.31271C26.303 5.05077 27.8197 12.6739 24.852 17.6953C21.5813 23.2307 14.8785 24.4604 9.35365 21.7302Z" fill="#00233A"/>
</g>
<g style="mix-blend-mode:screen" opacity="0.05">
<path d="M24.7346 8.58842L24.615 8.10999C23.0205 1.50109 14.2947 -0.570742 9.58101 4.04343C4.92512 8.59039 6.76277 17.453 13.4496 19.0168L13.9379 19.1354C20.4594 20.6576 26.2852 15.1558 24.7346 8.58842Z" fill="#FDFDFD"/>
</g>
<defs>
<radialGradient id="paint0_radial_1121_195262" cx="0" cy="0" r="1" gradientUnits="userSpaceOnUse" gradientTransform="translate(18.4381 11.1793) scale(17.7027 17.5592)">
<stop stop-color="#FFFEFF"/>
<stop offset="0.5" stop-color="#E37A5F"/>
<stop offset="1" stop-color="#DE5D45"/>
</radialGradient>
</defs>
</svg>
