<svg width="28" height="27" viewBox="0 0 28 27" fill="none" xmlns="http://www.w3.org/2000/svg">
<path d="M27.3398 13.5042C27.3386 16.1687 26.541 18.773 25.0476 20.9879C23.5543 23.2027 21.4324 24.9286 18.9502 25.9474C16.468 26.9662 13.737 27.232 11.1025 26.7113C8.46801 26.1906 6.04831 24.9068 4.14937 23.0222C2.25043 21.1375 0.957545 18.7367 0.434152 16.1233C-0.089242 13.5098 0.180366 10.8011 1.20891 8.33966C2.23746 5.8782 3.97875 3.77452 6.21259 2.2946C8.44644 0.81469 11.0725 0.0250001 13.7588 0.0253908C15.543 0.0251305 17.3098 0.373654 18.9582 1.05103C20.6066 1.72841 22.1042 2.72136 23.3654 3.97313C24.6267 5.22491 25.6269 6.71096 26.3089 8.34635C26.9908 9.98174 27.3411 11.7344 27.3398 13.5042Z" fill="url(#paint0_radial_1121_195223)"/>
<g style="mix-blend-mode:multiply" opacity="0.05">
<path d="M13.7589 0.0253912C11.0721 0.0246093 8.44529 0.814129 6.21081 2.29411C3.97634 3.77409 2.2345 5.87807 1.20555 8.33997C0.176607 10.8019 -0.0932243 13.5111 0.430182 16.1251C0.953589 18.7391 2.24672 21.1405 4.14606 23.0255C6.0454 24.9106 8.46565 26.1946 11.1007 26.7153C13.7358 27.236 16.4674 26.97 18.95 25.9508C21.4326 24.9317 23.5548 23.2052 25.0482 20.9897C26.5416 18.7742 27.3391 16.1692 27.3399 13.5042C27.3404 11.7346 26.9896 9.9823 26.3073 8.34727C25.6251 6.71223 24.6249 5.22649 23.3638 3.97487C22.1027 2.72325 20.6054 1.73027 18.9574 1.05262C17.3093 0.374965 15.5429 0.0259104 13.7589 0.0253912ZM9.52357 21.7302C9.38007 21.663 9.24453 21.5938 9.09904 21.5127C3.57615 18.7786 2.06937 11.1734 5.04308 6.15193C8.30778 0.598708 15.0086 -0.621066 20.5355 2.11502C20.681 2.18223 20.8185 2.2534 20.96 2.31271C26.4729 5.05077 27.9897 12.6739 25.0219 17.6953C21.7513 23.2307 15.0485 24.4604 9.52357 21.7302Z" fill="#00233A"/>
</g>
<g style="mix-blend-mode:screen" opacity="0.05">
<path d="M24.9045 8.58842L24.7849 8.10999C23.1904 1.50109 14.4646 -0.570742 9.75094 4.04343C5.09505 8.59039 6.93269 17.453 13.6196 19.0168L14.1079 19.1354C20.6293 20.6576 26.4551 15.1558 24.9045 8.58842Z" fill="#FDFDFD"/>
</g>
<defs>
<radialGradient id="paint0_radial_1121_195223" cx="0" cy="0" r="1" gradientUnits="userSpaceOnUse" gradientTransform="translate(18.608 11.1793) scale(17.7027 17.5592)">
<stop stop-color="#FFFEFF"/>
<stop offset="0.5" stop-color="#8CC762"/>
<stop offset="1" stop-color="#079F48"/>
</radialGradient>
</defs>
</svg>
