<svg width="28" height="27" viewBox="0 0 28 27" fill="none" xmlns="http://www.w3.org/2000/svg">
<path d="M27.1698 13.504C27.1686 16.1685 26.371 18.7728 24.8776 20.9876C23.3843 23.2024 21.2625 24.9283 18.7803 25.9471C16.2981 26.9658 13.5672 27.2317 10.9327 26.711C8.29822 26.1903 5.87856 24.9065 3.97964 23.0219C2.08073 21.1373 0.787857 18.7365 0.264471 16.1231C-0.258916 13.5096 0.0106881 10.801 1.03922 8.33956C2.06775 5.87813 3.80902 3.77447 6.04284 2.29458C8.27666 0.81468 10.9027 0.0250001 13.589 0.0253908C15.3732 0.0251305 17.1399 0.373649 18.7883 1.05102C20.4366 1.72839 21.9342 2.72132 23.1955 3.97308C24.4567 5.22484 25.4569 6.71087 26.1388 8.34624C26.8208 9.98161 27.1711 11.7343 27.1698 13.504Z" fill="url(#paint0_radial_1121_195121)"/>
<g style="mix-blend-mode:multiply" opacity="0.05">
<path d="M13.5888 0.0253912C10.902 0.0246093 8.27527 0.814119 6.04082 2.29408C3.80637 3.77404 2.06455 5.87799 1.03562 8.33986C0.00668502 10.8017 -0.263143 13.511 0.260257 16.1249C0.783657 18.7389 2.07677 21.1402 3.97609 23.0252C5.8754 24.9103 8.29563 26.1943 10.9307 26.715C13.5657 27.2357 16.2972 26.9696 18.7798 25.9505C21.2624 24.9314 23.3846 23.2049 24.878 20.9894C26.3714 18.774 27.1689 16.169 27.1697 13.504C27.1702 11.7345 26.8193 9.98218 26.1371 8.34716C25.4549 6.71214 24.4547 5.22642 23.1936 3.97482C21.9325 2.72322 20.4352 1.73025 18.7872 1.0526C17.1392 0.374961 15.3728 0.0259104 13.5888 0.0253912ZM9.35353 21.7299C9.21003 21.6627 9.0745 21.5935 8.929 21.5125C3.40618 18.7784 1.89942 11.1732 4.87309 6.15185C8.13776 0.5987 14.8385 -0.621058 20.3653 2.11499C20.5108 2.18221 20.6483 2.25337 20.7898 2.31268C26.3027 5.05071 27.8194 12.6737 24.8517 17.6951C21.5811 23.2304 14.8783 24.46 9.35353 21.7299Z" fill="#00233A"/>
</g>
<g style="mix-blend-mode:screen" opacity="0.05">
<path d="M24.7341 8.58833L24.6145 8.10991C23.0201 1.50109 14.2944 -0.570715 9.58074 4.0434C4.92491 8.5903 6.76253 17.4528 13.4493 19.0165L13.9376 19.1352C20.459 20.6574 26.2847 15.1556 24.7341 8.58833Z" fill="#FDFDFD"/>
</g>
<defs>
<radialGradient id="paint0_radial_1121_195121" cx="0" cy="0" r="1" gradientUnits="userSpaceOnUse" gradientTransform="translate(18.4381 11.1791) scale(17.7025 17.5589)">
<stop stop-color="#FFFEFF"/>
<stop offset="0.5" stop-color="#F8E86A"/>
<stop offset="1" stop-color="#E8C539"/>
</radialGradient>
</defs>
</svg>
