<svg width="17" height="17" viewBox="0 0 17 17" fill="none" xmlns="http://www.w3.org/2000/svg">
<path d="M0.154972 7.41212C0.0769486 7.16914 0.084297 6.91789 0.162816 6.67288C0.17238 6.64148 0.18462 6.6184 0.196859 6.59533C0.199836 6.57523 0.21475 6.56048 0.221338 6.54918C0.237267 6.50577 0.258055 6.47995 0.276169 6.4458C0.288408 6.42272 0.303323 6.40798 0.315785 6.3856L0.321659 6.37452C0.333898 6.35144 0.348812 6.3367 0.36395 6.32265L0.385452 6.2966C0.427743 6.24473 0.472931 6.20188 0.517897 6.15834C0.541584 6.14155 0.56576 6.12383 0.589225 6.10634C0.613625 6.08931 0.645639 6.06908 0.670039 6.05205C0.702765 6.03159 0.744265 6.00907 0.786254 5.98563C0.804066 5.97991 0.827755 5.96312 0.845567 5.9574C0.881192 5.94596 0.914141 5.92619 0.949766 5.91475C1.01175 5.89485 1.07713 5.88304 1.15128 5.86919L5.35284 5.25674L7.26924 1.53216C7.30596 1.46293 7.35123 1.39096 7.40011 1.32778C7.46319 1.25009 7.51474 1.19525 7.57774 1.14668C7.60143 1.12989 7.63148 1.10109 7.67347 1.07765C7.77187 1.01695 7.87339 0.965973 7.98882 0.92891C8.02444 0.91747 8.0508 0.909005 8.08643 0.897566C8.13987 0.880407 8.19598 0.871579 8.25499 0.871776C8.26354 0.86903 8.28403 0.871641 8.29329 0.868667C8.32326 0.868998 8.34962 0.860533 8.37866 0.860399C8.38721 0.857653 8.40841 0.860036 8.43767 0.860596C8.46742 0.860232 8.49668 0.860792 8.52862 0.869683C8.5903 0.878211 8.65221 0.887432 8.72802 0.91057C8.76921 0.916486 8.80383 0.933708 8.83937 0.951395C8.83937 0.951395 8.84792 0.948649 8.8506 0.95698L9.12674 1.02147L9.16576 1.14296C9.18059 1.15734 9.19181 1.16293 9.20665 1.17731C9.22077 1.19192 9.24973 1.22091 9.27579 1.24088C9.30475 1.26987 9.33639 1.30719 9.37092 1.35354C9.38504 1.36815 9.40255 1.39086 9.41102 1.41725C9.43072 1.44921 9.45112 1.48095 9.47421 1.52102L11.3058 5.23753L15.4616 5.79693C15.9233 5.85926 16.298 6.16934 16.4371 6.60255C16.5374 6.91495 16.5016 7.26111 16.3396 7.55207C16.3066 7.60097 16.2821 7.64712 16.2454 7.68722C16.2031 7.73909 16.1609 7.79096 16.1157 7.83381L13.0624 10.7372L13.734 14.8162C13.8113 15.27 13.6134 15.7257 13.2283 15.9926C13.2041 16.0103 13.1897 16.0241 13.1626 16.0328C13.1541 16.0355 13.1541 16.0355 13.1475 16.0468C13.1231 16.0639 13.0996 16.0814 13.064 16.0928C13.0554 16.0955 13.0554 16.0955 13.0462 16.0985C13.0132 16.1183 12.9869 16.1268 12.9512 16.1382C12.7853 16.2014 12.5987 16.2323 12.4161 16.2143C12.3364 16.2108 12.2635 16.1967 12.1867 16.1731L12.1753 16.1668C12.0995 16.1437 12.02 16.1117 11.9499 16.0768L8.22334 14.1643L4.45994 16.1094C4.04618 16.3189 3.55731 16.2944 3.17576 16.024C3.08591 15.9571 2.98977 15.8731 2.92071 15.7804C2.91781 15.7714 2.90587 15.7661 2.9003 15.7487C2.82856 15.6477 2.77441 15.5402 2.7383 15.4278C2.67989 15.2459 2.66544 15.0491 2.70166 14.856L3.46049 10.7671L0.463059 7.88449C0.315957 7.76171 0.213378 7.59401 0.154972 7.41212Z" fill="#86BAC3"/>
</svg>
