<svg width="17" height="16" viewBox="0 0 17 16" fill="none" xmlns="http://www.w3.org/2000/svg">
<path d="M15.2538 5.64589L7.907 8.05027L10.2607 4.63465L14.7544 5.23393C15.0047 5.27705 15.1887 5.44701 15.2538 5.64589Z" fill="#86BAC3"/>
<path d="M12.3088 14.4023L7.91185 8.05958L11.8293 9.42206L12.5732 13.7979C12.6058 14.0466 12.491 14.266 12.3088 14.4023Z" fill="#86BAC3"/>
<path d="M2.95899 14.4831L7.90657 8.05359L7.65089 12.4113L3.61873 14.5166C3.38659 14.6493 3.13992 14.615 2.95899 14.4831Z" fill="#86BAC3"/>
<path d="M7.90588 8.05148L3.50849 9.49062L0.271176 6.41948C0.0852017 6.24098 0.0470546 6.00413 0.114107 5.79038L7.90588 8.05148Z" fill="#86BAC3"/>
<path d="M11.8246 9.41354L7.90688 8.05037L15.2536 5.646C15.3047 5.80192 15.2938 5.97809 15.2061 6.13108C15.194 6.15422 15.1734 6.18016 15.152 6.20633C15.1306 6.2325 15.11 6.25844 15.0864 6.27536L11.8246 9.41354Z" fill="#8DBABF"/>
<path d="M11.9011 14.5161C11.8599 14.5104 11.8187 14.5047 11.7774 14.499C11.7333 14.4843 11.6985 14.4673 11.6546 14.4533L7.64551 12.4211L7.9012 8.06333L12.2982 14.4061C12.2896 14.4088 12.2831 14.4202 12.2739 14.4232C12.2646 14.4262 12.259 14.438 12.2413 14.4439C12.232 14.4469 12.232 14.4469 12.232 14.4469C12.2235 14.4497 12.2142 14.4527 12.2057 14.4555C12.1879 14.4613 12.1787 14.4643 12.1616 14.4699C12.0847 14.5043 11.9928 14.5244 11.9011 14.5161Z" fill="#86BAC3"/>
<path d="M2.95856 14.4809C2.90894 14.4496 2.86561 14.4062 2.82787 14.3511C2.82515 14.3428 2.82515 14.3428 2.81367 14.3365C2.72422 14.2124 2.68172 14.0537 2.7133 13.8807L3.50852 9.48983L7.90591 8.05069L2.95856 14.4809Z" fill="#86BAC3"/>
<path d="M7.90583 8.05153L0.114283 5.79112C0.120807 5.77978 0.126394 5.76798 0.132918 5.75664C0.138731 5.74553 0.145029 5.73349 0.151326 5.72146C0.157139 5.71035 0.163436 5.69831 0.175547 5.67517C0.181133 5.66337 0.187658 5.65203 0.193955 5.63999C0.200253 5.62796 0.199768 5.62888 0.209014 5.62586C0.214827 5.61475 0.221122 5.60271 0.230368 5.59969C0.251013 5.57375 0.272371 5.54758 0.295964 5.53066C0.301777 5.51955 0.320268 5.51349 0.334389 5.4989C0.349447 5.48477 0.358693 5.48174 0.372813 5.46714C0.387872 5.45301 0.414186 5.4444 0.431967 5.43858C0.440501 5.43579 0.458992 5.42973 0.467527 5.42694C0.485307 5.42112 0.503087 5.4153 0.520868 5.40948C0.556428 5.39785 0.591988 5.38621 0.63027 5.38289L5.1269 4.69689L7.90583 8.05153Z" fill="#86BAC3"/>
<path d="M7.90648 8.05232L7.70277 0.337264C7.7113 0.334471 7.72327 0.339762 7.73252 0.336736C7.75302 0.339233 7.7708 0.333414 7.78228 0.33963C7.82351 0.345316 7.8555 0.354029 7.88819 0.362509C7.90869 0.365005 7.92089 0.370988 7.94363 0.382727C7.95511 0.388942 7.97632 0.391206 7.99053 0.405738C8.00178 0.411261 8.02546 0.423459 8.03743 0.428749C8.04939 0.434039 8.0636 0.44857 8.07579 0.454553C8.09 0.469084 8.11416 0.480357 8.12836 0.494889C8.13962 0.500411 8.15453 0.51471 8.1602 0.532034C8.17735 0.555574 8.19204 0.56918 8.20991 0.592487C8.21263 0.600803 8.22411 0.607019 8.22978 0.624343C8.24399 0.638875 8.25238 0.664515 8.27024 0.687822L10.2573 4.65682L7.90648 8.05232Z" fill="#FFF3D9"/>
<path d="M7.90719 8.05162L5.11901 4.7L7.15092 0.690788C7.16661 0.647294 7.19579 0.618563 7.22296 0.581285C7.25285 0.552322 7.28002 0.515044 7.31263 0.494398C7.32769 0.480263 7.34252 0.465436 7.3603 0.459617C7.40797 0.424835 7.4669 0.395578 7.52024 0.378121C7.53802 0.372302 7.5558 0.366483 7.57358 0.360664C7.59989 0.352052 7.61767 0.346232 7.64765 0.346396C7.65618 0.343603 7.66815 0.348894 7.68593 0.343075C7.69446 0.340282 7.70643 0.345572 7.71496 0.342779L7.90719 8.05162Z" fill="#ECB76B"/>
</svg>
