<svg width="28" height="27" viewBox="0 0 28 27" fill="none" xmlns="http://www.w3.org/2000/svg">
<path d="M27.3397 13.504C27.3385 16.1685 26.5409 18.7728 25.0476 20.9876C23.5543 23.2024 21.4324 24.9283 18.9502 25.9471C16.4681 26.9658 13.7371 27.2317 11.1026 26.711C8.46814 26.1903 6.04848 24.9065 4.14957 23.0219C2.25065 21.1373 0.957779 18.7365 0.434392 16.1231C-0.0889945 13.5096 0.18061 10.801 1.20914 8.33956C2.23768 5.87813 3.97895 3.77447 6.21276 2.29458C8.44658 0.81468 11.0726 0.0250001 13.7589 0.0253908C15.5431 0.0251305 17.3099 0.373649 18.9582 1.05102C20.6065 1.72839 22.1041 2.72132 23.3654 3.97308C24.6267 5.22484 25.6268 6.71087 26.3088 8.34624C26.9907 9.98161 27.341 11.7343 27.3397 13.504Z" fill="url(#paint0_radial_1121_194881)"/>
<g style="mix-blend-mode:multiply" opacity="0.05">
<path d="M13.7587 0.0253912C11.0719 0.0246093 8.44519 0.814119 6.21074 2.29408C3.97629 3.77404 2.23447 5.87799 1.20554 8.33986C0.176607 10.8017 -0.093221 13.511 0.430179 16.1249C0.953579 18.7389 2.2467 21.1402 4.14601 23.0252C6.04532 24.9103 8.46555 26.1943 11.1006 26.715C13.7356 27.2357 16.4671 26.9696 18.9497 25.9505C21.4324 24.9314 23.5545 23.2049 25.0479 20.9894C26.5413 18.774 27.3388 16.169 27.3396 13.504C27.3401 11.7345 26.9892 9.98218 26.307 8.34716C25.6248 6.71214 24.6246 5.22642 23.3635 3.97482C22.1024 2.72322 20.6051 1.73025 18.9571 1.0526C17.3091 0.374961 15.5427 0.0259104 13.7587 0.0253912ZM9.52345 21.7299C9.37995 21.6627 9.24442 21.5935 9.09893 21.5125C3.57611 18.7784 2.06934 11.1732 5.04302 6.15185C8.30768 0.5987 15.0084 -0.621058 20.5352 2.11499C20.6807 2.18221 20.8182 2.25337 20.9597 2.31268C26.4726 5.05071 27.9893 12.6737 25.0216 17.6951C21.751 23.2304 15.0483 24.46 9.52345 21.7299Z" fill="#00233A"/>
</g>
<g style="mix-blend-mode:screen" opacity="0.05">
<path d="M24.904 8.58833L24.7844 8.10991C23.19 1.50109 14.4643 -0.570715 9.75066 4.0434C5.09483 8.5903 6.93245 17.4528 13.6192 19.0165L14.1075 19.1352C20.6289 20.6574 26.4547 15.1556 24.904 8.58833Z" fill="#FDFDFD"/>
</g>
<defs>
<radialGradient id="paint0_radial_1121_194881" cx="0" cy="0" r="1" gradientUnits="userSpaceOnUse" gradientTransform="translate(18.6081 11.1791) scale(17.7025 17.5589)">
<stop stop-color="#FFFEFF"/>
<stop offset="0.5" stop-color="#C16F49"/>
<stop offset="1" stop-color="#A9491C"/>
</radialGradient>
</defs>
</svg>
