<svg width="17" height="18" viewBox="0 0 17 18" fill="none" xmlns="http://www.w3.org/2000/svg">
<path d="M16.4535 9.03446C16.4527 10.6448 15.9706 12.2188 15.0681 13.5574C14.1656 14.896 12.8832 15.9391 11.383 16.5548C9.88287 17.1705 8.23233 17.3311 6.64012 17.0165C5.0479 16.7018 3.58551 15.9259 2.43785 14.7869C1.29019 13.6478 0.508811 12.1968 0.192488 10.6174C-0.123835 9.03788 0.0391075 7.40083 0.660729 5.9132C1.28235 4.42557 2.33473 3.15416 3.6848 2.25975C5.03487 1.36533 6.622 0.88807 8.24551 0.888306C9.32384 0.888148 10.3916 1.09879 11.3879 1.50817C12.3841 1.91756 13.2892 2.51767 14.0515 3.2742C14.8137 4.03073 15.4182 4.92886 15.8304 5.91724C16.2425 6.90562 16.4543 7.96488 16.4535 9.03446Z" fill="url(#paint0_radial_10264_64264)"/>
<g style="mix-blend-mode:multiply" opacity="0.05">
<path d="M8.24549 0.888306C6.62163 0.887833 5.0341 1.365 3.68365 2.25945C2.3332 3.15391 1.28048 4.42548 0.658618 5.91338C0.0367551 7.40128 -0.126323 9.03868 0.190008 10.6185C0.506339 12.1983 1.28787 13.6496 2.43577 14.7889C3.58367 15.9282 5.0464 16.7042 6.63896 17.0189C8.23152 17.3336 9.88238 17.1728 11.3828 16.5569C12.8832 15.9409 14.1658 14.8975 15.0684 13.5585C15.971 12.2195 16.453 10.6452 16.4534 9.03446C16.4538 7.96501 16.2417 6.90596 15.8294 5.91779C15.4171 4.92963 14.8126 4.03169 14.0504 3.27525C13.2882 2.51881 12.3833 1.91868 11.3873 1.50913C10.3913 1.09958 9.32369 0.88862 8.24549 0.888306ZM5.68577 14.006C5.59905 13.9654 5.51713 13.9236 5.4292 13.8746C2.09133 12.2222 1.18068 7.62579 2.9779 4.591C4.95099 1.2348 9.00075 0.497607 12.341 2.15121C12.429 2.19184 12.5121 2.23485 12.5976 2.27069C15.9294 3.92549 16.8461 8.53265 15.0525 11.5674C13.0758 14.9129 9.02485 15.6561 5.68577 14.006Z" fill="#00233A"/>
</g>
<g style="mix-blend-mode:screen" opacity="0.05">
<path d="M14.983 6.06392L14.9107 5.77477C13.947 1.78055 8.67341 0.528402 5.8246 3.31707C3.01072 6.06511 4.12134 11.4214 8.16268 12.3665L8.45779 12.4382C12.3991 13.3582 15.9201 10.033 14.983 6.06392Z" fill="#FDFDFD"/>
</g>
<defs>
<radialGradient id="paint0_radial_10264_64264" cx="0" cy="0" r="1" gradientUnits="userSpaceOnUse" gradientTransform="translate(11.1762 7.62937) scale(10.699 10.6122)">
<stop stop-color="#FFFEFF"/>
<stop offset="0.5" stop-color="#C9B200"/>
<stop offset="1" stop-color="#E8C539"/>
</radialGradient>
</defs>
</svg>
