<svg width="28" height="28" viewBox="0 0 28 28" fill="none" xmlns="http://www.w3.org/2000/svg">
<path d="M27.3397 14.004C27.3385 16.6685 26.5409 19.2728 25.0476 21.4876C23.5543 23.7024 21.4324 25.4283 18.9502 26.4471C16.4681 27.4658 13.7371 27.7317 11.1026 27.211C8.46814 26.6903 6.04848 25.4065 4.14957 23.5219C2.25065 21.6373 0.957779 19.2365 0.434392 16.6231C-0.0889945 14.0096 0.18061 11.301 1.20914 8.83956C2.23768 6.37813 3.97895 4.27447 6.21276 2.79458C8.44658 1.31468 11.0726 0.525 13.7589 0.525391C15.5431 0.525131 17.3099 0.873649 18.9582 1.55102C20.6065 2.22839 22.1041 3.22132 23.3654 4.47308C24.6267 5.72484 25.6268 7.21087 26.3088 8.84624C26.9907 10.4816 27.341 12.2343 27.3397 14.004Z" fill="url(#paint0_radial_1121_195070)"/>
<g style="mix-blend-mode:multiply" opacity="0.05">
<path d="M13.7587 0.525391C11.0719 0.524609 8.44519 1.31412 6.21074 2.79408C3.97629 4.27404 2.23447 6.37799 1.20554 8.83986C0.176607 11.3017 -0.093221 14.011 0.430179 16.6249C0.953579 19.2389 2.2467 21.6402 4.14601 23.5252C6.04532 25.4103 8.46555 26.6943 11.1006 27.215C13.7356 27.7357 16.4671 27.4696 18.9497 26.4505C21.4324 25.4314 23.5545 23.7049 25.0479 21.4894C26.5413 19.274 27.3388 16.669 27.3396 14.004C27.3401 12.2345 26.9892 10.4822 26.307 8.84716C25.6248 7.21214 24.6246 5.72642 23.3635 4.47482C22.1024 3.22322 20.6051 2.23025 18.9571 1.5526C17.3091 0.874961 15.5427 0.52591 13.7587 0.525391ZM9.52345 22.2299C9.37995 22.1627 9.24442 22.0935 9.09893 22.0125C3.57611 19.2784 2.06934 11.6732 5.04302 6.65185C8.30768 1.0987 15.0084 -0.121058 20.5352 2.61499C20.6807 2.68221 20.8182 2.75337 20.9597 2.81268C26.4726 5.55071 27.9893 13.1737 25.0216 18.1951C21.751 23.7304 15.0483 24.96 9.52345 22.2299Z" fill="#00233A"/>
</g>
<g style="mix-blend-mode:screen" opacity="0.05">
<path d="M24.904 9.08833L24.7844 8.60991C23.19 2.00109 14.4643 -0.0707154 9.75066 4.5434C5.09483 9.0903 6.93245 17.9528 13.6192 19.5165L14.1075 19.6352C20.6289 21.1574 26.4547 15.6556 24.904 9.08833Z" fill="#FDFDFD"/>
</g>
<defs>
<radialGradient id="paint0_radial_1121_195070" cx="0" cy="0" r="1" gradientUnits="userSpaceOnUse" gradientTransform="translate(18.6081 11.6791) scale(17.7025 17.5589)">
<stop stop-color="#FFFEFF"/>
<stop offset="0.5" stop-color="#AED4F0"/>
<stop offset="1" stop-color="#9BC7E8"/>
</radialGradient>
</defs>
</svg>
