<svg width="28" height="28" viewBox="0 0 28 28" fill="none" xmlns="http://www.w3.org/2000/svg">
<path d="M27.51 14.0042C27.5088 16.6687 26.7111 19.273 25.2178 21.4879C23.7245 23.7027 21.6026 25.4286 19.1204 26.4474C16.6382 27.4662 13.9072 27.732 11.2727 27.2113C8.63817 26.6906 6.21848 25.4068 4.31954 23.5222C2.4206 21.6375 1.12771 19.2367 0.604318 16.6233C0.0809241 14.0098 0.350532 11.3011 1.37908 8.83966C2.40762 6.3782 4.14892 4.27452 6.38276 2.7946C8.61661 1.31469 11.2427 0.525 13.929 0.525391C15.7132 0.525131 17.48 0.873654 19.1284 1.55103C20.7767 2.22841 22.2743 3.22136 23.5356 4.47313C24.7969 5.72491 25.7971 7.21096 26.479 8.84635C27.161 10.4817 27.5113 12.2344 27.51 14.0042Z" fill="url(#paint0_radial_1121_195180)"/>
<g style="mix-blend-mode:multiply" opacity="0.05">
<path d="M13.9291 0.525391C11.2422 0.524609 8.61546 1.31413 6.38098 2.79411C4.1465 4.27409 2.40466 6.37807 1.37572 8.83997C0.346773 11.3019 0.0769417 14.0111 0.600348 16.6251C1.12375 19.2391 2.41689 21.6405 4.31623 23.5255C6.21556 25.4106 8.63582 26.6946 11.2709 27.2153C13.906 27.736 16.6375 27.47 19.1201 26.4508C21.6028 25.4317 23.725 23.7052 25.2184 21.4897C26.7118 19.2742 27.5093 16.6692 27.5101 14.0042C27.5106 12.2346 27.1597 10.4823 26.4775 8.84727C25.7953 7.21223 24.7951 5.72649 23.534 4.47487C22.2728 3.22325 20.7755 2.23027 19.1275 1.55262C17.4795 0.874965 15.7131 0.52591 13.9291 0.525391ZM9.69374 22.2302C9.55023 22.163 9.4147 22.0938 9.2692 22.0127C3.74632 19.2786 2.23953 11.6734 5.21324 6.65193C8.47795 1.09871 15.1788 -0.121066 20.7056 2.61502C20.8511 2.68223 20.9887 2.7534 21.1302 2.81271C26.6431 5.55077 28.1598 13.1739 25.1921 18.1953C21.9214 23.7307 15.2186 24.9604 9.69374 22.2302Z" fill="#00233A"/>
</g>
<g style="mix-blend-mode:screen" opacity="0.05">
<path d="M25.0747 9.08842L24.9551 8.60999C23.3606 2.00109 14.6348 -0.0707421 9.9211 4.54343C5.26521 9.09039 7.10286 17.953 13.7897 19.5168L14.278 19.6354C20.7995 21.1576 26.6253 15.6558 25.0747 9.08842Z" fill="#FDFDFD"/>
</g>
<defs>
<radialGradient id="paint0_radial_1121_195180" cx="0" cy="0" r="1" gradientUnits="userSpaceOnUse" gradientTransform="translate(18.7782 11.6793) scale(17.7027 17.5592)">
<stop stop-color="#FFFEFF"/>
<stop offset="0.5" stop-color="#F6BDD2"/>
<stop offset="1" stop-color="#E7A1BD"/>
</radialGradient>
</defs>
</svg>
