<svg width="28" height="26" viewBox="0 0 28 26" fill="none" xmlns="http://www.w3.org/2000/svg">
<path d="M27.3334 13.0038C27.3322 15.5744 26.5493 18.087 25.0837 20.2238C23.618 22.3606 21.5354 24.0257 19.0992 25.0086C16.663 25.9914 13.9826 26.2479 11.3969 25.7456C8.81118 25.2432 6.43631 24.0047 4.57255 22.1864C2.70879 20.3682 1.43985 18.052 0.926155 15.5306C0.412458 13.0093 0.677071 10.396 1.68656 8.0213C2.69605 5.64658 4.40509 3.61702 6.59755 2.18925C8.79001 0.761487 11.3674 -0.00037681 14.004 1.40498e-07C15.7551 -0.000250928 17.4892 0.335991 19.107 0.989499C20.7248 1.64301 22.1947 2.60097 23.4326 3.80863C24.6705 5.0163 25.6522 6.44999 26.3215 8.02775C26.9908 9.60551 27.3347 11.2964 27.3334 13.0038Z" fill="url(#paint0_radial_1121_194810)"/>
<g style="mix-blend-mode:multiply" opacity="0.05">
<path d="M14.004 5.59741e-07C11.3669 -0.000753777 8.78881 0.760945 6.59573 2.18878C4.40265 3.61661 2.69307 5.64644 1.68319 8.02159C0.673309 10.3967 0.408477 13.0105 0.922187 15.5324C1.4359 18.0543 2.70507 20.3711 4.56922 22.1897C6.43338 24.0083 8.80879 25.2471 11.3951 25.7495C13.9813 26.2518 16.6623 25.9951 19.0989 25.0119C21.5355 24.0286 23.6184 22.363 25.0842 20.2256C26.5499 18.0882 27.3326 15.575 27.3334 13.0038C27.3339 11.2966 26.9895 9.60606 26.3199 8.02863C25.6504 6.45121 24.6687 5.01783 23.4309 3.81031C22.1932 2.60279 20.7236 1.6448 19.1061 0.99103C17.4887 0.337256 15.7549 0.00050142 14.004 5.59741e-07ZM9.84711 20.94C9.70627 20.8751 9.57325 20.8084 9.43045 20.7302C4.00987 18.0924 2.53101 10.7551 5.44963 5.91065C8.65385 0.553115 15.2305 -0.623677 20.655 2.01599C20.7978 2.08084 20.9328 2.1495 21.0717 2.20672C26.4825 4.8483 27.9711 12.2028 25.0584 17.0472C21.8483 22.3876 15.2696 23.5739 9.84711 20.94Z" fill="#00233A"/>
</g>
<g style="mix-blend-mode:screen" opacity="0.05">
<path d="M24.9428 8.26258L24.8254 7.80101C23.2605 1.42499 14.6964 -0.573835 10.07 3.87775C5.50035 8.26448 7.30395 16.8148 13.8669 18.3235L14.3462 18.4379C20.7468 19.9065 26.4647 14.5986 24.9428 8.26258Z" fill="#FDFDFD"/>
</g>
<defs>
<radialGradient id="paint0_radial_1121_194810" cx="0" cy="0" r="1" gradientUnits="userSpaceOnUse" gradientTransform="translate(18.7634 10.7609) scale(17.3748 16.9404)">
<stop stop-color="#FFFEFF"/>
<stop offset="0.5" stop-color="#7A76B2"/>
<stop offset="1" stop-color="#56569D"/>
</radialGradient>
</defs>
</svg>
