<svg width="28" height="28" viewBox="0 0 28 28" fill="none" xmlns="http://www.w3.org/2000/svg">
<path d="M27.5099 14.004C27.5087 16.6685 26.711 19.2728 25.2177 21.4876C23.7244 23.7024 21.6025 25.4283 19.1204 26.4471C16.6382 27.4658 13.9073 27.7317 11.2728 27.211C8.63831 26.6903 6.21865 25.4065 4.31973 23.5219C2.42082 21.6373 1.12795 19.2365 0.604558 16.6231C0.0811715 14.0096 0.350776 11.301 1.37931 8.83956C2.40784 6.37813 4.14911 4.27447 6.38293 2.79458C8.61674 1.31468 11.2428 0.525 13.9291 0.525391C15.7133 0.525131 17.48 0.873649 19.1284 1.55102C20.7767 2.22839 22.2743 3.22132 23.5356 4.47308C24.7968 5.72484 25.797 7.21087 26.4789 8.84624C27.1609 10.4816 27.5112 12.2343 27.5099 14.004Z" fill="url(#paint0_radial_1121_195015)"/>
<g style="mix-blend-mode:multiply" opacity="0.05">
<path d="M13.9289 0.525391C11.2421 0.524609 8.61535 1.31412 6.3809 2.79408C4.14645 4.27404 2.40464 6.37799 1.3757 8.83986C0.346773 11.3017 0.076945 14.011 0.600345 16.6249C1.12375 19.2389 2.41686 21.6402 4.31618 23.5252C6.21549 25.4103 8.63571 26.6943 11.2708 27.215C13.9058 27.7357 16.6373 27.4696 19.1199 26.4505C21.6025 25.4314 23.7247 23.7049 25.2181 21.4894C26.7114 19.274 27.509 16.669 27.5097 14.004C27.5103 12.2345 27.1594 10.4822 26.4772 8.84716C25.795 7.21214 24.7948 5.72642 23.5337 4.47482C22.2726 3.22322 20.7753 2.23025 19.1273 1.5526C17.4793 0.874961 15.7129 0.52591 13.9289 0.525391ZM9.69362 22.2299C9.55012 22.1627 9.41459 22.0935 9.26909 22.0125C3.74627 19.2784 2.23951 11.6732 5.21318 6.65185C8.47784 1.0987 15.1786 -0.121058 20.7054 2.61499C20.8509 2.68221 20.9884 2.75337 21.1299 2.81268C26.6428 5.55071 28.1595 13.1737 25.1918 18.1951C21.9212 23.7304 15.2184 24.96 9.69362 22.2299Z" fill="#00233A"/>
</g>
<g style="mix-blend-mode:screen" opacity="0.05">
<path d="M25.0745 9.08833L24.9548 8.60991C23.3604 2.00109 14.6347 -0.0707154 9.92107 4.5434C5.26524 9.0903 7.10286 17.9528 13.7896 19.5165L14.2779 19.6352C20.7993 21.1574 26.6251 15.6556 25.0745 9.08833Z" fill="#FDFDFD"/>
</g>
<defs>
<radialGradient id="paint0_radial_1121_195015" cx="0" cy="0" r="1" gradientUnits="userSpaceOnUse" gradientTransform="translate(18.7782 11.6791) scale(17.7025 17.5589)">
<stop stop-color="#FFFEFF"/>
<stop offset="0.5" stop-color="#A174AF"/>
<stop offset="1" stop-color="#8A5EA0"/>
</radialGradient>
</defs>
</svg>
