<svg width="175" height="19" viewBox="0 0 175 19" fill="none" xmlns="http://www.w3.org/2000/svg">
<path d="M1 7.11045V18.1712H34.5255L40.0703 12.6265V1.56006H6.55044L1 7.11045Z" fill="#ED1C24"/>
<path d="M6.55044 1.56006L1 7.11045V18.1712H34.5255L40.0703 12.6265V1.56006H6.55044Z" fill="#ED1C24"/>
<path d="M34.1941 7.49383L40.1447 1.5376" stroke="#910D11" stroke-width="1.26328" stroke-linecap="round" stroke-linejoin="round"/>
<path d="M34.2912 7.33411H1V18.1719H34.2912V7.33411Z" stroke="#910D11" stroke-width="1.26328" stroke-linecap="round" stroke-linejoin="round"/>
<path d="M1 7.11045V18.1712H34.5255L40.0703 12.6265V1.56006H6.55044L1 7.11045Z" stroke="#910D11" stroke-width="1.26328" stroke-linecap="round" stroke-linejoin="round"/>
<path d="M34.4282 7.11069V18.1715H67.9538L73.4985 12.6268V1.5603H39.9787L34.4282 7.11069Z" fill="#426AB3"/>
<path d="M39.9787 1.5603L34.4282 7.11069V18.1715H67.9538L73.4985 12.6268V1.5603H39.9787Z" fill="#426AB3"/>
<path d="M67.6223 7.49383L73.5729 1.5376" stroke="#1E398D" stroke-width="1.26328" stroke-linecap="round" stroke-linejoin="round"/>
<path d="M67.7194 7.33411H34.4282V18.1719H67.7194V7.33411Z" stroke="#1E398D" stroke-width="1.26328" stroke-linecap="round" stroke-linejoin="round"/>
<path d="M34.4282 7.11069V18.1715H67.9538L73.4985 12.6268V1.5603H39.9787L34.4282 7.11069Z" stroke="#1E398D" stroke-width="1.26328" stroke-linecap="round" stroke-linejoin="round"/>
<path d="M67.8567 7.11069V18.1715H101.382L106.927 12.6268V1.5603H73.4071L67.8567 7.11069Z" fill="#ED1C24"/>
<path d="M73.4071 1.5603L67.8567 7.11069V18.1715H101.382L106.927 12.6268V1.5603H73.4071Z" fill="#ED1C24"/>
<path d="M101.051 7.49383L107.001 1.5376" stroke="#910D11" stroke-width="1.26328" stroke-linecap="round" stroke-linejoin="round"/>
<path d="M101.148 7.33411H67.8569V18.1719H101.148V7.33411Z" stroke="#910D11" stroke-width="1.26328" stroke-linecap="round" stroke-linejoin="round"/>
<path d="M67.8567 7.11069V18.1715H101.382L106.927 12.6268V1.5603H73.4071L67.8567 7.11069Z" stroke="#910D11" stroke-width="1.26328" stroke-linecap="round" stroke-linejoin="round"/>
<path d="M101.285 7.11069V18.1715H134.81L140.355 12.6268V1.5603H106.835L101.285 7.11069Z" fill="#426AB3"/>
<path d="M106.835 1.5603L101.285 7.11069V18.1715H134.81L140.355 12.6268V1.5603H106.835Z" fill="#426AB3"/>
<path d="M134.479 7.49383L140.43 1.5376" stroke="#1E398D" stroke-width="1.26328" stroke-linecap="round" stroke-linejoin="round"/>
<path d="M134.576 7.33411H101.285V18.1719H134.576V7.33411Z" stroke="#1E398D" stroke-width="1.26328" stroke-linecap="round" stroke-linejoin="round"/>
<path d="M101.285 7.11069V18.1715H134.81L140.355 12.6268V1.5603H106.835L101.285 7.11069Z" stroke="#1E398D" stroke-width="1.26328" stroke-linecap="round" stroke-linejoin="round"/>
<path d="M134.713 7.11069V18.1715H168.239L173.784 12.6268V1.5603H140.264L134.713 7.11069Z" fill="#ED1C24"/>
<path d="M140.264 1.5603L134.713 7.11069V18.1715H168.239L173.784 12.6268V1.5603H140.264Z" fill="#ED1C24"/>
<path d="M167.907 7.49383L173.858 1.5376" stroke="#910D11" stroke-width="1.26328" stroke-linecap="round" stroke-linejoin="round"/>
<path d="M168.005 7.33411H134.713V18.1719H168.005V7.33411Z" stroke="#910D11" stroke-width="1.26328" stroke-linecap="round" stroke-linejoin="round"/>
<path d="M134.713 7.11069V18.1715H168.239L173.784 12.6268V1.5603H140.264L134.713 7.11069Z" stroke="#910D11" stroke-width="1.26328" stroke-linecap="round" stroke-linejoin="round"/>
</svg>
