<svg width="142" height="19" viewBox="0 0 142 19" fill="none" xmlns="http://www.w3.org/2000/svg">
<path d="M1 6.47666V17.5374H34.5255L40.0703 11.9927V0.92627H6.55044L1 6.47666Z" fill="#ED1C24"/>
<path d="M6.55044 0.92627L1 6.47666V17.5374H34.5255L40.0703 11.9927V0.92627H6.55044Z" fill="#ED1C24"/>
<path d="M34.1941 6.85907L40.1447 0.902832" stroke="#910D11" stroke-width="1.26328" stroke-linecap="round" stroke-linejoin="round"/>
<path d="M34.2912 6.69897H1V17.5368H34.2912V6.69897Z" stroke="#910D11" stroke-width="1.26328" stroke-linecap="round" stroke-linejoin="round"/>
<path d="M1 6.47666V17.5374H34.5255L40.0703 11.9927V0.92627H6.55044L1 6.47666Z" stroke="#910D11" stroke-width="1.26328" stroke-linecap="round" stroke-linejoin="round"/>
<path d="M34.4285 6.47666V17.5374H67.954L73.4987 11.9927V0.92627H39.9789L34.4285 6.47666Z" fill="#426AB3"/>
<path d="M39.9789 0.92627L34.4285 6.47666V17.5374H67.954L73.4987 11.9927V0.92627H39.9789Z" fill="#426AB3"/>
<path d="M67.6226 6.85907L73.5731 0.902832" stroke="#1E398D" stroke-width="1.26328" stroke-linecap="round" stroke-linejoin="round"/>
<path d="M67.7197 6.69897H34.4285V17.5368H67.7197V6.69897Z" stroke="#1E398D" stroke-width="1.26328" stroke-linecap="round" stroke-linejoin="round"/>
<path d="M34.4285 6.47666V17.5374H67.954L73.4987 11.9927V0.92627H39.9789L34.4285 6.47666Z" stroke="#1E398D" stroke-width="1.26328" stroke-linecap="round" stroke-linejoin="round"/>
<path d="M67.8569 6.47666V17.5374H101.382L106.927 11.9927V0.92627H73.4074L67.8569 6.47666Z" fill="#ED1C24"/>
<path d="M73.4074 0.92627L67.8569 6.47666V17.5374H101.382L106.927 11.9927V0.92627H73.4074Z" fill="#ED1C24"/>
<path d="M101.051 6.85907L107.001 0.902832" stroke="#910D11" stroke-width="1.26328" stroke-linecap="round" stroke-linejoin="round"/>
<path d="M101.148 6.69897H67.8567V17.5368H101.148V6.69897Z" stroke="#910D11" stroke-width="1.26328" stroke-linecap="round" stroke-linejoin="round"/>
<path d="M67.8569 6.47666V17.5374H101.382L106.927 11.9927V0.92627H73.4074L67.8569 6.47666Z" stroke="#910D11" stroke-width="1.26328" stroke-linecap="round" stroke-linejoin="round"/>
<path d="M101.285 6.47666V17.5374H134.811L140.355 11.9927V0.92627H106.836L101.285 6.47666Z" fill="#426AB3"/>
<path d="M106.836 0.92627L101.285 6.47666V17.5374H134.811L140.355 11.9927V0.92627H106.836Z" fill="#426AB3"/>
<path d="M134.479 6.85907L140.43 0.902832" stroke="#1E398D" stroke-width="1.26328" stroke-linecap="round" stroke-linejoin="round"/>
<path d="M134.576 6.69897H101.285V17.5368H134.576V6.69897Z" stroke="#1E398D" stroke-width="1.26328" stroke-linecap="round" stroke-linejoin="round"/>
<path d="M101.285 6.47666V17.5374H134.811L140.355 11.9927V0.92627H106.836L101.285 6.47666Z" stroke="#1E398D" stroke-width="1.26328" stroke-linecap="round" stroke-linejoin="round"/>
</svg>
