<svg width="108" height="19" viewBox="0 0 108 19" fill="none" xmlns="http://www.w3.org/2000/svg">
<path d="M1 6.84226V17.903H34.5255L40.0703 12.3583V1.29187H6.55044L1 6.84226Z" fill="#ED1C24"/>
<path d="M6.55044 1.29187L1 6.84226V17.903H34.5255L40.0703 12.3583V1.29187H6.55044Z" fill="#ED1C24"/>
<path d="M34.1941 7.22479L40.1447 1.26855" stroke="#910D11" stroke-width="1.26328" stroke-linecap="round" stroke-linejoin="round"/>
<path d="M34.2912 7.06445H1V17.9023H34.2912V7.06445Z" stroke="#910D11" stroke-width="1.26328" stroke-linecap="round" stroke-linejoin="round"/>
<path d="M1 6.84226V17.903H34.5255L40.0703 12.3583V1.29187H6.55044L1 6.84226Z" stroke="#910D11" stroke-width="1.26328" stroke-linecap="round" stroke-linejoin="round"/>
<path d="M34.4285 6.84226V17.903H67.954L73.4987 12.3583V1.29187H39.9789L34.4285 6.84226Z" fill="#426AB3"/>
<path d="M39.9789 1.29187L34.4285 6.84226V17.903H67.954L73.4987 12.3583V1.29187H39.9789Z" fill="#426AB3"/>
<path d="M67.6226 7.22479L73.5731 1.26855" stroke="#1E398D" stroke-width="1.26328" stroke-linecap="round" stroke-linejoin="round"/>
<path d="M67.7197 7.06445H34.4285V17.9023H67.7197V7.06445Z" stroke="#1E398D" stroke-width="1.26328" stroke-linecap="round" stroke-linejoin="round"/>
<path d="M34.4285 6.84226V17.903H67.954L73.4987 12.3583V1.29187H39.9789L34.4285 6.84226Z" stroke="#1E398D" stroke-width="1.26328" stroke-linecap="round" stroke-linejoin="round"/>
<path d="M67.8567 6.84226V17.903H101.382L106.927 12.3583V1.29187H73.4071L67.8567 6.84226Z" fill="#ED1C24"/>
<path d="M73.4071 1.29187L67.8567 6.84226V17.903H101.382L106.927 12.3583V1.29187H73.4071Z" fill="#ED1C24"/>
<path d="M101.051 7.22479L107.001 1.26855" stroke="#910D11" stroke-width="1.26328" stroke-linecap="round" stroke-linejoin="round"/>
<path d="M101.148 7.06445H67.8567V17.9023H101.148V7.06445Z" stroke="#910D11" stroke-width="1.26328" stroke-linecap="round" stroke-linejoin="round"/>
<path d="M67.8567 6.84226V17.903H101.382L106.927 12.3583V1.29187H73.4071L67.8567 6.84226Z" stroke="#910D11" stroke-width="1.26328" stroke-linecap="round" stroke-linejoin="round"/>
</svg>
