<svg width="275" height="19" viewBox="0 0 275 19" fill="none" xmlns="http://www.w3.org/2000/svg">
<path d="M1 7.01316V18.0739H34.5255L40.0703 12.5292V1.46277H6.55044L1 7.01316Z" fill="#ED1C24"/>
<path d="M6.55044 1.46277L1 7.01316V18.0739H34.5255L40.0703 12.5292V1.46277H6.55044Z" fill="#ED1C24"/>
<path d="M34.1941 7.39618L40.1447 1.43994" stroke="#910D11" stroke-width="1.26328" stroke-linecap="round" stroke-linejoin="round"/>
<path d="M34.2912 7.23608H1V18.0739H34.2912V7.23608Z" stroke="#910D11" stroke-width="1.26328" stroke-linecap="round" stroke-linejoin="round"/>
<path d="M1 7.01316V18.0739H34.5255L40.0703 12.5292V1.46277H6.55044L1 7.01316Z" stroke="#910D11" stroke-width="1.26328" stroke-linecap="round" stroke-linejoin="round"/>
<path d="M34.4285 7.01316V18.0739H67.954L73.4987 12.5292V1.46277H39.9789L34.4285 7.01316Z" fill="#426AB3"/>
<path d="M39.9789 1.46277L34.4285 7.01316V18.0739H67.954L73.4987 12.5292V1.46277H39.9789Z" fill="#426AB3"/>
<path d="M67.6226 7.39618L73.5731 1.43994" stroke="#1E398D" stroke-width="1.26328" stroke-linecap="round" stroke-linejoin="round"/>
<path d="M67.7197 7.23608H34.4285V18.0739H67.7197V7.23608Z" stroke="#1E398D" stroke-width="1.26328" stroke-linecap="round" stroke-linejoin="round"/>
<path d="M34.4285 7.01316V18.0739H67.954L73.4987 12.5292V1.46277H39.9789L34.4285 7.01316Z" stroke="#1E398D" stroke-width="1.26328" stroke-linecap="round" stroke-linejoin="round"/>
<path d="M67.8567 7.01316V18.0739H101.382L106.927 12.5292V1.46277H73.4071L67.8567 7.01316Z" fill="#ED1C24"/>
<path d="M73.4071 1.46277L67.8567 7.01316V18.0739H101.382L106.927 12.5292V1.46277H73.4071Z" fill="#ED1C24"/>
<path d="M101.051 7.39618L107.001 1.43994" stroke="#910D11" stroke-width="1.26328" stroke-linecap="round" stroke-linejoin="round"/>
<path d="M101.148 7.23608H67.8567V18.0739H101.148V7.23608Z" stroke="#910D11" stroke-width="1.26328" stroke-linecap="round" stroke-linejoin="round"/>
<path d="M67.8567 7.01316V18.0739H101.382L106.927 12.5292V1.46277H73.4071L67.8567 7.01316Z" stroke="#910D11" stroke-width="1.26328" stroke-linecap="round" stroke-linejoin="round"/>
<path d="M101.285 7.01316V18.0739H134.811L140.355 12.5292V1.46277H106.836L101.285 7.01316Z" fill="#426AB3"/>
<path d="M106.836 1.46277L101.285 7.01316V18.0739H134.811L140.355 12.5292V1.46277H106.836Z" fill="#426AB3"/>
<path d="M134.479 7.39618L140.43 1.43994" stroke="#1E398D" stroke-width="1.26328" stroke-linecap="round" stroke-linejoin="round"/>
<path d="M134.576 7.23608H101.285V18.0739H134.576V7.23608Z" stroke="#1E398D" stroke-width="1.26328" stroke-linecap="round" stroke-linejoin="round"/>
<path d="M101.285 7.01316V18.0739H134.811L140.355 12.5292V1.46277H106.836L101.285 7.01316Z" stroke="#1E398D" stroke-width="1.26328" stroke-linecap="round" stroke-linejoin="round"/>
<path d="M134.714 7.01316V18.0739H168.239L173.784 12.5292V1.46277H140.264L134.714 7.01316Z" fill="#ED1C24"/>
<path d="M140.264 1.46277L134.714 7.01316V18.0739H168.239L173.784 12.5292V1.46277H140.264Z" fill="#ED1C24"/>
<path d="M167.908 7.39618L173.858 1.43994" stroke="#910D11" stroke-width="1.26328" stroke-linecap="round" stroke-linejoin="round"/>
<path d="M168.005 7.23608H134.714V18.0739H168.005V7.23608Z" stroke="#910D11" stroke-width="1.26328" stroke-linecap="round" stroke-linejoin="round"/>
<path d="M134.714 7.01316V18.0739H168.239L173.784 12.5292V1.46277H140.264L134.714 7.01316Z" stroke="#910D11" stroke-width="1.26328" stroke-linecap="round" stroke-linejoin="round"/>
<path d="M168.142 7.01316V18.0739H201.667L207.212 12.5292V1.46277H173.692L168.142 7.01316Z" fill="#426AB3"/>
<path d="M173.692 1.46277L168.142 7.01316V18.0739H201.667L207.212 12.5292V1.46277H173.692Z" fill="#426AB3"/>
<path d="M201.336 7.39618L207.287 1.43994" stroke="#1E398D" stroke-width="1.26328" stroke-linecap="round" stroke-linejoin="round"/>
<path d="M201.433 7.23608H168.142V18.0739H201.433V7.23608Z" stroke="#1E398D" stroke-width="1.26328" stroke-linecap="round" stroke-linejoin="round"/>
<path d="M168.142 7.01316V18.0739H201.667L207.212 12.5292V1.46277H173.692L168.142 7.01316Z" stroke="#1E398D" stroke-width="1.26328" stroke-linecap="round" stroke-linejoin="round"/>
<path d="M201.57 7.01316V18.0739H235.096L240.641 12.5292V1.46277H207.121L201.57 7.01316Z" fill="#ED1C24"/>
<path d="M207.121 1.46277L201.57 7.01316V18.0739H235.096L240.641 12.5292V1.46277H207.121Z" fill="#ED1C24"/>
<path d="M234.764 7.39618L240.715 1.43994" stroke="#910D11" stroke-width="1.26328" stroke-linecap="round" stroke-linejoin="round"/>
<path d="M234.861 7.23608H201.57V18.0739H234.861V7.23608Z" stroke="#910D11" stroke-width="1.26328" stroke-linecap="round" stroke-linejoin="round"/>
<path d="M201.57 7.01316V18.0739H235.096L240.641 12.5292V1.46277H207.121L201.57 7.01316Z" stroke="#910D11" stroke-width="1.26328" stroke-linecap="round" stroke-linejoin="round"/>
<path d="M234.999 7.01316V18.0739H268.524L274.069 12.5292V1.46277H240.549L234.999 7.01316Z" fill="#426AB3"/>
<path d="M240.549 1.46277L234.999 7.01316V18.0739H268.524L274.069 12.5292V1.46277H240.549Z" fill="#426AB3"/>
<path d="M268.193 7.39618L274.143 1.43994" stroke="#1E398D" stroke-width="1.26328" stroke-linecap="round" stroke-linejoin="round"/>
<path d="M268.29 7.23608H234.999V18.0739H268.29V7.23608Z" stroke="#1E398D" stroke-width="1.26328" stroke-linecap="round" stroke-linejoin="round"/>
<path d="M234.999 7.01316V18.0739H268.524L274.069 12.5292V1.46277H240.549L234.999 7.01316Z" stroke="#1E398D" stroke-width="1.26328" stroke-linecap="round" stroke-linejoin="round"/>
</svg>
