<svg width="75" height="18" viewBox="0 0 75 18" fill="none" xmlns="http://www.w3.org/2000/svg">
<path d="M1 6.20761V17.2684H34.5255L40.0703 11.7237V0.657227H6.55044L1 6.20761Z" fill="#ED1C24"/>
<path d="M6.55044 0.657227L1 6.20761V17.2684H34.5255L40.0703 11.7237V0.657227H6.55044Z" fill="#ED1C24"/>
<path d="M34.1941 6.59051L40.1447 0.634277" stroke="#910D11" stroke-width="1.26328" stroke-linecap="round" stroke-linejoin="round"/>
<path d="M34.2912 6.43042H1V17.2682H34.2912V6.43042Z" stroke="#910D11" stroke-width="1.26328" stroke-linecap="round" stroke-linejoin="round"/>
<path d="M1 6.20761V17.2684H34.5255L40.0703 11.7237V0.657227H6.55044L1 6.20761Z" stroke="#910D11" stroke-width="1.26328" stroke-linecap="round" stroke-linejoin="round"/>
<path d="M34.4285 6.20761V17.2684H67.954L73.4987 11.7237V0.657227H39.9789L34.4285 6.20761Z" fill="#426AB3"/>
<path d="M39.9789 0.657227L34.4285 6.20761V17.2684H67.954L73.4987 11.7237V0.657227H39.9789Z" fill="#426AB3"/>
<path d="M67.6226 6.59051L73.5731 0.634277" stroke="#1E398D" stroke-width="1.26328" stroke-linecap="round" stroke-linejoin="round"/>
<path d="M67.7197 6.43042H34.4285V17.2682H67.7197V6.43042Z" stroke="#1E398D" stroke-width="1.26328" stroke-linecap="round" stroke-linejoin="round"/>
<path d="M34.4285 6.20761V17.2684H67.954L73.4987 11.7237V0.657227H39.9789L34.4285 6.20761Z" stroke="#1E398D" stroke-width="1.26328" stroke-linecap="round" stroke-linejoin="round"/>
</svg>
