<svg width="342" height="18" viewBox="0 0 342 18" fill="none" xmlns="http://www.w3.org/2000/svg">
<path d="M1 6.28147V17.3422H34.5255L40.0703 11.7976V0.731079H6.55044L1 6.28147Z" fill="#ED1C24"/>
<path d="M6.55044 0.731079L1 6.28147V17.3422H34.5255L40.0703 11.7976V0.731079H6.55044Z" fill="#ED1C24"/>
<path d="M34.1941 6.66473L40.1447 0.708496" stroke="#910D11" stroke-width="1.26328" stroke-linecap="round" stroke-linejoin="round"/>
<path d="M34.2912 6.50476H1V17.3426H34.2912V6.50476Z" stroke="#910D11" stroke-width="1.26328" stroke-linecap="round" stroke-linejoin="round"/>
<path d="M1 6.28147V17.3422H34.5255L40.0703 11.7976V0.731079H6.55044L1 6.28147Z" stroke="#910D11" stroke-width="1.26328" stroke-linecap="round" stroke-linejoin="round"/>
<path d="M34.4285 6.28134V17.3421H67.954L73.4987 11.7974V0.730957H39.9789L34.4285 6.28134Z" fill="#426AB3"/>
<path d="M39.9789 0.730957L34.4285 6.28134V17.3421H67.954L73.4987 11.7974V0.730957H39.9789Z" fill="#426AB3"/>
<path d="M67.6226 6.66473L73.5731 0.708496" stroke="#1E398D" stroke-width="1.26328" stroke-linecap="round" stroke-linejoin="round"/>
<path d="M67.7197 6.50427H34.4285V17.3421H67.7197V6.50427Z" stroke="#1E398D" stroke-width="1.26328" stroke-linecap="round" stroke-linejoin="round"/>
<path d="M34.4285 6.28134V17.3421H67.954L73.4987 11.7974V0.730957H39.9789L34.4285 6.28134Z" stroke="#1E398D" stroke-width="1.26328" stroke-linecap="round" stroke-linejoin="round"/>
<path d="M67.8567 6.28134V17.3421H101.382L106.927 11.7974V0.730957H73.4071L67.8567 6.28134Z" fill="#ED1C24"/>
<path d="M73.4071 0.730957L67.8567 6.28134V17.3421H101.382L106.927 11.7974V0.730957H73.4071Z" fill="#ED1C24"/>
<path d="M101.051 6.66473L107.001 0.708496" stroke="#910D11" stroke-width="1.26328" stroke-linecap="round" stroke-linejoin="round"/>
<path d="M101.148 6.50427H67.8567V17.3421H101.148V6.50427Z" stroke="#910D11" stroke-width="1.26328" stroke-linecap="round" stroke-linejoin="round"/>
<path d="M67.8567 6.28134V17.3421H101.382L106.927 11.7974V0.730957H73.4071L67.8567 6.28134Z" stroke="#910D11" stroke-width="1.26328" stroke-linecap="round" stroke-linejoin="round"/>
<path d="M101.285 6.28134V17.3421H134.811L140.355 11.7974V0.730957H106.836L101.285 6.28134Z" fill="#426AB3"/>
<path d="M106.836 0.730957L101.285 6.28134V17.3421H134.811L140.355 11.7974V0.730957H106.836Z" fill="#426AB3"/>
<path d="M134.479 6.66473L140.43 0.708496" stroke="#1E398D" stroke-width="1.26328" stroke-linecap="round" stroke-linejoin="round"/>
<path d="M134.576 6.50427H101.285V17.3421H134.576V6.50427Z" stroke="#1E398D" stroke-width="1.26328" stroke-linecap="round" stroke-linejoin="round"/>
<path d="M101.285 6.28134V17.3421H134.811L140.355 11.7974V0.730957H106.836L101.285 6.28134Z" stroke="#1E398D" stroke-width="1.26328" stroke-linecap="round" stroke-linejoin="round"/>
<path d="M134.714 6.28134V17.3421H168.239L173.784 11.7974V0.730957H140.264L134.714 6.28134Z" fill="#ED1C24"/>
<path d="M140.264 0.730957L134.714 6.28134V17.3421H168.239L173.784 11.7974V0.730957H140.264Z" fill="#ED1C24"/>
<path d="M167.908 6.66473L173.858 0.708496" stroke="#910D11" stroke-width="1.26328" stroke-linecap="round" stroke-linejoin="round"/>
<path d="M168.005 6.50427H134.714V17.3421H168.005V6.50427Z" stroke="#910D11" stroke-width="1.26328" stroke-linecap="round" stroke-linejoin="round"/>
<path d="M134.714 6.28134V17.3421H168.239L173.784 11.7974V0.730957H140.264L134.714 6.28134Z" stroke="#910D11" stroke-width="1.26328" stroke-linecap="round" stroke-linejoin="round"/>
<path d="M168.142 6.28134V17.3421H201.667L207.212 11.7974V0.730957H173.692L168.142 6.28134Z" fill="#426AB3"/>
<path d="M173.692 0.730957L168.142 6.28134V17.3421H201.667L207.212 11.7974V0.730957H173.692Z" fill="#426AB3"/>
<path d="M201.336 6.66473L207.287 0.708496" stroke="#1E398D" stroke-width="1.26328" stroke-linecap="round" stroke-linejoin="round"/>
<path d="M201.433 6.50427H168.142V17.3421H201.433V6.50427Z" stroke="#1E398D" stroke-width="1.26328" stroke-linecap="round" stroke-linejoin="round"/>
<path d="M168.142 6.28134V17.3421H201.667L207.212 11.7974V0.730957H173.692L168.142 6.28134Z" stroke="#1E398D" stroke-width="1.26328" stroke-linecap="round" stroke-linejoin="round"/>
<path d="M201.57 6.28134V17.3421H235.096L240.641 11.7974V0.730957H207.121L201.57 6.28134Z" fill="#ED1C24"/>
<path d="M207.121 0.730957L201.57 6.28134V17.3421H235.096L240.641 11.7974V0.730957H207.121Z" fill="#ED1C24"/>
<path d="M234.764 6.66473L240.715 0.708496" stroke="#910D11" stroke-width="1.26328" stroke-linecap="round" stroke-linejoin="round"/>
<path d="M234.861 6.50427H201.57V17.3421H234.861V6.50427Z" stroke="#910D11" stroke-width="1.26328" stroke-linecap="round" stroke-linejoin="round"/>
<path d="M201.57 6.28134V17.3421H235.096L240.641 11.7974V0.730957H207.121L201.57 6.28134Z" stroke="#910D11" stroke-width="1.26328" stroke-linecap="round" stroke-linejoin="round"/>
<path d="M234.999 6.28134V17.3421H268.524L274.069 11.7974V0.730957H240.549L234.999 6.28134Z" fill="#426AB3"/>
<path d="M240.549 0.730957L234.999 6.28134V17.3421H268.524L274.069 11.7974V0.730957H240.549Z" fill="#426AB3"/>
<path d="M268.193 6.66473L274.143 0.708496" stroke="#1E398D" stroke-width="1.26328" stroke-linecap="round" stroke-linejoin="round"/>
<path d="M268.29 6.50427H234.999V17.3421H268.29V6.50427Z" stroke="#1E398D" stroke-width="1.26328" stroke-linecap="round" stroke-linejoin="round"/>
<path d="M234.999 6.28134V17.3421H268.524L274.069 11.7974V0.730957H240.549L234.999 6.28134Z" stroke="#1E398D" stroke-width="1.26328" stroke-linecap="round" stroke-linejoin="round"/>
<path d="M268.427 6.28134V17.3421H301.953L307.497 11.7974V0.730957H273.977L268.427 6.28134Z" fill="#ED1C24"/>
<path d="M273.977 0.730957L268.427 6.28134V17.3421H301.953L307.497 11.7974V0.730957H273.977Z" fill="#ED1C24"/>
<path d="M301.621 6.66473L307.572 0.708496" stroke="#910D11" stroke-width="1.26328" stroke-linecap="round" stroke-linejoin="round"/>
<path d="M301.718 6.50427H268.427V17.3421H301.718V6.50427Z" stroke="#910D11" stroke-width="1.26328" stroke-linecap="round" stroke-linejoin="round"/>
<path d="M268.427 6.28134V17.3421H301.953L307.497 11.7974V0.730957H273.977L268.427 6.28134Z" stroke="#910D11" stroke-width="1.26328" stroke-linecap="round" stroke-linejoin="round"/>
<path d="M301.855 6.28134V17.3421H335.381L340.926 11.7974V0.730957H307.406L301.855 6.28134Z" fill="#426AB3"/>
<path d="M307.406 0.730957L301.855 6.28134V17.3421H335.381L340.926 11.7974V0.730957H307.406Z" fill="#426AB3"/>
<path d="M335.05 6.66473L341 0.708496" stroke="#1E398D" stroke-width="1.26328" stroke-linecap="round" stroke-linejoin="round"/>
<path d="M335.147 6.50427H301.855V17.3421H335.147V6.50427Z" stroke="#1E398D" stroke-width="1.26328" stroke-linecap="round" stroke-linejoin="round"/>
<path d="M301.855 6.28134V17.3421H335.381L340.926 11.7974V0.730957H307.406L301.855 6.28134Z" stroke="#1E398D" stroke-width="1.26328" stroke-linecap="round" stroke-linejoin="round"/>
</svg>
