<svg width="208" height="19" viewBox="0 0 208 19" fill="none" xmlns="http://www.w3.org/2000/svg">
<path d="M1 6.74485V17.8056H34.5255L40.0703 12.2609V1.19446H6.55044L1 6.74485Z" fill="#ED1C24"/>
<path d="M6.55044 1.19446L1 6.74485V17.8056H34.5255L40.0703 12.2609V1.19446H6.55044Z" fill="#ED1C24"/>
<path d="M34.1941 7.12811L40.1447 1.17188" stroke="#910D11" stroke-width="1.26328" stroke-linecap="round" stroke-linejoin="round"/>
<path d="M34.2912 6.96765H1V17.8055H34.2912V6.96765Z" stroke="#910D11" stroke-width="1.26328" stroke-linecap="round" stroke-linejoin="round"/>
<path d="M1 6.74485V17.8056H34.5255L40.0703 12.2609V1.19446H6.55044L1 6.74485Z" stroke="#910D11" stroke-width="1.26328" stroke-linecap="round" stroke-linejoin="round"/>
<path d="M34.4282 6.74485V17.8056H67.9538L73.4985 12.2609V1.19446H39.9787L34.4282 6.74485Z" fill="#426AB3"/>
<path d="M39.9787 1.19446L34.4282 6.74485V17.8056H67.9538L73.4985 12.2609V1.19446H39.9787Z" fill="#426AB3"/>
<path d="M67.6223 7.12811L73.5729 1.17188" stroke="#1E398D" stroke-width="1.26328" stroke-linecap="round" stroke-linejoin="round"/>
<path d="M67.7194 6.96765H34.4282V17.8055H67.7194V6.96765Z" stroke="#1E398D" stroke-width="1.26328" stroke-linecap="round" stroke-linejoin="round"/>
<path d="M34.4282 6.74485V17.8056H67.9538L73.4985 12.2609V1.19446H39.9787L34.4282 6.74485Z" stroke="#1E398D" stroke-width="1.26328" stroke-linecap="round" stroke-linejoin="round"/>
<path d="M67.8567 6.74485V17.8056H101.382L106.927 12.2609V1.19446H73.4071L67.8567 6.74485Z" fill="#ED1C24"/>
<path d="M73.4071 1.19446L67.8567 6.74485V17.8056H101.382L106.927 12.2609V1.19446H73.4071Z" fill="#ED1C24"/>
<path d="M101.051 7.12811L107.001 1.17188" stroke="#910D11" stroke-width="1.26328" stroke-linecap="round" stroke-linejoin="round"/>
<path d="M101.148 6.96765H67.8567V17.8055H101.148V6.96765Z" stroke="#910D11" stroke-width="1.26328" stroke-linecap="round" stroke-linejoin="round"/>
<path d="M67.8567 6.74485V17.8056H101.382L106.927 12.2609V1.19446H73.4071L67.8567 6.74485Z" stroke="#910D11" stroke-width="1.26328" stroke-linecap="round" stroke-linejoin="round"/>
<path d="M101.285 6.74485V17.8056H134.81L140.355 12.2609V1.19446H106.835L101.285 6.74485Z" fill="#426AB3"/>
<path d="M106.835 1.19446L101.285 6.74485V17.8056H134.81L140.355 12.2609V1.19446H106.835Z" fill="#426AB3"/>
<path d="M134.479 7.12811L140.43 1.17188" stroke="#1E398D" stroke-width="1.26328" stroke-linecap="round" stroke-linejoin="round"/>
<path d="M134.576 6.96765H101.285V17.8055H134.576V6.96765Z" stroke="#1E398D" stroke-width="1.26328" stroke-linecap="round" stroke-linejoin="round"/>
<path d="M101.285 6.74485V17.8056H134.81L140.355 12.2609V1.19446H106.835L101.285 6.74485Z" stroke="#1E398D" stroke-width="1.26328" stroke-linecap="round" stroke-linejoin="round"/>
<path d="M134.713 6.74485V17.8056H168.239L173.784 12.2609V1.19446H140.264L134.713 6.74485Z" fill="#ED1C24"/>
<path d="M140.264 1.19446L134.713 6.74485V17.8056H168.239L173.784 12.2609V1.19446H140.264Z" fill="#ED1C24"/>
<path d="M167.907 7.12811L173.858 1.17188" stroke="#910D11" stroke-width="1.26328" stroke-linecap="round" stroke-linejoin="round"/>
<path d="M168.005 6.96765H134.713V17.8055H168.005V6.96765Z" stroke="#910D11" stroke-width="1.26328" stroke-linecap="round" stroke-linejoin="round"/>
<path d="M134.713 6.74485V17.8056H168.239L173.784 12.2609V1.19446H140.264L134.713 6.74485Z" stroke="#910D11" stroke-width="1.26328" stroke-linecap="round" stroke-linejoin="round"/>
<path d="M168.142 6.74485V17.8056H201.667L207.212 12.2609V1.19446H173.692L168.142 6.74485Z" fill="#426AB3"/>
<path d="M173.692 1.19446L168.142 6.74485V17.8056H201.667L207.212 12.2609V1.19446H173.692Z" fill="#426AB3"/>
<path d="M201.336 7.12811L207.287 1.17188" stroke="#1E398D" stroke-width="1.26328" stroke-linecap="round" stroke-linejoin="round"/>
<path d="M201.433 6.96765H168.142V17.8055H201.433V6.96765Z" stroke="#1E398D" stroke-width="1.26328" stroke-linecap="round" stroke-linejoin="round"/>
<path d="M168.142 6.74485V17.8056H201.667L207.212 12.2609V1.19446H173.692L168.142 6.74485Z" stroke="#1E398D" stroke-width="1.26328" stroke-linecap="round" stroke-linejoin="round"/>
</svg>
