<svg width="309" height="19" viewBox="0 0 309 19" fill="none" xmlns="http://www.w3.org/2000/svg">
<path d="M1 6.6478V17.7086H34.5255L40.0703 12.1639V1.09741H6.55044L1 6.6478Z" fill="#ED1C24"/>
<path d="M6.55044 1.09741L1 6.6478V17.7086H34.5255L40.0703 12.1639V1.09741H6.55044Z" fill="#ED1C24"/>
<path d="M34.1941 7.0307L40.1447 1.07446" stroke="#910D11" stroke-width="1.26328" stroke-linecap="round" stroke-linejoin="round"/>
<path d="M34.2912 6.87073H1V17.7086H34.2912V6.87073Z" stroke="#910D11" stroke-width="1.26328" stroke-linecap="round" stroke-linejoin="round"/>
<path d="M1 6.6478V17.7086H34.5255L40.0703 12.1639V1.09741H6.55044L1 6.6478Z" stroke="#910D11" stroke-width="1.26328" stroke-linecap="round" stroke-linejoin="round"/>
<path d="M34.4285 6.6478V17.7086H67.954L73.4987 12.1639V1.09741H39.9789L34.4285 6.6478Z" fill="#426AB3"/>
<path d="M39.9789 1.09741L34.4285 6.6478V17.7086H67.954L73.4987 12.1639V1.09741H39.9789Z" fill="#426AB3"/>
<path d="M67.6226 7.03045L73.5731 1.07422" stroke="#1E398D" stroke-width="1.26328" stroke-linecap="round" stroke-linejoin="round"/>
<path d="M67.7197 6.87048H34.4285V17.7083H67.7197V6.87048Z" stroke="#1E398D" stroke-width="1.26328" stroke-linecap="round" stroke-linejoin="round"/>
<path d="M34.4285 6.6478V17.7086H67.954L73.4987 12.1639V1.09741H39.9789L34.4285 6.6478Z" stroke="#1E398D" stroke-width="1.26328" stroke-linecap="round" stroke-linejoin="round"/>
<path d="M67.8567 6.6478V17.7086H101.382L106.927 12.1639V1.09741H73.4071L67.8567 6.6478Z" fill="#ED1C24"/>
<path d="M73.4071 1.09741L67.8567 6.6478V17.7086H101.382L106.927 12.1639V1.09741H73.4071Z" fill="#ED1C24"/>
<path d="M101.051 7.03045L107.001 1.07422" stroke="#910D11" stroke-width="1.26328" stroke-linecap="round" stroke-linejoin="round"/>
<path d="M101.148 6.87048H67.8567V17.7083H101.148V6.87048Z" stroke="#910D11" stroke-width="1.26328" stroke-linecap="round" stroke-linejoin="round"/>
<path d="M67.8567 6.6478V17.7086H101.382L106.927 12.1639V1.09741H73.4071L67.8567 6.6478Z" stroke="#910D11" stroke-width="1.26328" stroke-linecap="round" stroke-linejoin="round"/>
<path d="M101.285 6.6478V17.7086H134.811L140.355 12.1639V1.09741H106.836L101.285 6.6478Z" fill="#426AB3"/>
<path d="M106.836 1.09741L101.285 6.6478V17.7086H134.811L140.355 12.1639V1.09741H106.836Z" fill="#426AB3"/>
<path d="M134.479 7.03045L140.43 1.07422" stroke="#1E398D" stroke-width="1.26328" stroke-linecap="round" stroke-linejoin="round"/>
<path d="M134.576 6.87048H101.285V17.7083H134.576V6.87048Z" stroke="#1E398D" stroke-width="1.26328" stroke-linecap="round" stroke-linejoin="round"/>
<path d="M101.285 6.6478V17.7086H134.811L140.355 12.1639V1.09741H106.836L101.285 6.6478Z" stroke="#1E398D" stroke-width="1.26328" stroke-linecap="round" stroke-linejoin="round"/>
<path d="M134.714 6.6478V17.7086H168.239L173.784 12.1639V1.09741H140.264L134.714 6.6478Z" fill="#ED1C24"/>
<path d="M140.264 1.09741L134.714 6.6478V17.7086H168.239L173.784 12.1639V1.09741H140.264Z" fill="#ED1C24"/>
<path d="M167.908 7.03045L173.858 1.07422" stroke="#910D11" stroke-width="1.26328" stroke-linecap="round" stroke-linejoin="round"/>
<path d="M168.005 6.87048H134.714V17.7083H168.005V6.87048Z" stroke="#910D11" stroke-width="1.26328" stroke-linecap="round" stroke-linejoin="round"/>
<path d="M134.714 6.6478V17.7086H168.239L173.784 12.1639V1.09741H140.264L134.714 6.6478Z" stroke="#910D11" stroke-width="1.26328" stroke-linecap="round" stroke-linejoin="round"/>
<path d="M168.142 6.6478V17.7086H201.667L207.212 12.1639V1.09741H173.692L168.142 6.6478Z" fill="#426AB3"/>
<path d="M173.692 1.09741L168.142 6.6478V17.7086H201.667L207.212 12.1639V1.09741H173.692Z" fill="#426AB3"/>
<path d="M201.336 7.03045L207.287 1.07422" stroke="#1E398D" stroke-width="1.26328" stroke-linecap="round" stroke-linejoin="round"/>
<path d="M201.433 6.87048H168.142V17.7083H201.433V6.87048Z" stroke="#1E398D" stroke-width="1.26328" stroke-linecap="round" stroke-linejoin="round"/>
<path d="M168.142 6.6478V17.7086H201.667L207.212 12.1639V1.09741H173.692L168.142 6.6478Z" stroke="#1E398D" stroke-width="1.26328" stroke-linecap="round" stroke-linejoin="round"/>
<path d="M201.57 6.6478V17.7086H235.096L240.641 12.1639V1.09741H207.121L201.57 6.6478Z" fill="#ED1C24"/>
<path d="M207.121 1.09741L201.57 6.6478V17.7086H235.096L240.641 12.1639V1.09741H207.121Z" fill="#ED1C24"/>
<path d="M234.764 7.03045L240.715 1.07422" stroke="#910D11" stroke-width="1.26328" stroke-linecap="round" stroke-linejoin="round"/>
<path d="M234.862 6.87048H201.571V17.7083H234.862V6.87048Z" stroke="#910D11" stroke-width="1.26328" stroke-linecap="round" stroke-linejoin="round"/>
<path d="M201.57 6.6478V17.7086H235.096L240.641 12.1639V1.09741H207.121L201.57 6.6478Z" stroke="#910D11" stroke-width="1.26328" stroke-linecap="round" stroke-linejoin="round"/>
<path d="M234.999 6.6478V17.7086H268.524L274.069 12.1639V1.09741H240.549L234.999 6.6478Z" fill="#426AB3"/>
<path d="M240.549 1.09741L234.999 6.6478V17.7086H268.524L274.069 12.1639V1.09741H240.549Z" fill="#426AB3"/>
<path d="M268.193 7.03045L274.143 1.07422" stroke="#1E398D" stroke-width="1.26328" stroke-linecap="round" stroke-linejoin="round"/>
<path d="M268.29 6.87048H234.999V17.7083H268.29V6.87048Z" stroke="#1E398D" stroke-width="1.26328" stroke-linecap="round" stroke-linejoin="round"/>
<path d="M234.999 6.6478V17.7086H268.524L274.069 12.1639V1.09741H240.549L234.999 6.6478Z" stroke="#1E398D" stroke-width="1.26328" stroke-linecap="round" stroke-linejoin="round"/>
<path d="M268.427 6.6478V17.7086H301.953L307.498 12.1639V1.09741H273.978L268.427 6.6478Z" fill="#ED1C24"/>
<path d="M273.978 1.09741L268.427 6.6478V17.7086H301.953L307.498 12.1639V1.09741H273.978Z" fill="#ED1C24"/>
<path d="M301.621 7.03045L307.572 1.07422" stroke="#910D11" stroke-width="1.26328" stroke-linecap="round" stroke-linejoin="round"/>
<path d="M301.718 6.87048H268.427V17.7083H301.718V6.87048Z" stroke="#910D11" stroke-width="1.26328" stroke-linecap="round" stroke-linejoin="round"/>
<path d="M268.427 6.6478V17.7086H301.953L307.498 12.1639V1.09741H273.978L268.427 6.6478Z" stroke="#910D11" stroke-width="1.26328" stroke-linecap="round" stroke-linejoin="round"/>
</svg>
