<svg width="242" height="19" viewBox="0 0 242 19" fill="none" xmlns="http://www.w3.org/2000/svg">
<path d="M1 6.37924V17.44H34.5255L40.0703 11.8953V0.828857H6.55044L1 6.37924Z" fill="#ED1C24"/>
<path d="M6.55044 0.828857L1 6.37924V17.44H34.5255L40.0703 11.8953V0.828857H6.55044Z" fill="#ED1C24"/>
<path d="M34.1941 6.7619L40.1447 0.805664" stroke="#910D11" stroke-width="1.26328" stroke-linecap="round" stroke-linejoin="round"/>
<path d="M34.2912 6.60181H1V17.4396H34.2912V6.60181Z" stroke="#910D11" stroke-width="1.26328" stroke-linecap="round" stroke-linejoin="round"/>
<path d="M1 6.37924V17.44H34.5255L40.0703 11.8953V0.828857H6.55044L1 6.37924Z" stroke="#910D11" stroke-width="1.26328" stroke-linecap="round" stroke-linejoin="round"/>
<path d="M34.4285 6.379V17.4398H67.954L73.4987 11.8951V0.828613H39.9789L34.4285 6.379Z" fill="#426AB3"/>
<path d="M39.9789 0.828613L34.4285 6.379V17.4398H67.954L73.4987 11.8951V0.828613H39.9789Z" fill="#426AB3"/>
<path d="M67.6226 6.7619L73.5731 0.805664" stroke="#1E398D" stroke-width="1.26328" stroke-linecap="round" stroke-linejoin="round"/>
<path d="M67.7197 6.60181H34.4285V17.4396H67.7197V6.60181Z" stroke="#1E398D" stroke-width="1.26328" stroke-linecap="round" stroke-linejoin="round"/>
<path d="M34.4285 6.379V17.4398H67.954L73.4987 11.8951V0.828613H39.9789L34.4285 6.379Z" stroke="#1E398D" stroke-width="1.26328" stroke-linecap="round" stroke-linejoin="round"/>
<path d="M67.8567 6.379V17.4398H101.382L106.927 11.8951V0.828613H73.4071L67.8567 6.379Z" fill="#ED1C24"/>
<path d="M73.4071 0.828613L67.8567 6.379V17.4398H101.382L106.927 11.8951V0.828613H73.4071Z" fill="#ED1C24"/>
<path d="M101.051 6.7619L107.001 0.805664" stroke="#910D11" stroke-width="1.26328" stroke-linecap="round" stroke-linejoin="round"/>
<path d="M101.148 6.60181H67.8569V17.4396H101.148V6.60181Z" stroke="#910D11" stroke-width="1.26328" stroke-linecap="round" stroke-linejoin="round"/>
<path d="M67.8567 6.379V17.4398H101.382L106.927 11.8951V0.828613H73.4071L67.8567 6.379Z" stroke="#910D11" stroke-width="1.26328" stroke-linecap="round" stroke-linejoin="round"/>
<path d="M101.285 6.379V17.4398H134.811L140.355 11.8951V0.828613H106.836L101.285 6.379Z" fill="#426AB3"/>
<path d="M106.836 0.828613L101.285 6.379V17.4398H134.811L140.355 11.8951V0.828613H106.836Z" fill="#426AB3"/>
<path d="M134.479 6.7619L140.43 0.805664" stroke="#1E398D" stroke-width="1.26328" stroke-linecap="round" stroke-linejoin="round"/>
<path d="M134.576 6.60181H101.285V17.4396H134.576V6.60181Z" stroke="#1E398D" stroke-width="1.26328" stroke-linecap="round" stroke-linejoin="round"/>
<path d="M101.285 6.379V17.4398H134.811L140.355 11.8951V0.828613H106.836L101.285 6.379Z" stroke="#1E398D" stroke-width="1.26328" stroke-linecap="round" stroke-linejoin="round"/>
<path d="M134.714 6.379V17.4398H168.239L173.784 11.8951V0.828613H140.264L134.714 6.379Z" fill="#ED1C24"/>
<path d="M140.264 0.828613L134.714 6.379V17.4398H168.239L173.784 11.8951V0.828613H140.264Z" fill="#ED1C24"/>
<path d="M167.908 6.7619L173.858 0.805664" stroke="#910D11" stroke-width="1.26328" stroke-linecap="round" stroke-linejoin="round"/>
<path d="M168.005 6.60181H134.714V17.4396H168.005V6.60181Z" stroke="#910D11" stroke-width="1.26328" stroke-linecap="round" stroke-linejoin="round"/>
<path d="M134.714 6.379V17.4398H168.239L173.784 11.8951V0.828613H140.264L134.714 6.379Z" stroke="#910D11" stroke-width="1.26328" stroke-linecap="round" stroke-linejoin="round"/>
<path d="M168.142 6.379V17.4398H201.667L207.212 11.8951V0.828613H173.692L168.142 6.379Z" fill="#426AB3"/>
<path d="M173.692 0.828613L168.142 6.379V17.4398H201.667L207.212 11.8951V0.828613H173.692Z" fill="#426AB3"/>
<path d="M201.336 6.7619L207.287 0.805664" stroke="#1E398D" stroke-width="1.26328" stroke-linecap="round" stroke-linejoin="round"/>
<path d="M201.433 6.60181H168.142V17.4396H201.433V6.60181Z" stroke="#1E398D" stroke-width="1.26328" stroke-linecap="round" stroke-linejoin="round"/>
<path d="M168.142 6.379V17.4398H201.667L207.212 11.8951V0.828613H173.692L168.142 6.379Z" stroke="#1E398D" stroke-width="1.26328" stroke-linecap="round" stroke-linejoin="round"/>
<path d="M201.57 6.379V17.4398H235.096L240.641 11.8951V0.828613H207.121L201.57 6.379Z" fill="#ED1C24"/>
<path d="M207.121 0.828613L201.57 6.379V17.4398H235.096L240.641 11.8951V0.828613H207.121Z" fill="#ED1C24"/>
<path d="M234.764 6.7619L240.715 0.805664" stroke="#910D11" stroke-width="1.26328" stroke-linecap="round" stroke-linejoin="round"/>
<path d="M234.861 6.60181H201.57V17.4396H234.861V6.60181Z" stroke="#910D11" stroke-width="1.26328" stroke-linecap="round" stroke-linejoin="round"/>
<path d="M201.57 6.379V17.4398H235.096L240.641 11.8951V0.828613H207.121L201.57 6.379Z" stroke="#910D11" stroke-width="1.26328" stroke-linecap="round" stroke-linejoin="round"/>
</svg>
