<svg width="11" height="12" viewBox="0 0 11 12" fill="none" xmlns="http://www.w3.org/2000/svg">
<path d="M5.50723 0.567383C4.42718 0.567383 3.37138 0.88506 2.47335 1.48024C1.57532 2.07542 0.875393 2.92136 0.462074 3.91111C0.0487561 4.90085 -0.0593912 5.98995 0.151317 7.04065C0.362024 8.09136 0.882121 9.0565 1.64583 9.81402C2.40955 10.5715 3.38258 11.0874 4.44188 11.2964C5.50118 11.5054 6.59916 11.3981 7.597 10.9882C8.59484 10.5782 9.44772 9.88396 10.0478 8.99321C10.6478 8.10246 10.9681 7.05523 10.9681 5.98394C10.9682 5.27258 10.8271 4.56817 10.5527 3.91094C10.2783 3.25371 9.87607 2.65653 9.36895 2.15353C8.86184 1.65053 8.25979 1.25156 7.59718 0.979399C6.93457 0.707243 6.2244 0.567238 5.50723 0.567383ZM5.50723 10.4751C4.60088 10.4754 3.71482 10.209 2.96111 9.70968C2.2074 9.21038 1.6199 8.5006 1.2729 7.67009C0.925905 6.83959 0.834997 5.92566 1.01168 5.04391C1.18837 4.16216 1.62471 3.35218 2.26552 2.71641C2.90633 2.08065 3.72282 1.64765 4.61174 1.47218C5.50066 1.29672 6.42208 1.38666 7.25946 1.73065C8.09684 2.07463 8.81257 2.65719 9.31614 3.40467C9.8197 4.15215 10.0885 5.03096 10.0885 5.92996C10.0885 7.13523 9.60585 8.29115 8.74673 9.1435C7.88762 9.99586 6.72235 10.4749 5.50723 10.4751Z" fill="#C58511"/>
<path d="M0.917236 8.26383L0.96832 8.34755L0.994973 8.38831L1.00719 8.40924L1.02163 8.43017L1.07605 8.51169L1.1027 8.55245L1.13158 8.5921L1.18822 8.67252L1.20266 8.69234L1.21709 8.71218L1.24708 8.75073L1.30595 8.82895L1.36702 8.90496C1.69568 9.30877 2.08133 9.66347 2.51206 9.95808L2.55204 9.98562L2.59313 10.0121L2.67532 10.0638C2.70197 10.0826 2.73085 10.098 2.7575 10.1156L2.8408 10.1652L2.92632 10.2126C2.95408 10.228 2.98296 10.2445 3.01183 10.2588L3.09735 10.304L3.14067 10.326L3.18508 10.3469C3.65098 10.5737 4.1485 10.7301 4.66108 10.8107C5.17287 10.8906 5.69364 10.8961 6.20705 10.8272L6.39807 10.7986L6.58798 10.7611C6.71458 10.7336 6.84008 10.7039 6.96336 10.6664C7.21197 10.5947 7.45477 10.5045 7.6897 10.3965C8.16082 10.1805 8.5969 9.89612 8.98356 9.5527L9.05573 9.4888L9.1257 9.42161L9.19567 9.3544L9.21345 9.33788L9.23011 9.32026L9.26453 9.285C9.35449 9.19357 9.44113 9.09663 9.52553 8.99859L9.58661 8.92368L9.61771 8.88623C9.6277 8.87301 9.63881 8.86089 9.6477 8.84767L9.76541 8.69234L9.87647 8.53262C9.91201 8.47864 9.94534 8.42245 9.98088 8.36958C10.2549 7.92394 10.4632 7.44169 10.5995 6.9375C10.5017 7.45531 10.3214 7.95435 10.0653 8.41585C9.80775 8.88034 9.47834 9.30186 9.08906 9.66506L9.01575 9.73335L8.94024 9.79835C8.89026 9.84242 8.84029 9.88648 8.78698 9.92724L8.70812 9.98893L8.66925 10.0198L8.62816 10.0495L8.54708 10.1079C8.52043 10.1266 8.49378 10.1476 8.4649 10.1652C8.24451 10.3167 8.01198 10.4501 7.76966 10.564C7.52742 10.6784 7.27683 10.7745 7.02 10.8515C6.89117 10.8911 6.76123 10.922 6.63018 10.9517L6.43249 10.9903L6.2337 11.0211C5.96752 11.0558 5.69917 11.0712 5.43073 11.0674C5.1623 11.0633 4.89458 11.0386 4.62998 10.9936C4.36599 10.9484 4.10603 10.8824 3.85256 10.7964C3.09005 10.541 2.39906 10.1107 1.83571 9.54057C1.81128 9.51744 1.79016 9.49321 1.76684 9.46897L1.69909 9.39627L1.63246 9.32246L1.60025 9.285L1.5836 9.26628L1.56805 9.24755L1.50474 9.17154L1.47365 9.13298L1.44366 9.09443L1.38257 9.01512L1.36813 8.99639L1.3537 8.97545L1.32482 8.9358L1.26707 8.85538L1.21265 8.77276C1.176 8.71879 1.14157 8.6626 1.10159 8.60642L1.07605 8.56456L1.05162 8.5216L1.00385 8.43568C0.976088 8.3806 0.947223 8.32221 0.917236 8.26383Z" fill="#42210B"/>
<path d="M5.50744 0.616211C4.47506 0.616211 3.46585 0.919866 2.60745 1.48878C1.74905 2.05769 1.08001 2.86631 0.684936 3.81237C0.289859 4.75844 0.186489 5.79946 0.387898 6.8038C0.589307 7.80813 1.08645 8.73067 1.81646 9.45476C2.54647 10.1788 3.47656 10.672 4.48911 10.8717C5.50166 11.0715 6.55118 10.969 7.50499 10.5771C8.45879 10.1852 9.27402 9.52162 9.84759 8.67018C10.4211 7.81875 10.7273 6.81773 10.7273 5.79371C10.7273 5.11379 10.5923 4.44054 10.33 3.81237C10.0676 3.18421 9.68313 2.61344 9.19843 2.13267C8.71372 1.65189 8.13829 1.27052 7.50499 1.01032C6.87169 0.750128 6.19292 0.616211 5.50744 0.616211ZM5.50744 10.4744C4.60109 10.4746 3.71503 10.2082 2.96132 9.70893C2.20761 9.20964 1.62011 8.49985 1.27311 7.66935C0.926117 6.83884 0.835209 5.92492 1.01189 5.04316C1.18858 4.16141 1.62492 3.35143 2.26573 2.71567C2.90654 2.0799 3.72303 1.6469 4.61195 1.47144C5.50087 1.29597 6.42229 1.38592 7.25967 1.7299C8.09705 2.07388 8.81278 2.65645 9.31635 3.40393C9.81991 4.1514 10.0887 5.03021 10.0887 5.92921C10.0887 7.13448 9.60606 8.2904 8.74695 9.14276C7.88783 9.99512 6.72257 10.4741 5.50744 10.4744Z" fill="#D29D46"/>
<path opacity="0.5" d="M5.50724 0.616212C4.35924 0.615685 3.24309 0.990551 2.33159 1.68278C1.42008 2.375 0.764055 3.34597 0.465088 4.44536C0.527282 4.29224 0.596149 4.14242 0.669449 3.99591C0.822612 3.69311 0.999742 3.40285 1.1992 3.12785C1.29841 2.99125 1.40244 2.85869 1.51128 2.73017C1.62012 2.60165 1.73488 2.47865 1.85557 2.36114C2.09691 2.12649 2.36019 1.91513 2.64187 1.72993C2.92174 1.54518 3.21935 1.38835 3.53035 1.26175C4.47355 0.876066 5.51041 0.77455 6.51143 0.969878C7.51245 1.16521 8.43327 1.64872 9.1589 2.36004C9.39805 2.5975 9.61547 2.85555 9.8086 3.13116C10.005 3.40709 10.1802 3.69726 10.3328 3.99922C10.4224 4.17988 10.5042 4.36348 10.5783 4.55001C10.2979 3.42644 9.64614 2.42843 8.72694 1.71537C7.80775 1.00231 6.67417 0.615322 5.50724 0.616212Z" fill="white"/>
<path opacity="0.5" d="M9.03714 9.49745C8.96828 9.54812 8.90053 9.59879 8.83056 9.64726L8.72616 9.71887L8.67285 9.75412L8.61955 9.78827L8.56735 9.82242L8.51293 9.85546L8.45961 9.88851L8.40519 9.92046L8.29413 9.98214C8.25748 10.0031 8.22083 10.024 8.18307 10.0427C8.03499 10.1206 7.88691 10.194 7.73883 10.2631C6.51766 10.7915 5.14897 10.8811 3.86838 10.5164L3.74844 10.4812L3.68846 10.4635C3.66847 10.4635 3.64959 10.4503 3.6296 10.4437L3.51188 10.4041L3.4519 10.3831L3.39415 10.3611L3.27643 10.3159L3.24644 10.3049L3.21868 10.2928L3.15981 10.2675L3.04875 10.219L2.93769 10.165L2.87994 10.1386C2.86106 10.1298 2.84107 10.121 2.8233 10.111L2.71224 10.0526C2.6356 10.0163 2.56341 9.97223 2.49011 9.93148L2.43347 9.90063L2.37905 9.86758L2.26799 9.80149L2.24023 9.78496L2.21357 9.76734L2.15916 9.73209L2.0481 9.66379L2.0592 9.67701C3.08687 10.582 4.43292 11.0486 5.80521 10.9754C7.17751 10.9021 8.46532 10.2951 9.38919 9.28594C9.41251 9.25069 9.43694 9.21434 9.45916 9.17578C9.307 9.28704 9.17374 9.395 9.03714 9.49745Z" fill="white"/>
<path opacity="0.5" d="M5.50744 1.08594C4.56484 1.08572 3.64335 1.36277 2.8595 1.88204C2.07565 2.40131 1.46467 3.13948 1.1038 4.0032C0.742937 4.86692 0.648403 5.81739 0.832159 6.7344C1.01592 7.65141 1.46971 8.49377 2.13614 9.15496C2.80258 9.81615 3.65173 10.2665 4.57619 10.4489C5.50066 10.6314 6.45893 10.5379 7.32979 10.1801C8.20066 9.82239 8.94501 9.21653 9.46871 8.43916C9.99241 7.66179 10.2719 6.74784 10.2719 5.81289C10.2719 4.55942 9.76999 3.35726 8.8765 2.47082C7.98302 1.58438 6.77116 1.08623 5.50744 1.08594ZM5.50744 10.4748C4.60108 10.4751 3.71503 10.2087 2.96131 9.70938C2.2076 9.21008 1.6201 8.5003 1.27311 7.66979C0.926109 6.83929 0.835201 5.92536 1.01189 5.04361C1.18857 4.16186 1.62491 3.35188 2.26572 2.71611C2.90653 2.08035 3.72302 1.64735 4.61194 1.47189C5.50086 1.29642 6.42228 1.38637 7.25966 1.73035C8.09704 2.07433 8.81278 2.6569 9.31634 3.40437C9.8199 4.15185 10.0887 5.03066 10.0887 5.92966C10.0887 7.13493 9.60606 8.29085 8.74694 9.14321C7.88782 9.99556 6.72256 10.4746 5.50744 10.4748Z" fill="#EDD1A6"/>
<path d="M10.2694 5.52977V5.43613V5.3414C10.2694 5.30945 10.2694 5.27861 10.2605 5.24777L10.2516 5.15302C10.2516 5.12218 10.2516 5.09024 10.2405 5.05939L10.2105 4.87322C10.2105 4.8567 10.205 4.84127 10.2016 4.82585L10.1927 4.77959L10.1727 4.68705C10.1605 4.62536 10.1439 4.56477 10.1272 4.50309L10.1028 4.41165C10.1028 4.39623 10.0939 4.38191 10.0895 4.36649L10.075 4.32132L10.0461 4.23099C10.0361 4.20014 10.0273 4.1704 10.015 4.14066L9.94841 3.9633C9.92397 3.90492 9.89733 3.84653 9.87289 3.78925L9.85289 3.74519L9.8329 3.70222L9.7896 3.6174L9.74739 3.53258L9.70074 3.44886L9.65409 3.36624L9.63077 3.32438L9.60523 3.28472L9.55415 3.2032L9.52859 3.16354C9.51971 3.15032 9.51194 3.136 9.50194 3.12388L9.39088 2.96746C9.31425 2.86501 9.23761 2.76366 9.15321 2.66782L9.09102 2.59512L9.0255 2.52572L8.95885 2.45632L8.92554 2.42106L8.89111 2.38802C8.70971 2.20807 8.51359 2.04336 8.30472 1.8956L8.22697 1.84052C8.20031 1.8218 8.17255 1.80527 8.1459 1.78765L8.06482 1.73587L8.02484 1.71054L7.98264 1.6863L7.81605 1.59046L7.64501 1.50344C7.41425 1.39106 7.17515 1.29641 6.92979 1.22032L6.74431 1.16855L6.721 1.16194L6.69766 1.15643L6.65103 1.14542L6.55661 1.12449L6.50998 1.11347H6.48665H6.46222L6.36782 1.09695L6.27231 1.08042H6.24899H6.22566L6.17791 1.07491L6.08129 1.0628L6.03352 1.05729H6.01021H5.98578L5.79363 1.04297C5.76253 1.04297 5.73033 1.04297 5.69812 1.04297H5.6015H5.50599H5.40937C5.1529 1.04929 4.89736 1.07618 4.64527 1.12338C4.39308 1.17034 4.14528 1.23814 3.90449 1.32608C3.8745 1.33599 3.84453 1.34921 3.81454 1.36023C3.78455 1.37125 3.75456 1.38226 3.72569 1.39548C3.66682 1.41971 3.60686 1.44395 3.55021 1.47149C3.43915 1.52436 3.31921 1.58165 3.20815 1.64444C3.15262 1.67639 3.09708 1.70723 3.04377 1.74248L2.9627 1.79205L2.88274 1.84493L2.80389 1.89891L2.72614 1.95509L2.65063 2.01237C2.6373 2.02119 2.62509 2.0311 2.61287 2.04102L2.5751 2.07076L2.5007 2.13024L2.42851 2.19304L2.39296 2.22388L2.35743 2.25582L2.28746 2.31972L2.21971 2.38582L2.18528 2.41886L2.15197 2.45301C2.12976 2.47615 2.10753 2.49818 2.08643 2.52131L2.02202 2.59181C1.85267 2.77876 1.6996 2.9796 1.56445 3.19218C2.13538 2.3538 2.96248 1.71929 3.92411 1.38197C4.88573 1.04465 5.93111 1.02233 6.90647 1.3183C7.88184 1.61427 8.73571 2.21291 9.34247 3.02615C9.94923 3.83939 10.2768 4.8243 10.2771 5.83602V5.57714C10.2694 5.56172 10.2694 5.5452 10.2694 5.52977Z" fill="white"/>
<path d="M1.68013 3.35297C1.59626 3.49477 1.52206 3.64198 1.45801 3.7936C1.76957 3.21284 2.20449 2.70606 2.73275 2.30826C3.26101 1.91046 3.87 1.63112 4.5177 1.48952C5.1654 1.34792 5.83637 1.34743 6.48428 1.48809C7.13219 1.62875 7.74161 1.90721 8.27045 2.30425L8.17717 2.22163L8.13051 2.18086L8.08277 2.14231L7.98392 2.0641L7.88285 1.99139C7.86619 1.97928 7.84954 1.96605 7.83177 1.95504L7.77956 1.92089L7.72736 1.88674L7.67406 1.85259C7.60187 1.81073 7.53079 1.76667 7.45194 1.72811L7.39641 1.69947C7.37753 1.68955 7.35976 1.67964 7.33976 1.67083L7.2287 1.61685L7.19983 1.60363L7.17095 1.59041L7.11209 1.56618L7.05435 1.54194L7.02436 1.52982L6.99548 1.51881L6.87664 1.47474L6.84666 1.46373L6.81556 1.45491L6.75559 1.43508L6.69451 1.41636L6.66452 1.40644L6.63453 1.39763L6.51126 1.36458L6.48016 1.35687L6.44906 1.35026L6.38687 1.33594L6.32467 1.32272L6.29357 1.31501L6.26248 1.3095C6.17919 1.29518 6.09478 1.27976 6.01037 1.26985C5.84131 1.24761 5.67112 1.23474 5.50061 1.23129C5.41509 1.23129 5.32957 1.23129 5.24517 1.23129H5.18076C5.15967 1.2302 5.13853 1.2302 5.11744 1.23129C5.07413 1.23129 5.03192 1.23129 4.98972 1.2412C4.81959 1.25905 4.65054 1.2859 4.48329 1.32162C3.81344 1.46931 3.18798 1.7712 2.65745 2.2029C2.39549 2.41546 2.16022 2.65845 1.95667 2.92665C1.85508 3.06253 1.7627 3.20495 1.68013 3.35297Z" fill="#996211"/>
<path d="M5.50751 0.587887C4.7934 0.587345 4.08623 0.726933 3.42673 0.998612C2.76723 1.27029 2.16844 1.6687 1.66482 2.17088C0.906529 2.92558 0.391593 3.88688 0.185492 4.93258C0.0484976 5.62609 0.0507686 6.33959 0.192162 7.03223C0.261639 7.37731 0.365822 7.71462 0.503136 8.03909C0.639563 8.36363 0.808078 8.67397 1.00623 8.96553C1.60273 9.84702 2.44906 10.5335 3.43846 10.9385C3.76533 11.0733 4.10503 11.1751 4.45244 11.2425C5.14908 11.3791 5.86594 11.3791 6.56259 11.2425C6.90996 11.175 7.24964 11.0731 7.57657 10.9385C8.23311 10.6691 8.83002 10.2746 9.33354 9.77741C9.58423 9.52878 9.81036 9.25692 10.0088 8.96553C10.4058 8.38053 10.6824 7.72353 10.8229 7.03223C10.8942 6.68707 10.9314 6.33584 10.9339 5.98351C10.9363 5.27624 10.798 4.57545 10.527 3.92124C10.256 3.26702 9.85762 2.67223 9.35465 2.17088C8.85085 1.66894 8.25201 1.2707 7.59255 0.999036C6.9331 0.727373 6.22603 0.587647 5.51196 0.587887H5.50751ZM5.50751 0.544923C6.22766 0.54445 6.94087 0.684441 7.60656 0.956923C8.27069 1.23066 8.87437 1.63072 9.38353 2.13453C9.63815 2.38627 9.86763 2.66185 10.0688 2.95742C10.2697 3.25366 10.4408 3.56876 10.5796 3.89819C10.7186 4.22739 10.8243 4.56945 10.8951 4.91936C11.035 5.622 11.035 6.34501 10.8951 7.04765C10.8265 7.39891 10.7227 7.74248 10.5852 8.07324C10.3102 8.73735 9.90572 9.34107 9.39495 9.84978C8.88419 10.3585 8.27719 10.7622 7.60878 11.0376C6.93984 11.3127 6.22279 11.4543 5.49863 11.4543C4.77448 11.4543 4.05743 11.3127 3.38848 11.0376C2.55154 10.6928 1.81353 10.1481 1.24017 9.45199C0.666812 8.75586 0.27588 7.9299 0.102196 7.04765C-0.0362769 6.34465 -0.0340062 5.6215 0.108866 4.91936C0.179668 4.56945 0.28532 4.22739 0.424274 3.89819C0.771671 3.07191 1.31886 2.3432 2.01753 1.77643C2.71619 1.20966 3.54483 0.822265 4.43023 0.648473C4.78509 0.579397 5.14588 0.544717 5.50751 0.544923Z" fill="#42210B"/>
<path d="M5.50725 10.4893C5.20452 10.4893 4.9025 10.4601 4.60544 10.4023C4.30982 10.3447 4.02073 10.258 3.7425 10.1434C2.90195 9.79843 2.18236 9.2157 1.67344 8.46785C1.16441 7.71898 0.890416 6.83734 0.88603 5.93417C0.884717 5.63399 0.912988 5.3344 0.970437 5.03968C1.02803 4.74504 1.11508 4.45683 1.23031 4.17933C1.63605 3.19513 2.37474 2.38185 3.31942 1.87926C4.26411 1.37667 5.35579 1.21617 6.40684 1.42534C6.70477 1.48384 6.99609 1.57167 7.27645 1.68752C7.83805 1.91919 8.34794 2.2587 8.77679 2.68653C9.20563 3.11436 9.54498 3.62206 9.77531 4.18043C9.89016 4.45798 9.97684 4.74618 10.0341 5.04078C10.1503 5.63101 10.1481 6.2382 10.0274 6.82757C9.90621 7.41592 9.67003 7.97504 9.33218 8.47335C8.99389 8.97011 8.56119 9.39668 8.05831 9.72918C7.80739 9.89463 7.54068 10.0352 7.26201 10.1489C6.98384 10.2636 6.69474 10.3504 6.39907 10.4078C6.10512 10.4632 5.80647 10.4905 5.50725 10.4893ZM5.50725 10.4606C5.80559 10.4598 6.10314 10.4303 6.39574 10.3725C6.68907 10.315 6.97591 10.2286 7.25201 10.1147C8.36563 9.65242 9.24859 8.77038 9.70677 7.66253C10.1649 6.55468 10.1608 5.31171 9.69534 4.20687C9.46466 3.66166 9.12805 3.16681 8.70469 2.75056C8.28343 2.33404 7.78333 2.00422 7.23314 1.78005C6.54491 1.49852 5.79752 1.38895 5.05661 1.46098C4.31571 1.53301 3.60398 1.78443 2.98396 2.19315C2.73678 2.35639 2.50616 2.54307 2.29538 2.75056C2.08509 2.95862 1.89542 3.18623 1.72897 3.43024C1.56259 3.67279 1.42086 3.93109 1.30584 4.20136C0.841383 5.30508 0.836191 6.54626 1.2914 7.65376C1.63414 8.48189 2.21724 9.19032 2.96668 9.6891C3.71612 10.1879 4.59809 10.4545 5.5006 10.4551L5.50725 10.4606Z" fill="#42210B"/>
<path d="M6.19067 0.708008L6.28618 0.890873C6.97688 0.99169 7.64008 1.2292 8.2364 1.58929L8.30637 1.47913C7.66696 1.07074 6.94454 0.80743 6.19067 0.708008Z" fill="white"/>
<path d="M4.42371 0.945444C4.71801 0.883494 5.01712 0.84664 5.31775 0.835284L5.24778 0.668945C4.94326 0.683882 4.6407 0.72591 4.34375 0.794526L4.42371 0.945444Z" fill="white"/>
<path d="M3.47718 1.07422C3.36612 1.12379 3.2484 1.17667 3.13623 1.23395L3.20286 1.35843C3.30615 1.30776 3.41165 1.26149 3.51827 1.21853L3.57269 1.1965L3.47718 1.07422Z" fill="white"/>
<path d="M5.49458 10.932H5.51124C5.70644 10.932 5.90149 10.921 6.09542 10.899L5.96992 10.748L5.82998 10.7591C5.68116 10.7679 5.53234 10.7712 5.38574 10.7701L5.49458 10.932Z" fill="white"/>
<path d="M6.79826 10.7692C7.31845 10.6358 7.81479 10.4236 8.26981 10.1402L8.12433 10.1182C7.99883 10.1821 7.87444 10.2415 7.75227 10.2944C7.41052 10.4418 7.05538 10.5566 6.69165 10.637L6.79826 10.7692Z" fill="white"/>
<path d="M4.88552 10.7418C4.6945 10.7231 4.50459 10.6955 4.31689 10.6592L4.42795 10.8189C4.62593 10.8603 4.82619 10.8901 5.02768 10.9081L4.88552 10.7418Z" fill="white"/>
</svg>
