<svg width="94" height="130" viewBox="0 0 94 130" fill="none" xmlns="http://www.w3.org/2000/svg">
<g style="mix-blend-mode:multiply" opacity="0.1">
<path d="M79.0653 60.5417C82.1648 64.4137 84.3361 68.9442 85.4125 73.7858C86.489 78.6273 86.442 83.6511 85.2753 88.4716C83.3605 97.4724 79.1353 105.82 73.0153 112.692C69.0153 117.172 64.2453 120.692 58.3353 122.212C52.3353 123.774 46.1133 124.305 39.9353 123.782C29.9525 123.027 20.5617 118.753 13.4353 111.722C7.50527 105.982 4.52527 98.8817 3.82527 90.6317C2.99527 80.7917 6.05527 72.2217 11.5853 64.3217C13.2891 61.7703 15.2787 59.4217 17.5153 57.3217C17.8235 56.93 18.079 56.4997 18.2753 56.0417C18.1505 55.8059 18.0102 55.5787 17.8553 55.3617C13.1453 49.6517 12.0053 42.9016 12.2453 35.7816C12.7253 21.5616 24.2453 9.96167 37.5253 7.02167C45.1105 5.19879 53.0991 6.18271 60.0153 9.79166C64.9583 12.4563 68.8063 16.7751 70.8853 21.9917C74.3053 29.9917 73.9953 37.8517 70.4853 45.6917C70.0653 46.6417 69.6653 47.6017 69.2453 48.5417C68.9092 49.1439 68.8172 49.8522 68.9884 50.5204C69.1596 51.1885 69.5809 51.7653 70.1653 52.1317C73.5255 54.4868 76.5238 57.32 79.0653 60.5417ZM52.8053 100.832C57.1253 97.6617 60.5953 90.5317 58.9153 84.0717C56.0953 73.2117 43.9153 70.6517 36.1353 75.7917C31.4553 78.9017 29.6553 83.5416 29.8453 89.0016C30.1253 96.7816 35.0853 103.472 43.8453 103.342C47.0289 103.533 50.1846 102.649 52.8053 100.832ZM44.6453 44.6216C49.7953 43.2716 52.9653 37.3617 51.4653 31.8817C50.3353 27.7117 47.4653 25.6517 43.1553 25.8817C38.8453 26.1117 36.1553 28.7617 34.4753 32.5717C33.8503 33.9068 33.5799 35.3804 33.69 36.8505C33.8002 38.3205 34.2873 39.7374 35.1043 40.9644C35.9214 42.1915 37.0408 43.1874 38.3546 43.856C39.6684 44.5246 41.1324 44.8434 42.6053 44.7816C43.289 44.7982 43.9725 44.7446 44.6453 44.6216Z" fill="#FCFCFC"/>
<path d="M88.2853 66.8516C85.2853 60.5416 81.6352 54.6116 74.9952 51.1316C75.4252 50.4616 75.8453 49.8816 76.1953 49.2516C78.8853 44.4816 79.6852 39.2516 79.5953 33.8816C79.4553 24.9816 75.5952 17.7516 69.3552 11.6116C66.0153 8.29157 61.8652 6.41156 57.4453 4.97156C54.5072 3.94782 51.448 3.31246 48.3453 3.08157C41.9285 2.65193 35.512 3.92487 29.7452 6.77158C18.4852 12.3416 11.2053 20.8816 10.0153 33.7716C9.37892 39.3642 10.1952 45.0264 12.3853 50.2116C13.2481 52.3911 14.457 54.4172 15.9652 56.2116C14.0641 57.3883 12.3344 58.8218 10.8252 60.4716C5.7276 65.6615 2.22279 72.2027 0.725251 79.3216C-0.423803 85.4704 -0.2053 91.7967 1.36525 97.8516C2.04525 100.692 2.57525 103.592 4.02525 106.152C7.75776 113.004 13.2497 118.738 19.9352 122.762C28.5252 127.822 37.6752 130.472 47.7452 129.502C59.3752 128.372 69.7453 124.502 77.9453 115.832C84.1353 109.292 88.9453 102.052 90.7353 92.9616C92.5253 83.8716 92.3353 75.2316 88.2853 66.8516ZM85.2852 88.4716C83.3705 97.4723 79.1452 105.819 73.0252 112.692C69.0252 117.172 64.2552 120.692 58.3453 122.212C52.342 123.775 46.1165 124.306 39.9352 123.782C29.9525 123.027 20.5617 118.753 13.4352 111.722C7.50525 105.982 4.52525 98.8816 3.82525 90.6316C2.99525 80.7916 6.05525 72.2216 11.5853 64.3216C13.2891 61.7702 15.2786 59.4216 17.5153 57.3216C17.8235 56.93 18.079 56.4996 18.2752 56.0416C18.1505 55.8058 18.0102 55.5787 17.8552 55.3616C13.1452 49.6516 12.0053 42.9016 12.2453 35.7816C12.7253 21.5616 24.2452 9.96158 37.5252 7.02158C45.1104 5.1987 53.0991 6.18262 60.0153 9.79157C64.9583 12.4562 68.8063 16.775 70.8852 21.9916C74.3052 29.9916 73.9953 37.8516 70.4853 45.6916C70.0653 46.6416 69.6652 47.6016 69.2452 48.5416C68.9091 49.1438 68.8172 49.8522 68.9884 50.5203C69.1596 51.1884 69.5809 51.7652 70.1653 52.1316C73.5389 54.4966 76.5476 57.3436 79.0953 60.5816C82.1836 64.4515 84.346 68.9765 85.4171 73.8104C86.4883 78.6444 86.4397 83.6592 85.2752 88.4716H85.2852Z" fill="#FCFCFC"/>
<path d="M36.1353 75.7917C31.4553 78.9017 29.6553 83.5417 29.8453 89.0017C30.1253 96.7817 35.0853 103.472 43.8453 103.342C47.0121 103.522 50.1484 102.639 52.7553 100.832C57.0753 97.6617 60.5453 90.5317 58.8653 84.0717C56.0953 73.2117 43.8653 70.6517 36.1353 75.7917ZM52.1353 98.6417C50.4653 100.352 48.2753 100.352 46.1353 100.542C42.4653 100.712 39.7053 98.9217 37.2253 96.5417C36.6288 95.7904 36.19 94.9265 35.9353 94.0017C34.2853 90.0917 35.1353 82.4917 39.2253 79.0017C40.5951 77.7264 42.2754 76.8327 44.0986 76.4098C45.9218 75.9869 47.8239 76.0496 49.6153 76.5917C51.5843 77.1458 53.3359 78.2904 54.6341 79.8711C55.9323 81.4518 56.7145 83.3926 56.8753 85.4317C57.1838 87.8488 56.9182 90.3046 56.0998 92.5999C55.2815 94.8951 53.9335 96.965 52.1653 98.6417H52.1353Z" fill="#FCFCFC"/>
<path d="M42.6052 44.8216C43.2769 44.8223 43.947 44.7553 44.6052 44.6216C49.7552 43.2716 52.9252 37.3616 51.4252 31.8816C50.2952 27.7116 47.4252 25.6516 43.1152 25.8816C38.8052 26.1116 36.1152 28.7616 34.4352 32.5716C33.799 33.9115 33.521 35.3935 33.6283 36.8728C33.7357 38.3522 34.2247 39.7785 35.0477 41.0125C35.8707 42.2465 36.9996 43.2461 38.3242 43.9137C39.6487 44.5813 41.1237 44.8941 42.6052 44.8216ZM43.8452 28.9916C44.4424 28.5391 45.1906 28.3335 45.9351 28.4173C46.6797 28.501 47.3635 28.8677 47.8452 29.4416C49.2521 30.9146 50.018 32.8851 49.9752 34.9216C49.9575 36.1583 49.6497 37.3735 49.0765 38.4695C48.5033 39.5655 47.6808 40.5116 46.6752 41.2316C44.2052 42.9316 40.2552 42.7016 39.5652 38.3016C39.3443 36.5055 39.6277 34.6833 40.3836 33.039C41.1395 31.3948 42.3381 29.9934 43.8452 28.9916Z" fill="#FCFCFC"/>
<path d="M26.0352 18.3018C26.2752 18.9318 25.9452 19.1917 25.8152 19.5117C23.9852 23.8717 21.6252 28.0117 20.3352 32.6217C19.8009 34.3351 19.5707 36.1289 19.6552 37.9218C19.7452 38.7151 19.7149 39.5175 19.5652 40.3018C19.4252 40.8818 19.2052 41.3818 18.5652 41.5218C18.2694 41.5814 17.9623 41.5493 17.6853 41.4295C17.4083 41.3098 17.1745 41.1081 17.0152 40.8517C16.4213 40.0879 16.1167 39.1386 16.1552 38.1718C16.1552 34.6718 16.4852 31.2518 18.3352 28.1718C19.5605 25.7518 20.9784 23.4343 22.5752 21.2418C23.4533 19.9775 24.6459 18.9642 26.0352 18.3018Z" fill="#FCFCFC"/>
<path d="M49.7052 106.561C49.7052 106.031 50.1652 105.851 50.4852 105.561C52.0952 104.311 53.6952 103.051 55.3352 101.851C56.9598 100.69 58.3736 99.2597 59.5152 97.6214C60.3552 96.3914 61.5152 96.0414 62.4552 96.6714C63.3952 97.3014 63.5352 98.5114 62.8152 99.7714C62.4258 100.525 61.9042 101.202 61.2752 101.771C58.3852 104.141 55.2752 106.171 51.5152 106.771C51.2152 106.862 50.8998 106.89 50.5884 106.854C50.2771 106.818 49.9765 106.718 49.7052 106.561Z" fill="#FCFCFC"/>
<path d="M33.6253 12.9917C33.7253 14.8317 31.5453 17.4817 29.8153 17.6717C29.4789 17.7277 29.1334 17.6848 28.821 17.5481C28.5085 17.4114 28.2425 17.1868 28.0553 16.9017C27.8358 16.59 27.718 16.218 27.718 15.8367C27.718 15.4555 27.8358 15.0835 28.0553 14.7717C28.6929 13.9442 29.5674 13.3305 30.5625 13.0125C31.5576 12.6945 32.626 12.6873 33.6253 12.9917Z" fill="#FCFCFC"/>
<path d="M54.5752 39.4515C54.2867 39.0327 54.1018 38.5515 54.0358 38.0473C53.9697 37.5431 54.0243 37.0304 54.1952 36.5515C54.2581 36.2562 54.4326 35.9967 54.6823 35.8271C54.932 35.6575 55.2376 35.591 55.5352 35.6415C56.2652 35.7215 56.5352 36.2615 56.5352 36.8915C56.5816 37.1892 56.5672 37.4933 56.4928 37.7853C56.4184 38.0773 56.2856 38.3512 56.1024 38.5904C55.9193 38.8297 55.6895 39.0293 55.427 39.1773C55.1645 39.3253 54.8748 39.4186 54.5752 39.4515Z" fill="#FCFCFC"/>
</g>
<path d="M81.0653 57.5431C84.1648 61.4151 86.3361 65.9457 87.4125 70.7872C88.489 75.6288 88.442 80.6525 87.2753 85.4731C85.3605 94.4739 81.1353 102.821 75.0153 109.693C71.0153 114.173 66.2453 117.693 60.3353 119.213C54.3353 120.776 48.1133 121.307 41.9353 120.783C31.9525 120.028 22.5617 115.754 15.4353 108.723C9.50527 102.983 6.52527 95.8831 5.82527 87.6331C4.99527 77.7931 8.05527 69.2231 13.5853 61.3231C15.2891 58.7717 17.2787 56.4232 19.5153 54.3231C19.8235 53.9315 20.079 53.5012 20.2753 53.0431C20.1505 52.8074 20.0102 52.5802 19.8553 52.3631C15.1453 46.6531 14.0053 39.9031 14.2453 32.7831C14.7253 18.5631 26.2453 6.96313 39.5253 4.02313C47.1105 2.20026 55.0991 3.18417 62.0153 6.79312C66.9583 9.45778 70.8063 13.7766 72.8853 18.9931C76.3053 26.9931 75.9953 34.8531 72.4853 42.6931C72.0653 43.6431 71.6653 44.6031 71.2453 45.5431C70.9092 46.1454 70.8172 46.8537 70.9884 47.5218C71.1596 48.1899 71.5809 48.7667 72.1653 49.1331C75.5255 51.4883 78.5238 54.3215 81.0653 57.5431ZM54.8053 97.8331C59.1253 94.6631 62.5953 87.5331 60.9153 81.0731C58.0953 70.2131 45.9153 67.6531 38.1353 72.7931C33.4553 75.9031 31.6553 80.5431 31.8453 86.0031C32.1253 93.7831 37.0853 100.473 45.8453 100.343C49.0289 100.535 52.1846 99.6509 54.8053 97.8331ZM46.6453 41.6231C51.7953 40.2731 54.9653 34.3631 53.4653 28.8831C52.3353 24.7131 49.4653 22.6531 45.1553 22.8831C40.8453 23.1131 38.1553 25.7631 36.4753 29.5731C35.8503 30.9083 35.5799 32.3819 35.69 33.852C35.8002 35.322 36.2873 36.7389 37.1043 37.9659C37.9214 39.193 39.0408 40.1888 40.3546 40.8574C41.6684 41.526 43.1324 41.8448 44.6053 41.7831C45.289 41.7997 45.9725 41.7461 46.6453 41.6231Z" fill="#F46F22"/>
<path d="M90.2853 63.8516C87.2853 57.5416 83.6352 51.6116 76.9952 48.1316C77.4252 47.4616 77.8453 46.8816 78.1953 46.2516C80.8853 41.4816 81.6852 36.2516 81.5953 30.8816C81.4553 21.9816 77.5952 14.7516 71.3552 8.61157C68.0153 5.29157 63.8652 3.41156 59.4453 1.97156C56.5072 0.947822 53.448 0.312458 50.3453 0.0815744C43.9285 -0.348066 37.512 0.924871 31.7452 3.77158C20.4852 9.34158 13.2053 17.8816 12.0153 30.7716C11.3789 36.3642 12.1952 42.0264 14.3853 47.2116C15.2481 49.3911 16.457 51.4172 17.9652 53.2116C16.0641 54.3883 14.3344 55.8218 12.8252 57.4716C7.7276 62.6615 4.22279 69.2027 2.72525 76.3216C1.5762 82.4704 1.7947 88.7967 3.36525 94.8516C4.04525 97.6916 4.57525 100.592 6.02525 103.152C9.75776 110.004 15.2497 115.738 21.9352 119.762C30.5252 124.822 39.6752 127.472 49.7452 126.502C61.3752 125.372 71.7453 121.502 79.9453 112.832C86.1353 106.292 90.9453 99.0516 92.7353 89.9616C94.5253 80.8716 94.3353 72.2316 90.2853 63.8516ZM87.2853 85.4716C85.3705 94.4723 81.1452 102.819 75.0252 109.692C71.0252 114.172 66.2552 117.692 60.3453 119.212C54.342 120.775 48.1165 121.306 41.9352 120.782C31.9525 120.027 22.5617 115.753 15.4352 108.722C9.50525 102.982 6.52525 95.8816 5.82525 87.6316C4.99525 77.7916 8.05525 69.2216 13.5853 61.3216C15.2891 58.7702 17.2786 56.4216 19.5153 54.3216C19.8235 53.93 20.079 53.4996 20.2752 53.0416C20.1505 52.8058 20.0102 52.5787 19.8552 52.3616C15.1452 46.6516 14.0053 39.9016 14.2453 32.7816C14.7253 18.5616 26.2452 6.96158 39.5252 4.02158C47.1104 2.1987 55.0991 3.18262 62.0153 6.79157C66.9583 9.45622 70.8063 13.775 72.8852 18.9916C76.3052 26.9916 75.9953 34.8516 72.4853 42.6916C72.0653 43.6416 71.6652 44.6016 71.2452 45.5416C70.9091 46.1438 70.8172 46.8522 70.9884 47.5203C71.1596 48.1884 71.5809 48.7652 72.1653 49.1316C75.5389 51.4966 78.5476 54.3436 81.0953 57.5816C84.1836 61.4515 86.346 65.9765 87.4171 70.8104C88.4883 75.6444 88.4397 80.6592 87.2752 85.4716H87.2853Z" fill="#FCFCFC"/>
<path d="M38.1353 72.7917C33.4553 75.9017 31.6553 80.5417 31.8453 86.0017C32.1253 93.7817 37.0853 100.472 45.8453 100.342C49.0121 100.522 52.1484 99.6387 54.7553 97.8317C59.0753 94.6617 62.5453 87.5317 60.8653 81.0717C58.0953 70.2117 45.8653 67.6517 38.1353 72.7917ZM54.1353 95.6417C52.4653 97.3517 50.2753 97.3517 48.1353 97.5417C44.4653 97.7117 41.7053 95.9217 39.2253 93.5417C38.6288 92.7904 38.19 91.9265 37.9353 91.0017C36.2853 87.0917 37.1353 79.4917 41.2253 76.0017C42.5951 74.7264 44.2754 73.8327 46.0986 73.4098C47.9218 72.9869 49.8239 73.0496 51.6153 73.5917C53.5843 74.1458 55.3359 75.2904 56.6341 76.8711C57.9323 78.4518 58.7145 80.3926 58.8753 82.4317C59.1838 84.8488 58.9182 87.3046 58.0998 89.5999C57.2815 91.8951 55.9335 93.965 54.1653 95.6417H54.1353Z" fill="#FCFCFC"/>
<path d="M44.6053 41.8226C45.277 41.8233 45.9471 41.7562 46.6053 41.6226C51.7553 40.2726 54.9253 34.3626 53.4253 28.8826C52.2953 24.7126 49.4253 22.6526 45.1153 22.8826C40.8053 23.1126 38.1153 25.7626 36.4353 29.5726C35.7991 30.9125 35.5211 32.3944 35.6285 33.8738C35.7358 35.3532 36.2249 36.7795 37.0479 38.0135C37.8709 39.2475 38.9997 40.2471 40.3243 40.9147C41.6488 41.5823 43.1238 41.8951 44.6053 41.8226ZM45.8453 25.9926C46.4425 25.5401 47.1907 25.3345 47.9353 25.4182C48.6798 25.502 49.3636 25.8687 49.8453 26.4426C51.2522 27.9156 52.0181 29.8861 51.9753 31.9226C51.9576 33.1593 51.6498 34.3745 51.0766 35.4705C50.5034 36.5664 49.6809 37.5126 48.6753 38.2326C46.2053 39.9326 42.2553 39.7026 41.5653 35.3026C41.3445 33.5064 41.6278 31.6843 42.3837 30.04C43.1396 28.3958 44.3382 26.9943 45.8453 25.9926Z" fill="#FCFCFC"/>
<path d="M28.0354 15.3027C28.2754 15.9327 27.9454 16.1927 27.8154 16.5127C25.9854 20.8727 23.6254 25.0127 22.3354 29.6227C21.801 31.3361 21.5708 33.1299 21.6554 34.9227C21.7453 35.7161 21.715 36.5185 21.5654 37.3027C21.4254 37.8827 21.2054 38.3827 20.5654 38.5227C20.2695 38.5824 19.9625 38.5502 19.6854 38.4305C19.4084 38.3107 19.1746 38.1091 19.0154 37.8527C18.4214 37.0889 18.1168 36.1396 18.1554 35.1727C18.1554 31.6727 18.4854 28.2527 20.3354 25.1727C21.5606 22.7528 22.9785 20.4353 24.5754 18.2427C25.4534 16.9785 26.646 15.9652 28.0354 15.3027Z" fill="#FFF4DB"/>
<path d="M51.7053 103.562C51.7053 103.032 52.1653 102.852 52.4853 102.562C54.0953 101.312 55.6953 100.052 57.3353 98.8524C58.9599 97.6913 60.3737 96.2607 61.5153 94.6224C62.3553 93.3924 63.5153 93.0424 64.4553 93.6724C65.3953 94.3024 65.5353 95.5124 64.8153 96.7724C64.4259 97.5259 63.9043 98.2034 63.2753 98.7724C60.3853 101.142 57.2753 103.172 53.5153 103.772C53.2153 103.863 52.8999 103.891 52.5885 103.855C52.2772 103.819 51.9766 103.719 51.7053 103.562Z" fill="#FFF4DB"/>
<path d="M35.6253 9.99272C35.7253 11.8327 33.5453 14.4827 31.8153 14.6727C31.4789 14.7287 31.1334 14.6857 30.821 14.549C30.5085 14.4123 30.2425 14.1878 30.0553 13.9027C29.8358 13.5909 29.718 13.219 29.718 12.8377C29.718 12.4564 29.8358 12.0845 30.0553 11.7727C30.6929 10.9451 31.5674 10.3314 32.5625 10.0134C33.5576 9.69544 34.626 9.68823 35.6253 9.99272Z" fill="#FFF4DB"/>
<path d="M56.5754 36.4515C56.2868 36.0327 56.1019 35.5515 56.0359 35.0473C55.9698 34.5431 56.0245 34.0304 56.1954 33.5515C56.2582 33.2562 56.4327 32.9967 56.6824 32.8271C56.9321 32.6575 57.2377 32.591 57.5353 32.6415C58.2653 32.7215 58.5353 33.2615 58.5353 33.8915C58.5817 34.1892 58.5673 34.4933 58.4929 34.7853C58.4185 35.0773 58.2858 35.3512 58.1026 35.5904C57.9194 35.8297 57.6896 36.0293 57.4271 36.1773C57.1646 36.3253 56.8749 36.4186 56.5754 36.4515Z" fill="#FFF4DB"/>
</svg>
