<svg width="49" height="67" viewBox="0 0 49 67" fill="none" xmlns="http://www.w3.org/2000/svg">
<g style="mix-blend-mode:multiply" opacity="0.1">
<path d="M44.34 33.5863C45.2796 35.8017 45.7673 38.1825 45.7743 40.589C45.7813 42.9954 45.3076 45.3791 44.3809 47.6C42.1739 53.1329 38.567 57.4908 33.3202 60.3722C30.3723 62.007 27.1537 62.804 23.8278 63.2638C19.4278 63.8802 14.9588 63.8095 10.5805 63.0544C8.66676 62.7995 6.85931 62.0256 5.35409 60.8167C4.57629 60.2133 3.9572 59.4295 3.55039 58.5331C3.14359 57.6367 2.96131 56.6547 3.01932 55.672C3.18087 52.3015 4.46282 49.0813 6.66197 46.522C6.91205 46.196 7.2577 45.9563 7.65063 45.8363C8.04356 45.7163 8.46416 45.7221 8.85368 45.8527C10.5188 46.3348 12.142 46.9516 13.7071 47.697C16.4594 48.9632 19.5477 49.3038 22.5098 48.6677C22.9593 48.5707 23.4089 48.448 23.8585 48.305C25.2346 47.886 26.4877 47.1373 27.5089 46.1242C28.5301 45.111 29.2885 43.8639 29.7184 42.4911C30.684 39.6812 29.8206 37.234 28.2981 34.9146C27.2253 33.2848 25.9429 31.8492 24.0475 31.1851C22.7291 30.7437 21.3506 30.5076 19.9604 30.4852C17.7125 30.3881 15.4697 30.6078 13.2218 30.5567C12.4271 30.5289 11.6369 30.4263 10.8615 30.2502C10.2898 30.132 9.75675 29.8729 9.31066 29.4963C8.86457 29.1198 8.51958 28.6379 8.30703 28.0942C7.98713 27.3631 7.74235 26.6014 7.57645 25.8208C7.41304 25.0421 7.30041 24.2537 7.23927 23.4604C6.8791 18.6137 6.8791 13.7469 7.23927 8.9001C7.30569 7.82724 7.53558 6.76458 7.68885 5.69683C7.71398 5.40283 7.84386 5.12763 8.05484 4.92134C8.26581 4.71505 8.54386 4.59139 8.83835 4.57287C13.3393 3.63794 17.9015 3.47957 22.4689 3.33652C24.819 3.25989 27.164 3.42337 29.4681 3.33652C32.7173 3.44381 35.9257 3.29054 39.129 3.45402C40.6974 3.53066 40.7945 3.59197 40.9324 5.1655C41.1591 8.28095 41.0735 11.4113 40.677 14.5097C40.5135 15.9708 39.9464 16.4102 38.4546 16.497C36.3651 16.6247 34.3011 16.3029 32.2218 16.1854C30.3059 16.0781 28.3952 15.9197 26.4794 15.8073C25.6415 15.7562 25.3248 16.0679 25.2788 16.9006C25.2238 18.268 25.3077 19.6373 25.5291 20.9877C25.7232 22.2548 26.04 22.4898 27.2559 22.7401L28.5076 22.9955C30.8791 23.4207 33.2154 24.0235 35.4966 24.799C39.7931 26.3981 42.6337 29.4225 44.34 33.5863Z" fill="#FCFCFC"/>
<path d="M45.1473 31.8899C44.0239 29.5209 42.3744 27.4398 40.3245 25.8052C37.77 23.8894 34.8426 23.0464 31.8131 22.4027C30.7913 22.183 29.7388 22.1013 28.7477 21.8918C28.5996 21.8611 28.4565 21.8254 28.3135 21.7845V19.5826C28.3774 19.5358 28.4508 19.5038 28.5285 19.4888C28.6063 19.4738 28.6863 19.4761 28.7631 19.4957L33.172 19.5928C35.3153 19.6863 37.462 19.5147 39.5632 19.0819C40.2289 18.9636 40.8507 18.669 41.3638 18.2287C41.8768 17.7884 42.2624 17.2185 42.4804 16.5785C42.9788 15.1758 43.293 13.7144 43.4154 12.2309C43.6978 9.71555 43.5875 7.17159 43.0884 4.69015C42.931 4.01189 42.5712 3.39751 42.0566 2.92851C41.5419 2.45951 40.8969 2.15807 40.207 2.06418C39.5735 2.00798 38.9451 1.91091 38.3167 1.89558C35.7265 1.83428 33.1312 1.82406 30.5409 1.74232C25.5393 1.58395 20.5377 1.43578 15.5463 1.962C13.036 2.154 10.551 2.59555 8.12823 3.2801C7.5855 3.40232 7.09641 3.69571 6.73307 4.11699C6.36973 4.53828 6.15139 5.06517 6.11022 5.61997C6.00294 6.64175 5.94674 7.69418 5.84456 8.73128C5.40958 12.3192 5.29845 15.939 5.51248 19.5468C5.68224 21.7419 5.97906 23.9254 6.40143 26.0862C6.61601 27.1897 6.86634 28.2847 7.15243 29.3712C7.2961 30.0652 7.59566 30.7174 8.02847 31.2785C8.46127 31.8396 9.01599 32.295 9.65068 32.6102C10.3649 32.9144 11.1281 33.0874 11.9037 33.1211C13.6509 33.2744 15.4033 33.3868 17.1505 33.5503C19.3414 33.6684 21.4758 34.289 23.3885 35.3639C25.9429 36.8966 27.4756 39.0679 27.0669 42.1894C26.7757 44.5191 25.4525 47.1246 22.3207 47.7428C22.1045 47.7862 21.8863 47.8186 21.6668 47.8399C19.1081 48.0928 16.5266 47.703 14.1567 46.7057C12.5525 46.0569 11.0148 45.2343 9.32371 44.8052C8.82339 44.652 8.29277 44.6259 7.77984 44.7294C7.26692 44.8329 6.78789 45.0626 6.3861 45.3978C4.68404 46.7334 3.29782 48.4283 2.32638 50.3614C1.35494 52.2946 0.82224 54.4184 0.766318 56.5812C0.613051 60.0552 2.01289 62.6403 5.22127 64.2036C8.6138 65.8916 12.3355 66.8142 16.1237 66.9062C20.3982 66.9768 24.657 66.3716 28.7426 65.113C35.236 63.141 40.2274 59.1458 43.9109 53.475C47.5944 47.8041 48.4885 38.3731 45.1473 31.8899ZM33.3202 60.4077C30.3724 62.0426 27.1537 62.8396 23.8279 63.2994C19.426 63.9039 14.957 63.8212 10.5805 63.0541C8.66678 62.7993 6.85933 62.0254 5.35411 60.8164C4.57631 60.2131 3.95722 59.4293 3.55041 58.5329C3.14361 57.6365 2.96132 56.6545 3.01934 55.6718C3.18088 52.3013 4.46284 49.0811 6.66198 46.5218C6.91207 46.1958 7.25771 45.9561 7.65065 45.8361C8.04358 45.7161 8.46418 45.7218 8.8537 45.8525C10.5189 46.3346 12.142 46.9514 13.7071 47.6968C16.4594 48.963 19.5478 49.3036 22.5098 48.6675C22.9594 48.5704 23.4089 48.4478 23.8585 48.3048C25.2347 47.8857 26.4877 47.1371 27.5089 46.1239C28.5301 45.1108 29.2885 43.8636 29.7184 42.4908C30.684 39.681 29.8206 37.2338 28.2981 34.9144C27.2253 33.2846 25.9429 31.849 24.0475 31.1849C22.7291 30.7435 21.3506 30.5074 19.9604 30.4849C17.7125 30.3879 15.4697 30.6076 13.2218 30.5565C12.4271 30.5287 11.6369 30.426 10.8615 30.2499C10.2898 30.1317 9.75677 29.8726 9.31068 29.4961C8.86459 29.1196 8.5196 28.6377 8.30705 28.094C7.98715 27.3629 7.74237 26.6011 7.57647 25.8205C7.41306 25.0419 7.30043 24.2535 7.23929 23.4602C6.87912 18.6135 6.87912 13.7466 7.23929 8.89988C7.30571 7.82701 7.5356 6.76436 7.68887 5.6966C7.714 5.4026 7.84388 5.1274 8.05485 4.92111C8.26583 4.71482 8.54388 4.59116 8.83837 4.57264C13.3393 3.63772 17.9015 3.47934 22.4689 3.33629C24.819 3.25966 27.164 3.42314 29.4681 3.33629C32.7173 3.44358 35.9257 3.29031 39.129 3.4538C40.6974 3.53043 40.7945 3.59174 40.9324 5.16528C41.1591 8.28072 41.0735 11.411 40.677 14.5094C40.5135 15.9706 39.9464 16.4099 38.4546 16.4968C36.3651 16.6245 34.3011 16.3027 32.2218 16.1852C30.3059 16.0779 28.3952 15.9195 26.4794 15.8071C25.6415 15.756 25.3248 16.0677 25.2788 16.9004C25.2238 18.2677 25.3077 19.6371 25.5291 20.9875C25.7233 22.2545 26.04 22.4895 27.2559 22.7399L28.5076 22.9953C30.8792 23.4205 33.2154 24.0233 35.4966 24.7987C39.8085 26.3723 42.649 29.3968 44.3554 33.5605C45.295 35.776 45.7826 38.1568 45.7896 40.5632C45.7966 42.9697 45.3229 45.3533 44.3963 47.5742C42.1739 53.1327 38.567 57.4906 33.3202 60.3924V60.4077Z" fill="#FCFCFC"/>
<path d="M23.3833 50.7928C23.1708 51.0242 22.9148 51.2114 22.6299 51.3438C22.345 51.4761 22.0368 51.5511 21.7229 51.5643C19.0655 51.9243 16.363 51.7506 13.7735 51.0534C12.4699 50.8087 11.1994 50.4127 9.9878 49.8732C9.49247 49.6298 9.02915 49.3261 8.6084 48.9689C8.44605 48.8606 8.33265 48.6929 8.29254 48.5019C8.25242 48.3108 8.28878 48.1117 8.39382 47.9472C8.6646 47.5282 9.06309 47.5947 9.4156 47.8143C12.4043 49.6178 15.7353 50.144 19.1225 50.4761C20.0166 50.5629 20.9106 50.6447 21.7996 50.7877C22.3309 50.8439 22.8418 50.7213 23.3833 50.7928Z" fill="#FCFCFC"/>
<path d="M10.1003 21.0386C9.73757 20.962 9.73757 20.6759 9.66605 20.4665C8.97738 18.2178 8.62278 15.8803 8.61361 13.5286C8.58807 12.798 8.61361 12.0623 8.64938 11.3266C8.6625 11.019 8.75017 10.7192 8.90482 10.453C8.96472 10.3111 9.06711 10.1911 9.19793 10.1097C9.32874 10.0283 9.48156 9.98938 9.63539 9.99833C9.77906 10.0114 9.91558 10.0669 10.0275 10.1579C10.1394 10.2489 10.2217 10.3712 10.2638 10.5092C10.3999 10.8323 10.4661 11.1805 10.4579 11.531C10.4579 14.6372 10.4579 17.7383 10.1616 20.8343C10.1473 20.9041 10.1268 20.9725 10.1003 21.0386Z" fill="#FCFCFC"/>
<path d="M37.2898 28.7221C36.6341 28.8095 35.9669 28.7323 35.3485 28.4973C34.0048 28.1551 32.6714 27.777 31.338 27.3989C30.4337 27.1435 29.9892 26.556 30.2038 25.9429C30.4184 25.3298 31.1541 25.0693 31.9868 25.3911C33.6778 26.0502 35.374 26.7195 36.7227 28.0018C36.8686 28.146 37.0067 28.2977 37.1366 28.4565C37.1929 28.5419 37.2441 28.6306 37.2898 28.7221Z" fill="#FCFCFC"/>
<path d="M10.4528 25.9379C9.69667 25.6059 9.12447 24.2316 9.43101 23.5112C9.47243 23.4165 9.5373 23.334 9.61949 23.2714C9.70168 23.2087 9.79847 23.1681 9.90074 23.1533C10.003 23.1384 10.1074 23.1499 10.2039 23.1866C10.3005 23.2233 10.3862 23.2841 10.4528 23.3631C10.9177 23.8535 10.8973 25.376 10.4528 25.9379Z" fill="#FCFCFC"/>
</g>
<path d="M45.3618 32.0536C46.3014 34.269 46.789 36.6498 46.796 39.0563C46.803 41.4627 46.3293 43.8464 45.4026 46.0673C43.1956 51.6002 39.5887 55.9581 34.3419 58.8395C31.3941 60.4743 28.1755 61.2713 24.8496 61.7311C20.4496 62.3475 15.9805 62.2768 11.6022 61.5217C9.68849 61.2668 7.88104 60.4929 6.37582 59.284C5.59802 58.6806 4.97893 57.8968 4.57212 57.0004C4.16532 56.104 3.98303 55.122 4.04105 54.1393C4.20259 50.7688 5.48455 47.5486 7.68369 44.9893C7.93378 44.6633 8.27942 44.4236 8.67236 44.3036C9.06529 44.1836 9.48589 44.1894 9.87541 44.32C11.5406 44.8021 13.1637 45.4189 14.7289 46.1643C17.4811 47.4305 20.5695 47.7711 23.5315 47.135C23.9811 47.0379 24.4306 46.9153 24.8802 46.7723C26.2564 46.3532 27.5094 45.6046 28.5306 44.5914C29.5518 43.5783 30.3103 42.3312 30.7401 40.9584C31.7057 38.1485 30.8423 35.7013 29.3199 33.3819C28.247 31.7521 26.9647 30.3165 25.0693 29.6524C23.7508 29.211 22.3723 28.9749 20.9821 28.9525C18.7342 28.8554 16.4914 29.0751 14.2435 29.024C13.4489 28.9962 12.6586 28.8936 11.8832 28.7174C11.3116 28.5992 10.7785 28.3401 10.3324 27.9636C9.8863 27.5871 9.54131 27.1052 9.32876 26.5615C9.00886 25.8304 8.76408 25.0686 8.59818 24.288C8.43477 23.5094 8.32214 22.721 8.261 21.9277C7.90083 17.081 7.90083 12.2142 8.261 7.36739C8.32742 6.29452 8.55731 5.23187 8.71058 4.16411C8.73571 3.87011 8.86559 3.59491 9.07656 3.38862C9.28754 3.18233 9.56559 3.05867 9.86008 3.04016C14.361 2.10523 18.9233 1.94685 23.4906 1.8038C25.8407 1.72717 28.1857 1.89066 30.4898 1.8038C33.739 1.91109 36.9474 1.75782 40.1507 1.92131C41.7191 1.99794 41.8162 2.05925 41.9541 3.63279C42.1808 6.74824 42.0953 9.87854 41.6987 12.977C41.5352 14.4381 40.9681 14.8775 39.4763 14.9643C37.3868 15.092 35.3228 14.7702 33.2435 14.6527C31.3277 14.5454 29.4169 14.387 27.5011 14.2746C26.6632 14.2235 26.3465 14.5352 26.3005 15.3679C26.2455 16.7352 26.3294 18.1046 26.5508 19.455C26.745 20.722 27.0617 20.957 28.2776 21.2074L29.5293 21.4628C31.9009 21.888 34.2371 22.4908 36.5183 23.2663C40.8149 24.8653 43.6554 27.8898 45.3618 32.0536Z" fill="#FECB2F"/>
<path d="M46.169 30.3572C45.0457 27.9882 43.3961 25.907 41.3462 24.2725C38.7918 22.3567 35.8644 21.5137 32.8348 20.87C31.813 20.6503 30.7606 20.5685 29.7695 20.3591C29.6213 20.3284 29.4783 20.2927 29.3352 20.2518V18.0499C29.3991 18.0031 29.4725 17.9711 29.5503 17.9561C29.628 17.941 29.7081 17.9434 29.7848 17.963L34.1938 18.0601C36.3371 18.1535 38.4837 17.9819 40.585 17.5492C41.2506 17.4309 41.8724 17.1362 42.3855 16.6959C42.8986 16.2556 43.2842 15.6858 43.5022 15.0458C44.0005 13.6431 44.3148 12.1817 44.4371 10.6982C44.7195 8.18283 44.6092 5.63887 44.1101 3.15743C43.9528 2.47917 43.5929 1.86479 43.0783 1.39579C42.5637 0.926795 41.9186 0.62535 41.2287 0.531462C40.5952 0.475264 39.9668 0.378194 39.3384 0.362868C36.7482 0.301561 34.1529 0.291349 31.5627 0.209607C26.5611 0.0512313 21.5595 -0.0969303 16.5681 0.429286C14.0577 0.62129 11.5728 1.06283 9.14996 1.74738C8.60723 1.8696 8.11814 2.16299 7.7548 2.58428C7.39146 3.00557 7.17312 3.53246 7.13195 4.08725C7.02466 5.10903 6.96846 6.16146 6.86629 7.19857C6.43131 10.7865 6.32017 14.4063 6.53421 18.0141C6.70397 20.2092 7.00079 22.3927 7.42316 24.5535C7.63774 25.657 7.88806 26.752 8.17416 27.8385C8.31783 28.5324 8.61739 29.1846 9.05019 29.7458C9.483 30.3069 10.0377 30.7623 10.6724 31.0775C11.3867 31.3817 12.1499 31.5547 12.9254 31.5884C14.6727 31.7417 16.425 31.8541 18.1723 32.0176C20.3632 32.1357 22.4975 32.7563 24.4102 33.8312C26.9647 35.3639 28.4973 37.5352 28.0886 40.6567C27.7974 42.9864 26.4742 45.5919 23.3425 46.2101C23.1263 46.2535 22.908 46.2859 22.6885 46.3071C20.1298 46.5601 17.5484 46.1703 15.1785 45.173C13.5743 44.5241 12.0365 43.7016 10.3454 43.2725C9.84512 43.1192 9.3145 43.0932 8.80157 43.1967C8.28865 43.3001 7.80961 43.5299 7.40783 43.8651C5.70577 45.2007 4.31955 46.8956 3.34811 48.8287C2.37667 50.7619 1.84397 52.8857 1.78805 55.0485C1.63478 58.5225 3.03462 61.1076 6.243 62.6709C9.63553 64.3589 13.3573 65.2815 17.1454 65.3735C21.4199 65.4441 25.6787 64.8389 29.7643 63.5803C36.2577 61.6083 41.2491 57.6131 44.9326 51.9422C48.6162 46.2714 49.5102 36.8404 46.169 30.3572ZM34.3419 58.875C31.3941 60.5099 28.1755 61.3069 24.8496 61.7667C20.4477 62.3712 15.9787 62.2885 11.6022 61.5214C9.6885 61.2666 7.88106 60.4927 6.37584 59.2837C5.59804 58.6804 4.97895 57.8966 4.57214 57.0002C4.16533 56.1038 3.98305 55.1217 4.04107 54.1391C4.20261 50.7686 5.48457 47.5484 7.68371 44.9891C7.9338 44.6631 8.27944 44.4234 8.67238 44.3034C9.06531 44.1834 9.48591 44.1891 9.87542 44.3198C11.5406 44.8019 13.1638 45.4187 14.7289 46.1641C17.4811 47.4303 20.5695 47.7709 23.5315 47.1348C23.9811 47.0377 24.4307 46.9151 24.8802 46.7721C26.2564 46.353 27.5094 45.6044 28.5306 44.5912C29.5518 43.578 30.3103 42.3309 30.7401 40.9581C31.7057 38.1482 30.8423 35.7011 29.3199 33.3816C28.247 31.7519 26.9647 30.3163 25.0693 29.6521C23.7508 29.2107 22.3724 28.9747 20.9822 28.9522C18.7342 28.8552 16.4914 29.0748 14.2435 29.0238C13.4489 28.996 12.6586 28.8933 11.8832 28.7172C11.3116 28.599 10.7785 28.3399 10.3324 27.9634C9.88631 27.5869 9.54133 27.1049 9.32878 26.5613C9.00888 25.8302 8.7641 25.0684 8.5982 24.2878C8.43479 23.5092 8.32216 22.7207 8.26102 21.9275C7.90085 17.0807 7.90085 12.2139 8.26102 7.36716C8.32744 6.29429 8.55733 5.23164 8.7106 4.16388C8.73573 3.86988 8.8656 3.59469 9.07658 3.3884C9.28756 3.18211 9.56561 3.05845 9.8601 3.03993C14.361 2.105 18.9233 1.94663 23.4906 1.80358C25.8407 1.72695 28.1857 1.89043 30.4898 1.80358C33.7391 1.91087 36.9474 1.7576 40.1507 1.92108C41.7192 1.99771 41.8162 2.05902 41.9542 3.63256C42.1808 6.74801 42.0953 9.87831 41.6987 12.9767C41.5352 14.4379 40.9681 14.8772 39.4763 14.9641C37.3868 15.0918 35.3228 14.7699 33.2435 14.6524C31.3277 14.5452 29.4169 14.3868 27.5011 14.2744C26.6632 14.2233 26.3465 14.5349 26.3005 15.3677C26.2456 16.735 26.3294 18.1044 26.5508 19.4548C26.745 20.7218 27.0617 20.9568 28.2777 21.2071L29.5293 21.4626C31.9009 21.8878 34.2371 22.4906 36.5183 23.266C40.8302 24.8396 43.6707 27.864 45.3771 32.0278C46.3167 34.2432 46.8043 36.6241 46.8113 39.0305C46.8184 41.437 46.3446 43.8206 45.418 46.0415C43.1956 51.6 39.5887 55.9578 34.3419 58.8597V58.875Z" fill="#FCFCFC"/>
<path d="M24.4052 49.2601C24.1927 49.4915 23.9366 49.6787 23.6517 49.8111C23.3668 49.9434 23.0586 50.0184 22.7448 50.0316C20.0874 50.3915 17.3848 50.2179 14.7953 49.5207C13.4918 49.276 12.2213 48.8799 11.0096 48.3405C10.5143 48.0971 10.051 47.7934 9.63025 47.4362C9.4679 47.3279 9.3545 47.1602 9.31439 46.9692C9.27427 46.7781 9.31063 46.579 9.41567 46.4145C9.68645 45.9955 10.0849 46.0619 10.4375 46.2816C13.4262 48.0851 16.7572 48.6113 20.1443 48.9434C21.0384 49.0302 21.9325 49.1119 22.8214 49.255C23.3527 49.3112 23.8636 49.1886 24.4052 49.2601Z" fill="#FFF4DB"/>
<path d="M11.122 19.5059C10.7593 19.4293 10.7593 19.1432 10.6878 18.9337C9.99911 16.6851 9.64451 14.3475 9.63534 11.9959C9.60979 11.2653 9.63534 10.5296 9.6711 9.79393C9.68423 9.48633 9.77189 9.18652 9.92655 8.92031C9.98644 8.77834 10.0888 8.65841 10.2197 8.57699C10.3505 8.49557 10.5033 8.45666 10.6571 8.46562C10.8008 8.47864 10.9373 8.53421 11.0492 8.62521C11.1612 8.71622 11.2434 8.83852 11.2855 8.9765C11.4216 9.29957 11.4878 9.6478 11.4796 9.99828C11.4796 13.1045 11.4796 16.2056 11.1833 19.3016C11.1691 19.3714 11.1485 19.4398 11.122 19.5059Z" fill="#FFF4DB"/>
<path d="M38.3116 27.1894C37.6558 27.2768 36.9886 27.1995 36.3702 26.9646C35.0265 26.6223 33.6931 26.2443 32.3597 25.8662C31.4554 25.6108 31.011 25.0233 31.2255 24.4102C31.4401 23.7971 32.1758 23.5366 33.0085 23.8584C34.6996 24.5175 36.3957 25.1867 37.7445 26.4691C37.8903 26.6132 38.0285 26.765 38.1583 26.9238C38.2147 27.0092 38.2658 27.0979 38.3116 27.1894Z" fill="#FFF4DB"/>
<path d="M11.4746 24.4052C10.7185 24.0731 10.1463 22.6989 10.4529 21.9785C10.4943 21.8838 10.5592 21.8013 10.6413 21.7387C10.7235 21.676 10.8203 21.6354 10.9226 21.6206C11.0249 21.6057 11.1292 21.6172 11.2258 21.6539C11.3224 21.6906 11.408 21.7513 11.4746 21.8303C11.9395 22.3208 11.9191 23.8432 11.4746 24.4052Z" fill="#FFF4DB"/>
</svg>
