<svg width="50" height="69" viewBox="0 0 50 69" fill="none" xmlns="http://www.w3.org/2000/svg">
<g style="mix-blend-mode:multiply" opacity="0.1">
<path d="M48.3672 29.4364C48.4142 34.1302 48.4611 38.8554 48.2108 43.5596C47.9239 48.9679 47.7988 54.3763 47.6058 59.7898C47.5693 60.7234 47.6527 61.6569 47.6058 62.5905C47.4806 65.0156 46.1194 66.6115 44.002 67.4877C41.5682 68.4532 38.9146 68.7258 36.3354 68.2752C33.081 67.7797 30.974 66.0482 30.0509 62.7782C29.0391 59.212 28.2638 55.5829 27.7301 51.9146C27.365 49.4008 26.9425 46.8974 26.687 44.368C26.6593 44.1924 26.6228 44.0183 26.5775 43.8465C21.6712 44.465 16.7246 44.7056 11.7815 44.5662C9.51043 44.4793 7.25509 44.1506 5.05369 43.5857C4.09228 43.367 3.21057 42.8854 2.50698 42.1947C1.80338 41.504 1.30558 40.6314 1.06915 39.6742C0.689085 38.4366 0.512937 37.1455 0.547617 35.8513C0.715659 30.3945 1.29798 24.9584 2.28955 19.5898C2.69812 16.9873 3.29599 14.418 4.07841 11.9024C4.47784 10.6976 4.98945 9.53294 5.60651 8.42375C6.03562 7.6575 6.61466 6.98553 7.30909 6.4479C8.00351 5.91028 8.79911 5.51802 9.64842 5.29453C12.3813 4.47572 15.1193 3.66734 17.993 3.55261C18.9956 3.52104 19.9938 3.69866 20.924 4.07414C21.36 4.27808 21.742 4.58163 22.0391 4.9603C22.3363 5.33897 22.5403 5.78217 22.6347 6.25416C23.031 7.58929 22.7546 8.90877 22.4938 10.2126C21.8367 13.5191 21.1378 16.8205 20.6998 20.1687C20.3648 22.5106 20.2183 24.8755 20.2617 27.2408C20.8219 27.4584 21.4137 27.5834 22.014 27.611C23.8077 27.8846 25.6295 27.9215 27.4328 27.7206C28.4759 27.5589 28.7314 27.3242 28.7418 26.2551C28.7418 23.1258 28.9557 19.9653 29.2269 16.8361C29.5189 13.4305 30.03 10.0562 30.5881 6.68703C30.9897 4.22538 32.403 2.92676 34.7604 2.38958C36.6484 1.99915 38.5907 1.94619 40.4973 2.23312C41.5403 2.3635 42.5834 2.5669 43.6265 2.69729C44.9444 2.85227 46.1597 3.48499 47.0425 4.47572C47.8495 5.42163 48.2769 6.63326 48.2421 7.87613C48.3151 9.87362 48.2421 11.8815 48.3203 13.879C48.5289 19.0579 48.3151 24.2471 48.3672 29.4364ZM45.6187 14.4214C45.6379 11.7327 45.516 9.04484 45.2537 6.3689C45.1128 4.98161 44.8521 4.7052 43.4909 4.43921C41.9012 4.0995 40.2917 3.86085 38.6719 3.72471C37.0084 3.54181 35.325 3.73063 33.7434 4.27754C33.3808 4.40328 33.06 4.62657 32.8162 4.92285C32.5723 5.21914 32.4149 5.57693 32.3613 5.95689C31.5333 10.7191 30.9622 15.5224 30.6507 20.3461C30.5046 22.4322 30.4733 24.5183 30.1604 26.5784C29.9257 28.0856 29.4668 28.602 27.9648 28.9045C24.9489 29.5156 21.8263 29.336 18.9005 28.3829C18.5624 28.2658 18.2589 28.0661 18.0176 27.802C17.7762 27.5379 17.6046 27.2177 17.5184 26.8705C17.3507 26.2241 17.2943 25.5539 17.3515 24.8886C17.4028 22.6209 17.5769 20.3576 17.873 18.1087C18.3458 14.3881 19.1309 10.714 20.2199 7.12512C20.2949 6.8862 20.3421 6.63946 20.3608 6.38975C20.3874 6.27227 20.3872 6.15032 20.3603 6.03292C20.3333 5.91551 20.2804 5.80567 20.2052 5.71152C20.1301 5.61736 20.0348 5.54131 19.9263 5.489C19.8178 5.43668 19.6989 5.40943 19.5785 5.40927C18.6024 5.29894 17.6156 5.32703 16.6474 5.49272C14.2885 5.91164 11.9684 6.52568 9.711 7.32852C9.13636 7.51046 8.6033 7.80406 8.14239 8.19248C7.68148 8.5809 7.30178 9.0565 7.02509 9.59199C5.90608 11.7283 5.12828 14.0265 4.7199 16.4032C3.7098 21.2365 3.01297 26.13 2.63376 31.0532C2.43822 33.067 2.36507 35.0908 2.41472 37.1134C2.51902 39.3404 3.50994 40.6964 6.19063 41.1866C7.52433 41.4306 8.87674 41.558 10.2325 41.5673C15.9434 41.6247 21.6542 41.7186 27.3493 41.2648C27.8709 41.2179 28.1734 41.4317 28.2151 41.9846C28.2516 42.3966 28.3194 42.8086 28.3768 43.2206C29.0339 48.1126 29.5711 53.0255 30.6194 57.8549C31.0093 59.6876 31.4968 61.4981 32.0797 63.2789C32.2147 63.838 32.533 64.3359 32.9839 64.6932C33.4347 65.0504 33.9922 65.2466 34.5674 65.2503C36.8139 65.4358 39.0755 65.29 41.2796 64.8174C43.4804 64.3428 44.2575 63.524 44.487 61.2866C44.9566 57.3054 45.1917 53.3001 45.1911 49.2913C45.1181 43.6222 45.0816 37.9531 45.4414 32.4196C45.5092 26.3437 45.5874 20.3826 45.6187 14.4214Z" fill="#40C7F4"/>
<path d="M45.2538 6.36862C45.5162 9.04456 45.638 11.7324 45.6189 14.4211C45.5876 20.3823 45.5093 26.3434 45.452 32.435C45.0921 37.9685 45.1286 43.6376 45.2016 49.3067C45.2022 53.3154 44.9671 57.3208 44.4976 61.302C44.2681 63.5394 43.491 64.3582 41.2901 64.8328C39.0861 65.3054 36.8245 65.4512 34.578 65.2657C34.0027 65.2619 33.4453 65.0658 32.9944 64.7085C32.5436 64.3513 32.2253 63.8534 32.0902 63.2943C31.5073 61.5135 31.0199 59.703 30.6299 57.8703C29.5869 53.0409 29.0653 48.128 28.3873 43.236C28.33 42.824 28.2622 42.4119 28.2256 41.9999C28.1839 41.4471 27.8971 41.2333 27.3599 41.2802C21.6647 41.734 15.9539 41.6401 10.2431 41.5827C8.8873 41.5733 7.53489 41.446 6.20119 41.202C3.5205 40.7117 2.55044 39.3558 2.42527 37.1288C2.37153 35.1011 2.4412 33.0721 2.63389 31.0529C3.0131 26.1298 3.70993 21.2363 4.72003 16.403C5.12031 14.0163 5.89291 11.7074 7.00957 9.56042C7.28626 9.02493 7.66596 8.54933 8.12687 8.16091C8.58778 7.77249 9.12084 7.47889 9.69548 7.29695C11.9528 6.49411 14.2729 5.88007 16.6319 5.46114C17.6001 5.29546 18.5869 5.26737 19.5629 5.3777C19.6834 5.37786 19.8023 5.4051 19.9108 5.45742C20.0193 5.50974 20.1146 5.5858 20.1897 5.67995C20.2648 5.7741 20.3178 5.88395 20.3447 6.00135C20.3717 6.11875 20.3718 6.24071 20.3452 6.35819C20.3266 6.60789 20.2794 6.85463 20.2044 7.09355C19.1154 10.6824 18.3303 14.3566 17.8575 18.0771C17.5614 20.326 17.3873 22.5893 17.336 24.8571C17.2787 25.5224 17.3352 26.1925 17.5029 26.8389C17.5891 27.1861 17.7607 27.5063 18.002 27.7705C18.2434 28.0346 18.5469 28.2342 18.8849 28.3513C21.8108 29.3044 24.9334 29.4841 27.9492 28.8729C29.4513 28.5704 29.9102 28.0541 30.1449 26.5468C30.4578 24.4607 30.4891 22.3746 30.6351 20.3145C30.953 15.5011 31.5293 10.7082 32.3614 5.95661C32.4173 5.57362 32.5785 5.2137 32.8272 4.91713C33.0759 4.62055 33.4022 4.399 33.7696 4.27726C35.3512 3.73036 37.0346 3.54154 38.6981 3.72444C40.3179 3.86058 41.9274 4.09922 43.5171 4.43894C44.8783 4.70492 45.113 4.98133 45.2538 6.36862Z" fill="#40C7F4"/>
<path d="M8.12555 13.9883C8.22878 14.2936 8.25388 14.6199 8.19857 14.9375C8.10991 17.8946 7.70833 20.8256 7.41105 23.7619C7.21808 25.6446 7.23373 27.5482 6.88952 29.4153C6.82526 29.8488 6.7079 30.2726 6.54009 30.6774C6.47875 30.845 6.36934 30.9909 6.22555 31.0966C6.08177 31.2024 5.90999 31.2634 5.73171 31.272C5.55275 31.2672 5.37894 31.2111 5.23099 31.1103C5.08304 31.0095 4.96719 30.8683 4.89725 30.7035C4.72511 30.3691 4.62055 30.004 4.58954 29.6291C4.47537 28.718 4.49999 27.7948 4.66256 26.8911C5.33012 23.5689 5.86209 20.2154 6.7487 16.9402C6.95961 16.0916 7.25669 15.2667 7.63531 14.4785C7.70833 14.3064 7.7657 14.0561 8.12555 13.9883Z" fill="#40C7F4"/>
<path d="M34.4995 59.6853C33.978 59.7218 33.978 59.3724 33.8946 59.1638C32.9289 56.6571 32.1702 54.0756 31.6259 51.4451C31.459 50.668 31.3182 49.8805 31.1774 49.1138C31.0955 48.7236 31.108 48.3195 31.2139 47.9351C31.2523 47.7397 31.351 47.5613 31.4959 47.4247C31.6409 47.2882 31.8249 47.2004 32.0222 47.1737C32.2227 47.1452 32.427 47.1802 32.6066 47.2738C32.7862 47.3673 32.932 47.5147 33.0236 47.6952C33.2036 48.0021 33.3305 48.3371 33.3991 48.6861C34.1231 51.6643 34.5218 54.7123 34.5882 57.7765C34.5934 58.3867 34.5308 59.0282 34.4995 59.6853Z" fill="#40C7F4"/>
<path d="M33.4044 13.8632C33.2022 12.2719 33.1655 10.6639 33.2949 9.06506C33.3216 8.56773 33.3826 8.07284 33.4774 7.5839C33.4873 7.46312 33.5221 7.34571 33.5797 7.23908C33.6373 7.13246 33.7164 7.03894 33.812 6.96444C33.9076 6.88993 34.0176 6.83607 34.135 6.80625C34.2525 6.77642 34.3748 6.77129 34.4944 6.79117C34.6106 6.79996 34.7238 6.83258 34.8269 6.88697C34.93 6.94137 35.0208 7.01638 35.0937 7.10735C35.1666 7.19833 35.22 7.30333 35.2506 7.41581C35.2811 7.5283 35.2883 7.64587 35.2715 7.76122C35.0655 9.80624 34.5375 11.8058 33.7069 13.6859C33.6964 13.7432 33.5921 13.7641 33.4044 13.8632Z" fill="#40C7F4"/>
<path d="M9.64314 9.43018C9.91672 10.1203 9.91672 10.8888 9.64314 11.5789C9.51797 11.944 9.27807 12.2047 8.86084 12.1369C8.44361 12.0691 8.29758 11.7145 8.30801 11.3025C8.33409 10.4055 8.92864 9.53448 9.64314 9.43018Z" fill="#40C7F4"/>
</g>
<path d="M49.4103 27.872C49.4573 32.5658 49.5042 37.2909 49.2539 41.9952C48.967 47.4035 48.8418 52.8118 48.6489 58.2254C48.6124 59.1589 48.6958 60.0924 48.6489 61.026C48.5237 63.4511 47.1625 65.047 45.0451 65.9232C42.6113 66.8887 39.9577 67.1613 37.3785 66.7107C34.1241 66.2153 32.0171 64.4838 31.094 61.2137C30.0822 57.6476 29.3069 54.0185 28.7732 50.3502C28.4081 47.8364 27.9856 45.333 27.7301 42.8035C27.7024 42.6279 27.6659 42.4539 27.6206 42.282C22.7143 42.9005 17.7677 43.1411 12.8246 43.0017C10.5535 42.9148 8.29818 42.5862 6.09678 42.0212C5.13537 41.8025 4.25366 41.321 3.55007 40.6303C2.84647 39.9396 2.34867 39.0669 2.11224 38.1097C1.73218 36.8722 1.55603 35.581 1.59071 34.2869C1.75875 28.8301 2.34107 23.3939 3.33264 18.0254C3.74121 15.4228 4.33909 12.8535 5.12151 10.3379C5.52093 9.13314 6.03254 7.96849 6.64961 6.85929C7.07871 6.09305 7.65775 5.42107 8.35218 4.88345C9.04661 4.34583 9.8422 3.95357 10.6915 3.73008C13.4244 2.91127 16.1624 2.10289 19.0361 1.98815C20.0387 1.95659 21.0369 2.13421 21.9671 2.50969C22.4031 2.71363 22.7851 3.01717 23.0822 3.39584C23.3794 3.77452 23.5833 4.21772 23.6777 4.6897C24.0741 6.02484 23.7977 7.34432 23.5369 8.64816C22.8798 11.9547 22.1809 15.256 21.7428 18.6043C21.4079 20.9461 21.2614 23.311 21.3048 25.6763C21.865 25.8939 22.4568 26.019 23.0571 26.0466C24.8508 26.3202 26.6726 26.357 28.4759 26.1561C29.5189 25.9944 29.7745 25.7598 29.7849 24.6906C29.7849 21.5614 29.9988 18.4009 30.27 15.2717C30.562 11.866 31.0731 8.4917 31.6312 5.12258C32.0327 2.66093 33.4461 1.3623 35.8035 0.825122C37.6915 0.434698 39.6338 0.381733 41.5403 0.668668C42.5834 0.799052 43.6265 1.00245 44.6696 1.13283C45.9875 1.28782 47.2028 1.92054 48.0856 2.91127C48.8926 3.85718 49.32 5.0688 49.2851 6.31168C49.3582 8.30916 49.2852 10.3171 49.3634 12.3146C49.572 17.4934 49.3582 22.6827 49.4103 27.872ZM46.6618 12.857C46.681 10.1682 46.5591 7.48039 46.2968 4.80444C46.1559 3.41716 45.8952 3.14074 44.534 2.87476C42.9443 2.53504 41.3348 2.2964 39.715 2.16026C38.0515 1.97736 36.3681 2.16618 34.7865 2.71309C34.4239 2.83882 34.1031 3.06212 33.8593 3.3584C33.6154 3.65469 33.458 4.01248 33.4044 4.39243C32.5764 9.15465 32.0053 13.958 31.6938 18.7816C31.5477 20.8677 31.5164 22.9539 31.2035 25.014C30.9688 26.5212 30.5099 27.0375 29.0078 27.34C25.992 27.9512 22.8694 27.7715 19.9436 26.8185C19.6055 26.7014 19.302 26.5017 19.0606 26.2376C18.8193 25.9734 18.6477 25.6532 18.5615 25.306C18.3938 24.6597 18.3373 23.9895 18.3946 23.3242C18.4459 21.0564 18.62 18.7931 18.9161 16.5442C19.3889 12.8237 20.174 9.14953 21.263 5.56067C21.338 5.32175 21.3852 5.07501 21.4038 4.8253C21.4304 4.70782 21.4303 4.58587 21.4034 4.46846C21.3764 4.35106 21.3234 4.24122 21.2483 4.14706C21.1732 4.05291 21.0779 3.97686 20.9694 3.92454C20.8609 3.87222 20.742 3.84497 20.6215 3.84482C19.6455 3.73448 18.6587 3.76258 17.6905 3.92827C15.3316 4.34719 13.0114 4.96123 10.7541 5.76407C10.1795 5.94601 9.64639 6.23961 9.18548 6.62803C8.72457 7.01645 8.34487 7.49205 8.06818 8.02754C6.94917 10.1638 6.17137 12.462 5.76299 14.8388C4.75289 19.6721 4.05606 24.5656 3.67685 29.4887C3.48131 31.5025 3.40816 33.5263 3.45781 35.549C3.56211 37.7759 4.55303 39.1319 7.23373 39.6222C8.56742 39.8661 9.91983 39.9935 11.2756 40.0029C16.9864 40.0603 22.6973 40.1541 28.3924 39.7004C28.914 39.6535 29.2165 39.8673 29.2582 40.4201C29.2947 40.8321 29.3625 41.2441 29.4199 41.6562C30.077 46.5482 30.6142 51.461 31.6625 56.2904C32.0524 58.1231 32.5399 59.9337 33.1228 61.7144C33.2578 62.2736 33.5761 62.7715 34.027 63.1287C34.4778 63.486 35.0353 63.6821 35.6105 63.6858C37.857 63.8714 40.1186 63.7255 42.3226 63.253C44.5235 62.7784 45.3006 61.9595 45.5301 59.7222C45.9997 55.741 46.2348 51.7356 46.2342 47.7268C46.1612 42.0577 46.1246 36.3886 46.4845 30.8552C46.5523 24.7793 46.6305 18.8181 46.6618 12.857Z" fill="#FCFCFC"/>
<path d="M46.2966 4.80417C46.559 7.48011 46.6809 10.168 46.6617 12.8567C46.6304 18.8178 46.5522 24.779 46.4948 30.8705C46.135 36.404 46.1715 42.0731 46.2445 47.7422C46.2451 51.751 46.01 55.7563 45.5404 59.7375C45.3109 61.9749 44.5338 62.7937 42.333 63.2683C40.1289 63.7409 37.8673 63.8868 35.6208 63.7012C35.0456 63.6975 34.4881 63.5014 34.0373 63.1441C33.5864 62.7868 33.2681 62.289 33.1331 61.7298C32.5502 59.9491 32.0627 58.1385 31.6728 56.3058C30.6297 51.4764 30.1082 46.5635 29.4302 41.6715C29.3728 41.2595 29.305 40.8475 29.2685 40.4355C29.2268 39.8827 28.9399 39.6688 28.4027 39.7158C22.7076 40.1695 16.9968 40.0756 11.2859 40.0183C9.93014 40.0089 8.57774 39.8815 7.24404 39.6375C4.56334 39.1473 3.59329 37.7913 3.46812 35.5643C3.41438 33.5367 3.48404 31.5076 3.67673 29.4885C4.05595 24.5653 4.75278 19.6718 5.76288 14.8385C6.16316 12.4519 6.93575 10.1429 8.05242 7.99596C8.32911 7.46047 8.7088 6.98488 9.16972 6.59646C9.63063 6.20804 10.1637 5.91444 10.7383 5.7325C12.9957 4.92966 15.3158 4.31561 17.6748 3.89669C18.643 3.731 19.6297 3.70292 20.6058 3.81325C20.7262 3.81341 20.8451 3.84065 20.9536 3.89297C21.0621 3.94529 21.1574 4.02134 21.2326 4.1155C21.3077 4.20965 21.3607 4.31949 21.3876 4.4369C21.4145 4.5543 21.4147 4.67625 21.3881 4.79373C21.3695 5.04344 21.3222 5.29018 21.2473 5.5291C20.1582 9.11796 19.3732 12.7921 18.9004 16.5126C18.6042 18.7616 18.4301 21.0249 18.3788 23.2926C18.3216 23.9579 18.378 24.6281 18.5457 25.2744C18.632 25.6217 18.8035 25.9419 19.0449 26.206C19.2862 26.4701 19.5897 26.6698 19.9278 26.7869C22.8536 27.7399 25.9763 27.9196 28.9921 27.3084C30.4941 27.0059 30.9531 26.4896 31.1877 24.9824C31.5007 22.8962 31.532 20.8101 31.678 18.75C31.9959 13.9366 32.5721 9.14374 33.4043 4.39216C33.4601 4.00916 33.6214 3.64925 33.8701 3.35267C34.1187 3.0561 34.445 2.83455 34.8124 2.71281C36.3941 2.16591 38.0774 1.97709 39.7409 2.15998C41.3607 2.29613 42.9703 2.53477 44.5599 2.87449C45.9211 3.14047 46.1558 3.41688 46.2966 4.80417Z" fill="#40C7F4"/>
<path d="M9.16865 12.4238C9.27187 12.7292 9.29698 13.0555 9.24166 13.373C9.153 16.3301 8.75142 19.2612 8.45414 22.1974C8.26117 24.0802 8.27682 25.9838 7.93261 27.8509C7.86835 28.2843 7.75099 28.7082 7.58318 29.113C7.52184 29.2806 7.41243 29.4264 7.26864 29.5322C7.12486 29.6379 6.95308 29.6989 6.7748 29.7075C6.59584 29.7027 6.42203 29.6466 6.27408 29.5458C6.12613 29.445 6.01028 29.3038 5.94034 29.1391C5.7682 28.8046 5.66364 28.4395 5.63263 28.0647C5.51846 27.1536 5.54308 26.2304 5.70565 25.3266C6.37321 22.0044 6.90518 18.651 7.79179 15.3757C8.0027 14.5271 8.29978 13.7023 8.6784 12.9141C8.75142 12.742 8.80879 12.4916 9.16865 12.4238Z" fill="#FFF4DB"/>
<path d="M35.5428 58.1214C35.0212 58.1579 35.0212 57.8084 34.9378 57.5998C33.9722 55.0931 33.2134 52.5116 32.6691 49.8811C32.5022 49.104 32.3614 48.3165 32.2206 47.5498C32.1387 47.1596 32.1512 46.7555 32.2571 46.3712C32.2955 46.1758 32.3942 45.9973 32.5391 45.8608C32.6841 45.7242 32.8681 45.6364 33.0655 45.6097C33.2659 45.5813 33.4703 45.6163 33.6498 45.7098C33.8294 45.8033 33.9752 45.9507 34.0668 46.1313C34.2468 46.4381 34.3737 46.7731 34.4423 47.1222C35.1663 50.1004 35.565 53.1483 35.6314 56.2125C35.6366 56.8227 35.574 57.4642 35.5428 58.1214Z" fill="#FFF4DB"/>
<path d="M34.4473 12.2992C34.2452 10.7079 34.2085 9.09996 34.3378 7.5011C34.3646 7.00377 34.4256 6.50888 34.5204 6.01994C34.5303 5.89916 34.5651 5.78174 34.6227 5.67512C34.6803 5.56849 34.7594 5.47497 34.855 5.40047C34.9505 5.32597 35.0605 5.27211 35.178 5.24228C35.2954 5.21246 35.4178 5.20732 35.5374 5.2272C35.6536 5.236 35.7668 5.26861 35.8699 5.32301C35.973 5.3774 36.0638 5.45241 36.1367 5.54339C36.2095 5.63437 36.2629 5.73936 36.2935 5.85185C36.3241 5.96433 36.3312 6.0819 36.3144 6.19726C36.1085 8.24227 35.5804 10.2418 34.7498 12.1219C34.7394 12.1793 34.6351 12.2001 34.4473 12.2992Z" fill="#FFF4DB"/>
<path d="M10.6862 7.86572C10.9598 8.55584 10.9598 9.32434 10.6862 10.0145C10.5611 10.3795 10.3212 10.6403 9.90393 10.5725C9.4867 10.5047 9.34067 10.1501 9.3511 9.73804C9.37718 8.841 9.97173 7.97003 10.6862 7.86572Z" fill="#FFF4DB"/>
</svg>
