<svg width="90" height="129" viewBox="0 0 90 129" fill="none" xmlns="http://www.w3.org/2000/svg">
<g style="mix-blend-mode:multiply" opacity="0.1">
<path d="M80.9891 51.7383C81.1593 58.7306 80.5523 65.7201 79.1791 72.5783C77.6562 79.9777 75.2034 87.1546 71.8791 93.9383C68.1491 101.348 63.3891 107.938 56.4891 112.748C49.8794 117.318 42.1719 120.045 34.1591 120.648C27.2939 121.27 20.3732 120.557 13.779 118.548C11.2842 117.948 8.95006 116.812 6.93905 115.218C6.21914 114.639 5.65802 113.887 5.30822 113.031C4.95843 112.176 4.83141 111.246 4.93905 110.328C5.49753 105.014 7.6719 99.9986 11.169 95.9583C12.019 94.9583 13.1691 95.0283 14.2691 95.2983C16.525 95.9676 18.8282 96.4657 21.1591 96.7883C28.2391 97.3683 35.2591 97.6383 41.9991 94.5983C50.759 90.6483 54.0691 82.3383 52.7391 74.0983C52.6491 73.5083 52.5191 72.8683 51.8491 72.6683C51.1791 72.4683 50.849 73.0483 50.389 73.4883C47.599 76.4183 43.9991 77.8783 40.2491 79.1283C37.4011 79.9566 34.3881 80.0393 31.4991 79.3683C25.4407 78.4564 19.8335 75.6282 15.4991 71.2983C11.2567 66.8636 8.09176 61.5122 6.24905 55.6583C3.8851 48.8536 3.55498 41.5076 5.29905 34.5183C6.73449 28.959 9.55964 23.8559 13.5091 19.6883C17.0539 15.6466 21.4123 12.3991 26.2991 10.1583C31.103 7.98222 36.2886 6.77389 41.5596 6.60231C46.8306 6.43073 52.0838 7.29925 57.0191 9.15831C62.9568 11.2807 68.1622 15.0598 72.0191 20.0483C75.0191 23.9783 76.7491 28.5183 78.1891 33.1983C80.0216 39.2087 80.9649 45.4548 80.9891 51.7383ZM41.0491 54.7383C43.3331 54.7209 45.5795 54.1539 47.5982 53.0852C49.617 52.0165 51.3488 50.4776 52.6473 48.5984C53.9459 46.7193 54.773 44.5551 55.0587 42.2889C55.3445 40.0227 55.0805 37.721 54.2891 35.5783C51.5691 28.4383 42.2891 26.8583 37.8691 29.8283C33.4491 32.7983 31.5691 37.1783 31.4691 42.3983C31.444 44.2017 31.7211 45.9965 32.2891 47.7083C33.7091 52.1683 36.8991 54.6983 41.0591 54.7183L41.0491 54.7383Z" fill="#FCFCFC"/>
<path d="M86.579 48.0785C85.7484 40.4775 83.7902 33.0426 80.769 26.0185C77.979 19.7385 73.159 15.1385 67.909 10.9285C60.269 4.78854 51.409 2.63854 41.789 3.04854C34.0336 3.37242 26.515 5.81407 20.049 10.1085C12.489 15.0385 6.34903 21.2185 2.92903 29.7585C0.339028 36.2385 -0.0709707 43.0385 0.00902932 49.8985C0.0403718 53.258 0.569445 56.5942 1.57902 59.7985C2.77221 63.4901 4.5297 66.9747 6.78903 70.1285C9.32072 73.929 12.5028 77.2532 16.189 79.9485C22.849 84.6085 30.239 85.8085 38.119 84.2885C41.9369 83.6402 45.6142 82.3378 48.989 80.4385C48.6031 82.6886 47.8282 84.8544 46.699 86.8385C44.619 90.5085 41.189 92.3485 37.259 93.2486C30.4239 94.6819 23.3421 94.4244 16.629 92.4986C12.629 91.4485 10.059 92.2486 7.40902 95.4986C3.45063 100.378 1.19611 106.419 0.989025 112.699C0.784865 115.188 1.51972 117.664 3.04902 119.639C4.76902 121.889 7.17902 122.989 9.66902 123.969C13.8314 125.504 18.1358 126.623 22.519 127.309C29.879 128.619 37.179 128.789 44.429 126.469C52.149 123.989 58.549 119.369 64.539 114.169C71.539 108.069 76.099 100.169 79.639 91.6885C81.639 86.9385 82.739 81.9585 84.069 77.0285C86.7822 67.6339 87.6348 57.7999 86.579 48.0785ZM79.179 72.5785C77.6562 79.9779 75.2034 87.1549 71.879 93.9385C68.149 101.349 63.389 107.939 56.489 112.749C49.8794 117.318 42.1719 120.045 34.159 120.649C27.2938 121.271 20.3731 120.557 13.779 118.549C11.2842 117.949 8.95003 116.812 6.93902 115.219C6.21911 114.639 5.65799 113.887 5.30819 113.032C4.9584 112.176 4.83138 111.246 4.93902 110.329C5.4975 105.014 7.67186 99.9988 11.169 95.9585C12.019 94.9585 13.169 95.0285 14.269 95.2985C16.5249 95.9679 18.8281 96.4659 21.159 96.7885C28.239 97.3685 35.259 97.6385 41.999 94.5985C50.759 90.6485 54.069 82.3385 52.739 74.0985C52.649 73.5085 52.519 72.8685 51.849 72.6685C51.179 72.4685 50.849 73.0485 50.389 73.4885C47.599 76.4185 43.999 77.8785 40.249 79.1285C37.4011 79.9568 34.3881 80.0395 31.499 79.3685C25.4406 78.4566 19.8335 75.6285 15.499 71.2985C11.2567 66.8638 8.09173 61.5124 6.24902 55.6585C3.88507 48.8538 3.55495 41.5078 5.29902 34.5185C6.73446 28.9592 9.55961 23.8561 13.509 19.6885C17.0539 15.6468 21.4123 12.3993 26.299 10.1585C31.1029 7.98243 36.2885 6.77411 41.5596 6.60252C46.8306 6.43094 52.0837 7.29946 57.019 9.15852C62.9568 11.2809 68.1621 15.06 72.019 20.0485C75.019 23.9785 76.749 28.5185 78.189 33.1985C80.0216 39.2089 80.9649 45.4551 80.989 51.7385C81.1593 58.7308 80.5522 65.7203 79.179 72.5785Z" fill="#FCFCFC"/>
<path d="M37.8691 29.8183C33.4091 32.8183 31.5691 37.1683 31.4691 42.3883C31.444 44.1917 31.7212 45.9865 32.2891 47.6983C33.7091 52.1683 36.8991 54.6983 41.0591 54.6983C43.3375 54.677 45.5775 54.1089 47.5906 53.0417C49.6037 51.9746 51.3312 50.4396 52.6277 48.5659C53.9242 46.6922 54.7518 44.5346 55.0409 42.2746C55.33 40.0145 55.0722 37.718 54.2891 35.5783C51.5691 28.4283 42.2991 26.8483 37.8691 29.8183ZM42.3691 51.1783C38.0291 51.1783 35.5491 47.9683 35.9191 43.1183C36.0212 41.3129 36.4845 39.5463 37.2815 37.9231C38.0785 36.2999 39.193 34.8531 40.5591 33.6683C44.6991 30.1283 48.7491 30.6683 51.6391 35.5183C52.6334 37.2401 53.1091 39.2125 53.0091 41.1983C52.8091 47.4883 48.8291 51.1483 42.3691 51.1783Z" fill="#FCFCFC"/>
<path d="M19.809 21.0483C19.8961 21.3198 19.9206 21.6074 19.8808 21.8897C19.841 22.172 19.7378 22.4416 19.579 22.6783C17.999 26.6783 16.439 30.6183 14.809 34.5583C12.7288 39.4241 11.8706 44.7248 12.309 49.9984C12.419 51.2684 11.909 52.0483 10.959 52.1983C10.4723 52.2346 9.99076 52.0793 9.61708 51.7654C9.2434 51.4515 9.00723 51.004 8.959 50.5183C7.65845 45.4885 8.00902 40.1738 9.959 35.3583C11.3044 31.8447 13.035 28.4909 15.119 25.3583C15.9937 24.066 17.0437 22.9015 18.239 21.8983C18.677 21.4798 19.2191 21.1863 19.809 21.0483Z" fill="#FCFCFC"/>
<path d="M38.879 100.279C38.2393 101.049 37.398 101.628 36.449 101.949C34.8562 102.593 33.1654 102.961 31.449 103.039C27.4309 103.385 23.3887 103.342 19.379 102.909C18.069 102.74 16.7895 102.387 15.579 101.859C15.355 101.797 15.146 101.691 14.9647 101.546C14.7835 101.4 14.6339 101.22 14.5252 101.015C14.4166 100.809 14.3511 100.584 14.3328 100.353C14.3145 100.121 14.3439 99.8883 14.419 99.6686C14.4824 99.455 14.5884 99.2566 14.7306 99.0851C14.8728 98.9136 15.0482 98.7727 15.2463 98.6709C15.4444 98.569 15.661 98.5083 15.8832 98.4925C16.1054 98.4766 16.3285 98.5059 16.539 98.5786C23.649 99.8486 30.859 99.6785 38.029 99.9385C38.1883 99.9118 38.3518 99.9294 38.5017 99.9893C38.6516 100.049 38.7822 100.149 38.879 100.279Z" fill="#FCFCFC"/>
<path d="M60.289 46.0783C59.7511 43.5154 59.6799 40.8765 60.079 38.2883C60.1263 37.8819 60.3238 37.5078 60.6328 37.2395C60.9418 36.9712 61.3399 36.8281 61.749 36.8383C62.1693 36.8048 62.5883 36.9167 62.936 37.1551C63.2837 37.3936 63.5389 37.7442 63.659 38.1483C63.814 38.5176 63.8725 38.9202 63.829 39.3183C63.6655 41.1898 63.0846 43.0009 62.129 44.6183C61.9464 44.9804 61.6872 45.2985 61.3695 45.5506C61.0518 45.8027 60.6832 45.9827 60.289 46.0783Z" fill="#FCFCFC"/>
<path d="M30.139 13.3885C30.227 13.5897 30.2595 13.8109 30.2331 14.029C30.2067 14.247 30.1224 14.454 29.989 14.6285C29.0931 16.2917 27.7212 17.6496 26.049 18.5285C25.675 18.779 25.2223 18.8837 24.7763 18.8229C24.3304 18.7621 23.9222 18.5399 23.629 18.1985C23.3405 17.8579 23.1873 17.4233 23.1983 16.9771C23.2094 16.5309 23.384 16.1044 23.689 15.7785C24.989 13.9085 28.319 12.6985 30.139 13.3885Z" fill="#FCFCFC"/>
</g>
<path d="M82.9891 48.7374C83.1593 55.7296 82.5523 62.7191 81.1791 69.5773C79.6562 76.9767 77.2034 84.1537 73.8791 90.9373C70.1491 98.3473 65.3891 104.937 58.4891 109.747C51.8794 114.317 44.1719 117.044 36.1591 117.647C29.2939 118.269 22.3732 117.556 15.779 115.547C13.2842 114.947 10.9501 113.811 8.93905 112.217C8.21914 111.638 7.65802 110.886 7.30822 110.03C6.95843 109.175 6.83141 108.245 6.93905 107.327C7.49753 102.013 9.6719 96.9977 13.169 92.9574C14.019 91.9574 15.1691 92.0274 16.2691 92.2973C18.525 92.9667 20.8282 93.4647 23.1591 93.7873C30.2391 94.3673 37.2591 94.6373 43.9991 91.5973C52.759 87.6473 56.0691 79.3373 54.7391 71.0973C54.6491 70.5073 54.5191 69.8673 53.8491 69.6673C53.1791 69.4673 52.849 70.0473 52.389 70.4874C49.599 73.4174 45.9991 74.8773 42.2491 76.1273C39.4011 76.9556 36.3881 77.0383 33.4991 76.3674C27.4407 75.4554 21.8335 72.6273 17.4991 68.2973C13.2567 63.8626 10.0918 58.5112 8.24905 52.6573C5.8851 45.8526 5.55498 38.5066 7.29905 31.5174C8.73449 25.958 11.5596 20.8549 15.5091 16.6873C19.0539 12.6456 23.4123 9.39812 28.2991 7.15733C33.103 4.98124 38.2886 3.77292 43.5596 3.60134C48.8306 3.42975 54.0838 4.29827 59.0191 6.15733C64.9568 8.27968 70.1622 12.0588 74.0191 17.0473C77.0191 20.9774 78.7491 25.5173 80.1891 30.1973C82.0216 36.2077 82.9649 42.4539 82.9891 48.7374ZM43.0491 51.7374C45.3331 51.7199 47.5795 51.1529 49.5982 50.0842C51.617 49.0155 53.3488 47.4766 54.6473 45.5975C55.9459 43.7183 56.773 41.5542 57.0587 39.2879C57.3445 37.0217 57.0805 34.72 56.2891 32.5773C53.5691 25.4373 44.2891 23.8573 39.8691 26.8273C35.4491 29.7973 33.5691 34.1774 33.4691 39.3974C33.444 41.2007 33.7211 42.9956 34.2891 44.7074C35.7091 49.1674 38.8991 51.6974 43.0591 51.7174L43.0491 51.7374Z" fill="#39BEB1"/>
<path d="M88.579 45.0785C87.7484 37.4775 85.7902 30.0426 82.769 23.0185C79.979 16.7385 75.159 12.1385 69.909 7.92854C62.269 1.78854 53.409 -0.361463 43.789 0.0485372C36.0336 0.372424 28.515 2.81407 22.049 7.10853C14.489 12.0385 8.34903 18.2185 4.92903 26.7585C2.33903 33.2385 1.92903 40.0385 2.00903 46.8985C2.04037 50.258 2.56945 53.5942 3.57902 56.7985C4.77221 60.4901 6.5297 63.9747 8.78903 67.1285C11.3207 70.929 14.5028 74.2532 18.189 76.9485C24.849 81.6085 32.239 82.8085 40.119 81.2885C43.9369 80.6402 47.6142 79.3378 50.989 77.4385C50.6031 79.6886 49.8282 81.8544 48.699 83.8385C46.619 87.5085 43.189 89.3485 39.259 90.2486C32.4239 91.6819 25.3421 91.4244 18.629 89.4986C14.629 88.4485 12.059 89.2486 9.40902 92.4986C5.45063 97.3784 3.19611 103.419 2.98903 109.699C2.78486 112.188 3.51972 114.664 5.04902 116.639C6.76902 118.889 9.17902 119.989 11.669 120.969C15.8314 122.504 20.1358 123.623 24.519 124.309C31.879 125.619 39.179 125.789 46.429 123.469C54.149 120.989 60.549 116.369 66.539 111.169C73.539 105.069 78.099 97.1685 81.639 88.6885C83.639 83.9385 84.739 78.9585 86.069 74.0285C88.7822 64.6339 89.6348 54.7999 88.579 45.0785ZM81.179 69.5785C79.6562 76.9779 77.2034 84.1549 73.879 90.9385C70.149 98.3485 65.389 104.939 58.489 109.749C51.8794 114.318 44.1719 117.045 36.159 117.649C29.2938 118.271 22.3731 117.557 15.779 115.549C13.2842 114.949 10.95 113.812 8.93902 112.219C8.21911 111.639 7.65799 110.887 7.30819 110.032C6.9584 109.176 6.83138 108.246 6.93902 107.329C7.4975 102.014 9.67186 96.9988 13.169 92.9585C14.019 91.9585 15.169 92.0285 16.269 92.2985C18.5249 92.9679 20.8281 93.4659 23.159 93.7885C30.239 94.3685 37.259 94.6385 43.999 91.5985C52.759 87.6485 56.069 79.3385 54.739 71.0985C54.649 70.5085 54.519 69.8685 53.849 69.6685C53.179 69.4685 52.849 70.0485 52.389 70.4885C49.599 73.4185 45.999 74.8785 42.249 76.1285C39.4011 76.9568 36.3881 77.0395 33.499 76.3685C27.4406 75.4566 21.8335 72.6285 17.499 68.2985C13.2567 63.8638 10.0917 58.5124 8.24902 52.6585C5.88507 45.8538 5.55495 38.5078 7.29902 31.5185C8.73446 25.9592 11.5596 20.8561 15.509 16.6885C19.0539 12.6468 23.4123 9.39931 28.299 7.15852C33.1029 4.98243 38.2885 3.77411 43.5596 3.60252C48.8306 3.43094 54.0837 4.29946 59.019 6.15852C64.9568 8.28087 70.1621 12.06 74.019 17.0485C77.019 20.9785 78.749 25.5185 80.189 30.1985C82.0216 36.2089 82.9649 42.4551 82.989 48.7385C83.1593 55.7308 82.5522 62.7203 81.179 69.5785Z" fill="#FCFCFC"/>
<path d="M39.869 26.8188C35.409 29.8188 33.569 34.1688 33.469 39.3888C33.4439 41.1922 33.7211 42.987 34.289 44.6988C35.709 49.1688 38.899 51.6988 43.059 51.6988C45.3374 51.6775 47.5773 51.1094 49.5905 50.0422C51.6036 48.9751 53.3311 47.4401 54.6276 45.5664C55.9241 43.6927 56.7516 41.5351 57.0408 39.2751C57.3299 37.015 57.0721 34.7185 56.289 32.5788C53.569 25.4288 44.299 23.8488 39.869 26.8188ZM44.369 48.1788C40.029 48.1788 37.549 44.9688 37.919 40.1188C38.0211 38.3134 38.4844 36.5468 39.2814 34.9236C40.0784 33.3004 41.1929 31.8536 42.559 30.6688C46.699 27.1288 50.749 27.6688 53.639 32.5188C54.6333 34.2406 55.109 36.213 55.009 38.1988C54.809 44.4888 50.829 48.1488 44.369 48.1788Z" fill="#FCFCFC"/>
<path d="M21.809 18.0488C21.8961 18.3203 21.9206 18.6079 21.8808 18.8902C21.841 19.1725 21.7378 19.4421 21.579 19.6788C19.999 23.6788 18.439 27.6188 16.809 31.5588C14.7288 36.4246 13.8706 41.7253 14.309 46.9988C14.419 48.2688 13.909 49.0488 12.959 49.1988C12.4723 49.2351 11.9908 49.0798 11.6171 48.7659C11.2434 48.452 11.0072 48.0045 10.959 47.5188C9.65845 42.489 10.009 37.1743 11.959 32.3588C13.3044 28.8452 15.035 25.4914 17.119 22.3588C17.9937 21.0665 19.0437 19.902 20.239 18.8988C20.677 18.4803 21.2191 18.1868 21.809 18.0488Z" fill="#FFF4DB"/>
<path d="M40.879 97.2786C40.2393 98.0495 39.398 98.6276 38.449 98.9486C36.8562 99.5928 35.1654 99.9614 33.449 100.039C29.4309 100.385 25.3887 100.342 21.379 99.9085C20.069 99.7403 18.7895 99.3868 17.579 98.8586C17.355 98.7973 17.146 98.6908 16.9647 98.5456C16.7835 98.4005 16.6339 98.2197 16.5252 98.0145C16.4166 97.8093 16.3511 97.584 16.3328 97.3525C16.3145 97.1211 16.3439 96.8883 16.419 96.6686C16.4824 96.455 16.5884 96.2566 16.7306 96.0851C16.8728 95.9136 17.0482 95.7727 17.2463 95.6709C17.4444 95.569 17.661 95.5083 17.8832 95.4925C18.1054 95.4766 18.3285 95.5059 18.539 95.5786C25.649 96.8486 32.859 96.6785 40.029 96.9385C40.1883 96.9118 40.3518 96.9294 40.5017 96.9893C40.6516 97.0493 40.7822 97.1494 40.879 97.2786Z" fill="#FFF4DB"/>
<path d="M62.289 43.0778C61.7511 40.5149 61.6799 37.876 62.079 35.2878C62.1263 34.8814 62.3238 34.5073 62.6328 34.239C62.9418 33.9707 63.3399 33.8276 63.749 33.8379C64.1693 33.8043 64.5883 33.9162 64.936 34.1546C65.2837 34.3931 65.5389 34.7437 65.659 35.1479C65.814 35.5171 65.8725 35.9197 65.829 36.3178C65.6655 38.1893 65.0846 40.0004 64.129 41.6179C63.9464 41.9799 63.6872 42.298 63.3695 42.5501C63.0518 42.8022 62.6832 42.9823 62.289 43.0778Z" fill="#FFF4DB"/>
<path d="M32.139 10.3875C32.227 10.5888 32.2595 10.8099 32.2331 11.028C32.2067 11.246 32.1224 11.453 31.989 11.6275C31.0931 13.2907 29.7212 14.6487 28.049 15.5275C27.675 15.778 27.2223 15.8827 26.7763 15.8219C26.3304 15.7611 25.9222 15.539 25.629 15.1975C25.3405 14.8569 25.1873 14.4223 25.1983 13.9761C25.2094 13.5299 25.384 13.1034 25.689 12.7775C26.989 10.9075 30.319 9.69751 32.139 10.3875Z" fill="#FFF4DB"/>
</svg>
