<svg width="37" height="69" viewBox="0 0 37 69" fill="none" xmlns="http://www.w3.org/2000/svg">
<path d="M33.7828 14.2693C33.6944 17.4843 34.0678 20.6833 34.0187 23.893C33.9499 28.0454 33.8631 32.1979 33.7583 36.3503C33.6469 41.0006 33.5192 45.6562 33.375 50.3171C33.262 54.067 33.2129 57.8275 32.8493 61.5668C32.7602 62.3953 32.6191 63.2164 32.4267 64.0243C32.3389 64.5531 32.0808 65.0316 31.698 65.3755C31.3151 65.7194 30.832 65.9068 30.3336 65.9046C27.2988 66.0851 24.2548 65.8986 21.2585 65.3484C20.3496 65.2001 19.4406 65.0889 18.5365 64.93C17.6324 64.7711 17.4064 64.4745 17.3327 63.4894C17.1558 61.0901 17.4359 58.7226 17.5981 56.318C17.8585 52.4886 18.1582 48.6646 18.4579 44.8405C18.8264 40.2485 19.2195 35.6617 19.5929 31.0697C19.7796 28.7287 19.9598 26.3859 20.1334 24.0413C20.1776 23.4746 20.2169 22.9026 20.2611 22.3305C20.3103 21.589 20.2906 20.8422 20.2857 20.0901C20.2857 19.7935 20.3447 19.444 20.0105 19.2851C19.6764 19.1262 19.3915 19.3857 19.1605 19.6346C18.6004 20.2437 18.055 20.8687 17.4998 21.4778C14.7335 24.4968 12.0508 27.6058 9.54987 30.8843C8.81286 31.8589 8.40996 31.9436 7.44693 31.1862C5.45696 29.6162 3.62271 27.8289 1.97338 25.8527C1.63178 25.5143 1.40867 25.0595 1.34156 24.5647C1.27445 24.0699 1.36743 23.5652 1.60488 23.1356C2.42548 21.5382 3.40404 20.0412 4.52345 18.6707C6.53795 16.0225 8.55245 13.4272 10.621 10.8478C12.6895 8.26843 14.8662 5.51956 17.4064 3.24737C18.1375 2.57871 19.0043 2.10512 19.9368 1.865C20.6747 1.68662 21.4329 1.62594 22.1872 1.68492C24.8994 1.87029 27.5919 2.3099 30.2599 2.74421C30.8643 2.83955 31.4539 2.99844 32.0582 3.13615C32.3849 3.19543 32.6811 3.37845 32.8937 3.65227C33.1063 3.92609 33.2212 4.27272 33.2178 4.62975C33.6361 7.82247 33.825 11.0452 33.7828 14.2693Z" fill="#FECB2F"/>
<path d="M36.9323 24.0681C36.8979 20.8903 36.7947 17.7495 36.7161 14.5875C36.6571 12.1087 36.6571 9.62998 36.4999 7.17242C36.3426 4.7943 34.3527 1.74884 31.5865 1.38338C28.6384 0.996737 25.7444 0.493572 22.7915 0.324086C21.7305 0.248804 20.6651 0.348827 19.6321 0.620688C18.5466 0.930514 17.5293 1.47071 16.6399 2.20963C14.3158 4.07928 12.4241 6.40973 10.5374 8.73487C8.84717 10.8217 7.22575 12.972 5.53062 15.0483C3.73358 17.1803 2.14168 19.5032 0.779343 21.9813C-0.473578 24.3489 -0.124727 26.6052 1.17733 28.7502C2.47938 30.8953 4.45458 32.4101 6.49856 33.7077C8.41971 34.9206 9.22551 34.767 10.8371 33.1092C12.9843 30.8317 14.9496 28.3901 16.915 26.0067C17.5537 25.244 18.1778 24.4601 18.9148 23.5491C18.9148 23.7557 18.9148 23.8669 18.9148 23.9357C18.9205 23.9672 18.9205 23.9996 18.9148 24.0311C18.502 28.7343 18.086 33.4358 17.6668 38.1356C17.1214 44.4225 16.5809 50.6988 16.1436 56.9857C15.9692 58.8881 15.8954 60.7997 15.9225 62.7112C15.9667 63.9241 16.0355 65.174 16.861 66.1115C17.8887 67.2948 19.2732 68.0457 20.7671 68.2301C22.3738 68.4366 23.9854 68.4313 25.5872 68.5585C27.2811 68.7549 28.992 68.7014 30.6726 68.3996C31.3214 68.3005 31.9395 68.0378 32.4765 67.6329C33.0135 67.228 33.4543 66.6922 33.7631 66.0691C34.3385 64.8768 34.7333 63.593 34.9325 62.2663C35.9741 55.2908 36.2837 48.2359 36.608 41.1916C36.7603 38.0561 36.4802 34.9153 36.8438 31.7798C37.1141 29.2216 36.9568 26.6369 36.9323 24.0681ZM34.0186 23.8934C33.9498 28.0458 33.863 32.1982 33.7582 36.3506C33.6468 41.0009 33.5191 45.6565 33.3749 50.3174C33.2619 54.0673 33.2128 57.8278 32.8492 61.5671C32.7602 62.3957 32.619 63.2168 32.4267 64.0247C32.3388 64.5535 32.0807 65.0319 31.6979 65.3759C31.315 65.7198 30.8319 65.9071 30.3335 65.9049C27.2987 66.0855 24.2547 65.8989 21.2585 65.3488C20.3495 65.2005 19.4405 65.0893 18.5364 64.9304C17.6324 64.7715 17.4063 64.4749 17.3326 63.4897C17.1558 61.0904 17.4358 58.7229 17.598 56.3183C17.8584 52.489 18.1581 48.6649 18.4578 44.8409C18.8263 40.2488 19.2194 35.6621 19.5928 31.0701C19.7795 28.729 19.9597 26.3862 20.1333 24.0417C20.1775 23.4749 20.2168 22.9029 20.261 22.3309C20.3102 21.5894 20.2905 20.8426 20.2856 20.0905C20.2856 19.7939 20.3446 19.4443 20.0105 19.2854C19.6763 19.1265 19.3914 19.3861 19.1604 19.635C18.6003 20.2441 18.0549 20.8691 17.4997 21.4782C14.7334 24.4972 12.0507 27.6062 9.54979 30.8847C8.81277 31.8592 8.40988 31.944 7.44685 31.1866C5.45687 29.6166 3.62263 27.8293 1.9733 25.8531C1.6317 25.5147 1.40858 25.0599 1.34147 24.565C1.27436 24.0702 1.36735 23.5656 1.60479 23.136C2.4254 21.5385 3.40395 20.0415 4.52336 18.671C6.53787 16.0228 8.55237 13.4275 10.6209 10.8482C12.6895 8.26879 14.8661 5.51992 17.4063 3.24774C18.1374 2.57907 19.0043 2.10548 19.9368 1.86536C20.6747 1.68698 21.4328 1.6263 22.1871 1.68528C24.8993 1.87065 27.5919 2.31026 30.2598 2.74457C30.8642 2.83991 31.4538 2.9988 32.0582 3.13651C32.3848 3.19579 32.6811 3.37881 32.8936 3.65263C33.1062 3.92645 33.2211 4.27308 33.2177 4.63011C33.6367 7.82808 33.8256 11.0562 33.7828 14.2856C33.6943 17.4846 34.0677 20.6837 34.0186 23.8934Z" fill="#FCFCFC"/>
<path d="M15.8882 9.61401C15.8346 9.96828 15.6919 10.2999 15.4754 10.5727C14.972 11.4251 14.4103 12.236 13.7951 12.9985C11.0141 16.4729 8.22979 19.9439 5.44224 23.4113C5.29484 23.6047 5.13028 23.7821 4.9509 23.941C4.83434 24.069 4.67918 24.1479 4.5134 24.1634C4.34762 24.179 4.18214 24.1301 4.04684 24.0257C3.91841 23.9116 3.83484 23.7492 3.81297 23.5714C3.79109 23.3935 3.83252 23.2133 3.92892 23.067C4.11263 22.6968 4.32291 22.3426 4.55783 22.0077C7.20432 18.1292 10.1907 14.534 13.4757 11.2718C14.0247 10.7132 14.6275 10.2196 15.274 9.79939C15.4411 9.69876 15.5934 9.49219 15.8882 9.61401Z" fill="#FFF4DB"/>
<path d="M31.7683 50.5029C32.0463 52.4918 32.1336 54.5063 32.0287 56.5144C31.9599 58.0292 31.8714 59.544 31.7879 61.0588C31.7848 61.5225 31.6732 61.9779 31.4636 62.3829C31.3935 62.5314 31.2843 62.6543 31.1497 62.7363C31.0151 62.8182 30.8611 62.8556 30.707 62.8437C30.554 62.8231 30.41 62.755 30.2922 62.6479C30.1745 62.5407 30.0881 62.399 30.0436 62.2399C29.9342 61.9535 29.8936 61.642 29.9257 61.3342C30.2991 57.9762 30.5497 54.5971 31.331 51.308C31.3884 50.9942 31.5425 50.7105 31.7683 50.5029Z" fill="#FFF4DB"/>
<path d="M19.2636 5.80017C19.3422 6.59464 18.5413 8.18887 17.9369 8.4484C17.7918 8.53246 17.6258 8.56492 17.4625 8.54114C17.2993 8.51735 17.1472 8.43855 17.028 8.31599C16.8954 8.17712 16.8087 7.99521 16.7811 7.79814C16.7536 7.60107 16.7868 7.39971 16.8756 7.22492C17.1361 6.55227 18.389 5.61479 19.2636 5.80017Z" fill="#FFF4DB"/>
</svg>
