<svg width="85" height="131" viewBox="0 0 85 131" fill="none" xmlns="http://www.w3.org/2000/svg">
<g style="mix-blend-mode:multiply" opacity="0.1">
<path d="M77.8338 11.3797C77.9365 14.5013 77.514 17.618 76.5838 20.5997C73.7638 31.3897 69.8338 41.8097 65.8338 52.1997C62.8338 60.0197 59.9538 67.8997 56.9838 75.7297C52.2538 88.1997 47.7838 100.73 42.1138 112.85C40.7296 115.82 39.0901 118.664 37.2138 121.35C36.2259 122.917 34.7942 124.155 33.1008 124.906C31.4074 125.658 29.5288 125.889 27.7038 125.57C22.6979 124.984 17.8112 123.635 13.2138 121.57C12.3789 121.232 11.6332 120.706 11.0348 120.033C10.4364 119.36 10.0014 118.558 9.76382 117.69C9.51535 116.705 9.51535 115.674 9.76382 114.69L9.88382 114.16C11.4038 108.03 13.5738 102.1 15.6838 96.1597C21.3938 80.0697 28.1138 64.3997 34.7638 48.6897C36.1638 45.3897 37.7638 42.1597 38.5538 38.6197C38.6535 38.1901 38.7039 37.7506 38.7038 37.3097C38.7038 35.8897 38.2038 35.5097 36.8038 35.6097C28.2438 36.2097 19.7338 37.5097 11.1138 37.3597H10.3938C7.3138 37.3597 5.3438 36.0197 4.4938 32.8897C2.79896 27.2181 2.22163 21.2713 2.79382 15.3797C2.84177 14.9893 2.91187 14.602 3.00381 14.2197C3.66381 11.6697 5.45382 10.0797 8.41382 9.40966C13.8672 8.36166 19.3939 7.73978 24.9438 7.54966C32.6305 7.04966 40.3305 6.633 48.0438 6.29966C55.7195 6.0569 63.4029 6.32081 71.0438 7.08967C72.4741 7.2345 73.8852 7.52945 75.2538 7.96966C75.9977 8.17752 76.6529 8.62363 77.1189 9.23957C77.5849 9.85552 77.836 10.6073 77.8338 11.3797Z" fill="#1C0D3F"/>
<path d="M82.3538 14.2098C82.1497 11.8741 81.1741 9.67266 79.5808 7.95261C77.9875 6.23255 75.8671 5.09167 73.5538 4.70979C65.7191 3.3113 57.7557 2.76811 49.8038 3.0898C41.2138 3.3098 32.6438 4.08979 24.0738 4.54979C18.5578 4.74352 13.0775 5.51779 7.72377 6.85979C6.05521 7.2353 4.52106 8.05986 3.28728 9.24429C2.0535 10.4287 1.16705 11.9279 0.723772 13.5798C0.600566 14.0311 0.500418 14.4883 0.423753 14.9498C-0.141251 19.3953 -0.141251 23.8943 0.423753 28.3398C0.819747 31.9642 1.92762 35.4747 3.68376 38.6698C4.32318 40.0559 5.31026 41.2531 6.54909 42.145C7.78792 43.0368 9.2364 43.5931 10.7538 43.7598C14.1591 44.2293 17.6026 44.3599 21.0338 44.1498C25.3338 43.8598 29.6338 43.6298 34.0338 42.9098C33.8438 43.4298 33.7238 43.7898 33.5738 44.1398C32.3838 46.8498 31.1738 49.5398 29.9938 52.2498C25.8338 61.8498 21.8338 71.5098 18.2538 81.3398C14.3038 92.1898 9.90377 102.88 7.59377 114.25C7.45377 114.95 7.31377 115.64 7.19377 116.34C6.61377 119.59 7.32376 124.34 11.4638 126C17.3403 128.434 23.5766 129.886 29.9238 130.3C31.8438 130.39 33.8438 130.49 35.6438 129.45C38.5505 127.798 40.9451 125.375 42.5638 122.45C47.2674 114.017 51.4421 105.3 55.0638 96.3498C60.6038 82.6698 65.3138 68.6598 71.2438 55.1198C74.9982 46.4698 78.1849 37.5843 80.7838 28.5198C82.1138 23.8698 83.0638 19.1098 82.3538 14.2098ZM76.5838 20.5998C73.7638 31.3898 69.8338 41.8098 65.8338 52.1998C62.8338 60.0198 59.9538 67.8998 56.9838 75.7298C52.2538 88.1998 47.7838 100.73 42.1138 112.85C40.7296 115.82 39.0901 118.664 37.2138 121.35C36.2259 122.917 34.7942 124.155 33.1008 124.907C31.4074 125.658 29.5287 125.889 27.7038 125.57C22.6979 124.984 17.8112 123.635 13.2138 121.57C12.3789 121.232 11.6332 120.706 11.0347 120.033C10.4363 119.36 10.0014 118.558 9.76378 117.69C9.5153 116.705 9.5153 115.674 9.76378 114.69L9.88377 114.16C11.4038 108.03 13.5738 102.1 15.6838 96.1598C21.3938 80.0698 28.1138 64.3998 34.7638 48.6898C36.1638 45.3898 37.7638 42.1598 38.5538 38.6198C38.6535 38.1903 38.7038 37.7508 38.7038 37.3098C38.7038 35.8898 38.2038 35.5098 36.8038 35.6098C28.2438 36.2098 19.7338 37.5098 11.1138 37.3598H10.3938C7.31375 37.3598 5.34376 36.0198 4.49376 32.8898C2.79892 27.2182 2.22159 21.2715 2.79378 15.3798C2.84173 14.9895 2.91183 14.6022 3.00377 14.2198C3.66377 11.6698 5.45377 10.0798 8.41377 9.40979C13.8672 8.36179 19.3939 7.73991 24.9438 7.54979C32.6304 7.04979 40.3304 6.63312 48.0438 6.29979C55.7195 6.05703 63.4028 6.32094 71.0438 7.0898C72.4741 7.23463 73.8852 7.52958 75.2538 7.96979C76.0116 8.17427 76.6796 8.62548 77.1523 9.25209C77.6249 9.87871 77.8753 10.645 77.8638 11.4298C77.9512 14.5364 77.5185 17.6358 76.5838 20.5998Z" fill="#1C0D3F"/>
<path d="M44.3839 91.5396C44.5397 92.5481 44.4399 93.5796 44.0939 94.5396C43.3832 97.5664 42.4438 100.535 41.2839 103.42C40.0639 106.58 38.8039 109.73 37.5639 112.88C36.8195 114.863 35.7443 116.706 34.3839 118.33C33.6939 119.13 32.8739 119.78 31.7839 119.22C30.6939 118.66 30.7839 117.62 31.0439 116.6C31.3626 115.235 31.8709 113.923 32.5538 112.7C35.2838 108.19 37.3839 103.36 39.7939 98.6996C40.8636 96.5146 42.0832 94.4062 43.4439 92.3896C43.6639 92.0396 43.8039 91.6396 44.3839 91.5396Z" fill="#1C0D3F"/>
<path d="M32.0637 11.3096C30.9773 12.0534 29.7588 12.5829 28.4737 12.8696C24.5637 14.0196 20.4737 14.4296 16.4737 15.2796C14.2111 15.777 11.9003 16.0218 9.5837 16.0096C8.7537 16.0096 7.90371 15.8996 7.69371 14.9196C7.48371 13.9396 8.2137 13.3896 9.0237 13.0596C10.8932 12.2534 12.8836 11.7634 14.9137 11.6096C18.3037 11.4296 21.6737 10.8696 25.0737 10.8496C26.7837 10.8496 28.5037 10.8496 30.2137 10.9596C30.8381 11.0309 31.4564 11.1479 32.0637 11.3096Z" fill="#1C0D3F"/>
<path d="M42.0638 11.13C41.636 11.8555 40.9679 12.4085 40.1754 12.6934C39.3828 12.9783 38.5156 12.9771 37.7238 12.69C37.4141 12.59 37.147 12.3886 36.9656 12.1183C36.7842 11.848 36.6991 11.5246 36.7238 11.2C36.7513 10.88 36.8763 10.5761 37.0819 10.3293C37.2876 10.0825 37.564 9.9048 37.8738 9.82004C38.6199 9.55598 39.4316 9.54092 40.187 9.7771C40.9424 10.0133 41.6009 10.488 42.0638 11.13Z" fill="#1C0D3F"/>
</g>
<path d="M79.8337 8.3782C79.9364 11.4999 79.5139 14.6166 78.5837 17.5982C75.7637 28.3882 71.8337 38.8082 67.8337 49.1982C64.8337 57.0182 61.9537 64.8982 58.9837 72.7282C54.2537 85.1982 49.7837 97.7282 44.1137 109.848C42.7295 112.818 41.09 115.662 39.2137 118.348C38.2258 119.915 36.7941 121.154 35.1007 121.905C33.4073 122.656 31.5287 122.887 29.7037 122.568C24.6978 121.983 19.8111 120.634 15.2137 118.568C14.3788 118.231 13.6331 117.705 13.0347 117.032C12.4363 116.359 12.0013 115.557 11.7637 114.688C11.5152 113.704 11.5152 112.673 11.7637 111.688L11.8837 111.158C13.4037 105.028 15.5737 99.0982 17.6837 93.1582C23.3937 77.0682 30.1137 61.3982 36.7637 45.6882C38.1637 42.3882 39.7637 39.1582 40.5537 35.6182C40.6534 35.1887 40.7037 34.7492 40.7037 34.3082C40.7037 32.8882 40.2037 32.5082 38.8037 32.6082C30.2437 33.2082 21.7337 34.5082 13.1137 34.3582H12.3937C9.31367 34.3582 7.34368 33.0182 6.49368 29.8882C4.79884 24.2166 4.22151 18.2699 4.7937 12.3782C4.84165 11.9879 4.91175 11.6006 5.00369 11.2182C5.66369 8.6682 7.45369 7.0782 10.4137 6.4082C15.8671 5.36019 21.3938 4.73831 26.9437 4.5482C34.6304 4.0482 42.3304 3.63153 50.0437 3.2982C57.7194 3.05543 65.4028 3.31935 73.0437 4.08821C74.474 4.23304 75.8851 4.52798 77.2537 4.9682C77.9976 5.17606 78.6528 5.62217 79.1188 6.23811C79.5848 6.85405 79.8359 7.60583 79.8337 8.3782Z" fill="#EC184B"/>
<path d="M84.3538 11.2098C84.1497 8.87407 83.1741 6.67266 81.5808 4.95261C79.9875 3.23255 77.8671 2.09167 75.5538 1.70979C67.7191 0.311296 59.7557 -0.231886 51.8038 0.0897992C43.2138 0.309799 34.6438 1.08979 26.0738 1.54979C20.5578 1.74352 15.0775 2.51779 9.72377 3.85979C8.05521 4.2353 6.52106 5.05986 5.28728 6.24429C4.0535 7.42873 3.16705 8.92794 2.72377 10.5798C2.60057 11.0311 2.50042 11.4883 2.42375 11.9498C1.85875 16.3953 1.85875 20.8943 2.42375 25.3398C2.81975 28.9642 3.92762 32.4747 5.68376 35.6698C6.32318 37.0559 7.31026 38.2531 8.54909 39.145C9.78792 40.0368 11.2364 40.5931 12.7538 40.7598C16.1591 41.2293 19.6026 41.3599 23.0338 41.1498C27.3338 40.8598 31.6338 40.6298 36.0338 39.9098C35.8438 40.4298 35.7238 40.7898 35.5738 41.1398C34.3838 43.8498 33.1738 46.5398 31.9938 49.2498C27.8338 58.8498 23.8338 68.5098 20.2538 78.3398C16.3038 89.1898 11.9038 99.8798 9.59377 111.25C9.45377 111.95 9.31377 112.64 9.19377 113.34C8.61377 116.59 9.32376 121.34 13.4638 123C19.3403 125.434 25.5766 126.886 31.9238 127.3C33.8438 127.39 35.8438 127.49 37.6438 126.45C40.5505 124.798 42.9451 122.375 44.5638 119.45C49.2674 111.017 53.4421 102.3 57.0638 93.3498C62.6038 79.6698 67.3138 65.6598 73.2438 52.1198C76.9982 43.4698 80.1849 34.5843 82.7838 25.5198C84.1138 20.8698 85.0638 16.1098 84.3538 11.2098ZM78.5838 17.5998C75.7638 28.3898 71.8338 38.8098 67.8338 49.1998C64.8338 57.0198 61.9538 64.8998 58.9838 72.7298C54.2538 85.1998 49.7838 97.7298 44.1138 109.85C42.7296 112.82 41.0901 115.664 39.2138 118.35C38.2259 119.917 36.7942 121.155 35.1008 121.907C33.4074 122.658 31.5287 122.889 29.7038 122.57C24.6979 121.984 19.8112 120.635 15.2138 118.57C14.3789 118.232 13.6332 117.706 13.0347 117.033C12.4363 116.36 12.0014 115.558 11.7638 114.69C11.5153 113.705 11.5153 112.674 11.7638 111.69L11.8838 111.16C13.4038 105.03 15.5738 99.0998 17.6838 93.1598C23.3938 77.0698 30.1138 61.3998 36.7638 45.6898C38.1638 42.3898 39.7638 39.1598 40.5538 35.6198C40.6535 35.1903 40.7038 34.7508 40.7038 34.3098C40.7038 32.8898 40.2038 32.5098 38.8038 32.6098C30.2438 33.2098 21.7338 34.5098 13.1138 34.3598H12.3938C9.31375 34.3598 7.34376 33.0198 6.49376 29.8898C4.79892 24.2182 4.22159 18.2715 4.79378 12.3798C4.84173 11.9895 4.91183 11.6022 5.00377 11.2198C5.66377 8.66979 7.45377 7.07979 10.4138 6.40979C15.8672 5.36179 21.3939 4.73991 26.9438 4.54979C34.6304 4.04979 42.3304 3.63312 50.0438 3.29979C57.7195 3.05703 65.4028 3.32094 73.0438 4.0898C74.4741 4.23463 75.8852 4.52958 77.2538 4.96979C78.0116 5.17427 78.6796 5.62548 79.1523 6.25209C79.6249 6.87871 79.8753 7.64498 79.8638 8.4298C79.9512 11.5364 79.5185 14.6358 78.5838 17.5998Z" fill="#FCFCFC"/>
<path d="M46.3837 88.5391C46.5395 89.5476 46.4398 90.5791 46.0937 91.5391C45.3831 94.5659 44.4437 97.5344 43.2837 100.419C42.0637 103.579 40.8037 106.729 39.5637 109.879C38.8194 111.862 37.7442 113.705 36.3837 115.329C35.6937 116.129 34.8737 116.779 33.7837 116.219C32.6937 115.659 32.7837 114.619 33.0437 113.599C33.3625 112.235 33.8707 110.922 34.5537 109.699C37.2837 105.189 39.3837 100.359 41.7937 95.6991C42.8635 93.5141 44.083 91.4057 45.4437 89.3891C45.6637 89.0391 45.8037 88.6391 46.3837 88.5391Z" fill="#FFF4DB"/>
<path d="M34.0637 8.30962C32.9773 9.05344 31.7588 9.58293 30.4737 9.86961C26.5637 11.0196 22.4737 11.4296 18.4737 12.2796C16.2111 12.777 13.9003 13.0218 11.5837 13.0096C10.7537 13.0096 9.90371 12.8996 9.69371 11.9196C9.48371 10.9396 10.2137 10.3896 11.0237 10.0596C12.8932 9.25341 14.8836 8.76339 16.9137 8.6096C20.3037 8.4296 23.6737 7.86961 27.0737 7.84961C28.7837 7.84961 30.5037 7.84961 32.2137 7.95961C32.8381 8.03092 33.4564 8.1479 34.0637 8.30962Z" fill="#FFF4DB"/>
<path d="M44.0637 8.12906C43.6358 8.85452 42.9678 9.40756 42.1752 9.69245C41.3827 9.97733 40.5155 9.97613 39.7237 9.68906C39.4139 9.58898 39.1469 9.38762 38.9655 9.11734C38.7841 8.84707 38.6989 8.52363 38.7237 8.19907C38.7512 7.87903 38.8762 7.57511 39.0818 7.32834C39.2874 7.08157 39.5638 6.90382 39.8737 6.81906C40.6198 6.55501 41.4314 6.53994 42.1869 6.77613C42.9423 7.01231 43.6008 7.48701 44.0637 8.12906Z" fill="#FFF4DB"/>
</svg>
