<svg width="50" height="75" viewBox="0 0 50 75" fill="none" xmlns="http://www.w3.org/2000/svg">
<g style="mix-blend-mode:multiply" opacity="0.1">
<path d="M43.0246 48.1321C44.4064 53.2408 43.3801 57.9309 40.2323 62.2082C36.5456 67.2137 31.3968 69.5703 25.4567 70.5392C21.5173 71.1759 17.4863 70.945 13.6453 69.8627C10.7052 69.0588 7.9692 67.64 5.61822 65.7C4.27081 64.5877 3.28463 63.2231 3.22156 61.3826C3.17569 60.3505 3.75478 59.5306 4.21921 58.6878C5.37377 56.4622 6.85408 54.4215 8.61119 52.633C9.45404 51.8074 10.2224 51.4863 11.3748 51.9851C12.6592 52.5241 13.7887 53.3841 15.1418 53.774C18.1422 54.7299 21.3508 54.8233 24.4017 54.0435C24.6368 53.9804 24.8776 53.9059 25.1127 53.8256C26.295 53.4886 27.3289 52.7622 28.0469 51.7643C28.7649 50.7663 29.125 49.5552 29.0689 48.3271C28.9888 46.973 28.4672 45.6826 27.5839 44.6533C26.7005 43.624 25.5042 42.9125 24.1781 42.6278C22.846 42.4746 21.5049 42.4152 20.1645 42.4501C19.2185 42.4501 18.2552 42.4501 17.4926 41.7333C17.1061 41.3829 16.8276 40.9294 16.6899 40.4261C16.6899 40.3515 16.6555 40.2827 16.6441 40.2025C16.259 38.2707 16.3316 36.2757 16.8562 34.3771C16.9674 33.8429 17.2388 33.3553 17.6343 32.9794C18.0297 32.6034 18.5303 32.357 19.0694 32.2728C20.7035 31.9517 22.3548 31.8829 23.9889 31.6994C25.5074 31.5564 26.9563 30.9947 28.1744 30.0768C30.3532 28.4026 30.766 26.7972 30.1755 23.6953C29.1147 18.0361 23.0141 16.5913 19.2299 17.824C17.4661 18.4389 15.7789 19.2546 14.2015 20.2551C13.2161 20.9554 12.095 21.4417 10.9104 21.6827C10.5126 21.7646 10.099 21.7183 9.72914 21.5503C9.3593 21.3824 9.05222 21.1016 8.85201 20.7482C7.47478 18.4951 6.68612 15.932 6.55855 13.2944C6.51298 12.5346 6.66933 11.7764 7.01172 11.0966C7.35412 10.4168 7.87037 9.83982 8.50799 9.42418C11.22 7.46327 14.2875 6.242 17.4009 5.10674C19.5976 4.20912 21.9714 3.82854 24.3386 3.99441C29.5792 4.56777 34.4356 6.08719 38.3574 9.79114C40.344 11.7619 41.9052 14.1192 42.9443 16.7174C44.9511 21.3387 44.5383 25.9543 42.9042 30.5412C41.9015 33.5843 39.8753 36.1858 37.1705 37.9033C37.0529 37.9842 36.9435 38.0763 36.8437 38.1785C39.4927 41.1944 41.9753 44.2504 43.0246 48.1321Z" fill="#FCFCFC"/>
<path d="M43.2598 36.2234C44.8184 34.1431 46.0198 31.8179 46.8147 29.343C48.8558 22.927 47.9614 16.9411 43.8618 11.5687C40.8517 7.62964 36.7635 5.1183 32.1193 3.467C27.976 1.93392 23.4978 1.53797 19.1498 2.32027C16.0536 2.89364 13.3358 4.37866 10.5837 5.8006C9.07094 6.58345 7.6975 7.61015 6.5185 8.83944C5.15963 10.2385 4.13903 11.8496 4.27664 13.8679C4.42874 16.8824 5.49688 19.7787 7.33841 22.1702C8.64569 23.8502 10.2511 24.8593 12.4987 24.3146C13.3474 24.104 14.1689 23.7962 14.947 23.3972C16.5352 22.6002 18.026 21.6083 19.7461 21.1037C21.9592 20.4788 24.1036 20.5934 26.0531 21.981C26.8112 22.6281 27.428 23.4244 27.8649 24.3203C28.8912 25.9945 28.5702 27.5828 26.9819 28.7066C26.3825 29.1101 25.7168 29.4051 25.0153 29.5781C23.2952 30.0712 21.4547 29.9737 19.683 30.2891C16.885 30.7707 15.3082 32.2614 14.8552 35.0709C14.5752 36.958 14.6471 38.8806 15.0674 40.7415C15.1649 41.2403 15.2853 41.7334 15.4114 42.2208C15.538 42.7807 15.8207 43.2932 16.2266 43.6991C16.6324 44.105 17.145 44.3876 17.7049 44.5143C18.8707 44.8196 20.0668 44.9946 21.2712 45.036C24.2068 45.2195 26.0875 46.8823 26.3971 49.5599C26.5748 51.0449 26.1333 51.7845 24.7573 52.2891C24.4981 52.379 24.2339 52.4537 23.966 52.5127L23.708 52.5701C21.3695 52.9348 18.9834 52.859 16.6728 52.3464C14.8954 52.0082 13.3645 51.1194 11.8107 50.2651C11.2452 49.9165 10.5995 49.719 9.93576 49.6918C9.29423 49.7116 8.66441 49.8687 8.08877 50.1526C7.51312 50.4364 7.00503 50.8404 6.59876 51.3373C4.36433 53.7499 2.61267 56.5681 1.43847 59.6397C0.808627 61.4744 0.835978 63.4709 1.51583 65.2877C2.19568 67.1045 3.48577 68.6285 5.16535 69.599C6.22608 70.1724 7.29828 70.7056 8.39914 71.2045C12.2573 72.9115 16.3416 74.0527 20.5258 74.593C24.505 75.132 28.3867 74.3465 32.1479 73.0278C34.6308 72.1836 36.9251 70.8631 38.9022 69.1403C40.5203 67.6179 41.9401 65.8977 43.1279 64.0202C45.8342 60.0066 46.5681 55.4713 46.1152 50.8328C45.6679 46.3318 43.9937 42.2724 40.4503 39.1304C41.4984 38.2759 42.4415 37.3 43.2598 36.2234ZM43.0247 48.1322C44.4065 53.2409 43.3802 57.931 40.2324 62.2083C36.5457 67.2138 31.3968 69.5704 25.4568 70.5393C21.5173 71.176 17.4864 70.9451 13.6454 69.8628C10.7053 69.0589 7.96929 67.6401 5.61831 65.7001C4.2709 64.5878 3.28472 63.2232 3.22165 61.3827C3.17578 60.3506 3.75487 59.5307 4.2193 58.6879C5.37386 56.4623 6.85417 54.4216 8.61128 52.6331C9.45413 51.8075 10.2224 51.4864 11.3749 51.9852C12.6593 52.5242 13.7888 53.3842 15.1419 53.7741C18.1423 54.73 21.3509 54.8234 24.4018 54.0436C24.6369 53.9805 24.8777 53.906 25.1128 53.8257C26.2951 53.4887 27.329 52.7623 28.047 51.7644C28.765 50.7664 29.1251 49.5553 29.069 48.3271C28.9889 46.9731 28.4673 45.6827 27.5839 44.6534C26.7006 43.6241 25.5043 42.9126 24.1782 42.6279C22.8461 42.4747 21.505 42.4153 20.1646 42.4501C19.2185 42.4501 18.2553 42.4501 17.4927 41.7334C17.1062 41.383 16.8277 40.9295 16.69 40.4262C16.69 40.3516 16.6556 40.2828 16.6441 40.2026C16.2591 38.2708 16.3317 36.2758 16.8563 34.3772C16.9675 33.843 17.2389 33.3554 17.6343 32.9795C18.0298 32.6035 18.5304 32.357 19.0695 32.2729C20.7036 31.9518 22.3549 31.883 23.989 31.6995C25.5074 31.5565 26.9564 30.9948 28.1745 30.0769C30.3533 28.4027 30.7661 26.7973 30.1756 23.6954C29.1148 18.0362 23.0142 16.5913 19.23 17.8241C17.4662 18.439 15.779 19.2547 14.2016 20.2552C13.2162 20.9555 12.0951 21.4418 10.9105 21.6828C10.5126 21.7647 10.0991 21.7183 9.72923 21.5504C9.35939 21.3825 9.05231 21.1017 8.85211 20.7483C7.47487 18.4952 6.68621 15.9321 6.55864 13.2945C6.51307 12.5347 6.66942 11.7764 7.01182 11.0967C7.35422 10.4169 7.87046 9.83991 8.50808 9.42428C11.2201 7.46336 14.2876 6.24209 17.401 5.10683C19.5977 4.20921 21.9714 3.82863 24.3387 3.9945C29.5793 4.56787 34.4357 6.08729 38.3575 9.79123C40.3441 11.762 41.9053 14.1193 42.9444 16.7175C44.9512 21.3388 44.5384 25.9544 42.9043 30.5413C41.9016 33.5844 39.8754 36.1859 37.1706 37.9034C37.053 37.9843 36.9436 38.0764 36.8438 38.1786C39.4928 41.1945 41.9754 44.2505 43.0247 48.1322Z" fill="#FCFCFC"/>
<path d="M23.3927 57.3116C23.2665 57.7703 22.911 57.8219 22.6244 57.9481C21.8923 58.2386 21.1175 58.4071 20.3309 58.4469C18.0691 58.6556 15.7899 58.5766 13.548 58.2118C12.5319 58.0717 11.5854 57.6165 10.8417 56.9103C10.6217 56.7432 10.4661 56.5054 10.4013 56.2368C10.3366 55.9683 10.3665 55.6857 10.4862 55.4367C10.6121 55.2021 10.823 55.0245 11.0757 54.9403C11.3283 54.8561 11.6035 54.8716 11.8451 54.9838C15.0444 55.9986 18.3814 56.205 21.6554 56.7899C22.2612 56.8575 22.8498 57.0343 23.3927 57.3116Z" fill="#FCFCFC"/>
<path d="M19.8264 7.66412C19.7002 8.0196 19.4136 8.11708 19.1842 8.23748C17.8846 9.04952 16.5451 9.79583 15.1707 10.4736C13.8697 11.0921 12.6329 11.8372 11.4782 12.6983C11.2953 12.8478 11.0876 12.9642 10.8647 13.0423C10.6882 13.1144 10.4947 13.1338 10.3075 13.0981C10.1202 13.0625 9.94733 12.9734 9.80968 12.8416C9.66409 12.702 9.5626 12.5228 9.51776 12.3261C9.47293 12.1294 9.4867 11.9239 9.5574 11.735C9.67536 11.3192 9.94557 10.963 10.3142 10.7374C13.0033 9.13767 15.8128 7.83613 18.9778 7.51504C19.2694 7.46053 19.5708 7.51349 19.8264 7.66412Z" fill="#FCFCFC"/>
<path d="M26.5462 7.43441C26.5462 7.67523 26.4602 7.78417 26.3169 7.85297C25.3125 8.32387 24.1898 8.4817 23.0946 8.30593C22.9024 8.26237 22.7302 8.15622 22.605 8.00417C22.4798 7.85211 22.4087 7.66275 22.4027 7.46586C22.3968 7.26897 22.4565 7.07569 22.5724 6.9164C22.6883 6.7571 22.8538 6.64083 23.043 6.58583C23.6538 6.47577 24.2809 6.49439 24.8841 6.64051C25.4873 6.78663 26.0534 7.05703 26.5462 7.43441Z" fill="#FCFCFC"/>
<path d="M22.934 34.7782C22.5097 35.5923 20.6119 36.4065 19.769 36.137C19.6119 36.1029 19.4668 36.0271 19.3491 35.9175C19.2314 35.8079 19.1454 35.6686 19.1002 35.5142C19.0551 35.3599 19.0523 35.1962 19.0923 35.0404C19.1323 34.8847 19.2136 34.7426 19.3276 34.6291C20.0557 33.7862 22.246 33.878 22.934 34.7782Z" fill="#FCFCFC"/>
</g>
<path d="M44.1713 46.4119C45.5531 51.5206 44.5268 56.2107 41.379 60.488C37.6923 65.4935 32.5435 67.85 26.6034 68.819C22.664 69.4557 18.633 69.2248 14.7921 68.1425C11.8519 67.3386 9.11593 65.9198 6.76495 63.9798C5.41754 62.8675 4.43136 61.5029 4.36829 59.6624C4.32242 58.6303 4.90151 57.8104 5.36594 56.9676C6.5205 54.742 8.00081 52.7013 9.75792 50.9128C10.6008 50.0872 11.3691 49.7661 12.5215 50.2649C13.8059 50.8039 14.9354 51.6639 16.2885 52.0538C19.2889 53.0097 22.4975 53.1031 25.5484 52.3233C25.7835 52.2602 26.0243 52.1857 26.2594 52.1054C27.4417 51.7684 28.4756 51.042 29.1936 50.0441C29.9117 49.0461 30.2718 47.835 30.2156 46.6068C30.1355 45.2528 29.6139 43.9624 28.7306 42.9331C27.8473 41.9038 26.651 41.1923 25.3248 40.9076C23.9928 40.7544 22.6516 40.695 21.3112 40.7298C20.3652 40.7298 19.4019 40.7298 18.6394 40.0131C18.2528 39.6627 17.9743 39.2091 17.8366 38.7059C17.8366 38.6313 17.8022 38.5625 17.7908 38.4822C17.4057 36.5505 17.4783 34.5555 18.0029 32.6568C18.1141 32.1227 18.3856 31.6351 18.781 31.2592C19.1764 30.8832 19.677 30.6367 20.2161 30.5526C21.8502 30.2315 23.5015 30.1627 25.1356 29.9792C26.6541 29.8362 28.1031 29.2745 29.3212 28.3566C31.5 26.6824 31.9128 25.077 31.3222 21.975C30.2615 16.3159 24.1609 14.871 20.3766 16.1038C18.6129 16.7187 16.9256 17.5344 15.3482 18.5348C14.3628 19.2351 13.2418 19.7215 12.0571 19.9625C11.6593 20.0444 11.2457 19.998 10.8759 19.8301C10.506 19.6622 10.199 19.3813 9.99874 19.0279C8.62151 16.7749 7.83285 14.2117 7.70528 11.5742C7.65971 10.8144 7.81605 10.0561 8.15845 9.37638C8.50085 8.69661 9.0171 8.1196 9.65472 7.70397C12.3667 5.74305 15.4342 4.52179 18.5476 3.38652C20.7444 2.4889 23.1181 2.10832 25.4853 2.27419C30.7259 2.84756 35.5823 4.36698 39.5041 8.07092C41.4907 10.0417 43.0519 12.399 44.0911 14.9972C46.0979 19.6185 45.685 24.2341 44.0509 28.821C43.0482 31.8641 41.0221 34.4656 38.3173 36.183C38.1996 36.2639 38.0902 36.3561 37.9905 36.4583C40.6394 39.4742 43.1221 42.5302 44.1713 46.4119Z" fill="#D5DF3F"/>
<path d="M44.4065 34.5032C45.9651 32.4229 47.1665 30.0977 47.9614 27.6228C50.0026 21.2068 49.1081 15.2209 45.0086 9.84845C41.9984 5.90943 37.9103 3.39808 33.266 1.74679C29.1227 0.213708 24.6445 -0.182241 20.2965 0.600058C17.2003 1.17342 14.4825 2.65844 11.7304 4.08039C10.2177 4.86324 8.84423 5.88993 7.66523 7.11923C6.30635 8.51824 5.28576 10.1294 5.42337 12.1476C5.57547 15.1622 6.6436 18.0585 8.48514 20.45C9.79241 22.1299 11.3978 23.1391 13.6454 22.5944C14.4941 22.3838 15.3156 22.076 16.0937 21.677C17.6819 20.88 19.1727 19.8881 20.8928 19.3835C23.106 18.7586 25.2504 18.8732 27.1998 20.2608C27.958 20.9079 28.5747 21.7042 29.0116 22.6001C30.038 24.2743 29.7169 25.8626 28.1287 26.9864C27.5293 27.3899 26.8636 27.6849 26.162 27.8579C24.4419 28.351 22.6014 28.2535 20.8297 28.5688C18.0317 29.0505 16.4549 30.5412 16.002 33.3507C15.7219 35.2378 15.7938 37.1604 16.2141 39.0213C16.3116 39.5201 16.432 40.0132 16.5581 40.5006C16.6848 41.0605 16.9674 41.573 17.3733 41.9789C17.7792 42.3848 18.2917 42.6674 18.8516 42.7941C20.0174 43.0994 21.2135 43.2744 22.4179 43.3158C25.3536 43.4993 27.2342 45.1621 27.5438 47.8397C27.7216 49.3247 27.2801 50.0643 25.904 50.5689C25.6448 50.6588 25.3806 50.7335 25.1127 50.7925L24.8547 50.8498C22.5162 51.2146 20.1301 51.1388 17.8195 50.6262C16.0421 50.2879 14.5112 49.3992 12.9574 48.5449C12.3919 48.1963 11.7463 47.9988 11.0825 47.9715C10.441 47.9914 9.81114 48.1485 9.2355 48.4324C8.65985 48.7162 8.15176 49.1202 7.74549 49.6171C5.51106 52.0297 3.7594 54.8479 2.5852 57.9194C1.95536 59.7542 1.98271 61.7507 2.66256 63.5675C3.34241 65.3843 4.6325 66.9083 6.31208 67.8788C7.37281 68.4522 8.44501 68.9854 9.54587 69.4842C13.404 71.1912 17.4884 72.3325 21.6726 72.8728C25.6517 73.4118 29.5334 72.6263 33.2947 71.3075C35.7775 70.4634 38.0718 69.1429 40.0489 67.4201C41.667 65.8977 43.0868 64.1775 44.2746 62.3C46.9809 58.2864 47.7148 53.7511 47.2619 49.1125C46.8147 44.6116 45.1404 40.5522 41.597 37.4101C42.6451 36.5556 43.5882 35.5798 44.4065 34.5032ZM44.1714 46.412C45.5532 51.5207 44.5269 56.2108 41.3791 60.4881C37.6924 65.4936 32.5436 67.8501 26.6035 68.8191C22.6641 69.4558 18.6331 69.2249 14.7922 68.1426C11.852 67.3387 9.11602 65.9199 6.76504 63.9799C5.41763 62.8676 4.43145 61.503 4.36838 59.6625C4.32251 58.6304 4.9016 57.8105 5.36603 56.9677C6.52059 54.7421 8.0009 52.7014 9.75801 50.9129C10.6009 50.0873 11.3692 49.7662 12.5216 50.265C13.806 50.804 14.9355 51.664 16.2886 52.0539C19.289 53.0098 22.4976 53.1032 25.5485 52.3234C25.7836 52.2603 26.0244 52.1858 26.2595 52.1055C27.4418 51.7684 28.4757 51.0421 29.1937 50.0442C29.9118 49.0462 30.2719 47.8351 30.2157 46.6069C30.1356 45.2529 29.614 43.9625 28.7307 42.9332C27.8474 41.9039 26.651 41.1924 25.3249 40.9077C23.9929 40.7545 22.6517 40.6951 21.3113 40.7299C20.3653 40.7299 19.402 40.7299 18.6394 40.0132C18.2529 39.6628 17.9744 39.2092 17.8367 38.706C17.8367 38.6314 17.8023 38.5626 17.7909 38.4823C17.4058 36.5506 17.4784 34.5555 18.003 32.6569C18.1142 32.1228 18.3857 31.6352 18.7811 31.2593C19.1765 30.8833 19.6771 30.6368 20.2162 30.5527C21.8503 30.2316 23.5016 30.1628 25.1357 29.9793C26.6542 29.8363 28.1031 29.2746 29.3213 28.3567C31.5 26.6825 31.9129 25.077 31.3223 21.9751C30.2616 16.316 24.161 14.8711 20.3767 16.1039C18.6129 16.7188 16.9257 17.5345 15.3483 18.5349C14.3629 19.2352 13.2418 19.7216 12.0572 19.9626C11.6594 20.0445 11.2458 19.9981 10.876 19.8302C10.5061 19.6623 10.199 19.3814 9.99883 19.028C8.6216 16.775 7.83294 14.2118 7.70537 11.5743C7.6598 10.8145 7.81615 10.0562 8.15854 9.37647C8.50094 8.69671 9.01719 8.1197 9.65481 7.70406C12.3668 5.74315 15.4343 4.52188 18.5477 3.38662C20.7445 2.489 23.1182 2.10842 25.4854 2.27429C30.726 2.84765 35.5824 4.36707 39.5042 8.07102C41.4908 10.0418 43.052 12.3991 44.0912 14.9973C46.0979 19.6186 45.6851 24.2342 44.051 28.8211C43.0483 31.8641 41.0222 34.4657 38.3174 36.1831C38.1997 36.264 38.0903 36.3562 37.9905 36.4584C40.6395 39.4743 43.1222 42.5303 44.1714 46.412Z" fill="#FCFCFC"/>
<path d="M24.5394 55.5914C24.4132 56.0501 24.0578 56.1017 23.7711 56.2278C23.039 56.5184 22.2642 56.6869 21.4776 56.7267C19.2158 56.9353 16.9366 56.8564 14.6947 56.4916C13.6786 56.3515 12.7321 55.8963 11.9884 55.1901C11.7684 55.023 11.6128 54.7851 11.5481 54.5166C11.4833 54.2481 11.5133 53.9655 11.6329 53.7165C11.7589 53.4819 11.9697 53.3043 12.2224 53.2201C12.475 53.1358 12.7503 53.1514 12.9918 53.2635C16.1912 54.2784 19.5282 54.4848 22.8021 55.0696C23.4079 55.1373 23.9965 55.3141 24.5394 55.5914Z" fill="#FFF4DB"/>
<path d="M20.9731 5.9439C20.847 6.29939 20.5603 6.39686 20.3309 6.51727C19.0313 7.3293 17.6918 8.07562 16.3174 8.7534C15.0165 9.37186 13.7797 10.117 12.6249 10.9781C12.442 11.1276 12.2344 11.244 12.0114 11.3221C11.835 11.3941 11.6414 11.4135 11.4542 11.3779C11.267 11.3423 11.0941 11.2532 10.9564 11.1214C10.8108 10.9818 10.7093 10.8026 10.6645 10.6059C10.6197 10.4092 10.6334 10.2037 10.7041 10.0148C10.8221 9.59897 11.0923 9.24279 11.461 9.01714C14.1501 7.41745 16.9595 6.11591 20.1245 5.79483C20.4161 5.74031 20.7176 5.79327 20.9731 5.9439Z" fill="#FFF4DB"/>
<path d="M27.6929 5.71469C27.6929 5.9555 27.6069 6.06444 27.4636 6.13324C26.4593 6.60414 25.3365 6.76197 24.2413 6.5862C24.0492 6.54265 23.877 6.4365 23.7517 6.28444C23.6265 6.13238 23.5554 5.94303 23.5495 5.74613C23.5436 5.54924 23.6032 5.35596 23.7191 5.19667C23.835 5.03738 24.0005 4.9211 24.1897 4.8661C24.8005 4.75604 25.4276 4.77466 26.0308 4.92078C26.6341 5.0669 27.2002 5.3373 27.6929 5.71469Z" fill="#FFF4DB"/>
</svg>
