<svg width="51" height="75" viewBox="0 0 51 75" fill="none" xmlns="http://www.w3.org/2000/svg">
<g style="mix-blend-mode:multiply" opacity="0.1">
<path d="M44.3666 54.538C46.1006 54.6478 46.8577 55.561 46.7999 57.3816C46.719 60.1501 46.5919 62.9186 46.4763 65.6871C46.4459 66.9334 46.3222 68.1757 46.1064 69.4035C45.8636 70.6924 45.4879 71.0392 44.1759 71.1375C39.7139 71.4438 35.2635 71.2184 30.8073 71.0912C29.3739 71.045 27.9463 71.0912 26.5129 71.0912C20.8603 70.7849 15.1961 70.7964 9.54353 70.756C7.77493 70.756 7.68824 70.6866 7.42237 68.9411C6.95629 65.9438 7.20179 62.8789 8.13906 59.9941C9.5551 55.6303 11.9421 51.8215 14.6586 48.186C16.7914 45.3366 19.1495 42.6721 21.3921 39.9151C23.23 37.8042 24.717 35.4117 25.7963 32.8291C26.2723 31.7202 26.4816 30.515 26.4074 29.3104C26.3331 28.1059 25.9773 26.9355 25.3685 25.8934C24.0276 23.5815 21.6637 23.0035 19.1842 24.2173C17.2389 25.2504 15.5333 26.6822 14.1789 28.4192C13.2008 29.5879 12.2899 30.8113 11.4509 32.0836C10.8151 33.0372 10.5781 33.0892 9.57821 32.5228C6.19127 30.6155 3.79846 27.7487 1.93737 24.4311C1.44609 23.5584 1.62527 22.5932 1.93737 21.6684C2.30048 20.5368 2.77682 19.4446 3.35919 18.4086C3.94519 17.3736 4.60582 16.3826 5.33586 15.4436C7.8963 12.0971 10.8729 9.25347 14.676 7.35193C19.1304 5.02582 24.1777 4.08198 29.1716 4.64122C33.362 5.1325 37.0032 6.75661 39.5174 10.3458C41.0491 12.5479 41.5346 15.0737 41.708 17.6862C42.0085 22.2811 40.8641 26.6159 39.2111 30.8409C37.3038 35.7075 34.8358 40.3082 32.391 44.9204C30.9539 47.6604 29.3798 50.3263 27.6747 52.9081C27.5694 53.0533 27.509 53.2262 27.5008 53.4053C27.4926 53.5845 27.537 53.7622 27.6286 53.9164C27.7202 54.0706 27.8548 54.1947 28.0161 54.2733C28.1773 54.3519 28.358 54.3816 28.5359 54.3588C30.0617 54.3588 31.5818 54.2779 33.1019 54.249C33.7145 54.249 34.3272 54.249 34.9398 54.249C38.0725 54.1738 41.2225 54.3241 44.3666 54.538Z" fill="#FCFCFC"/>
<path d="M48.5281 54.8673C48.2543 54.3735 47.8612 53.9561 47.3847 53.6532C46.9082 53.3503 46.3634 53.1716 45.8 53.1333C42.1916 52.7464 38.5626 52.5843 34.9341 52.6478H34.0787C33.1886 52.6478 32.2985 52.6478 31.3275 52.6478C31.6916 51.9485 32.0268 51.278 32.3967 50.6191C34.9745 45.9953 37.7373 41.4409 40.1474 36.7072C42.4304 32.2279 44.3031 27.6503 44.6036 22.5468C44.8001 19.2408 44.6383 15.9868 43.4477 12.8541C41.6213 7.93555 37.8644 5.03989 33.0441 3.41577C29.1774 2.10376 25.2009 2.30028 21.2649 3.13256C15.3925 4.31378 10.0647 7.37539 6.08724 11.8542C4.42794 13.6442 2.98467 15.6229 1.78709 17.7496C1.26757 18.7287 0.830637 19.7495 0.480853 20.8013C-0.0229981 22.0039 -0.134242 23.3349 0.162973 24.6044C0.912253 27.3083 2.24381 29.8155 4.06432 31.9505C5.39272 33.5683 7.11414 34.8181 9.06382 35.5802C10.8787 36.2449 12.6819 36.2506 13.9535 34.3202C14.3465 33.7422 14.7511 33.1353 15.1441 32.54C16.2959 30.7005 17.7588 29.0753 19.4674 27.737C20.4405 26.9324 21.6731 26.5092 22.9353 26.5464C23.8253 26.6042 24.1259 26.9163 24.3224 27.7891C24.605 29.1047 24.4903 30.4747 23.993 31.7251C23.1001 33.9097 21.8992 35.9552 20.4268 37.7996C17.878 41.227 15.0574 44.4521 12.5606 47.92C10.0637 51.3879 7.86163 54.9886 6.4687 59.0518C5.02954 63.2422 4.73477 67.4209 6.33576 71.6459C6.50796 72.1993 6.82946 72.6944 7.26489 73.0768C7.70031 73.4592 8.23278 73.7141 8.80372 73.8134C10.5618 74.0895 12.3431 74.1902 14.1211 74.1139C17.7681 74.1139 21.4152 73.9867 25.0622 74.0041C28.8075 74.0041 32.5759 74.1544 36.2865 74.2006C39.2418 74.3086 42.2009 74.1791 45.1354 73.8134C46.5803 73.5937 47.8692 73.2007 48.5223 71.6806C48.739 71.0514 48.8731 70.3966 48.9211 69.7328C49.4353 66.4261 49.7422 63.0904 49.8401 59.7454C49.8918 58.0257 49.4354 56.329 48.5281 54.8673ZM46.5052 65.687C46.4747 66.9333 46.3511 68.1756 46.1353 69.4034C45.8925 70.6923 45.5168 71.0391 44.2048 71.1373C39.7428 71.4436 35.2924 71.2182 30.8362 71.0911C29.4028 71.0448 27.9752 71.0911 26.5418 71.0911C20.8892 70.7848 15.2251 70.7963 9.57244 70.7559C7.80383 70.7559 7.71712 70.6865 7.45125 68.941C6.98518 65.9437 7.2307 62.8788 8.16796 59.9939C9.584 55.6302 11.971 51.8213 14.6875 48.1859C16.8203 45.3364 19.1784 42.672 21.421 39.915C23.2589 37.804 24.7459 35.4116 25.8251 32.829C26.3012 31.72 26.5105 30.5148 26.4362 29.3103C26.362 28.1057 26.0062 26.9354 25.3974 25.8933C24.0565 23.5814 21.6926 23.0034 19.2131 24.2172C17.2678 25.2503 15.5622 26.6821 14.2078 28.4191C13.2296 29.5877 12.3188 30.8112 11.4798 32.0834C10.844 33.0371 10.607 33.0891 9.60711 32.5227C6.22017 30.6154 3.82734 27.7486 1.96626 24.431C1.47498 23.5583 1.65415 22.593 1.96626 21.6683C2.32936 20.5366 2.80571 19.4445 3.38808 18.4085C3.97407 17.3734 4.63472 16.3825 5.36477 15.4435C7.9252 12.097 10.9018 9.25334 14.7049 7.35179C19.1593 5.02569 24.2065 4.08184 29.2005 4.64108C33.3909 5.13236 37.0321 6.75648 39.5463 10.3457C41.078 12.5478 41.5635 15.0736 41.7369 17.686C42.0374 22.2809 40.893 26.6158 39.24 30.8408C37.3327 35.7073 34.8647 40.308 32.4199 44.9203C30.9828 47.6603 29.4087 50.3262 27.7036 52.9079C27.5983 53.0532 27.5379 53.226 27.5297 53.4052C27.5215 53.5844 27.5659 53.762 27.6575 53.9163C27.7491 54.0705 27.8837 54.1946 28.0449 54.2732C28.2062 54.3518 28.3869 54.3815 28.5648 54.3587C30.0906 54.3587 31.6107 54.2777 33.1308 54.2488C33.7434 54.2488 34.3561 54.2488 34.9687 54.2488C38.1245 54.2488 41.2745 54.4107 44.4187 54.613C46.1526 54.7228 46.9097 55.636 46.852 57.4566C46.719 60.15 46.5919 62.9185 46.4763 65.687H46.5052Z" fill="#FCFCFC"/>
<path d="M14.0344 12.2762C13.9842 12.6466 13.8064 12.9879 13.5316 13.2414C12.5381 14.4855 11.4748 15.6722 10.3469 16.7959C8.56492 18.4788 7.05568 20.4287 5.87339 22.5757C5.71827 22.8599 5.52368 23.1206 5.29541 23.3502C5.15982 23.5168 4.9739 23.635 4.76552 23.6871C4.55713 23.7392 4.3375 23.7224 4.13946 23.6392C3.9444 23.5652 3.77558 23.4352 3.65422 23.2655C3.53287 23.0958 3.46439 22.894 3.45743 22.6855C3.4247 22.174 3.54116 21.664 3.79267 21.2175C5.54198 17.7548 8.25586 14.8723 11.6069 12.9177C12.3075 12.4081 13.1735 12.1793 14.0344 12.2762Z" fill="#FCFCFC"/>
<path d="M38.7718 57.3121C38.2879 57.6238 37.7334 57.8087 37.1592 57.8496C34.7703 58.2816 32.3444 58.4752 29.9172 58.4276C29.4311 58.4477 28.9469 58.3568 28.5012 58.1617C28.3264 58.0969 28.1743 57.9826 28.0634 57.8327C27.9526 57.6829 27.8878 57.504 27.8769 57.3179C27.8688 57.1205 27.9194 56.9251 28.0223 56.7564C28.1252 56.5877 28.2757 56.4532 28.4549 56.37C28.8115 56.1824 29.208 56.0833 29.6109 56.081C32.1297 55.9605 34.6538 56.1547 37.1246 56.659C37.7172 56.7446 38.2815 56.9683 38.7718 57.3121Z" fill="#FCFCFC"/>
<path d="M19.2479 8.42119C19.2987 8.54688 19.3099 8.68512 19.28 8.81735C19.25 8.94959 19.1803 9.0695 19.0803 9.161C18.5359 9.87974 17.8417 10.4714 17.0458 10.8949C16.6065 11.1203 16.1268 11.2186 15.8031 10.7504C15.4795 10.2823 15.728 9.88347 16.0921 9.53668C16.5063 9.13383 17.0029 8.82552 17.5477 8.63295C18.0925 8.44038 18.6725 8.36814 19.2479 8.42119Z" fill="#FCFCFC"/>
</g>
<path d="M45.5226 52.8041C47.2566 52.9139 48.0137 53.8271 47.9559 55.6477C47.875 58.4162 47.7479 61.1847 47.6323 63.9533C47.6019 65.1995 47.4782 66.4418 47.2624 67.6696C47.0196 68.9585 46.6439 69.3053 45.3319 69.4036C40.8699 69.7099 36.4195 69.4845 31.9633 69.3573C30.5299 69.3111 29.1023 69.3573 27.669 69.3573C22.0163 69.051 16.3522 69.0626 10.6995 69.0221C8.93093 69.0221 8.84424 68.9527 8.57838 67.2073C8.1123 64.21 8.3578 61.1451 9.29506 58.2602C10.7111 53.8964 13.0981 50.0876 15.8146 46.4521C17.9474 43.6027 20.3055 40.9382 22.5481 38.1813C24.386 36.0703 25.873 33.6778 26.9523 31.0953C27.4283 29.9863 27.6376 28.7811 27.5634 27.5765C27.4891 26.372 27.1333 25.2016 26.5246 24.1595C25.1836 21.8476 22.8197 21.2697 20.3402 22.4834C18.3949 23.5165 16.6893 24.9483 15.3349 26.6853C14.3568 27.854 13.4459 29.0774 12.6069 30.3497C11.9711 31.3033 11.7341 31.3554 10.7342 30.7889C7.34727 28.8816 4.95447 26.0148 3.09338 22.6973C2.6021 21.8245 2.78127 20.8593 3.09338 19.9345C3.45648 18.8029 3.93283 17.7108 4.5152 16.6747C5.1012 15.6397 5.76183 14.6487 6.49187 13.7097C9.05231 10.3632 12.0289 7.51958 15.832 5.61804C20.2864 3.29193 25.3337 2.34809 30.3277 2.90733C34.518 3.39861 38.1592 5.02272 40.6734 8.61196C42.2051 10.8141 42.6906 13.3398 42.864 15.9523C43.1645 20.5472 42.0201 24.882 40.3671 29.107C38.4598 33.9736 35.9918 38.5743 33.547 43.1865C32.1099 45.9265 30.5358 48.5924 28.8307 51.1742C28.7255 51.3194 28.665 51.4923 28.6568 51.6714C28.6486 51.8506 28.693 52.0283 28.7846 52.1825C28.8762 52.3367 29.0109 52.4608 29.1721 52.5394C29.3333 52.618 29.514 52.6477 29.6919 52.6249C31.2177 52.6249 32.7378 52.544 34.2579 52.5151C34.8705 52.5151 35.4832 52.5151 36.0958 52.5151C39.2285 52.4399 42.3785 52.5902 45.5226 52.8041Z" fill="#F273AE"/>
<path d="M49.684 53.1334C49.4102 52.6396 49.0171 52.2222 48.5406 51.9193C48.064 51.6164 47.5192 51.4377 46.9559 51.3995C43.3475 51.0126 39.7185 50.8504 36.09 50.914H35.2345C34.3445 50.914 33.4544 50.914 32.4834 50.914C32.8475 50.2146 33.1827 49.5441 33.5526 48.8853C36.1304 44.2614 38.8931 39.707 41.3033 34.9734C43.5863 30.494 45.459 25.9165 45.7595 20.8129C45.956 17.5069 45.7942 14.2529 44.6035 11.1202C42.7771 6.20166 39.0203 3.306 34.2 1.68188C30.3333 0.369876 26.3568 0.566389 22.4208 1.39868C16.5484 2.57989 11.2205 5.64151 7.24312 10.1203C5.58383 11.9103 4.14055 13.889 2.94297 16.0157C2.42345 16.9949 1.98652 18.0156 1.63674 19.0674C1.13289 20.27 1.02164 21.601 1.31886 22.8705C2.06814 25.5744 3.39969 28.0816 5.2202 30.2166C6.5486 31.8344 8.27003 33.0842 10.2197 33.8463C12.0345 34.511 13.8378 34.5168 15.1094 32.5863C15.5024 32.0083 15.907 31.4015 16.3 30.8061C17.4518 28.9666 18.9147 27.3414 20.6233 26.0032C21.5964 25.1985 22.829 24.7753 24.0911 24.8125C24.9812 24.8703 25.2818 25.1824 25.4783 26.0552C25.7609 27.3708 25.6462 28.7408 25.1488 29.9912C24.256 32.1758 23.0551 34.2214 21.5827 36.0657C19.0338 39.4931 16.2133 42.7182 13.7165 46.1861C11.2196 49.654 9.01751 53.2548 7.62459 57.3179C6.18542 61.5083 5.89065 65.687 7.49165 69.9121C7.66384 70.4654 7.98534 70.9605 8.42077 71.3429C8.8562 71.7253 9.38867 71.9802 9.9596 72.0795C11.7177 72.3556 13.499 72.4563 15.277 72.38C18.924 72.38 22.5711 72.2529 26.2181 72.2702C29.9634 72.2702 33.7318 72.4205 37.4424 72.4667C40.3976 72.5747 43.3568 72.4452 46.2912 72.0795C47.7362 71.8598 49.0251 71.4668 49.6782 69.9467C49.8949 69.3175 50.029 68.6628 50.077 67.999C50.5912 64.6922 50.8981 61.3566 50.996 58.0115C51.0477 56.2919 50.5913 54.5951 49.684 53.1334ZM47.661 63.9531C47.6306 65.1994 47.507 66.4417 47.2911 67.6695C47.0484 68.9584 46.6727 69.3052 45.3607 69.4034C40.8987 69.7098 36.4483 69.4844 31.9921 69.3572C30.5587 69.311 29.1311 69.3572 27.6977 69.3572C22.0451 69.0509 16.3809 69.0624 10.7283 69.022C8.95971 69.022 8.87301 68.9526 8.60714 67.2071C8.14106 64.2098 8.38658 61.1449 9.32384 58.26C10.7399 53.8963 13.1269 50.0874 15.8434 46.452C17.9762 43.6025 20.3343 40.9381 22.5768 38.1811C24.4148 36.0701 25.9018 33.6777 26.981 31.0951C27.4571 29.9861 27.6664 28.781 27.5921 27.5764C27.5178 26.3718 27.1621 25.2015 26.5533 24.1594C25.2124 21.8475 22.8485 21.2695 20.369 22.4833C18.4237 23.5164 16.7181 24.9482 15.3637 26.6852C14.3855 27.8539 13.4747 29.0773 12.6356 30.3495C11.9999 31.3032 11.7629 31.3552 10.763 30.7888C7.37605 28.8815 4.98323 26.0147 3.12214 22.6971C2.63086 21.8244 2.81003 20.8592 3.12214 19.9344C3.48524 18.8027 3.96159 17.7106 4.54396 16.6746C5.12996 15.6396 5.79061 14.6486 6.52065 13.7096C9.08109 10.3631 12.0577 7.51945 15.8608 5.61791C20.3152 3.2918 25.3624 2.34796 30.3564 2.9072C34.5467 3.39848 38.188 5.02259 40.7022 8.61183C42.2338 10.8139 42.7193 13.3397 42.8927 15.9521C43.1933 20.5471 42.0489 24.8819 40.3959 29.1069C38.4885 33.9735 36.0206 38.5742 33.5757 43.1864C32.1386 45.9264 30.5646 48.5923 28.8595 51.174C28.7542 51.3193 28.6938 51.4921 28.6856 51.6713C28.6774 51.8505 28.7218 52.0281 28.8134 52.1824C28.9049 52.3366 29.0396 52.4607 29.2008 52.5393C29.362 52.6179 29.5427 52.6476 29.7206 52.6248C31.2465 52.6248 32.7666 52.5438 34.2866 52.515C34.8993 52.515 35.512 52.515 36.1246 52.515C39.2804 52.515 42.4304 52.6768 45.5746 52.8791C47.3085 52.9889 48.0656 53.9021 48.0078 55.7227C47.8749 58.4161 47.7477 61.1846 47.6322 63.9531H47.661Z" fill="#FCFCFC"/>
<path d="M15.1904 10.5423C15.1402 10.9127 14.9624 11.254 14.6876 11.5075C13.6941 12.7516 12.6308 13.9384 11.5029 15.062C9.72092 16.7449 8.21169 18.6948 7.02939 20.8418C6.87428 21.126 6.67969 21.3867 6.45142 21.6163C6.31582 21.7829 6.12991 21.9011 5.92152 21.9532C5.71314 22.0053 5.4935 21.9885 5.29546 21.9053C5.10041 21.8313 4.93158 21.7013 4.81023 21.5316C4.68888 21.3619 4.6204 21.1601 4.61344 20.9516C4.5807 20.4401 4.69717 19.9302 4.94867 19.4836C6.69798 16.0209 9.41186 13.1384 12.7629 11.1838C13.4635 10.6743 14.3295 10.4454 15.1904 10.5423Z" fill="#FFF4DB"/>
<path d="M39.9278 55.5782C39.444 55.89 38.8894 56.0748 38.3153 56.1157C35.9263 56.5477 33.5004 56.7414 31.0732 56.6937C30.5871 56.7138 30.1029 56.6229 29.6572 56.4279C29.4824 56.363 29.3303 56.2487 29.2194 56.0989C29.1086 55.949 29.0438 55.7701 29.0329 55.584C29.0248 55.3866 29.0754 55.1912 29.1783 55.0225C29.2812 54.8538 29.4317 54.7193 29.6109 54.6361C29.9675 54.4486 30.364 54.3494 30.7669 54.3471C33.2857 54.2267 35.8098 54.4208 38.2806 54.9251C38.8732 55.0107 39.4375 55.2344 39.9278 55.5782Z" fill="#FFF4DB"/>
<path d="M20.4038 6.6873C20.4546 6.81299 20.4658 6.95123 20.4359 7.08347C20.4059 7.2157 20.3362 7.33562 20.2361 7.42711C19.6918 8.14586 18.9976 8.73752 18.2017 9.16105C17.7624 9.38646 17.2827 9.48471 16.959 9.01655C16.6353 8.54839 16.8839 8.14958 17.248 7.8028C17.6622 7.39995 18.1588 7.09163 18.7036 6.89906C19.2484 6.7065 19.8284 6.63425 20.4038 6.6873Z" fill="#FFF4DB"/>
</svg>
