<svg width="70" height="91" viewBox="0 0 70 91" fill="none" xmlns="http://www.w3.org/2000/svg">
<path d="M34.6815 6.8648H67.1338C67.1338 6.8383 67.1329 6.82031 67.1329 6.82031H2.84058V6.8648H33.1556H34.6815Z" fill="#E3ECF1"/>
<path d="M67.1348 6.86475C67.1499 7.38061 67.3042 11.4366 67.1339 14.7088C66.8215 20.6749 67.6308 26.2567 65.2729 47.2066C62.9142 68.1565 60.101 74.1538 58.0584 77.1743C56.0157 80.1956 51.6767 84.1115 35.027 84.528C18.3782 84.9445 13.264 78.719 11.3661 76.3422C10.1886 74.8675 7.06503 68.9885 4.98452 52.617C2.90212 36.2456 2.55473 21.7047 2.55473 21.7047L2.83964 6.86475H-0.00378418C-0.00378418 6.86475 -0.00378418 24.5169 1.38385 43.941C3.39243 72.061 11.6511 84.528 11.6511 84.528C11.6511 84.528 13.0406 90.4827 35.3024 90.4827C55.9684 90.4827 58.3433 84.528 58.3433 84.528C58.3433 84.528 66.6019 72.061 68.6105 43.941C69.9981 24.5169 69.9981 6.86475 69.9981 6.86475H67.1357H67.1348Z" fill="#B4E2EA"/>
<path d="M4.98353 52.617C7.06498 68.9885 10.1886 74.8666 11.3651 76.3422C13.263 78.719 18.3772 84.9445 35.026 84.528C51.6748 84.1115 56.0138 80.1956 58.0574 77.1743C60.1 74.1529 62.9132 68.1565 65.2719 47.2066C67.6307 26.2567 66.8214 20.6749 67.1329 14.7088C67.3042 11.4366 67.1499 7.38061 67.1338 6.86475H2.8396L2.55469 21.7047C2.55469 21.7047 2.90112 36.2456 4.98258 52.617H4.98353Z" fill="#E4EFF3"/>
<path opacity="0.33" d="M8.30122 44.611C9.98323 61.8428 12.8664 71.2648 13.9105 71.2184C15.158 71.1635 14.5977 60.4174 14.5977 42.5371C14.5977 23.5654 16.7832 16.0347 15.743 16.0347C14.7027 16.0347 8.71959 15.2822 7.53357 14.8828C6.68925 14.5988 6.63719 27.5513 8.30122 44.611Z" fill="white"/>
<path d="M34.8112 0.904541C15.3786 0.904541 -0.00378418 3.57286 -0.00378418 6.86495C-0.00378418 10.157 15.3786 12.8254 34.8112 12.8254C54.2438 12.8254 69.9972 10.157 69.9972 6.86495C69.9972 3.57286 54.2438 0.904541 34.8112 0.904541ZM35.629 10.8688C17.992 10.8688 2.84059 9.0562 2.84059 6.82046C2.84059 4.58472 17.992 2.77208 35.629 2.77208C53.266 2.77208 67.1329 4.58472 67.1329 6.82046C67.1329 9.0562 53.266 10.8688 35.629 10.8688Z" fill="#C8E9EE"/>
<path d="M35.6288 2.77222C17.9918 2.77222 2.84045 4.58485 2.84045 6.8206C2.84045 9.05634 17.9928 10.869 35.6288 10.869C53.2649 10.869 67.1328 9.05634 67.1328 6.8206C67.1328 4.58485 53.2659 2.77222 35.6288 2.77222Z" fill="#E9F3F7"/>
</svg>
