<svg width="25" height="24" viewBox="0 0 25 24" fill="none" xmlns="http://www.w3.org/2000/svg">
<path d="M18.3333 3.16667H17.5V2.33333C17.5 1.87333 17.1275 1.5 16.6667 1.5C16.2058 1.5 15.8333 1.87333 15.8333 2.33333V3.16667H9.16667V2.33333C9.16667 1.87333 8.79417 1.5 8.33333 1.5C7.8725 1.5 7.5 1.87333 7.5 2.33333V3.16667H6.66667C4.36917 3.16667 2.5 5.03583 2.5 7.33333V17.3333C2.5 19.6308 4.36917 21.5 6.66667 21.5H18.3333C20.6308 21.5 22.5 19.6308 22.5 17.3333V7.33333C22.5 5.03583 20.6308 3.16667 18.3333 3.16667ZM6.66667 4.83333H18.3333C19.7117 4.83333 20.8333 5.955 20.8333 7.33333V8.16667H4.16667V7.33333C4.16667 5.955 5.28833 4.83333 6.66667 4.83333ZM18.3333 19.8333H6.66667C5.28833 19.8333 4.16667 18.7117 4.16667 17.3333V9.83333H20.8333V17.3333C20.8333 18.7117 19.7117 19.8333 18.3333 19.8333ZM18.3333 13.1667C18.3333 13.6267 17.9608 14 17.5 14H7.5C7.03917 14 6.66667 13.6267 6.66667 13.1667C6.66667 12.7067 7.03917 12.3333 7.5 12.3333H17.5C17.9608 12.3333 18.3333 12.7067 18.3333 13.1667ZM12.5 16.5C12.5 16.96 12.1275 17.3333 11.6667 17.3333H7.5C7.03917 17.3333 6.66667 16.96 6.66667 16.5C6.66667 16.04 7.03917 15.6667 7.5 15.6667H11.6667C12.1275 15.6667 12.5 16.04 12.5 16.5Z" fill="#707070"/>
</svg>
