<svg width="12" height="16" viewBox="0 0 12 16" fill="none" xmlns="http://www.w3.org/2000/svg">
<path d="M6.54867 5.922L6.35267 6.07867C6.14267 6.246 5.84334 6.24667 5.63267 6.08L5.43267 5.922C4.74867 5.38067 4.278 4.79933 4.03334 4.194C3.96134 4.01533 3.98267 3.81267 4.09 3.65333C4.198 3.494 4.37734 3.398 4.57 3.398H5.99134H7.412C7.60467 3.398 7.78467 3.494 7.892 3.65333C7.99934 3.81267 8.02067 4.01533 7.94867 4.194C7.70467 4.79667 7.23334 5.378 6.54867 5.922ZM11.968 12.75C12.092 13.574 11.848 14.412 11.3007 15.048C10.7447 15.6933 9.93867 16.0633 9.088 16.0633H2.912C2.062 16.0633 1.25534 15.6927 0.700004 15.048C0.151337 14.4107 -0.0919963 13.5727 0.0320037 12.7467C0.28667 11.052 1.168 9.48067 2.656 8.06333C1.168 6.64667 0.28667 5.07533 0.0320037 3.38C-0.0919963 2.55467 0.151337 1.716 0.700004 1.07933C1.25534 0.434667 2.062 0.0646667 2.912 0.0646667H9.088C9.938 0.0646667 10.7447 0.434667 11.3007 1.07933C11.8487 1.716 12.092 2.55333 11.968 3.378C11.7153 5.068 10.8333 6.64067 9.34134 8.064C10.8333 9.488 11.716 11.0593 11.968 12.75ZM9.99 13.046C9.76734 11.5567 8.82667 10.1433 7.196 8.846C6.95734 8.65667 6.81867 8.368 6.81867 8.06333C6.81867 7.75867 6.95734 7.47 7.196 7.28067C8.82734 5.98333 9.76734 4.57067 9.99 3.08133C10.0407 2.74133 9.88334 2.498 9.78467 2.384C9.60934 2.18 9.35534 2.06333 9.088 2.06333H2.912C2.64467 2.06333 2.39067 2.18067 2.21534 2.384C2.11667 2.49867 1.95867 2.742 2.01 3.08267C2.23467 4.57867 3.17467 5.99067 4.80267 7.27867C5.042 7.468 5.182 7.75733 5.182 8.06267C5.182 8.368 5.042 8.65733 4.80267 8.84667C3.17467 10.1353 2.23467 11.5467 2.01 13.0427C1.95867 13.384 2.11667 13.6267 2.216 13.7413C2.39134 13.9453 2.64534 14.062 2.91267 14.062H9.08867C9.356 14.062 9.61 13.9453 9.78534 13.742C9.884 13.628 10.0413 13.3847 9.99067 13.0453L9.99 13.046Z" fill="#CCCCCC"/>
</svg>
