<svg width="16" height="17" viewBox="0 0 16 17" fill="none" xmlns="http://www.w3.org/2000/svg">
<path d="M11.9929 7.34334C12.1897 7.34334 12.3757 7.25225 12.4961 7.09682C12.6165 6.94139 12.6585 6.73882 12.6101 6.54835C12.412 5.77311 12.0082 5.06475 11.4425 4.49909L9.22251 2.27911C8.38038 1.43698 7.26052 0.973236 6.06931 0.973236H3.1932C1.4376 0.973236 0.00878906 2.40205 0.00878906 4.15829V13.0764C0.00878906 14.8327 1.4376 16.2615 3.19384 16.2615H5.10487C5.4565 16.2615 5.74188 15.9761 5.74188 15.6245C5.74188 15.2728 5.4565 14.9875 5.10487 14.9875H3.19384C2.14023 14.9875 1.28281 14.1301 1.28281 13.0764V4.15829C1.28281 3.10467 2.14023 2.24726 3.19384 2.24726H6.06994C6.17378 2.24726 6.27697 2.25235 6.37889 2.26191V5.43231C6.37889 6.48593 7.23631 7.34334 8.28993 7.34334H11.9929ZM7.65292 5.43231V2.66705C7.89434 2.80592 8.11921 2.97791 8.32178 3.18048L10.5418 5.40046C10.7418 5.60048 10.9131 5.82598 11.0533 6.06932H8.28993C7.93893 6.06932 7.65292 5.7833 7.65292 5.43231ZM14.7377 8.54028C14.0154 7.81791 12.7566 7.81791 12.0349 8.54028L7.76248 12.8127C7.28154 13.2937 7.0159 13.9339 7.0159 14.6148V15.6251C7.0159 15.9767 7.30129 16.2621 7.65292 16.2621H8.66321C9.34418 16.2621 9.98374 15.9965 10.4647 15.5155L14.7371 11.2431C15.0983 10.8819 15.297 10.4023 15.297 9.89138C15.297 9.3805 15.0983 8.90083 14.7377 8.54028ZM13.8364 10.3417L9.56331 14.6142C9.32316 14.855 9.00338 14.9875 8.66258 14.9875H8.28929V14.6142C8.28929 14.274 8.42179 13.9542 8.66258 13.7134L12.9356 9.44102C13.1758 9.20023 13.5956 9.20023 13.8364 9.44102C13.9568 9.56077 14.023 9.72066 14.023 9.89138C14.023 10.0621 13.9568 10.2214 13.8364 10.3417Z" fill="#6B6B6B"/>
</svg>
