<svg width="16" height="16" viewBox="0 0 16 16" fill="none" xmlns="http://www.w3.org/2000/svg">
<path d="M8.17569 13.7332C8.17569 14.0854 7.8903 14.3702 7.53866 14.3702H3.71644C1.96012 14.3702 0.53125 12.9413 0.53125 11.185V3.54056C0.53125 1.78425 1.96012 0.355377 3.71644 0.355377H11.3609C13.1172 0.355377 14.5461 1.78425 14.5461 3.54056V7.36278C14.5461 7.71507 14.2607 7.99982 13.909 7.99982C13.5574 7.99982 13.272 7.71507 13.272 7.36278V3.54056C13.272 2.4869 12.4145 1.62945 11.3609 1.62945H3.71644C2.66278 1.62945 1.80532 2.4869 1.80532 3.54056V7.9737L3.59412 6.1849C4.57007 5.20833 6.1582 5.20833 7.13478 6.1849L10.5372 9.58732C10.7863 9.8364 10.7863 10.239 10.5372 10.4881C10.413 10.6123 10.2499 10.6747 10.0868 10.6747C9.92372 10.6747 9.76064 10.6123 9.63642 10.4881L6.23401 7.08567C5.75495 6.60726 4.97522 6.60662 4.49489 7.08567L1.80532 9.77524V11.185C1.80532 12.2387 2.66278 13.0961 3.71644 13.0961H7.53866C7.8903 13.0961 8.17569 13.3809 8.17569 13.7332ZM10.0868 2.58501C11.1405 2.58501 11.9979 3.44246 11.9979 4.49612C11.9979 5.54978 11.1405 6.40723 10.0868 6.40723C9.03315 6.40723 8.17569 5.54978 8.17569 4.49612C8.17569 3.44246 9.03315 2.58501 10.0868 2.58501ZM10.0868 3.85908C9.7358 3.85908 9.44977 4.14447 9.44977 4.49612C9.44977 4.84776 9.7358 5.13315 10.0868 5.13315C10.4378 5.13315 10.7238 4.84776 10.7238 4.49612C10.7238 4.14447 10.4378 3.85908 10.0868 3.85908ZM15.1831 11.822H13.272V9.91093C13.272 9.55865 12.9866 9.2739 12.635 9.2739C12.2833 9.2739 11.9979 9.55865 11.9979 9.91093V11.822H10.0868C9.73516 11.822 9.44977 12.1068 9.44977 12.4591C9.44977 12.8114 9.73516 13.0961 10.0868 13.0961H11.9979V15.0072C11.9979 15.3595 12.2833 15.6443 12.635 15.6443C12.9866 15.6443 13.272 15.3595 13.272 15.0072V13.0961H15.1831C15.5347 13.0961 15.8201 12.8114 15.8201 12.4591C15.8201 12.1068 15.5347 11.822 15.1831 11.822Z" fill="#1E1E1E"/>
</svg>
