<svg width="24" height="24" viewBox="0 0 24 24" fill="none" xmlns="http://www.w3.org/2000/svg">
<path d="M21.7309 9.43714L15.094 2.7994C14.2726 1.98039 13.16 1.52048 12 1.52048C10.8401 1.52048 9.72743 1.98039 8.90602 2.7994L2.26915 9.43714C2.02452 9.6802 1.83057 9.9694 1.69855 10.288C1.56652 10.6066 1.49904 10.9482 1.50003 11.293V19.8829C1.50003 20.5791 1.77659 21.2468 2.26887 21.739C2.76115 22.2313 3.42883 22.5079 4.12502 22.5079H19.875C20.5712 22.5079 21.2389 22.2313 21.7312 21.739C22.2234 21.2468 22.5 20.5791 22.5 19.8829V11.293C22.501 10.9482 22.4335 10.6066 22.3015 10.288C22.1695 9.9694 21.9755 9.6802 21.7309 9.43714ZM14.625 20.7579H9.37502V17.3156C9.37502 16.6194 9.65158 15.9518 10.1439 15.4595C10.6361 14.9672 11.3038 14.6906 12 14.6906C12.6962 14.6906 13.3639 14.9672 13.8562 15.4595C14.3485 15.9518 14.625 16.6194 14.625 17.3156V20.7579ZM20.75 19.8829C20.75 20.1149 20.6578 20.3375 20.4937 20.5016C20.3296 20.6657 20.1071 20.7579 19.875 20.7579H16.375V17.3156C16.375 16.1553 15.9141 15.0425 15.0936 14.222C14.2731 13.4016 13.1603 12.9406 12 12.9406C10.8397 12.9406 9.7269 13.4016 8.90643 14.222C8.08596 15.0425 7.62502 16.1553 7.62502 17.3156V20.7579H4.12502C3.89296 20.7579 3.6704 20.6657 3.50631 20.5016C3.34221 20.3375 3.25002 20.1149 3.25002 19.8829V11.293C3.25084 11.0611 3.34294 10.8389 3.5064 10.6744L10.1433 4.03927C10.6365 3.54834 11.3041 3.27272 12 3.27272C12.6959 3.27272 13.3635 3.54834 13.8568 4.03927L20.4936 10.677C20.6565 10.8409 20.7485 11.062 20.75 11.293V19.8829Z" fill="#707070"/>
</svg>
