<svg width="17" height="17" viewBox="0 0 17 17" fill="none" xmlns="http://www.w3.org/2000/svg">
<path d="M15.3951 6.99546L12.8087 4.40905C12.6829 4.28759 12.5145 4.22038 12.3397 4.2219C12.1649 4.22342 11.9976 4.29354 11.874 4.41717C11.7504 4.54079 11.6803 4.70803 11.6787 4.88285C11.6772 5.05768 11.7444 5.22611 11.8659 5.35186L14.4523 7.93828C14.5291 8.01664 14.5963 8.10395 14.6523 8.19832C14.6423 8.19832 14.6343 8.19299 14.6243 8.19299L4.16665 8.21432C3.98981 8.21432 3.82022 8.28457 3.69517 8.40962C3.57013 8.53466 3.49988 8.70426 3.49988 8.88109C3.49988 9.05793 3.57013 9.22753 3.69517 9.35257C3.82022 9.47762 3.98981 9.54787 4.16665 9.54787L14.6203 9.52653C14.639 9.52653 14.6543 9.5172 14.6723 9.51586C14.6132 9.62865 14.5382 9.73239 14.4496 9.82391L11.8632 12.4103C11.7995 12.4718 11.7487 12.5454 11.7138 12.6268C11.6788 12.7081 11.6605 12.7956 11.6597 12.8841C11.6589 12.9727 11.6758 13.0605 11.7093 13.1424C11.7428 13.2244 11.7923 13.2988 11.855 13.3614C11.9176 13.424 11.992 13.4735 12.0739 13.5071C12.1559 13.5406 12.2437 13.5574 12.3322 13.5567C12.4208 13.5559 12.5083 13.5375 12.5896 13.5026C12.671 13.4676 12.7445 13.4168 12.806 13.3531L15.3924 10.7667C15.8925 10.2666 16.1733 9.58831 16.1733 8.88109C16.1733 8.17388 15.8925 7.49561 15.3924 6.99546H15.3951Z" fill="#E03138"/>
<path d="M4.84075 15.5489H3.50721C2.97669 15.5489 2.4679 15.3382 2.09277 14.9631C1.71763 14.5879 1.50689 14.0791 1.50689 13.5486V4.21379C1.50689 3.68327 1.71763 3.17448 2.09277 2.79935C2.4679 2.42422 2.97669 2.21347 3.50721 2.21347H4.84075C5.01759 2.21347 5.18719 2.14322 5.31223 2.01817C5.43728 1.89313 5.50753 1.72353 5.50753 1.54669C5.50753 1.36986 5.43728 1.20026 5.31223 1.07521C5.18719 0.95017 5.01759 0.879921 4.84075 0.879921H3.50721C2.62334 0.88098 1.77597 1.23257 1.15098 1.85756C0.525984 2.48255 0.174399 3.32992 0.17334 4.21379L0.17334 13.5486C0.174399 14.4325 0.525984 15.2799 1.15098 15.9048C1.77597 16.5298 2.62334 16.8814 3.50721 16.8825H4.84075C5.01759 16.8825 5.18719 16.8122 5.31223 16.6872C5.43728 16.5621 5.50753 16.3925 5.50753 16.2157C5.50753 16.0389 5.43728 15.8693 5.31223 15.7442C5.18719 15.6192 5.01759 15.5489 4.84075 15.5489Z" fill="#E03138"/>
</svg>
