<svg width="27" height="24" viewBox="0 0 27 24" fill="none" xmlns="http://www.w3.org/2000/svg">
<path d="M16.859 18.2543L15.1541 12.1094C14.79 10.7949 13.9967 9.63996 12.9005 8.82838C11.8042 8.0168 10.468 7.59522 9.10451 7.63074C7.741 7.66625 6.42856 8.15682 5.37605 9.02437C4.32354 9.89192 3.59145 11.0866 3.29631 12.4182L1.97762 18.3527C1.91381 18.6402 1.91536 18.9384 1.98217 19.2252C2.04898 19.512 2.17933 19.7802 2.36361 20.0099C2.54789 20.2396 2.78139 20.425 3.04689 20.5525C3.3124 20.6799 3.60312 20.7461 3.89762 20.7461H6.26288C6.41338 21.4873 6.81549 22.1537 7.40108 22.6323C7.98666 23.1109 8.71971 23.3724 9.47601 23.3724C10.2323 23.3724 10.9654 23.1109 11.5509 22.6323C12.1365 22.1537 12.5386 21.4873 12.6891 20.7461H14.9646C15.2676 20.746 15.5665 20.6759 15.8379 20.5412C16.1094 20.4065 16.3461 20.211 16.5295 19.9698C16.7129 19.7286 16.8382 19.4483 16.8954 19.1507C16.9527 18.8532 16.9398 18.5464 16.859 18.2543ZM9.47601 22.0576C9.07059 22.0559 8.67559 21.929 8.34505 21.6943C8.01452 21.4595 7.76458 21.1284 7.62944 20.7461H11.3226C11.1874 21.1284 10.9375 21.4595 10.607 21.6943C10.2764 21.929 9.88143 22.0559 9.47601 22.0576ZM15.4859 19.1756C15.4247 19.2568 15.3454 19.3224 15.2543 19.3674C15.1632 19.4124 15.0629 19.4354 14.9613 19.4347H3.89762C3.79943 19.4347 3.7025 19.4126 3.61398 19.3701C3.52546 19.3276 3.44761 19.2658 3.38618 19.1892C3.32475 19.1126 3.28131 19.0232 3.25906 18.9275C3.2368 18.8319 3.23631 18.7325 3.25762 18.6366L4.57632 12.7022C4.80868 11.6571 5.38373 10.7196 6.21006 10.0389C7.0364 9.35809 8.06658 8.97309 9.13684 8.94506C10.2071 8.91702 11.256 9.24755 12.1169 9.88411C12.9777 10.5207 13.6011 11.4267 13.8878 12.4582L15.5928 18.6032C15.6206 18.7004 15.6254 18.8027 15.6069 18.902C15.5883 19.0014 15.5469 19.0951 15.4859 19.1756Z" fill="#707070"/>
<circle cx="16.9838" cy="9.29029" r="8.51613" fill="white" stroke="#D14663" stroke-width="1.54839"/>
<path d="M16.454 13.6946C16.0674 13.6946 15.7043 13.6224 15.3647 13.4779C15.0251 13.3297 14.7307 13.1202 14.4814 12.8492C14.2357 12.5782 14.0569 12.2585 13.9449 11.89L15.0396 11.5865C15.1443 11.9225 15.3268 12.1808 15.5869 12.3615C15.847 12.5385 16.1361 12.6252 16.454 12.6216C16.7394 12.618 16.9905 12.5511 17.2073 12.4211C17.4241 12.291 17.5939 12.1158 17.7167 11.8954C17.8396 11.6714 17.901 11.4149 17.901 11.1259C17.901 10.6923 17.7655 10.3346 17.4945 10.0528C17.2272 9.77102 16.8767 9.63012 16.4432 9.63012C16.3203 9.63012 16.1939 9.64818 16.0638 9.68431C15.9374 9.72044 15.8181 9.76741 15.7061 9.82521L15.175 8.93102L17.9281 6.49773L18.0473 6.82289H14.2538V5.74444H18.9469V6.82289L16.6599 9.02315L16.6491 8.65463C17.1405 8.65463 17.5668 8.76483 17.9281 8.98521C18.2894 9.20199 18.5676 9.49824 18.7627 9.87399C18.9614 10.2461 19.0607 10.663 19.0607 11.1259C19.0607 11.6244 18.9433 12.067 18.7085 12.4536C18.4772 12.8402 18.1647 13.1437 17.7709 13.3641C17.3807 13.5844 16.9418 13.6946 16.454 13.6946Z" fill="#D14663"/>
</svg>
