<svg width="33" height="32" viewBox="0 0 33 32" fill="none" xmlns="http://www.w3.org/2000/svg">
<path d="M4.20527 26.0406H18.6646C19.1096 26.0406 19.548 25.9335 19.9428 25.7282C20.3377 25.5229 20.6772 25.2255 20.9328 24.8612C21.1884 24.4969 21.3524 24.0764 21.4111 23.6353C21.4698 23.1942 21.4214 22.7454 21.2699 22.327L18.6359 15.0447C18.1861 13.4263 17.2185 11.9999 15.8812 10.9835C14.5439 9.96709 12.9105 9.4167 11.2308 9.4165C9.48225 9.41648 7.78597 10.0127 6.42202 11.1069C5.05807 12.201 4.10801 13.7275 3.72871 15.4344L1.55834 22.4535C1.43056 22.8679 1.40183 23.3065 1.47447 23.734C1.54712 24.1616 1.7191 24.5661 1.97658 24.915C2.23406 25.264 2.56986 25.5476 2.95695 25.7431C3.34404 25.9386 3.77162 26.0405 4.20527 26.0406Z" fill="white"/>
<path d="M7.00547 27.8877C7.21745 28.9316 7.78379 29.8701 8.60854 30.5442C9.43329 31.2183 10.4657 31.5866 11.5309 31.5866C12.5961 31.5866 13.6286 31.2183 14.4533 30.5442C15.2781 29.8701 15.8444 28.9316 16.0564 27.8877H7.00547Z" fill="white"/>
<circle cx="20.9999" cy="12" r="11" fill="white" stroke="#D14663" stroke-width="2"/>
<path d="M20.2948 17.189C19.7955 17.189 19.3265 17.0957 18.8878 16.909C18.4492 16.7177 18.0688 16.447 17.7468 16.097C17.4295 15.747 17.1985 15.334 17.0538 14.858L18.4678 14.466C18.6032 14.9 18.8388 15.2337 19.1748 15.467C19.5108 15.6957 19.8842 15.8077 20.2948 15.803C20.6635 15.7983 20.9878 15.712 21.2678 15.544C21.5478 15.376 21.7672 15.1497 21.9258 14.865C22.0845 14.5757 22.1638 14.2443 22.1638 13.871C22.1638 13.311 21.9888 12.849 21.6388 12.485C21.2935 12.121 20.8408 11.939 20.2808 11.939C20.1222 11.939 19.9588 11.9623 19.7908 12.009C19.6275 12.0557 19.4735 12.1163 19.3288 12.191L18.6428 11.036L22.1988 7.893L22.3528 8.313H17.4528V6.92H23.5148V8.313L20.5608 11.155L20.5468 10.679C21.1815 10.679 21.7322 10.8213 22.1988 11.106C22.6655 11.386 23.0248 11.7687 23.2768 12.254C23.5335 12.7347 23.6618 13.2737 23.6618 13.871C23.6618 14.515 23.5102 15.0867 23.2068 15.586C22.9082 16.0853 22.5045 16.4773 21.9958 16.762C21.4918 17.0467 20.9248 17.189 20.2948 17.189Z" fill="#D14663"/>
</svg>
