<svg width="33" height="32" viewBox="0 0 33 32" fill="none" xmlns="http://www.w3.org/2000/svg">
<path d="M4.20525 26.0406H18.6645C19.1095 26.0406 19.548 25.9335 19.9428 25.7282C20.3376 25.5229 20.6772 25.2255 20.9328 24.8612C21.1884 24.4969 21.3524 24.0764 21.4111 23.6353C21.4698 23.1942 21.4214 22.7454 21.2699 22.327L18.6359 15.0447C18.1861 13.4263 17.2185 11.9999 15.8812 10.9835C14.5439 9.96709 12.9105 9.4167 11.2308 9.4165C9.48223 9.41648 7.78594 10.0127 6.42199 11.1069C5.05804 12.201 4.10799 13.7275 3.72869 15.4344L1.55832 22.4535C1.43054 22.8679 1.40181 23.3065 1.47445 23.734C1.54709 24.1616 1.71907 24.5661 1.97656 24.915C2.23404 25.264 2.56984 25.5476 2.95693 25.7431C3.34402 25.9386 3.77159 26.0405 4.20525 26.0406Z" fill="white"/>
<path d="M7.00543 27.8878C7.2174 28.9316 7.78375 29.8702 8.6085 30.5443C9.43325 31.2184 10.4657 31.5866 11.5309 31.5866C12.5961 31.5866 13.6285 31.2184 14.4533 30.5443C15.278 29.8702 15.8444 28.9316 16.0563 27.8878H7.00543Z" fill="white"/>
<circle cx="20.9999" cy="12" r="11" fill="white" stroke="#D14663" stroke-width="2"/>
<path d="M20.2948 17.1889C19.7955 17.1889 19.3265 17.0956 18.8878 16.9089C18.4492 16.7176 18.0688 16.4469 17.7468 16.0969C17.4295 15.7469 17.1985 15.3339 17.0538 14.8579L18.4678 14.4659C18.6032 14.8999 18.8388 15.2336 19.1748 15.4669C19.5108 15.6956 19.8842 15.8076 20.2948 15.8029C20.6635 15.7982 20.9878 15.7119 21.2678 15.5439C21.5478 15.3759 21.7672 15.1496 21.9258 14.8649C22.0845 14.5756 22.1638 14.2442 22.1638 13.8709C22.1638 13.3109 21.9888 12.8489 21.6388 12.4849C21.2935 12.1209 20.8408 11.9389 20.2808 11.9389C20.1222 11.9389 19.9588 11.9622 19.7908 12.0089C19.6275 12.0556 19.4735 12.1162 19.3288 12.1909L18.6428 11.0359L22.1988 7.89291L22.3528 8.31291H17.4528V6.91991H23.5148V8.31291L20.5608 11.1549L20.5468 10.6789C21.1815 10.6789 21.7322 10.8212 22.1988 11.1059C22.6655 11.3859 23.0248 11.7686 23.2768 12.2539C23.5335 12.7346 23.6618 13.2736 23.6618 13.8709C23.6618 14.5149 23.5102 15.0866 23.2068 15.5859C22.9082 16.0852 22.5045 16.4772 21.9958 16.7619C21.4918 17.0466 20.9248 17.1889 20.2948 17.1889Z" fill="#D14663"/>
</svg>
