<svg width="16" height="16" viewBox="0 0 16 16" fill="none" xmlns="http://www.w3.org/2000/svg">
<path d="M8 -1.52588e-05C3.58867 -1.52588e-05 0 3.58865 0 7.99998C0 12.4113 3.58867 16 8 16C12.4113 16 16 12.4113 16 7.99998C16 3.58865 12.4113 -1.52588e-05 8 -1.52588e-05ZM5.33333 14.1093V14C5.33333 12.5293 6.52933 11.3333 8 11.3333C9.47067 11.3333 10.6667 12.5293 10.6667 14V14.1093C9.84933 14.4673 8.948 14.6667 8 14.6667C7.052 14.6667 6.15067 14.4673 5.33333 14.1093ZM11.95 13.3673C11.646 11.4613 9.99067 9.99998 8 9.99998C6.00933 9.99998 4.35467 11.4613 4.05 13.3673C2.40333 12.152 1.33333 10.1987 1.33333 7.99998C1.33333 4.32398 4.324 1.33332 8 1.33332C11.676 1.33332 14.6667 4.32398 14.6667 7.99998C14.6667 10.1987 13.5967 12.152 11.95 13.3673ZM8 3.33332C6.52933 3.33332 5.33333 4.52932 5.33333 5.99998C5.33333 7.47065 6.52933 8.66665 8 8.66665C9.47067 8.66665 10.6667 7.47065 10.6667 5.99998C10.6667 4.52932 9.47067 3.33332 8 3.33332ZM8 7.33332C7.26467 7.33332 6.66667 6.73532 6.66667 5.99998C6.66667 5.26465 7.26467 4.66665 8 4.66665C8.73533 4.66665 9.33333 5.26465 9.33333 5.99998C9.33333 6.73532 8.73533 7.33332 8 7.33332Z" fill="#1E1E1E"/>
</svg>
