<svg width="24" height="24" viewBox="0 0 24 24" fill="none" xmlns="http://www.w3.org/2000/svg">
<g clip-path="url(#clip0_45_945)">
<path d="M1.82995 1.82001L2.87995 0.910006C4.08994 -0.299994 6.04995 -0.299994 7.25994 0.910006C7.28994 0.940006 9.13994 3.35 9.13994 3.35C10.2799 4.55 10.2799 6.44 9.13994 7.63L7.97994 9.09C9.43994 12.4 11.7099 14.68 14.9099 16.04L16.3699 14.87C17.5599 13.72 19.4599 13.72 20.6499 14.87C20.6499 14.87 23.0599 16.72 23.0899 16.75C24.2999 17.96 24.2999 19.92 23.1399 21.08L22.1399 22.23C20.9899 23.38 19.4399 24.01 17.7599 24.01C10.1199 24.01 -5.14984e-05 13.88 -5.14984e-05 6.25C-5.14984e-05 4.58 0.629948 3.02 1.82995 1.83001V1.82001ZM17.7599 22C18.8999 22 19.9499 21.58 20.6699 20.85L21.6699 19.7C22.0799 19.29 22.0999 18.62 21.7099 18.19C21.7099 18.19 19.3199 16.35 19.2899 16.32C18.8799 15.91 18.1599 15.91 17.7399 16.32C17.7099 16.35 15.6999 17.96 15.6999 17.96C15.4199 18.18 15.0499 18.24 14.7199 18.11C10.5799 16.53 7.60994 13.57 5.89994 9.3C5.76995 8.97 5.81994 8.59 6.04994 8.3C6.04994 8.3 7.65994 6.28 7.67994 6.26C8.10994 5.83 8.10994 5.14 7.67994 4.71C7.64994 4.68 5.80994 2.29 5.80994 2.29C5.37994 1.9 4.70995 1.91 4.24995 2.37L3.19995 3.28C2.42995 4.05 1.99995 5.1 1.99995 6.24C1.99995 13.2 11.7699 22 17.7599 22Z" fill="black"/>
</g>
<defs>
<clipPath id="clip0_45_945">
<rect width="24" height="24" fill="white" transform="matrix(-1 0 0 1 24 0)"/>
</clipPath>
</defs>
</svg>
