<svg width="24" height="24" viewBox="0 0 24 24" fill="none" xmlns="http://www.w3.org/2000/svg">
<path d="M11.997 8.16666C11.3377 8.16666 10.6932 8.36215 10.1451 8.72842C9.59689 9.0947 9.16965 9.61529 8.91736 10.2244C8.66506 10.8335 8.59905 11.5037 8.72767 12.1503C8.85629 12.7969 9.17376 13.3908 9.63993 13.857C10.1061 14.3232 10.7001 14.6407 11.3467 14.7693C11.9933 14.8979 12.6635 14.8319 13.2726 14.5796C13.8817 14.3273 14.4022 13.9001 14.7685 13.3519C15.1348 12.8037 15.3303 12.1593 15.3303 11.5C15.3303 10.6159 14.9791 9.76809 14.354 9.14297C13.7289 8.51785 12.881 8.16666 11.997 8.16666ZM11.997 13.1667C11.6673 13.1667 11.3451 13.0689 11.071 12.8858C10.7969 12.7026 10.5833 12.4423 10.4572 12.1378C10.331 11.8333 10.298 11.4981 10.3623 11.1748C10.4266 10.8515 10.5854 10.5546 10.8184 10.3215C11.0515 10.0884 11.3485 9.92966 11.6718 9.86535C11.9951 9.80104 12.3302 9.83404 12.6348 9.96019C12.9393 10.0863 13.1996 10.3 13.3827 10.574C13.5659 10.8481 13.6636 11.1704 13.6636 11.5C13.6636 11.942 13.488 12.3659 13.1755 12.6785C12.8629 12.9911 12.439 13.1667 11.997 13.1667Z" fill="#707070"/>
<path d="M19.7421 13.0833L19.3721 12.87C19.5387 11.9637 19.5387 11.0346 19.3721 10.1283L19.7421 9.915C20.0266 9.75085 20.2761 9.53226 20.4761 9.27172C20.6762 9.01118 20.8229 8.71378 20.9081 8.39651C20.9932 8.07925 21.015 7.74832 20.9722 7.42263C20.9294 7.09694 20.8229 6.78286 20.6588 6.49833C20.4946 6.2138 20.276 5.96439 20.0155 5.76434C19.755 5.56428 19.4576 5.41751 19.1403 5.33239C18.823 5.24726 18.4921 5.22547 18.1664 5.26824C17.8407 5.31101 17.5266 5.41751 17.2421 5.58167L16.8713 5.79583C16.1709 5.19743 15.366 4.73354 14.4971 4.4275V4C14.4971 3.33696 14.2337 2.70107 13.7649 2.23223C13.296 1.76339 12.6602 1.5 11.9971 1.5C11.3341 1.5 10.6982 1.76339 10.2293 2.23223C9.76051 2.70107 9.49711 3.33696 9.49711 4V4.4275C8.62827 4.73464 7.82365 5.19967 7.12378 5.79917L6.75128 5.58333C6.17664 5.25181 5.49385 5.16214 4.8531 5.33405C4.21235 5.50596 3.66613 5.92536 3.33461 6.5C3.00309 7.07464 2.91342 7.75743 3.08533 8.39818C3.25724 9.03893 3.67664 9.58515 4.25128 9.91667L4.62128 10.13C4.45471 11.0363 4.45471 11.9654 4.62128 12.8717L4.25128 13.085C3.67664 13.4165 3.25724 13.9627 3.08533 14.6035C2.91342 15.2442 3.00309 15.927 3.33461 16.5017C3.66613 17.0763 4.21235 17.4957 4.8531 17.6676C5.49385 17.8395 6.17664 17.7499 6.75128 17.4183L7.12211 17.2042C7.82275 17.8027 8.62793 18.2666 9.49711 18.5725V19C9.49711 19.663 9.76051 20.2989 10.2293 20.7678C10.6982 21.2366 11.3341 21.5 11.9971 21.5C12.6602 21.5 13.296 21.2366 13.7649 20.7678C14.2337 20.2989 14.4971 19.663 14.4971 19V18.5725C15.366 18.2654 16.1706 17.8003 16.8704 17.2008L17.2429 17.4158C17.8176 17.7474 18.5004 17.837 19.1411 17.6651C19.7819 17.4932 20.3281 17.0738 20.6596 16.4992C20.9911 15.9245 21.0808 15.2417 20.9089 14.601C20.737 13.9602 20.3176 13.414 19.7429 13.0825L19.7421 13.0833ZM17.6188 9.93667C17.901 10.9592 17.901 12.0391 17.6188 13.0617C17.5695 13.2396 17.5807 13.4289 17.6507 13.5998C17.7207 13.7707 17.8455 13.9135 18.0054 14.0058L18.9088 14.5275C19.1003 14.638 19.2401 14.8201 19.2973 15.0336C19.3546 15.2472 19.3247 15.4747 19.2142 15.6663C19.1037 15.8578 18.9216 15.9975 18.7081 16.0548C18.4945 16.1121 18.267 16.0822 18.0754 15.9717L17.1704 15.4483C17.0104 15.3556 16.824 15.3188 16.6407 15.3437C16.4573 15.3686 16.2875 15.4538 16.1579 15.5858C15.4162 16.343 14.4818 16.8833 13.4554 17.1483C13.2763 17.1944 13.1176 17.2987 13.0043 17.4449C12.891 17.5911 12.8295 17.7709 12.8296 17.9558V19C12.8296 19.221 12.7418 19.433 12.5855 19.5893C12.4293 19.7455 12.2173 19.8333 11.9963 19.8333C11.7753 19.8333 11.5633 19.7455 11.407 19.5893C11.2507 19.433 11.1629 19.221 11.1629 19V17.9567C11.163 17.7717 11.1016 17.592 10.9883 17.4458C10.875 17.2996 10.7163 17.1952 10.5371 17.1492C9.51074 16.8831 8.57655 16.3416 7.83545 15.5833C7.70588 15.4513 7.53606 15.3661 7.35274 15.3412C7.16943 15.3163 6.98304 15.3531 6.82295 15.4458L5.91961 15.9683C5.8248 16.0239 5.71994 16.0602 5.61105 16.0751C5.50216 16.09 5.39141 16.0832 5.28516 16.0551C5.17891 16.027 5.07927 15.9782 4.99196 15.9114C4.90466 15.8446 4.83143 15.7613 4.77648 15.6661C4.72153 15.5709 4.68594 15.4658 4.67178 15.3568C4.65761 15.2479 4.66514 15.1372 4.69394 15.0311C4.72273 14.925 4.77222 14.8257 4.83956 14.7389C4.90689 14.652 4.99074 14.5793 5.08628 14.525L5.98961 14.0033C6.14957 13.911 6.27434 13.7682 6.34433 13.5973C6.41432 13.4264 6.42556 13.2371 6.37628 13.0592C6.09408 12.0366 6.09408 10.9567 6.37628 9.93417C6.42467 9.75657 6.41289 9.56795 6.34279 9.39774C6.27269 9.22754 6.14821 9.08534 5.98878 8.99333L5.08545 8.47167C4.89394 8.36116 4.75417 8.1791 4.6969 7.96555C4.63962 7.75199 4.66952 7.52442 4.78003 7.33292C4.89054 7.14141 5.07259 7.00164 5.28615 6.94437C5.49971 6.88709 5.72727 6.91699 5.91878 7.0275L6.82378 7.55083C6.98343 7.64376 7.16943 7.68101 7.35255 7.65672C7.53568 7.63244 7.70554 7.548 7.83545 7.41667C8.57719 6.65945 9.51164 6.11918 10.5379 5.85417C10.7176 5.80797 10.8768 5.70313 10.9901 5.55625C11.1035 5.40938 11.1646 5.22887 11.1638 5.04333V4C11.1638 3.77899 11.2516 3.56702 11.4079 3.41074C11.5641 3.25446 11.7761 3.16667 11.9971 3.16667C12.2181 3.16667 12.4301 3.25446 12.5864 3.41074C12.7427 3.56702 12.8304 3.77899 12.8304 4V5.04333C12.8304 5.2283 12.8918 5.40804 13.0051 5.55423C13.1184 5.70043 13.2771 5.80478 13.4563 5.85083C14.483 6.11679 15.4174 6.65824 16.1588 7.41667C16.2883 7.54872 16.4582 7.63391 16.6415 7.65881C16.8248 7.6837 17.0112 7.64689 17.1713 7.55417L18.0746 7.03167C18.1694 6.97609 18.2743 6.93981 18.3832 6.92492C18.4921 6.91003 18.6028 6.91683 18.7091 6.94492C18.8153 6.97301 18.915 7.02184 19.0023 7.08859C19.0896 7.15535 19.1628 7.23872 19.2178 7.33389C19.2727 7.42907 19.3083 7.53417 19.3225 7.64316C19.3366 7.75214 19.3291 7.86285 19.3003 7.96891C19.2715 8.07497 19.222 8.17429 19.1547 8.26114C19.0873 8.348 19.0035 8.42068 18.9079 8.475L18.0046 8.99667C17.8455 9.08892 17.7214 9.23123 17.6516 9.40141C17.5818 9.57159 17.5702 9.76008 17.6188 9.9375V9.93667Z" fill="#707070"/>
</svg>
