<svg width="24" height="24" viewBox="0 0 24 24" fill="none" xmlns="http://www.w3.org/2000/svg">
<path d="M3.33682 17C4.02612 18.1963 5.55475 18.6073 6.75108 17.918L6.7535 17.9166L7.12432 17.7025C7.82432 18.3014 8.62893 18.7658 9.49764 19.0725V19.5C9.49764 20.8807 10.6169 22 11.9976 22C13.3783 22 14.4976 20.8807 14.4976 19.5V19.0725C15.3665 18.7654 16.1711 18.3003 16.871 17.7008L17.2435 17.9158C18.4401 18.6062 19.9698 18.1958 20.6601 16.9991C21.3505 15.8025 20.9401 14.2728 19.7435 13.5825L19.3735 13.3691C19.54 12.4628 19.54 11.5338 19.3735 10.6275L19.7435 10.4141C20.9401 9.72379 21.3505 8.1941 20.6601 6.99746C19.9698 5.80086 18.4401 5.39043 17.2435 6.08078L16.8726 6.29496C16.1719 5.69679 15.3668 5.23319 14.4976 4.9275V4.5C14.4976 3.1193 13.3783 2 11.9976 2C10.6169 2 9.49764 3.1193 9.49764 4.5V4.9275C8.62879 5.23463 7.82418 5.69967 7.12432 6.29918L6.75182 6.08336C5.55518 5.39297 4.02549 5.8034 3.33514 7C2.64479 8.1966 3.05518 9.72633 4.25182 10.4167L4.62182 10.63C4.45526 11.5363 4.45526 12.4654 4.62182 13.3717L4.25182 13.585C3.0585 14.2772 2.64944 15.8039 3.33682 17ZM11.9976 8.66668C13.8386 8.66668 15.331 10.1591 15.331 12C15.331 13.8409 13.8386 15.3333 11.9976 15.3333C10.1567 15.3333 8.66432 13.8409 8.66432 12C8.66432 10.1591 10.1567 8.66668 11.9976 8.66668Z" fill="white"/>
</svg>
