<svg width="12" height="16" viewBox="0 0 12 16" fill="none" xmlns="http://www.w3.org/2000/svg">
<path d="M6.54861 5.92197L6.35261 6.07864C6.14261 6.24597 5.84328 6.24664 5.63261 6.07997L5.43261 5.92197C4.74861 5.38064 4.27794 4.7993 4.03328 4.19397C3.96128 4.0153 3.98261 3.81264 4.08994 3.6533C4.19794 3.49397 4.37728 3.39797 4.56994 3.39797H5.99128H7.41194C7.60461 3.39797 7.78461 3.49397 7.89194 3.6533C7.99928 3.81264 8.02061 4.0153 7.94861 4.19397C7.70461 4.79664 7.23328 5.37797 6.54861 5.92197ZM11.9679 12.75C12.0919 13.574 11.8479 14.412 11.3006 15.048C10.7446 15.6933 9.93861 16.0633 9.08794 16.0633H2.91194C2.06194 16.0633 1.25528 15.6926 0.699943 15.048C0.151276 14.4106 -0.0920574 13.5726 0.0319426 12.7466C0.286609 11.052 1.16794 9.48064 2.65594 8.0633C1.16794 6.64664 0.286609 5.0753 0.0319426 3.37997C-0.0920574 2.55464 0.151276 1.71597 0.699943 1.0793C1.25528 0.434636 2.06194 0.0646362 2.91194 0.0646362H9.08794C9.93794 0.0646362 10.7446 0.434636 11.3006 1.0793C11.8486 1.71597 12.0919 2.5533 11.9679 3.37797C11.7153 5.06797 10.8333 6.64064 9.34128 8.06397C10.8333 9.48797 11.7159 11.0593 11.9679 12.75ZM9.98994 13.046C9.76728 11.5566 8.82661 10.1433 7.19594 8.84597C6.95728 8.65664 6.81861 8.36797 6.81861 8.0633C6.81861 7.75864 6.95728 7.46997 7.19594 7.28064C8.82728 5.9833 9.76728 4.57064 9.98994 3.0813C10.0406 2.7413 9.88328 2.49797 9.78461 2.38397C9.60928 2.17997 9.35528 2.0633 9.08794 2.0633H2.91194C2.64461 2.0633 2.39061 2.18064 2.21528 2.38397C2.11661 2.49864 1.95861 2.74197 2.00994 3.08264C2.23461 4.57864 3.17461 5.99064 4.80261 7.27864C5.04194 7.46797 5.18194 7.7573 5.18194 8.06264C5.18194 8.36797 5.04194 8.6573 4.80261 8.84664C3.17461 10.1353 2.23461 11.5466 2.00994 13.0426C1.95861 13.384 2.11661 13.6266 2.21594 13.7413C2.39128 13.9453 2.64528 14.062 2.91261 14.062H9.08861C9.35594 14.062 9.60994 13.9453 9.78528 13.742C9.88394 13.628 10.0413 13.3846 9.99061 13.0453L9.98994 13.046Z" fill="#CCCCCC"/>
</svg>
